%
M48
M72
T01C0.0197
T02C0.0236
T03C0.0315
T04C0.0320
T05C0.0350
T06C0.0360
T07C0.0394
T08C0.0400
T09C0.0433
T10C0.0512
T11C0.0520
T12C0.0650
T13C0.1260
%
T01
X9418Y6811
X10760Y6425
X11994Y6185
X11994Y7135
X12944Y8685
X15144Y8385
X14744Y6985
X15044Y6185
X15644Y6185
X14544Y5685
X14744Y3535
X19344Y3785
X21944Y6185
X21944Y6885
X22744Y6885
X24344Y6585
X25944Y7085
X27344Y6185
X28644Y7085
X29944Y6585
X29844Y4185
X25744Y8385
X25344Y9485
X26344Y9485
X29344Y9885
X29444Y15985
X20344Y15985
X17544Y13085
X18244Y12585
X18844Y12285
X17844Y10485
X18344Y9385
X18344Y8385
X18344Y7685
X20344Y6885
X20844Y7985
X20344Y9485
X19844Y9485
X19344Y9485
X15644Y10485
X13644Y11685
X12534Y11685
X11750Y12485
X13144Y15585
X11694Y16085
X9244Y15335
X9244Y17435
X11694Y18185
X16044Y14585
T02
X17044Y13885
X18244Y13885
X18244Y14885
X22644Y15685
X23344Y9485
X19844Y6085
X8644Y6185
X8644Y7985
X8644Y4285
X9244Y18935
X31744Y15685
T03
X30251Y17623
X30251Y22347
X21551Y22347
X21551Y17623
T04
X15790Y13239
X16497Y12531
X10944Y13535
X10944Y14385
X6144Y6485
X6144Y5485
X2444Y5985
X1444Y5985
X15844Y4285
X16344Y3535
X16844Y4285
T05
X16544Y6885
X16544Y7885
X16544Y8885
X16544Y9885
X12644Y16185
X12644Y17185
X12644Y18185
X29844Y12285
X30844Y12285
X31844Y12285
T06
X4744Y4785
X4744Y3785
X3344Y3785
X3344Y4785
X1260Y21555
X3027Y22615
T07
X3759Y19672
X5728Y19672
X11244Y10885
X12244Y10885
X13244Y10885
X14244Y10885
X14244Y9885
X13244Y9885
X12244Y9885
X11244Y9885
X7775Y8098
X1712Y8098
X16844Y5285
X17844Y5285
X18844Y5285
X19844Y5285
X20844Y5285
X21844Y5285
X22844Y5285
X23844Y5285
X24844Y5285
X25844Y5285
X26844Y5285
X27844Y5285
X28844Y5285
X29844Y5285
X30844Y5285
X30844Y11285
X29844Y11285
X28844Y11285
X27844Y11285
X26844Y11285
X25844Y11285
X24844Y11285
X23844Y11285
X22844Y11285
X21844Y11285
X20844Y11285
X19844Y11285
X18844Y11285
X17844Y11285
X16844Y11285
T08
X14944Y14085
X13944Y14085
X12944Y14085
X11944Y14085
X21844Y12785
X22844Y12785
X23844Y12785
X24844Y12785
X25844Y12785
X26844Y12785
X27844Y12785
X28844Y12785
X26844Y14085
X25844Y14085
X24844Y14085
X23844Y14085
X23844Y3785
X24844Y3785
X25844Y3785
X26844Y3785
X27844Y3785
X28844Y3785
X22844Y3785
X21844Y3785
X7444Y23885
X7444Y25885
T09
X8144Y22585
X4144Y22585
T10
X16748Y22347
X22339Y19985
X25448Y17623
X31039Y19985
X25448Y22347
X16748Y17623
T11
X16774Y24885
X18744Y24885
X20714Y24885
X25474Y24885
X27444Y24885
X29414Y24885
X5234Y25185
X3254Y25185
T12
X15844Y11285
X15844Y5285
X31844Y5285
X31844Y11285
T13
X1444Y3985
X1444Y25985
X13844Y25985
X31544Y25985
X31544Y3985
M30
