G75*
%MOIN*%
%OFA0B0*%
%FSLAX25Y25*%
%IPPOS*%
%LPD*%
%AMOC8*
5,1,8,0,0,1.08239X$1,22.5*
%
%ADD10C,0.00000*%
%ADD11C,0.00400*%
%ADD12C,0.01000*%
D10*
X0006435Y0031850D02*
X0323435Y0031850D01*
X0323435Y0267850D01*
X0006435Y0267850D01*
X0006435Y0031850D01*
X0008136Y0039850D02*
X0008138Y0040008D01*
X0008144Y0040166D01*
X0008154Y0040324D01*
X0008168Y0040482D01*
X0008186Y0040639D01*
X0008207Y0040796D01*
X0008233Y0040952D01*
X0008263Y0041108D01*
X0008296Y0041263D01*
X0008334Y0041416D01*
X0008375Y0041569D01*
X0008420Y0041721D01*
X0008469Y0041872D01*
X0008522Y0042021D01*
X0008578Y0042169D01*
X0008638Y0042315D01*
X0008702Y0042460D01*
X0008770Y0042603D01*
X0008841Y0042745D01*
X0008915Y0042885D01*
X0008993Y0043022D01*
X0009075Y0043158D01*
X0009159Y0043292D01*
X0009248Y0043423D01*
X0009339Y0043552D01*
X0009434Y0043679D01*
X0009531Y0043804D01*
X0009632Y0043926D01*
X0009736Y0044045D01*
X0009843Y0044162D01*
X0009953Y0044276D01*
X0010066Y0044387D01*
X0010181Y0044496D01*
X0010299Y0044601D01*
X0010420Y0044703D01*
X0010543Y0044803D01*
X0010669Y0044899D01*
X0010797Y0044992D01*
X0010927Y0045082D01*
X0011060Y0045168D01*
X0011195Y0045252D01*
X0011331Y0045331D01*
X0011470Y0045408D01*
X0011611Y0045480D01*
X0011753Y0045550D01*
X0011897Y0045615D01*
X0012043Y0045677D01*
X0012190Y0045735D01*
X0012339Y0045790D01*
X0012489Y0045841D01*
X0012640Y0045888D01*
X0012792Y0045931D01*
X0012945Y0045970D01*
X0013100Y0046006D01*
X0013255Y0046037D01*
X0013411Y0046065D01*
X0013567Y0046089D01*
X0013724Y0046109D01*
X0013882Y0046125D01*
X0014039Y0046137D01*
X0014198Y0046145D01*
X0014356Y0046149D01*
X0014514Y0046149D01*
X0014672Y0046145D01*
X0014831Y0046137D01*
X0014988Y0046125D01*
X0015146Y0046109D01*
X0015303Y0046089D01*
X0015459Y0046065D01*
X0015615Y0046037D01*
X0015770Y0046006D01*
X0015925Y0045970D01*
X0016078Y0045931D01*
X0016230Y0045888D01*
X0016381Y0045841D01*
X0016531Y0045790D01*
X0016680Y0045735D01*
X0016827Y0045677D01*
X0016973Y0045615D01*
X0017117Y0045550D01*
X0017259Y0045480D01*
X0017400Y0045408D01*
X0017539Y0045331D01*
X0017675Y0045252D01*
X0017810Y0045168D01*
X0017943Y0045082D01*
X0018073Y0044992D01*
X0018201Y0044899D01*
X0018327Y0044803D01*
X0018450Y0044703D01*
X0018571Y0044601D01*
X0018689Y0044496D01*
X0018804Y0044387D01*
X0018917Y0044276D01*
X0019027Y0044162D01*
X0019134Y0044045D01*
X0019238Y0043926D01*
X0019339Y0043804D01*
X0019436Y0043679D01*
X0019531Y0043552D01*
X0019622Y0043423D01*
X0019711Y0043292D01*
X0019795Y0043158D01*
X0019877Y0043022D01*
X0019955Y0042885D01*
X0020029Y0042745D01*
X0020100Y0042603D01*
X0020168Y0042460D01*
X0020232Y0042315D01*
X0020292Y0042169D01*
X0020348Y0042021D01*
X0020401Y0041872D01*
X0020450Y0041721D01*
X0020495Y0041569D01*
X0020536Y0041416D01*
X0020574Y0041263D01*
X0020607Y0041108D01*
X0020637Y0040952D01*
X0020663Y0040796D01*
X0020684Y0040639D01*
X0020702Y0040482D01*
X0020716Y0040324D01*
X0020726Y0040166D01*
X0020732Y0040008D01*
X0020734Y0039850D01*
X0020732Y0039692D01*
X0020726Y0039534D01*
X0020716Y0039376D01*
X0020702Y0039218D01*
X0020684Y0039061D01*
X0020663Y0038904D01*
X0020637Y0038748D01*
X0020607Y0038592D01*
X0020574Y0038437D01*
X0020536Y0038284D01*
X0020495Y0038131D01*
X0020450Y0037979D01*
X0020401Y0037828D01*
X0020348Y0037679D01*
X0020292Y0037531D01*
X0020232Y0037385D01*
X0020168Y0037240D01*
X0020100Y0037097D01*
X0020029Y0036955D01*
X0019955Y0036815D01*
X0019877Y0036678D01*
X0019795Y0036542D01*
X0019711Y0036408D01*
X0019622Y0036277D01*
X0019531Y0036148D01*
X0019436Y0036021D01*
X0019339Y0035896D01*
X0019238Y0035774D01*
X0019134Y0035655D01*
X0019027Y0035538D01*
X0018917Y0035424D01*
X0018804Y0035313D01*
X0018689Y0035204D01*
X0018571Y0035099D01*
X0018450Y0034997D01*
X0018327Y0034897D01*
X0018201Y0034801D01*
X0018073Y0034708D01*
X0017943Y0034618D01*
X0017810Y0034532D01*
X0017675Y0034448D01*
X0017539Y0034369D01*
X0017400Y0034292D01*
X0017259Y0034220D01*
X0017117Y0034150D01*
X0016973Y0034085D01*
X0016827Y0034023D01*
X0016680Y0033965D01*
X0016531Y0033910D01*
X0016381Y0033859D01*
X0016230Y0033812D01*
X0016078Y0033769D01*
X0015925Y0033730D01*
X0015770Y0033694D01*
X0015615Y0033663D01*
X0015459Y0033635D01*
X0015303Y0033611D01*
X0015146Y0033591D01*
X0014988Y0033575D01*
X0014831Y0033563D01*
X0014672Y0033555D01*
X0014514Y0033551D01*
X0014356Y0033551D01*
X0014198Y0033555D01*
X0014039Y0033563D01*
X0013882Y0033575D01*
X0013724Y0033591D01*
X0013567Y0033611D01*
X0013411Y0033635D01*
X0013255Y0033663D01*
X0013100Y0033694D01*
X0012945Y0033730D01*
X0012792Y0033769D01*
X0012640Y0033812D01*
X0012489Y0033859D01*
X0012339Y0033910D01*
X0012190Y0033965D01*
X0012043Y0034023D01*
X0011897Y0034085D01*
X0011753Y0034150D01*
X0011611Y0034220D01*
X0011470Y0034292D01*
X0011331Y0034369D01*
X0011195Y0034448D01*
X0011060Y0034532D01*
X0010927Y0034618D01*
X0010797Y0034708D01*
X0010669Y0034801D01*
X0010543Y0034897D01*
X0010420Y0034997D01*
X0010299Y0035099D01*
X0010181Y0035204D01*
X0010066Y0035313D01*
X0009953Y0035424D01*
X0009843Y0035538D01*
X0009736Y0035655D01*
X0009632Y0035774D01*
X0009531Y0035896D01*
X0009434Y0036021D01*
X0009339Y0036148D01*
X0009248Y0036277D01*
X0009159Y0036408D01*
X0009075Y0036542D01*
X0008993Y0036678D01*
X0008915Y0036815D01*
X0008841Y0036955D01*
X0008770Y0037097D01*
X0008702Y0037240D01*
X0008638Y0037385D01*
X0008578Y0037531D01*
X0008522Y0037679D01*
X0008469Y0037828D01*
X0008420Y0037979D01*
X0008375Y0038131D01*
X0008334Y0038284D01*
X0008296Y0038437D01*
X0008263Y0038592D01*
X0008233Y0038748D01*
X0008207Y0038904D01*
X0008186Y0039061D01*
X0008168Y0039218D01*
X0008154Y0039376D01*
X0008144Y0039534D01*
X0008138Y0039692D01*
X0008136Y0039850D01*
X0155185Y0052850D02*
X0155187Y0052963D01*
X0155193Y0053077D01*
X0155203Y0053190D01*
X0155217Y0053302D01*
X0155234Y0053414D01*
X0155256Y0053526D01*
X0155282Y0053636D01*
X0155311Y0053746D01*
X0155344Y0053854D01*
X0155381Y0053962D01*
X0155422Y0054067D01*
X0155466Y0054172D01*
X0155514Y0054275D01*
X0155565Y0054376D01*
X0155620Y0054475D01*
X0155679Y0054572D01*
X0155741Y0054667D01*
X0155806Y0054760D01*
X0155874Y0054851D01*
X0155945Y0054939D01*
X0156020Y0055025D01*
X0156097Y0055108D01*
X0156177Y0055188D01*
X0156260Y0055265D01*
X0156346Y0055340D01*
X0156434Y0055411D01*
X0156525Y0055479D01*
X0156618Y0055544D01*
X0156713Y0055606D01*
X0156810Y0055665D01*
X0156909Y0055720D01*
X0157010Y0055771D01*
X0157113Y0055819D01*
X0157218Y0055863D01*
X0157323Y0055904D01*
X0157431Y0055941D01*
X0157539Y0055974D01*
X0157649Y0056003D01*
X0157759Y0056029D01*
X0157871Y0056051D01*
X0157983Y0056068D01*
X0158095Y0056082D01*
X0158208Y0056092D01*
X0158322Y0056098D01*
X0158435Y0056100D01*
X0158548Y0056098D01*
X0158662Y0056092D01*
X0158775Y0056082D01*
X0158887Y0056068D01*
X0158999Y0056051D01*
X0159111Y0056029D01*
X0159221Y0056003D01*
X0159331Y0055974D01*
X0159439Y0055941D01*
X0159547Y0055904D01*
X0159652Y0055863D01*
X0159757Y0055819D01*
X0159860Y0055771D01*
X0159961Y0055720D01*
X0160060Y0055665D01*
X0160157Y0055606D01*
X0160252Y0055544D01*
X0160345Y0055479D01*
X0160436Y0055411D01*
X0160524Y0055340D01*
X0160610Y0055265D01*
X0160693Y0055188D01*
X0160773Y0055108D01*
X0160850Y0055025D01*
X0160925Y0054939D01*
X0160996Y0054851D01*
X0161064Y0054760D01*
X0161129Y0054667D01*
X0161191Y0054572D01*
X0161250Y0054475D01*
X0161305Y0054376D01*
X0161356Y0054275D01*
X0161404Y0054172D01*
X0161448Y0054067D01*
X0161489Y0053962D01*
X0161526Y0053854D01*
X0161559Y0053746D01*
X0161588Y0053636D01*
X0161614Y0053526D01*
X0161636Y0053414D01*
X0161653Y0053302D01*
X0161667Y0053190D01*
X0161677Y0053077D01*
X0161683Y0052963D01*
X0161685Y0052850D01*
X0161683Y0052737D01*
X0161677Y0052623D01*
X0161667Y0052510D01*
X0161653Y0052398D01*
X0161636Y0052286D01*
X0161614Y0052174D01*
X0161588Y0052064D01*
X0161559Y0051954D01*
X0161526Y0051846D01*
X0161489Y0051738D01*
X0161448Y0051633D01*
X0161404Y0051528D01*
X0161356Y0051425D01*
X0161305Y0051324D01*
X0161250Y0051225D01*
X0161191Y0051128D01*
X0161129Y0051033D01*
X0161064Y0050940D01*
X0160996Y0050849D01*
X0160925Y0050761D01*
X0160850Y0050675D01*
X0160773Y0050592D01*
X0160693Y0050512D01*
X0160610Y0050435D01*
X0160524Y0050360D01*
X0160436Y0050289D01*
X0160345Y0050221D01*
X0160252Y0050156D01*
X0160157Y0050094D01*
X0160060Y0050035D01*
X0159961Y0049980D01*
X0159860Y0049929D01*
X0159757Y0049881D01*
X0159652Y0049837D01*
X0159547Y0049796D01*
X0159439Y0049759D01*
X0159331Y0049726D01*
X0159221Y0049697D01*
X0159111Y0049671D01*
X0158999Y0049649D01*
X0158887Y0049632D01*
X0158775Y0049618D01*
X0158662Y0049608D01*
X0158548Y0049602D01*
X0158435Y0049600D01*
X0158322Y0049602D01*
X0158208Y0049608D01*
X0158095Y0049618D01*
X0157983Y0049632D01*
X0157871Y0049649D01*
X0157759Y0049671D01*
X0157649Y0049697D01*
X0157539Y0049726D01*
X0157431Y0049759D01*
X0157323Y0049796D01*
X0157218Y0049837D01*
X0157113Y0049881D01*
X0157010Y0049929D01*
X0156909Y0049980D01*
X0156810Y0050035D01*
X0156713Y0050094D01*
X0156618Y0050156D01*
X0156525Y0050221D01*
X0156434Y0050289D01*
X0156346Y0050360D01*
X0156260Y0050435D01*
X0156177Y0050512D01*
X0156097Y0050592D01*
X0156020Y0050675D01*
X0155945Y0050761D01*
X0155874Y0050849D01*
X0155806Y0050940D01*
X0155741Y0051033D01*
X0155679Y0051128D01*
X0155620Y0051225D01*
X0155565Y0051324D01*
X0155514Y0051425D01*
X0155466Y0051528D01*
X0155422Y0051633D01*
X0155381Y0051738D01*
X0155344Y0051846D01*
X0155311Y0051954D01*
X0155282Y0052064D01*
X0155256Y0052174D01*
X0155234Y0052286D01*
X0155217Y0052398D01*
X0155203Y0052510D01*
X0155193Y0052623D01*
X0155187Y0052737D01*
X0155185Y0052850D01*
X0155185Y0112850D02*
X0155187Y0112963D01*
X0155193Y0113077D01*
X0155203Y0113190D01*
X0155217Y0113302D01*
X0155234Y0113414D01*
X0155256Y0113526D01*
X0155282Y0113636D01*
X0155311Y0113746D01*
X0155344Y0113854D01*
X0155381Y0113962D01*
X0155422Y0114067D01*
X0155466Y0114172D01*
X0155514Y0114275D01*
X0155565Y0114376D01*
X0155620Y0114475D01*
X0155679Y0114572D01*
X0155741Y0114667D01*
X0155806Y0114760D01*
X0155874Y0114851D01*
X0155945Y0114939D01*
X0156020Y0115025D01*
X0156097Y0115108D01*
X0156177Y0115188D01*
X0156260Y0115265D01*
X0156346Y0115340D01*
X0156434Y0115411D01*
X0156525Y0115479D01*
X0156618Y0115544D01*
X0156713Y0115606D01*
X0156810Y0115665D01*
X0156909Y0115720D01*
X0157010Y0115771D01*
X0157113Y0115819D01*
X0157218Y0115863D01*
X0157323Y0115904D01*
X0157431Y0115941D01*
X0157539Y0115974D01*
X0157649Y0116003D01*
X0157759Y0116029D01*
X0157871Y0116051D01*
X0157983Y0116068D01*
X0158095Y0116082D01*
X0158208Y0116092D01*
X0158322Y0116098D01*
X0158435Y0116100D01*
X0158548Y0116098D01*
X0158662Y0116092D01*
X0158775Y0116082D01*
X0158887Y0116068D01*
X0158999Y0116051D01*
X0159111Y0116029D01*
X0159221Y0116003D01*
X0159331Y0115974D01*
X0159439Y0115941D01*
X0159547Y0115904D01*
X0159652Y0115863D01*
X0159757Y0115819D01*
X0159860Y0115771D01*
X0159961Y0115720D01*
X0160060Y0115665D01*
X0160157Y0115606D01*
X0160252Y0115544D01*
X0160345Y0115479D01*
X0160436Y0115411D01*
X0160524Y0115340D01*
X0160610Y0115265D01*
X0160693Y0115188D01*
X0160773Y0115108D01*
X0160850Y0115025D01*
X0160925Y0114939D01*
X0160996Y0114851D01*
X0161064Y0114760D01*
X0161129Y0114667D01*
X0161191Y0114572D01*
X0161250Y0114475D01*
X0161305Y0114376D01*
X0161356Y0114275D01*
X0161404Y0114172D01*
X0161448Y0114067D01*
X0161489Y0113962D01*
X0161526Y0113854D01*
X0161559Y0113746D01*
X0161588Y0113636D01*
X0161614Y0113526D01*
X0161636Y0113414D01*
X0161653Y0113302D01*
X0161667Y0113190D01*
X0161677Y0113077D01*
X0161683Y0112963D01*
X0161685Y0112850D01*
X0161683Y0112737D01*
X0161677Y0112623D01*
X0161667Y0112510D01*
X0161653Y0112398D01*
X0161636Y0112286D01*
X0161614Y0112174D01*
X0161588Y0112064D01*
X0161559Y0111954D01*
X0161526Y0111846D01*
X0161489Y0111738D01*
X0161448Y0111633D01*
X0161404Y0111528D01*
X0161356Y0111425D01*
X0161305Y0111324D01*
X0161250Y0111225D01*
X0161191Y0111128D01*
X0161129Y0111033D01*
X0161064Y0110940D01*
X0160996Y0110849D01*
X0160925Y0110761D01*
X0160850Y0110675D01*
X0160773Y0110592D01*
X0160693Y0110512D01*
X0160610Y0110435D01*
X0160524Y0110360D01*
X0160436Y0110289D01*
X0160345Y0110221D01*
X0160252Y0110156D01*
X0160157Y0110094D01*
X0160060Y0110035D01*
X0159961Y0109980D01*
X0159860Y0109929D01*
X0159757Y0109881D01*
X0159652Y0109837D01*
X0159547Y0109796D01*
X0159439Y0109759D01*
X0159331Y0109726D01*
X0159221Y0109697D01*
X0159111Y0109671D01*
X0158999Y0109649D01*
X0158887Y0109632D01*
X0158775Y0109618D01*
X0158662Y0109608D01*
X0158548Y0109602D01*
X0158435Y0109600D01*
X0158322Y0109602D01*
X0158208Y0109608D01*
X0158095Y0109618D01*
X0157983Y0109632D01*
X0157871Y0109649D01*
X0157759Y0109671D01*
X0157649Y0109697D01*
X0157539Y0109726D01*
X0157431Y0109759D01*
X0157323Y0109796D01*
X0157218Y0109837D01*
X0157113Y0109881D01*
X0157010Y0109929D01*
X0156909Y0109980D01*
X0156810Y0110035D01*
X0156713Y0110094D01*
X0156618Y0110156D01*
X0156525Y0110221D01*
X0156434Y0110289D01*
X0156346Y0110360D01*
X0156260Y0110435D01*
X0156177Y0110512D01*
X0156097Y0110592D01*
X0156020Y0110675D01*
X0155945Y0110761D01*
X0155874Y0110849D01*
X0155806Y0110940D01*
X0155741Y0111033D01*
X0155679Y0111128D01*
X0155620Y0111225D01*
X0155565Y0111324D01*
X0155514Y0111425D01*
X0155466Y0111528D01*
X0155422Y0111633D01*
X0155381Y0111738D01*
X0155344Y0111846D01*
X0155311Y0111954D01*
X0155282Y0112064D01*
X0155256Y0112174D01*
X0155234Y0112286D01*
X0155217Y0112398D01*
X0155203Y0112510D01*
X0155193Y0112623D01*
X0155187Y0112737D01*
X0155185Y0112850D01*
X0309136Y0039850D02*
X0309138Y0040008D01*
X0309144Y0040166D01*
X0309154Y0040324D01*
X0309168Y0040482D01*
X0309186Y0040639D01*
X0309207Y0040796D01*
X0309233Y0040952D01*
X0309263Y0041108D01*
X0309296Y0041263D01*
X0309334Y0041416D01*
X0309375Y0041569D01*
X0309420Y0041721D01*
X0309469Y0041872D01*
X0309522Y0042021D01*
X0309578Y0042169D01*
X0309638Y0042315D01*
X0309702Y0042460D01*
X0309770Y0042603D01*
X0309841Y0042745D01*
X0309915Y0042885D01*
X0309993Y0043022D01*
X0310075Y0043158D01*
X0310159Y0043292D01*
X0310248Y0043423D01*
X0310339Y0043552D01*
X0310434Y0043679D01*
X0310531Y0043804D01*
X0310632Y0043926D01*
X0310736Y0044045D01*
X0310843Y0044162D01*
X0310953Y0044276D01*
X0311066Y0044387D01*
X0311181Y0044496D01*
X0311299Y0044601D01*
X0311420Y0044703D01*
X0311543Y0044803D01*
X0311669Y0044899D01*
X0311797Y0044992D01*
X0311927Y0045082D01*
X0312060Y0045168D01*
X0312195Y0045252D01*
X0312331Y0045331D01*
X0312470Y0045408D01*
X0312611Y0045480D01*
X0312753Y0045550D01*
X0312897Y0045615D01*
X0313043Y0045677D01*
X0313190Y0045735D01*
X0313339Y0045790D01*
X0313489Y0045841D01*
X0313640Y0045888D01*
X0313792Y0045931D01*
X0313945Y0045970D01*
X0314100Y0046006D01*
X0314255Y0046037D01*
X0314411Y0046065D01*
X0314567Y0046089D01*
X0314724Y0046109D01*
X0314882Y0046125D01*
X0315039Y0046137D01*
X0315198Y0046145D01*
X0315356Y0046149D01*
X0315514Y0046149D01*
X0315672Y0046145D01*
X0315831Y0046137D01*
X0315988Y0046125D01*
X0316146Y0046109D01*
X0316303Y0046089D01*
X0316459Y0046065D01*
X0316615Y0046037D01*
X0316770Y0046006D01*
X0316925Y0045970D01*
X0317078Y0045931D01*
X0317230Y0045888D01*
X0317381Y0045841D01*
X0317531Y0045790D01*
X0317680Y0045735D01*
X0317827Y0045677D01*
X0317973Y0045615D01*
X0318117Y0045550D01*
X0318259Y0045480D01*
X0318400Y0045408D01*
X0318539Y0045331D01*
X0318675Y0045252D01*
X0318810Y0045168D01*
X0318943Y0045082D01*
X0319073Y0044992D01*
X0319201Y0044899D01*
X0319327Y0044803D01*
X0319450Y0044703D01*
X0319571Y0044601D01*
X0319689Y0044496D01*
X0319804Y0044387D01*
X0319917Y0044276D01*
X0320027Y0044162D01*
X0320134Y0044045D01*
X0320238Y0043926D01*
X0320339Y0043804D01*
X0320436Y0043679D01*
X0320531Y0043552D01*
X0320622Y0043423D01*
X0320711Y0043292D01*
X0320795Y0043158D01*
X0320877Y0043022D01*
X0320955Y0042885D01*
X0321029Y0042745D01*
X0321100Y0042603D01*
X0321168Y0042460D01*
X0321232Y0042315D01*
X0321292Y0042169D01*
X0321348Y0042021D01*
X0321401Y0041872D01*
X0321450Y0041721D01*
X0321495Y0041569D01*
X0321536Y0041416D01*
X0321574Y0041263D01*
X0321607Y0041108D01*
X0321637Y0040952D01*
X0321663Y0040796D01*
X0321684Y0040639D01*
X0321702Y0040482D01*
X0321716Y0040324D01*
X0321726Y0040166D01*
X0321732Y0040008D01*
X0321734Y0039850D01*
X0321732Y0039692D01*
X0321726Y0039534D01*
X0321716Y0039376D01*
X0321702Y0039218D01*
X0321684Y0039061D01*
X0321663Y0038904D01*
X0321637Y0038748D01*
X0321607Y0038592D01*
X0321574Y0038437D01*
X0321536Y0038284D01*
X0321495Y0038131D01*
X0321450Y0037979D01*
X0321401Y0037828D01*
X0321348Y0037679D01*
X0321292Y0037531D01*
X0321232Y0037385D01*
X0321168Y0037240D01*
X0321100Y0037097D01*
X0321029Y0036955D01*
X0320955Y0036815D01*
X0320877Y0036678D01*
X0320795Y0036542D01*
X0320711Y0036408D01*
X0320622Y0036277D01*
X0320531Y0036148D01*
X0320436Y0036021D01*
X0320339Y0035896D01*
X0320238Y0035774D01*
X0320134Y0035655D01*
X0320027Y0035538D01*
X0319917Y0035424D01*
X0319804Y0035313D01*
X0319689Y0035204D01*
X0319571Y0035099D01*
X0319450Y0034997D01*
X0319327Y0034897D01*
X0319201Y0034801D01*
X0319073Y0034708D01*
X0318943Y0034618D01*
X0318810Y0034532D01*
X0318675Y0034448D01*
X0318539Y0034369D01*
X0318400Y0034292D01*
X0318259Y0034220D01*
X0318117Y0034150D01*
X0317973Y0034085D01*
X0317827Y0034023D01*
X0317680Y0033965D01*
X0317531Y0033910D01*
X0317381Y0033859D01*
X0317230Y0033812D01*
X0317078Y0033769D01*
X0316925Y0033730D01*
X0316770Y0033694D01*
X0316615Y0033663D01*
X0316459Y0033635D01*
X0316303Y0033611D01*
X0316146Y0033591D01*
X0315988Y0033575D01*
X0315831Y0033563D01*
X0315672Y0033555D01*
X0315514Y0033551D01*
X0315356Y0033551D01*
X0315198Y0033555D01*
X0315039Y0033563D01*
X0314882Y0033575D01*
X0314724Y0033591D01*
X0314567Y0033611D01*
X0314411Y0033635D01*
X0314255Y0033663D01*
X0314100Y0033694D01*
X0313945Y0033730D01*
X0313792Y0033769D01*
X0313640Y0033812D01*
X0313489Y0033859D01*
X0313339Y0033910D01*
X0313190Y0033965D01*
X0313043Y0034023D01*
X0312897Y0034085D01*
X0312753Y0034150D01*
X0312611Y0034220D01*
X0312470Y0034292D01*
X0312331Y0034369D01*
X0312195Y0034448D01*
X0312060Y0034532D01*
X0311927Y0034618D01*
X0311797Y0034708D01*
X0311669Y0034801D01*
X0311543Y0034897D01*
X0311420Y0034997D01*
X0311299Y0035099D01*
X0311181Y0035204D01*
X0311066Y0035313D01*
X0310953Y0035424D01*
X0310843Y0035538D01*
X0310736Y0035655D01*
X0310632Y0035774D01*
X0310531Y0035896D01*
X0310434Y0036021D01*
X0310339Y0036148D01*
X0310248Y0036277D01*
X0310159Y0036408D01*
X0310075Y0036542D01*
X0309993Y0036678D01*
X0309915Y0036815D01*
X0309841Y0036955D01*
X0309770Y0037097D01*
X0309702Y0037240D01*
X0309638Y0037385D01*
X0309578Y0037531D01*
X0309522Y0037679D01*
X0309469Y0037828D01*
X0309420Y0037979D01*
X0309375Y0038131D01*
X0309334Y0038284D01*
X0309296Y0038437D01*
X0309263Y0038592D01*
X0309233Y0038748D01*
X0309207Y0038904D01*
X0309186Y0039061D01*
X0309168Y0039218D01*
X0309154Y0039376D01*
X0309144Y0039534D01*
X0309138Y0039692D01*
X0309136Y0039850D01*
X0315185Y0052850D02*
X0315187Y0052963D01*
X0315193Y0053077D01*
X0315203Y0053190D01*
X0315217Y0053302D01*
X0315234Y0053414D01*
X0315256Y0053526D01*
X0315282Y0053636D01*
X0315311Y0053746D01*
X0315344Y0053854D01*
X0315381Y0053962D01*
X0315422Y0054067D01*
X0315466Y0054172D01*
X0315514Y0054275D01*
X0315565Y0054376D01*
X0315620Y0054475D01*
X0315679Y0054572D01*
X0315741Y0054667D01*
X0315806Y0054760D01*
X0315874Y0054851D01*
X0315945Y0054939D01*
X0316020Y0055025D01*
X0316097Y0055108D01*
X0316177Y0055188D01*
X0316260Y0055265D01*
X0316346Y0055340D01*
X0316434Y0055411D01*
X0316525Y0055479D01*
X0316618Y0055544D01*
X0316713Y0055606D01*
X0316810Y0055665D01*
X0316909Y0055720D01*
X0317010Y0055771D01*
X0317113Y0055819D01*
X0317218Y0055863D01*
X0317323Y0055904D01*
X0317431Y0055941D01*
X0317539Y0055974D01*
X0317649Y0056003D01*
X0317759Y0056029D01*
X0317871Y0056051D01*
X0317983Y0056068D01*
X0318095Y0056082D01*
X0318208Y0056092D01*
X0318322Y0056098D01*
X0318435Y0056100D01*
X0318548Y0056098D01*
X0318662Y0056092D01*
X0318775Y0056082D01*
X0318887Y0056068D01*
X0318999Y0056051D01*
X0319111Y0056029D01*
X0319221Y0056003D01*
X0319331Y0055974D01*
X0319439Y0055941D01*
X0319547Y0055904D01*
X0319652Y0055863D01*
X0319757Y0055819D01*
X0319860Y0055771D01*
X0319961Y0055720D01*
X0320060Y0055665D01*
X0320157Y0055606D01*
X0320252Y0055544D01*
X0320345Y0055479D01*
X0320436Y0055411D01*
X0320524Y0055340D01*
X0320610Y0055265D01*
X0320693Y0055188D01*
X0320773Y0055108D01*
X0320850Y0055025D01*
X0320925Y0054939D01*
X0320996Y0054851D01*
X0321064Y0054760D01*
X0321129Y0054667D01*
X0321191Y0054572D01*
X0321250Y0054475D01*
X0321305Y0054376D01*
X0321356Y0054275D01*
X0321404Y0054172D01*
X0321448Y0054067D01*
X0321489Y0053962D01*
X0321526Y0053854D01*
X0321559Y0053746D01*
X0321588Y0053636D01*
X0321614Y0053526D01*
X0321636Y0053414D01*
X0321653Y0053302D01*
X0321667Y0053190D01*
X0321677Y0053077D01*
X0321683Y0052963D01*
X0321685Y0052850D01*
X0321683Y0052737D01*
X0321677Y0052623D01*
X0321667Y0052510D01*
X0321653Y0052398D01*
X0321636Y0052286D01*
X0321614Y0052174D01*
X0321588Y0052064D01*
X0321559Y0051954D01*
X0321526Y0051846D01*
X0321489Y0051738D01*
X0321448Y0051633D01*
X0321404Y0051528D01*
X0321356Y0051425D01*
X0321305Y0051324D01*
X0321250Y0051225D01*
X0321191Y0051128D01*
X0321129Y0051033D01*
X0321064Y0050940D01*
X0320996Y0050849D01*
X0320925Y0050761D01*
X0320850Y0050675D01*
X0320773Y0050592D01*
X0320693Y0050512D01*
X0320610Y0050435D01*
X0320524Y0050360D01*
X0320436Y0050289D01*
X0320345Y0050221D01*
X0320252Y0050156D01*
X0320157Y0050094D01*
X0320060Y0050035D01*
X0319961Y0049980D01*
X0319860Y0049929D01*
X0319757Y0049881D01*
X0319652Y0049837D01*
X0319547Y0049796D01*
X0319439Y0049759D01*
X0319331Y0049726D01*
X0319221Y0049697D01*
X0319111Y0049671D01*
X0318999Y0049649D01*
X0318887Y0049632D01*
X0318775Y0049618D01*
X0318662Y0049608D01*
X0318548Y0049602D01*
X0318435Y0049600D01*
X0318322Y0049602D01*
X0318208Y0049608D01*
X0318095Y0049618D01*
X0317983Y0049632D01*
X0317871Y0049649D01*
X0317759Y0049671D01*
X0317649Y0049697D01*
X0317539Y0049726D01*
X0317431Y0049759D01*
X0317323Y0049796D01*
X0317218Y0049837D01*
X0317113Y0049881D01*
X0317010Y0049929D01*
X0316909Y0049980D01*
X0316810Y0050035D01*
X0316713Y0050094D01*
X0316618Y0050156D01*
X0316525Y0050221D01*
X0316434Y0050289D01*
X0316346Y0050360D01*
X0316260Y0050435D01*
X0316177Y0050512D01*
X0316097Y0050592D01*
X0316020Y0050675D01*
X0315945Y0050761D01*
X0315874Y0050849D01*
X0315806Y0050940D01*
X0315741Y0051033D01*
X0315679Y0051128D01*
X0315620Y0051225D01*
X0315565Y0051324D01*
X0315514Y0051425D01*
X0315466Y0051528D01*
X0315422Y0051633D01*
X0315381Y0051738D01*
X0315344Y0051846D01*
X0315311Y0051954D01*
X0315282Y0052064D01*
X0315256Y0052174D01*
X0315234Y0052286D01*
X0315217Y0052398D01*
X0315203Y0052510D01*
X0315193Y0052623D01*
X0315187Y0052737D01*
X0315185Y0052850D01*
X0315185Y0112850D02*
X0315187Y0112963D01*
X0315193Y0113077D01*
X0315203Y0113190D01*
X0315217Y0113302D01*
X0315234Y0113414D01*
X0315256Y0113526D01*
X0315282Y0113636D01*
X0315311Y0113746D01*
X0315344Y0113854D01*
X0315381Y0113962D01*
X0315422Y0114067D01*
X0315466Y0114172D01*
X0315514Y0114275D01*
X0315565Y0114376D01*
X0315620Y0114475D01*
X0315679Y0114572D01*
X0315741Y0114667D01*
X0315806Y0114760D01*
X0315874Y0114851D01*
X0315945Y0114939D01*
X0316020Y0115025D01*
X0316097Y0115108D01*
X0316177Y0115188D01*
X0316260Y0115265D01*
X0316346Y0115340D01*
X0316434Y0115411D01*
X0316525Y0115479D01*
X0316618Y0115544D01*
X0316713Y0115606D01*
X0316810Y0115665D01*
X0316909Y0115720D01*
X0317010Y0115771D01*
X0317113Y0115819D01*
X0317218Y0115863D01*
X0317323Y0115904D01*
X0317431Y0115941D01*
X0317539Y0115974D01*
X0317649Y0116003D01*
X0317759Y0116029D01*
X0317871Y0116051D01*
X0317983Y0116068D01*
X0318095Y0116082D01*
X0318208Y0116092D01*
X0318322Y0116098D01*
X0318435Y0116100D01*
X0318548Y0116098D01*
X0318662Y0116092D01*
X0318775Y0116082D01*
X0318887Y0116068D01*
X0318999Y0116051D01*
X0319111Y0116029D01*
X0319221Y0116003D01*
X0319331Y0115974D01*
X0319439Y0115941D01*
X0319547Y0115904D01*
X0319652Y0115863D01*
X0319757Y0115819D01*
X0319860Y0115771D01*
X0319961Y0115720D01*
X0320060Y0115665D01*
X0320157Y0115606D01*
X0320252Y0115544D01*
X0320345Y0115479D01*
X0320436Y0115411D01*
X0320524Y0115340D01*
X0320610Y0115265D01*
X0320693Y0115188D01*
X0320773Y0115108D01*
X0320850Y0115025D01*
X0320925Y0114939D01*
X0320996Y0114851D01*
X0321064Y0114760D01*
X0321129Y0114667D01*
X0321191Y0114572D01*
X0321250Y0114475D01*
X0321305Y0114376D01*
X0321356Y0114275D01*
X0321404Y0114172D01*
X0321448Y0114067D01*
X0321489Y0113962D01*
X0321526Y0113854D01*
X0321559Y0113746D01*
X0321588Y0113636D01*
X0321614Y0113526D01*
X0321636Y0113414D01*
X0321653Y0113302D01*
X0321667Y0113190D01*
X0321677Y0113077D01*
X0321683Y0112963D01*
X0321685Y0112850D01*
X0321683Y0112737D01*
X0321677Y0112623D01*
X0321667Y0112510D01*
X0321653Y0112398D01*
X0321636Y0112286D01*
X0321614Y0112174D01*
X0321588Y0112064D01*
X0321559Y0111954D01*
X0321526Y0111846D01*
X0321489Y0111738D01*
X0321448Y0111633D01*
X0321404Y0111528D01*
X0321356Y0111425D01*
X0321305Y0111324D01*
X0321250Y0111225D01*
X0321191Y0111128D01*
X0321129Y0111033D01*
X0321064Y0110940D01*
X0320996Y0110849D01*
X0320925Y0110761D01*
X0320850Y0110675D01*
X0320773Y0110592D01*
X0320693Y0110512D01*
X0320610Y0110435D01*
X0320524Y0110360D01*
X0320436Y0110289D01*
X0320345Y0110221D01*
X0320252Y0110156D01*
X0320157Y0110094D01*
X0320060Y0110035D01*
X0319961Y0109980D01*
X0319860Y0109929D01*
X0319757Y0109881D01*
X0319652Y0109837D01*
X0319547Y0109796D01*
X0319439Y0109759D01*
X0319331Y0109726D01*
X0319221Y0109697D01*
X0319111Y0109671D01*
X0318999Y0109649D01*
X0318887Y0109632D01*
X0318775Y0109618D01*
X0318662Y0109608D01*
X0318548Y0109602D01*
X0318435Y0109600D01*
X0318322Y0109602D01*
X0318208Y0109608D01*
X0318095Y0109618D01*
X0317983Y0109632D01*
X0317871Y0109649D01*
X0317759Y0109671D01*
X0317649Y0109697D01*
X0317539Y0109726D01*
X0317431Y0109759D01*
X0317323Y0109796D01*
X0317218Y0109837D01*
X0317113Y0109881D01*
X0317010Y0109929D01*
X0316909Y0109980D01*
X0316810Y0110035D01*
X0316713Y0110094D01*
X0316618Y0110156D01*
X0316525Y0110221D01*
X0316434Y0110289D01*
X0316346Y0110360D01*
X0316260Y0110435D01*
X0316177Y0110512D01*
X0316097Y0110592D01*
X0316020Y0110675D01*
X0315945Y0110761D01*
X0315874Y0110849D01*
X0315806Y0110940D01*
X0315741Y0111033D01*
X0315679Y0111128D01*
X0315620Y0111225D01*
X0315565Y0111324D01*
X0315514Y0111425D01*
X0315466Y0111528D01*
X0315422Y0111633D01*
X0315381Y0111738D01*
X0315344Y0111846D01*
X0315311Y0111954D01*
X0315282Y0112064D01*
X0315256Y0112174D01*
X0315234Y0112286D01*
X0315217Y0112398D01*
X0315203Y0112510D01*
X0315193Y0112623D01*
X0315187Y0112737D01*
X0315185Y0112850D01*
X0309136Y0259850D02*
X0309138Y0260008D01*
X0309144Y0260166D01*
X0309154Y0260324D01*
X0309168Y0260482D01*
X0309186Y0260639D01*
X0309207Y0260796D01*
X0309233Y0260952D01*
X0309263Y0261108D01*
X0309296Y0261263D01*
X0309334Y0261416D01*
X0309375Y0261569D01*
X0309420Y0261721D01*
X0309469Y0261872D01*
X0309522Y0262021D01*
X0309578Y0262169D01*
X0309638Y0262315D01*
X0309702Y0262460D01*
X0309770Y0262603D01*
X0309841Y0262745D01*
X0309915Y0262885D01*
X0309993Y0263022D01*
X0310075Y0263158D01*
X0310159Y0263292D01*
X0310248Y0263423D01*
X0310339Y0263552D01*
X0310434Y0263679D01*
X0310531Y0263804D01*
X0310632Y0263926D01*
X0310736Y0264045D01*
X0310843Y0264162D01*
X0310953Y0264276D01*
X0311066Y0264387D01*
X0311181Y0264496D01*
X0311299Y0264601D01*
X0311420Y0264703D01*
X0311543Y0264803D01*
X0311669Y0264899D01*
X0311797Y0264992D01*
X0311927Y0265082D01*
X0312060Y0265168D01*
X0312195Y0265252D01*
X0312331Y0265331D01*
X0312470Y0265408D01*
X0312611Y0265480D01*
X0312753Y0265550D01*
X0312897Y0265615D01*
X0313043Y0265677D01*
X0313190Y0265735D01*
X0313339Y0265790D01*
X0313489Y0265841D01*
X0313640Y0265888D01*
X0313792Y0265931D01*
X0313945Y0265970D01*
X0314100Y0266006D01*
X0314255Y0266037D01*
X0314411Y0266065D01*
X0314567Y0266089D01*
X0314724Y0266109D01*
X0314882Y0266125D01*
X0315039Y0266137D01*
X0315198Y0266145D01*
X0315356Y0266149D01*
X0315514Y0266149D01*
X0315672Y0266145D01*
X0315831Y0266137D01*
X0315988Y0266125D01*
X0316146Y0266109D01*
X0316303Y0266089D01*
X0316459Y0266065D01*
X0316615Y0266037D01*
X0316770Y0266006D01*
X0316925Y0265970D01*
X0317078Y0265931D01*
X0317230Y0265888D01*
X0317381Y0265841D01*
X0317531Y0265790D01*
X0317680Y0265735D01*
X0317827Y0265677D01*
X0317973Y0265615D01*
X0318117Y0265550D01*
X0318259Y0265480D01*
X0318400Y0265408D01*
X0318539Y0265331D01*
X0318675Y0265252D01*
X0318810Y0265168D01*
X0318943Y0265082D01*
X0319073Y0264992D01*
X0319201Y0264899D01*
X0319327Y0264803D01*
X0319450Y0264703D01*
X0319571Y0264601D01*
X0319689Y0264496D01*
X0319804Y0264387D01*
X0319917Y0264276D01*
X0320027Y0264162D01*
X0320134Y0264045D01*
X0320238Y0263926D01*
X0320339Y0263804D01*
X0320436Y0263679D01*
X0320531Y0263552D01*
X0320622Y0263423D01*
X0320711Y0263292D01*
X0320795Y0263158D01*
X0320877Y0263022D01*
X0320955Y0262885D01*
X0321029Y0262745D01*
X0321100Y0262603D01*
X0321168Y0262460D01*
X0321232Y0262315D01*
X0321292Y0262169D01*
X0321348Y0262021D01*
X0321401Y0261872D01*
X0321450Y0261721D01*
X0321495Y0261569D01*
X0321536Y0261416D01*
X0321574Y0261263D01*
X0321607Y0261108D01*
X0321637Y0260952D01*
X0321663Y0260796D01*
X0321684Y0260639D01*
X0321702Y0260482D01*
X0321716Y0260324D01*
X0321726Y0260166D01*
X0321732Y0260008D01*
X0321734Y0259850D01*
X0321732Y0259692D01*
X0321726Y0259534D01*
X0321716Y0259376D01*
X0321702Y0259218D01*
X0321684Y0259061D01*
X0321663Y0258904D01*
X0321637Y0258748D01*
X0321607Y0258592D01*
X0321574Y0258437D01*
X0321536Y0258284D01*
X0321495Y0258131D01*
X0321450Y0257979D01*
X0321401Y0257828D01*
X0321348Y0257679D01*
X0321292Y0257531D01*
X0321232Y0257385D01*
X0321168Y0257240D01*
X0321100Y0257097D01*
X0321029Y0256955D01*
X0320955Y0256815D01*
X0320877Y0256678D01*
X0320795Y0256542D01*
X0320711Y0256408D01*
X0320622Y0256277D01*
X0320531Y0256148D01*
X0320436Y0256021D01*
X0320339Y0255896D01*
X0320238Y0255774D01*
X0320134Y0255655D01*
X0320027Y0255538D01*
X0319917Y0255424D01*
X0319804Y0255313D01*
X0319689Y0255204D01*
X0319571Y0255099D01*
X0319450Y0254997D01*
X0319327Y0254897D01*
X0319201Y0254801D01*
X0319073Y0254708D01*
X0318943Y0254618D01*
X0318810Y0254532D01*
X0318675Y0254448D01*
X0318539Y0254369D01*
X0318400Y0254292D01*
X0318259Y0254220D01*
X0318117Y0254150D01*
X0317973Y0254085D01*
X0317827Y0254023D01*
X0317680Y0253965D01*
X0317531Y0253910D01*
X0317381Y0253859D01*
X0317230Y0253812D01*
X0317078Y0253769D01*
X0316925Y0253730D01*
X0316770Y0253694D01*
X0316615Y0253663D01*
X0316459Y0253635D01*
X0316303Y0253611D01*
X0316146Y0253591D01*
X0315988Y0253575D01*
X0315831Y0253563D01*
X0315672Y0253555D01*
X0315514Y0253551D01*
X0315356Y0253551D01*
X0315198Y0253555D01*
X0315039Y0253563D01*
X0314882Y0253575D01*
X0314724Y0253591D01*
X0314567Y0253611D01*
X0314411Y0253635D01*
X0314255Y0253663D01*
X0314100Y0253694D01*
X0313945Y0253730D01*
X0313792Y0253769D01*
X0313640Y0253812D01*
X0313489Y0253859D01*
X0313339Y0253910D01*
X0313190Y0253965D01*
X0313043Y0254023D01*
X0312897Y0254085D01*
X0312753Y0254150D01*
X0312611Y0254220D01*
X0312470Y0254292D01*
X0312331Y0254369D01*
X0312195Y0254448D01*
X0312060Y0254532D01*
X0311927Y0254618D01*
X0311797Y0254708D01*
X0311669Y0254801D01*
X0311543Y0254897D01*
X0311420Y0254997D01*
X0311299Y0255099D01*
X0311181Y0255204D01*
X0311066Y0255313D01*
X0310953Y0255424D01*
X0310843Y0255538D01*
X0310736Y0255655D01*
X0310632Y0255774D01*
X0310531Y0255896D01*
X0310434Y0256021D01*
X0310339Y0256148D01*
X0310248Y0256277D01*
X0310159Y0256408D01*
X0310075Y0256542D01*
X0309993Y0256678D01*
X0309915Y0256815D01*
X0309841Y0256955D01*
X0309770Y0257097D01*
X0309702Y0257240D01*
X0309638Y0257385D01*
X0309578Y0257531D01*
X0309522Y0257679D01*
X0309469Y0257828D01*
X0309420Y0257979D01*
X0309375Y0258131D01*
X0309334Y0258284D01*
X0309296Y0258437D01*
X0309263Y0258592D01*
X0309233Y0258748D01*
X0309207Y0258904D01*
X0309186Y0259061D01*
X0309168Y0259218D01*
X0309154Y0259376D01*
X0309144Y0259534D01*
X0309138Y0259692D01*
X0309136Y0259850D01*
X0132136Y0259850D02*
X0132138Y0260008D01*
X0132144Y0260166D01*
X0132154Y0260324D01*
X0132168Y0260482D01*
X0132186Y0260639D01*
X0132207Y0260796D01*
X0132233Y0260952D01*
X0132263Y0261108D01*
X0132296Y0261263D01*
X0132334Y0261416D01*
X0132375Y0261569D01*
X0132420Y0261721D01*
X0132469Y0261872D01*
X0132522Y0262021D01*
X0132578Y0262169D01*
X0132638Y0262315D01*
X0132702Y0262460D01*
X0132770Y0262603D01*
X0132841Y0262745D01*
X0132915Y0262885D01*
X0132993Y0263022D01*
X0133075Y0263158D01*
X0133159Y0263292D01*
X0133248Y0263423D01*
X0133339Y0263552D01*
X0133434Y0263679D01*
X0133531Y0263804D01*
X0133632Y0263926D01*
X0133736Y0264045D01*
X0133843Y0264162D01*
X0133953Y0264276D01*
X0134066Y0264387D01*
X0134181Y0264496D01*
X0134299Y0264601D01*
X0134420Y0264703D01*
X0134543Y0264803D01*
X0134669Y0264899D01*
X0134797Y0264992D01*
X0134927Y0265082D01*
X0135060Y0265168D01*
X0135195Y0265252D01*
X0135331Y0265331D01*
X0135470Y0265408D01*
X0135611Y0265480D01*
X0135753Y0265550D01*
X0135897Y0265615D01*
X0136043Y0265677D01*
X0136190Y0265735D01*
X0136339Y0265790D01*
X0136489Y0265841D01*
X0136640Y0265888D01*
X0136792Y0265931D01*
X0136945Y0265970D01*
X0137100Y0266006D01*
X0137255Y0266037D01*
X0137411Y0266065D01*
X0137567Y0266089D01*
X0137724Y0266109D01*
X0137882Y0266125D01*
X0138039Y0266137D01*
X0138198Y0266145D01*
X0138356Y0266149D01*
X0138514Y0266149D01*
X0138672Y0266145D01*
X0138831Y0266137D01*
X0138988Y0266125D01*
X0139146Y0266109D01*
X0139303Y0266089D01*
X0139459Y0266065D01*
X0139615Y0266037D01*
X0139770Y0266006D01*
X0139925Y0265970D01*
X0140078Y0265931D01*
X0140230Y0265888D01*
X0140381Y0265841D01*
X0140531Y0265790D01*
X0140680Y0265735D01*
X0140827Y0265677D01*
X0140973Y0265615D01*
X0141117Y0265550D01*
X0141259Y0265480D01*
X0141400Y0265408D01*
X0141539Y0265331D01*
X0141675Y0265252D01*
X0141810Y0265168D01*
X0141943Y0265082D01*
X0142073Y0264992D01*
X0142201Y0264899D01*
X0142327Y0264803D01*
X0142450Y0264703D01*
X0142571Y0264601D01*
X0142689Y0264496D01*
X0142804Y0264387D01*
X0142917Y0264276D01*
X0143027Y0264162D01*
X0143134Y0264045D01*
X0143238Y0263926D01*
X0143339Y0263804D01*
X0143436Y0263679D01*
X0143531Y0263552D01*
X0143622Y0263423D01*
X0143711Y0263292D01*
X0143795Y0263158D01*
X0143877Y0263022D01*
X0143955Y0262885D01*
X0144029Y0262745D01*
X0144100Y0262603D01*
X0144168Y0262460D01*
X0144232Y0262315D01*
X0144292Y0262169D01*
X0144348Y0262021D01*
X0144401Y0261872D01*
X0144450Y0261721D01*
X0144495Y0261569D01*
X0144536Y0261416D01*
X0144574Y0261263D01*
X0144607Y0261108D01*
X0144637Y0260952D01*
X0144663Y0260796D01*
X0144684Y0260639D01*
X0144702Y0260482D01*
X0144716Y0260324D01*
X0144726Y0260166D01*
X0144732Y0260008D01*
X0144734Y0259850D01*
X0144732Y0259692D01*
X0144726Y0259534D01*
X0144716Y0259376D01*
X0144702Y0259218D01*
X0144684Y0259061D01*
X0144663Y0258904D01*
X0144637Y0258748D01*
X0144607Y0258592D01*
X0144574Y0258437D01*
X0144536Y0258284D01*
X0144495Y0258131D01*
X0144450Y0257979D01*
X0144401Y0257828D01*
X0144348Y0257679D01*
X0144292Y0257531D01*
X0144232Y0257385D01*
X0144168Y0257240D01*
X0144100Y0257097D01*
X0144029Y0256955D01*
X0143955Y0256815D01*
X0143877Y0256678D01*
X0143795Y0256542D01*
X0143711Y0256408D01*
X0143622Y0256277D01*
X0143531Y0256148D01*
X0143436Y0256021D01*
X0143339Y0255896D01*
X0143238Y0255774D01*
X0143134Y0255655D01*
X0143027Y0255538D01*
X0142917Y0255424D01*
X0142804Y0255313D01*
X0142689Y0255204D01*
X0142571Y0255099D01*
X0142450Y0254997D01*
X0142327Y0254897D01*
X0142201Y0254801D01*
X0142073Y0254708D01*
X0141943Y0254618D01*
X0141810Y0254532D01*
X0141675Y0254448D01*
X0141539Y0254369D01*
X0141400Y0254292D01*
X0141259Y0254220D01*
X0141117Y0254150D01*
X0140973Y0254085D01*
X0140827Y0254023D01*
X0140680Y0253965D01*
X0140531Y0253910D01*
X0140381Y0253859D01*
X0140230Y0253812D01*
X0140078Y0253769D01*
X0139925Y0253730D01*
X0139770Y0253694D01*
X0139615Y0253663D01*
X0139459Y0253635D01*
X0139303Y0253611D01*
X0139146Y0253591D01*
X0138988Y0253575D01*
X0138831Y0253563D01*
X0138672Y0253555D01*
X0138514Y0253551D01*
X0138356Y0253551D01*
X0138198Y0253555D01*
X0138039Y0253563D01*
X0137882Y0253575D01*
X0137724Y0253591D01*
X0137567Y0253611D01*
X0137411Y0253635D01*
X0137255Y0253663D01*
X0137100Y0253694D01*
X0136945Y0253730D01*
X0136792Y0253769D01*
X0136640Y0253812D01*
X0136489Y0253859D01*
X0136339Y0253910D01*
X0136190Y0253965D01*
X0136043Y0254023D01*
X0135897Y0254085D01*
X0135753Y0254150D01*
X0135611Y0254220D01*
X0135470Y0254292D01*
X0135331Y0254369D01*
X0135195Y0254448D01*
X0135060Y0254532D01*
X0134927Y0254618D01*
X0134797Y0254708D01*
X0134669Y0254801D01*
X0134543Y0254897D01*
X0134420Y0254997D01*
X0134299Y0255099D01*
X0134181Y0255204D01*
X0134066Y0255313D01*
X0133953Y0255424D01*
X0133843Y0255538D01*
X0133736Y0255655D01*
X0133632Y0255774D01*
X0133531Y0255896D01*
X0133434Y0256021D01*
X0133339Y0256148D01*
X0133248Y0256277D01*
X0133159Y0256408D01*
X0133075Y0256542D01*
X0132993Y0256678D01*
X0132915Y0256815D01*
X0132841Y0256955D01*
X0132770Y0257097D01*
X0132702Y0257240D01*
X0132638Y0257385D01*
X0132578Y0257531D01*
X0132522Y0257679D01*
X0132469Y0257828D01*
X0132420Y0257979D01*
X0132375Y0258131D01*
X0132334Y0258284D01*
X0132296Y0258437D01*
X0132263Y0258592D01*
X0132233Y0258748D01*
X0132207Y0258904D01*
X0132186Y0259061D01*
X0132168Y0259218D01*
X0132154Y0259376D01*
X0132144Y0259534D01*
X0132138Y0259692D01*
X0132136Y0259850D01*
X0008136Y0259850D02*
X0008138Y0260008D01*
X0008144Y0260166D01*
X0008154Y0260324D01*
X0008168Y0260482D01*
X0008186Y0260639D01*
X0008207Y0260796D01*
X0008233Y0260952D01*
X0008263Y0261108D01*
X0008296Y0261263D01*
X0008334Y0261416D01*
X0008375Y0261569D01*
X0008420Y0261721D01*
X0008469Y0261872D01*
X0008522Y0262021D01*
X0008578Y0262169D01*
X0008638Y0262315D01*
X0008702Y0262460D01*
X0008770Y0262603D01*
X0008841Y0262745D01*
X0008915Y0262885D01*
X0008993Y0263022D01*
X0009075Y0263158D01*
X0009159Y0263292D01*
X0009248Y0263423D01*
X0009339Y0263552D01*
X0009434Y0263679D01*
X0009531Y0263804D01*
X0009632Y0263926D01*
X0009736Y0264045D01*
X0009843Y0264162D01*
X0009953Y0264276D01*
X0010066Y0264387D01*
X0010181Y0264496D01*
X0010299Y0264601D01*
X0010420Y0264703D01*
X0010543Y0264803D01*
X0010669Y0264899D01*
X0010797Y0264992D01*
X0010927Y0265082D01*
X0011060Y0265168D01*
X0011195Y0265252D01*
X0011331Y0265331D01*
X0011470Y0265408D01*
X0011611Y0265480D01*
X0011753Y0265550D01*
X0011897Y0265615D01*
X0012043Y0265677D01*
X0012190Y0265735D01*
X0012339Y0265790D01*
X0012489Y0265841D01*
X0012640Y0265888D01*
X0012792Y0265931D01*
X0012945Y0265970D01*
X0013100Y0266006D01*
X0013255Y0266037D01*
X0013411Y0266065D01*
X0013567Y0266089D01*
X0013724Y0266109D01*
X0013882Y0266125D01*
X0014039Y0266137D01*
X0014198Y0266145D01*
X0014356Y0266149D01*
X0014514Y0266149D01*
X0014672Y0266145D01*
X0014831Y0266137D01*
X0014988Y0266125D01*
X0015146Y0266109D01*
X0015303Y0266089D01*
X0015459Y0266065D01*
X0015615Y0266037D01*
X0015770Y0266006D01*
X0015925Y0265970D01*
X0016078Y0265931D01*
X0016230Y0265888D01*
X0016381Y0265841D01*
X0016531Y0265790D01*
X0016680Y0265735D01*
X0016827Y0265677D01*
X0016973Y0265615D01*
X0017117Y0265550D01*
X0017259Y0265480D01*
X0017400Y0265408D01*
X0017539Y0265331D01*
X0017675Y0265252D01*
X0017810Y0265168D01*
X0017943Y0265082D01*
X0018073Y0264992D01*
X0018201Y0264899D01*
X0018327Y0264803D01*
X0018450Y0264703D01*
X0018571Y0264601D01*
X0018689Y0264496D01*
X0018804Y0264387D01*
X0018917Y0264276D01*
X0019027Y0264162D01*
X0019134Y0264045D01*
X0019238Y0263926D01*
X0019339Y0263804D01*
X0019436Y0263679D01*
X0019531Y0263552D01*
X0019622Y0263423D01*
X0019711Y0263292D01*
X0019795Y0263158D01*
X0019877Y0263022D01*
X0019955Y0262885D01*
X0020029Y0262745D01*
X0020100Y0262603D01*
X0020168Y0262460D01*
X0020232Y0262315D01*
X0020292Y0262169D01*
X0020348Y0262021D01*
X0020401Y0261872D01*
X0020450Y0261721D01*
X0020495Y0261569D01*
X0020536Y0261416D01*
X0020574Y0261263D01*
X0020607Y0261108D01*
X0020637Y0260952D01*
X0020663Y0260796D01*
X0020684Y0260639D01*
X0020702Y0260482D01*
X0020716Y0260324D01*
X0020726Y0260166D01*
X0020732Y0260008D01*
X0020734Y0259850D01*
X0020732Y0259692D01*
X0020726Y0259534D01*
X0020716Y0259376D01*
X0020702Y0259218D01*
X0020684Y0259061D01*
X0020663Y0258904D01*
X0020637Y0258748D01*
X0020607Y0258592D01*
X0020574Y0258437D01*
X0020536Y0258284D01*
X0020495Y0258131D01*
X0020450Y0257979D01*
X0020401Y0257828D01*
X0020348Y0257679D01*
X0020292Y0257531D01*
X0020232Y0257385D01*
X0020168Y0257240D01*
X0020100Y0257097D01*
X0020029Y0256955D01*
X0019955Y0256815D01*
X0019877Y0256678D01*
X0019795Y0256542D01*
X0019711Y0256408D01*
X0019622Y0256277D01*
X0019531Y0256148D01*
X0019436Y0256021D01*
X0019339Y0255896D01*
X0019238Y0255774D01*
X0019134Y0255655D01*
X0019027Y0255538D01*
X0018917Y0255424D01*
X0018804Y0255313D01*
X0018689Y0255204D01*
X0018571Y0255099D01*
X0018450Y0254997D01*
X0018327Y0254897D01*
X0018201Y0254801D01*
X0018073Y0254708D01*
X0017943Y0254618D01*
X0017810Y0254532D01*
X0017675Y0254448D01*
X0017539Y0254369D01*
X0017400Y0254292D01*
X0017259Y0254220D01*
X0017117Y0254150D01*
X0016973Y0254085D01*
X0016827Y0254023D01*
X0016680Y0253965D01*
X0016531Y0253910D01*
X0016381Y0253859D01*
X0016230Y0253812D01*
X0016078Y0253769D01*
X0015925Y0253730D01*
X0015770Y0253694D01*
X0015615Y0253663D01*
X0015459Y0253635D01*
X0015303Y0253611D01*
X0015146Y0253591D01*
X0014988Y0253575D01*
X0014831Y0253563D01*
X0014672Y0253555D01*
X0014514Y0253551D01*
X0014356Y0253551D01*
X0014198Y0253555D01*
X0014039Y0253563D01*
X0013882Y0253575D01*
X0013724Y0253591D01*
X0013567Y0253611D01*
X0013411Y0253635D01*
X0013255Y0253663D01*
X0013100Y0253694D01*
X0012945Y0253730D01*
X0012792Y0253769D01*
X0012640Y0253812D01*
X0012489Y0253859D01*
X0012339Y0253910D01*
X0012190Y0253965D01*
X0012043Y0254023D01*
X0011897Y0254085D01*
X0011753Y0254150D01*
X0011611Y0254220D01*
X0011470Y0254292D01*
X0011331Y0254369D01*
X0011195Y0254448D01*
X0011060Y0254532D01*
X0010927Y0254618D01*
X0010797Y0254708D01*
X0010669Y0254801D01*
X0010543Y0254897D01*
X0010420Y0254997D01*
X0010299Y0255099D01*
X0010181Y0255204D01*
X0010066Y0255313D01*
X0009953Y0255424D01*
X0009843Y0255538D01*
X0009736Y0255655D01*
X0009632Y0255774D01*
X0009531Y0255896D01*
X0009434Y0256021D01*
X0009339Y0256148D01*
X0009248Y0256277D01*
X0009159Y0256408D01*
X0009075Y0256542D01*
X0008993Y0256678D01*
X0008915Y0256815D01*
X0008841Y0256955D01*
X0008770Y0257097D01*
X0008702Y0257240D01*
X0008638Y0257385D01*
X0008578Y0257531D01*
X0008522Y0257679D01*
X0008469Y0257828D01*
X0008420Y0257979D01*
X0008375Y0258131D01*
X0008334Y0258284D01*
X0008296Y0258437D01*
X0008263Y0258592D01*
X0008233Y0258748D01*
X0008207Y0258904D01*
X0008186Y0259061D01*
X0008168Y0259218D01*
X0008154Y0259376D01*
X0008144Y0259534D01*
X0008138Y0259692D01*
X0008136Y0259850D01*
D11*
X0046435Y0204850D02*
X0046435Y0185850D01*
X0048435Y0185850D01*
X0048435Y0204850D01*
X0046435Y0204850D01*
X0046435Y0204804D02*
X0048435Y0204804D01*
X0048435Y0204405D02*
X0046435Y0204405D01*
X0046435Y0204007D02*
X0048435Y0204007D01*
X0048435Y0203608D02*
X0046435Y0203608D01*
X0046435Y0203210D02*
X0048435Y0203210D01*
X0048435Y0202811D02*
X0046435Y0202811D01*
X0046435Y0202413D02*
X0048435Y0202413D01*
X0048435Y0202014D02*
X0046435Y0202014D01*
X0046435Y0201616D02*
X0048435Y0201616D01*
X0048435Y0201217D02*
X0046435Y0201217D01*
X0046435Y0200819D02*
X0048435Y0200819D01*
X0048435Y0200420D02*
X0046435Y0200420D01*
X0046435Y0200022D02*
X0048435Y0200022D01*
X0048435Y0199623D02*
X0046435Y0199623D01*
X0046435Y0199225D02*
X0048435Y0199225D01*
X0048435Y0198826D02*
X0046435Y0198826D01*
X0046435Y0198428D02*
X0048435Y0198428D01*
X0048435Y0198029D02*
X0046435Y0198029D01*
X0046435Y0197631D02*
X0048435Y0197631D01*
X0048435Y0197232D02*
X0046435Y0197232D01*
X0046435Y0196834D02*
X0048435Y0196834D01*
X0048435Y0196435D02*
X0046435Y0196435D01*
X0046435Y0196037D02*
X0048435Y0196037D01*
X0048435Y0195638D02*
X0046435Y0195638D01*
X0046435Y0195240D02*
X0048435Y0195240D01*
X0048435Y0194841D02*
X0046435Y0194841D01*
X0046435Y0194443D02*
X0048435Y0194443D01*
X0048435Y0194044D02*
X0046435Y0194044D01*
X0046435Y0193646D02*
X0048435Y0193646D01*
X0048435Y0193247D02*
X0046435Y0193247D01*
X0046435Y0192849D02*
X0048435Y0192849D01*
X0048435Y0192450D02*
X0046435Y0192450D01*
X0046435Y0192052D02*
X0048435Y0192052D01*
X0048435Y0191653D02*
X0046435Y0191653D01*
X0046435Y0191255D02*
X0048435Y0191255D01*
X0048435Y0190856D02*
X0046435Y0190856D01*
X0046435Y0190458D02*
X0048435Y0190458D01*
X0048435Y0190059D02*
X0046435Y0190059D01*
X0046435Y0189660D02*
X0048435Y0189660D01*
X0048435Y0189262D02*
X0046435Y0189262D01*
X0046435Y0188863D02*
X0048435Y0188863D01*
X0048435Y0188465D02*
X0046435Y0188465D01*
X0046435Y0188066D02*
X0048435Y0188066D01*
X0048435Y0187668D02*
X0046435Y0187668D01*
X0046435Y0187269D02*
X0048435Y0187269D01*
X0048435Y0186871D02*
X0046435Y0186871D01*
X0046435Y0186472D02*
X0048435Y0186472D01*
X0048435Y0186074D02*
X0046435Y0186074D01*
X0016435Y0180850D02*
X0078435Y0180850D01*
X0078435Y0177850D01*
X0016435Y0177850D01*
X0016435Y0180850D01*
X0016435Y0180495D02*
X0078435Y0180495D01*
X0078435Y0180096D02*
X0016435Y0180096D01*
X0016435Y0179698D02*
X0078435Y0179698D01*
X0078435Y0179299D02*
X0016435Y0179299D01*
X0016435Y0178901D02*
X0078435Y0178901D01*
X0078435Y0178502D02*
X0016435Y0178502D01*
X0016435Y0178104D02*
X0078435Y0178104D01*
X0155435Y0168850D02*
X0155435Y0165850D01*
X0179435Y0165850D01*
X0179435Y0168850D01*
X0155435Y0168850D01*
X0155435Y0168539D02*
X0179435Y0168539D01*
X0179435Y0168141D02*
X0155435Y0168141D01*
X0155435Y0167742D02*
X0179435Y0167742D01*
X0179435Y0167344D02*
X0155435Y0167344D01*
X0155435Y0166945D02*
X0179435Y0166945D01*
X0179435Y0166547D02*
X0155435Y0166547D01*
X0155435Y0166148D02*
X0179435Y0166148D01*
X0215435Y0189850D02*
X0230435Y0189850D01*
X0230435Y0191850D01*
X0215435Y0191850D01*
X0215435Y0189850D01*
X0215435Y0190059D02*
X0230435Y0190059D01*
X0230435Y0190458D02*
X0215435Y0190458D01*
X0215435Y0190856D02*
X0230435Y0190856D01*
X0230435Y0191255D02*
X0215435Y0191255D01*
X0215435Y0191653D02*
X0230435Y0191653D01*
X0247435Y0213850D02*
X0247435Y0215850D01*
X0261435Y0215850D01*
X0261435Y0213850D01*
X0247435Y0213850D01*
X0247435Y0213970D02*
X0261435Y0213970D01*
X0261435Y0214368D02*
X0247435Y0214368D01*
X0247435Y0214767D02*
X0261435Y0214767D01*
X0261435Y0215165D02*
X0247435Y0215165D01*
X0247435Y0215564D02*
X0261435Y0215564D01*
X0282435Y0215564D02*
X0285435Y0215564D01*
X0285435Y0215962D02*
X0282435Y0215962D01*
X0282435Y0216361D02*
X0285435Y0216361D01*
X0285435Y0216759D02*
X0282435Y0216759D01*
X0282435Y0216850D02*
X0285435Y0216850D01*
X0285435Y0199850D01*
X0282435Y0199850D01*
X0282435Y0216850D01*
X0282435Y0215165D02*
X0285435Y0215165D01*
X0285435Y0214767D02*
X0282435Y0214767D01*
X0282435Y0214368D02*
X0285435Y0214368D01*
X0285435Y0213970D02*
X0282435Y0213970D01*
X0282435Y0213571D02*
X0285435Y0213571D01*
X0285435Y0213173D02*
X0282435Y0213173D01*
X0282435Y0212774D02*
X0285435Y0212774D01*
X0285435Y0212376D02*
X0282435Y0212376D01*
X0282435Y0211977D02*
X0285435Y0211977D01*
X0285435Y0211579D02*
X0282435Y0211579D01*
X0282435Y0211180D02*
X0285435Y0211180D01*
X0285435Y0210782D02*
X0282435Y0210782D01*
X0282435Y0210383D02*
X0285435Y0210383D01*
X0285435Y0209985D02*
X0282435Y0209985D01*
X0282435Y0209586D02*
X0285435Y0209586D01*
X0285435Y0209188D02*
X0282435Y0209188D01*
X0282435Y0208789D02*
X0285435Y0208789D01*
X0285435Y0208391D02*
X0282435Y0208391D01*
X0282435Y0207992D02*
X0285435Y0207992D01*
X0285435Y0207593D02*
X0282435Y0207593D01*
X0282435Y0207195D02*
X0285435Y0207195D01*
X0285435Y0206796D02*
X0282435Y0206796D01*
X0282435Y0206398D02*
X0285435Y0206398D01*
X0285435Y0205999D02*
X0282435Y0205999D01*
X0282435Y0205601D02*
X0285435Y0205601D01*
X0285435Y0205202D02*
X0282435Y0205202D01*
X0282435Y0204804D02*
X0285435Y0204804D01*
X0285435Y0204405D02*
X0282435Y0204405D01*
X0282435Y0204007D02*
X0285435Y0204007D01*
X0285435Y0203608D02*
X0282435Y0203608D01*
X0282435Y0203210D02*
X0285435Y0203210D01*
X0285435Y0202811D02*
X0282435Y0202811D01*
X0282435Y0202413D02*
X0285435Y0202413D01*
X0285435Y0202014D02*
X0282435Y0202014D01*
X0282435Y0201616D02*
X0285435Y0201616D01*
X0285435Y0201217D02*
X0282435Y0201217D01*
X0282435Y0200819D02*
X0285435Y0200819D01*
X0285435Y0200420D02*
X0282435Y0200420D01*
X0282435Y0200022D02*
X0285435Y0200022D01*
X0303435Y0191850D02*
X0303435Y0189850D01*
X0317435Y0189850D01*
X0317435Y0191850D01*
X0303435Y0191850D01*
X0303435Y0191653D02*
X0317435Y0191653D01*
X0317435Y0191255D02*
X0303435Y0191255D01*
X0303435Y0190856D02*
X0317435Y0190856D01*
X0317435Y0190458D02*
X0303435Y0190458D01*
X0303435Y0190059D02*
X0317435Y0190059D01*
X0266435Y0168850D02*
X0266435Y0165850D01*
X0242435Y0165850D01*
X0242435Y0168850D01*
X0266435Y0168850D01*
X0266435Y0168539D02*
X0242435Y0168539D01*
X0242435Y0168141D02*
X0266435Y0168141D01*
X0266435Y0167742D02*
X0242435Y0167742D01*
X0242435Y0167344D02*
X0266435Y0167344D01*
X0266435Y0166945D02*
X0242435Y0166945D01*
X0242435Y0166547D02*
X0266435Y0166547D01*
X0266435Y0166148D02*
X0242435Y0166148D01*
X0198435Y0199850D02*
X0195435Y0199850D01*
X0195435Y0216850D01*
X0198435Y0216850D01*
X0198435Y0199850D01*
X0198435Y0200022D02*
X0195435Y0200022D01*
X0195435Y0200420D02*
X0198435Y0200420D01*
X0198435Y0200819D02*
X0195435Y0200819D01*
X0195435Y0201217D02*
X0198435Y0201217D01*
X0198435Y0201616D02*
X0195435Y0201616D01*
X0195435Y0202014D02*
X0198435Y0202014D01*
X0198435Y0202413D02*
X0195435Y0202413D01*
X0195435Y0202811D02*
X0198435Y0202811D01*
X0198435Y0203210D02*
X0195435Y0203210D01*
X0195435Y0203608D02*
X0198435Y0203608D01*
X0198435Y0204007D02*
X0195435Y0204007D01*
X0195435Y0204405D02*
X0198435Y0204405D01*
X0198435Y0204804D02*
X0195435Y0204804D01*
X0195435Y0205202D02*
X0198435Y0205202D01*
X0198435Y0205601D02*
X0195435Y0205601D01*
X0195435Y0205999D02*
X0198435Y0205999D01*
X0198435Y0206398D02*
X0195435Y0206398D01*
X0195435Y0206796D02*
X0198435Y0206796D01*
X0198435Y0207195D02*
X0195435Y0207195D01*
X0195435Y0207593D02*
X0198435Y0207593D01*
X0198435Y0207992D02*
X0195435Y0207992D01*
X0195435Y0208391D02*
X0198435Y0208391D01*
X0198435Y0208789D02*
X0195435Y0208789D01*
X0195435Y0209188D02*
X0198435Y0209188D01*
X0198435Y0209586D02*
X0195435Y0209586D01*
X0195435Y0209985D02*
X0198435Y0209985D01*
X0198435Y0210383D02*
X0195435Y0210383D01*
X0195435Y0210782D02*
X0198435Y0210782D01*
X0198435Y0211180D02*
X0195435Y0211180D01*
X0195435Y0211579D02*
X0198435Y0211579D01*
X0198435Y0211977D02*
X0195435Y0211977D01*
X0195435Y0212376D02*
X0198435Y0212376D01*
X0198435Y0212774D02*
X0195435Y0212774D01*
X0195435Y0213173D02*
X0198435Y0213173D01*
X0198435Y0213571D02*
X0195435Y0213571D01*
X0195435Y0213970D02*
X0198435Y0213970D01*
X0198435Y0214368D02*
X0195435Y0214368D01*
X0195435Y0214767D02*
X0198435Y0214767D01*
X0198435Y0215165D02*
X0195435Y0215165D01*
X0195435Y0215564D02*
X0198435Y0215564D01*
X0198435Y0215962D02*
X0195435Y0215962D01*
X0195435Y0216361D02*
X0198435Y0216361D01*
X0198435Y0216759D02*
X0195435Y0216759D01*
X0174435Y0215850D02*
X0174435Y0213850D01*
X0160435Y0213850D01*
X0160435Y0215850D01*
X0174435Y0215850D01*
X0174435Y0215564D02*
X0160435Y0215564D01*
X0160435Y0215165D02*
X0174435Y0215165D01*
X0174435Y0214767D02*
X0160435Y0214767D01*
X0160435Y0214368D02*
X0174435Y0214368D01*
X0174435Y0213970D02*
X0160435Y0213970D01*
D12*
X0022435Y0213579D02*
X0020435Y0213579D01*
X0020435Y0212850D02*
X0020435Y0231850D01*
X0022435Y0231850D01*
X0022435Y0212850D01*
X0020435Y0212850D01*
X0020435Y0214578D02*
X0022435Y0214578D01*
X0022435Y0215576D02*
X0020435Y0215576D01*
X0020435Y0216575D02*
X0022435Y0216575D01*
X0022435Y0217573D02*
X0020435Y0217573D01*
X0020435Y0218572D02*
X0022435Y0218572D01*
X0022435Y0219570D02*
X0020435Y0219570D01*
X0020435Y0220569D02*
X0022435Y0220569D01*
X0022435Y0221567D02*
X0020435Y0221567D01*
X0020435Y0222566D02*
X0022435Y0222566D01*
X0022435Y0223564D02*
X0020435Y0223564D01*
X0020435Y0224563D02*
X0022435Y0224563D01*
X0022435Y0225561D02*
X0020435Y0225561D01*
X0020435Y0226560D02*
X0022435Y0226560D01*
X0022435Y0227558D02*
X0020435Y0227558D01*
X0020435Y0228557D02*
X0022435Y0228557D01*
X0022435Y0229555D02*
X0020435Y0229555D01*
X0020435Y0230554D02*
X0022435Y0230554D01*
X0022435Y0231552D02*
X0020435Y0231552D01*
M02*
