G75*
%MOIN*%
%OFA0B0*%
%FSLAX25Y25*%
%IPPOS*%
%LPD*%
%AMOC8*
5,1,8,0,0,1.08239X$1,22.5*
%
%ADD10C,0.00000*%
%ADD11R,0.05937X0.05937*%
%ADD12C,0.05937*%
%ADD13C,0.01260*%
%ADD14C,0.06300*%
%ADD15R,0.05118X0.05906*%
%ADD16OC8,0.06300*%
%ADD17R,0.04500X0.04000*%
%ADD18C,0.01000*%
%ADD19R,0.08600X0.08600*%
%ADD20C,0.07000*%
%ADD21C,0.07800*%
%ADD22R,0.04724X0.04724*%
%ADD23C,0.07200*%
%ADD24C,0.05937*%
%ADD25C,0.05600*%
%ADD26C,0.06000*%
%ADD27C,0.07400*%
%ADD28R,0.01378X0.04724*%
%ADD29R,0.05906X0.05118*%
%ADD30OC8,0.07600*%
%ADD31C,0.06000*%
%ADD32R,0.06000X0.03000*%
%ADD33C,0.02067*%
%ADD34C,0.01969*%
%ADD35R,0.06500X0.06500*%
%ADD36C,0.06500*%
%ADD37C,0.03169*%
%ADD38R,0.03562X0.03562*%
%ADD39C,0.01600*%
%ADD40C,0.02400*%
%ADD41C,0.07600*%
%ADD42C,0.03562*%
D10*
X0006435Y0031850D02*
X0323435Y0031850D01*
X0323435Y0267850D01*
X0006435Y0267850D01*
X0006435Y0031850D01*
X0008136Y0039850D02*
X0008138Y0040008D01*
X0008144Y0040166D01*
X0008154Y0040324D01*
X0008168Y0040482D01*
X0008186Y0040639D01*
X0008207Y0040796D01*
X0008233Y0040952D01*
X0008263Y0041108D01*
X0008296Y0041263D01*
X0008334Y0041416D01*
X0008375Y0041569D01*
X0008420Y0041721D01*
X0008469Y0041872D01*
X0008522Y0042021D01*
X0008578Y0042169D01*
X0008638Y0042315D01*
X0008702Y0042460D01*
X0008770Y0042603D01*
X0008841Y0042745D01*
X0008915Y0042885D01*
X0008993Y0043022D01*
X0009075Y0043158D01*
X0009159Y0043292D01*
X0009248Y0043423D01*
X0009339Y0043552D01*
X0009434Y0043679D01*
X0009531Y0043804D01*
X0009632Y0043926D01*
X0009736Y0044045D01*
X0009843Y0044162D01*
X0009953Y0044276D01*
X0010066Y0044387D01*
X0010181Y0044496D01*
X0010299Y0044601D01*
X0010420Y0044703D01*
X0010543Y0044803D01*
X0010669Y0044899D01*
X0010797Y0044992D01*
X0010927Y0045082D01*
X0011060Y0045168D01*
X0011195Y0045252D01*
X0011331Y0045331D01*
X0011470Y0045408D01*
X0011611Y0045480D01*
X0011753Y0045550D01*
X0011897Y0045615D01*
X0012043Y0045677D01*
X0012190Y0045735D01*
X0012339Y0045790D01*
X0012489Y0045841D01*
X0012640Y0045888D01*
X0012792Y0045931D01*
X0012945Y0045970D01*
X0013100Y0046006D01*
X0013255Y0046037D01*
X0013411Y0046065D01*
X0013567Y0046089D01*
X0013724Y0046109D01*
X0013882Y0046125D01*
X0014039Y0046137D01*
X0014198Y0046145D01*
X0014356Y0046149D01*
X0014514Y0046149D01*
X0014672Y0046145D01*
X0014831Y0046137D01*
X0014988Y0046125D01*
X0015146Y0046109D01*
X0015303Y0046089D01*
X0015459Y0046065D01*
X0015615Y0046037D01*
X0015770Y0046006D01*
X0015925Y0045970D01*
X0016078Y0045931D01*
X0016230Y0045888D01*
X0016381Y0045841D01*
X0016531Y0045790D01*
X0016680Y0045735D01*
X0016827Y0045677D01*
X0016973Y0045615D01*
X0017117Y0045550D01*
X0017259Y0045480D01*
X0017400Y0045408D01*
X0017539Y0045331D01*
X0017675Y0045252D01*
X0017810Y0045168D01*
X0017943Y0045082D01*
X0018073Y0044992D01*
X0018201Y0044899D01*
X0018327Y0044803D01*
X0018450Y0044703D01*
X0018571Y0044601D01*
X0018689Y0044496D01*
X0018804Y0044387D01*
X0018917Y0044276D01*
X0019027Y0044162D01*
X0019134Y0044045D01*
X0019238Y0043926D01*
X0019339Y0043804D01*
X0019436Y0043679D01*
X0019531Y0043552D01*
X0019622Y0043423D01*
X0019711Y0043292D01*
X0019795Y0043158D01*
X0019877Y0043022D01*
X0019955Y0042885D01*
X0020029Y0042745D01*
X0020100Y0042603D01*
X0020168Y0042460D01*
X0020232Y0042315D01*
X0020292Y0042169D01*
X0020348Y0042021D01*
X0020401Y0041872D01*
X0020450Y0041721D01*
X0020495Y0041569D01*
X0020536Y0041416D01*
X0020574Y0041263D01*
X0020607Y0041108D01*
X0020637Y0040952D01*
X0020663Y0040796D01*
X0020684Y0040639D01*
X0020702Y0040482D01*
X0020716Y0040324D01*
X0020726Y0040166D01*
X0020732Y0040008D01*
X0020734Y0039850D01*
X0020732Y0039692D01*
X0020726Y0039534D01*
X0020716Y0039376D01*
X0020702Y0039218D01*
X0020684Y0039061D01*
X0020663Y0038904D01*
X0020637Y0038748D01*
X0020607Y0038592D01*
X0020574Y0038437D01*
X0020536Y0038284D01*
X0020495Y0038131D01*
X0020450Y0037979D01*
X0020401Y0037828D01*
X0020348Y0037679D01*
X0020292Y0037531D01*
X0020232Y0037385D01*
X0020168Y0037240D01*
X0020100Y0037097D01*
X0020029Y0036955D01*
X0019955Y0036815D01*
X0019877Y0036678D01*
X0019795Y0036542D01*
X0019711Y0036408D01*
X0019622Y0036277D01*
X0019531Y0036148D01*
X0019436Y0036021D01*
X0019339Y0035896D01*
X0019238Y0035774D01*
X0019134Y0035655D01*
X0019027Y0035538D01*
X0018917Y0035424D01*
X0018804Y0035313D01*
X0018689Y0035204D01*
X0018571Y0035099D01*
X0018450Y0034997D01*
X0018327Y0034897D01*
X0018201Y0034801D01*
X0018073Y0034708D01*
X0017943Y0034618D01*
X0017810Y0034532D01*
X0017675Y0034448D01*
X0017539Y0034369D01*
X0017400Y0034292D01*
X0017259Y0034220D01*
X0017117Y0034150D01*
X0016973Y0034085D01*
X0016827Y0034023D01*
X0016680Y0033965D01*
X0016531Y0033910D01*
X0016381Y0033859D01*
X0016230Y0033812D01*
X0016078Y0033769D01*
X0015925Y0033730D01*
X0015770Y0033694D01*
X0015615Y0033663D01*
X0015459Y0033635D01*
X0015303Y0033611D01*
X0015146Y0033591D01*
X0014988Y0033575D01*
X0014831Y0033563D01*
X0014672Y0033555D01*
X0014514Y0033551D01*
X0014356Y0033551D01*
X0014198Y0033555D01*
X0014039Y0033563D01*
X0013882Y0033575D01*
X0013724Y0033591D01*
X0013567Y0033611D01*
X0013411Y0033635D01*
X0013255Y0033663D01*
X0013100Y0033694D01*
X0012945Y0033730D01*
X0012792Y0033769D01*
X0012640Y0033812D01*
X0012489Y0033859D01*
X0012339Y0033910D01*
X0012190Y0033965D01*
X0012043Y0034023D01*
X0011897Y0034085D01*
X0011753Y0034150D01*
X0011611Y0034220D01*
X0011470Y0034292D01*
X0011331Y0034369D01*
X0011195Y0034448D01*
X0011060Y0034532D01*
X0010927Y0034618D01*
X0010797Y0034708D01*
X0010669Y0034801D01*
X0010543Y0034897D01*
X0010420Y0034997D01*
X0010299Y0035099D01*
X0010181Y0035204D01*
X0010066Y0035313D01*
X0009953Y0035424D01*
X0009843Y0035538D01*
X0009736Y0035655D01*
X0009632Y0035774D01*
X0009531Y0035896D01*
X0009434Y0036021D01*
X0009339Y0036148D01*
X0009248Y0036277D01*
X0009159Y0036408D01*
X0009075Y0036542D01*
X0008993Y0036678D01*
X0008915Y0036815D01*
X0008841Y0036955D01*
X0008770Y0037097D01*
X0008702Y0037240D01*
X0008638Y0037385D01*
X0008578Y0037531D01*
X0008522Y0037679D01*
X0008469Y0037828D01*
X0008420Y0037979D01*
X0008375Y0038131D01*
X0008334Y0038284D01*
X0008296Y0038437D01*
X0008263Y0038592D01*
X0008233Y0038748D01*
X0008207Y0038904D01*
X0008186Y0039061D01*
X0008168Y0039218D01*
X0008154Y0039376D01*
X0008144Y0039534D01*
X0008138Y0039692D01*
X0008136Y0039850D01*
X0155185Y0052850D02*
X0155187Y0052963D01*
X0155193Y0053077D01*
X0155203Y0053190D01*
X0155217Y0053302D01*
X0155234Y0053414D01*
X0155256Y0053526D01*
X0155282Y0053636D01*
X0155311Y0053746D01*
X0155344Y0053854D01*
X0155381Y0053962D01*
X0155422Y0054067D01*
X0155466Y0054172D01*
X0155514Y0054275D01*
X0155565Y0054376D01*
X0155620Y0054475D01*
X0155679Y0054572D01*
X0155741Y0054667D01*
X0155806Y0054760D01*
X0155874Y0054851D01*
X0155945Y0054939D01*
X0156020Y0055025D01*
X0156097Y0055108D01*
X0156177Y0055188D01*
X0156260Y0055265D01*
X0156346Y0055340D01*
X0156434Y0055411D01*
X0156525Y0055479D01*
X0156618Y0055544D01*
X0156713Y0055606D01*
X0156810Y0055665D01*
X0156909Y0055720D01*
X0157010Y0055771D01*
X0157113Y0055819D01*
X0157218Y0055863D01*
X0157323Y0055904D01*
X0157431Y0055941D01*
X0157539Y0055974D01*
X0157649Y0056003D01*
X0157759Y0056029D01*
X0157871Y0056051D01*
X0157983Y0056068D01*
X0158095Y0056082D01*
X0158208Y0056092D01*
X0158322Y0056098D01*
X0158435Y0056100D01*
X0158548Y0056098D01*
X0158662Y0056092D01*
X0158775Y0056082D01*
X0158887Y0056068D01*
X0158999Y0056051D01*
X0159111Y0056029D01*
X0159221Y0056003D01*
X0159331Y0055974D01*
X0159439Y0055941D01*
X0159547Y0055904D01*
X0159652Y0055863D01*
X0159757Y0055819D01*
X0159860Y0055771D01*
X0159961Y0055720D01*
X0160060Y0055665D01*
X0160157Y0055606D01*
X0160252Y0055544D01*
X0160345Y0055479D01*
X0160436Y0055411D01*
X0160524Y0055340D01*
X0160610Y0055265D01*
X0160693Y0055188D01*
X0160773Y0055108D01*
X0160850Y0055025D01*
X0160925Y0054939D01*
X0160996Y0054851D01*
X0161064Y0054760D01*
X0161129Y0054667D01*
X0161191Y0054572D01*
X0161250Y0054475D01*
X0161305Y0054376D01*
X0161356Y0054275D01*
X0161404Y0054172D01*
X0161448Y0054067D01*
X0161489Y0053962D01*
X0161526Y0053854D01*
X0161559Y0053746D01*
X0161588Y0053636D01*
X0161614Y0053526D01*
X0161636Y0053414D01*
X0161653Y0053302D01*
X0161667Y0053190D01*
X0161677Y0053077D01*
X0161683Y0052963D01*
X0161685Y0052850D01*
X0161683Y0052737D01*
X0161677Y0052623D01*
X0161667Y0052510D01*
X0161653Y0052398D01*
X0161636Y0052286D01*
X0161614Y0052174D01*
X0161588Y0052064D01*
X0161559Y0051954D01*
X0161526Y0051846D01*
X0161489Y0051738D01*
X0161448Y0051633D01*
X0161404Y0051528D01*
X0161356Y0051425D01*
X0161305Y0051324D01*
X0161250Y0051225D01*
X0161191Y0051128D01*
X0161129Y0051033D01*
X0161064Y0050940D01*
X0160996Y0050849D01*
X0160925Y0050761D01*
X0160850Y0050675D01*
X0160773Y0050592D01*
X0160693Y0050512D01*
X0160610Y0050435D01*
X0160524Y0050360D01*
X0160436Y0050289D01*
X0160345Y0050221D01*
X0160252Y0050156D01*
X0160157Y0050094D01*
X0160060Y0050035D01*
X0159961Y0049980D01*
X0159860Y0049929D01*
X0159757Y0049881D01*
X0159652Y0049837D01*
X0159547Y0049796D01*
X0159439Y0049759D01*
X0159331Y0049726D01*
X0159221Y0049697D01*
X0159111Y0049671D01*
X0158999Y0049649D01*
X0158887Y0049632D01*
X0158775Y0049618D01*
X0158662Y0049608D01*
X0158548Y0049602D01*
X0158435Y0049600D01*
X0158322Y0049602D01*
X0158208Y0049608D01*
X0158095Y0049618D01*
X0157983Y0049632D01*
X0157871Y0049649D01*
X0157759Y0049671D01*
X0157649Y0049697D01*
X0157539Y0049726D01*
X0157431Y0049759D01*
X0157323Y0049796D01*
X0157218Y0049837D01*
X0157113Y0049881D01*
X0157010Y0049929D01*
X0156909Y0049980D01*
X0156810Y0050035D01*
X0156713Y0050094D01*
X0156618Y0050156D01*
X0156525Y0050221D01*
X0156434Y0050289D01*
X0156346Y0050360D01*
X0156260Y0050435D01*
X0156177Y0050512D01*
X0156097Y0050592D01*
X0156020Y0050675D01*
X0155945Y0050761D01*
X0155874Y0050849D01*
X0155806Y0050940D01*
X0155741Y0051033D01*
X0155679Y0051128D01*
X0155620Y0051225D01*
X0155565Y0051324D01*
X0155514Y0051425D01*
X0155466Y0051528D01*
X0155422Y0051633D01*
X0155381Y0051738D01*
X0155344Y0051846D01*
X0155311Y0051954D01*
X0155282Y0052064D01*
X0155256Y0052174D01*
X0155234Y0052286D01*
X0155217Y0052398D01*
X0155203Y0052510D01*
X0155193Y0052623D01*
X0155187Y0052737D01*
X0155185Y0052850D01*
X0155185Y0112850D02*
X0155187Y0112963D01*
X0155193Y0113077D01*
X0155203Y0113190D01*
X0155217Y0113302D01*
X0155234Y0113414D01*
X0155256Y0113526D01*
X0155282Y0113636D01*
X0155311Y0113746D01*
X0155344Y0113854D01*
X0155381Y0113962D01*
X0155422Y0114067D01*
X0155466Y0114172D01*
X0155514Y0114275D01*
X0155565Y0114376D01*
X0155620Y0114475D01*
X0155679Y0114572D01*
X0155741Y0114667D01*
X0155806Y0114760D01*
X0155874Y0114851D01*
X0155945Y0114939D01*
X0156020Y0115025D01*
X0156097Y0115108D01*
X0156177Y0115188D01*
X0156260Y0115265D01*
X0156346Y0115340D01*
X0156434Y0115411D01*
X0156525Y0115479D01*
X0156618Y0115544D01*
X0156713Y0115606D01*
X0156810Y0115665D01*
X0156909Y0115720D01*
X0157010Y0115771D01*
X0157113Y0115819D01*
X0157218Y0115863D01*
X0157323Y0115904D01*
X0157431Y0115941D01*
X0157539Y0115974D01*
X0157649Y0116003D01*
X0157759Y0116029D01*
X0157871Y0116051D01*
X0157983Y0116068D01*
X0158095Y0116082D01*
X0158208Y0116092D01*
X0158322Y0116098D01*
X0158435Y0116100D01*
X0158548Y0116098D01*
X0158662Y0116092D01*
X0158775Y0116082D01*
X0158887Y0116068D01*
X0158999Y0116051D01*
X0159111Y0116029D01*
X0159221Y0116003D01*
X0159331Y0115974D01*
X0159439Y0115941D01*
X0159547Y0115904D01*
X0159652Y0115863D01*
X0159757Y0115819D01*
X0159860Y0115771D01*
X0159961Y0115720D01*
X0160060Y0115665D01*
X0160157Y0115606D01*
X0160252Y0115544D01*
X0160345Y0115479D01*
X0160436Y0115411D01*
X0160524Y0115340D01*
X0160610Y0115265D01*
X0160693Y0115188D01*
X0160773Y0115108D01*
X0160850Y0115025D01*
X0160925Y0114939D01*
X0160996Y0114851D01*
X0161064Y0114760D01*
X0161129Y0114667D01*
X0161191Y0114572D01*
X0161250Y0114475D01*
X0161305Y0114376D01*
X0161356Y0114275D01*
X0161404Y0114172D01*
X0161448Y0114067D01*
X0161489Y0113962D01*
X0161526Y0113854D01*
X0161559Y0113746D01*
X0161588Y0113636D01*
X0161614Y0113526D01*
X0161636Y0113414D01*
X0161653Y0113302D01*
X0161667Y0113190D01*
X0161677Y0113077D01*
X0161683Y0112963D01*
X0161685Y0112850D01*
X0161683Y0112737D01*
X0161677Y0112623D01*
X0161667Y0112510D01*
X0161653Y0112398D01*
X0161636Y0112286D01*
X0161614Y0112174D01*
X0161588Y0112064D01*
X0161559Y0111954D01*
X0161526Y0111846D01*
X0161489Y0111738D01*
X0161448Y0111633D01*
X0161404Y0111528D01*
X0161356Y0111425D01*
X0161305Y0111324D01*
X0161250Y0111225D01*
X0161191Y0111128D01*
X0161129Y0111033D01*
X0161064Y0110940D01*
X0160996Y0110849D01*
X0160925Y0110761D01*
X0160850Y0110675D01*
X0160773Y0110592D01*
X0160693Y0110512D01*
X0160610Y0110435D01*
X0160524Y0110360D01*
X0160436Y0110289D01*
X0160345Y0110221D01*
X0160252Y0110156D01*
X0160157Y0110094D01*
X0160060Y0110035D01*
X0159961Y0109980D01*
X0159860Y0109929D01*
X0159757Y0109881D01*
X0159652Y0109837D01*
X0159547Y0109796D01*
X0159439Y0109759D01*
X0159331Y0109726D01*
X0159221Y0109697D01*
X0159111Y0109671D01*
X0158999Y0109649D01*
X0158887Y0109632D01*
X0158775Y0109618D01*
X0158662Y0109608D01*
X0158548Y0109602D01*
X0158435Y0109600D01*
X0158322Y0109602D01*
X0158208Y0109608D01*
X0158095Y0109618D01*
X0157983Y0109632D01*
X0157871Y0109649D01*
X0157759Y0109671D01*
X0157649Y0109697D01*
X0157539Y0109726D01*
X0157431Y0109759D01*
X0157323Y0109796D01*
X0157218Y0109837D01*
X0157113Y0109881D01*
X0157010Y0109929D01*
X0156909Y0109980D01*
X0156810Y0110035D01*
X0156713Y0110094D01*
X0156618Y0110156D01*
X0156525Y0110221D01*
X0156434Y0110289D01*
X0156346Y0110360D01*
X0156260Y0110435D01*
X0156177Y0110512D01*
X0156097Y0110592D01*
X0156020Y0110675D01*
X0155945Y0110761D01*
X0155874Y0110849D01*
X0155806Y0110940D01*
X0155741Y0111033D01*
X0155679Y0111128D01*
X0155620Y0111225D01*
X0155565Y0111324D01*
X0155514Y0111425D01*
X0155466Y0111528D01*
X0155422Y0111633D01*
X0155381Y0111738D01*
X0155344Y0111846D01*
X0155311Y0111954D01*
X0155282Y0112064D01*
X0155256Y0112174D01*
X0155234Y0112286D01*
X0155217Y0112398D01*
X0155203Y0112510D01*
X0155193Y0112623D01*
X0155187Y0112737D01*
X0155185Y0112850D01*
X0309136Y0039850D02*
X0309138Y0040008D01*
X0309144Y0040166D01*
X0309154Y0040324D01*
X0309168Y0040482D01*
X0309186Y0040639D01*
X0309207Y0040796D01*
X0309233Y0040952D01*
X0309263Y0041108D01*
X0309296Y0041263D01*
X0309334Y0041416D01*
X0309375Y0041569D01*
X0309420Y0041721D01*
X0309469Y0041872D01*
X0309522Y0042021D01*
X0309578Y0042169D01*
X0309638Y0042315D01*
X0309702Y0042460D01*
X0309770Y0042603D01*
X0309841Y0042745D01*
X0309915Y0042885D01*
X0309993Y0043022D01*
X0310075Y0043158D01*
X0310159Y0043292D01*
X0310248Y0043423D01*
X0310339Y0043552D01*
X0310434Y0043679D01*
X0310531Y0043804D01*
X0310632Y0043926D01*
X0310736Y0044045D01*
X0310843Y0044162D01*
X0310953Y0044276D01*
X0311066Y0044387D01*
X0311181Y0044496D01*
X0311299Y0044601D01*
X0311420Y0044703D01*
X0311543Y0044803D01*
X0311669Y0044899D01*
X0311797Y0044992D01*
X0311927Y0045082D01*
X0312060Y0045168D01*
X0312195Y0045252D01*
X0312331Y0045331D01*
X0312470Y0045408D01*
X0312611Y0045480D01*
X0312753Y0045550D01*
X0312897Y0045615D01*
X0313043Y0045677D01*
X0313190Y0045735D01*
X0313339Y0045790D01*
X0313489Y0045841D01*
X0313640Y0045888D01*
X0313792Y0045931D01*
X0313945Y0045970D01*
X0314100Y0046006D01*
X0314255Y0046037D01*
X0314411Y0046065D01*
X0314567Y0046089D01*
X0314724Y0046109D01*
X0314882Y0046125D01*
X0315039Y0046137D01*
X0315198Y0046145D01*
X0315356Y0046149D01*
X0315514Y0046149D01*
X0315672Y0046145D01*
X0315831Y0046137D01*
X0315988Y0046125D01*
X0316146Y0046109D01*
X0316303Y0046089D01*
X0316459Y0046065D01*
X0316615Y0046037D01*
X0316770Y0046006D01*
X0316925Y0045970D01*
X0317078Y0045931D01*
X0317230Y0045888D01*
X0317381Y0045841D01*
X0317531Y0045790D01*
X0317680Y0045735D01*
X0317827Y0045677D01*
X0317973Y0045615D01*
X0318117Y0045550D01*
X0318259Y0045480D01*
X0318400Y0045408D01*
X0318539Y0045331D01*
X0318675Y0045252D01*
X0318810Y0045168D01*
X0318943Y0045082D01*
X0319073Y0044992D01*
X0319201Y0044899D01*
X0319327Y0044803D01*
X0319450Y0044703D01*
X0319571Y0044601D01*
X0319689Y0044496D01*
X0319804Y0044387D01*
X0319917Y0044276D01*
X0320027Y0044162D01*
X0320134Y0044045D01*
X0320238Y0043926D01*
X0320339Y0043804D01*
X0320436Y0043679D01*
X0320531Y0043552D01*
X0320622Y0043423D01*
X0320711Y0043292D01*
X0320795Y0043158D01*
X0320877Y0043022D01*
X0320955Y0042885D01*
X0321029Y0042745D01*
X0321100Y0042603D01*
X0321168Y0042460D01*
X0321232Y0042315D01*
X0321292Y0042169D01*
X0321348Y0042021D01*
X0321401Y0041872D01*
X0321450Y0041721D01*
X0321495Y0041569D01*
X0321536Y0041416D01*
X0321574Y0041263D01*
X0321607Y0041108D01*
X0321637Y0040952D01*
X0321663Y0040796D01*
X0321684Y0040639D01*
X0321702Y0040482D01*
X0321716Y0040324D01*
X0321726Y0040166D01*
X0321732Y0040008D01*
X0321734Y0039850D01*
X0321732Y0039692D01*
X0321726Y0039534D01*
X0321716Y0039376D01*
X0321702Y0039218D01*
X0321684Y0039061D01*
X0321663Y0038904D01*
X0321637Y0038748D01*
X0321607Y0038592D01*
X0321574Y0038437D01*
X0321536Y0038284D01*
X0321495Y0038131D01*
X0321450Y0037979D01*
X0321401Y0037828D01*
X0321348Y0037679D01*
X0321292Y0037531D01*
X0321232Y0037385D01*
X0321168Y0037240D01*
X0321100Y0037097D01*
X0321029Y0036955D01*
X0320955Y0036815D01*
X0320877Y0036678D01*
X0320795Y0036542D01*
X0320711Y0036408D01*
X0320622Y0036277D01*
X0320531Y0036148D01*
X0320436Y0036021D01*
X0320339Y0035896D01*
X0320238Y0035774D01*
X0320134Y0035655D01*
X0320027Y0035538D01*
X0319917Y0035424D01*
X0319804Y0035313D01*
X0319689Y0035204D01*
X0319571Y0035099D01*
X0319450Y0034997D01*
X0319327Y0034897D01*
X0319201Y0034801D01*
X0319073Y0034708D01*
X0318943Y0034618D01*
X0318810Y0034532D01*
X0318675Y0034448D01*
X0318539Y0034369D01*
X0318400Y0034292D01*
X0318259Y0034220D01*
X0318117Y0034150D01*
X0317973Y0034085D01*
X0317827Y0034023D01*
X0317680Y0033965D01*
X0317531Y0033910D01*
X0317381Y0033859D01*
X0317230Y0033812D01*
X0317078Y0033769D01*
X0316925Y0033730D01*
X0316770Y0033694D01*
X0316615Y0033663D01*
X0316459Y0033635D01*
X0316303Y0033611D01*
X0316146Y0033591D01*
X0315988Y0033575D01*
X0315831Y0033563D01*
X0315672Y0033555D01*
X0315514Y0033551D01*
X0315356Y0033551D01*
X0315198Y0033555D01*
X0315039Y0033563D01*
X0314882Y0033575D01*
X0314724Y0033591D01*
X0314567Y0033611D01*
X0314411Y0033635D01*
X0314255Y0033663D01*
X0314100Y0033694D01*
X0313945Y0033730D01*
X0313792Y0033769D01*
X0313640Y0033812D01*
X0313489Y0033859D01*
X0313339Y0033910D01*
X0313190Y0033965D01*
X0313043Y0034023D01*
X0312897Y0034085D01*
X0312753Y0034150D01*
X0312611Y0034220D01*
X0312470Y0034292D01*
X0312331Y0034369D01*
X0312195Y0034448D01*
X0312060Y0034532D01*
X0311927Y0034618D01*
X0311797Y0034708D01*
X0311669Y0034801D01*
X0311543Y0034897D01*
X0311420Y0034997D01*
X0311299Y0035099D01*
X0311181Y0035204D01*
X0311066Y0035313D01*
X0310953Y0035424D01*
X0310843Y0035538D01*
X0310736Y0035655D01*
X0310632Y0035774D01*
X0310531Y0035896D01*
X0310434Y0036021D01*
X0310339Y0036148D01*
X0310248Y0036277D01*
X0310159Y0036408D01*
X0310075Y0036542D01*
X0309993Y0036678D01*
X0309915Y0036815D01*
X0309841Y0036955D01*
X0309770Y0037097D01*
X0309702Y0037240D01*
X0309638Y0037385D01*
X0309578Y0037531D01*
X0309522Y0037679D01*
X0309469Y0037828D01*
X0309420Y0037979D01*
X0309375Y0038131D01*
X0309334Y0038284D01*
X0309296Y0038437D01*
X0309263Y0038592D01*
X0309233Y0038748D01*
X0309207Y0038904D01*
X0309186Y0039061D01*
X0309168Y0039218D01*
X0309154Y0039376D01*
X0309144Y0039534D01*
X0309138Y0039692D01*
X0309136Y0039850D01*
X0315185Y0052850D02*
X0315187Y0052963D01*
X0315193Y0053077D01*
X0315203Y0053190D01*
X0315217Y0053302D01*
X0315234Y0053414D01*
X0315256Y0053526D01*
X0315282Y0053636D01*
X0315311Y0053746D01*
X0315344Y0053854D01*
X0315381Y0053962D01*
X0315422Y0054067D01*
X0315466Y0054172D01*
X0315514Y0054275D01*
X0315565Y0054376D01*
X0315620Y0054475D01*
X0315679Y0054572D01*
X0315741Y0054667D01*
X0315806Y0054760D01*
X0315874Y0054851D01*
X0315945Y0054939D01*
X0316020Y0055025D01*
X0316097Y0055108D01*
X0316177Y0055188D01*
X0316260Y0055265D01*
X0316346Y0055340D01*
X0316434Y0055411D01*
X0316525Y0055479D01*
X0316618Y0055544D01*
X0316713Y0055606D01*
X0316810Y0055665D01*
X0316909Y0055720D01*
X0317010Y0055771D01*
X0317113Y0055819D01*
X0317218Y0055863D01*
X0317323Y0055904D01*
X0317431Y0055941D01*
X0317539Y0055974D01*
X0317649Y0056003D01*
X0317759Y0056029D01*
X0317871Y0056051D01*
X0317983Y0056068D01*
X0318095Y0056082D01*
X0318208Y0056092D01*
X0318322Y0056098D01*
X0318435Y0056100D01*
X0318548Y0056098D01*
X0318662Y0056092D01*
X0318775Y0056082D01*
X0318887Y0056068D01*
X0318999Y0056051D01*
X0319111Y0056029D01*
X0319221Y0056003D01*
X0319331Y0055974D01*
X0319439Y0055941D01*
X0319547Y0055904D01*
X0319652Y0055863D01*
X0319757Y0055819D01*
X0319860Y0055771D01*
X0319961Y0055720D01*
X0320060Y0055665D01*
X0320157Y0055606D01*
X0320252Y0055544D01*
X0320345Y0055479D01*
X0320436Y0055411D01*
X0320524Y0055340D01*
X0320610Y0055265D01*
X0320693Y0055188D01*
X0320773Y0055108D01*
X0320850Y0055025D01*
X0320925Y0054939D01*
X0320996Y0054851D01*
X0321064Y0054760D01*
X0321129Y0054667D01*
X0321191Y0054572D01*
X0321250Y0054475D01*
X0321305Y0054376D01*
X0321356Y0054275D01*
X0321404Y0054172D01*
X0321448Y0054067D01*
X0321489Y0053962D01*
X0321526Y0053854D01*
X0321559Y0053746D01*
X0321588Y0053636D01*
X0321614Y0053526D01*
X0321636Y0053414D01*
X0321653Y0053302D01*
X0321667Y0053190D01*
X0321677Y0053077D01*
X0321683Y0052963D01*
X0321685Y0052850D01*
X0321683Y0052737D01*
X0321677Y0052623D01*
X0321667Y0052510D01*
X0321653Y0052398D01*
X0321636Y0052286D01*
X0321614Y0052174D01*
X0321588Y0052064D01*
X0321559Y0051954D01*
X0321526Y0051846D01*
X0321489Y0051738D01*
X0321448Y0051633D01*
X0321404Y0051528D01*
X0321356Y0051425D01*
X0321305Y0051324D01*
X0321250Y0051225D01*
X0321191Y0051128D01*
X0321129Y0051033D01*
X0321064Y0050940D01*
X0320996Y0050849D01*
X0320925Y0050761D01*
X0320850Y0050675D01*
X0320773Y0050592D01*
X0320693Y0050512D01*
X0320610Y0050435D01*
X0320524Y0050360D01*
X0320436Y0050289D01*
X0320345Y0050221D01*
X0320252Y0050156D01*
X0320157Y0050094D01*
X0320060Y0050035D01*
X0319961Y0049980D01*
X0319860Y0049929D01*
X0319757Y0049881D01*
X0319652Y0049837D01*
X0319547Y0049796D01*
X0319439Y0049759D01*
X0319331Y0049726D01*
X0319221Y0049697D01*
X0319111Y0049671D01*
X0318999Y0049649D01*
X0318887Y0049632D01*
X0318775Y0049618D01*
X0318662Y0049608D01*
X0318548Y0049602D01*
X0318435Y0049600D01*
X0318322Y0049602D01*
X0318208Y0049608D01*
X0318095Y0049618D01*
X0317983Y0049632D01*
X0317871Y0049649D01*
X0317759Y0049671D01*
X0317649Y0049697D01*
X0317539Y0049726D01*
X0317431Y0049759D01*
X0317323Y0049796D01*
X0317218Y0049837D01*
X0317113Y0049881D01*
X0317010Y0049929D01*
X0316909Y0049980D01*
X0316810Y0050035D01*
X0316713Y0050094D01*
X0316618Y0050156D01*
X0316525Y0050221D01*
X0316434Y0050289D01*
X0316346Y0050360D01*
X0316260Y0050435D01*
X0316177Y0050512D01*
X0316097Y0050592D01*
X0316020Y0050675D01*
X0315945Y0050761D01*
X0315874Y0050849D01*
X0315806Y0050940D01*
X0315741Y0051033D01*
X0315679Y0051128D01*
X0315620Y0051225D01*
X0315565Y0051324D01*
X0315514Y0051425D01*
X0315466Y0051528D01*
X0315422Y0051633D01*
X0315381Y0051738D01*
X0315344Y0051846D01*
X0315311Y0051954D01*
X0315282Y0052064D01*
X0315256Y0052174D01*
X0315234Y0052286D01*
X0315217Y0052398D01*
X0315203Y0052510D01*
X0315193Y0052623D01*
X0315187Y0052737D01*
X0315185Y0052850D01*
X0315185Y0112850D02*
X0315187Y0112963D01*
X0315193Y0113077D01*
X0315203Y0113190D01*
X0315217Y0113302D01*
X0315234Y0113414D01*
X0315256Y0113526D01*
X0315282Y0113636D01*
X0315311Y0113746D01*
X0315344Y0113854D01*
X0315381Y0113962D01*
X0315422Y0114067D01*
X0315466Y0114172D01*
X0315514Y0114275D01*
X0315565Y0114376D01*
X0315620Y0114475D01*
X0315679Y0114572D01*
X0315741Y0114667D01*
X0315806Y0114760D01*
X0315874Y0114851D01*
X0315945Y0114939D01*
X0316020Y0115025D01*
X0316097Y0115108D01*
X0316177Y0115188D01*
X0316260Y0115265D01*
X0316346Y0115340D01*
X0316434Y0115411D01*
X0316525Y0115479D01*
X0316618Y0115544D01*
X0316713Y0115606D01*
X0316810Y0115665D01*
X0316909Y0115720D01*
X0317010Y0115771D01*
X0317113Y0115819D01*
X0317218Y0115863D01*
X0317323Y0115904D01*
X0317431Y0115941D01*
X0317539Y0115974D01*
X0317649Y0116003D01*
X0317759Y0116029D01*
X0317871Y0116051D01*
X0317983Y0116068D01*
X0318095Y0116082D01*
X0318208Y0116092D01*
X0318322Y0116098D01*
X0318435Y0116100D01*
X0318548Y0116098D01*
X0318662Y0116092D01*
X0318775Y0116082D01*
X0318887Y0116068D01*
X0318999Y0116051D01*
X0319111Y0116029D01*
X0319221Y0116003D01*
X0319331Y0115974D01*
X0319439Y0115941D01*
X0319547Y0115904D01*
X0319652Y0115863D01*
X0319757Y0115819D01*
X0319860Y0115771D01*
X0319961Y0115720D01*
X0320060Y0115665D01*
X0320157Y0115606D01*
X0320252Y0115544D01*
X0320345Y0115479D01*
X0320436Y0115411D01*
X0320524Y0115340D01*
X0320610Y0115265D01*
X0320693Y0115188D01*
X0320773Y0115108D01*
X0320850Y0115025D01*
X0320925Y0114939D01*
X0320996Y0114851D01*
X0321064Y0114760D01*
X0321129Y0114667D01*
X0321191Y0114572D01*
X0321250Y0114475D01*
X0321305Y0114376D01*
X0321356Y0114275D01*
X0321404Y0114172D01*
X0321448Y0114067D01*
X0321489Y0113962D01*
X0321526Y0113854D01*
X0321559Y0113746D01*
X0321588Y0113636D01*
X0321614Y0113526D01*
X0321636Y0113414D01*
X0321653Y0113302D01*
X0321667Y0113190D01*
X0321677Y0113077D01*
X0321683Y0112963D01*
X0321685Y0112850D01*
X0321683Y0112737D01*
X0321677Y0112623D01*
X0321667Y0112510D01*
X0321653Y0112398D01*
X0321636Y0112286D01*
X0321614Y0112174D01*
X0321588Y0112064D01*
X0321559Y0111954D01*
X0321526Y0111846D01*
X0321489Y0111738D01*
X0321448Y0111633D01*
X0321404Y0111528D01*
X0321356Y0111425D01*
X0321305Y0111324D01*
X0321250Y0111225D01*
X0321191Y0111128D01*
X0321129Y0111033D01*
X0321064Y0110940D01*
X0320996Y0110849D01*
X0320925Y0110761D01*
X0320850Y0110675D01*
X0320773Y0110592D01*
X0320693Y0110512D01*
X0320610Y0110435D01*
X0320524Y0110360D01*
X0320436Y0110289D01*
X0320345Y0110221D01*
X0320252Y0110156D01*
X0320157Y0110094D01*
X0320060Y0110035D01*
X0319961Y0109980D01*
X0319860Y0109929D01*
X0319757Y0109881D01*
X0319652Y0109837D01*
X0319547Y0109796D01*
X0319439Y0109759D01*
X0319331Y0109726D01*
X0319221Y0109697D01*
X0319111Y0109671D01*
X0318999Y0109649D01*
X0318887Y0109632D01*
X0318775Y0109618D01*
X0318662Y0109608D01*
X0318548Y0109602D01*
X0318435Y0109600D01*
X0318322Y0109602D01*
X0318208Y0109608D01*
X0318095Y0109618D01*
X0317983Y0109632D01*
X0317871Y0109649D01*
X0317759Y0109671D01*
X0317649Y0109697D01*
X0317539Y0109726D01*
X0317431Y0109759D01*
X0317323Y0109796D01*
X0317218Y0109837D01*
X0317113Y0109881D01*
X0317010Y0109929D01*
X0316909Y0109980D01*
X0316810Y0110035D01*
X0316713Y0110094D01*
X0316618Y0110156D01*
X0316525Y0110221D01*
X0316434Y0110289D01*
X0316346Y0110360D01*
X0316260Y0110435D01*
X0316177Y0110512D01*
X0316097Y0110592D01*
X0316020Y0110675D01*
X0315945Y0110761D01*
X0315874Y0110849D01*
X0315806Y0110940D01*
X0315741Y0111033D01*
X0315679Y0111128D01*
X0315620Y0111225D01*
X0315565Y0111324D01*
X0315514Y0111425D01*
X0315466Y0111528D01*
X0315422Y0111633D01*
X0315381Y0111738D01*
X0315344Y0111846D01*
X0315311Y0111954D01*
X0315282Y0112064D01*
X0315256Y0112174D01*
X0315234Y0112286D01*
X0315217Y0112398D01*
X0315203Y0112510D01*
X0315193Y0112623D01*
X0315187Y0112737D01*
X0315185Y0112850D01*
X0309136Y0259850D02*
X0309138Y0260008D01*
X0309144Y0260166D01*
X0309154Y0260324D01*
X0309168Y0260482D01*
X0309186Y0260639D01*
X0309207Y0260796D01*
X0309233Y0260952D01*
X0309263Y0261108D01*
X0309296Y0261263D01*
X0309334Y0261416D01*
X0309375Y0261569D01*
X0309420Y0261721D01*
X0309469Y0261872D01*
X0309522Y0262021D01*
X0309578Y0262169D01*
X0309638Y0262315D01*
X0309702Y0262460D01*
X0309770Y0262603D01*
X0309841Y0262745D01*
X0309915Y0262885D01*
X0309993Y0263022D01*
X0310075Y0263158D01*
X0310159Y0263292D01*
X0310248Y0263423D01*
X0310339Y0263552D01*
X0310434Y0263679D01*
X0310531Y0263804D01*
X0310632Y0263926D01*
X0310736Y0264045D01*
X0310843Y0264162D01*
X0310953Y0264276D01*
X0311066Y0264387D01*
X0311181Y0264496D01*
X0311299Y0264601D01*
X0311420Y0264703D01*
X0311543Y0264803D01*
X0311669Y0264899D01*
X0311797Y0264992D01*
X0311927Y0265082D01*
X0312060Y0265168D01*
X0312195Y0265252D01*
X0312331Y0265331D01*
X0312470Y0265408D01*
X0312611Y0265480D01*
X0312753Y0265550D01*
X0312897Y0265615D01*
X0313043Y0265677D01*
X0313190Y0265735D01*
X0313339Y0265790D01*
X0313489Y0265841D01*
X0313640Y0265888D01*
X0313792Y0265931D01*
X0313945Y0265970D01*
X0314100Y0266006D01*
X0314255Y0266037D01*
X0314411Y0266065D01*
X0314567Y0266089D01*
X0314724Y0266109D01*
X0314882Y0266125D01*
X0315039Y0266137D01*
X0315198Y0266145D01*
X0315356Y0266149D01*
X0315514Y0266149D01*
X0315672Y0266145D01*
X0315831Y0266137D01*
X0315988Y0266125D01*
X0316146Y0266109D01*
X0316303Y0266089D01*
X0316459Y0266065D01*
X0316615Y0266037D01*
X0316770Y0266006D01*
X0316925Y0265970D01*
X0317078Y0265931D01*
X0317230Y0265888D01*
X0317381Y0265841D01*
X0317531Y0265790D01*
X0317680Y0265735D01*
X0317827Y0265677D01*
X0317973Y0265615D01*
X0318117Y0265550D01*
X0318259Y0265480D01*
X0318400Y0265408D01*
X0318539Y0265331D01*
X0318675Y0265252D01*
X0318810Y0265168D01*
X0318943Y0265082D01*
X0319073Y0264992D01*
X0319201Y0264899D01*
X0319327Y0264803D01*
X0319450Y0264703D01*
X0319571Y0264601D01*
X0319689Y0264496D01*
X0319804Y0264387D01*
X0319917Y0264276D01*
X0320027Y0264162D01*
X0320134Y0264045D01*
X0320238Y0263926D01*
X0320339Y0263804D01*
X0320436Y0263679D01*
X0320531Y0263552D01*
X0320622Y0263423D01*
X0320711Y0263292D01*
X0320795Y0263158D01*
X0320877Y0263022D01*
X0320955Y0262885D01*
X0321029Y0262745D01*
X0321100Y0262603D01*
X0321168Y0262460D01*
X0321232Y0262315D01*
X0321292Y0262169D01*
X0321348Y0262021D01*
X0321401Y0261872D01*
X0321450Y0261721D01*
X0321495Y0261569D01*
X0321536Y0261416D01*
X0321574Y0261263D01*
X0321607Y0261108D01*
X0321637Y0260952D01*
X0321663Y0260796D01*
X0321684Y0260639D01*
X0321702Y0260482D01*
X0321716Y0260324D01*
X0321726Y0260166D01*
X0321732Y0260008D01*
X0321734Y0259850D01*
X0321732Y0259692D01*
X0321726Y0259534D01*
X0321716Y0259376D01*
X0321702Y0259218D01*
X0321684Y0259061D01*
X0321663Y0258904D01*
X0321637Y0258748D01*
X0321607Y0258592D01*
X0321574Y0258437D01*
X0321536Y0258284D01*
X0321495Y0258131D01*
X0321450Y0257979D01*
X0321401Y0257828D01*
X0321348Y0257679D01*
X0321292Y0257531D01*
X0321232Y0257385D01*
X0321168Y0257240D01*
X0321100Y0257097D01*
X0321029Y0256955D01*
X0320955Y0256815D01*
X0320877Y0256678D01*
X0320795Y0256542D01*
X0320711Y0256408D01*
X0320622Y0256277D01*
X0320531Y0256148D01*
X0320436Y0256021D01*
X0320339Y0255896D01*
X0320238Y0255774D01*
X0320134Y0255655D01*
X0320027Y0255538D01*
X0319917Y0255424D01*
X0319804Y0255313D01*
X0319689Y0255204D01*
X0319571Y0255099D01*
X0319450Y0254997D01*
X0319327Y0254897D01*
X0319201Y0254801D01*
X0319073Y0254708D01*
X0318943Y0254618D01*
X0318810Y0254532D01*
X0318675Y0254448D01*
X0318539Y0254369D01*
X0318400Y0254292D01*
X0318259Y0254220D01*
X0318117Y0254150D01*
X0317973Y0254085D01*
X0317827Y0254023D01*
X0317680Y0253965D01*
X0317531Y0253910D01*
X0317381Y0253859D01*
X0317230Y0253812D01*
X0317078Y0253769D01*
X0316925Y0253730D01*
X0316770Y0253694D01*
X0316615Y0253663D01*
X0316459Y0253635D01*
X0316303Y0253611D01*
X0316146Y0253591D01*
X0315988Y0253575D01*
X0315831Y0253563D01*
X0315672Y0253555D01*
X0315514Y0253551D01*
X0315356Y0253551D01*
X0315198Y0253555D01*
X0315039Y0253563D01*
X0314882Y0253575D01*
X0314724Y0253591D01*
X0314567Y0253611D01*
X0314411Y0253635D01*
X0314255Y0253663D01*
X0314100Y0253694D01*
X0313945Y0253730D01*
X0313792Y0253769D01*
X0313640Y0253812D01*
X0313489Y0253859D01*
X0313339Y0253910D01*
X0313190Y0253965D01*
X0313043Y0254023D01*
X0312897Y0254085D01*
X0312753Y0254150D01*
X0312611Y0254220D01*
X0312470Y0254292D01*
X0312331Y0254369D01*
X0312195Y0254448D01*
X0312060Y0254532D01*
X0311927Y0254618D01*
X0311797Y0254708D01*
X0311669Y0254801D01*
X0311543Y0254897D01*
X0311420Y0254997D01*
X0311299Y0255099D01*
X0311181Y0255204D01*
X0311066Y0255313D01*
X0310953Y0255424D01*
X0310843Y0255538D01*
X0310736Y0255655D01*
X0310632Y0255774D01*
X0310531Y0255896D01*
X0310434Y0256021D01*
X0310339Y0256148D01*
X0310248Y0256277D01*
X0310159Y0256408D01*
X0310075Y0256542D01*
X0309993Y0256678D01*
X0309915Y0256815D01*
X0309841Y0256955D01*
X0309770Y0257097D01*
X0309702Y0257240D01*
X0309638Y0257385D01*
X0309578Y0257531D01*
X0309522Y0257679D01*
X0309469Y0257828D01*
X0309420Y0257979D01*
X0309375Y0258131D01*
X0309334Y0258284D01*
X0309296Y0258437D01*
X0309263Y0258592D01*
X0309233Y0258748D01*
X0309207Y0258904D01*
X0309186Y0259061D01*
X0309168Y0259218D01*
X0309154Y0259376D01*
X0309144Y0259534D01*
X0309138Y0259692D01*
X0309136Y0259850D01*
X0132136Y0259850D02*
X0132138Y0260008D01*
X0132144Y0260166D01*
X0132154Y0260324D01*
X0132168Y0260482D01*
X0132186Y0260639D01*
X0132207Y0260796D01*
X0132233Y0260952D01*
X0132263Y0261108D01*
X0132296Y0261263D01*
X0132334Y0261416D01*
X0132375Y0261569D01*
X0132420Y0261721D01*
X0132469Y0261872D01*
X0132522Y0262021D01*
X0132578Y0262169D01*
X0132638Y0262315D01*
X0132702Y0262460D01*
X0132770Y0262603D01*
X0132841Y0262745D01*
X0132915Y0262885D01*
X0132993Y0263022D01*
X0133075Y0263158D01*
X0133159Y0263292D01*
X0133248Y0263423D01*
X0133339Y0263552D01*
X0133434Y0263679D01*
X0133531Y0263804D01*
X0133632Y0263926D01*
X0133736Y0264045D01*
X0133843Y0264162D01*
X0133953Y0264276D01*
X0134066Y0264387D01*
X0134181Y0264496D01*
X0134299Y0264601D01*
X0134420Y0264703D01*
X0134543Y0264803D01*
X0134669Y0264899D01*
X0134797Y0264992D01*
X0134927Y0265082D01*
X0135060Y0265168D01*
X0135195Y0265252D01*
X0135331Y0265331D01*
X0135470Y0265408D01*
X0135611Y0265480D01*
X0135753Y0265550D01*
X0135897Y0265615D01*
X0136043Y0265677D01*
X0136190Y0265735D01*
X0136339Y0265790D01*
X0136489Y0265841D01*
X0136640Y0265888D01*
X0136792Y0265931D01*
X0136945Y0265970D01*
X0137100Y0266006D01*
X0137255Y0266037D01*
X0137411Y0266065D01*
X0137567Y0266089D01*
X0137724Y0266109D01*
X0137882Y0266125D01*
X0138039Y0266137D01*
X0138198Y0266145D01*
X0138356Y0266149D01*
X0138514Y0266149D01*
X0138672Y0266145D01*
X0138831Y0266137D01*
X0138988Y0266125D01*
X0139146Y0266109D01*
X0139303Y0266089D01*
X0139459Y0266065D01*
X0139615Y0266037D01*
X0139770Y0266006D01*
X0139925Y0265970D01*
X0140078Y0265931D01*
X0140230Y0265888D01*
X0140381Y0265841D01*
X0140531Y0265790D01*
X0140680Y0265735D01*
X0140827Y0265677D01*
X0140973Y0265615D01*
X0141117Y0265550D01*
X0141259Y0265480D01*
X0141400Y0265408D01*
X0141539Y0265331D01*
X0141675Y0265252D01*
X0141810Y0265168D01*
X0141943Y0265082D01*
X0142073Y0264992D01*
X0142201Y0264899D01*
X0142327Y0264803D01*
X0142450Y0264703D01*
X0142571Y0264601D01*
X0142689Y0264496D01*
X0142804Y0264387D01*
X0142917Y0264276D01*
X0143027Y0264162D01*
X0143134Y0264045D01*
X0143238Y0263926D01*
X0143339Y0263804D01*
X0143436Y0263679D01*
X0143531Y0263552D01*
X0143622Y0263423D01*
X0143711Y0263292D01*
X0143795Y0263158D01*
X0143877Y0263022D01*
X0143955Y0262885D01*
X0144029Y0262745D01*
X0144100Y0262603D01*
X0144168Y0262460D01*
X0144232Y0262315D01*
X0144292Y0262169D01*
X0144348Y0262021D01*
X0144401Y0261872D01*
X0144450Y0261721D01*
X0144495Y0261569D01*
X0144536Y0261416D01*
X0144574Y0261263D01*
X0144607Y0261108D01*
X0144637Y0260952D01*
X0144663Y0260796D01*
X0144684Y0260639D01*
X0144702Y0260482D01*
X0144716Y0260324D01*
X0144726Y0260166D01*
X0144732Y0260008D01*
X0144734Y0259850D01*
X0144732Y0259692D01*
X0144726Y0259534D01*
X0144716Y0259376D01*
X0144702Y0259218D01*
X0144684Y0259061D01*
X0144663Y0258904D01*
X0144637Y0258748D01*
X0144607Y0258592D01*
X0144574Y0258437D01*
X0144536Y0258284D01*
X0144495Y0258131D01*
X0144450Y0257979D01*
X0144401Y0257828D01*
X0144348Y0257679D01*
X0144292Y0257531D01*
X0144232Y0257385D01*
X0144168Y0257240D01*
X0144100Y0257097D01*
X0144029Y0256955D01*
X0143955Y0256815D01*
X0143877Y0256678D01*
X0143795Y0256542D01*
X0143711Y0256408D01*
X0143622Y0256277D01*
X0143531Y0256148D01*
X0143436Y0256021D01*
X0143339Y0255896D01*
X0143238Y0255774D01*
X0143134Y0255655D01*
X0143027Y0255538D01*
X0142917Y0255424D01*
X0142804Y0255313D01*
X0142689Y0255204D01*
X0142571Y0255099D01*
X0142450Y0254997D01*
X0142327Y0254897D01*
X0142201Y0254801D01*
X0142073Y0254708D01*
X0141943Y0254618D01*
X0141810Y0254532D01*
X0141675Y0254448D01*
X0141539Y0254369D01*
X0141400Y0254292D01*
X0141259Y0254220D01*
X0141117Y0254150D01*
X0140973Y0254085D01*
X0140827Y0254023D01*
X0140680Y0253965D01*
X0140531Y0253910D01*
X0140381Y0253859D01*
X0140230Y0253812D01*
X0140078Y0253769D01*
X0139925Y0253730D01*
X0139770Y0253694D01*
X0139615Y0253663D01*
X0139459Y0253635D01*
X0139303Y0253611D01*
X0139146Y0253591D01*
X0138988Y0253575D01*
X0138831Y0253563D01*
X0138672Y0253555D01*
X0138514Y0253551D01*
X0138356Y0253551D01*
X0138198Y0253555D01*
X0138039Y0253563D01*
X0137882Y0253575D01*
X0137724Y0253591D01*
X0137567Y0253611D01*
X0137411Y0253635D01*
X0137255Y0253663D01*
X0137100Y0253694D01*
X0136945Y0253730D01*
X0136792Y0253769D01*
X0136640Y0253812D01*
X0136489Y0253859D01*
X0136339Y0253910D01*
X0136190Y0253965D01*
X0136043Y0254023D01*
X0135897Y0254085D01*
X0135753Y0254150D01*
X0135611Y0254220D01*
X0135470Y0254292D01*
X0135331Y0254369D01*
X0135195Y0254448D01*
X0135060Y0254532D01*
X0134927Y0254618D01*
X0134797Y0254708D01*
X0134669Y0254801D01*
X0134543Y0254897D01*
X0134420Y0254997D01*
X0134299Y0255099D01*
X0134181Y0255204D01*
X0134066Y0255313D01*
X0133953Y0255424D01*
X0133843Y0255538D01*
X0133736Y0255655D01*
X0133632Y0255774D01*
X0133531Y0255896D01*
X0133434Y0256021D01*
X0133339Y0256148D01*
X0133248Y0256277D01*
X0133159Y0256408D01*
X0133075Y0256542D01*
X0132993Y0256678D01*
X0132915Y0256815D01*
X0132841Y0256955D01*
X0132770Y0257097D01*
X0132702Y0257240D01*
X0132638Y0257385D01*
X0132578Y0257531D01*
X0132522Y0257679D01*
X0132469Y0257828D01*
X0132420Y0257979D01*
X0132375Y0258131D01*
X0132334Y0258284D01*
X0132296Y0258437D01*
X0132263Y0258592D01*
X0132233Y0258748D01*
X0132207Y0258904D01*
X0132186Y0259061D01*
X0132168Y0259218D01*
X0132154Y0259376D01*
X0132144Y0259534D01*
X0132138Y0259692D01*
X0132136Y0259850D01*
X0008136Y0259850D02*
X0008138Y0260008D01*
X0008144Y0260166D01*
X0008154Y0260324D01*
X0008168Y0260482D01*
X0008186Y0260639D01*
X0008207Y0260796D01*
X0008233Y0260952D01*
X0008263Y0261108D01*
X0008296Y0261263D01*
X0008334Y0261416D01*
X0008375Y0261569D01*
X0008420Y0261721D01*
X0008469Y0261872D01*
X0008522Y0262021D01*
X0008578Y0262169D01*
X0008638Y0262315D01*
X0008702Y0262460D01*
X0008770Y0262603D01*
X0008841Y0262745D01*
X0008915Y0262885D01*
X0008993Y0263022D01*
X0009075Y0263158D01*
X0009159Y0263292D01*
X0009248Y0263423D01*
X0009339Y0263552D01*
X0009434Y0263679D01*
X0009531Y0263804D01*
X0009632Y0263926D01*
X0009736Y0264045D01*
X0009843Y0264162D01*
X0009953Y0264276D01*
X0010066Y0264387D01*
X0010181Y0264496D01*
X0010299Y0264601D01*
X0010420Y0264703D01*
X0010543Y0264803D01*
X0010669Y0264899D01*
X0010797Y0264992D01*
X0010927Y0265082D01*
X0011060Y0265168D01*
X0011195Y0265252D01*
X0011331Y0265331D01*
X0011470Y0265408D01*
X0011611Y0265480D01*
X0011753Y0265550D01*
X0011897Y0265615D01*
X0012043Y0265677D01*
X0012190Y0265735D01*
X0012339Y0265790D01*
X0012489Y0265841D01*
X0012640Y0265888D01*
X0012792Y0265931D01*
X0012945Y0265970D01*
X0013100Y0266006D01*
X0013255Y0266037D01*
X0013411Y0266065D01*
X0013567Y0266089D01*
X0013724Y0266109D01*
X0013882Y0266125D01*
X0014039Y0266137D01*
X0014198Y0266145D01*
X0014356Y0266149D01*
X0014514Y0266149D01*
X0014672Y0266145D01*
X0014831Y0266137D01*
X0014988Y0266125D01*
X0015146Y0266109D01*
X0015303Y0266089D01*
X0015459Y0266065D01*
X0015615Y0266037D01*
X0015770Y0266006D01*
X0015925Y0265970D01*
X0016078Y0265931D01*
X0016230Y0265888D01*
X0016381Y0265841D01*
X0016531Y0265790D01*
X0016680Y0265735D01*
X0016827Y0265677D01*
X0016973Y0265615D01*
X0017117Y0265550D01*
X0017259Y0265480D01*
X0017400Y0265408D01*
X0017539Y0265331D01*
X0017675Y0265252D01*
X0017810Y0265168D01*
X0017943Y0265082D01*
X0018073Y0264992D01*
X0018201Y0264899D01*
X0018327Y0264803D01*
X0018450Y0264703D01*
X0018571Y0264601D01*
X0018689Y0264496D01*
X0018804Y0264387D01*
X0018917Y0264276D01*
X0019027Y0264162D01*
X0019134Y0264045D01*
X0019238Y0263926D01*
X0019339Y0263804D01*
X0019436Y0263679D01*
X0019531Y0263552D01*
X0019622Y0263423D01*
X0019711Y0263292D01*
X0019795Y0263158D01*
X0019877Y0263022D01*
X0019955Y0262885D01*
X0020029Y0262745D01*
X0020100Y0262603D01*
X0020168Y0262460D01*
X0020232Y0262315D01*
X0020292Y0262169D01*
X0020348Y0262021D01*
X0020401Y0261872D01*
X0020450Y0261721D01*
X0020495Y0261569D01*
X0020536Y0261416D01*
X0020574Y0261263D01*
X0020607Y0261108D01*
X0020637Y0260952D01*
X0020663Y0260796D01*
X0020684Y0260639D01*
X0020702Y0260482D01*
X0020716Y0260324D01*
X0020726Y0260166D01*
X0020732Y0260008D01*
X0020734Y0259850D01*
X0020732Y0259692D01*
X0020726Y0259534D01*
X0020716Y0259376D01*
X0020702Y0259218D01*
X0020684Y0259061D01*
X0020663Y0258904D01*
X0020637Y0258748D01*
X0020607Y0258592D01*
X0020574Y0258437D01*
X0020536Y0258284D01*
X0020495Y0258131D01*
X0020450Y0257979D01*
X0020401Y0257828D01*
X0020348Y0257679D01*
X0020292Y0257531D01*
X0020232Y0257385D01*
X0020168Y0257240D01*
X0020100Y0257097D01*
X0020029Y0256955D01*
X0019955Y0256815D01*
X0019877Y0256678D01*
X0019795Y0256542D01*
X0019711Y0256408D01*
X0019622Y0256277D01*
X0019531Y0256148D01*
X0019436Y0256021D01*
X0019339Y0255896D01*
X0019238Y0255774D01*
X0019134Y0255655D01*
X0019027Y0255538D01*
X0018917Y0255424D01*
X0018804Y0255313D01*
X0018689Y0255204D01*
X0018571Y0255099D01*
X0018450Y0254997D01*
X0018327Y0254897D01*
X0018201Y0254801D01*
X0018073Y0254708D01*
X0017943Y0254618D01*
X0017810Y0254532D01*
X0017675Y0254448D01*
X0017539Y0254369D01*
X0017400Y0254292D01*
X0017259Y0254220D01*
X0017117Y0254150D01*
X0016973Y0254085D01*
X0016827Y0254023D01*
X0016680Y0253965D01*
X0016531Y0253910D01*
X0016381Y0253859D01*
X0016230Y0253812D01*
X0016078Y0253769D01*
X0015925Y0253730D01*
X0015770Y0253694D01*
X0015615Y0253663D01*
X0015459Y0253635D01*
X0015303Y0253611D01*
X0015146Y0253591D01*
X0014988Y0253575D01*
X0014831Y0253563D01*
X0014672Y0253555D01*
X0014514Y0253551D01*
X0014356Y0253551D01*
X0014198Y0253555D01*
X0014039Y0253563D01*
X0013882Y0253575D01*
X0013724Y0253591D01*
X0013567Y0253611D01*
X0013411Y0253635D01*
X0013255Y0253663D01*
X0013100Y0253694D01*
X0012945Y0253730D01*
X0012792Y0253769D01*
X0012640Y0253812D01*
X0012489Y0253859D01*
X0012339Y0253910D01*
X0012190Y0253965D01*
X0012043Y0254023D01*
X0011897Y0254085D01*
X0011753Y0254150D01*
X0011611Y0254220D01*
X0011470Y0254292D01*
X0011331Y0254369D01*
X0011195Y0254448D01*
X0011060Y0254532D01*
X0010927Y0254618D01*
X0010797Y0254708D01*
X0010669Y0254801D01*
X0010543Y0254897D01*
X0010420Y0254997D01*
X0010299Y0255099D01*
X0010181Y0255204D01*
X0010066Y0255313D01*
X0009953Y0255424D01*
X0009843Y0255538D01*
X0009736Y0255655D01*
X0009632Y0255774D01*
X0009531Y0255896D01*
X0009434Y0256021D01*
X0009339Y0256148D01*
X0009248Y0256277D01*
X0009159Y0256408D01*
X0009075Y0256542D01*
X0008993Y0256678D01*
X0008915Y0256815D01*
X0008841Y0256955D01*
X0008770Y0257097D01*
X0008702Y0257240D01*
X0008638Y0257385D01*
X0008578Y0257531D01*
X0008522Y0257679D01*
X0008469Y0257828D01*
X0008420Y0257979D01*
X0008375Y0258131D01*
X0008334Y0258284D01*
X0008296Y0258437D01*
X0008263Y0258592D01*
X0008233Y0258748D01*
X0008207Y0258904D01*
X0008186Y0259061D01*
X0008168Y0259218D01*
X0008154Y0259376D01*
X0008144Y0259534D01*
X0008138Y0259692D01*
X0008136Y0259850D01*
D11*
X0142435Y0108850D03*
X0168435Y0052850D03*
D12*
X0178435Y0052850D03*
X0188435Y0052850D03*
X0198435Y0052850D03*
X0208435Y0052850D03*
X0218435Y0052850D03*
X0228435Y0052850D03*
X0238435Y0052850D03*
X0248435Y0052850D03*
X0258435Y0052850D03*
X0268435Y0052850D03*
X0278435Y0052850D03*
X0288435Y0052850D03*
X0298435Y0052850D03*
X0308435Y0052850D03*
X0308435Y0112850D03*
X0298435Y0112850D03*
X0288435Y0112850D03*
X0278435Y0112850D03*
X0268435Y0112850D03*
X0258435Y0112850D03*
X0248435Y0112850D03*
X0238435Y0112850D03*
X0228435Y0112850D03*
X0218435Y0112850D03*
X0208435Y0112850D03*
X0198435Y0112850D03*
X0188435Y0112850D03*
X0178435Y0112850D03*
X0168435Y0112850D03*
X0142435Y0098850D03*
X0132435Y0098850D03*
X0122435Y0098850D03*
X0112435Y0098850D03*
X0112435Y0108850D03*
X0122435Y0108850D03*
X0132435Y0108850D03*
D13*
X0165385Y0123425D02*
X0166015Y0122795D01*
X0163927Y0122795D01*
X0162452Y0124270D01*
X0162452Y0126358D01*
X0163927Y0127833D01*
X0166015Y0127833D01*
X0167490Y0126358D01*
X0167490Y0124270D01*
X0166015Y0122795D01*
X0165623Y0123740D01*
X0164319Y0123740D01*
X0163397Y0124662D01*
X0163397Y0125966D01*
X0164319Y0126888D01*
X0165623Y0126888D01*
X0166545Y0125966D01*
X0166545Y0124662D01*
X0165623Y0123740D01*
X0165232Y0124685D01*
X0164710Y0124685D01*
X0164342Y0125053D01*
X0164342Y0125575D01*
X0164710Y0125943D01*
X0165232Y0125943D01*
X0165600Y0125575D01*
X0165600Y0125053D01*
X0165232Y0124685D01*
D14*
X0157900Y0132386D03*
X0061435Y0054850D03*
X0014435Y0059850D03*
D15*
X0093695Y0058850D03*
X0101176Y0058850D03*
X0102176Y0087850D03*
X0094695Y0087850D03*
X0140695Y0122850D03*
X0148176Y0122850D03*
D16*
X0109435Y0135350D03*
X0109435Y0143850D03*
X0061435Y0064850D03*
X0024435Y0059850D03*
D17*
X0133435Y0069350D03*
X0141435Y0072850D03*
X0133435Y0076350D03*
D18*
X0133435Y0078850D01*
X0135435Y0080850D01*
X0152435Y0080850D01*
X0159435Y0073850D01*
X0222435Y0073850D01*
X0227435Y0068850D01*
X0219435Y0068850D02*
X0216435Y0071850D01*
X0173435Y0071850D01*
X0170435Y0068850D01*
X0165435Y0068850D01*
X0169748Y0066850D02*
X0171264Y0066850D01*
X0172435Y0068022D01*
X0174264Y0069850D01*
X0200511Y0069850D01*
X0200351Y0069463D01*
X0200351Y0068236D01*
X0200821Y0067103D01*
X0201435Y0066488D01*
X0201435Y0063022D01*
X0202607Y0061850D01*
X0203607Y0060850D01*
X0201716Y0060850D01*
X0201716Y0061503D01*
X0201217Y0062709D01*
X0200294Y0063632D01*
X0199088Y0064131D01*
X0197783Y0064131D01*
X0196577Y0063632D01*
X0195654Y0062709D01*
X0195154Y0061503D01*
X0195154Y0060197D01*
X0195654Y0058991D01*
X0196577Y0058068D01*
X0197783Y0057569D01*
X0198888Y0057569D01*
X0199205Y0057252D01*
X0198920Y0057297D01*
X0198920Y0053334D01*
X0202883Y0053334D01*
X0202794Y0053896D01*
X0202577Y0054565D01*
X0202257Y0055192D01*
X0201844Y0055761D01*
X0201346Y0056258D01*
X0200777Y0056672D01*
X0200428Y0056850D01*
X0206416Y0056850D01*
X0205904Y0056638D01*
X0204647Y0055381D01*
X0203967Y0053739D01*
X0203967Y0051961D01*
X0204187Y0051430D01*
X0193691Y0040934D01*
X0192822Y0040934D01*
X0191688Y0040465D01*
X0190821Y0039597D01*
X0190351Y0038463D01*
X0190351Y0037236D01*
X0190821Y0036103D01*
X0191688Y0035235D01*
X0192822Y0034766D01*
X0194049Y0034766D01*
X0195182Y0035235D01*
X0196050Y0036103D01*
X0196520Y0037236D01*
X0196520Y0038106D01*
X0207015Y0048602D01*
X0207547Y0048381D01*
X0209324Y0048381D01*
X0210967Y0049062D01*
X0212224Y0050319D01*
X0212904Y0051961D01*
X0212904Y0053739D01*
X0212224Y0055381D01*
X0210967Y0056638D01*
X0210455Y0056850D01*
X0216416Y0056850D01*
X0215904Y0056638D01*
X0214647Y0055381D01*
X0213967Y0053739D01*
X0213967Y0051961D01*
X0214647Y0050319D01*
X0215904Y0049062D01*
X0217547Y0048381D01*
X0219324Y0048381D01*
X0220967Y0049062D01*
X0222224Y0050319D01*
X0222904Y0051961D01*
X0222904Y0053739D01*
X0222224Y0055381D01*
X0220967Y0056638D01*
X0220455Y0056850D01*
X0226416Y0056850D01*
X0225904Y0056638D01*
X0224647Y0055381D01*
X0223967Y0053739D01*
X0223967Y0051961D01*
X0224647Y0050319D01*
X0225904Y0049062D01*
X0227547Y0048381D01*
X0229324Y0048381D01*
X0230967Y0049062D01*
X0232224Y0050319D01*
X0232904Y0051961D01*
X0232904Y0053739D01*
X0232224Y0055381D01*
X0230967Y0056638D01*
X0230455Y0056850D01*
X0234607Y0056850D01*
X0235361Y0056095D01*
X0234647Y0055381D01*
X0233967Y0053739D01*
X0233967Y0051961D01*
X0234647Y0050319D01*
X0235904Y0049062D01*
X0237547Y0048381D01*
X0239324Y0048381D01*
X0240967Y0049062D01*
X0241435Y0049531D01*
X0241435Y0042062D01*
X0241324Y0042174D01*
X0239450Y0042950D01*
X0237421Y0042950D01*
X0235546Y0042174D01*
X0234112Y0040739D01*
X0233435Y0039106D01*
X0232759Y0040739D01*
X0231324Y0042174D01*
X0229450Y0042950D01*
X0227421Y0042950D01*
X0225546Y0042174D01*
X0224112Y0040739D01*
X0223435Y0039106D01*
X0222759Y0040739D01*
X0221324Y0042174D01*
X0219450Y0042950D01*
X0217421Y0042950D01*
X0215546Y0042174D01*
X0214112Y0040739D01*
X0213335Y0038864D01*
X0213335Y0036836D01*
X0214112Y0034961D01*
X0215546Y0033526D01*
X0215972Y0033350D01*
X0167478Y0033350D01*
X0167935Y0034455D01*
X0167935Y0036245D01*
X0167250Y0037899D01*
X0166222Y0038927D01*
X0166708Y0038680D01*
X0167382Y0038461D01*
X0168081Y0038350D01*
X0168135Y0038350D01*
X0168135Y0042550D01*
X0163935Y0042550D01*
X0163935Y0042496D01*
X0164046Y0041796D01*
X0164265Y0041123D01*
X0164587Y0040491D01*
X0165003Y0039918D01*
X0165504Y0039418D01*
X0165676Y0039293D01*
X0164330Y0039850D01*
X0162540Y0039850D01*
X0161275Y0039326D01*
X0162250Y0040301D01*
X0162935Y0041955D01*
X0162935Y0043745D01*
X0162250Y0045399D01*
X0160984Y0046665D01*
X0159330Y0047350D01*
X0157540Y0047350D01*
X0155886Y0046665D01*
X0154620Y0045399D01*
X0154186Y0044350D01*
X0151685Y0044350D01*
X0151685Y0044678D01*
X0150514Y0045850D01*
X0144357Y0045850D01*
X0143185Y0044678D01*
X0143185Y0044350D01*
X0142188Y0044350D01*
X0149388Y0051550D01*
X0149388Y0051550D01*
X0156604Y0058766D01*
X0157049Y0058766D01*
X0158182Y0059235D01*
X0159050Y0060103D01*
X0159520Y0061236D01*
X0159520Y0062463D01*
X0159050Y0063597D01*
X0158182Y0064465D01*
X0157049Y0064934D01*
X0155822Y0064934D01*
X0154688Y0064465D01*
X0153821Y0063597D01*
X0153435Y0062667D01*
X0153050Y0063597D01*
X0152182Y0064465D01*
X0151049Y0064934D01*
X0149822Y0064934D01*
X0148688Y0064465D01*
X0148074Y0063850D01*
X0141607Y0063850D01*
X0136607Y0058850D01*
X0136435Y0058850D01*
X0136435Y0064928D01*
X0135814Y0065550D01*
X0146388Y0065550D01*
X0147604Y0066766D01*
X0148049Y0066766D01*
X0149182Y0067235D01*
X0150050Y0068103D01*
X0150520Y0069236D01*
X0150520Y0070463D01*
X0150050Y0071597D01*
X0149182Y0072465D01*
X0148049Y0072934D01*
X0146822Y0072934D01*
X0145688Y0072465D01*
X0145185Y0071962D01*
X0145185Y0072350D01*
X0141935Y0072350D01*
X0141935Y0073350D01*
X0140935Y0073350D01*
X0140935Y0072350D01*
X0137685Y0072350D01*
X0137685Y0070653D01*
X0137788Y0070271D01*
X0137857Y0070150D01*
X0137185Y0070150D01*
X0137185Y0071971D01*
X0136307Y0072850D01*
X0137185Y0073729D01*
X0137185Y0078850D01*
X0151607Y0078850D01*
X0157435Y0073022D01*
X0158607Y0071850D01*
X0161718Y0071850D01*
X0161409Y0071541D01*
X0160685Y0069795D01*
X0160685Y0067905D01*
X0161409Y0066159D01*
X0162745Y0064823D01*
X0164491Y0064100D01*
X0166380Y0064100D01*
X0168126Y0064823D01*
X0169462Y0066159D01*
X0169748Y0066850D01*
X0169727Y0066798D02*
X0201126Y0066798D01*
X0201435Y0065799D02*
X0169102Y0065799D01*
X0168072Y0064801D02*
X0201435Y0064801D01*
X0201435Y0063802D02*
X0199882Y0063802D01*
X0201122Y0062804D02*
X0201653Y0062804D01*
X0201591Y0061805D02*
X0202652Y0061805D01*
X0203435Y0063850D02*
X0203435Y0068850D01*
X0200351Y0068795D02*
X0173209Y0068795D01*
X0172435Y0068022D02*
X0172435Y0068022D01*
X0172210Y0067796D02*
X0200533Y0067796D01*
X0200488Y0069793D02*
X0174207Y0069793D01*
X0183435Y0076850D02*
X0232435Y0076850D01*
X0243435Y0065850D01*
X0243435Y0042850D01*
X0248435Y0037850D01*
X0253435Y0042850D02*
X0258435Y0037850D01*
X0263435Y0042850D02*
X0263435Y0059850D01*
X0236435Y0086850D01*
X0177435Y0086850D01*
X0174435Y0083850D01*
X0156435Y0083850D01*
X0153435Y0086850D01*
X0129435Y0086850D01*
X0122435Y0093850D01*
X0122435Y0098850D01*
X0125660Y0095755D02*
X0129211Y0095755D01*
X0128647Y0096319D02*
X0129904Y0095062D01*
X0131547Y0094381D01*
X0133324Y0094381D01*
X0133855Y0094602D01*
X0137435Y0091022D01*
X0138607Y0089850D01*
X0160785Y0089850D01*
X0160686Y0089225D01*
X0165060Y0089225D01*
X0165060Y0088475D01*
X0160686Y0088475D01*
X0160802Y0087738D01*
X0161033Y0087027D01*
X0161373Y0086360D01*
X0161744Y0085850D01*
X0157264Y0085850D01*
X0155435Y0087678D01*
X0154264Y0088850D01*
X0131797Y0088850D01*
X0131182Y0089465D01*
X0130049Y0089934D01*
X0129180Y0089934D01*
X0124435Y0094678D01*
X0124435Y0094842D01*
X0124967Y0095062D01*
X0126224Y0096319D01*
X0126904Y0097961D01*
X0126904Y0099739D01*
X0126224Y0101381D01*
X0124967Y0102638D01*
X0123324Y0103318D01*
X0121547Y0103318D01*
X0119904Y0102638D01*
X0119435Y0102169D01*
X0119435Y0103022D01*
X0121015Y0104602D01*
X0121547Y0104381D01*
X0123324Y0104381D01*
X0124967Y0105062D01*
X0126224Y0106319D01*
X0126904Y0107961D01*
X0126904Y0109739D01*
X0126224Y0111381D01*
X0124967Y0112638D01*
X0123324Y0113318D01*
X0121547Y0113318D01*
X0119904Y0112638D01*
X0118647Y0111381D01*
X0117967Y0109739D01*
X0117967Y0107961D01*
X0118187Y0107430D01*
X0115435Y0104678D01*
X0115435Y0102169D01*
X0114967Y0102638D01*
X0113324Y0103318D01*
X0111547Y0103318D01*
X0109904Y0102638D01*
X0109435Y0102169D01*
X0109435Y0103022D01*
X0111015Y0104602D01*
X0111547Y0104381D01*
X0113324Y0104381D01*
X0114967Y0105062D01*
X0116224Y0106319D01*
X0116904Y0107961D01*
X0116904Y0109739D01*
X0116224Y0111381D01*
X0114967Y0112638D01*
X0113324Y0113318D01*
X0111547Y0113318D01*
X0109904Y0112638D01*
X0108647Y0111381D01*
X0107967Y0109739D01*
X0107967Y0107961D01*
X0108187Y0107430D01*
X0105435Y0104678D01*
X0105435Y0093022D01*
X0106607Y0091850D01*
X0108607Y0089850D01*
X0106235Y0089850D01*
X0106235Y0091424D01*
X0105356Y0092303D01*
X0098995Y0092303D01*
X0098435Y0091743D01*
X0098175Y0092003D01*
X0097833Y0092201D01*
X0097452Y0092303D01*
X0095195Y0092303D01*
X0095195Y0088350D01*
X0094195Y0088350D01*
X0094195Y0087350D01*
X0090636Y0087350D01*
X0090636Y0084700D01*
X0090738Y0084318D01*
X0090936Y0083976D01*
X0091215Y0083697D01*
X0091557Y0083499D01*
X0091939Y0083397D01*
X0094195Y0083397D01*
X0094195Y0087350D01*
X0095195Y0087350D01*
X0095195Y0083397D01*
X0097452Y0083397D01*
X0097833Y0083499D01*
X0098175Y0083697D01*
X0098435Y0083957D01*
X0098995Y0083397D01*
X0105356Y0083397D01*
X0105408Y0083449D01*
X0105408Y0082366D01*
X0107597Y0082366D01*
X0107597Y0082366D01*
X0107597Y0078504D01*
X0108156Y0078504D01*
X0108156Y0070150D01*
X0104888Y0070150D01*
X0104888Y0071290D01*
X0104328Y0071850D01*
X0104588Y0072110D01*
X0104786Y0072452D01*
X0104888Y0072834D01*
X0104888Y0075090D01*
X0100935Y0075090D01*
X0100935Y0076090D01*
X0099935Y0076090D01*
X0099935Y0075090D01*
X0095983Y0075090D01*
X0095983Y0072834D01*
X0096085Y0072452D01*
X0096282Y0072110D01*
X0096542Y0071850D01*
X0095983Y0071290D01*
X0095983Y0070665D01*
X0095923Y0070725D01*
X0094789Y0071194D01*
X0093562Y0071194D01*
X0092428Y0070725D01*
X0092114Y0070410D01*
X0078743Y0070410D01*
X0065506Y0057173D01*
X0065377Y0057484D01*
X0064069Y0058792D01*
X0062360Y0059500D01*
X0060510Y0059500D01*
X0058801Y0058792D01*
X0057493Y0057484D01*
X0056785Y0055775D01*
X0056785Y0053925D01*
X0057493Y0052216D01*
X0058801Y0050908D01*
X0060510Y0050200D01*
X0062360Y0050200D01*
X0064069Y0050908D01*
X0065377Y0052216D01*
X0065516Y0052550D01*
X0067388Y0052550D01*
X0080648Y0065810D01*
X0091395Y0065810D01*
X0091395Y0063303D01*
X0090515Y0063303D01*
X0089716Y0062504D01*
X0089716Y0064252D01*
X0088838Y0065131D01*
X0084033Y0065131D01*
X0083154Y0064252D01*
X0083154Y0059448D01*
X0083735Y0058866D01*
X0083735Y0045834D01*
X0083154Y0045252D01*
X0083154Y0040448D01*
X0084033Y0039569D01*
X0088838Y0039569D01*
X0089716Y0040448D01*
X0089716Y0045252D01*
X0089135Y0045834D01*
X0089135Y0058866D01*
X0089636Y0059367D01*
X0089636Y0055276D01*
X0090515Y0054397D01*
X0096876Y0054397D01*
X0097435Y0054957D01*
X0097695Y0054697D01*
X0098037Y0054499D01*
X0098419Y0054397D01*
X0100676Y0054397D01*
X0100676Y0058350D01*
X0101676Y0058350D01*
X0101676Y0059350D01*
X0105235Y0059350D01*
X0105235Y0062000D01*
X0105143Y0062342D01*
X0105408Y0062077D01*
X0105408Y0056351D01*
X0106286Y0055472D01*
X0108156Y0055472D01*
X0108156Y0055301D01*
X0109435Y0054022D01*
X0110607Y0052850D01*
X0144183Y0052850D01*
X0135483Y0044150D01*
X0135483Y0044150D01*
X0128483Y0037150D01*
X0066388Y0037150D01*
X0058388Y0045150D01*
X0053616Y0045150D01*
X0053881Y0045414D01*
X0054535Y0046995D01*
X0054535Y0048705D01*
X0053881Y0050286D01*
X0052671Y0051495D01*
X0051091Y0052150D01*
X0043780Y0052150D01*
X0042200Y0051495D01*
X0040990Y0050286D01*
X0040435Y0048947D01*
X0039881Y0050286D01*
X0038671Y0051495D01*
X0037091Y0052150D01*
X0029780Y0052150D01*
X0028200Y0051495D01*
X0026990Y0050286D01*
X0026335Y0048705D01*
X0026335Y0046995D01*
X0026990Y0045414D01*
X0028200Y0044205D01*
X0029780Y0043550D01*
X0034483Y0043550D01*
X0035883Y0042150D01*
X0029780Y0042150D01*
X0028200Y0041495D01*
X0026990Y0040286D01*
X0026335Y0038705D01*
X0026335Y0036995D01*
X0026843Y0035769D01*
X0022235Y0040796D01*
X0022235Y0041401D01*
X0021047Y0044268D01*
X0019435Y0045880D01*
X0019435Y0071850D01*
X0022435Y0074850D01*
X0059435Y0074850D01*
X0074435Y0089850D01*
X0083435Y0089850D01*
X0084135Y0090550D01*
X0084135Y0083131D01*
X0084033Y0083131D01*
X0083154Y0082252D01*
X0083154Y0077448D01*
X0084033Y0076569D01*
X0088838Y0076569D01*
X0089716Y0077448D01*
X0089716Y0082252D01*
X0088838Y0083131D01*
X0088735Y0083131D01*
X0088735Y0133126D01*
X0088757Y0133117D01*
X0089247Y0133019D01*
X0090030Y0133019D01*
X0090030Y0138350D01*
X0091030Y0138350D01*
X0091030Y0133019D01*
X0091813Y0133019D01*
X0092302Y0133117D01*
X0092763Y0133308D01*
X0092967Y0133444D01*
X0092967Y0131273D01*
X0093345Y0130360D01*
X0094044Y0129661D01*
X0094957Y0129283D01*
X0097914Y0129283D01*
X0098827Y0129661D01*
X0099526Y0130360D01*
X0099727Y0130846D01*
X0107363Y0130846D01*
X0107509Y0130700D01*
X0111361Y0130700D01*
X0114085Y0133424D01*
X0114085Y0137276D01*
X0111761Y0139600D01*
X0114085Y0141924D01*
X0114085Y0143550D01*
X0109735Y0143550D01*
X0109735Y0144150D01*
X0114085Y0144150D01*
X0114085Y0145776D01*
X0112311Y0147550D01*
X0157801Y0147550D01*
X0157351Y0146463D01*
X0157351Y0145594D01*
X0154607Y0142850D01*
X0154235Y0142850D01*
X0153844Y0143796D01*
X0152381Y0145258D01*
X0150470Y0146050D01*
X0148401Y0146050D01*
X0146490Y0145258D01*
X0145027Y0143796D01*
X0144421Y0142333D01*
X0144254Y0142846D01*
X0143883Y0143575D01*
X0143402Y0144238D01*
X0142823Y0144816D01*
X0142161Y0145297D01*
X0141431Y0145669D01*
X0140653Y0145922D01*
X0139935Y0146036D01*
X0139935Y0141350D01*
X0138935Y0141350D01*
X0138935Y0146036D01*
X0138218Y0145922D01*
X0137439Y0145669D01*
X0136710Y0145297D01*
X0136048Y0144816D01*
X0135469Y0144238D01*
X0134988Y0143575D01*
X0134616Y0142846D01*
X0134450Y0142333D01*
X0133844Y0143796D01*
X0132381Y0145258D01*
X0130470Y0146050D01*
X0128401Y0146050D01*
X0126490Y0145258D01*
X0125027Y0143796D01*
X0124435Y0142367D01*
X0123844Y0143796D01*
X0122381Y0145258D01*
X0120470Y0146050D01*
X0118401Y0146050D01*
X0116490Y0145258D01*
X0115027Y0143796D01*
X0114235Y0141884D01*
X0114235Y0139816D01*
X0115027Y0137904D01*
X0116490Y0136442D01*
X0118401Y0135650D01*
X0118407Y0135650D01*
X0117435Y0134678D01*
X0116670Y0133913D01*
X0115498Y0132741D01*
X0115498Y0127212D01*
X0114884Y0126597D01*
X0114414Y0125463D01*
X0114414Y0124236D01*
X0114884Y0123103D01*
X0115751Y0122235D01*
X0116885Y0121766D01*
X0118112Y0121766D01*
X0119245Y0122235D01*
X0120113Y0123103D01*
X0120583Y0124236D01*
X0120583Y0125463D01*
X0120113Y0126597D01*
X0119498Y0127212D01*
X0119498Y0131085D01*
X0120264Y0131850D01*
X0153250Y0131850D01*
X0153250Y0131461D01*
X0153378Y0131150D01*
X0149483Y0131150D01*
X0147483Y0129150D01*
X0146135Y0127803D01*
X0146135Y0127303D01*
X0144995Y0127303D01*
X0144435Y0126743D01*
X0144175Y0127003D01*
X0143833Y0127201D01*
X0143452Y0127303D01*
X0141195Y0127303D01*
X0141195Y0123350D01*
X0140195Y0123350D01*
X0140195Y0122350D01*
X0136636Y0122350D01*
X0136636Y0119934D01*
X0135822Y0119934D01*
X0134688Y0119465D01*
X0133821Y0118597D01*
X0133351Y0117463D01*
X0133351Y0116236D01*
X0133511Y0115850D01*
X0129245Y0115850D01*
X0128420Y0116648D01*
X0128420Y0117463D01*
X0127950Y0118597D01*
X0127082Y0119465D01*
X0125949Y0119934D01*
X0124722Y0119934D01*
X0123588Y0119465D01*
X0122721Y0118597D01*
X0122251Y0117463D01*
X0122251Y0116236D01*
X0122721Y0115103D01*
X0123588Y0114235D01*
X0124722Y0113766D01*
X0125646Y0113766D01*
X0127033Y0112424D01*
X0127607Y0111850D01*
X0127626Y0111850D01*
X0127640Y0111837D01*
X0128452Y0111850D01*
X0129116Y0111850D01*
X0128647Y0111381D01*
X0127967Y0109739D01*
X0127967Y0107961D01*
X0128647Y0106319D01*
X0129904Y0105062D01*
X0131547Y0104381D01*
X0133324Y0104381D01*
X0134967Y0105062D01*
X0135435Y0105531D01*
X0135435Y0104022D01*
X0136435Y0103022D01*
X0137607Y0101850D01*
X0139116Y0101850D01*
X0138647Y0101381D01*
X0137967Y0099739D01*
X0137967Y0097961D01*
X0138647Y0096319D01*
X0139904Y0095062D01*
X0141547Y0094381D01*
X0143324Y0094381D01*
X0144967Y0095062D01*
X0146224Y0096319D01*
X0146904Y0097961D01*
X0146904Y0099739D01*
X0146224Y0101381D01*
X0145755Y0101850D01*
X0155618Y0101850D01*
X0155822Y0101766D01*
X0157049Y0101766D01*
X0158182Y0102235D01*
X0159050Y0103103D01*
X0159520Y0104236D01*
X0159520Y0105463D01*
X0159050Y0106597D01*
X0158182Y0107465D01*
X0157049Y0107934D01*
X0155822Y0107934D01*
X0154688Y0107465D01*
X0153821Y0106597D01*
X0153511Y0105850D01*
X0146904Y0105850D01*
X0146904Y0108366D01*
X0142920Y0108366D01*
X0142920Y0109334D01*
X0146904Y0109334D01*
X0146904Y0112016D01*
X0146802Y0112397D01*
X0146604Y0112740D01*
X0146325Y0113019D01*
X0145983Y0113216D01*
X0145601Y0113318D01*
X0142920Y0113318D01*
X0142920Y0109334D01*
X0141951Y0109334D01*
X0141951Y0113318D01*
X0139269Y0113318D01*
X0138888Y0113216D01*
X0138546Y0113019D01*
X0138320Y0112793D01*
X0138264Y0112850D01*
X0138264Y0112850D01*
X0137260Y0113853D01*
X0138182Y0114235D01*
X0139050Y0115103D01*
X0139360Y0115850D01*
X0154718Y0115850D01*
X0154409Y0115541D01*
X0153685Y0113795D01*
X0153685Y0111905D01*
X0154409Y0110159D01*
X0155745Y0108823D01*
X0157491Y0108100D01*
X0159380Y0108100D01*
X0161126Y0108823D01*
X0162462Y0110159D01*
X0163185Y0111905D01*
X0163185Y0113795D01*
X0162462Y0115541D01*
X0162153Y0115850D01*
X0165116Y0115850D01*
X0164647Y0115381D01*
X0163967Y0113739D01*
X0163967Y0111961D01*
X0164647Y0110319D01*
X0165904Y0109062D01*
X0167547Y0108381D01*
X0169324Y0108381D01*
X0170967Y0109062D01*
X0172224Y0110319D01*
X0172904Y0111961D01*
X0172904Y0113739D01*
X0172224Y0115381D01*
X0170967Y0116638D01*
X0170320Y0116906D01*
X0174264Y0120850D01*
X0186074Y0120850D01*
X0186688Y0120235D01*
X0187822Y0119766D01*
X0189049Y0119766D01*
X0190182Y0120235D01*
X0191050Y0121103D01*
X0191435Y0122033D01*
X0191435Y0116169D01*
X0190967Y0116638D01*
X0189324Y0117318D01*
X0187547Y0117318D01*
X0185904Y0116638D01*
X0184647Y0115381D01*
X0183967Y0113739D01*
X0183967Y0111961D01*
X0184647Y0110319D01*
X0185904Y0109062D01*
X0187547Y0108381D01*
X0189324Y0108381D01*
X0190967Y0109062D01*
X0191435Y0109531D01*
X0191435Y0108678D01*
X0189607Y0106850D01*
X0180797Y0106850D01*
X0180182Y0107465D01*
X0179049Y0107934D01*
X0177822Y0107934D01*
X0176688Y0107465D01*
X0175821Y0106597D01*
X0175351Y0105463D01*
X0175351Y0104236D01*
X0175821Y0103103D01*
X0176688Y0102235D01*
X0177822Y0101766D01*
X0179049Y0101766D01*
X0180182Y0102235D01*
X0180797Y0102850D01*
X0181435Y0102850D01*
X0181435Y0096212D01*
X0180821Y0095597D01*
X0180351Y0094463D01*
X0180351Y0093236D01*
X0180821Y0092103D01*
X0181074Y0091850D01*
X0175264Y0091850D01*
X0172435Y0094678D01*
X0172435Y0094678D01*
X0171264Y0095850D01*
X0170185Y0095850D01*
X0170185Y0102721D01*
X0169307Y0103600D01*
X0161564Y0103600D01*
X0160685Y0102721D01*
X0160685Y0094979D01*
X0160711Y0094954D01*
X0160435Y0094678D01*
X0159607Y0093850D01*
X0140264Y0093850D01*
X0136684Y0097430D01*
X0136904Y0097961D01*
X0136904Y0099739D01*
X0136224Y0101381D01*
X0134967Y0102638D01*
X0133324Y0103318D01*
X0131547Y0103318D01*
X0129904Y0102638D01*
X0128647Y0101381D01*
X0127967Y0099739D01*
X0127967Y0097961D01*
X0128647Y0096319D01*
X0128467Y0096753D02*
X0126404Y0096753D01*
X0126817Y0097752D02*
X0128054Y0097752D01*
X0127967Y0098750D02*
X0126904Y0098750D01*
X0126900Y0099749D02*
X0127971Y0099749D01*
X0128385Y0100747D02*
X0126486Y0100747D01*
X0125859Y0101746D02*
X0129012Y0101746D01*
X0130160Y0102744D02*
X0124710Y0102744D01*
X0124193Y0104741D02*
X0130678Y0104741D01*
X0129226Y0105740D02*
X0125645Y0105740D01*
X0126397Y0106738D02*
X0128473Y0106738D01*
X0128060Y0107737D02*
X0126811Y0107737D01*
X0126904Y0108735D02*
X0127967Y0108735D01*
X0127967Y0109734D02*
X0126904Y0109734D01*
X0126492Y0110732D02*
X0128378Y0110732D01*
X0128997Y0111731D02*
X0125874Y0111731D01*
X0126717Y0112729D02*
X0124746Y0112729D01*
X0125686Y0113728D02*
X0088735Y0113728D01*
X0088735Y0114726D02*
X0123097Y0114726D01*
X0122463Y0115725D02*
X0088735Y0115725D01*
X0088735Y0116723D02*
X0122251Y0116723D01*
X0122358Y0117722D02*
X0088735Y0117722D01*
X0088735Y0118720D02*
X0122844Y0118720D01*
X0124202Y0119719D02*
X0088735Y0119719D01*
X0088735Y0120718D02*
X0136636Y0120718D01*
X0136636Y0121716D02*
X0088735Y0121716D01*
X0088735Y0122715D02*
X0115272Y0122715D01*
X0114631Y0123713D02*
X0088735Y0123713D01*
X0088735Y0124712D02*
X0114414Y0124712D01*
X0114516Y0125710D02*
X0088735Y0125710D01*
X0088735Y0126709D02*
X0114995Y0126709D01*
X0115498Y0127707D02*
X0088735Y0127707D01*
X0088735Y0128706D02*
X0115498Y0128706D01*
X0115498Y0129704D02*
X0098870Y0129704D01*
X0099668Y0130703D02*
X0107507Y0130703D01*
X0106931Y0132846D02*
X0097439Y0132846D01*
X0096435Y0132850D01*
X0092967Y0132700D02*
X0088735Y0132700D01*
X0088735Y0131701D02*
X0092967Y0131701D01*
X0093203Y0130703D02*
X0088735Y0130703D01*
X0088735Y0129704D02*
X0094001Y0129704D01*
X0091030Y0133698D02*
X0090030Y0133698D01*
X0090030Y0134697D02*
X0091030Y0134697D01*
X0091030Y0135695D02*
X0090030Y0135695D01*
X0090030Y0136694D02*
X0091030Y0136694D01*
X0091030Y0137692D02*
X0090030Y0137692D01*
X0090030Y0139350D02*
X0090030Y0144681D01*
X0089519Y0144681D01*
X0092388Y0147550D01*
X0106559Y0147550D01*
X0104785Y0145776D01*
X0104785Y0144251D01*
X0104574Y0144392D01*
X0104113Y0144583D01*
X0103624Y0144681D01*
X0102841Y0144681D01*
X0102841Y0139350D01*
X0105908Y0139350D01*
X0105908Y0140801D01*
X0107109Y0139600D01*
X0105859Y0138350D01*
X0102841Y0138350D01*
X0102841Y0139350D01*
X0101841Y0139350D01*
X0101841Y0144681D01*
X0101058Y0144681D01*
X0100568Y0144583D01*
X0100107Y0144392D01*
X0099692Y0144115D01*
X0099340Y0143762D01*
X0099285Y0143681D01*
X0093586Y0143681D01*
X0093531Y0143762D01*
X0093178Y0144115D01*
X0092763Y0144392D01*
X0092302Y0144583D01*
X0091813Y0144681D01*
X0091030Y0144681D01*
X0091030Y0139350D01*
X0090030Y0139350D01*
X0090030Y0139689D02*
X0091030Y0139689D01*
X0091030Y0140688D02*
X0090030Y0140688D01*
X0090030Y0141686D02*
X0091030Y0141686D01*
X0091030Y0142685D02*
X0090030Y0142685D01*
X0090030Y0143683D02*
X0091030Y0143683D01*
X0089520Y0144682D02*
X0104785Y0144682D01*
X0104785Y0145680D02*
X0090518Y0145680D01*
X0091517Y0146679D02*
X0105688Y0146679D01*
X0102841Y0143683D02*
X0101841Y0143683D01*
X0101841Y0142685D02*
X0102841Y0142685D01*
X0102841Y0141686D02*
X0101841Y0141686D01*
X0101841Y0140688D02*
X0102841Y0140688D01*
X0102841Y0139689D02*
X0101841Y0139689D01*
X0102841Y0138691D02*
X0106200Y0138691D01*
X0105908Y0139689D02*
X0107020Y0139689D01*
X0106022Y0140688D02*
X0105908Y0140688D01*
X0109735Y0143683D02*
X0114981Y0143683D01*
X0114567Y0142685D02*
X0114085Y0142685D01*
X0114235Y0141686D02*
X0113848Y0141686D01*
X0114235Y0140688D02*
X0112849Y0140688D01*
X0111851Y0139689D02*
X0114288Y0139689D01*
X0114701Y0138691D02*
X0112671Y0138691D01*
X0113669Y0137692D02*
X0115239Y0137692D01*
X0116238Y0136694D02*
X0114085Y0136694D01*
X0114085Y0135695D02*
X0118292Y0135695D01*
X0117454Y0134697D02*
X0114085Y0134697D01*
X0114085Y0133698D02*
X0116455Y0133698D01*
X0115498Y0132700D02*
X0113361Y0132700D01*
X0112363Y0131701D02*
X0115498Y0131701D01*
X0115498Y0130703D02*
X0111364Y0130703D01*
X0106931Y0132846D02*
X0109435Y0135350D01*
X0117498Y0131913D02*
X0117498Y0124850D01*
X0120366Y0123713D02*
X0136636Y0123713D01*
X0136636Y0123350D02*
X0136636Y0126000D01*
X0136738Y0126382D01*
X0136936Y0126724D01*
X0137215Y0127003D01*
X0137557Y0127201D01*
X0137939Y0127303D01*
X0140195Y0127303D01*
X0140195Y0123350D01*
X0136636Y0123350D01*
X0136636Y0124712D02*
X0120583Y0124712D01*
X0120480Y0125710D02*
X0136636Y0125710D01*
X0136927Y0126709D02*
X0120002Y0126709D01*
X0119498Y0127707D02*
X0146135Y0127707D01*
X0147038Y0128706D02*
X0119498Y0128706D01*
X0119498Y0129704D02*
X0148037Y0129704D01*
X0149035Y0130703D02*
X0119498Y0130703D01*
X0120115Y0131701D02*
X0153250Y0131701D01*
X0152435Y0133850D02*
X0157435Y0138850D01*
X0170435Y0138850D01*
X0173716Y0138691D02*
X0179154Y0138691D01*
X0179154Y0139689D02*
X0173716Y0139689D01*
X0173716Y0140688D02*
X0179154Y0140688D01*
X0179154Y0141252D02*
X0179154Y0136448D01*
X0180033Y0135569D01*
X0184435Y0135569D01*
X0184435Y0135022D01*
X0185607Y0133850D01*
X0187607Y0131850D01*
X0178360Y0131850D01*
X0178050Y0132597D01*
X0177182Y0133465D01*
X0176049Y0133934D01*
X0174822Y0133934D01*
X0173688Y0133465D01*
X0172821Y0132597D01*
X0172351Y0131463D01*
X0172351Y0130236D01*
X0172821Y0129103D01*
X0173688Y0128235D01*
X0174822Y0127766D01*
X0176049Y0127766D01*
X0176252Y0127850D01*
X0180074Y0127850D01*
X0179821Y0127597D01*
X0179351Y0126463D01*
X0179351Y0125236D01*
X0179511Y0124850D01*
X0172607Y0124850D01*
X0171435Y0123678D01*
X0167607Y0119850D01*
X0152235Y0119850D01*
X0152235Y0126424D01*
X0152109Y0126550D01*
X0155388Y0126550D01*
X0156691Y0127853D01*
X0156975Y0127736D01*
X0158825Y0127736D01*
X0160534Y0128443D01*
X0161842Y0129752D01*
X0162550Y0131461D01*
X0162550Y0133310D01*
X0161842Y0135020D01*
X0160534Y0136328D01*
X0159273Y0136850D01*
X0167154Y0136850D01*
X0167154Y0136448D01*
X0168033Y0135569D01*
X0172838Y0135569D01*
X0173716Y0136448D01*
X0173716Y0141252D01*
X0172838Y0142131D01*
X0168033Y0142131D01*
X0167154Y0141252D01*
X0167154Y0140850D01*
X0158264Y0140850D01*
X0160180Y0142766D01*
X0161049Y0142766D01*
X0162182Y0143235D01*
X0163050Y0144103D01*
X0163520Y0145236D01*
X0163520Y0146463D01*
X0163070Y0147550D01*
X0171388Y0147550D01*
X0176388Y0152550D01*
X0193089Y0152550D01*
X0197389Y0156850D01*
X0202619Y0156850D01*
X0202822Y0156766D01*
X0203534Y0156766D01*
X0211302Y0148211D01*
X0211302Y0148155D01*
X0211853Y0147604D01*
X0212378Y0147026D01*
X0212434Y0147023D01*
X0212473Y0146984D01*
X0213253Y0146984D01*
X0214033Y0146946D01*
X0214074Y0146984D01*
X0215573Y0146984D01*
X0215573Y0146000D01*
X0216452Y0145122D01*
X0222419Y0145122D01*
X0222752Y0145455D01*
X0223357Y0144850D01*
X0222752Y0144245D01*
X0222419Y0144578D01*
X0216452Y0144578D01*
X0215573Y0143700D01*
X0215573Y0137733D01*
X0216452Y0136854D01*
X0222419Y0136854D01*
X0223298Y0137733D01*
X0223298Y0137909D01*
X0223357Y0137850D01*
X0229514Y0137850D01*
X0230685Y0139022D01*
X0230685Y0143678D01*
X0229514Y0144850D01*
X0223357Y0144850D01*
X0229514Y0144850D01*
X0230685Y0146022D01*
X0230685Y0147318D01*
X0231072Y0147550D01*
X0266135Y0147550D01*
X0266135Y0145526D01*
X0265490Y0145258D01*
X0264027Y0143796D01*
X0263435Y0142367D01*
X0262844Y0143796D01*
X0261381Y0145258D01*
X0259470Y0146050D01*
X0257401Y0146050D01*
X0255490Y0145258D01*
X0254027Y0143796D01*
X0253435Y0142367D01*
X0252844Y0143796D01*
X0251381Y0145258D01*
X0249470Y0146050D01*
X0247401Y0146050D01*
X0245490Y0145258D01*
X0244027Y0143796D01*
X0243421Y0142333D01*
X0243254Y0142846D01*
X0242883Y0143575D01*
X0242402Y0144238D01*
X0241823Y0144816D01*
X0241161Y0145297D01*
X0240431Y0145669D01*
X0239653Y0145922D01*
X0238935Y0146036D01*
X0238935Y0141350D01*
X0237935Y0141350D01*
X0237935Y0140350D01*
X0233250Y0140350D01*
X0233363Y0139632D01*
X0233616Y0138854D01*
X0233988Y0138125D01*
X0234469Y0137462D01*
X0235048Y0136884D01*
X0235710Y0136403D01*
X0236439Y0136031D01*
X0237218Y0135778D01*
X0237935Y0135664D01*
X0237935Y0140350D01*
X0238935Y0140350D01*
X0238935Y0135664D01*
X0239653Y0135778D01*
X0240431Y0136031D01*
X0241161Y0136403D01*
X0241823Y0136884D01*
X0242402Y0137462D01*
X0242883Y0138125D01*
X0243254Y0138854D01*
X0243421Y0139367D01*
X0244027Y0137904D01*
X0245490Y0136442D01*
X0247401Y0135650D01*
X0249470Y0135650D01*
X0251381Y0136442D01*
X0252844Y0137904D01*
X0253435Y0139333D01*
X0254027Y0137904D01*
X0255490Y0136442D01*
X0257401Y0135650D01*
X0259470Y0135650D01*
X0261381Y0136442D01*
X0262844Y0137904D01*
X0263435Y0139333D01*
X0264027Y0137904D01*
X0265490Y0136442D01*
X0267401Y0135650D01*
X0269470Y0135650D01*
X0271381Y0136442D01*
X0272844Y0137904D01*
X0273635Y0139816D01*
X0273635Y0141884D01*
X0272844Y0143796D01*
X0271381Y0145258D01*
X0270735Y0145526D01*
X0270735Y0147550D01*
X0279388Y0147550D01*
X0288688Y0156850D01*
X0293619Y0156850D01*
X0293822Y0156766D01*
X0294691Y0156766D01*
X0302435Y0149022D01*
X0303607Y0147850D01*
X0306573Y0147850D01*
X0306573Y0147000D01*
X0307452Y0146122D01*
X0313419Y0146122D01*
X0313752Y0146455D01*
X0314357Y0145850D01*
X0313752Y0145245D01*
X0313419Y0145578D01*
X0307452Y0145578D01*
X0306573Y0144700D01*
X0306573Y0138733D01*
X0307452Y0137854D01*
X0313419Y0137854D01*
X0314298Y0138733D01*
X0314298Y0138909D01*
X0314357Y0138850D01*
X0320514Y0138850D01*
X0321685Y0140022D01*
X0321685Y0144678D01*
X0320514Y0145850D01*
X0314357Y0145850D01*
X0320514Y0145850D01*
X0321685Y0147022D01*
X0321685Y0151678D01*
X0320514Y0152850D01*
X0319435Y0152850D01*
X0319435Y0153569D01*
X0319838Y0153569D01*
X0320716Y0154448D01*
X0320716Y0156850D01*
X0321935Y0156850D01*
X0321935Y0126067D01*
X0321126Y0126877D01*
X0319380Y0127600D01*
X0317491Y0127600D01*
X0315745Y0126877D01*
X0314409Y0125541D01*
X0313685Y0123795D01*
X0313685Y0121905D01*
X0314409Y0120159D01*
X0315745Y0118823D01*
X0317491Y0118100D01*
X0319380Y0118100D01*
X0321126Y0118823D01*
X0321935Y0119633D01*
X0321935Y0116067D01*
X0321126Y0116877D01*
X0319380Y0117600D01*
X0317491Y0117600D01*
X0315745Y0116877D01*
X0314409Y0115541D01*
X0313685Y0113795D01*
X0313685Y0111905D01*
X0314409Y0110159D01*
X0315745Y0108823D01*
X0317491Y0108100D01*
X0319380Y0108100D01*
X0321126Y0108823D01*
X0321935Y0109633D01*
X0321935Y0056067D01*
X0321126Y0056877D01*
X0319380Y0057600D01*
X0317491Y0057600D01*
X0315745Y0056877D01*
X0314409Y0055541D01*
X0313685Y0053795D01*
X0313685Y0051905D01*
X0314409Y0050159D01*
X0315745Y0048823D01*
X0317491Y0048100D01*
X0319380Y0048100D01*
X0321126Y0048823D01*
X0321935Y0049633D01*
X0321935Y0044380D01*
X0319853Y0046462D01*
X0316987Y0047649D01*
X0313884Y0047649D01*
X0311017Y0046462D01*
X0308824Y0044268D01*
X0307636Y0041401D01*
X0307636Y0038299D01*
X0308824Y0035432D01*
X0310906Y0033350D01*
X0290898Y0033350D01*
X0291324Y0033526D01*
X0292759Y0034961D01*
X0293535Y0036836D01*
X0293535Y0038864D01*
X0293291Y0039453D01*
X0294388Y0040550D01*
X0295351Y0041513D01*
X0295351Y0041236D01*
X0295821Y0040103D01*
X0296688Y0039235D01*
X0297822Y0038766D01*
X0299049Y0038766D01*
X0300182Y0039235D01*
X0301050Y0040103D01*
X0301520Y0041236D01*
X0301520Y0042463D01*
X0301050Y0043597D01*
X0300435Y0044212D01*
X0300435Y0048842D01*
X0300967Y0049062D01*
X0302224Y0050319D01*
X0302904Y0051961D01*
X0302904Y0053739D01*
X0302224Y0055381D01*
X0300967Y0056638D01*
X0299324Y0057318D01*
X0297547Y0057318D01*
X0295904Y0056638D01*
X0295735Y0056469D01*
X0295735Y0096788D01*
X0296050Y0097103D01*
X0296520Y0098236D01*
X0296520Y0098682D01*
X0299388Y0101550D01*
X0300735Y0102897D01*
X0300735Y0108966D01*
X0300967Y0109062D01*
X0302224Y0110319D01*
X0302904Y0111961D01*
X0302904Y0113739D01*
X0302224Y0115381D01*
X0300967Y0116638D01*
X0299324Y0117318D01*
X0297547Y0117318D01*
X0295904Y0116638D01*
X0294647Y0115381D01*
X0293967Y0113739D01*
X0293967Y0111961D01*
X0294647Y0110319D01*
X0295904Y0109062D01*
X0296135Y0108966D01*
X0296135Y0104803D01*
X0293267Y0101934D01*
X0292822Y0101934D01*
X0291688Y0101465D01*
X0290821Y0100597D01*
X0290351Y0099463D01*
X0290351Y0098236D01*
X0290821Y0097103D01*
X0291135Y0096788D01*
X0291135Y0056469D01*
X0290967Y0056638D01*
X0290435Y0056858D01*
X0290435Y0069678D01*
X0289520Y0070594D01*
X0289520Y0071463D01*
X0289050Y0072597D01*
X0288182Y0073465D01*
X0287049Y0073934D01*
X0285822Y0073934D01*
X0284688Y0073465D01*
X0283821Y0072597D01*
X0283351Y0071463D01*
X0283351Y0070236D01*
X0283821Y0069103D01*
X0284688Y0068235D01*
X0285822Y0067766D01*
X0286435Y0067766D01*
X0286435Y0056858D01*
X0285904Y0056638D01*
X0284647Y0055381D01*
X0283967Y0053739D01*
X0283967Y0051961D01*
X0284480Y0050723D01*
X0277607Y0043850D01*
X0277607Y0043850D01*
X0276435Y0042678D01*
X0276435Y0042542D01*
X0275546Y0042174D01*
X0275435Y0042062D01*
X0275435Y0049531D01*
X0275904Y0049062D01*
X0277547Y0048381D01*
X0279324Y0048381D01*
X0280967Y0049062D01*
X0282224Y0050319D01*
X0282904Y0051961D01*
X0282904Y0053739D01*
X0282224Y0055381D01*
X0280967Y0056638D01*
X0279324Y0057318D01*
X0277732Y0057318D01*
X0279264Y0058850D01*
X0280435Y0060022D01*
X0280435Y0108842D01*
X0280967Y0109062D01*
X0282224Y0110319D01*
X0282904Y0111961D01*
X0282904Y0113739D01*
X0282224Y0115381D01*
X0280967Y0116638D01*
X0279324Y0117318D01*
X0277547Y0117318D01*
X0275904Y0116638D01*
X0274647Y0115381D01*
X0273967Y0113739D01*
X0273967Y0111961D01*
X0274647Y0110319D01*
X0275904Y0109062D01*
X0276435Y0108842D01*
X0276435Y0062667D01*
X0276050Y0063597D01*
X0275182Y0064465D01*
X0274049Y0064934D01*
X0273180Y0064934D01*
X0257348Y0080766D01*
X0258049Y0080766D01*
X0259182Y0081235D01*
X0260050Y0082103D01*
X0260520Y0083236D01*
X0260520Y0084463D01*
X0260050Y0085597D01*
X0259182Y0086465D01*
X0258049Y0086934D01*
X0257180Y0086934D01*
X0252013Y0092101D01*
X0252822Y0091766D01*
X0254049Y0091766D01*
X0255182Y0092235D01*
X0256050Y0093103D01*
X0256520Y0094236D01*
X0256520Y0095463D01*
X0256050Y0096597D01*
X0255435Y0097212D01*
X0255435Y0109531D01*
X0255904Y0109062D01*
X0257547Y0108381D01*
X0259324Y0108381D01*
X0260967Y0109062D01*
X0261435Y0109531D01*
X0261435Y0097212D01*
X0260821Y0096597D01*
X0260351Y0095463D01*
X0260351Y0094236D01*
X0260821Y0093103D01*
X0261688Y0092235D01*
X0262822Y0091766D01*
X0264049Y0091766D01*
X0265182Y0092235D01*
X0266050Y0093103D01*
X0266520Y0094236D01*
X0266520Y0095463D01*
X0266050Y0096597D01*
X0265435Y0097212D01*
X0265435Y0109531D01*
X0265904Y0109062D01*
X0267547Y0108381D01*
X0269324Y0108381D01*
X0270967Y0109062D01*
X0272224Y0110319D01*
X0272904Y0111961D01*
X0272904Y0113739D01*
X0272224Y0115381D01*
X0270967Y0116638D01*
X0269324Y0117318D01*
X0267547Y0117318D01*
X0265904Y0116638D01*
X0265435Y0116169D01*
X0265435Y0122022D01*
X0266532Y0123118D01*
X0267421Y0122750D01*
X0269450Y0122750D01*
X0271324Y0123526D01*
X0272759Y0124961D01*
X0273461Y0126656D01*
X0273461Y0126656D01*
X0273709Y0125892D01*
X0274073Y0125177D01*
X0274545Y0124528D01*
X0275113Y0123960D01*
X0275762Y0123488D01*
X0276478Y0123124D01*
X0277241Y0122876D01*
X0277935Y0122766D01*
X0277935Y0127350D01*
X0278935Y0127350D01*
X0278935Y0122766D01*
X0279630Y0122876D01*
X0280393Y0123124D01*
X0281108Y0123488D01*
X0281758Y0123960D01*
X0282325Y0124528D01*
X0282797Y0125177D01*
X0283162Y0125892D01*
X0283410Y0126656D01*
X0284112Y0124961D01*
X0285546Y0123526D01*
X0287421Y0122750D01*
X0289450Y0122750D01*
X0291324Y0123526D01*
X0292759Y0124961D01*
X0293535Y0126836D01*
X0293535Y0128864D01*
X0292759Y0130739D01*
X0291324Y0132174D01*
X0289450Y0132950D01*
X0287421Y0132950D01*
X0285546Y0132174D01*
X0284112Y0130739D01*
X0283410Y0129044D01*
X0283410Y0129044D01*
X0283162Y0129808D01*
X0282797Y0130523D01*
X0282325Y0131172D01*
X0281758Y0131740D01*
X0281108Y0132212D01*
X0280393Y0132576D01*
X0279630Y0132824D01*
X0278935Y0132934D01*
X0278935Y0128350D01*
X0277935Y0128350D01*
X0277935Y0132934D01*
X0277241Y0132824D01*
X0276478Y0132576D01*
X0275762Y0132212D01*
X0275113Y0131740D01*
X0274545Y0131172D01*
X0274073Y0130523D01*
X0273709Y0129808D01*
X0273461Y0129044D01*
X0272759Y0130739D01*
X0271324Y0132174D01*
X0269450Y0132950D01*
X0267421Y0132950D01*
X0265546Y0132174D01*
X0264112Y0130739D01*
X0263435Y0129106D01*
X0262759Y0130739D01*
X0261324Y0132174D01*
X0259450Y0132950D01*
X0257421Y0132950D01*
X0255546Y0132174D01*
X0254112Y0130739D01*
X0253435Y0129106D01*
X0252759Y0130739D01*
X0251324Y0132174D01*
X0249450Y0132950D01*
X0247421Y0132950D01*
X0245546Y0132174D01*
X0244112Y0130739D01*
X0243435Y0129106D01*
X0242759Y0130739D01*
X0241324Y0132174D01*
X0239450Y0132950D01*
X0237421Y0132950D01*
X0235546Y0132174D01*
X0234112Y0130739D01*
X0233435Y0129106D01*
X0232759Y0130739D01*
X0231324Y0132174D01*
X0229450Y0132950D01*
X0227421Y0132950D01*
X0225546Y0132174D01*
X0224112Y0130739D01*
X0223435Y0129106D01*
X0222759Y0130739D01*
X0221324Y0132174D01*
X0219450Y0132950D01*
X0217421Y0132950D01*
X0215546Y0132174D01*
X0214112Y0130739D01*
X0213335Y0128864D01*
X0213335Y0128778D01*
X0208435Y0133678D01*
X0207264Y0134850D01*
X0190264Y0134850D01*
X0188435Y0136678D01*
X0188435Y0147678D01*
X0186435Y0149678D01*
X0185716Y0150397D01*
X0185716Y0151252D01*
X0184838Y0152131D01*
X0180033Y0152131D01*
X0179154Y0151252D01*
X0179154Y0146448D01*
X0180033Y0145569D01*
X0184435Y0145569D01*
X0184435Y0142131D01*
X0180033Y0142131D01*
X0179154Y0141252D01*
X0179588Y0141686D02*
X0173283Y0141686D01*
X0173716Y0137692D02*
X0179154Y0137692D01*
X0179154Y0136694D02*
X0173716Y0136694D01*
X0172964Y0135695D02*
X0179907Y0135695D01*
X0177948Y0132700D02*
X0186757Y0132700D01*
X0185759Y0133698D02*
X0176619Y0133698D01*
X0174252Y0133698D02*
X0162389Y0133698D01*
X0162550Y0132700D02*
X0172923Y0132700D01*
X0172450Y0131701D02*
X0162550Y0131701D01*
X0162236Y0130703D02*
X0172351Y0130703D01*
X0172572Y0129704D02*
X0167157Y0129704D01*
X0166897Y0129964D02*
X0163045Y0129964D01*
X0161895Y0128815D01*
X0164971Y0125739D01*
X0168047Y0128815D01*
X0166897Y0129964D01*
X0167938Y0128706D02*
X0173218Y0128706D01*
X0175435Y0130850D02*
X0176435Y0129850D01*
X0195435Y0129850D01*
X0203435Y0121850D01*
X0203435Y0105850D01*
X0198435Y0100850D01*
X0198435Y0094850D01*
X0203435Y0094850D02*
X0203435Y0095850D01*
X0213435Y0105850D01*
X0213435Y0125850D01*
X0206435Y0132850D01*
X0189435Y0132850D01*
X0186435Y0135850D01*
X0186435Y0146850D01*
X0184435Y0148850D01*
X0182435Y0148850D01*
X0179154Y0148676D02*
X0172514Y0148676D01*
X0173512Y0149674D02*
X0179154Y0149674D01*
X0179154Y0150673D02*
X0174511Y0150673D01*
X0175509Y0151671D02*
X0179573Y0151671D01*
X0179154Y0147677D02*
X0171515Y0147677D01*
X0169483Y0152150D02*
X0118935Y0152150D01*
X0118935Y0155471D01*
X0118057Y0156350D01*
X0110814Y0156350D01*
X0109935Y0155471D01*
X0109935Y0155350D01*
X0096935Y0155350D01*
X0096935Y0155471D01*
X0096057Y0156350D01*
X0093252Y0156350D01*
X0093049Y0156434D01*
X0091822Y0156434D01*
X0091618Y0156350D01*
X0088814Y0156350D01*
X0087935Y0155471D01*
X0087935Y0151229D01*
X0088748Y0150416D01*
X0087860Y0149527D01*
X0087435Y0189850D01*
X0087935Y0189850D01*
X0087935Y0189600D01*
X0092185Y0189600D01*
X0092185Y0189100D01*
X0087935Y0189100D01*
X0087935Y0187653D01*
X0088038Y0187271D01*
X0088235Y0186929D01*
X0088514Y0186650D01*
X0088856Y0186452D01*
X0089238Y0186350D01*
X0092185Y0186350D01*
X0092185Y0189100D01*
X0092685Y0189100D01*
X0092685Y0186350D01*
X0095633Y0186350D01*
X0096014Y0186452D01*
X0096356Y0186650D01*
X0096636Y0186929D01*
X0096833Y0187271D01*
X0096935Y0187653D01*
X0096935Y0189100D01*
X0092685Y0189100D01*
X0092685Y0189600D01*
X0096935Y0189600D01*
X0096935Y0189850D01*
X0109935Y0189850D01*
X0109935Y0189600D01*
X0114185Y0189600D01*
X0114185Y0189100D01*
X0109935Y0189100D01*
X0109935Y0187653D01*
X0110038Y0187271D01*
X0110235Y0186929D01*
X0110514Y0186650D01*
X0110856Y0186452D01*
X0111238Y0186350D01*
X0114185Y0186350D01*
X0114185Y0189100D01*
X0114685Y0189100D01*
X0114685Y0186350D01*
X0117633Y0186350D01*
X0118014Y0186452D01*
X0118356Y0186650D01*
X0118636Y0186929D01*
X0118833Y0187271D01*
X0118935Y0187653D01*
X0118935Y0189100D01*
X0114685Y0189100D01*
X0114685Y0189600D01*
X0118935Y0189600D01*
X0118935Y0189850D01*
X0131435Y0189850D01*
X0131435Y0169678D01*
X0130899Y0170214D01*
X0131185Y0170905D01*
X0131185Y0172795D01*
X0130462Y0174541D01*
X0129126Y0175877D01*
X0127380Y0176600D01*
X0125491Y0176600D01*
X0123745Y0175877D01*
X0123435Y0175567D01*
X0123435Y0177100D01*
X0126060Y0177100D01*
X0126060Y0181475D01*
X0126810Y0181475D01*
X0126810Y0177100D01*
X0129883Y0177100D01*
X0130264Y0177202D01*
X0130606Y0177400D01*
X0130886Y0177679D01*
X0131083Y0178021D01*
X0131185Y0178403D01*
X0131185Y0181475D01*
X0126810Y0181475D01*
X0126810Y0182225D01*
X0126060Y0182225D01*
X0126060Y0186600D01*
X0122988Y0186600D01*
X0122606Y0186498D01*
X0122264Y0186300D01*
X0121985Y0186021D01*
X0121788Y0185679D01*
X0121685Y0185297D01*
X0121685Y0182428D01*
X0120264Y0183850D01*
X0119297Y0183850D01*
X0118682Y0184465D01*
X0117549Y0184934D01*
X0116322Y0184934D01*
X0115188Y0184465D01*
X0114321Y0183597D01*
X0113851Y0182463D01*
X0113851Y0181236D01*
X0114321Y0180103D01*
X0115188Y0179235D01*
X0116322Y0178766D01*
X0117549Y0178766D01*
X0118682Y0179235D01*
X0118952Y0179505D01*
X0119435Y0179022D01*
X0119435Y0166178D01*
X0117191Y0163934D01*
X0116322Y0163934D01*
X0115188Y0163465D01*
X0114321Y0162597D01*
X0113851Y0161463D01*
X0113851Y0160236D01*
X0114321Y0159103D01*
X0115188Y0158235D01*
X0116322Y0157766D01*
X0117549Y0157766D01*
X0118682Y0158235D01*
X0119550Y0159103D01*
X0120020Y0160236D01*
X0120020Y0161106D01*
X0121685Y0162772D01*
X0121685Y0160905D01*
X0122409Y0159159D01*
X0123745Y0157823D01*
X0125491Y0157100D01*
X0127380Y0157100D01*
X0128991Y0157767D01*
X0128821Y0157597D01*
X0128351Y0156463D01*
X0128351Y0155236D01*
X0128821Y0154103D01*
X0129688Y0153235D01*
X0130822Y0152766D01*
X0132049Y0152766D01*
X0133182Y0153235D01*
X0134050Y0154103D01*
X0134520Y0155236D01*
X0134520Y0156463D01*
X0134360Y0156850D01*
X0174183Y0156850D01*
X0173135Y0155803D01*
X0173135Y0155803D01*
X0169483Y0152150D01*
X0170003Y0152670D02*
X0118935Y0152670D01*
X0118935Y0153668D02*
X0129255Y0153668D01*
X0128587Y0154667D02*
X0118935Y0154667D01*
X0118741Y0155665D02*
X0128351Y0155665D01*
X0128434Y0156664D02*
X0087785Y0156664D01*
X0087774Y0157662D02*
X0124133Y0157662D01*
X0122907Y0158661D02*
X0119108Y0158661D01*
X0119781Y0159659D02*
X0122201Y0159659D01*
X0121788Y0160658D02*
X0120020Y0160658D01*
X0120570Y0161656D02*
X0121685Y0161656D01*
X0121685Y0162655D02*
X0121569Y0162655D01*
X0121435Y0165350D02*
X0116935Y0160850D01*
X0114090Y0159659D02*
X0087753Y0159659D01*
X0087764Y0158661D02*
X0114763Y0158661D01*
X0113851Y0160658D02*
X0087743Y0160658D01*
X0087732Y0161656D02*
X0113931Y0161656D01*
X0114379Y0162655D02*
X0087722Y0162655D01*
X0087711Y0163653D02*
X0115644Y0163653D01*
X0114685Y0165350D02*
X0117633Y0165350D01*
X0118014Y0165452D01*
X0118356Y0165650D01*
X0118636Y0165929D01*
X0118833Y0166271D01*
X0118935Y0166653D01*
X0118935Y0168100D01*
X0114685Y0168100D01*
X0114685Y0165350D01*
X0114685Y0165651D02*
X0114185Y0165651D01*
X0114185Y0165350D02*
X0114185Y0168100D01*
X0109935Y0168100D01*
X0109935Y0166653D01*
X0110038Y0166271D01*
X0110235Y0165929D01*
X0110514Y0165650D01*
X0110856Y0165452D01*
X0111238Y0165350D01*
X0114185Y0165350D01*
X0114185Y0166649D02*
X0114685Y0166649D01*
X0114685Y0167648D02*
X0114185Y0167648D01*
X0114185Y0168100D02*
X0114685Y0168100D01*
X0114685Y0168600D01*
X0114185Y0168600D01*
X0114185Y0168100D01*
X0114185Y0168600D02*
X0109935Y0168600D01*
X0109935Y0170047D01*
X0110038Y0170429D01*
X0110235Y0170771D01*
X0110514Y0171050D01*
X0110856Y0171248D01*
X0111238Y0171350D01*
X0114185Y0171350D01*
X0114185Y0168600D01*
X0114185Y0168646D02*
X0114685Y0168646D01*
X0114685Y0168600D02*
X0114685Y0171350D01*
X0117633Y0171350D01*
X0118014Y0171248D01*
X0118356Y0171050D01*
X0118636Y0170771D01*
X0118833Y0170429D01*
X0118935Y0170047D01*
X0118935Y0168600D01*
X0114685Y0168600D01*
X0114685Y0169645D02*
X0114185Y0169645D01*
X0114185Y0170643D02*
X0114685Y0170643D01*
X0118057Y0171350D02*
X0110814Y0171350D01*
X0109935Y0172229D01*
X0109935Y0172350D01*
X0096935Y0172350D01*
X0096935Y0172229D01*
X0096057Y0171350D01*
X0093252Y0171350D01*
X0093252Y0171350D01*
X0095633Y0171350D01*
X0096014Y0171248D01*
X0096356Y0171050D01*
X0096636Y0170771D01*
X0096833Y0170429D01*
X0096935Y0170047D01*
X0096935Y0168600D01*
X0092685Y0168600D01*
X0092685Y0168100D01*
X0092685Y0165350D01*
X0095633Y0165350D01*
X0096014Y0165452D01*
X0096356Y0165650D01*
X0096636Y0165929D01*
X0096833Y0166271D01*
X0096935Y0166653D01*
X0096935Y0168100D01*
X0092685Y0168100D01*
X0092185Y0168100D01*
X0087935Y0168100D01*
X0087935Y0166653D01*
X0088038Y0166271D01*
X0088235Y0165929D01*
X0088514Y0165650D01*
X0088856Y0165452D01*
X0089238Y0165350D01*
X0092185Y0165350D01*
X0092185Y0168100D01*
X0092185Y0168600D01*
X0087935Y0168600D01*
X0087935Y0170047D01*
X0088038Y0170429D01*
X0088235Y0170771D01*
X0088514Y0171050D01*
X0088856Y0171248D01*
X0089238Y0171350D01*
X0091619Y0171350D01*
X0091618Y0171350D01*
X0088814Y0171350D01*
X0087935Y0172229D01*
X0087935Y0176471D01*
X0088814Y0177350D01*
X0091618Y0177350D01*
X0091822Y0177434D01*
X0093049Y0177434D01*
X0093252Y0177350D01*
X0096057Y0177350D01*
X0096935Y0176471D01*
X0096935Y0176350D01*
X0109935Y0176350D01*
X0109935Y0176471D01*
X0110814Y0177350D01*
X0118057Y0177350D01*
X0118935Y0176471D01*
X0118935Y0172229D01*
X0118057Y0171350D01*
X0118348Y0171642D02*
X0119435Y0171642D01*
X0119435Y0172640D02*
X0118935Y0172640D01*
X0118935Y0173639D02*
X0119435Y0173639D01*
X0119435Y0174637D02*
X0118935Y0174637D01*
X0118935Y0175636D02*
X0119435Y0175636D01*
X0119435Y0176634D02*
X0118773Y0176634D01*
X0119435Y0177633D02*
X0087564Y0177633D01*
X0087553Y0178631D02*
X0119435Y0178631D01*
X0121435Y0179850D02*
X0121435Y0165350D01*
X0119435Y0166649D02*
X0118934Y0166649D01*
X0118935Y0167648D02*
X0119435Y0167648D01*
X0119435Y0168646D02*
X0118935Y0168646D01*
X0118935Y0169645D02*
X0119435Y0169645D01*
X0119435Y0170643D02*
X0118710Y0170643D01*
X0118907Y0165651D02*
X0118357Y0165651D01*
X0117909Y0164652D02*
X0087701Y0164652D01*
X0087690Y0165651D02*
X0088514Y0165651D01*
X0087936Y0166649D02*
X0087680Y0166649D01*
X0087669Y0167648D02*
X0087935Y0167648D01*
X0087935Y0168646D02*
X0087659Y0168646D01*
X0087648Y0169645D02*
X0087935Y0169645D01*
X0088161Y0170643D02*
X0087638Y0170643D01*
X0087627Y0171642D02*
X0088522Y0171642D01*
X0087935Y0172640D02*
X0087617Y0172640D01*
X0087606Y0173639D02*
X0087935Y0173639D01*
X0087935Y0174637D02*
X0087596Y0174637D01*
X0087585Y0175636D02*
X0087935Y0175636D01*
X0088098Y0176634D02*
X0087575Y0176634D01*
X0087543Y0179630D02*
X0114794Y0179630D01*
X0114103Y0180628D02*
X0087532Y0180628D01*
X0087522Y0181627D02*
X0113851Y0181627D01*
X0113918Y0182625D02*
X0087511Y0182625D01*
X0087501Y0183624D02*
X0114347Y0183624D01*
X0115569Y0184622D02*
X0087490Y0184622D01*
X0087480Y0185621D02*
X0121772Y0185621D01*
X0121685Y0184622D02*
X0118302Y0184622D01*
X0118304Y0186619D02*
X0131435Y0186619D01*
X0130886Y0186021D02*
X0130606Y0186300D01*
X0130264Y0186498D01*
X0129883Y0186600D01*
X0126810Y0186600D01*
X0126810Y0182225D01*
X0131185Y0182225D01*
X0131185Y0185297D01*
X0131083Y0185679D01*
X0130886Y0186021D01*
X0131099Y0185621D02*
X0131435Y0185621D01*
X0131435Y0184622D02*
X0131185Y0184622D01*
X0131185Y0183624D02*
X0131435Y0183624D01*
X0131435Y0182625D02*
X0131185Y0182625D01*
X0131435Y0181627D02*
X0126810Y0181627D01*
X0126810Y0182625D02*
X0126060Y0182625D01*
X0126060Y0183624D02*
X0126810Y0183624D01*
X0126810Y0184622D02*
X0126060Y0184622D01*
X0126060Y0185621D02*
X0126810Y0185621D01*
X0131435Y0187618D02*
X0118926Y0187618D01*
X0118935Y0188616D02*
X0131435Y0188616D01*
X0131435Y0189615D02*
X0118935Y0189615D01*
X0114685Y0188616D02*
X0114185Y0188616D01*
X0114185Y0187618D02*
X0114685Y0187618D01*
X0114685Y0186619D02*
X0114185Y0186619D01*
X0110567Y0186619D02*
X0096304Y0186619D01*
X0096926Y0187618D02*
X0109945Y0187618D01*
X0109935Y0188616D02*
X0096935Y0188616D01*
X0096935Y0189615D02*
X0109935Y0189615D01*
X0116935Y0181850D02*
X0119435Y0181850D01*
X0121435Y0179850D01*
X0121489Y0182625D02*
X0121685Y0182625D01*
X0121685Y0183624D02*
X0120490Y0183624D01*
X0126060Y0180628D02*
X0126810Y0180628D01*
X0126810Y0179630D02*
X0126060Y0179630D01*
X0126060Y0178631D02*
X0126810Y0178631D01*
X0126810Y0177633D02*
X0126060Y0177633D01*
X0123435Y0176634D02*
X0131435Y0176634D01*
X0131435Y0175636D02*
X0129367Y0175636D01*
X0130366Y0174637D02*
X0131435Y0174637D01*
X0131435Y0173639D02*
X0130836Y0173639D01*
X0131185Y0172640D02*
X0131435Y0172640D01*
X0131435Y0171642D02*
X0131185Y0171642D01*
X0131077Y0170643D02*
X0131435Y0170643D01*
X0131435Y0166850D02*
X0126435Y0171850D01*
X0131435Y0166850D02*
X0131435Y0155850D01*
X0133616Y0153668D02*
X0171001Y0153668D01*
X0172000Y0154667D02*
X0134284Y0154667D01*
X0134520Y0155665D02*
X0172998Y0155665D01*
X0173997Y0156664D02*
X0134437Y0156664D01*
X0128886Y0157662D02*
X0128738Y0157662D01*
X0127509Y0145680D02*
X0121362Y0145680D01*
X0122958Y0144682D02*
X0125913Y0144682D01*
X0124981Y0143683D02*
X0123890Y0143683D01*
X0124304Y0142685D02*
X0124567Y0142685D01*
X0131362Y0145680D02*
X0137474Y0145680D01*
X0138935Y0145680D02*
X0139935Y0145680D01*
X0139935Y0144682D02*
X0138935Y0144682D01*
X0138935Y0143683D02*
X0139935Y0143683D01*
X0139935Y0142685D02*
X0138935Y0142685D01*
X0138935Y0141686D02*
X0139935Y0141686D01*
X0142957Y0144682D02*
X0145913Y0144682D01*
X0144981Y0143683D02*
X0143804Y0143683D01*
X0144307Y0142685D02*
X0144567Y0142685D01*
X0147509Y0145680D02*
X0141397Y0145680D01*
X0135913Y0144682D02*
X0132958Y0144682D01*
X0133890Y0143683D02*
X0135066Y0143683D01*
X0134564Y0142685D02*
X0134304Y0142685D01*
X0119435Y0133850D02*
X0152435Y0133850D01*
X0156545Y0127707D02*
X0160787Y0127707D01*
X0160321Y0127241D02*
X0160321Y0123388D01*
X0161471Y0122239D01*
X0164547Y0125314D01*
X0164971Y0124890D01*
X0165395Y0125314D01*
X0168471Y0122239D01*
X0169621Y0123388D01*
X0169621Y0127241D01*
X0168471Y0128390D01*
X0165395Y0125314D01*
X0164971Y0125739D01*
X0164547Y0125314D01*
X0161471Y0128390D01*
X0160321Y0127241D01*
X0160321Y0126709D02*
X0155547Y0126709D01*
X0152235Y0125710D02*
X0160321Y0125710D01*
X0160321Y0124712D02*
X0152235Y0124712D01*
X0152235Y0123713D02*
X0160321Y0123713D01*
X0160995Y0122715D02*
X0152235Y0122715D01*
X0152235Y0121716D02*
X0161993Y0121716D01*
X0161895Y0121814D02*
X0163045Y0120664D01*
X0166897Y0120664D01*
X0168047Y0121814D01*
X0164971Y0124890D01*
X0161895Y0121814D01*
X0161947Y0122715D02*
X0162795Y0122715D01*
X0162945Y0123713D02*
X0163794Y0123713D01*
X0163944Y0124712D02*
X0164792Y0124712D01*
X0165150Y0124712D02*
X0165998Y0124712D01*
X0166148Y0123713D02*
X0166997Y0123713D01*
X0167147Y0122715D02*
X0167995Y0122715D01*
X0168947Y0122715D02*
X0170471Y0122715D01*
X0169621Y0123713D02*
X0171470Y0123713D01*
X0172469Y0124712D02*
X0169621Y0124712D01*
X0169621Y0125710D02*
X0179351Y0125710D01*
X0179453Y0126709D02*
X0169621Y0126709D01*
X0169154Y0127707D02*
X0179931Y0127707D01*
X0182435Y0125850D02*
X0191435Y0125850D01*
X0193435Y0123850D01*
X0193435Y0107850D01*
X0190435Y0104850D01*
X0183435Y0104850D01*
X0183435Y0093850D01*
X0180351Y0093758D02*
X0173356Y0093758D01*
X0172358Y0094756D02*
X0180472Y0094756D01*
X0180978Y0095755D02*
X0171359Y0095755D01*
X0170185Y0096753D02*
X0181435Y0096753D01*
X0181435Y0097752D02*
X0170185Y0097752D01*
X0170185Y0098750D02*
X0181435Y0098750D01*
X0181435Y0099749D02*
X0170185Y0099749D01*
X0170185Y0100747D02*
X0181435Y0100747D01*
X0181435Y0101746D02*
X0170185Y0101746D01*
X0170162Y0102744D02*
X0176179Y0102744D01*
X0175556Y0103743D02*
X0159315Y0103743D01*
X0159520Y0104741D02*
X0175351Y0104741D01*
X0175466Y0105740D02*
X0159405Y0105740D01*
X0158909Y0106738D02*
X0175962Y0106738D01*
X0177345Y0107737D02*
X0157525Y0107737D01*
X0155957Y0108735D02*
X0142920Y0108735D01*
X0142920Y0109734D02*
X0141951Y0109734D01*
X0141951Y0110732D02*
X0142920Y0110732D01*
X0142920Y0111731D02*
X0141951Y0111731D01*
X0141951Y0112729D02*
X0142920Y0112729D01*
X0146610Y0112729D02*
X0153685Y0112729D01*
X0153685Y0113728D02*
X0137386Y0113728D01*
X0138674Y0114726D02*
X0154071Y0114726D01*
X0154593Y0115725D02*
X0139308Y0115725D01*
X0137435Y0117850D02*
X0168435Y0117850D01*
X0173435Y0122850D01*
X0188435Y0122850D01*
X0186206Y0120718D02*
X0174131Y0120718D01*
X0173133Y0119719D02*
X0191435Y0119719D01*
X0191435Y0120718D02*
X0190665Y0120718D01*
X0191304Y0121716D02*
X0191435Y0121716D01*
X0191435Y0118720D02*
X0172134Y0118720D01*
X0171136Y0117722D02*
X0191435Y0117722D01*
X0191435Y0116723D02*
X0190761Y0116723D01*
X0186110Y0116723D02*
X0180676Y0116723D01*
X0180777Y0116672D02*
X0180151Y0116991D01*
X0179482Y0117208D01*
X0178920Y0117297D01*
X0178920Y0113334D01*
X0182883Y0113334D01*
X0182794Y0113896D01*
X0182577Y0114565D01*
X0182257Y0115192D01*
X0181844Y0115761D01*
X0181346Y0116258D01*
X0180777Y0116672D01*
X0181870Y0115725D02*
X0184991Y0115725D01*
X0184376Y0114726D02*
X0182494Y0114726D01*
X0182821Y0113728D02*
X0183967Y0113728D01*
X0183967Y0112729D02*
X0178920Y0112729D01*
X0178920Y0112366D02*
X0178920Y0113334D01*
X0177951Y0113334D01*
X0177951Y0112366D01*
X0173988Y0112366D01*
X0174077Y0111804D01*
X0174294Y0111135D01*
X0174614Y0110508D01*
X0175027Y0109939D01*
X0175524Y0109442D01*
X0176093Y0109028D01*
X0176720Y0108709D01*
X0177389Y0108492D01*
X0177951Y0108402D01*
X0177951Y0112366D01*
X0178920Y0112366D01*
X0182883Y0112366D01*
X0182794Y0111804D01*
X0182577Y0111135D01*
X0182257Y0110508D01*
X0181844Y0109939D01*
X0181346Y0109442D01*
X0180777Y0109028D01*
X0180151Y0108709D01*
X0179482Y0108492D01*
X0178920Y0108402D01*
X0178920Y0112366D01*
X0178920Y0111731D02*
X0177951Y0111731D01*
X0177951Y0112729D02*
X0172904Y0112729D01*
X0172904Y0113728D02*
X0174050Y0113728D01*
X0174077Y0113896D02*
X0173988Y0113334D01*
X0177951Y0113334D01*
X0177951Y0117297D01*
X0177389Y0117208D01*
X0176720Y0116991D01*
X0176093Y0116672D01*
X0175524Y0116258D01*
X0175027Y0115761D01*
X0174614Y0115192D01*
X0174294Y0114565D01*
X0174077Y0113896D01*
X0174376Y0114726D02*
X0172495Y0114726D01*
X0171880Y0115725D02*
X0175001Y0115725D01*
X0176195Y0116723D02*
X0170761Y0116723D01*
X0168474Y0120718D02*
X0166950Y0120718D01*
X0167949Y0121716D02*
X0169473Y0121716D01*
X0165791Y0125710D02*
X0165000Y0125710D01*
X0164942Y0125710D02*
X0164151Y0125710D01*
X0164001Y0126709D02*
X0163152Y0126709D01*
X0163003Y0127707D02*
X0162154Y0127707D01*
X0162004Y0128706D02*
X0160796Y0128706D01*
X0161795Y0129704D02*
X0162785Y0129704D01*
X0165941Y0126709D02*
X0166789Y0126709D01*
X0166939Y0127707D02*
X0167788Y0127707D01*
X0167907Y0135695D02*
X0161166Y0135695D01*
X0161976Y0134697D02*
X0184760Y0134697D01*
X0188435Y0136694D02*
X0235309Y0136694D01*
X0234302Y0137692D02*
X0223257Y0137692D01*
X0226435Y0141350D02*
X0220069Y0141350D01*
X0219435Y0140716D01*
X0215573Y0140688D02*
X0188435Y0140688D01*
X0188435Y0141686D02*
X0215573Y0141686D01*
X0215573Y0142685D02*
X0188435Y0142685D01*
X0188435Y0143683D02*
X0215573Y0143683D01*
X0215893Y0145680D02*
X0188435Y0145680D01*
X0188435Y0144682D02*
X0223189Y0144682D01*
X0228685Y0142850D02*
X0228685Y0139850D01*
X0224185Y0139850D01*
X0224185Y0142850D01*
X0228685Y0142850D01*
X0228685Y0140849D02*
X0224185Y0140849D01*
X0224185Y0141848D02*
X0228685Y0141848D01*
X0228685Y0142847D02*
X0224185Y0142847D01*
X0229682Y0144682D02*
X0234913Y0144682D01*
X0235048Y0144816D02*
X0234469Y0144238D01*
X0233988Y0143575D01*
X0233616Y0142846D01*
X0233363Y0142068D01*
X0233250Y0141350D01*
X0237935Y0141350D01*
X0237935Y0146036D01*
X0237218Y0145922D01*
X0236439Y0145669D01*
X0235710Y0145297D01*
X0235048Y0144816D01*
X0234066Y0143683D02*
X0230681Y0143683D01*
X0230685Y0142685D02*
X0233564Y0142685D01*
X0233303Y0141686D02*
X0230685Y0141686D01*
X0230685Y0140688D02*
X0237935Y0140688D01*
X0237935Y0141686D02*
X0238935Y0141686D01*
X0238935Y0142685D02*
X0237935Y0142685D01*
X0237935Y0143683D02*
X0238935Y0143683D01*
X0238935Y0144682D02*
X0237935Y0144682D01*
X0237935Y0145680D02*
X0238935Y0145680D01*
X0240397Y0145680D02*
X0246509Y0145680D01*
X0244913Y0144682D02*
X0241957Y0144682D01*
X0242804Y0143683D02*
X0243981Y0143683D01*
X0243567Y0142685D02*
X0243307Y0142685D01*
X0243171Y0138691D02*
X0243701Y0138691D01*
X0244239Y0137692D02*
X0242569Y0137692D01*
X0241561Y0136694D02*
X0245238Y0136694D01*
X0247292Y0135695D02*
X0239130Y0135695D01*
X0238935Y0135695D02*
X0237935Y0135695D01*
X0237741Y0135695D02*
X0189419Y0135695D01*
X0188435Y0137692D02*
X0215614Y0137692D01*
X0215573Y0138691D02*
X0188435Y0138691D01*
X0188435Y0139689D02*
X0215573Y0139689D01*
X0216817Y0132700D02*
X0209414Y0132700D01*
X0208416Y0133698D02*
X0321935Y0133698D01*
X0321935Y0132700D02*
X0290054Y0132700D01*
X0291797Y0131701D02*
X0321935Y0131701D01*
X0321935Y0130703D02*
X0292774Y0130703D01*
X0293188Y0129704D02*
X0321935Y0129704D01*
X0321935Y0128706D02*
X0293535Y0128706D01*
X0293535Y0127707D02*
X0321935Y0127707D01*
X0321935Y0126709D02*
X0321294Y0126709D01*
X0315576Y0126709D02*
X0311206Y0126709D01*
X0310925Y0126913D02*
X0310259Y0127252D01*
X0309548Y0127483D01*
X0308810Y0127600D01*
X0308810Y0123225D01*
X0308060Y0123225D01*
X0308060Y0122475D01*
X0303686Y0122475D01*
X0303802Y0121738D01*
X0304033Y0121027D01*
X0304373Y0120360D01*
X0304812Y0119756D01*
X0305341Y0119227D01*
X0305946Y0118787D01*
X0306612Y0118448D01*
X0307323Y0118217D01*
X0308060Y0118100D01*
X0308060Y0122475D01*
X0308810Y0122475D01*
X0308810Y0118100D01*
X0309548Y0118217D01*
X0310259Y0118448D01*
X0310925Y0118787D01*
X0311530Y0119227D01*
X0312058Y0119756D01*
X0312498Y0120360D01*
X0312837Y0121027D01*
X0313068Y0121738D01*
X0313185Y0122475D01*
X0308810Y0122475D01*
X0308810Y0123225D01*
X0313185Y0123225D01*
X0313068Y0123962D01*
X0312837Y0124673D01*
X0312498Y0125340D01*
X0312058Y0125944D01*
X0311530Y0126473D01*
X0310925Y0126913D01*
X0312229Y0125710D02*
X0314578Y0125710D01*
X0314065Y0124712D02*
X0312818Y0124712D01*
X0313108Y0123713D02*
X0313685Y0123713D01*
X0313685Y0122715D02*
X0308810Y0122715D01*
X0308060Y0122715D02*
X0303185Y0122715D01*
X0303686Y0123225D02*
X0303802Y0123962D01*
X0304033Y0124673D01*
X0304373Y0125340D01*
X0304812Y0125944D01*
X0305341Y0126473D01*
X0305946Y0126913D01*
X0306612Y0127252D01*
X0307323Y0127483D01*
X0308060Y0127600D01*
X0308060Y0123225D01*
X0303686Y0123225D01*
X0303763Y0123713D02*
X0303185Y0123713D01*
X0303185Y0124712D02*
X0304053Y0124712D01*
X0304642Y0125710D02*
X0303185Y0125710D01*
X0303185Y0126709D02*
X0305665Y0126709D01*
X0308060Y0126709D02*
X0308810Y0126709D01*
X0308810Y0125710D02*
X0308060Y0125710D01*
X0308060Y0124712D02*
X0308810Y0124712D01*
X0308810Y0123713D02*
X0308060Y0123713D01*
X0308060Y0121716D02*
X0308810Y0121716D01*
X0308810Y0120718D02*
X0308060Y0120718D01*
X0308060Y0119719D02*
X0308810Y0119719D01*
X0308810Y0118720D02*
X0308060Y0118720D01*
X0307547Y0117318D02*
X0305904Y0116638D01*
X0304647Y0115381D01*
X0303967Y0113739D01*
X0303967Y0111961D01*
X0304647Y0110319D01*
X0305904Y0109062D01*
X0306435Y0108842D01*
X0306435Y0075678D01*
X0299691Y0068934D01*
X0298822Y0068934D01*
X0297688Y0068465D01*
X0296821Y0067597D01*
X0296351Y0066463D01*
X0296351Y0065236D01*
X0296821Y0064103D01*
X0297688Y0063235D01*
X0298822Y0062766D01*
X0300049Y0062766D01*
X0301182Y0063235D01*
X0302050Y0064103D01*
X0302520Y0065236D01*
X0302520Y0066106D01*
X0309264Y0072850D01*
X0310435Y0074022D01*
X0310435Y0108842D01*
X0310967Y0109062D01*
X0312224Y0110319D01*
X0312904Y0111961D01*
X0312904Y0113739D01*
X0312224Y0115381D01*
X0310967Y0116638D01*
X0309324Y0117318D01*
X0307547Y0117318D01*
X0306110Y0116723D02*
X0300761Y0116723D01*
X0301880Y0115725D02*
X0304991Y0115725D01*
X0304376Y0114726D02*
X0302495Y0114726D01*
X0302904Y0113728D02*
X0303967Y0113728D01*
X0303967Y0112729D02*
X0302904Y0112729D01*
X0302809Y0111731D02*
X0304062Y0111731D01*
X0304476Y0110732D02*
X0302395Y0110732D01*
X0301639Y0109734D02*
X0305232Y0109734D01*
X0306435Y0108735D02*
X0300735Y0108735D01*
X0300735Y0107737D02*
X0306435Y0107737D01*
X0306435Y0106738D02*
X0300735Y0106738D01*
X0300735Y0105740D02*
X0306435Y0105740D01*
X0306435Y0104741D02*
X0300735Y0104741D01*
X0300735Y0103743D02*
X0306435Y0103743D01*
X0306435Y0102744D02*
X0300582Y0102744D01*
X0299584Y0101746D02*
X0306435Y0101746D01*
X0306435Y0100747D02*
X0298585Y0100747D01*
X0297587Y0099749D02*
X0306435Y0099749D01*
X0306435Y0098750D02*
X0296588Y0098750D01*
X0296319Y0097752D02*
X0306435Y0097752D01*
X0306435Y0096753D02*
X0295735Y0096753D01*
X0295735Y0095755D02*
X0306435Y0095755D01*
X0306435Y0094756D02*
X0295735Y0094756D01*
X0295735Y0093758D02*
X0306435Y0093758D01*
X0306435Y0092759D02*
X0295735Y0092759D01*
X0295735Y0091761D02*
X0306435Y0091761D01*
X0306435Y0090762D02*
X0295735Y0090762D01*
X0295735Y0089764D02*
X0306435Y0089764D01*
X0306435Y0088765D02*
X0295735Y0088765D01*
X0295735Y0087767D02*
X0306435Y0087767D01*
X0306435Y0086768D02*
X0295735Y0086768D01*
X0295735Y0085770D02*
X0306435Y0085770D01*
X0306435Y0084771D02*
X0295735Y0084771D01*
X0295735Y0083773D02*
X0306435Y0083773D01*
X0306435Y0082774D02*
X0295735Y0082774D01*
X0295735Y0081776D02*
X0306435Y0081776D01*
X0306435Y0080777D02*
X0295735Y0080777D01*
X0295735Y0079779D02*
X0306435Y0079779D01*
X0306435Y0078780D02*
X0295735Y0078780D01*
X0295735Y0077782D02*
X0306435Y0077782D01*
X0306435Y0076783D02*
X0295735Y0076783D01*
X0295735Y0075784D02*
X0306435Y0075784D01*
X0305543Y0074786D02*
X0295735Y0074786D01*
X0295735Y0073787D02*
X0304544Y0073787D01*
X0303546Y0072789D02*
X0295735Y0072789D01*
X0295735Y0071790D02*
X0302547Y0071790D01*
X0301549Y0070792D02*
X0295735Y0070792D01*
X0295735Y0069793D02*
X0300550Y0069793D01*
X0298486Y0068795D02*
X0295735Y0068795D01*
X0295735Y0067796D02*
X0297020Y0067796D01*
X0296490Y0066798D02*
X0295735Y0066798D01*
X0295735Y0065799D02*
X0296351Y0065799D01*
X0296532Y0064801D02*
X0295735Y0064801D01*
X0295735Y0063802D02*
X0297121Y0063802D01*
X0295735Y0062804D02*
X0298730Y0062804D01*
X0300141Y0062804D02*
X0321935Y0062804D01*
X0321935Y0063802D02*
X0301750Y0063802D01*
X0302339Y0064801D02*
X0321935Y0064801D01*
X0321935Y0065799D02*
X0302520Y0065799D01*
X0303212Y0066798D02*
X0321935Y0066798D01*
X0321935Y0067796D02*
X0304210Y0067796D01*
X0305209Y0068795D02*
X0321935Y0068795D01*
X0321935Y0069793D02*
X0306207Y0069793D01*
X0307206Y0070792D02*
X0321935Y0070792D01*
X0321935Y0071790D02*
X0308204Y0071790D01*
X0309203Y0072789D02*
X0321935Y0072789D01*
X0321935Y0073787D02*
X0310201Y0073787D01*
X0310435Y0074786D02*
X0321935Y0074786D01*
X0321935Y0075784D02*
X0310435Y0075784D01*
X0310435Y0076783D02*
X0321935Y0076783D01*
X0321935Y0077782D02*
X0310435Y0077782D01*
X0310435Y0078780D02*
X0321935Y0078780D01*
X0321935Y0079779D02*
X0310435Y0079779D01*
X0310435Y0080777D02*
X0321935Y0080777D01*
X0321935Y0081776D02*
X0310435Y0081776D01*
X0310435Y0082774D02*
X0321935Y0082774D01*
X0321935Y0083773D02*
X0310435Y0083773D01*
X0310435Y0084771D02*
X0321935Y0084771D01*
X0321935Y0085770D02*
X0310435Y0085770D01*
X0310435Y0086768D02*
X0321935Y0086768D01*
X0321935Y0087767D02*
X0310435Y0087767D01*
X0310435Y0088765D02*
X0321935Y0088765D01*
X0321935Y0089764D02*
X0310435Y0089764D01*
X0310435Y0090762D02*
X0321935Y0090762D01*
X0321935Y0091761D02*
X0310435Y0091761D01*
X0310435Y0092759D02*
X0321935Y0092759D01*
X0321935Y0093758D02*
X0310435Y0093758D01*
X0310435Y0094756D02*
X0321935Y0094756D01*
X0321935Y0095755D02*
X0310435Y0095755D01*
X0310435Y0096753D02*
X0321935Y0096753D01*
X0321935Y0097752D02*
X0310435Y0097752D01*
X0310435Y0098750D02*
X0321935Y0098750D01*
X0321935Y0099749D02*
X0310435Y0099749D01*
X0310435Y0100747D02*
X0321935Y0100747D01*
X0321935Y0101746D02*
X0310435Y0101746D01*
X0310435Y0102744D02*
X0321935Y0102744D01*
X0321935Y0103743D02*
X0310435Y0103743D01*
X0310435Y0104741D02*
X0321935Y0104741D01*
X0321935Y0105740D02*
X0310435Y0105740D01*
X0310435Y0106738D02*
X0321935Y0106738D01*
X0321935Y0107737D02*
X0310435Y0107737D01*
X0310435Y0108735D02*
X0315957Y0108735D01*
X0314834Y0109734D02*
X0311639Y0109734D01*
X0312395Y0110732D02*
X0314171Y0110732D01*
X0313758Y0111731D02*
X0312809Y0111731D01*
X0312904Y0112729D02*
X0313685Y0112729D01*
X0313685Y0113728D02*
X0312904Y0113728D01*
X0312495Y0114726D02*
X0314071Y0114726D01*
X0314593Y0115725D02*
X0311880Y0115725D01*
X0310761Y0116723D02*
X0315591Y0116723D01*
X0315993Y0118720D02*
X0310794Y0118720D01*
X0312022Y0119719D02*
X0314849Y0119719D01*
X0314177Y0120718D02*
X0312680Y0120718D01*
X0313061Y0121716D02*
X0313764Y0121716D01*
X0320878Y0118720D02*
X0321935Y0118720D01*
X0321935Y0117722D02*
X0265435Y0117722D01*
X0265435Y0118720D02*
X0293944Y0118720D01*
X0293685Y0118979D02*
X0294564Y0118100D01*
X0302307Y0118100D01*
X0303185Y0118979D01*
X0303185Y0126721D01*
X0302307Y0127600D01*
X0294564Y0127600D01*
X0293685Y0126721D01*
X0293685Y0118979D01*
X0293685Y0119719D02*
X0265435Y0119719D01*
X0265435Y0120718D02*
X0293685Y0120718D01*
X0293685Y0121716D02*
X0265435Y0121716D01*
X0266128Y0122715D02*
X0293685Y0122715D01*
X0293685Y0123713D02*
X0291511Y0123713D01*
X0292509Y0124712D02*
X0293685Y0124712D01*
X0293685Y0125710D02*
X0293069Y0125710D01*
X0293483Y0126709D02*
X0293685Y0126709D01*
X0303185Y0121716D02*
X0303809Y0121716D01*
X0304191Y0120718D02*
X0303185Y0120718D01*
X0303185Y0119719D02*
X0304849Y0119719D01*
X0306077Y0118720D02*
X0302927Y0118720D01*
X0296110Y0116723D02*
X0290761Y0116723D01*
X0290967Y0116638D02*
X0289324Y0117318D01*
X0287547Y0117318D01*
X0285904Y0116638D01*
X0284647Y0115381D01*
X0283967Y0113739D01*
X0283967Y0111961D01*
X0284647Y0110319D01*
X0285904Y0109062D01*
X0287547Y0108381D01*
X0289324Y0108381D01*
X0290967Y0109062D01*
X0292224Y0110319D01*
X0292904Y0111961D01*
X0292904Y0113739D01*
X0292224Y0115381D01*
X0290967Y0116638D01*
X0291880Y0115725D02*
X0294991Y0115725D01*
X0294376Y0114726D02*
X0292495Y0114726D01*
X0292904Y0113728D02*
X0293967Y0113728D01*
X0293967Y0112729D02*
X0292904Y0112729D01*
X0292809Y0111731D02*
X0294062Y0111731D01*
X0294476Y0110732D02*
X0292395Y0110732D01*
X0291639Y0109734D02*
X0295232Y0109734D01*
X0296135Y0108735D02*
X0290179Y0108735D01*
X0296135Y0107737D02*
X0280435Y0107737D01*
X0280435Y0108735D02*
X0286692Y0108735D01*
X0285232Y0109734D02*
X0281639Y0109734D01*
X0282395Y0110732D02*
X0284476Y0110732D01*
X0284062Y0111731D02*
X0282809Y0111731D01*
X0282904Y0112729D02*
X0283967Y0112729D01*
X0283967Y0113728D02*
X0282904Y0113728D01*
X0282495Y0114726D02*
X0284376Y0114726D01*
X0284991Y0115725D02*
X0281880Y0115725D01*
X0280761Y0116723D02*
X0286110Y0116723D01*
X0278435Y0112850D02*
X0278435Y0060850D01*
X0273435Y0055850D01*
X0273435Y0034850D01*
X0271435Y0033050D01*
X0229435Y0033050D01*
X0228435Y0033850D01*
X0228435Y0037850D01*
X0233132Y0039838D02*
X0233739Y0039838D01*
X0234209Y0040837D02*
X0232661Y0040837D01*
X0231663Y0041835D02*
X0235208Y0041835D01*
X0237140Y0042834D02*
X0229731Y0042834D01*
X0227140Y0042834D02*
X0219731Y0042834D01*
X0221663Y0041835D02*
X0225208Y0041835D01*
X0224209Y0040837D02*
X0222661Y0040837D01*
X0223132Y0039838D02*
X0223739Y0039838D01*
X0217140Y0042834D02*
X0201247Y0042834D01*
X0200249Y0041835D02*
X0215208Y0041835D01*
X0214209Y0040837D02*
X0199250Y0040837D01*
X0198252Y0039838D02*
X0213739Y0039838D01*
X0213335Y0038840D02*
X0197253Y0038840D01*
X0196520Y0037841D02*
X0213335Y0037841D01*
X0213335Y0036843D02*
X0196356Y0036843D01*
X0195791Y0035844D02*
X0213746Y0035844D01*
X0214227Y0034846D02*
X0194241Y0034846D01*
X0192629Y0034846D02*
X0167935Y0034846D01*
X0167935Y0035844D02*
X0191080Y0035844D01*
X0190514Y0036843D02*
X0167688Y0036843D01*
X0167274Y0037841D02*
X0190351Y0037841D01*
X0190507Y0038840D02*
X0170477Y0038840D01*
X0170163Y0038680D02*
X0170794Y0039001D01*
X0171367Y0039418D01*
X0171868Y0039918D01*
X0172284Y0040491D01*
X0172606Y0041123D01*
X0172825Y0041796D01*
X0172935Y0042496D01*
X0172935Y0042550D01*
X0168735Y0042550D01*
X0168735Y0038350D01*
X0168790Y0038350D01*
X0169489Y0038461D01*
X0170163Y0038680D01*
X0168735Y0038840D02*
X0168135Y0038840D01*
X0168135Y0039838D02*
X0168735Y0039838D01*
X0168735Y0040837D02*
X0168135Y0040837D01*
X0168135Y0041835D02*
X0168735Y0041835D01*
X0168735Y0042550D02*
X0168135Y0042550D01*
X0168135Y0043150D01*
X0163935Y0043150D01*
X0163935Y0043204D01*
X0164046Y0043904D01*
X0164265Y0044577D01*
X0164587Y0045209D01*
X0165003Y0045782D01*
X0165504Y0046282D01*
X0166077Y0046699D01*
X0166708Y0047020D01*
X0167382Y0047239D01*
X0168081Y0047350D01*
X0168135Y0047350D01*
X0168135Y0043150D01*
X0168735Y0043150D01*
X0168735Y0047350D01*
X0168790Y0047350D01*
X0169489Y0047239D01*
X0170163Y0047020D01*
X0170794Y0046699D01*
X0171367Y0046282D01*
X0171868Y0045782D01*
X0172284Y0045209D01*
X0172606Y0044577D01*
X0172825Y0043904D01*
X0172935Y0043204D01*
X0172935Y0043150D01*
X0168735Y0043150D01*
X0168735Y0042550D01*
X0168735Y0042834D02*
X0195591Y0042834D01*
X0196589Y0043832D02*
X0172836Y0043832D01*
X0172477Y0044831D02*
X0197588Y0044831D01*
X0198586Y0045829D02*
X0171820Y0045829D01*
X0170541Y0046828D02*
X0199585Y0046828D01*
X0200583Y0047826D02*
X0145664Y0047826D01*
X0144666Y0046828D02*
X0156279Y0046828D01*
X0155051Y0045829D02*
X0150535Y0045829D01*
X0151533Y0044831D02*
X0154385Y0044831D01*
X0156935Y0042350D02*
X0158435Y0042850D01*
X0156935Y0042350D02*
X0147435Y0042350D01*
X0149685Y0043850D02*
X0149685Y0040850D01*
X0145185Y0040850D01*
X0145185Y0043850D01*
X0149685Y0043850D01*
X0149685Y0041849D02*
X0145185Y0041849D01*
X0145185Y0042848D02*
X0149685Y0042848D01*
X0149685Y0043847D02*
X0145185Y0043847D01*
X0143338Y0044831D02*
X0142669Y0044831D01*
X0143667Y0045829D02*
X0144336Y0045829D01*
X0146663Y0048825D02*
X0155743Y0048825D01*
X0155745Y0048823D02*
X0157491Y0048100D01*
X0159380Y0048100D01*
X0161126Y0048823D01*
X0162462Y0050159D01*
X0163185Y0051905D01*
X0163185Y0053795D01*
X0162462Y0055541D01*
X0161126Y0056877D01*
X0159380Y0057600D01*
X0157491Y0057600D01*
X0155745Y0056877D01*
X0154409Y0055541D01*
X0153685Y0053795D01*
X0153685Y0051905D01*
X0154409Y0050159D01*
X0155745Y0048823D01*
X0154745Y0049823D02*
X0147661Y0049823D01*
X0148660Y0050822D02*
X0154134Y0050822D01*
X0153721Y0051820D02*
X0149658Y0051820D01*
X0150657Y0052819D02*
X0153685Y0052819D01*
X0153695Y0053817D02*
X0151655Y0053817D01*
X0152654Y0054816D02*
X0154108Y0054816D01*
X0153652Y0055814D02*
X0154682Y0055814D01*
X0154651Y0056813D02*
X0155681Y0056813D01*
X0155649Y0057811D02*
X0197198Y0057811D01*
X0197389Y0057208D02*
X0196720Y0056991D01*
X0196093Y0056672D01*
X0195524Y0056258D01*
X0195027Y0055761D01*
X0194614Y0055192D01*
X0194294Y0054565D01*
X0194077Y0053896D01*
X0193988Y0053334D01*
X0197951Y0053334D01*
X0197951Y0052366D01*
X0193988Y0052366D01*
X0194077Y0051804D01*
X0194294Y0051135D01*
X0194614Y0050508D01*
X0195027Y0049939D01*
X0195524Y0049442D01*
X0196093Y0049028D01*
X0196720Y0048709D01*
X0197389Y0048492D01*
X0197951Y0048402D01*
X0197951Y0052366D01*
X0198920Y0052366D01*
X0198920Y0053334D01*
X0197951Y0053334D01*
X0197951Y0057297D01*
X0197389Y0057208D01*
X0197951Y0056813D02*
X0198920Y0056813D01*
X0198920Y0055814D02*
X0197951Y0055814D01*
X0197951Y0054816D02*
X0198920Y0054816D01*
X0198920Y0053817D02*
X0197951Y0053817D01*
X0197951Y0052819D02*
X0192904Y0052819D01*
X0192904Y0051961D02*
X0192224Y0050319D01*
X0190967Y0049062D01*
X0189324Y0048381D01*
X0187547Y0048381D01*
X0185904Y0049062D01*
X0184647Y0050319D01*
X0183967Y0051961D01*
X0183967Y0053739D01*
X0184647Y0055381D01*
X0185904Y0056638D01*
X0187547Y0057318D01*
X0189324Y0057318D01*
X0190967Y0056638D01*
X0192224Y0055381D01*
X0192904Y0053739D01*
X0192904Y0051961D01*
X0192845Y0051820D02*
X0194074Y0051820D01*
X0194454Y0050822D02*
X0192432Y0050822D01*
X0191728Y0049823D02*
X0195143Y0049823D01*
X0196493Y0048825D02*
X0190394Y0048825D01*
X0186477Y0048825D02*
X0180394Y0048825D01*
X0180967Y0049062D02*
X0182224Y0050319D01*
X0182904Y0051961D01*
X0182904Y0053739D01*
X0182224Y0055381D01*
X0180967Y0056638D01*
X0179324Y0057318D01*
X0177547Y0057318D01*
X0175904Y0056638D01*
X0174647Y0055381D01*
X0173967Y0053739D01*
X0173967Y0051961D01*
X0174647Y0050319D01*
X0175904Y0049062D01*
X0177547Y0048381D01*
X0179324Y0048381D01*
X0180967Y0049062D01*
X0181728Y0049823D02*
X0185143Y0049823D01*
X0184439Y0050822D02*
X0182432Y0050822D01*
X0182845Y0051820D02*
X0184025Y0051820D01*
X0183967Y0052819D02*
X0182904Y0052819D01*
X0182871Y0053817D02*
X0183999Y0053817D01*
X0184413Y0054816D02*
X0182458Y0054816D01*
X0181791Y0055814D02*
X0185080Y0055814D01*
X0186326Y0056813D02*
X0180545Y0056813D01*
X0176326Y0056813D02*
X0172531Y0056813D01*
X0172904Y0056440D02*
X0172025Y0057318D01*
X0164846Y0057318D01*
X0163967Y0056440D01*
X0163967Y0049260D01*
X0164846Y0048381D01*
X0172025Y0048381D01*
X0172904Y0049260D01*
X0172904Y0056440D01*
X0172904Y0055814D02*
X0175080Y0055814D01*
X0174413Y0054816D02*
X0172904Y0054816D01*
X0172904Y0053817D02*
X0173999Y0053817D01*
X0173967Y0052819D02*
X0172904Y0052819D01*
X0172904Y0051820D02*
X0174025Y0051820D01*
X0174439Y0050822D02*
X0172904Y0050822D01*
X0172904Y0049823D02*
X0175143Y0049823D01*
X0176477Y0048825D02*
X0172468Y0048825D01*
X0168735Y0046828D02*
X0168135Y0046828D01*
X0168135Y0045829D02*
X0168735Y0045829D01*
X0168735Y0044831D02*
X0168135Y0044831D01*
X0168135Y0043832D02*
X0168735Y0043832D01*
X0168135Y0042834D02*
X0162935Y0042834D01*
X0162899Y0043832D02*
X0164035Y0043832D01*
X0164394Y0044831D02*
X0162486Y0044831D01*
X0161820Y0045829D02*
X0165051Y0045829D01*
X0166330Y0046828D02*
X0160591Y0046828D01*
X0161128Y0048825D02*
X0164402Y0048825D01*
X0163967Y0049823D02*
X0162126Y0049823D01*
X0162737Y0050822D02*
X0163967Y0050822D01*
X0163967Y0051820D02*
X0163150Y0051820D01*
X0163185Y0052819D02*
X0163967Y0052819D01*
X0163967Y0053817D02*
X0163176Y0053817D01*
X0162763Y0054816D02*
X0163967Y0054816D01*
X0163967Y0055814D02*
X0162189Y0055814D01*
X0161190Y0056813D02*
X0164340Y0056813D01*
X0158755Y0059808D02*
X0195315Y0059808D01*
X0195154Y0060807D02*
X0159342Y0060807D01*
X0159520Y0061805D02*
X0195280Y0061805D01*
X0195749Y0062804D02*
X0159379Y0062804D01*
X0158845Y0063802D02*
X0196989Y0063802D01*
X0198435Y0060850D02*
X0200435Y0058850D01*
X0235435Y0058850D01*
X0238435Y0055850D01*
X0238435Y0052850D01*
X0235143Y0049823D02*
X0231728Y0049823D01*
X0232432Y0050822D02*
X0234439Y0050822D01*
X0234025Y0051820D02*
X0232845Y0051820D01*
X0232904Y0052819D02*
X0233967Y0052819D01*
X0233999Y0053817D02*
X0232871Y0053817D01*
X0232458Y0054816D02*
X0234413Y0054816D01*
X0235080Y0055814D02*
X0231791Y0055814D01*
X0230545Y0056813D02*
X0234644Y0056813D01*
X0236477Y0048825D02*
X0230394Y0048825D01*
X0226477Y0048825D02*
X0220394Y0048825D01*
X0221728Y0049823D02*
X0225143Y0049823D01*
X0224439Y0050822D02*
X0222432Y0050822D01*
X0222845Y0051820D02*
X0224025Y0051820D01*
X0223967Y0052819D02*
X0222904Y0052819D01*
X0222871Y0053817D02*
X0223999Y0053817D01*
X0224413Y0054816D02*
X0222458Y0054816D01*
X0221791Y0055814D02*
X0225080Y0055814D01*
X0226326Y0056813D02*
X0220545Y0056813D01*
X0216326Y0056813D02*
X0210545Y0056813D01*
X0211791Y0055814D02*
X0215080Y0055814D01*
X0214413Y0054816D02*
X0212458Y0054816D01*
X0212871Y0053817D02*
X0213999Y0053817D01*
X0213967Y0052819D02*
X0212904Y0052819D01*
X0212845Y0051820D02*
X0214025Y0051820D01*
X0214439Y0050822D02*
X0212432Y0050822D01*
X0211728Y0049823D02*
X0215143Y0049823D01*
X0216477Y0048825D02*
X0210394Y0048825D01*
X0206240Y0047826D02*
X0241435Y0047826D01*
X0241435Y0046828D02*
X0205241Y0046828D01*
X0204243Y0045829D02*
X0241435Y0045829D01*
X0241435Y0044831D02*
X0203244Y0044831D01*
X0202246Y0043832D02*
X0241435Y0043832D01*
X0241435Y0042834D02*
X0239731Y0042834D01*
X0240394Y0048825D02*
X0241435Y0048825D01*
X0253435Y0042850D02*
X0253435Y0064850D01*
X0234435Y0083850D01*
X0183435Y0083850D01*
X0175607Y0087850D02*
X0173607Y0085850D01*
X0169127Y0085850D01*
X0169498Y0086360D01*
X0169837Y0087027D01*
X0170068Y0087738D01*
X0170185Y0088475D01*
X0165810Y0088475D01*
X0165810Y0089225D01*
X0170185Y0089225D01*
X0170068Y0089962D01*
X0169837Y0090673D01*
X0169498Y0091340D01*
X0169127Y0091850D01*
X0169607Y0091850D01*
X0172435Y0089022D01*
X0172435Y0089022D01*
X0173607Y0087850D01*
X0175607Y0087850D01*
X0175524Y0087767D02*
X0170073Y0087767D01*
X0169706Y0086768D02*
X0174525Y0086768D01*
X0172692Y0088765D02*
X0165810Y0088765D01*
X0165060Y0088765D02*
X0154349Y0088765D01*
X0155347Y0087767D02*
X0160798Y0087767D01*
X0161165Y0086768D02*
X0156346Y0086768D01*
X0160771Y0089764D02*
X0130461Y0089764D01*
X0128352Y0090762D02*
X0137695Y0090762D01*
X0136696Y0091761D02*
X0127353Y0091761D01*
X0126355Y0092759D02*
X0135698Y0092759D01*
X0134699Y0093758D02*
X0125356Y0093758D01*
X0124435Y0094756D02*
X0130642Y0094756D01*
X0132435Y0098850D02*
X0139435Y0091850D01*
X0160435Y0091850D01*
X0162435Y0093850D01*
X0170435Y0093850D01*
X0174435Y0089850D01*
X0237435Y0089850D01*
X0256435Y0070850D01*
X0259435Y0070850D01*
X0263328Y0074786D02*
X0276435Y0074786D01*
X0276435Y0075784D02*
X0262329Y0075784D01*
X0261331Y0076783D02*
X0276435Y0076783D01*
X0276435Y0077782D02*
X0260332Y0077782D01*
X0259334Y0078780D02*
X0276435Y0078780D01*
X0276435Y0079779D02*
X0258335Y0079779D01*
X0258076Y0080777D02*
X0276435Y0080777D01*
X0276435Y0081776D02*
X0259723Y0081776D01*
X0260328Y0082774D02*
X0276435Y0082774D01*
X0276435Y0083773D02*
X0260520Y0083773D01*
X0260392Y0084771D02*
X0276435Y0084771D01*
X0276435Y0085770D02*
X0259878Y0085770D01*
X0258450Y0086768D02*
X0276435Y0086768D01*
X0276435Y0087767D02*
X0256347Y0087767D01*
X0255349Y0088765D02*
X0276435Y0088765D01*
X0276435Y0089764D02*
X0254350Y0089764D01*
X0253352Y0090762D02*
X0276435Y0090762D01*
X0276435Y0091761D02*
X0252353Y0091761D01*
X0253435Y0094850D02*
X0253435Y0122850D01*
X0258435Y0127850D01*
X0263188Y0129704D02*
X0263683Y0129704D01*
X0264097Y0130703D02*
X0262774Y0130703D01*
X0261797Y0131701D02*
X0265074Y0131701D01*
X0266817Y0132700D02*
X0260054Y0132700D01*
X0259579Y0135695D02*
X0267292Y0135695D01*
X0265238Y0136694D02*
X0261633Y0136694D01*
X0262631Y0137692D02*
X0264239Y0137692D01*
X0263701Y0138691D02*
X0263169Y0138691D01*
X0257292Y0135695D02*
X0249579Y0135695D01*
X0251633Y0136694D02*
X0255238Y0136694D01*
X0254239Y0137692D02*
X0252631Y0137692D01*
X0253169Y0138691D02*
X0253701Y0138691D01*
X0253567Y0142685D02*
X0253304Y0142685D01*
X0252890Y0143683D02*
X0253981Y0143683D01*
X0254913Y0144682D02*
X0251958Y0144682D01*
X0250362Y0145680D02*
X0256509Y0145680D01*
X0260362Y0145680D02*
X0266135Y0145680D01*
X0266135Y0146679D02*
X0230685Y0146679D01*
X0230344Y0145680D02*
X0236474Y0145680D01*
X0237935Y0139689D02*
X0238935Y0139689D01*
X0238935Y0138691D02*
X0237935Y0138691D01*
X0237935Y0137692D02*
X0238935Y0137692D01*
X0238935Y0136694D02*
X0237935Y0136694D01*
X0236817Y0132700D02*
X0230054Y0132700D01*
X0231797Y0131701D02*
X0235074Y0131701D01*
X0234097Y0130703D02*
X0232774Y0130703D01*
X0233188Y0129704D02*
X0233683Y0129704D01*
X0238435Y0127850D02*
X0233435Y0122850D01*
X0233435Y0094850D01*
X0243435Y0091850D02*
X0273435Y0061850D01*
X0276379Y0062804D02*
X0276435Y0062804D01*
X0276435Y0063802D02*
X0275845Y0063802D01*
X0276435Y0064801D02*
X0274371Y0064801D01*
X0272314Y0065799D02*
X0276435Y0065799D01*
X0276435Y0066798D02*
X0271316Y0066798D01*
X0270317Y0067796D02*
X0276435Y0067796D01*
X0276435Y0068795D02*
X0269319Y0068795D01*
X0268320Y0069793D02*
X0276435Y0069793D01*
X0276435Y0070792D02*
X0267322Y0070792D01*
X0266323Y0071790D02*
X0276435Y0071790D01*
X0276435Y0072789D02*
X0265325Y0072789D01*
X0264326Y0073787D02*
X0276435Y0073787D01*
X0280435Y0073787D02*
X0285468Y0073787D01*
X0284013Y0072789D02*
X0280435Y0072789D01*
X0280435Y0071790D02*
X0283487Y0071790D01*
X0283351Y0070792D02*
X0280435Y0070792D01*
X0280435Y0069793D02*
X0283535Y0069793D01*
X0284129Y0068795D02*
X0280435Y0068795D01*
X0280435Y0067796D02*
X0285748Y0067796D01*
X0286435Y0066798D02*
X0280435Y0066798D01*
X0280435Y0065799D02*
X0286435Y0065799D01*
X0286435Y0064801D02*
X0280435Y0064801D01*
X0280435Y0063802D02*
X0286435Y0063802D01*
X0286435Y0062804D02*
X0280435Y0062804D01*
X0280435Y0061805D02*
X0286435Y0061805D01*
X0286435Y0060807D02*
X0280435Y0060807D01*
X0280222Y0059808D02*
X0286435Y0059808D01*
X0286435Y0058810D02*
X0279224Y0058810D01*
X0278225Y0057811D02*
X0286435Y0057811D01*
X0286326Y0056813D02*
X0280545Y0056813D01*
X0281791Y0055814D02*
X0285080Y0055814D01*
X0284413Y0054816D02*
X0282458Y0054816D01*
X0282871Y0053817D02*
X0283999Y0053817D01*
X0283967Y0052819D02*
X0282904Y0052819D01*
X0282845Y0051820D02*
X0284025Y0051820D01*
X0284439Y0050822D02*
X0282432Y0050822D01*
X0281728Y0049823D02*
X0283580Y0049823D01*
X0282582Y0048825D02*
X0280394Y0048825D01*
X0281583Y0047826D02*
X0275435Y0047826D01*
X0275435Y0046828D02*
X0280585Y0046828D01*
X0279586Y0045829D02*
X0275435Y0045829D01*
X0275435Y0044831D02*
X0278588Y0044831D01*
X0277589Y0043832D02*
X0275435Y0043832D01*
X0275435Y0042834D02*
X0276591Y0042834D01*
X0278435Y0041850D02*
X0278435Y0037850D01*
X0278435Y0041850D02*
X0288435Y0051850D01*
X0288435Y0052850D01*
X0288435Y0068850D01*
X0286435Y0070850D01*
X0289520Y0070792D02*
X0291135Y0070792D01*
X0291135Y0071790D02*
X0289384Y0071790D01*
X0288858Y0072789D02*
X0291135Y0072789D01*
X0291135Y0073787D02*
X0287403Y0073787D01*
X0291135Y0074786D02*
X0280435Y0074786D01*
X0280435Y0075784D02*
X0291135Y0075784D01*
X0291135Y0076783D02*
X0280435Y0076783D01*
X0280435Y0077782D02*
X0291135Y0077782D01*
X0291135Y0078780D02*
X0280435Y0078780D01*
X0280435Y0079779D02*
X0291135Y0079779D01*
X0291135Y0080777D02*
X0280435Y0080777D01*
X0280435Y0081776D02*
X0291135Y0081776D01*
X0291135Y0082774D02*
X0280435Y0082774D01*
X0280435Y0083773D02*
X0291135Y0083773D01*
X0291135Y0084771D02*
X0280435Y0084771D01*
X0280435Y0085770D02*
X0291135Y0085770D01*
X0291135Y0086768D02*
X0280435Y0086768D01*
X0280435Y0087767D02*
X0291135Y0087767D01*
X0291135Y0088765D02*
X0280435Y0088765D01*
X0280435Y0089764D02*
X0291135Y0089764D01*
X0291135Y0090762D02*
X0280435Y0090762D01*
X0280435Y0091761D02*
X0291135Y0091761D01*
X0291135Y0092759D02*
X0280435Y0092759D01*
X0280435Y0093758D02*
X0291135Y0093758D01*
X0291135Y0094756D02*
X0280435Y0094756D01*
X0280435Y0095755D02*
X0291135Y0095755D01*
X0291135Y0096753D02*
X0280435Y0096753D01*
X0280435Y0097752D02*
X0290552Y0097752D01*
X0290351Y0098750D02*
X0280435Y0098750D01*
X0280435Y0099749D02*
X0290469Y0099749D01*
X0290971Y0100747D02*
X0280435Y0100747D01*
X0280435Y0101746D02*
X0292367Y0101746D01*
X0294077Y0102744D02*
X0280435Y0102744D01*
X0280435Y0103743D02*
X0295076Y0103743D01*
X0296074Y0104741D02*
X0280435Y0104741D01*
X0280435Y0105740D02*
X0296135Y0105740D01*
X0296135Y0106738D02*
X0280435Y0106738D01*
X0276435Y0106738D02*
X0265435Y0106738D01*
X0265435Y0105740D02*
X0276435Y0105740D01*
X0276435Y0104741D02*
X0265435Y0104741D01*
X0265435Y0103743D02*
X0276435Y0103743D01*
X0276435Y0102744D02*
X0265435Y0102744D01*
X0265435Y0101746D02*
X0276435Y0101746D01*
X0276435Y0100747D02*
X0265435Y0100747D01*
X0265435Y0099749D02*
X0276435Y0099749D01*
X0276435Y0098750D02*
X0265435Y0098750D01*
X0265435Y0097752D02*
X0276435Y0097752D01*
X0276435Y0096753D02*
X0265894Y0096753D01*
X0266399Y0095755D02*
X0276435Y0095755D01*
X0276435Y0094756D02*
X0266520Y0094756D01*
X0266321Y0093758D02*
X0276435Y0093758D01*
X0276435Y0092759D02*
X0265706Y0092759D01*
X0263435Y0094850D02*
X0263435Y0122850D01*
X0268435Y0127850D01*
X0273188Y0129704D02*
X0273675Y0129704D01*
X0273461Y0129044D02*
X0273461Y0129044D01*
X0272774Y0130703D02*
X0274204Y0130703D01*
X0275074Y0131701D02*
X0271797Y0131701D01*
X0270054Y0132700D02*
X0276857Y0132700D01*
X0277935Y0132700D02*
X0278935Y0132700D01*
X0278935Y0131701D02*
X0277935Y0131701D01*
X0277935Y0130703D02*
X0278935Y0130703D01*
X0278935Y0129704D02*
X0277935Y0129704D01*
X0277935Y0128706D02*
X0278935Y0128706D01*
X0278935Y0126709D02*
X0277935Y0126709D01*
X0277935Y0125710D02*
X0278935Y0125710D01*
X0278935Y0124712D02*
X0277935Y0124712D01*
X0277935Y0123713D02*
X0278935Y0123713D01*
X0281418Y0123713D02*
X0285360Y0123713D01*
X0284361Y0124712D02*
X0282459Y0124712D01*
X0283069Y0125710D02*
X0283802Y0125710D01*
X0283410Y0126656D02*
X0283410Y0126656D01*
X0283195Y0129704D02*
X0283683Y0129704D01*
X0284097Y0130703D02*
X0282667Y0130703D01*
X0281797Y0131701D02*
X0285074Y0131701D01*
X0286817Y0132700D02*
X0280014Y0132700D01*
X0272631Y0137692D02*
X0321935Y0137692D01*
X0321935Y0136694D02*
X0271633Y0136694D01*
X0269579Y0135695D02*
X0321935Y0135695D01*
X0321935Y0134697D02*
X0207417Y0134697D01*
X0210413Y0131701D02*
X0215074Y0131701D01*
X0214097Y0130703D02*
X0211411Y0130703D01*
X0212410Y0129704D02*
X0213683Y0129704D01*
X0220054Y0132700D02*
X0226817Y0132700D01*
X0225074Y0131701D02*
X0221797Y0131701D01*
X0222774Y0130703D02*
X0224097Y0130703D01*
X0223683Y0129704D02*
X0223188Y0129704D01*
X0230355Y0138691D02*
X0233699Y0138691D01*
X0233354Y0139689D02*
X0230685Y0139689D01*
X0240054Y0132700D02*
X0246817Y0132700D01*
X0245074Y0131701D02*
X0241797Y0131701D01*
X0242774Y0130703D02*
X0244097Y0130703D01*
X0243683Y0129704D02*
X0243188Y0129704D01*
X0248435Y0127850D02*
X0243435Y0122850D01*
X0243435Y0091850D01*
X0248435Y0092850D02*
X0257435Y0083850D01*
X0255706Y0092759D02*
X0261164Y0092759D01*
X0260549Y0093758D02*
X0256321Y0093758D01*
X0256520Y0094756D02*
X0260351Y0094756D01*
X0260472Y0095755D02*
X0256399Y0095755D01*
X0255894Y0096753D02*
X0260977Y0096753D01*
X0261435Y0097752D02*
X0255435Y0097752D01*
X0255435Y0098750D02*
X0261435Y0098750D01*
X0261435Y0099749D02*
X0255435Y0099749D01*
X0255435Y0100747D02*
X0261435Y0100747D01*
X0261435Y0101746D02*
X0255435Y0101746D01*
X0255435Y0102744D02*
X0261435Y0102744D01*
X0261435Y0103743D02*
X0255435Y0103743D01*
X0255435Y0104741D02*
X0261435Y0104741D01*
X0261435Y0105740D02*
X0255435Y0105740D01*
X0255435Y0106738D02*
X0261435Y0106738D01*
X0261435Y0107737D02*
X0255435Y0107737D01*
X0255435Y0108735D02*
X0256692Y0108735D01*
X0260179Y0108735D02*
X0261435Y0108735D01*
X0265435Y0108735D02*
X0266692Y0108735D01*
X0265435Y0107737D02*
X0276435Y0107737D01*
X0276435Y0108735D02*
X0270179Y0108735D01*
X0271639Y0109734D02*
X0275232Y0109734D01*
X0274476Y0110732D02*
X0272395Y0110732D01*
X0272809Y0111731D02*
X0274062Y0111731D01*
X0273967Y0112729D02*
X0272904Y0112729D01*
X0272904Y0113728D02*
X0273967Y0113728D01*
X0274376Y0114726D02*
X0272495Y0114726D01*
X0271880Y0115725D02*
X0274991Y0115725D01*
X0276110Y0116723D02*
X0270761Y0116723D01*
X0266110Y0116723D02*
X0265435Y0116723D01*
X0271511Y0123713D02*
X0275453Y0123713D01*
X0274412Y0124712D02*
X0272509Y0124712D01*
X0273069Y0125710D02*
X0273802Y0125710D01*
X0273169Y0138691D02*
X0306615Y0138691D01*
X0306573Y0139689D02*
X0273583Y0139689D01*
X0273635Y0140688D02*
X0306573Y0140688D01*
X0306573Y0141686D02*
X0273635Y0141686D01*
X0273304Y0142685D02*
X0306573Y0142685D01*
X0306573Y0143683D02*
X0272890Y0143683D01*
X0271958Y0144682D02*
X0306573Y0144682D01*
X0306895Y0146679D02*
X0270735Y0146679D01*
X0270735Y0145680D02*
X0314187Y0145680D01*
X0319685Y0147850D02*
X0319685Y0150850D01*
X0319685Y0147850D02*
X0315185Y0147850D01*
X0315185Y0150850D01*
X0319685Y0150850D01*
X0319685Y0148849D02*
X0315185Y0148849D01*
X0315185Y0149848D02*
X0319685Y0149848D01*
X0319685Y0150847D02*
X0315185Y0150847D01*
X0317435Y0149350D02*
X0317435Y0156850D01*
X0320716Y0156664D02*
X0321935Y0156664D01*
X0321935Y0155665D02*
X0320716Y0155665D01*
X0320716Y0154667D02*
X0321935Y0154667D01*
X0321935Y0153668D02*
X0319937Y0153668D01*
X0320694Y0152670D02*
X0321935Y0152670D01*
X0321935Y0151671D02*
X0321685Y0151671D01*
X0321685Y0150673D02*
X0321935Y0150673D01*
X0321935Y0149674D02*
X0321685Y0149674D01*
X0321685Y0148676D02*
X0321935Y0148676D01*
X0321935Y0147677D02*
X0321685Y0147677D01*
X0321935Y0146679D02*
X0321343Y0146679D01*
X0321935Y0145680D02*
X0320684Y0145680D01*
X0321682Y0144682D02*
X0321935Y0144682D01*
X0321935Y0143683D02*
X0321685Y0143683D01*
X0321685Y0142685D02*
X0321935Y0142685D01*
X0321935Y0141686D02*
X0321685Y0141686D01*
X0321685Y0140688D02*
X0321935Y0140688D01*
X0321935Y0139689D02*
X0321353Y0139689D01*
X0321935Y0138691D02*
X0314256Y0138691D01*
X0317435Y0142350D02*
X0311069Y0142350D01*
X0310435Y0141716D01*
X0319685Y0140850D02*
X0319685Y0143850D01*
X0319685Y0140850D02*
X0315185Y0140850D01*
X0315185Y0143850D01*
X0319685Y0143850D01*
X0319685Y0141849D02*
X0315185Y0141849D01*
X0315185Y0142848D02*
X0319685Y0142848D01*
X0319685Y0143847D02*
X0315185Y0143847D01*
X0310302Y0149850D02*
X0310435Y0149984D01*
X0310302Y0149850D02*
X0304435Y0149850D01*
X0294435Y0159850D01*
X0294793Y0156664D02*
X0288502Y0156664D01*
X0287503Y0155665D02*
X0295792Y0155665D01*
X0296790Y0154667D02*
X0286505Y0154667D01*
X0285506Y0153668D02*
X0297789Y0153668D01*
X0298787Y0152670D02*
X0284508Y0152670D01*
X0283509Y0151671D02*
X0299786Y0151671D01*
X0300784Y0150673D02*
X0282511Y0150673D01*
X0281512Y0149674D02*
X0301783Y0149674D01*
X0302781Y0148676D02*
X0280514Y0148676D01*
X0279515Y0147677D02*
X0306573Y0147677D01*
X0321279Y0116723D02*
X0321935Y0116723D01*
X0321935Y0108735D02*
X0320914Y0108735D01*
X0308435Y0112850D02*
X0308435Y0074850D01*
X0299435Y0065850D01*
X0295735Y0061805D02*
X0321935Y0061805D01*
X0321935Y0060807D02*
X0295735Y0060807D01*
X0295735Y0059808D02*
X0321935Y0059808D01*
X0321935Y0058810D02*
X0295735Y0058810D01*
X0295735Y0057811D02*
X0321935Y0057811D01*
X0321935Y0056813D02*
X0321190Y0056813D01*
X0315681Y0056813D02*
X0310545Y0056813D01*
X0310967Y0056638D02*
X0309324Y0057318D01*
X0307547Y0057318D01*
X0305904Y0056638D01*
X0304647Y0055381D01*
X0303967Y0053739D01*
X0303967Y0051961D01*
X0304647Y0050319D01*
X0305904Y0049062D01*
X0307547Y0048381D01*
X0309324Y0048381D01*
X0310967Y0049062D01*
X0312224Y0050319D01*
X0312904Y0051961D01*
X0312904Y0053739D01*
X0312224Y0055381D01*
X0310967Y0056638D01*
X0311791Y0055814D02*
X0314682Y0055814D01*
X0314108Y0054816D02*
X0312458Y0054816D01*
X0312871Y0053817D02*
X0313695Y0053817D01*
X0313685Y0052819D02*
X0312904Y0052819D01*
X0312845Y0051820D02*
X0313721Y0051820D01*
X0314134Y0050822D02*
X0312432Y0050822D01*
X0311728Y0049823D02*
X0314745Y0049823D01*
X0315743Y0048825D02*
X0310394Y0048825D01*
X0311901Y0046828D02*
X0300435Y0046828D01*
X0300435Y0047826D02*
X0321935Y0047826D01*
X0321935Y0046828D02*
X0318970Y0046828D01*
X0320486Y0045829D02*
X0321935Y0045829D01*
X0321935Y0044831D02*
X0321484Y0044831D01*
X0321128Y0048825D02*
X0321935Y0048825D01*
X0310385Y0045829D02*
X0300435Y0045829D01*
X0300435Y0044831D02*
X0309386Y0044831D01*
X0308643Y0043832D02*
X0300815Y0043832D01*
X0301366Y0042834D02*
X0308229Y0042834D01*
X0307816Y0041835D02*
X0301520Y0041835D01*
X0301354Y0040837D02*
X0307636Y0040837D01*
X0307636Y0039838D02*
X0300785Y0039838D01*
X0299227Y0038840D02*
X0307636Y0038840D01*
X0307826Y0037841D02*
X0293535Y0037841D01*
X0293535Y0036843D02*
X0308239Y0036843D01*
X0308653Y0035844D02*
X0293125Y0035844D01*
X0292643Y0034846D02*
X0309410Y0034846D01*
X0310409Y0033847D02*
X0291645Y0033847D01*
X0293535Y0038840D02*
X0297644Y0038840D01*
X0296085Y0039838D02*
X0293676Y0039838D01*
X0294675Y0040837D02*
X0295517Y0040837D01*
X0298435Y0041850D02*
X0298435Y0052850D01*
X0302904Y0052819D02*
X0303967Y0052819D01*
X0303999Y0053817D02*
X0302871Y0053817D01*
X0302458Y0054816D02*
X0304413Y0054816D01*
X0305080Y0055814D02*
X0301791Y0055814D01*
X0300545Y0056813D02*
X0306326Y0056813D01*
X0304025Y0051820D02*
X0302845Y0051820D01*
X0302432Y0050822D02*
X0304439Y0050822D01*
X0305143Y0049823D02*
X0301728Y0049823D01*
X0300435Y0048825D02*
X0306477Y0048825D01*
X0296326Y0056813D02*
X0295735Y0056813D01*
X0291135Y0056813D02*
X0290545Y0056813D01*
X0290435Y0057811D02*
X0291135Y0057811D01*
X0291135Y0058810D02*
X0290435Y0058810D01*
X0290435Y0059808D02*
X0291135Y0059808D01*
X0291135Y0060807D02*
X0290435Y0060807D01*
X0290435Y0061805D02*
X0291135Y0061805D01*
X0291135Y0062804D02*
X0290435Y0062804D01*
X0290435Y0063802D02*
X0291135Y0063802D01*
X0291135Y0064801D02*
X0290435Y0064801D01*
X0290435Y0065799D02*
X0291135Y0065799D01*
X0291135Y0066798D02*
X0290435Y0066798D01*
X0290435Y0067796D02*
X0291135Y0067796D01*
X0291135Y0068795D02*
X0290435Y0068795D01*
X0290320Y0069793D02*
X0291135Y0069793D01*
X0276477Y0048825D02*
X0275435Y0048825D01*
X0268435Y0037850D02*
X0263435Y0042850D01*
X0219435Y0061850D02*
X0205435Y0061850D01*
X0203435Y0063850D01*
X0206326Y0056813D02*
X0200501Y0056813D01*
X0201791Y0055814D02*
X0205080Y0055814D01*
X0204413Y0054816D02*
X0202449Y0054816D01*
X0202806Y0053817D02*
X0203999Y0053817D01*
X0203967Y0052819D02*
X0198920Y0052819D01*
X0198920Y0052366D02*
X0202883Y0052366D01*
X0202794Y0051804D01*
X0202577Y0051135D01*
X0202257Y0050508D01*
X0201844Y0049939D01*
X0201346Y0049442D01*
X0200777Y0049028D01*
X0200151Y0048709D01*
X0199482Y0048492D01*
X0198920Y0048402D01*
X0198920Y0052366D01*
X0198920Y0051820D02*
X0197951Y0051820D01*
X0197951Y0050822D02*
X0198920Y0050822D01*
X0198920Y0049823D02*
X0197951Y0049823D01*
X0197951Y0048825D02*
X0198920Y0048825D01*
X0200378Y0048825D02*
X0201582Y0048825D01*
X0201728Y0049823D02*
X0202580Y0049823D01*
X0202417Y0050822D02*
X0203579Y0050822D01*
X0204025Y0051820D02*
X0202796Y0051820D01*
X0208435Y0052850D02*
X0193435Y0037850D01*
X0191062Y0039838D02*
X0171787Y0039838D01*
X0172460Y0040837D02*
X0192586Y0040837D01*
X0194592Y0041835D02*
X0172831Y0041835D01*
X0166394Y0038840D02*
X0166310Y0038840D01*
X0165083Y0039838D02*
X0164359Y0039838D01*
X0164411Y0040837D02*
X0162472Y0040837D01*
X0162512Y0039838D02*
X0161787Y0039838D01*
X0162886Y0041835D02*
X0164040Y0041835D01*
X0163435Y0035350D02*
X0147435Y0035350D01*
X0149685Y0036850D02*
X0149685Y0033850D01*
X0145185Y0033850D01*
X0145185Y0036850D01*
X0149685Y0036850D01*
X0149685Y0034849D02*
X0145185Y0034849D01*
X0145185Y0035848D02*
X0149685Y0035848D01*
X0149685Y0036847D02*
X0145185Y0036847D01*
X0147435Y0042350D02*
X0136935Y0042350D01*
X0136435Y0041850D01*
X0135165Y0043832D02*
X0089716Y0043832D01*
X0089716Y0042834D02*
X0134166Y0042834D01*
X0133168Y0041835D02*
X0089716Y0041835D01*
X0089716Y0040837D02*
X0132169Y0040837D01*
X0131171Y0039838D02*
X0089107Y0039838D01*
X0089716Y0044831D02*
X0136163Y0044831D01*
X0137162Y0045829D02*
X0089140Y0045829D01*
X0089135Y0046828D02*
X0138160Y0046828D01*
X0139159Y0047826D02*
X0089135Y0047826D01*
X0089135Y0048825D02*
X0140157Y0048825D01*
X0141156Y0049823D02*
X0089135Y0049823D01*
X0089135Y0050822D02*
X0142154Y0050822D01*
X0143153Y0051820D02*
X0089135Y0051820D01*
X0089135Y0052819D02*
X0144151Y0052819D01*
X0143435Y0054850D02*
X0111435Y0054850D01*
X0110156Y0056130D01*
X0110156Y0059334D01*
X0112715Y0059334D02*
X0115274Y0059334D01*
X0115274Y0067689D01*
X0117435Y0067850D01*
X0121435Y0067850D02*
X0110412Y0067986D01*
X0110156Y0068243D01*
X0110156Y0082366D01*
X0110156Y0086130D01*
X0108435Y0087850D01*
X0102176Y0087850D01*
X0098620Y0083773D02*
X0098251Y0083773D01*
X0095195Y0083773D02*
X0094195Y0083773D01*
X0094195Y0084771D02*
X0095195Y0084771D01*
X0095195Y0085770D02*
X0094195Y0085770D01*
X0094195Y0086768D02*
X0095195Y0086768D01*
X0094195Y0087767D02*
X0088735Y0087767D01*
X0088735Y0088765D02*
X0090636Y0088765D01*
X0090636Y0088350D02*
X0090636Y0091000D01*
X0090738Y0091382D01*
X0090936Y0091724D01*
X0091215Y0092003D01*
X0091557Y0092201D01*
X0091939Y0092303D01*
X0094195Y0092303D01*
X0094195Y0088350D01*
X0090636Y0088350D01*
X0090636Y0089764D02*
X0088735Y0089764D01*
X0088735Y0090762D02*
X0090636Y0090762D01*
X0090973Y0091761D02*
X0088735Y0091761D01*
X0088735Y0092759D02*
X0105698Y0092759D01*
X0105898Y0091761D02*
X0106696Y0091761D01*
X0106235Y0090762D02*
X0107695Y0090762D01*
X0107435Y0093850D02*
X0107435Y0103850D01*
X0112435Y0108850D01*
X0115645Y0105740D02*
X0116497Y0105740D01*
X0116397Y0106738D02*
X0117495Y0106738D01*
X0118060Y0107737D02*
X0116811Y0107737D01*
X0116904Y0108735D02*
X0117967Y0108735D01*
X0117967Y0109734D02*
X0116904Y0109734D01*
X0116492Y0110732D02*
X0118378Y0110732D01*
X0118997Y0111731D02*
X0115874Y0111731D01*
X0114746Y0112729D02*
X0120124Y0112729D01*
X0122435Y0108850D02*
X0117435Y0103850D01*
X0117435Y0093850D01*
X0127435Y0083850D01*
X0151435Y0083850D01*
X0151677Y0078780D02*
X0137185Y0078780D01*
X0137185Y0077782D02*
X0152675Y0077782D01*
X0153674Y0076783D02*
X0137185Y0076783D01*
X0137185Y0075784D02*
X0137999Y0075784D01*
X0137985Y0075771D02*
X0137788Y0075429D01*
X0137685Y0075047D01*
X0137685Y0073350D01*
X0140935Y0073350D01*
X0140935Y0076350D01*
X0138988Y0076350D01*
X0138606Y0076248D01*
X0138264Y0076050D01*
X0137985Y0075771D01*
X0137685Y0074786D02*
X0137185Y0074786D01*
X0137185Y0073787D02*
X0137685Y0073787D01*
X0136368Y0072789D02*
X0140935Y0072789D01*
X0140935Y0073787D02*
X0141935Y0073787D01*
X0141935Y0073350D02*
X0141935Y0076350D01*
X0143883Y0076350D01*
X0144264Y0076248D01*
X0144606Y0076050D01*
X0144886Y0075771D01*
X0145083Y0075429D01*
X0145185Y0075047D01*
X0145185Y0073350D01*
X0141935Y0073350D01*
X0141935Y0072789D02*
X0146471Y0072789D01*
X0145185Y0073787D02*
X0156669Y0073787D01*
X0155671Y0074786D02*
X0145185Y0074786D01*
X0144872Y0075784D02*
X0154672Y0075784D01*
X0157668Y0072789D02*
X0148400Y0072789D01*
X0149857Y0071790D02*
X0161658Y0071790D01*
X0161098Y0070792D02*
X0150384Y0070792D01*
X0150520Y0069793D02*
X0160685Y0069793D01*
X0160685Y0068795D02*
X0150337Y0068795D01*
X0149744Y0067796D02*
X0160730Y0067796D01*
X0161144Y0066798D02*
X0148126Y0066798D01*
X0146637Y0065799D02*
X0161768Y0065799D01*
X0162798Y0064801D02*
X0157371Y0064801D01*
X0155500Y0064801D02*
X0151371Y0064801D01*
X0152845Y0063802D02*
X0154026Y0063802D01*
X0153492Y0062804D02*
X0153379Y0062804D01*
X0150435Y0061850D02*
X0142435Y0061850D01*
X0137435Y0056850D01*
X0127435Y0056850D01*
X0125935Y0058350D01*
X0125935Y0061850D01*
X0127435Y0059600D02*
X0124435Y0059600D01*
X0124435Y0064100D01*
X0127435Y0064100D01*
X0127435Y0059600D01*
X0127435Y0060599D02*
X0124435Y0060599D01*
X0124435Y0061598D02*
X0127435Y0061598D01*
X0127435Y0062597D02*
X0124435Y0062597D01*
X0124435Y0063596D02*
X0127435Y0063596D01*
X0125935Y0061850D02*
X0125435Y0060350D01*
X0125935Y0061850D02*
X0119935Y0061850D01*
X0126435Y0067850D02*
X0126435Y0069350D01*
X0128685Y0070850D02*
X0128685Y0067850D01*
X0124185Y0067850D01*
X0124185Y0070850D01*
X0128685Y0070850D01*
X0128685Y0068849D02*
X0124185Y0068849D01*
X0124185Y0069848D02*
X0128685Y0069848D01*
X0128685Y0070847D02*
X0124185Y0070847D01*
X0122859Y0072352D02*
X0122550Y0073097D01*
X0121931Y0073716D01*
X0121920Y0080367D01*
X0121920Y0081194D01*
X0121918Y0081196D01*
X0121918Y0081198D01*
X0121333Y0081781D01*
X0120857Y0082257D01*
X0119951Y0083182D01*
X0119951Y0083194D01*
X0119373Y0083772D01*
X0118801Y0084357D01*
X0118788Y0084357D01*
X0118780Y0084366D01*
X0117962Y0084366D01*
X0117463Y0084371D01*
X0117463Y0085349D01*
X0116584Y0086228D01*
X0114715Y0086228D01*
X0114715Y0089399D01*
X0109435Y0094678D01*
X0109435Y0095531D01*
X0109904Y0095062D01*
X0111547Y0094381D01*
X0113324Y0094381D01*
X0114967Y0095062D01*
X0115435Y0095531D01*
X0115435Y0093022D01*
X0125435Y0083022D01*
X0126607Y0081850D01*
X0133607Y0081850D01*
X0131607Y0079850D01*
X0130564Y0079850D01*
X0130039Y0079325D01*
X0129514Y0079850D01*
X0123357Y0079850D01*
X0122185Y0078678D01*
X0122185Y0074022D01*
X0123357Y0072850D01*
X0129514Y0072850D01*
X0130039Y0073375D01*
X0130564Y0072850D01*
X0136307Y0072850D01*
X0130564Y0072850D01*
X0130039Y0072325D01*
X0129514Y0072850D01*
X0123357Y0072850D01*
X0122859Y0072352D01*
X0122678Y0072789D02*
X0123296Y0072789D01*
X0122419Y0073787D02*
X0121931Y0073787D01*
X0121929Y0074786D02*
X0122185Y0074786D01*
X0122185Y0075784D02*
X0121928Y0075784D01*
X0121926Y0076783D02*
X0122185Y0076783D01*
X0122185Y0077782D02*
X0121924Y0077782D01*
X0121922Y0078780D02*
X0122287Y0078780D01*
X0121921Y0079779D02*
X0123286Y0079779D01*
X0121920Y0080777D02*
X0132534Y0080777D01*
X0133533Y0081776D02*
X0121338Y0081776D01*
X0120350Y0082774D02*
X0125683Y0082774D01*
X0124684Y0083773D02*
X0119373Y0083773D01*
X0117951Y0082366D02*
X0115274Y0082366D01*
X0112715Y0082366D02*
X0112715Y0088570D01*
X0107435Y0093850D01*
X0105435Y0093758D02*
X0088735Y0093758D01*
X0088735Y0094756D02*
X0105435Y0094756D01*
X0105435Y0095755D02*
X0088735Y0095755D01*
X0088735Y0096753D02*
X0105435Y0096753D01*
X0105435Y0097752D02*
X0088735Y0097752D01*
X0088735Y0098750D02*
X0105435Y0098750D01*
X0105435Y0099749D02*
X0088735Y0099749D01*
X0088735Y0100747D02*
X0105435Y0100747D01*
X0105435Y0101746D02*
X0088735Y0101746D01*
X0088735Y0102744D02*
X0105435Y0102744D01*
X0105435Y0103743D02*
X0088735Y0103743D01*
X0088735Y0104741D02*
X0105498Y0104741D01*
X0106497Y0105740D02*
X0088735Y0105740D01*
X0088735Y0106738D02*
X0107495Y0106738D01*
X0108060Y0107737D02*
X0088735Y0107737D01*
X0088735Y0108735D02*
X0107967Y0108735D01*
X0107967Y0109734D02*
X0088735Y0109734D01*
X0088735Y0110732D02*
X0108378Y0110732D01*
X0108997Y0111731D02*
X0088735Y0111731D01*
X0088735Y0112729D02*
X0110124Y0112729D01*
X0114193Y0104741D02*
X0115498Y0104741D01*
X0115435Y0103743D02*
X0110157Y0103743D01*
X0110160Y0102744D02*
X0109435Y0102744D01*
X0114710Y0102744D02*
X0115435Y0102744D01*
X0119435Y0102744D02*
X0120160Y0102744D01*
X0120157Y0103743D02*
X0135714Y0103743D01*
X0135435Y0104741D02*
X0134193Y0104741D01*
X0134710Y0102744D02*
X0136713Y0102744D01*
X0135859Y0101746D02*
X0139012Y0101746D01*
X0138385Y0100747D02*
X0136486Y0100747D01*
X0136900Y0099749D02*
X0137971Y0099749D01*
X0137967Y0098750D02*
X0136904Y0098750D01*
X0136817Y0097752D02*
X0138054Y0097752D01*
X0138467Y0096753D02*
X0137361Y0096753D01*
X0138359Y0095755D02*
X0139211Y0095755D01*
X0139358Y0094756D02*
X0140642Y0094756D01*
X0144229Y0094756D02*
X0160513Y0094756D01*
X0160685Y0095755D02*
X0145660Y0095755D01*
X0146404Y0096753D02*
X0160685Y0096753D01*
X0160685Y0097752D02*
X0146817Y0097752D01*
X0146904Y0098750D02*
X0160685Y0098750D01*
X0160685Y0099749D02*
X0146900Y0099749D01*
X0146486Y0100747D02*
X0160685Y0100747D01*
X0160685Y0101746D02*
X0145859Y0101746D01*
X0146904Y0106738D02*
X0153962Y0106738D01*
X0155345Y0107737D02*
X0146904Y0107737D01*
X0146904Y0109734D02*
X0154834Y0109734D01*
X0154171Y0110732D02*
X0146904Y0110732D01*
X0146904Y0111731D02*
X0153758Y0111731D01*
X0160914Y0108735D02*
X0166692Y0108735D01*
X0165232Y0109734D02*
X0162037Y0109734D01*
X0162700Y0110732D02*
X0164476Y0110732D01*
X0164062Y0111731D02*
X0163113Y0111731D01*
X0163185Y0112729D02*
X0163967Y0112729D01*
X0163967Y0113728D02*
X0163185Y0113728D01*
X0162799Y0114726D02*
X0164376Y0114726D01*
X0164991Y0115725D02*
X0162278Y0115725D01*
X0162992Y0120718D02*
X0152235Y0120718D01*
X0141195Y0123713D02*
X0140195Y0123713D01*
X0140195Y0122715D02*
X0119725Y0122715D01*
X0126469Y0119719D02*
X0135302Y0119719D01*
X0133944Y0118720D02*
X0127827Y0118720D01*
X0128313Y0117722D02*
X0133458Y0117722D01*
X0133351Y0116723D02*
X0128420Y0116723D01*
X0128435Y0113850D02*
X0125335Y0116850D01*
X0128435Y0113850D02*
X0134435Y0113850D01*
X0137435Y0110850D01*
X0137435Y0104850D01*
X0138435Y0103850D01*
X0155435Y0103850D01*
X0156435Y0104850D01*
X0158691Y0102744D02*
X0160708Y0102744D01*
X0170179Y0108735D02*
X0176668Y0108735D01*
X0177951Y0108735D02*
X0178920Y0108735D01*
X0178920Y0109734D02*
X0177951Y0109734D01*
X0177951Y0110732D02*
X0178920Y0110732D01*
X0180203Y0108735D02*
X0186692Y0108735D01*
X0185232Y0109734D02*
X0181639Y0109734D01*
X0182372Y0110732D02*
X0184476Y0110732D01*
X0184062Y0111731D02*
X0182770Y0111731D01*
X0178920Y0113728D02*
X0177951Y0113728D01*
X0177951Y0114726D02*
X0178920Y0114726D01*
X0178920Y0115725D02*
X0177951Y0115725D01*
X0177951Y0116723D02*
X0178920Y0116723D01*
X0174101Y0111731D02*
X0172809Y0111731D01*
X0172395Y0110732D02*
X0174499Y0110732D01*
X0175232Y0109734D02*
X0171639Y0109734D01*
X0179525Y0107737D02*
X0190494Y0107737D01*
X0190179Y0108735D02*
X0191435Y0108735D01*
X0183435Y0104850D02*
X0178435Y0104850D01*
X0180691Y0102744D02*
X0181435Y0102744D01*
X0180549Y0092759D02*
X0174355Y0092759D01*
X0171693Y0089764D02*
X0170100Y0089764D01*
X0169792Y0090762D02*
X0170695Y0090762D01*
X0169696Y0091761D02*
X0169192Y0091761D01*
X0166435Y0079850D02*
X0165435Y0078850D01*
X0166435Y0079850D02*
X0208435Y0079850D01*
X0195835Y0058810D02*
X0157155Y0058810D01*
X0148435Y0053850D02*
X0147435Y0052850D01*
X0145435Y0056850D02*
X0143435Y0054850D01*
X0137565Y0059808D02*
X0136435Y0059808D01*
X0136435Y0060807D02*
X0138564Y0060807D01*
X0139562Y0061805D02*
X0136435Y0061805D01*
X0136435Y0062804D02*
X0140561Y0062804D01*
X0141559Y0063802D02*
X0136435Y0063802D01*
X0136435Y0064801D02*
X0149500Y0064801D01*
X0141935Y0074786D02*
X0140935Y0074786D01*
X0140935Y0075784D02*
X0141935Y0075784D01*
X0137685Y0071790D02*
X0137185Y0071790D01*
X0137185Y0070792D02*
X0137685Y0070792D01*
X0133435Y0069350D02*
X0132935Y0068850D01*
X0132935Y0061850D01*
X0134435Y0059600D02*
X0131435Y0059600D01*
X0131435Y0064100D01*
X0134435Y0064100D01*
X0134435Y0059600D01*
X0134435Y0060599D02*
X0131435Y0060599D01*
X0131435Y0061598D02*
X0134435Y0061598D01*
X0134435Y0062597D02*
X0131435Y0062597D01*
X0131435Y0063596D02*
X0134435Y0063596D01*
X0133435Y0067850D02*
X0133435Y0069350D01*
X0130503Y0072789D02*
X0129575Y0072789D01*
X0128685Y0074850D02*
X0128685Y0077850D01*
X0128685Y0074850D02*
X0124185Y0074850D01*
X0124185Y0077850D01*
X0128685Y0077850D01*
X0128685Y0075849D02*
X0124185Y0075849D01*
X0124185Y0076848D02*
X0128685Y0076848D01*
X0128685Y0077847D02*
X0124185Y0077847D01*
X0126435Y0076350D02*
X0133435Y0076350D01*
X0130493Y0079779D02*
X0129585Y0079779D01*
X0123686Y0084771D02*
X0117463Y0084771D01*
X0117043Y0085770D02*
X0122687Y0085770D01*
X0121689Y0086768D02*
X0114715Y0086768D01*
X0114715Y0087767D02*
X0120690Y0087767D01*
X0119692Y0088765D02*
X0114715Y0088765D01*
X0114350Y0089764D02*
X0118693Y0089764D01*
X0117695Y0090762D02*
X0113352Y0090762D01*
X0112353Y0091761D02*
X0116696Y0091761D01*
X0115698Y0092759D02*
X0111355Y0092759D01*
X0110356Y0093758D02*
X0115435Y0093758D01*
X0115435Y0094756D02*
X0114229Y0094756D01*
X0110642Y0094756D02*
X0109435Y0094756D01*
X0098453Y0091761D02*
X0098418Y0091761D01*
X0095195Y0091761D02*
X0094195Y0091761D01*
X0094195Y0090762D02*
X0095195Y0090762D01*
X0095195Y0089764D02*
X0094195Y0089764D01*
X0094195Y0088765D02*
X0095195Y0088765D01*
X0090636Y0086768D02*
X0088735Y0086768D01*
X0088735Y0085770D02*
X0090636Y0085770D01*
X0090636Y0084771D02*
X0088735Y0084771D01*
X0088735Y0083773D02*
X0091140Y0083773D01*
X0089195Y0082774D02*
X0105408Y0082774D01*
X0105408Y0082366D02*
X0105408Y0079806D01*
X0105510Y0079425D01*
X0105708Y0079083D01*
X0105987Y0078803D01*
X0106329Y0078606D01*
X0106710Y0078504D01*
X0107597Y0078504D01*
X0107597Y0082366D01*
X0107597Y0082366D01*
X0105408Y0082366D01*
X0105408Y0081776D02*
X0089716Y0081776D01*
X0089716Y0080777D02*
X0105408Y0080777D01*
X0105415Y0079779D02*
X0089716Y0079779D01*
X0089716Y0078780D02*
X0096115Y0078780D01*
X0096085Y0078728D02*
X0095983Y0078347D01*
X0095983Y0076090D01*
X0099935Y0076090D01*
X0099935Y0079649D01*
X0097285Y0079649D01*
X0096904Y0079547D01*
X0096562Y0079349D01*
X0096282Y0079070D01*
X0096085Y0078728D01*
X0095983Y0077782D02*
X0089716Y0077782D01*
X0089052Y0076783D02*
X0095983Y0076783D01*
X0095983Y0074786D02*
X0080848Y0074786D01*
X0080661Y0074599D02*
X0081159Y0075096D01*
X0081572Y0075665D01*
X0081891Y0076292D01*
X0082109Y0076961D01*
X0082219Y0077656D01*
X0082219Y0080492D01*
X0078235Y0080492D01*
X0078235Y0081460D01*
X0082219Y0081460D01*
X0082219Y0084296D01*
X0082109Y0084991D01*
X0081891Y0085660D01*
X0081572Y0086286D01*
X0081159Y0086856D01*
X0080661Y0087353D01*
X0080092Y0087766D01*
X0079466Y0088086D01*
X0078797Y0088303D01*
X0078235Y0088392D01*
X0078235Y0081460D01*
X0077266Y0081460D01*
X0077266Y0080492D01*
X0073282Y0080492D01*
X0073282Y0077656D01*
X0073392Y0076961D01*
X0073609Y0076292D01*
X0073929Y0075665D01*
X0074342Y0075096D01*
X0074839Y0074599D01*
X0075408Y0074186D01*
X0076035Y0073866D01*
X0076704Y0073649D01*
X0077266Y0073560D01*
X0077266Y0080492D01*
X0078235Y0080492D01*
X0078235Y0073560D01*
X0078797Y0073649D01*
X0079466Y0073866D01*
X0080092Y0074186D01*
X0080661Y0074599D01*
X0081633Y0075784D02*
X0099935Y0075784D01*
X0099935Y0076783D02*
X0100935Y0076783D01*
X0100935Y0076090D02*
X0100935Y0079649D01*
X0103586Y0079649D01*
X0103967Y0079547D01*
X0104309Y0079349D01*
X0104588Y0079070D01*
X0104786Y0078728D01*
X0104888Y0078347D01*
X0104888Y0076090D01*
X0100935Y0076090D01*
X0100935Y0075784D02*
X0108156Y0075784D01*
X0108156Y0074786D02*
X0104888Y0074786D01*
X0104888Y0073787D02*
X0108156Y0073787D01*
X0108156Y0072789D02*
X0104876Y0072789D01*
X0104388Y0071790D02*
X0108156Y0071790D01*
X0108156Y0070792D02*
X0104888Y0070792D01*
X0100435Y0068110D02*
X0110412Y0067986D01*
X0107597Y0064250D02*
X0107597Y0059334D01*
X0105408Y0059808D02*
X0105235Y0059808D01*
X0105235Y0060807D02*
X0105408Y0060807D01*
X0105408Y0061805D02*
X0105235Y0061805D01*
X0104859Y0062799D02*
X0104656Y0063003D01*
X0104314Y0063201D01*
X0103932Y0063303D01*
X0101676Y0063303D01*
X0101676Y0059350D01*
X0100676Y0059350D01*
X0100676Y0063303D01*
X0098419Y0063303D01*
X0098037Y0063201D01*
X0097695Y0063003D01*
X0097435Y0062743D01*
X0096876Y0063303D01*
X0095995Y0063303D01*
X0095995Y0064917D01*
X0096861Y0064051D01*
X0104009Y0064051D01*
X0104513Y0064554D01*
X0104513Y0063636D01*
X0104859Y0062799D01*
X0104857Y0062804D02*
X0104855Y0062804D01*
X0104513Y0063802D02*
X0095995Y0063802D01*
X0095995Y0064801D02*
X0096111Y0064801D01*
X0097374Y0062804D02*
X0097496Y0062804D01*
X0100676Y0062804D02*
X0101676Y0062804D01*
X0101676Y0061805D02*
X0100676Y0061805D01*
X0100676Y0060807D02*
X0101676Y0060807D01*
X0101676Y0059808D02*
X0100676Y0059808D01*
X0101676Y0058810D02*
X0105408Y0058810D01*
X0105235Y0058350D02*
X0101676Y0058350D01*
X0101676Y0054397D01*
X0103932Y0054397D01*
X0104314Y0054499D01*
X0104656Y0054697D01*
X0104935Y0054976D01*
X0105132Y0055318D01*
X0105235Y0055700D01*
X0105235Y0058350D01*
X0105235Y0057811D02*
X0105408Y0057811D01*
X0105408Y0056813D02*
X0105235Y0056813D01*
X0105235Y0055814D02*
X0105944Y0055814D01*
X0104774Y0054816D02*
X0108641Y0054816D01*
X0109640Y0053817D02*
X0089135Y0053817D01*
X0089135Y0054816D02*
X0090096Y0054816D01*
X0089636Y0055814D02*
X0089135Y0055814D01*
X0089135Y0056813D02*
X0089636Y0056813D01*
X0089636Y0057811D02*
X0089135Y0057811D01*
X0089135Y0058810D02*
X0089636Y0058810D01*
X0089716Y0062804D02*
X0090016Y0062804D01*
X0089716Y0063802D02*
X0091395Y0063802D01*
X0091395Y0064801D02*
X0089168Y0064801D01*
X0091395Y0065799D02*
X0080637Y0065799D01*
X0079639Y0064801D02*
X0083703Y0064801D01*
X0083154Y0063802D02*
X0078640Y0063802D01*
X0077642Y0062804D02*
X0083154Y0062804D01*
X0083154Y0061805D02*
X0076643Y0061805D01*
X0075645Y0060807D02*
X0083154Y0060807D01*
X0083154Y0059808D02*
X0074646Y0059808D01*
X0073648Y0058810D02*
X0083735Y0058810D01*
X0083735Y0057811D02*
X0072649Y0057811D01*
X0071651Y0056813D02*
X0083735Y0056813D01*
X0083735Y0055814D02*
X0070652Y0055814D01*
X0069654Y0054816D02*
X0083735Y0054816D01*
X0083735Y0053817D02*
X0068655Y0053817D01*
X0067657Y0052819D02*
X0083735Y0052819D01*
X0083735Y0051820D02*
X0064982Y0051820D01*
X0063861Y0050822D02*
X0083735Y0050822D01*
X0083735Y0049823D02*
X0054072Y0049823D01*
X0054486Y0048825D02*
X0083735Y0048825D01*
X0083735Y0047826D02*
X0054535Y0047826D01*
X0054466Y0046828D02*
X0083735Y0046828D01*
X0083731Y0045829D02*
X0054053Y0045829D01*
X0058707Y0044831D02*
X0083154Y0044831D01*
X0083154Y0043832D02*
X0059706Y0043832D01*
X0060704Y0042834D02*
X0083154Y0042834D01*
X0083154Y0041835D02*
X0061703Y0041835D01*
X0062701Y0040837D02*
X0083154Y0040837D01*
X0083764Y0039838D02*
X0063700Y0039838D01*
X0064698Y0038840D02*
X0130172Y0038840D01*
X0129174Y0037841D02*
X0065697Y0037841D01*
X0059009Y0050822D02*
X0053345Y0050822D01*
X0051887Y0051820D02*
X0057889Y0051820D01*
X0057244Y0052819D02*
X0019435Y0052819D01*
X0019435Y0053817D02*
X0056830Y0053817D01*
X0056785Y0054816D02*
X0019435Y0054816D01*
X0019435Y0055814D02*
X0021895Y0055814D01*
X0022509Y0055200D02*
X0024135Y0055200D01*
X0024135Y0059550D01*
X0019785Y0059550D01*
X0019785Y0057924D01*
X0022509Y0055200D01*
X0024135Y0055814D02*
X0024735Y0055814D01*
X0024735Y0055200D02*
X0026361Y0055200D01*
X0029085Y0057924D01*
X0029085Y0059550D01*
X0024735Y0059550D01*
X0024735Y0055200D01*
X0024735Y0056813D02*
X0024135Y0056813D01*
X0024135Y0057811D02*
X0024735Y0057811D01*
X0024735Y0058810D02*
X0024135Y0058810D01*
X0024135Y0059550D02*
X0024735Y0059550D01*
X0024735Y0060150D01*
X0024135Y0060150D01*
X0024135Y0059550D01*
X0024135Y0059808D02*
X0019435Y0059808D01*
X0019785Y0060150D02*
X0024135Y0060150D01*
X0024135Y0064500D01*
X0022509Y0064500D01*
X0019785Y0061776D01*
X0019785Y0060150D01*
X0019785Y0060807D02*
X0019435Y0060807D01*
X0019435Y0061805D02*
X0019815Y0061805D01*
X0019435Y0062804D02*
X0020813Y0062804D01*
X0021812Y0063802D02*
X0019435Y0063802D01*
X0019435Y0064801D02*
X0061135Y0064801D01*
X0061135Y0064550D02*
X0056785Y0064550D01*
X0056785Y0062924D01*
X0059509Y0060200D01*
X0061135Y0060200D01*
X0061135Y0064550D01*
X0061135Y0065150D01*
X0056785Y0065150D01*
X0056785Y0066776D01*
X0059509Y0069500D01*
X0061135Y0069500D01*
X0061135Y0065150D01*
X0061735Y0065150D01*
X0061735Y0069500D01*
X0063361Y0069500D01*
X0066085Y0066776D01*
X0066085Y0065150D01*
X0061735Y0065150D01*
X0061735Y0064550D01*
X0061735Y0060200D01*
X0063361Y0060200D01*
X0066085Y0062924D01*
X0066085Y0064550D01*
X0061735Y0064550D01*
X0061135Y0064550D01*
X0061735Y0064801D02*
X0073134Y0064801D01*
X0074132Y0065799D02*
X0066085Y0065799D01*
X0066064Y0066798D02*
X0075131Y0066798D01*
X0076129Y0067796D02*
X0065065Y0067796D01*
X0064067Y0068795D02*
X0077128Y0068795D01*
X0078126Y0069793D02*
X0019435Y0069793D01*
X0019435Y0068795D02*
X0058804Y0068795D01*
X0057806Y0067796D02*
X0019435Y0067796D01*
X0019435Y0066798D02*
X0056807Y0066798D01*
X0056785Y0065799D02*
X0019435Y0065799D01*
X0019435Y0070792D02*
X0092591Y0070792D01*
X0095760Y0070792D02*
X0095983Y0070792D01*
X0096483Y0071790D02*
X0019435Y0071790D01*
X0020374Y0072789D02*
X0095995Y0072789D01*
X0095983Y0073787D02*
X0079223Y0073787D01*
X0078235Y0073787D02*
X0077266Y0073787D01*
X0076278Y0073787D02*
X0021373Y0073787D01*
X0022371Y0074786D02*
X0074652Y0074786D01*
X0073868Y0075784D02*
X0060370Y0075784D01*
X0061368Y0076783D02*
X0073450Y0076783D01*
X0073282Y0077782D02*
X0062367Y0077782D01*
X0063365Y0078780D02*
X0073282Y0078780D01*
X0073282Y0079779D02*
X0064364Y0079779D01*
X0065362Y0080777D02*
X0077266Y0080777D01*
X0077266Y0081460D02*
X0073282Y0081460D01*
X0073282Y0084296D01*
X0073392Y0084991D01*
X0073609Y0085660D01*
X0073929Y0086286D01*
X0074342Y0086856D01*
X0074839Y0087353D01*
X0075408Y0087766D01*
X0076035Y0088086D01*
X0076704Y0088303D01*
X0077266Y0088392D01*
X0077266Y0081460D01*
X0077266Y0081776D02*
X0078235Y0081776D01*
X0078235Y0082774D02*
X0077266Y0082774D01*
X0077266Y0083773D02*
X0078235Y0083773D01*
X0078235Y0084771D02*
X0077266Y0084771D01*
X0077266Y0085770D02*
X0078235Y0085770D01*
X0078235Y0086768D02*
X0077266Y0086768D01*
X0077266Y0087767D02*
X0078235Y0087767D01*
X0080092Y0087767D02*
X0084135Y0087767D01*
X0084135Y0088765D02*
X0073351Y0088765D01*
X0074349Y0089764D02*
X0084135Y0089764D01*
X0084135Y0086768D02*
X0081222Y0086768D01*
X0081836Y0085770D02*
X0084135Y0085770D01*
X0084135Y0084771D02*
X0082144Y0084771D01*
X0082219Y0083773D02*
X0084135Y0083773D01*
X0083676Y0082774D02*
X0082219Y0082774D01*
X0082219Y0081776D02*
X0083154Y0081776D01*
X0083154Y0080777D02*
X0078235Y0080777D01*
X0078235Y0079779D02*
X0077266Y0079779D01*
X0077266Y0078780D02*
X0078235Y0078780D01*
X0078235Y0077782D02*
X0077266Y0077782D01*
X0077266Y0076783D02*
X0078235Y0076783D01*
X0078235Y0075784D02*
X0077266Y0075784D01*
X0077266Y0074786D02*
X0078235Y0074786D01*
X0082051Y0076783D02*
X0083819Y0076783D01*
X0083154Y0077782D02*
X0082219Y0077782D01*
X0082219Y0078780D02*
X0083154Y0078780D01*
X0083154Y0079779D02*
X0082219Y0079779D01*
X0073282Y0081776D02*
X0066361Y0081776D01*
X0067359Y0082774D02*
X0073282Y0082774D01*
X0073282Y0083773D02*
X0068358Y0083773D01*
X0069356Y0084771D02*
X0073357Y0084771D01*
X0073665Y0085770D02*
X0070355Y0085770D01*
X0071354Y0086768D02*
X0074278Y0086768D01*
X0075409Y0087767D02*
X0072352Y0087767D01*
X0061735Y0068795D02*
X0061135Y0068795D01*
X0061135Y0067796D02*
X0061735Y0067796D01*
X0061735Y0066798D02*
X0061135Y0066798D01*
X0061135Y0065799D02*
X0061735Y0065799D01*
X0061735Y0063802D02*
X0061135Y0063802D01*
X0061135Y0062804D02*
X0061735Y0062804D01*
X0061735Y0061805D02*
X0061135Y0061805D01*
X0061135Y0060807D02*
X0061735Y0060807D01*
X0063968Y0060807D02*
X0069140Y0060807D01*
X0070138Y0061805D02*
X0064967Y0061805D01*
X0065965Y0062804D02*
X0071137Y0062804D01*
X0072135Y0063802D02*
X0066085Y0063802D01*
X0068141Y0059808D02*
X0024735Y0059808D01*
X0024735Y0060150D02*
X0029085Y0060150D01*
X0029085Y0061776D01*
X0026361Y0064500D01*
X0024735Y0064500D01*
X0024735Y0060150D01*
X0024735Y0060807D02*
X0024135Y0060807D01*
X0024135Y0061805D02*
X0024735Y0061805D01*
X0024735Y0062804D02*
X0024135Y0062804D01*
X0024135Y0063802D02*
X0024735Y0063802D01*
X0027059Y0063802D02*
X0056785Y0063802D01*
X0056905Y0062804D02*
X0028058Y0062804D01*
X0029056Y0061805D02*
X0057904Y0061805D01*
X0058902Y0060807D02*
X0029085Y0060807D01*
X0029085Y0058810D02*
X0058844Y0058810D01*
X0057821Y0057811D02*
X0028973Y0057811D01*
X0027974Y0056813D02*
X0057215Y0056813D01*
X0056802Y0055814D02*
X0026976Y0055814D01*
X0028984Y0051820D02*
X0019435Y0051820D01*
X0019435Y0050822D02*
X0027526Y0050822D01*
X0026798Y0049823D02*
X0019435Y0049823D01*
X0019435Y0048825D02*
X0026385Y0048825D01*
X0026335Y0047826D02*
X0019435Y0047826D01*
X0019435Y0046828D02*
X0026405Y0046828D01*
X0026818Y0045829D02*
X0019486Y0045829D01*
X0020484Y0044831D02*
X0027574Y0044831D01*
X0029099Y0043832D02*
X0021228Y0043832D01*
X0021641Y0042834D02*
X0035199Y0042834D01*
X0029020Y0041835D02*
X0022055Y0041835D01*
X0022235Y0040837D02*
X0027541Y0040837D01*
X0026805Y0039838D02*
X0023113Y0039838D01*
X0024028Y0038840D02*
X0026391Y0038840D01*
X0026335Y0037841D02*
X0024944Y0037841D01*
X0025859Y0036843D02*
X0026398Y0036843D01*
X0026774Y0035844D02*
X0026812Y0035844D01*
X0040072Y0049823D02*
X0040798Y0049823D01*
X0041526Y0050822D02*
X0039345Y0050822D01*
X0037887Y0051820D02*
X0042984Y0051820D01*
X0064027Y0058810D02*
X0067143Y0058810D01*
X0066144Y0057811D02*
X0065050Y0057811D01*
X0097294Y0054816D02*
X0097577Y0054816D01*
X0100676Y0054816D02*
X0101676Y0054816D01*
X0101676Y0055814D02*
X0100676Y0055814D01*
X0100676Y0056813D02*
X0101676Y0056813D01*
X0101676Y0057811D02*
X0100676Y0057811D01*
X0119935Y0071350D02*
X0119920Y0080366D01*
X0119435Y0080850D01*
X0117951Y0082366D01*
X0107597Y0081776D02*
X0107597Y0081776D01*
X0107597Y0080777D02*
X0107597Y0080777D01*
X0107597Y0079779D02*
X0107597Y0079779D01*
X0107597Y0078780D02*
X0107597Y0078780D01*
X0108156Y0077782D02*
X0104888Y0077782D01*
X0104888Y0076783D02*
X0108156Y0076783D01*
X0106027Y0078780D02*
X0104756Y0078780D01*
X0100935Y0078780D02*
X0099935Y0078780D01*
X0099935Y0077782D02*
X0100935Y0077782D01*
X0136435Y0116850D02*
X0137435Y0117850D01*
X0140195Y0124712D02*
X0141195Y0124712D01*
X0141195Y0125710D02*
X0140195Y0125710D01*
X0140195Y0126709D02*
X0141195Y0126709D01*
X0149435Y0140850D02*
X0155435Y0140850D01*
X0160435Y0145850D01*
X0162630Y0143683D02*
X0184435Y0143683D01*
X0184435Y0142685D02*
X0160099Y0142685D01*
X0159100Y0141686D02*
X0167588Y0141686D01*
X0163290Y0144682D02*
X0184435Y0144682D01*
X0179922Y0145680D02*
X0163520Y0145680D01*
X0163430Y0146679D02*
X0179154Y0146679D01*
X0185716Y0150673D02*
X0209067Y0150673D01*
X0209973Y0149674D02*
X0186439Y0149674D01*
X0187438Y0148676D02*
X0210880Y0148676D01*
X0211780Y0147677D02*
X0188435Y0147677D01*
X0188435Y0146679D02*
X0215573Y0146679D01*
X0213302Y0148984D02*
X0203435Y0159850D01*
X0203627Y0156664D02*
X0197203Y0156664D01*
X0196204Y0155665D02*
X0204533Y0155665D01*
X0205440Y0154667D02*
X0195206Y0154667D01*
X0194207Y0153668D02*
X0206347Y0153668D01*
X0207253Y0152670D02*
X0193209Y0152670D01*
X0185298Y0151671D02*
X0208160Y0151671D01*
X0213302Y0148984D02*
X0219435Y0148984D01*
X0228685Y0149850D02*
X0228685Y0146850D01*
X0224185Y0146850D01*
X0224185Y0149850D01*
X0228685Y0149850D01*
X0228685Y0147849D02*
X0224185Y0147849D01*
X0224185Y0148848D02*
X0228685Y0148848D01*
X0228685Y0149847D02*
X0224185Y0149847D01*
X0250054Y0132700D02*
X0256817Y0132700D01*
X0255074Y0131701D02*
X0251797Y0131701D01*
X0252774Y0130703D02*
X0254097Y0130703D01*
X0253683Y0129704D02*
X0253188Y0129704D01*
X0263304Y0142685D02*
X0263567Y0142685D01*
X0263981Y0143683D02*
X0262890Y0143683D01*
X0261958Y0144682D02*
X0264913Y0144682D01*
X0248435Y0112850D02*
X0248435Y0092850D01*
X0196370Y0056813D02*
X0190545Y0056813D01*
X0191791Y0055814D02*
X0195080Y0055814D01*
X0194422Y0054816D02*
X0192458Y0054816D01*
X0192871Y0053817D02*
X0194064Y0053817D01*
X0215226Y0033847D02*
X0167684Y0033847D01*
X0117498Y0131913D02*
X0119435Y0133850D01*
X0115913Y0144682D02*
X0114085Y0144682D01*
X0114085Y0145680D02*
X0117509Y0145680D01*
X0113183Y0146679D02*
X0157440Y0146679D01*
X0157351Y0145680D02*
X0151362Y0145680D01*
X0152958Y0144682D02*
X0156439Y0144682D01*
X0155440Y0143683D02*
X0153890Y0143683D01*
X0159650Y0136694D02*
X0167154Y0136694D01*
X0123504Y0175636D02*
X0123435Y0175636D01*
X0130839Y0177633D02*
X0131435Y0177633D01*
X0131435Y0178631D02*
X0131185Y0178631D01*
X0131185Y0179630D02*
X0131435Y0179630D01*
X0131435Y0180628D02*
X0131185Y0180628D01*
X0114435Y0174350D02*
X0092435Y0174350D01*
X0096348Y0171642D02*
X0110522Y0171642D01*
X0110161Y0170643D02*
X0096710Y0170643D01*
X0096935Y0169645D02*
X0109935Y0169645D01*
X0109935Y0168646D02*
X0096935Y0168646D01*
X0096935Y0167648D02*
X0109935Y0167648D01*
X0109936Y0166649D02*
X0096934Y0166649D01*
X0096357Y0165651D02*
X0110514Y0165651D01*
X0110129Y0155665D02*
X0096741Y0155665D01*
X0092435Y0153350D02*
X0114435Y0153350D01*
X0099287Y0143683D02*
X0093584Y0143683D01*
X0088007Y0149674D02*
X0087858Y0149674D01*
X0087848Y0150673D02*
X0088491Y0150673D01*
X0087935Y0151671D02*
X0087837Y0151671D01*
X0087827Y0152670D02*
X0087935Y0152670D01*
X0087935Y0153668D02*
X0087816Y0153668D01*
X0087806Y0154667D02*
X0087935Y0154667D01*
X0087795Y0155665D02*
X0088129Y0155665D01*
X0092185Y0165651D02*
X0092685Y0165651D01*
X0092685Y0166649D02*
X0092185Y0166649D01*
X0092185Y0167648D02*
X0092685Y0167648D01*
X0096773Y0176634D02*
X0110098Y0176634D01*
X0092685Y0186619D02*
X0092185Y0186619D01*
X0092185Y0187618D02*
X0092685Y0187618D01*
X0092685Y0188616D02*
X0092185Y0188616D01*
X0088567Y0186619D02*
X0087469Y0186619D01*
X0087459Y0187618D02*
X0087945Y0187618D01*
X0087935Y0188616D02*
X0087448Y0188616D01*
X0087438Y0189615D02*
X0087935Y0189615D01*
X0019785Y0058810D02*
X0019435Y0058810D01*
X0019435Y0057811D02*
X0019898Y0057811D01*
X0019435Y0056813D02*
X0020897Y0056813D01*
D19*
X0167483Y0176228D03*
X0223388Y0199850D03*
X0254483Y0176228D03*
X0310388Y0199850D03*
X0254483Y0223472D03*
X0167483Y0223472D03*
D20*
X0215514Y0223472D03*
X0215514Y0176228D03*
X0302514Y0176228D03*
X0302514Y0223472D03*
D21*
X0294135Y0244950D02*
X0294135Y0252750D01*
X0274435Y0252750D02*
X0274435Y0244950D01*
X0254735Y0244950D02*
X0254735Y0252750D01*
X0207135Y0252750D02*
X0207135Y0244950D01*
X0187435Y0244950D02*
X0187435Y0252750D01*
X0167735Y0252750D02*
X0167735Y0244950D01*
X0052335Y0247950D02*
X0052335Y0255750D01*
X0032535Y0255750D02*
X0032535Y0247950D01*
D22*
X0219435Y0148984D03*
X0219435Y0140716D03*
X0310435Y0141716D03*
X0310435Y0149984D03*
D23*
X0288435Y0127850D03*
X0278435Y0127850D03*
X0268435Y0127850D03*
X0258435Y0127850D03*
X0248435Y0127850D03*
X0238435Y0127850D03*
X0228435Y0127850D03*
X0218435Y0127850D03*
X0218435Y0037850D03*
X0228435Y0037850D03*
X0238435Y0037850D03*
X0248435Y0037850D03*
X0258435Y0037850D03*
X0268435Y0037850D03*
X0278435Y0037850D03*
X0288435Y0037850D03*
D24*
X0077750Y0078007D02*
X0077750Y0083944D01*
X0017120Y0083944D02*
X0017120Y0078007D01*
X0037593Y0193756D02*
X0037593Y0199693D01*
X0057278Y0199693D02*
X0057278Y0193756D01*
D25*
X0032254Y0224173D02*
X0028294Y0228133D01*
X0014576Y0213567D02*
X0010617Y0217527D01*
X0030635Y0047850D02*
X0036235Y0047850D01*
X0044635Y0047850D02*
X0050235Y0047850D01*
X0050235Y0037850D02*
X0044635Y0037850D01*
X0036235Y0037850D02*
X0030635Y0037850D01*
D26*
X0071435Y0238850D02*
X0077435Y0238850D01*
X0077435Y0258850D02*
X0071435Y0258850D01*
D27*
X0119435Y0140850D03*
X0129435Y0140850D03*
X0139435Y0140850D03*
X0149435Y0140850D03*
X0238435Y0140850D03*
X0248435Y0140850D03*
X0258435Y0140850D03*
X0268435Y0140850D03*
D28*
X0115274Y0082366D03*
X0112715Y0082366D03*
X0110156Y0082366D03*
X0107597Y0082366D03*
X0107597Y0059334D03*
X0110156Y0059334D03*
X0112715Y0059334D03*
X0115274Y0059334D03*
D29*
X0100435Y0068110D03*
X0100435Y0075590D03*
D30*
X0081435Y0225850D03*
X0041435Y0225850D03*
D31*
X0158435Y0042850D03*
X0163435Y0035350D03*
X0168435Y0042850D03*
D32*
X0114435Y0153350D03*
X0114435Y0168350D03*
X0114435Y0174350D03*
X0114435Y0189350D03*
X0092435Y0189350D03*
X0092435Y0174350D03*
X0092435Y0168350D03*
X0092435Y0153350D03*
D33*
X0091564Y0142147D02*
X0091564Y0135553D01*
X0089496Y0135553D01*
X0089496Y0142147D01*
X0091564Y0142147D01*
X0091564Y0137619D02*
X0089496Y0137619D01*
X0089496Y0139685D02*
X0091564Y0139685D01*
X0091564Y0141751D02*
X0089496Y0141751D01*
X0103375Y0142147D02*
X0103375Y0135553D01*
X0101307Y0135553D01*
X0101307Y0142147D01*
X0103375Y0142147D01*
X0103375Y0137619D02*
X0101307Y0137619D01*
X0101307Y0139685D02*
X0103375Y0139685D01*
X0103375Y0141751D02*
X0101307Y0141751D01*
D34*
X0095451Y0133933D02*
X0095451Y0131767D01*
X0095451Y0133933D02*
X0097419Y0133933D01*
X0097419Y0131767D01*
X0095451Y0131767D01*
X0095451Y0133735D02*
X0097419Y0133735D01*
D35*
X0126435Y0181850D03*
X0165435Y0098850D03*
X0298435Y0122850D03*
D36*
X0308435Y0122850D03*
X0318435Y0122850D03*
X0165435Y0088850D03*
X0165435Y0078850D03*
X0165435Y0068850D03*
X0126435Y0161850D03*
X0126435Y0171850D03*
D37*
X0116935Y0181850D03*
X0092435Y0174350D03*
X0092435Y0153350D03*
X0116935Y0160850D03*
X0131435Y0155850D03*
X0160435Y0145850D03*
X0175435Y0130850D03*
X0182435Y0125850D03*
X0188435Y0122850D03*
X0178435Y0104850D03*
X0183435Y0093850D03*
X0183435Y0083850D03*
X0183435Y0076850D03*
X0203435Y0068850D03*
X0208435Y0079850D03*
X0219435Y0068850D03*
X0219435Y0061850D03*
X0227435Y0068850D03*
X0243435Y0065850D03*
X0259435Y0070850D03*
X0273435Y0061850D03*
X0286435Y0070850D03*
X0299435Y0065850D03*
X0298435Y0041850D03*
X0257435Y0083850D03*
X0253435Y0094850D03*
X0263435Y0094850D03*
X0293435Y0098850D03*
X0294435Y0159850D03*
X0203435Y0159850D03*
X0136435Y0116850D03*
X0125335Y0116850D03*
X0117498Y0124850D03*
X0156435Y0104850D03*
X0151435Y0083850D03*
X0147435Y0069850D03*
X0150435Y0061850D03*
X0156435Y0061850D03*
X0145435Y0056850D03*
X0147435Y0035350D03*
X0119935Y0061850D03*
X0119935Y0071350D03*
X0107597Y0064250D03*
X0094176Y0068110D03*
X0129435Y0086850D03*
X0193435Y0094850D03*
X0198435Y0094850D03*
X0203435Y0094850D03*
X0193435Y0037850D03*
D38*
X0086435Y0042850D03*
X0086435Y0061850D03*
X0086435Y0079850D03*
X0170435Y0138850D03*
X0182435Y0138850D03*
X0182435Y0148850D03*
X0226435Y0156850D03*
X0317435Y0156850D03*
X0092435Y0189350D03*
D39*
X0091435Y0149850D02*
X0170435Y0149850D01*
X0175435Y0154850D01*
X0192136Y0154850D01*
X0213514Y0176228D01*
X0215514Y0176228D01*
X0226435Y0156850D02*
X0226435Y0148350D01*
X0227935Y0148350D01*
X0230435Y0149850D01*
X0268435Y0149850D01*
X0278435Y0149850D01*
X0302514Y0173929D01*
X0302514Y0176228D01*
X0268435Y0149850D02*
X0268435Y0140850D01*
X0298435Y0112850D02*
X0298435Y0103850D01*
X0293435Y0098850D01*
X0293435Y0042850D01*
X0288435Y0037850D01*
X0198435Y0107850D02*
X0198435Y0112850D01*
X0198435Y0107850D02*
X0193435Y0102850D01*
X0193435Y0094850D01*
X0156435Y0061850D02*
X0148435Y0053850D01*
X0136435Y0041850D01*
X0129435Y0034850D01*
X0065435Y0034850D01*
X0057435Y0042850D01*
X0038435Y0042850D01*
X0033435Y0047850D01*
X0061435Y0054850D02*
X0066435Y0054850D01*
X0079695Y0068110D01*
X0094176Y0068110D01*
X0100435Y0068110D01*
X0101435Y0067850D02*
X0117435Y0067850D01*
X0121435Y0067850D01*
X0126435Y0067850D01*
X0133435Y0067850D01*
X0145435Y0067850D01*
X0147435Y0069850D01*
X0094176Y0068110D02*
X0093695Y0067630D01*
X0093695Y0058850D01*
X0086435Y0079850D02*
X0086435Y0144850D01*
X0091435Y0149850D01*
X0148176Y0122850D02*
X0148435Y0123110D01*
X0148435Y0126850D01*
X0150435Y0128850D01*
X0154435Y0128850D01*
X0157900Y0132314D01*
X0157900Y0132386D01*
X0148176Y0122850D02*
X0148435Y0122110D01*
D40*
X0086435Y0061850D02*
X0086435Y0042850D01*
D41*
X0037593Y0196724D02*
X0037467Y0197850D01*
X0020435Y0197850D01*
X0012597Y0205689D01*
X0012597Y0215547D01*
X0012597Y0241011D01*
X0023435Y0251850D01*
X0032535Y0251850D01*
X0074435Y0238850D02*
X0074435Y0231850D01*
X0081435Y0225850D01*
X0167483Y0223472D02*
X0167735Y0223725D01*
X0167735Y0248850D01*
X0207135Y0248850D02*
X0223435Y0248850D01*
X0228435Y0243850D01*
X0228435Y0204897D01*
X0223388Y0199850D01*
X0254483Y0223472D02*
X0254735Y0223725D01*
X0254735Y0248850D01*
X0294135Y0248850D02*
X0310435Y0248850D01*
X0315435Y0243850D01*
X0315435Y0204897D01*
X0310388Y0199850D01*
D42*
X0233435Y0094850D03*
X0198435Y0060850D03*
M02*
