%
M48
M72
T01C0.0197
T02C0.0236
T03C0.0315
T04C0.0320
T05C0.0360
T06C0.0394
T07C0.0400
T08C0.0433
T09C0.0512
T10C0.0520
T11C0.0650
T12C0.1260
%
T01
X10218Y6811
X10218Y7985
X11460Y6425
X13594Y6385
X14444Y6385
X14744Y6985
X13594Y7235
X13444Y8485
X15644Y10485
X13644Y11685
X12534Y11685
X17844Y10485
X18344Y9385
X19344Y9485
X18344Y8285
X20344Y7985
X21444Y7185
X24344Y6685
X27344Y6185
X29844Y4185
X30044Y6685
X29344Y9885
X26344Y11885
X25344Y11885
X29544Y16085
X31444Y13585
X22744Y16885
X19544Y17785
X18944Y15885
X20044Y13685
X18244Y12385
X15644Y6185
X14744Y3535
X19344Y3785
T02
X23344Y9485
X8644Y7885
X8644Y6185
X8644Y4285
T03
X20751Y16923
X20751Y21647
X29451Y21647
X29451Y16923
T04
X16497Y12531
X15790Y13239
X10944Y13535
X10944Y14385
X6144Y6485
X6144Y5485
X2444Y5985
X1444Y5985
X15844Y4285
X16344Y3535
X16844Y4285
T05
X17844Y13685
X17844Y14685
X4744Y4785
X4744Y3785
X3344Y3785
X3344Y4785
X1260Y21555
X3027Y22615
T06
X3759Y19672
X5728Y19672
X11244Y10885
X12244Y10885
X13244Y10885
X14244Y10885
X14244Y9885
X13244Y9885
X12244Y9885
X11244Y9885
X7775Y8098
X1712Y8098
X16844Y5285
X17844Y5285
X18844Y5285
X19844Y5285
X20844Y5285
X21844Y5285
X22844Y5285
X23844Y5285
X24844Y5285
X25844Y5285
X26844Y5285
X27844Y5285
X28844Y5285
X29844Y5285
X30844Y5285
X30844Y11285
X29844Y11285
X28844Y11285
X27844Y11285
X26844Y11285
X25844Y11285
X24844Y11285
X23844Y11285
X22844Y11285
X21844Y11285
X20844Y11285
X19844Y11285
X18844Y11285
X17844Y11285
X16844Y11285
T07
X16544Y9885
X16544Y8885
X16544Y7885
X16544Y6885
X21844Y3785
X22844Y3785
X23844Y3785
X24844Y3785
X25844Y3785
X26844Y3785
X27844Y3785
X28844Y3785
X28844Y12785
X27844Y12785
X26844Y12785
X25844Y12785
X24844Y12785
X23844Y12785
X22844Y12785
X21844Y12785
X23344Y14085
X24344Y14085
X25344Y14085
X26344Y14085
X14944Y14085
X13944Y14085
X12944Y14085
X11944Y14085
X7444Y23985
X7444Y25985
T08
X8144Y22585
X4144Y22585
T09
X15948Y21647
X21539Y19285
X24648Y16923
X30239Y19285
X24648Y21647
X15948Y16923
T10
X15974Y24185
X17944Y24185
X19914Y24185
X24674Y24185
X26644Y24185
X28614Y24185
X5234Y25285
X3254Y25285
T11
X15844Y11285
X15844Y5285
X31844Y5285
X31844Y11285
T12
X1444Y3985
X1444Y25985
X13844Y25985
X31544Y25985
X31544Y3985
M30
