G75*
%MOIN*%
%OFA0B0*%
%FSLAX25Y25*%
%IPPOS*%
%LPD*%
%AMOC8*
5,1,8,0,0,1.08239X$1,22.5*
%
%ADD10C,0.00000*%
%ADD11R,0.05937X0.05937*%
%ADD12C,0.05937*%
%ADD13C,0.01260*%
%ADD14C,0.06300*%
%ADD15R,0.05000X0.10000*%
%ADD16R,0.03500X0.02400*%
%ADD17OC8,0.06300*%
%ADD18R,0.08600X0.08600*%
%ADD19C,0.07000*%
%ADD20C,0.01000*%
%ADD21R,0.04000X0.04500*%
%ADD22C,0.07800*%
%ADD23R,0.06000X0.06600*%
%ADD24R,0.06299X0.07874*%
%ADD25C,0.07200*%
%ADD26C,0.05937*%
%ADD27C,0.05600*%
%ADD28C,0.06000*%
%ADD29R,0.05118X0.05906*%
%ADD30R,0.05000X0.09000*%
%ADD31R,0.14000X0.08500*%
%ADD32C,0.07400*%
%ADD33OC8,0.07600*%
%ADD34C,0.06000*%
%ADD35C,0.01600*%
%ADD36C,0.03169*%
%ADD37C,0.02400*%
%ADD38R,0.03562X0.03562*%
%ADD39C,0.07600*%
%ADD40C,0.03562*%
D10*
X0006435Y0031850D02*
X0323435Y0031850D01*
X0323435Y0267850D01*
X0006435Y0267850D01*
X0006435Y0031850D01*
X0008136Y0039850D02*
X0008138Y0040008D01*
X0008144Y0040166D01*
X0008154Y0040324D01*
X0008168Y0040482D01*
X0008186Y0040639D01*
X0008207Y0040796D01*
X0008233Y0040952D01*
X0008263Y0041108D01*
X0008296Y0041263D01*
X0008334Y0041416D01*
X0008375Y0041569D01*
X0008420Y0041721D01*
X0008469Y0041872D01*
X0008522Y0042021D01*
X0008578Y0042169D01*
X0008638Y0042315D01*
X0008702Y0042460D01*
X0008770Y0042603D01*
X0008841Y0042745D01*
X0008915Y0042885D01*
X0008993Y0043022D01*
X0009075Y0043158D01*
X0009159Y0043292D01*
X0009248Y0043423D01*
X0009339Y0043552D01*
X0009434Y0043679D01*
X0009531Y0043804D01*
X0009632Y0043926D01*
X0009736Y0044045D01*
X0009843Y0044162D01*
X0009953Y0044276D01*
X0010066Y0044387D01*
X0010181Y0044496D01*
X0010299Y0044601D01*
X0010420Y0044703D01*
X0010543Y0044803D01*
X0010669Y0044899D01*
X0010797Y0044992D01*
X0010927Y0045082D01*
X0011060Y0045168D01*
X0011195Y0045252D01*
X0011331Y0045331D01*
X0011470Y0045408D01*
X0011611Y0045480D01*
X0011753Y0045550D01*
X0011897Y0045615D01*
X0012043Y0045677D01*
X0012190Y0045735D01*
X0012339Y0045790D01*
X0012489Y0045841D01*
X0012640Y0045888D01*
X0012792Y0045931D01*
X0012945Y0045970D01*
X0013100Y0046006D01*
X0013255Y0046037D01*
X0013411Y0046065D01*
X0013567Y0046089D01*
X0013724Y0046109D01*
X0013882Y0046125D01*
X0014039Y0046137D01*
X0014198Y0046145D01*
X0014356Y0046149D01*
X0014514Y0046149D01*
X0014672Y0046145D01*
X0014831Y0046137D01*
X0014988Y0046125D01*
X0015146Y0046109D01*
X0015303Y0046089D01*
X0015459Y0046065D01*
X0015615Y0046037D01*
X0015770Y0046006D01*
X0015925Y0045970D01*
X0016078Y0045931D01*
X0016230Y0045888D01*
X0016381Y0045841D01*
X0016531Y0045790D01*
X0016680Y0045735D01*
X0016827Y0045677D01*
X0016973Y0045615D01*
X0017117Y0045550D01*
X0017259Y0045480D01*
X0017400Y0045408D01*
X0017539Y0045331D01*
X0017675Y0045252D01*
X0017810Y0045168D01*
X0017943Y0045082D01*
X0018073Y0044992D01*
X0018201Y0044899D01*
X0018327Y0044803D01*
X0018450Y0044703D01*
X0018571Y0044601D01*
X0018689Y0044496D01*
X0018804Y0044387D01*
X0018917Y0044276D01*
X0019027Y0044162D01*
X0019134Y0044045D01*
X0019238Y0043926D01*
X0019339Y0043804D01*
X0019436Y0043679D01*
X0019531Y0043552D01*
X0019622Y0043423D01*
X0019711Y0043292D01*
X0019795Y0043158D01*
X0019877Y0043022D01*
X0019955Y0042885D01*
X0020029Y0042745D01*
X0020100Y0042603D01*
X0020168Y0042460D01*
X0020232Y0042315D01*
X0020292Y0042169D01*
X0020348Y0042021D01*
X0020401Y0041872D01*
X0020450Y0041721D01*
X0020495Y0041569D01*
X0020536Y0041416D01*
X0020574Y0041263D01*
X0020607Y0041108D01*
X0020637Y0040952D01*
X0020663Y0040796D01*
X0020684Y0040639D01*
X0020702Y0040482D01*
X0020716Y0040324D01*
X0020726Y0040166D01*
X0020732Y0040008D01*
X0020734Y0039850D01*
X0020732Y0039692D01*
X0020726Y0039534D01*
X0020716Y0039376D01*
X0020702Y0039218D01*
X0020684Y0039061D01*
X0020663Y0038904D01*
X0020637Y0038748D01*
X0020607Y0038592D01*
X0020574Y0038437D01*
X0020536Y0038284D01*
X0020495Y0038131D01*
X0020450Y0037979D01*
X0020401Y0037828D01*
X0020348Y0037679D01*
X0020292Y0037531D01*
X0020232Y0037385D01*
X0020168Y0037240D01*
X0020100Y0037097D01*
X0020029Y0036955D01*
X0019955Y0036815D01*
X0019877Y0036678D01*
X0019795Y0036542D01*
X0019711Y0036408D01*
X0019622Y0036277D01*
X0019531Y0036148D01*
X0019436Y0036021D01*
X0019339Y0035896D01*
X0019238Y0035774D01*
X0019134Y0035655D01*
X0019027Y0035538D01*
X0018917Y0035424D01*
X0018804Y0035313D01*
X0018689Y0035204D01*
X0018571Y0035099D01*
X0018450Y0034997D01*
X0018327Y0034897D01*
X0018201Y0034801D01*
X0018073Y0034708D01*
X0017943Y0034618D01*
X0017810Y0034532D01*
X0017675Y0034448D01*
X0017539Y0034369D01*
X0017400Y0034292D01*
X0017259Y0034220D01*
X0017117Y0034150D01*
X0016973Y0034085D01*
X0016827Y0034023D01*
X0016680Y0033965D01*
X0016531Y0033910D01*
X0016381Y0033859D01*
X0016230Y0033812D01*
X0016078Y0033769D01*
X0015925Y0033730D01*
X0015770Y0033694D01*
X0015615Y0033663D01*
X0015459Y0033635D01*
X0015303Y0033611D01*
X0015146Y0033591D01*
X0014988Y0033575D01*
X0014831Y0033563D01*
X0014672Y0033555D01*
X0014514Y0033551D01*
X0014356Y0033551D01*
X0014198Y0033555D01*
X0014039Y0033563D01*
X0013882Y0033575D01*
X0013724Y0033591D01*
X0013567Y0033611D01*
X0013411Y0033635D01*
X0013255Y0033663D01*
X0013100Y0033694D01*
X0012945Y0033730D01*
X0012792Y0033769D01*
X0012640Y0033812D01*
X0012489Y0033859D01*
X0012339Y0033910D01*
X0012190Y0033965D01*
X0012043Y0034023D01*
X0011897Y0034085D01*
X0011753Y0034150D01*
X0011611Y0034220D01*
X0011470Y0034292D01*
X0011331Y0034369D01*
X0011195Y0034448D01*
X0011060Y0034532D01*
X0010927Y0034618D01*
X0010797Y0034708D01*
X0010669Y0034801D01*
X0010543Y0034897D01*
X0010420Y0034997D01*
X0010299Y0035099D01*
X0010181Y0035204D01*
X0010066Y0035313D01*
X0009953Y0035424D01*
X0009843Y0035538D01*
X0009736Y0035655D01*
X0009632Y0035774D01*
X0009531Y0035896D01*
X0009434Y0036021D01*
X0009339Y0036148D01*
X0009248Y0036277D01*
X0009159Y0036408D01*
X0009075Y0036542D01*
X0008993Y0036678D01*
X0008915Y0036815D01*
X0008841Y0036955D01*
X0008770Y0037097D01*
X0008702Y0037240D01*
X0008638Y0037385D01*
X0008578Y0037531D01*
X0008522Y0037679D01*
X0008469Y0037828D01*
X0008420Y0037979D01*
X0008375Y0038131D01*
X0008334Y0038284D01*
X0008296Y0038437D01*
X0008263Y0038592D01*
X0008233Y0038748D01*
X0008207Y0038904D01*
X0008186Y0039061D01*
X0008168Y0039218D01*
X0008154Y0039376D01*
X0008144Y0039534D01*
X0008138Y0039692D01*
X0008136Y0039850D01*
X0155185Y0052850D02*
X0155187Y0052963D01*
X0155193Y0053077D01*
X0155203Y0053190D01*
X0155217Y0053302D01*
X0155234Y0053414D01*
X0155256Y0053526D01*
X0155282Y0053636D01*
X0155311Y0053746D01*
X0155344Y0053854D01*
X0155381Y0053962D01*
X0155422Y0054067D01*
X0155466Y0054172D01*
X0155514Y0054275D01*
X0155565Y0054376D01*
X0155620Y0054475D01*
X0155679Y0054572D01*
X0155741Y0054667D01*
X0155806Y0054760D01*
X0155874Y0054851D01*
X0155945Y0054939D01*
X0156020Y0055025D01*
X0156097Y0055108D01*
X0156177Y0055188D01*
X0156260Y0055265D01*
X0156346Y0055340D01*
X0156434Y0055411D01*
X0156525Y0055479D01*
X0156618Y0055544D01*
X0156713Y0055606D01*
X0156810Y0055665D01*
X0156909Y0055720D01*
X0157010Y0055771D01*
X0157113Y0055819D01*
X0157218Y0055863D01*
X0157323Y0055904D01*
X0157431Y0055941D01*
X0157539Y0055974D01*
X0157649Y0056003D01*
X0157759Y0056029D01*
X0157871Y0056051D01*
X0157983Y0056068D01*
X0158095Y0056082D01*
X0158208Y0056092D01*
X0158322Y0056098D01*
X0158435Y0056100D01*
X0158548Y0056098D01*
X0158662Y0056092D01*
X0158775Y0056082D01*
X0158887Y0056068D01*
X0158999Y0056051D01*
X0159111Y0056029D01*
X0159221Y0056003D01*
X0159331Y0055974D01*
X0159439Y0055941D01*
X0159547Y0055904D01*
X0159652Y0055863D01*
X0159757Y0055819D01*
X0159860Y0055771D01*
X0159961Y0055720D01*
X0160060Y0055665D01*
X0160157Y0055606D01*
X0160252Y0055544D01*
X0160345Y0055479D01*
X0160436Y0055411D01*
X0160524Y0055340D01*
X0160610Y0055265D01*
X0160693Y0055188D01*
X0160773Y0055108D01*
X0160850Y0055025D01*
X0160925Y0054939D01*
X0160996Y0054851D01*
X0161064Y0054760D01*
X0161129Y0054667D01*
X0161191Y0054572D01*
X0161250Y0054475D01*
X0161305Y0054376D01*
X0161356Y0054275D01*
X0161404Y0054172D01*
X0161448Y0054067D01*
X0161489Y0053962D01*
X0161526Y0053854D01*
X0161559Y0053746D01*
X0161588Y0053636D01*
X0161614Y0053526D01*
X0161636Y0053414D01*
X0161653Y0053302D01*
X0161667Y0053190D01*
X0161677Y0053077D01*
X0161683Y0052963D01*
X0161685Y0052850D01*
X0161683Y0052737D01*
X0161677Y0052623D01*
X0161667Y0052510D01*
X0161653Y0052398D01*
X0161636Y0052286D01*
X0161614Y0052174D01*
X0161588Y0052064D01*
X0161559Y0051954D01*
X0161526Y0051846D01*
X0161489Y0051738D01*
X0161448Y0051633D01*
X0161404Y0051528D01*
X0161356Y0051425D01*
X0161305Y0051324D01*
X0161250Y0051225D01*
X0161191Y0051128D01*
X0161129Y0051033D01*
X0161064Y0050940D01*
X0160996Y0050849D01*
X0160925Y0050761D01*
X0160850Y0050675D01*
X0160773Y0050592D01*
X0160693Y0050512D01*
X0160610Y0050435D01*
X0160524Y0050360D01*
X0160436Y0050289D01*
X0160345Y0050221D01*
X0160252Y0050156D01*
X0160157Y0050094D01*
X0160060Y0050035D01*
X0159961Y0049980D01*
X0159860Y0049929D01*
X0159757Y0049881D01*
X0159652Y0049837D01*
X0159547Y0049796D01*
X0159439Y0049759D01*
X0159331Y0049726D01*
X0159221Y0049697D01*
X0159111Y0049671D01*
X0158999Y0049649D01*
X0158887Y0049632D01*
X0158775Y0049618D01*
X0158662Y0049608D01*
X0158548Y0049602D01*
X0158435Y0049600D01*
X0158322Y0049602D01*
X0158208Y0049608D01*
X0158095Y0049618D01*
X0157983Y0049632D01*
X0157871Y0049649D01*
X0157759Y0049671D01*
X0157649Y0049697D01*
X0157539Y0049726D01*
X0157431Y0049759D01*
X0157323Y0049796D01*
X0157218Y0049837D01*
X0157113Y0049881D01*
X0157010Y0049929D01*
X0156909Y0049980D01*
X0156810Y0050035D01*
X0156713Y0050094D01*
X0156618Y0050156D01*
X0156525Y0050221D01*
X0156434Y0050289D01*
X0156346Y0050360D01*
X0156260Y0050435D01*
X0156177Y0050512D01*
X0156097Y0050592D01*
X0156020Y0050675D01*
X0155945Y0050761D01*
X0155874Y0050849D01*
X0155806Y0050940D01*
X0155741Y0051033D01*
X0155679Y0051128D01*
X0155620Y0051225D01*
X0155565Y0051324D01*
X0155514Y0051425D01*
X0155466Y0051528D01*
X0155422Y0051633D01*
X0155381Y0051738D01*
X0155344Y0051846D01*
X0155311Y0051954D01*
X0155282Y0052064D01*
X0155256Y0052174D01*
X0155234Y0052286D01*
X0155217Y0052398D01*
X0155203Y0052510D01*
X0155193Y0052623D01*
X0155187Y0052737D01*
X0155185Y0052850D01*
X0155185Y0112850D02*
X0155187Y0112963D01*
X0155193Y0113077D01*
X0155203Y0113190D01*
X0155217Y0113302D01*
X0155234Y0113414D01*
X0155256Y0113526D01*
X0155282Y0113636D01*
X0155311Y0113746D01*
X0155344Y0113854D01*
X0155381Y0113962D01*
X0155422Y0114067D01*
X0155466Y0114172D01*
X0155514Y0114275D01*
X0155565Y0114376D01*
X0155620Y0114475D01*
X0155679Y0114572D01*
X0155741Y0114667D01*
X0155806Y0114760D01*
X0155874Y0114851D01*
X0155945Y0114939D01*
X0156020Y0115025D01*
X0156097Y0115108D01*
X0156177Y0115188D01*
X0156260Y0115265D01*
X0156346Y0115340D01*
X0156434Y0115411D01*
X0156525Y0115479D01*
X0156618Y0115544D01*
X0156713Y0115606D01*
X0156810Y0115665D01*
X0156909Y0115720D01*
X0157010Y0115771D01*
X0157113Y0115819D01*
X0157218Y0115863D01*
X0157323Y0115904D01*
X0157431Y0115941D01*
X0157539Y0115974D01*
X0157649Y0116003D01*
X0157759Y0116029D01*
X0157871Y0116051D01*
X0157983Y0116068D01*
X0158095Y0116082D01*
X0158208Y0116092D01*
X0158322Y0116098D01*
X0158435Y0116100D01*
X0158548Y0116098D01*
X0158662Y0116092D01*
X0158775Y0116082D01*
X0158887Y0116068D01*
X0158999Y0116051D01*
X0159111Y0116029D01*
X0159221Y0116003D01*
X0159331Y0115974D01*
X0159439Y0115941D01*
X0159547Y0115904D01*
X0159652Y0115863D01*
X0159757Y0115819D01*
X0159860Y0115771D01*
X0159961Y0115720D01*
X0160060Y0115665D01*
X0160157Y0115606D01*
X0160252Y0115544D01*
X0160345Y0115479D01*
X0160436Y0115411D01*
X0160524Y0115340D01*
X0160610Y0115265D01*
X0160693Y0115188D01*
X0160773Y0115108D01*
X0160850Y0115025D01*
X0160925Y0114939D01*
X0160996Y0114851D01*
X0161064Y0114760D01*
X0161129Y0114667D01*
X0161191Y0114572D01*
X0161250Y0114475D01*
X0161305Y0114376D01*
X0161356Y0114275D01*
X0161404Y0114172D01*
X0161448Y0114067D01*
X0161489Y0113962D01*
X0161526Y0113854D01*
X0161559Y0113746D01*
X0161588Y0113636D01*
X0161614Y0113526D01*
X0161636Y0113414D01*
X0161653Y0113302D01*
X0161667Y0113190D01*
X0161677Y0113077D01*
X0161683Y0112963D01*
X0161685Y0112850D01*
X0161683Y0112737D01*
X0161677Y0112623D01*
X0161667Y0112510D01*
X0161653Y0112398D01*
X0161636Y0112286D01*
X0161614Y0112174D01*
X0161588Y0112064D01*
X0161559Y0111954D01*
X0161526Y0111846D01*
X0161489Y0111738D01*
X0161448Y0111633D01*
X0161404Y0111528D01*
X0161356Y0111425D01*
X0161305Y0111324D01*
X0161250Y0111225D01*
X0161191Y0111128D01*
X0161129Y0111033D01*
X0161064Y0110940D01*
X0160996Y0110849D01*
X0160925Y0110761D01*
X0160850Y0110675D01*
X0160773Y0110592D01*
X0160693Y0110512D01*
X0160610Y0110435D01*
X0160524Y0110360D01*
X0160436Y0110289D01*
X0160345Y0110221D01*
X0160252Y0110156D01*
X0160157Y0110094D01*
X0160060Y0110035D01*
X0159961Y0109980D01*
X0159860Y0109929D01*
X0159757Y0109881D01*
X0159652Y0109837D01*
X0159547Y0109796D01*
X0159439Y0109759D01*
X0159331Y0109726D01*
X0159221Y0109697D01*
X0159111Y0109671D01*
X0158999Y0109649D01*
X0158887Y0109632D01*
X0158775Y0109618D01*
X0158662Y0109608D01*
X0158548Y0109602D01*
X0158435Y0109600D01*
X0158322Y0109602D01*
X0158208Y0109608D01*
X0158095Y0109618D01*
X0157983Y0109632D01*
X0157871Y0109649D01*
X0157759Y0109671D01*
X0157649Y0109697D01*
X0157539Y0109726D01*
X0157431Y0109759D01*
X0157323Y0109796D01*
X0157218Y0109837D01*
X0157113Y0109881D01*
X0157010Y0109929D01*
X0156909Y0109980D01*
X0156810Y0110035D01*
X0156713Y0110094D01*
X0156618Y0110156D01*
X0156525Y0110221D01*
X0156434Y0110289D01*
X0156346Y0110360D01*
X0156260Y0110435D01*
X0156177Y0110512D01*
X0156097Y0110592D01*
X0156020Y0110675D01*
X0155945Y0110761D01*
X0155874Y0110849D01*
X0155806Y0110940D01*
X0155741Y0111033D01*
X0155679Y0111128D01*
X0155620Y0111225D01*
X0155565Y0111324D01*
X0155514Y0111425D01*
X0155466Y0111528D01*
X0155422Y0111633D01*
X0155381Y0111738D01*
X0155344Y0111846D01*
X0155311Y0111954D01*
X0155282Y0112064D01*
X0155256Y0112174D01*
X0155234Y0112286D01*
X0155217Y0112398D01*
X0155203Y0112510D01*
X0155193Y0112623D01*
X0155187Y0112737D01*
X0155185Y0112850D01*
X0309136Y0039850D02*
X0309138Y0040008D01*
X0309144Y0040166D01*
X0309154Y0040324D01*
X0309168Y0040482D01*
X0309186Y0040639D01*
X0309207Y0040796D01*
X0309233Y0040952D01*
X0309263Y0041108D01*
X0309296Y0041263D01*
X0309334Y0041416D01*
X0309375Y0041569D01*
X0309420Y0041721D01*
X0309469Y0041872D01*
X0309522Y0042021D01*
X0309578Y0042169D01*
X0309638Y0042315D01*
X0309702Y0042460D01*
X0309770Y0042603D01*
X0309841Y0042745D01*
X0309915Y0042885D01*
X0309993Y0043022D01*
X0310075Y0043158D01*
X0310159Y0043292D01*
X0310248Y0043423D01*
X0310339Y0043552D01*
X0310434Y0043679D01*
X0310531Y0043804D01*
X0310632Y0043926D01*
X0310736Y0044045D01*
X0310843Y0044162D01*
X0310953Y0044276D01*
X0311066Y0044387D01*
X0311181Y0044496D01*
X0311299Y0044601D01*
X0311420Y0044703D01*
X0311543Y0044803D01*
X0311669Y0044899D01*
X0311797Y0044992D01*
X0311927Y0045082D01*
X0312060Y0045168D01*
X0312195Y0045252D01*
X0312331Y0045331D01*
X0312470Y0045408D01*
X0312611Y0045480D01*
X0312753Y0045550D01*
X0312897Y0045615D01*
X0313043Y0045677D01*
X0313190Y0045735D01*
X0313339Y0045790D01*
X0313489Y0045841D01*
X0313640Y0045888D01*
X0313792Y0045931D01*
X0313945Y0045970D01*
X0314100Y0046006D01*
X0314255Y0046037D01*
X0314411Y0046065D01*
X0314567Y0046089D01*
X0314724Y0046109D01*
X0314882Y0046125D01*
X0315039Y0046137D01*
X0315198Y0046145D01*
X0315356Y0046149D01*
X0315514Y0046149D01*
X0315672Y0046145D01*
X0315831Y0046137D01*
X0315988Y0046125D01*
X0316146Y0046109D01*
X0316303Y0046089D01*
X0316459Y0046065D01*
X0316615Y0046037D01*
X0316770Y0046006D01*
X0316925Y0045970D01*
X0317078Y0045931D01*
X0317230Y0045888D01*
X0317381Y0045841D01*
X0317531Y0045790D01*
X0317680Y0045735D01*
X0317827Y0045677D01*
X0317973Y0045615D01*
X0318117Y0045550D01*
X0318259Y0045480D01*
X0318400Y0045408D01*
X0318539Y0045331D01*
X0318675Y0045252D01*
X0318810Y0045168D01*
X0318943Y0045082D01*
X0319073Y0044992D01*
X0319201Y0044899D01*
X0319327Y0044803D01*
X0319450Y0044703D01*
X0319571Y0044601D01*
X0319689Y0044496D01*
X0319804Y0044387D01*
X0319917Y0044276D01*
X0320027Y0044162D01*
X0320134Y0044045D01*
X0320238Y0043926D01*
X0320339Y0043804D01*
X0320436Y0043679D01*
X0320531Y0043552D01*
X0320622Y0043423D01*
X0320711Y0043292D01*
X0320795Y0043158D01*
X0320877Y0043022D01*
X0320955Y0042885D01*
X0321029Y0042745D01*
X0321100Y0042603D01*
X0321168Y0042460D01*
X0321232Y0042315D01*
X0321292Y0042169D01*
X0321348Y0042021D01*
X0321401Y0041872D01*
X0321450Y0041721D01*
X0321495Y0041569D01*
X0321536Y0041416D01*
X0321574Y0041263D01*
X0321607Y0041108D01*
X0321637Y0040952D01*
X0321663Y0040796D01*
X0321684Y0040639D01*
X0321702Y0040482D01*
X0321716Y0040324D01*
X0321726Y0040166D01*
X0321732Y0040008D01*
X0321734Y0039850D01*
X0321732Y0039692D01*
X0321726Y0039534D01*
X0321716Y0039376D01*
X0321702Y0039218D01*
X0321684Y0039061D01*
X0321663Y0038904D01*
X0321637Y0038748D01*
X0321607Y0038592D01*
X0321574Y0038437D01*
X0321536Y0038284D01*
X0321495Y0038131D01*
X0321450Y0037979D01*
X0321401Y0037828D01*
X0321348Y0037679D01*
X0321292Y0037531D01*
X0321232Y0037385D01*
X0321168Y0037240D01*
X0321100Y0037097D01*
X0321029Y0036955D01*
X0320955Y0036815D01*
X0320877Y0036678D01*
X0320795Y0036542D01*
X0320711Y0036408D01*
X0320622Y0036277D01*
X0320531Y0036148D01*
X0320436Y0036021D01*
X0320339Y0035896D01*
X0320238Y0035774D01*
X0320134Y0035655D01*
X0320027Y0035538D01*
X0319917Y0035424D01*
X0319804Y0035313D01*
X0319689Y0035204D01*
X0319571Y0035099D01*
X0319450Y0034997D01*
X0319327Y0034897D01*
X0319201Y0034801D01*
X0319073Y0034708D01*
X0318943Y0034618D01*
X0318810Y0034532D01*
X0318675Y0034448D01*
X0318539Y0034369D01*
X0318400Y0034292D01*
X0318259Y0034220D01*
X0318117Y0034150D01*
X0317973Y0034085D01*
X0317827Y0034023D01*
X0317680Y0033965D01*
X0317531Y0033910D01*
X0317381Y0033859D01*
X0317230Y0033812D01*
X0317078Y0033769D01*
X0316925Y0033730D01*
X0316770Y0033694D01*
X0316615Y0033663D01*
X0316459Y0033635D01*
X0316303Y0033611D01*
X0316146Y0033591D01*
X0315988Y0033575D01*
X0315831Y0033563D01*
X0315672Y0033555D01*
X0315514Y0033551D01*
X0315356Y0033551D01*
X0315198Y0033555D01*
X0315039Y0033563D01*
X0314882Y0033575D01*
X0314724Y0033591D01*
X0314567Y0033611D01*
X0314411Y0033635D01*
X0314255Y0033663D01*
X0314100Y0033694D01*
X0313945Y0033730D01*
X0313792Y0033769D01*
X0313640Y0033812D01*
X0313489Y0033859D01*
X0313339Y0033910D01*
X0313190Y0033965D01*
X0313043Y0034023D01*
X0312897Y0034085D01*
X0312753Y0034150D01*
X0312611Y0034220D01*
X0312470Y0034292D01*
X0312331Y0034369D01*
X0312195Y0034448D01*
X0312060Y0034532D01*
X0311927Y0034618D01*
X0311797Y0034708D01*
X0311669Y0034801D01*
X0311543Y0034897D01*
X0311420Y0034997D01*
X0311299Y0035099D01*
X0311181Y0035204D01*
X0311066Y0035313D01*
X0310953Y0035424D01*
X0310843Y0035538D01*
X0310736Y0035655D01*
X0310632Y0035774D01*
X0310531Y0035896D01*
X0310434Y0036021D01*
X0310339Y0036148D01*
X0310248Y0036277D01*
X0310159Y0036408D01*
X0310075Y0036542D01*
X0309993Y0036678D01*
X0309915Y0036815D01*
X0309841Y0036955D01*
X0309770Y0037097D01*
X0309702Y0037240D01*
X0309638Y0037385D01*
X0309578Y0037531D01*
X0309522Y0037679D01*
X0309469Y0037828D01*
X0309420Y0037979D01*
X0309375Y0038131D01*
X0309334Y0038284D01*
X0309296Y0038437D01*
X0309263Y0038592D01*
X0309233Y0038748D01*
X0309207Y0038904D01*
X0309186Y0039061D01*
X0309168Y0039218D01*
X0309154Y0039376D01*
X0309144Y0039534D01*
X0309138Y0039692D01*
X0309136Y0039850D01*
X0315185Y0052850D02*
X0315187Y0052963D01*
X0315193Y0053077D01*
X0315203Y0053190D01*
X0315217Y0053302D01*
X0315234Y0053414D01*
X0315256Y0053526D01*
X0315282Y0053636D01*
X0315311Y0053746D01*
X0315344Y0053854D01*
X0315381Y0053962D01*
X0315422Y0054067D01*
X0315466Y0054172D01*
X0315514Y0054275D01*
X0315565Y0054376D01*
X0315620Y0054475D01*
X0315679Y0054572D01*
X0315741Y0054667D01*
X0315806Y0054760D01*
X0315874Y0054851D01*
X0315945Y0054939D01*
X0316020Y0055025D01*
X0316097Y0055108D01*
X0316177Y0055188D01*
X0316260Y0055265D01*
X0316346Y0055340D01*
X0316434Y0055411D01*
X0316525Y0055479D01*
X0316618Y0055544D01*
X0316713Y0055606D01*
X0316810Y0055665D01*
X0316909Y0055720D01*
X0317010Y0055771D01*
X0317113Y0055819D01*
X0317218Y0055863D01*
X0317323Y0055904D01*
X0317431Y0055941D01*
X0317539Y0055974D01*
X0317649Y0056003D01*
X0317759Y0056029D01*
X0317871Y0056051D01*
X0317983Y0056068D01*
X0318095Y0056082D01*
X0318208Y0056092D01*
X0318322Y0056098D01*
X0318435Y0056100D01*
X0318548Y0056098D01*
X0318662Y0056092D01*
X0318775Y0056082D01*
X0318887Y0056068D01*
X0318999Y0056051D01*
X0319111Y0056029D01*
X0319221Y0056003D01*
X0319331Y0055974D01*
X0319439Y0055941D01*
X0319547Y0055904D01*
X0319652Y0055863D01*
X0319757Y0055819D01*
X0319860Y0055771D01*
X0319961Y0055720D01*
X0320060Y0055665D01*
X0320157Y0055606D01*
X0320252Y0055544D01*
X0320345Y0055479D01*
X0320436Y0055411D01*
X0320524Y0055340D01*
X0320610Y0055265D01*
X0320693Y0055188D01*
X0320773Y0055108D01*
X0320850Y0055025D01*
X0320925Y0054939D01*
X0320996Y0054851D01*
X0321064Y0054760D01*
X0321129Y0054667D01*
X0321191Y0054572D01*
X0321250Y0054475D01*
X0321305Y0054376D01*
X0321356Y0054275D01*
X0321404Y0054172D01*
X0321448Y0054067D01*
X0321489Y0053962D01*
X0321526Y0053854D01*
X0321559Y0053746D01*
X0321588Y0053636D01*
X0321614Y0053526D01*
X0321636Y0053414D01*
X0321653Y0053302D01*
X0321667Y0053190D01*
X0321677Y0053077D01*
X0321683Y0052963D01*
X0321685Y0052850D01*
X0321683Y0052737D01*
X0321677Y0052623D01*
X0321667Y0052510D01*
X0321653Y0052398D01*
X0321636Y0052286D01*
X0321614Y0052174D01*
X0321588Y0052064D01*
X0321559Y0051954D01*
X0321526Y0051846D01*
X0321489Y0051738D01*
X0321448Y0051633D01*
X0321404Y0051528D01*
X0321356Y0051425D01*
X0321305Y0051324D01*
X0321250Y0051225D01*
X0321191Y0051128D01*
X0321129Y0051033D01*
X0321064Y0050940D01*
X0320996Y0050849D01*
X0320925Y0050761D01*
X0320850Y0050675D01*
X0320773Y0050592D01*
X0320693Y0050512D01*
X0320610Y0050435D01*
X0320524Y0050360D01*
X0320436Y0050289D01*
X0320345Y0050221D01*
X0320252Y0050156D01*
X0320157Y0050094D01*
X0320060Y0050035D01*
X0319961Y0049980D01*
X0319860Y0049929D01*
X0319757Y0049881D01*
X0319652Y0049837D01*
X0319547Y0049796D01*
X0319439Y0049759D01*
X0319331Y0049726D01*
X0319221Y0049697D01*
X0319111Y0049671D01*
X0318999Y0049649D01*
X0318887Y0049632D01*
X0318775Y0049618D01*
X0318662Y0049608D01*
X0318548Y0049602D01*
X0318435Y0049600D01*
X0318322Y0049602D01*
X0318208Y0049608D01*
X0318095Y0049618D01*
X0317983Y0049632D01*
X0317871Y0049649D01*
X0317759Y0049671D01*
X0317649Y0049697D01*
X0317539Y0049726D01*
X0317431Y0049759D01*
X0317323Y0049796D01*
X0317218Y0049837D01*
X0317113Y0049881D01*
X0317010Y0049929D01*
X0316909Y0049980D01*
X0316810Y0050035D01*
X0316713Y0050094D01*
X0316618Y0050156D01*
X0316525Y0050221D01*
X0316434Y0050289D01*
X0316346Y0050360D01*
X0316260Y0050435D01*
X0316177Y0050512D01*
X0316097Y0050592D01*
X0316020Y0050675D01*
X0315945Y0050761D01*
X0315874Y0050849D01*
X0315806Y0050940D01*
X0315741Y0051033D01*
X0315679Y0051128D01*
X0315620Y0051225D01*
X0315565Y0051324D01*
X0315514Y0051425D01*
X0315466Y0051528D01*
X0315422Y0051633D01*
X0315381Y0051738D01*
X0315344Y0051846D01*
X0315311Y0051954D01*
X0315282Y0052064D01*
X0315256Y0052174D01*
X0315234Y0052286D01*
X0315217Y0052398D01*
X0315203Y0052510D01*
X0315193Y0052623D01*
X0315187Y0052737D01*
X0315185Y0052850D01*
X0315185Y0112850D02*
X0315187Y0112963D01*
X0315193Y0113077D01*
X0315203Y0113190D01*
X0315217Y0113302D01*
X0315234Y0113414D01*
X0315256Y0113526D01*
X0315282Y0113636D01*
X0315311Y0113746D01*
X0315344Y0113854D01*
X0315381Y0113962D01*
X0315422Y0114067D01*
X0315466Y0114172D01*
X0315514Y0114275D01*
X0315565Y0114376D01*
X0315620Y0114475D01*
X0315679Y0114572D01*
X0315741Y0114667D01*
X0315806Y0114760D01*
X0315874Y0114851D01*
X0315945Y0114939D01*
X0316020Y0115025D01*
X0316097Y0115108D01*
X0316177Y0115188D01*
X0316260Y0115265D01*
X0316346Y0115340D01*
X0316434Y0115411D01*
X0316525Y0115479D01*
X0316618Y0115544D01*
X0316713Y0115606D01*
X0316810Y0115665D01*
X0316909Y0115720D01*
X0317010Y0115771D01*
X0317113Y0115819D01*
X0317218Y0115863D01*
X0317323Y0115904D01*
X0317431Y0115941D01*
X0317539Y0115974D01*
X0317649Y0116003D01*
X0317759Y0116029D01*
X0317871Y0116051D01*
X0317983Y0116068D01*
X0318095Y0116082D01*
X0318208Y0116092D01*
X0318322Y0116098D01*
X0318435Y0116100D01*
X0318548Y0116098D01*
X0318662Y0116092D01*
X0318775Y0116082D01*
X0318887Y0116068D01*
X0318999Y0116051D01*
X0319111Y0116029D01*
X0319221Y0116003D01*
X0319331Y0115974D01*
X0319439Y0115941D01*
X0319547Y0115904D01*
X0319652Y0115863D01*
X0319757Y0115819D01*
X0319860Y0115771D01*
X0319961Y0115720D01*
X0320060Y0115665D01*
X0320157Y0115606D01*
X0320252Y0115544D01*
X0320345Y0115479D01*
X0320436Y0115411D01*
X0320524Y0115340D01*
X0320610Y0115265D01*
X0320693Y0115188D01*
X0320773Y0115108D01*
X0320850Y0115025D01*
X0320925Y0114939D01*
X0320996Y0114851D01*
X0321064Y0114760D01*
X0321129Y0114667D01*
X0321191Y0114572D01*
X0321250Y0114475D01*
X0321305Y0114376D01*
X0321356Y0114275D01*
X0321404Y0114172D01*
X0321448Y0114067D01*
X0321489Y0113962D01*
X0321526Y0113854D01*
X0321559Y0113746D01*
X0321588Y0113636D01*
X0321614Y0113526D01*
X0321636Y0113414D01*
X0321653Y0113302D01*
X0321667Y0113190D01*
X0321677Y0113077D01*
X0321683Y0112963D01*
X0321685Y0112850D01*
X0321683Y0112737D01*
X0321677Y0112623D01*
X0321667Y0112510D01*
X0321653Y0112398D01*
X0321636Y0112286D01*
X0321614Y0112174D01*
X0321588Y0112064D01*
X0321559Y0111954D01*
X0321526Y0111846D01*
X0321489Y0111738D01*
X0321448Y0111633D01*
X0321404Y0111528D01*
X0321356Y0111425D01*
X0321305Y0111324D01*
X0321250Y0111225D01*
X0321191Y0111128D01*
X0321129Y0111033D01*
X0321064Y0110940D01*
X0320996Y0110849D01*
X0320925Y0110761D01*
X0320850Y0110675D01*
X0320773Y0110592D01*
X0320693Y0110512D01*
X0320610Y0110435D01*
X0320524Y0110360D01*
X0320436Y0110289D01*
X0320345Y0110221D01*
X0320252Y0110156D01*
X0320157Y0110094D01*
X0320060Y0110035D01*
X0319961Y0109980D01*
X0319860Y0109929D01*
X0319757Y0109881D01*
X0319652Y0109837D01*
X0319547Y0109796D01*
X0319439Y0109759D01*
X0319331Y0109726D01*
X0319221Y0109697D01*
X0319111Y0109671D01*
X0318999Y0109649D01*
X0318887Y0109632D01*
X0318775Y0109618D01*
X0318662Y0109608D01*
X0318548Y0109602D01*
X0318435Y0109600D01*
X0318322Y0109602D01*
X0318208Y0109608D01*
X0318095Y0109618D01*
X0317983Y0109632D01*
X0317871Y0109649D01*
X0317759Y0109671D01*
X0317649Y0109697D01*
X0317539Y0109726D01*
X0317431Y0109759D01*
X0317323Y0109796D01*
X0317218Y0109837D01*
X0317113Y0109881D01*
X0317010Y0109929D01*
X0316909Y0109980D01*
X0316810Y0110035D01*
X0316713Y0110094D01*
X0316618Y0110156D01*
X0316525Y0110221D01*
X0316434Y0110289D01*
X0316346Y0110360D01*
X0316260Y0110435D01*
X0316177Y0110512D01*
X0316097Y0110592D01*
X0316020Y0110675D01*
X0315945Y0110761D01*
X0315874Y0110849D01*
X0315806Y0110940D01*
X0315741Y0111033D01*
X0315679Y0111128D01*
X0315620Y0111225D01*
X0315565Y0111324D01*
X0315514Y0111425D01*
X0315466Y0111528D01*
X0315422Y0111633D01*
X0315381Y0111738D01*
X0315344Y0111846D01*
X0315311Y0111954D01*
X0315282Y0112064D01*
X0315256Y0112174D01*
X0315234Y0112286D01*
X0315217Y0112398D01*
X0315203Y0112510D01*
X0315193Y0112623D01*
X0315187Y0112737D01*
X0315185Y0112850D01*
X0309136Y0259850D02*
X0309138Y0260008D01*
X0309144Y0260166D01*
X0309154Y0260324D01*
X0309168Y0260482D01*
X0309186Y0260639D01*
X0309207Y0260796D01*
X0309233Y0260952D01*
X0309263Y0261108D01*
X0309296Y0261263D01*
X0309334Y0261416D01*
X0309375Y0261569D01*
X0309420Y0261721D01*
X0309469Y0261872D01*
X0309522Y0262021D01*
X0309578Y0262169D01*
X0309638Y0262315D01*
X0309702Y0262460D01*
X0309770Y0262603D01*
X0309841Y0262745D01*
X0309915Y0262885D01*
X0309993Y0263022D01*
X0310075Y0263158D01*
X0310159Y0263292D01*
X0310248Y0263423D01*
X0310339Y0263552D01*
X0310434Y0263679D01*
X0310531Y0263804D01*
X0310632Y0263926D01*
X0310736Y0264045D01*
X0310843Y0264162D01*
X0310953Y0264276D01*
X0311066Y0264387D01*
X0311181Y0264496D01*
X0311299Y0264601D01*
X0311420Y0264703D01*
X0311543Y0264803D01*
X0311669Y0264899D01*
X0311797Y0264992D01*
X0311927Y0265082D01*
X0312060Y0265168D01*
X0312195Y0265252D01*
X0312331Y0265331D01*
X0312470Y0265408D01*
X0312611Y0265480D01*
X0312753Y0265550D01*
X0312897Y0265615D01*
X0313043Y0265677D01*
X0313190Y0265735D01*
X0313339Y0265790D01*
X0313489Y0265841D01*
X0313640Y0265888D01*
X0313792Y0265931D01*
X0313945Y0265970D01*
X0314100Y0266006D01*
X0314255Y0266037D01*
X0314411Y0266065D01*
X0314567Y0266089D01*
X0314724Y0266109D01*
X0314882Y0266125D01*
X0315039Y0266137D01*
X0315198Y0266145D01*
X0315356Y0266149D01*
X0315514Y0266149D01*
X0315672Y0266145D01*
X0315831Y0266137D01*
X0315988Y0266125D01*
X0316146Y0266109D01*
X0316303Y0266089D01*
X0316459Y0266065D01*
X0316615Y0266037D01*
X0316770Y0266006D01*
X0316925Y0265970D01*
X0317078Y0265931D01*
X0317230Y0265888D01*
X0317381Y0265841D01*
X0317531Y0265790D01*
X0317680Y0265735D01*
X0317827Y0265677D01*
X0317973Y0265615D01*
X0318117Y0265550D01*
X0318259Y0265480D01*
X0318400Y0265408D01*
X0318539Y0265331D01*
X0318675Y0265252D01*
X0318810Y0265168D01*
X0318943Y0265082D01*
X0319073Y0264992D01*
X0319201Y0264899D01*
X0319327Y0264803D01*
X0319450Y0264703D01*
X0319571Y0264601D01*
X0319689Y0264496D01*
X0319804Y0264387D01*
X0319917Y0264276D01*
X0320027Y0264162D01*
X0320134Y0264045D01*
X0320238Y0263926D01*
X0320339Y0263804D01*
X0320436Y0263679D01*
X0320531Y0263552D01*
X0320622Y0263423D01*
X0320711Y0263292D01*
X0320795Y0263158D01*
X0320877Y0263022D01*
X0320955Y0262885D01*
X0321029Y0262745D01*
X0321100Y0262603D01*
X0321168Y0262460D01*
X0321232Y0262315D01*
X0321292Y0262169D01*
X0321348Y0262021D01*
X0321401Y0261872D01*
X0321450Y0261721D01*
X0321495Y0261569D01*
X0321536Y0261416D01*
X0321574Y0261263D01*
X0321607Y0261108D01*
X0321637Y0260952D01*
X0321663Y0260796D01*
X0321684Y0260639D01*
X0321702Y0260482D01*
X0321716Y0260324D01*
X0321726Y0260166D01*
X0321732Y0260008D01*
X0321734Y0259850D01*
X0321732Y0259692D01*
X0321726Y0259534D01*
X0321716Y0259376D01*
X0321702Y0259218D01*
X0321684Y0259061D01*
X0321663Y0258904D01*
X0321637Y0258748D01*
X0321607Y0258592D01*
X0321574Y0258437D01*
X0321536Y0258284D01*
X0321495Y0258131D01*
X0321450Y0257979D01*
X0321401Y0257828D01*
X0321348Y0257679D01*
X0321292Y0257531D01*
X0321232Y0257385D01*
X0321168Y0257240D01*
X0321100Y0257097D01*
X0321029Y0256955D01*
X0320955Y0256815D01*
X0320877Y0256678D01*
X0320795Y0256542D01*
X0320711Y0256408D01*
X0320622Y0256277D01*
X0320531Y0256148D01*
X0320436Y0256021D01*
X0320339Y0255896D01*
X0320238Y0255774D01*
X0320134Y0255655D01*
X0320027Y0255538D01*
X0319917Y0255424D01*
X0319804Y0255313D01*
X0319689Y0255204D01*
X0319571Y0255099D01*
X0319450Y0254997D01*
X0319327Y0254897D01*
X0319201Y0254801D01*
X0319073Y0254708D01*
X0318943Y0254618D01*
X0318810Y0254532D01*
X0318675Y0254448D01*
X0318539Y0254369D01*
X0318400Y0254292D01*
X0318259Y0254220D01*
X0318117Y0254150D01*
X0317973Y0254085D01*
X0317827Y0254023D01*
X0317680Y0253965D01*
X0317531Y0253910D01*
X0317381Y0253859D01*
X0317230Y0253812D01*
X0317078Y0253769D01*
X0316925Y0253730D01*
X0316770Y0253694D01*
X0316615Y0253663D01*
X0316459Y0253635D01*
X0316303Y0253611D01*
X0316146Y0253591D01*
X0315988Y0253575D01*
X0315831Y0253563D01*
X0315672Y0253555D01*
X0315514Y0253551D01*
X0315356Y0253551D01*
X0315198Y0253555D01*
X0315039Y0253563D01*
X0314882Y0253575D01*
X0314724Y0253591D01*
X0314567Y0253611D01*
X0314411Y0253635D01*
X0314255Y0253663D01*
X0314100Y0253694D01*
X0313945Y0253730D01*
X0313792Y0253769D01*
X0313640Y0253812D01*
X0313489Y0253859D01*
X0313339Y0253910D01*
X0313190Y0253965D01*
X0313043Y0254023D01*
X0312897Y0254085D01*
X0312753Y0254150D01*
X0312611Y0254220D01*
X0312470Y0254292D01*
X0312331Y0254369D01*
X0312195Y0254448D01*
X0312060Y0254532D01*
X0311927Y0254618D01*
X0311797Y0254708D01*
X0311669Y0254801D01*
X0311543Y0254897D01*
X0311420Y0254997D01*
X0311299Y0255099D01*
X0311181Y0255204D01*
X0311066Y0255313D01*
X0310953Y0255424D01*
X0310843Y0255538D01*
X0310736Y0255655D01*
X0310632Y0255774D01*
X0310531Y0255896D01*
X0310434Y0256021D01*
X0310339Y0256148D01*
X0310248Y0256277D01*
X0310159Y0256408D01*
X0310075Y0256542D01*
X0309993Y0256678D01*
X0309915Y0256815D01*
X0309841Y0256955D01*
X0309770Y0257097D01*
X0309702Y0257240D01*
X0309638Y0257385D01*
X0309578Y0257531D01*
X0309522Y0257679D01*
X0309469Y0257828D01*
X0309420Y0257979D01*
X0309375Y0258131D01*
X0309334Y0258284D01*
X0309296Y0258437D01*
X0309263Y0258592D01*
X0309233Y0258748D01*
X0309207Y0258904D01*
X0309186Y0259061D01*
X0309168Y0259218D01*
X0309154Y0259376D01*
X0309144Y0259534D01*
X0309138Y0259692D01*
X0309136Y0259850D01*
X0132136Y0259850D02*
X0132138Y0260008D01*
X0132144Y0260166D01*
X0132154Y0260324D01*
X0132168Y0260482D01*
X0132186Y0260639D01*
X0132207Y0260796D01*
X0132233Y0260952D01*
X0132263Y0261108D01*
X0132296Y0261263D01*
X0132334Y0261416D01*
X0132375Y0261569D01*
X0132420Y0261721D01*
X0132469Y0261872D01*
X0132522Y0262021D01*
X0132578Y0262169D01*
X0132638Y0262315D01*
X0132702Y0262460D01*
X0132770Y0262603D01*
X0132841Y0262745D01*
X0132915Y0262885D01*
X0132993Y0263022D01*
X0133075Y0263158D01*
X0133159Y0263292D01*
X0133248Y0263423D01*
X0133339Y0263552D01*
X0133434Y0263679D01*
X0133531Y0263804D01*
X0133632Y0263926D01*
X0133736Y0264045D01*
X0133843Y0264162D01*
X0133953Y0264276D01*
X0134066Y0264387D01*
X0134181Y0264496D01*
X0134299Y0264601D01*
X0134420Y0264703D01*
X0134543Y0264803D01*
X0134669Y0264899D01*
X0134797Y0264992D01*
X0134927Y0265082D01*
X0135060Y0265168D01*
X0135195Y0265252D01*
X0135331Y0265331D01*
X0135470Y0265408D01*
X0135611Y0265480D01*
X0135753Y0265550D01*
X0135897Y0265615D01*
X0136043Y0265677D01*
X0136190Y0265735D01*
X0136339Y0265790D01*
X0136489Y0265841D01*
X0136640Y0265888D01*
X0136792Y0265931D01*
X0136945Y0265970D01*
X0137100Y0266006D01*
X0137255Y0266037D01*
X0137411Y0266065D01*
X0137567Y0266089D01*
X0137724Y0266109D01*
X0137882Y0266125D01*
X0138039Y0266137D01*
X0138198Y0266145D01*
X0138356Y0266149D01*
X0138514Y0266149D01*
X0138672Y0266145D01*
X0138831Y0266137D01*
X0138988Y0266125D01*
X0139146Y0266109D01*
X0139303Y0266089D01*
X0139459Y0266065D01*
X0139615Y0266037D01*
X0139770Y0266006D01*
X0139925Y0265970D01*
X0140078Y0265931D01*
X0140230Y0265888D01*
X0140381Y0265841D01*
X0140531Y0265790D01*
X0140680Y0265735D01*
X0140827Y0265677D01*
X0140973Y0265615D01*
X0141117Y0265550D01*
X0141259Y0265480D01*
X0141400Y0265408D01*
X0141539Y0265331D01*
X0141675Y0265252D01*
X0141810Y0265168D01*
X0141943Y0265082D01*
X0142073Y0264992D01*
X0142201Y0264899D01*
X0142327Y0264803D01*
X0142450Y0264703D01*
X0142571Y0264601D01*
X0142689Y0264496D01*
X0142804Y0264387D01*
X0142917Y0264276D01*
X0143027Y0264162D01*
X0143134Y0264045D01*
X0143238Y0263926D01*
X0143339Y0263804D01*
X0143436Y0263679D01*
X0143531Y0263552D01*
X0143622Y0263423D01*
X0143711Y0263292D01*
X0143795Y0263158D01*
X0143877Y0263022D01*
X0143955Y0262885D01*
X0144029Y0262745D01*
X0144100Y0262603D01*
X0144168Y0262460D01*
X0144232Y0262315D01*
X0144292Y0262169D01*
X0144348Y0262021D01*
X0144401Y0261872D01*
X0144450Y0261721D01*
X0144495Y0261569D01*
X0144536Y0261416D01*
X0144574Y0261263D01*
X0144607Y0261108D01*
X0144637Y0260952D01*
X0144663Y0260796D01*
X0144684Y0260639D01*
X0144702Y0260482D01*
X0144716Y0260324D01*
X0144726Y0260166D01*
X0144732Y0260008D01*
X0144734Y0259850D01*
X0144732Y0259692D01*
X0144726Y0259534D01*
X0144716Y0259376D01*
X0144702Y0259218D01*
X0144684Y0259061D01*
X0144663Y0258904D01*
X0144637Y0258748D01*
X0144607Y0258592D01*
X0144574Y0258437D01*
X0144536Y0258284D01*
X0144495Y0258131D01*
X0144450Y0257979D01*
X0144401Y0257828D01*
X0144348Y0257679D01*
X0144292Y0257531D01*
X0144232Y0257385D01*
X0144168Y0257240D01*
X0144100Y0257097D01*
X0144029Y0256955D01*
X0143955Y0256815D01*
X0143877Y0256678D01*
X0143795Y0256542D01*
X0143711Y0256408D01*
X0143622Y0256277D01*
X0143531Y0256148D01*
X0143436Y0256021D01*
X0143339Y0255896D01*
X0143238Y0255774D01*
X0143134Y0255655D01*
X0143027Y0255538D01*
X0142917Y0255424D01*
X0142804Y0255313D01*
X0142689Y0255204D01*
X0142571Y0255099D01*
X0142450Y0254997D01*
X0142327Y0254897D01*
X0142201Y0254801D01*
X0142073Y0254708D01*
X0141943Y0254618D01*
X0141810Y0254532D01*
X0141675Y0254448D01*
X0141539Y0254369D01*
X0141400Y0254292D01*
X0141259Y0254220D01*
X0141117Y0254150D01*
X0140973Y0254085D01*
X0140827Y0254023D01*
X0140680Y0253965D01*
X0140531Y0253910D01*
X0140381Y0253859D01*
X0140230Y0253812D01*
X0140078Y0253769D01*
X0139925Y0253730D01*
X0139770Y0253694D01*
X0139615Y0253663D01*
X0139459Y0253635D01*
X0139303Y0253611D01*
X0139146Y0253591D01*
X0138988Y0253575D01*
X0138831Y0253563D01*
X0138672Y0253555D01*
X0138514Y0253551D01*
X0138356Y0253551D01*
X0138198Y0253555D01*
X0138039Y0253563D01*
X0137882Y0253575D01*
X0137724Y0253591D01*
X0137567Y0253611D01*
X0137411Y0253635D01*
X0137255Y0253663D01*
X0137100Y0253694D01*
X0136945Y0253730D01*
X0136792Y0253769D01*
X0136640Y0253812D01*
X0136489Y0253859D01*
X0136339Y0253910D01*
X0136190Y0253965D01*
X0136043Y0254023D01*
X0135897Y0254085D01*
X0135753Y0254150D01*
X0135611Y0254220D01*
X0135470Y0254292D01*
X0135331Y0254369D01*
X0135195Y0254448D01*
X0135060Y0254532D01*
X0134927Y0254618D01*
X0134797Y0254708D01*
X0134669Y0254801D01*
X0134543Y0254897D01*
X0134420Y0254997D01*
X0134299Y0255099D01*
X0134181Y0255204D01*
X0134066Y0255313D01*
X0133953Y0255424D01*
X0133843Y0255538D01*
X0133736Y0255655D01*
X0133632Y0255774D01*
X0133531Y0255896D01*
X0133434Y0256021D01*
X0133339Y0256148D01*
X0133248Y0256277D01*
X0133159Y0256408D01*
X0133075Y0256542D01*
X0132993Y0256678D01*
X0132915Y0256815D01*
X0132841Y0256955D01*
X0132770Y0257097D01*
X0132702Y0257240D01*
X0132638Y0257385D01*
X0132578Y0257531D01*
X0132522Y0257679D01*
X0132469Y0257828D01*
X0132420Y0257979D01*
X0132375Y0258131D01*
X0132334Y0258284D01*
X0132296Y0258437D01*
X0132263Y0258592D01*
X0132233Y0258748D01*
X0132207Y0258904D01*
X0132186Y0259061D01*
X0132168Y0259218D01*
X0132154Y0259376D01*
X0132144Y0259534D01*
X0132138Y0259692D01*
X0132136Y0259850D01*
X0008136Y0259850D02*
X0008138Y0260008D01*
X0008144Y0260166D01*
X0008154Y0260324D01*
X0008168Y0260482D01*
X0008186Y0260639D01*
X0008207Y0260796D01*
X0008233Y0260952D01*
X0008263Y0261108D01*
X0008296Y0261263D01*
X0008334Y0261416D01*
X0008375Y0261569D01*
X0008420Y0261721D01*
X0008469Y0261872D01*
X0008522Y0262021D01*
X0008578Y0262169D01*
X0008638Y0262315D01*
X0008702Y0262460D01*
X0008770Y0262603D01*
X0008841Y0262745D01*
X0008915Y0262885D01*
X0008993Y0263022D01*
X0009075Y0263158D01*
X0009159Y0263292D01*
X0009248Y0263423D01*
X0009339Y0263552D01*
X0009434Y0263679D01*
X0009531Y0263804D01*
X0009632Y0263926D01*
X0009736Y0264045D01*
X0009843Y0264162D01*
X0009953Y0264276D01*
X0010066Y0264387D01*
X0010181Y0264496D01*
X0010299Y0264601D01*
X0010420Y0264703D01*
X0010543Y0264803D01*
X0010669Y0264899D01*
X0010797Y0264992D01*
X0010927Y0265082D01*
X0011060Y0265168D01*
X0011195Y0265252D01*
X0011331Y0265331D01*
X0011470Y0265408D01*
X0011611Y0265480D01*
X0011753Y0265550D01*
X0011897Y0265615D01*
X0012043Y0265677D01*
X0012190Y0265735D01*
X0012339Y0265790D01*
X0012489Y0265841D01*
X0012640Y0265888D01*
X0012792Y0265931D01*
X0012945Y0265970D01*
X0013100Y0266006D01*
X0013255Y0266037D01*
X0013411Y0266065D01*
X0013567Y0266089D01*
X0013724Y0266109D01*
X0013882Y0266125D01*
X0014039Y0266137D01*
X0014198Y0266145D01*
X0014356Y0266149D01*
X0014514Y0266149D01*
X0014672Y0266145D01*
X0014831Y0266137D01*
X0014988Y0266125D01*
X0015146Y0266109D01*
X0015303Y0266089D01*
X0015459Y0266065D01*
X0015615Y0266037D01*
X0015770Y0266006D01*
X0015925Y0265970D01*
X0016078Y0265931D01*
X0016230Y0265888D01*
X0016381Y0265841D01*
X0016531Y0265790D01*
X0016680Y0265735D01*
X0016827Y0265677D01*
X0016973Y0265615D01*
X0017117Y0265550D01*
X0017259Y0265480D01*
X0017400Y0265408D01*
X0017539Y0265331D01*
X0017675Y0265252D01*
X0017810Y0265168D01*
X0017943Y0265082D01*
X0018073Y0264992D01*
X0018201Y0264899D01*
X0018327Y0264803D01*
X0018450Y0264703D01*
X0018571Y0264601D01*
X0018689Y0264496D01*
X0018804Y0264387D01*
X0018917Y0264276D01*
X0019027Y0264162D01*
X0019134Y0264045D01*
X0019238Y0263926D01*
X0019339Y0263804D01*
X0019436Y0263679D01*
X0019531Y0263552D01*
X0019622Y0263423D01*
X0019711Y0263292D01*
X0019795Y0263158D01*
X0019877Y0263022D01*
X0019955Y0262885D01*
X0020029Y0262745D01*
X0020100Y0262603D01*
X0020168Y0262460D01*
X0020232Y0262315D01*
X0020292Y0262169D01*
X0020348Y0262021D01*
X0020401Y0261872D01*
X0020450Y0261721D01*
X0020495Y0261569D01*
X0020536Y0261416D01*
X0020574Y0261263D01*
X0020607Y0261108D01*
X0020637Y0260952D01*
X0020663Y0260796D01*
X0020684Y0260639D01*
X0020702Y0260482D01*
X0020716Y0260324D01*
X0020726Y0260166D01*
X0020732Y0260008D01*
X0020734Y0259850D01*
X0020732Y0259692D01*
X0020726Y0259534D01*
X0020716Y0259376D01*
X0020702Y0259218D01*
X0020684Y0259061D01*
X0020663Y0258904D01*
X0020637Y0258748D01*
X0020607Y0258592D01*
X0020574Y0258437D01*
X0020536Y0258284D01*
X0020495Y0258131D01*
X0020450Y0257979D01*
X0020401Y0257828D01*
X0020348Y0257679D01*
X0020292Y0257531D01*
X0020232Y0257385D01*
X0020168Y0257240D01*
X0020100Y0257097D01*
X0020029Y0256955D01*
X0019955Y0256815D01*
X0019877Y0256678D01*
X0019795Y0256542D01*
X0019711Y0256408D01*
X0019622Y0256277D01*
X0019531Y0256148D01*
X0019436Y0256021D01*
X0019339Y0255896D01*
X0019238Y0255774D01*
X0019134Y0255655D01*
X0019027Y0255538D01*
X0018917Y0255424D01*
X0018804Y0255313D01*
X0018689Y0255204D01*
X0018571Y0255099D01*
X0018450Y0254997D01*
X0018327Y0254897D01*
X0018201Y0254801D01*
X0018073Y0254708D01*
X0017943Y0254618D01*
X0017810Y0254532D01*
X0017675Y0254448D01*
X0017539Y0254369D01*
X0017400Y0254292D01*
X0017259Y0254220D01*
X0017117Y0254150D01*
X0016973Y0254085D01*
X0016827Y0254023D01*
X0016680Y0253965D01*
X0016531Y0253910D01*
X0016381Y0253859D01*
X0016230Y0253812D01*
X0016078Y0253769D01*
X0015925Y0253730D01*
X0015770Y0253694D01*
X0015615Y0253663D01*
X0015459Y0253635D01*
X0015303Y0253611D01*
X0015146Y0253591D01*
X0014988Y0253575D01*
X0014831Y0253563D01*
X0014672Y0253555D01*
X0014514Y0253551D01*
X0014356Y0253551D01*
X0014198Y0253555D01*
X0014039Y0253563D01*
X0013882Y0253575D01*
X0013724Y0253591D01*
X0013567Y0253611D01*
X0013411Y0253635D01*
X0013255Y0253663D01*
X0013100Y0253694D01*
X0012945Y0253730D01*
X0012792Y0253769D01*
X0012640Y0253812D01*
X0012489Y0253859D01*
X0012339Y0253910D01*
X0012190Y0253965D01*
X0012043Y0254023D01*
X0011897Y0254085D01*
X0011753Y0254150D01*
X0011611Y0254220D01*
X0011470Y0254292D01*
X0011331Y0254369D01*
X0011195Y0254448D01*
X0011060Y0254532D01*
X0010927Y0254618D01*
X0010797Y0254708D01*
X0010669Y0254801D01*
X0010543Y0254897D01*
X0010420Y0254997D01*
X0010299Y0255099D01*
X0010181Y0255204D01*
X0010066Y0255313D01*
X0009953Y0255424D01*
X0009843Y0255538D01*
X0009736Y0255655D01*
X0009632Y0255774D01*
X0009531Y0255896D01*
X0009434Y0256021D01*
X0009339Y0256148D01*
X0009248Y0256277D01*
X0009159Y0256408D01*
X0009075Y0256542D01*
X0008993Y0256678D01*
X0008915Y0256815D01*
X0008841Y0256955D01*
X0008770Y0257097D01*
X0008702Y0257240D01*
X0008638Y0257385D01*
X0008578Y0257531D01*
X0008522Y0257679D01*
X0008469Y0257828D01*
X0008420Y0257979D01*
X0008375Y0258131D01*
X0008334Y0258284D01*
X0008296Y0258437D01*
X0008263Y0258592D01*
X0008233Y0258748D01*
X0008207Y0258904D01*
X0008186Y0259061D01*
X0008168Y0259218D01*
X0008154Y0259376D01*
X0008144Y0259534D01*
X0008138Y0259692D01*
X0008136Y0259850D01*
D11*
X0142435Y0108850D03*
X0168435Y0052850D03*
D12*
X0178435Y0052850D03*
X0188435Y0052850D03*
X0198435Y0052850D03*
X0208435Y0052850D03*
X0218435Y0052850D03*
X0228435Y0052850D03*
X0238435Y0052850D03*
X0248435Y0052850D03*
X0258435Y0052850D03*
X0268435Y0052850D03*
X0278435Y0052850D03*
X0288435Y0052850D03*
X0298435Y0052850D03*
X0308435Y0052850D03*
X0308435Y0112850D03*
X0298435Y0112850D03*
X0288435Y0112850D03*
X0278435Y0112850D03*
X0268435Y0112850D03*
X0258435Y0112850D03*
X0248435Y0112850D03*
X0238435Y0112850D03*
X0228435Y0112850D03*
X0218435Y0112850D03*
X0208435Y0112850D03*
X0198435Y0112850D03*
X0188435Y0112850D03*
X0178435Y0112850D03*
X0168435Y0112850D03*
X0142435Y0098850D03*
X0132435Y0098850D03*
X0122435Y0098850D03*
X0112435Y0098850D03*
X0112435Y0108850D03*
X0122435Y0108850D03*
X0132435Y0108850D03*
D13*
X0165385Y0123425D02*
X0166015Y0122795D01*
X0163927Y0122795D01*
X0162452Y0124270D01*
X0162452Y0126358D01*
X0163927Y0127833D01*
X0166015Y0127833D01*
X0167490Y0126358D01*
X0167490Y0124270D01*
X0166015Y0122795D01*
X0165623Y0123740D01*
X0164319Y0123740D01*
X0163397Y0124662D01*
X0163397Y0125966D01*
X0164319Y0126888D01*
X0165623Y0126888D01*
X0166545Y0125966D01*
X0166545Y0124662D01*
X0165623Y0123740D01*
X0165232Y0124685D01*
X0164710Y0124685D01*
X0164342Y0125053D01*
X0164342Y0125575D01*
X0164710Y0125943D01*
X0165232Y0125943D01*
X0165600Y0125575D01*
X0165600Y0125053D01*
X0165232Y0124685D01*
D14*
X0157900Y0132386D03*
X0061435Y0054850D03*
X0014435Y0059850D03*
D15*
X0093876Y0048850D03*
X0101750Y0048850D03*
X0109624Y0048850D03*
X0117498Y0048850D03*
X0125372Y0048850D03*
X0133246Y0048850D03*
X0141120Y0048850D03*
X0148994Y0048850D03*
X0148994Y0124850D03*
X0141120Y0124850D03*
X0133246Y0124850D03*
X0125372Y0124850D03*
X0117498Y0124850D03*
X0109624Y0124850D03*
X0101750Y0124850D03*
X0093876Y0124850D03*
D16*
X0140935Y0084350D03*
X0140935Y0081350D03*
X0203435Y0064350D03*
X0203435Y0061350D03*
X0214435Y0061350D03*
X0214435Y0064350D03*
D17*
X0109435Y0135350D03*
X0109435Y0143850D03*
X0061435Y0064850D03*
X0024435Y0059850D03*
D18*
X0159483Y0169228D03*
X0215388Y0192850D03*
X0246483Y0169228D03*
X0302388Y0192850D03*
X0246483Y0216472D03*
X0159483Y0216472D03*
D19*
X0207514Y0216472D03*
X0207514Y0169228D03*
X0294514Y0169228D03*
X0294514Y0216472D03*
D20*
X0274514Y0184472D01*
X0274514Y0173929D01*
X0274435Y0173850D01*
X0274435Y0168850D01*
X0274435Y0161850D01*
X0275435Y0160850D01*
X0278435Y0160850D01*
X0295435Y0160850D01*
X0294354Y0157959D02*
X0294822Y0157766D01*
X0296049Y0157766D01*
X0297182Y0158235D01*
X0297435Y0158488D01*
X0297435Y0144850D01*
X0292264Y0144850D01*
X0293514Y0144850D01*
X0294685Y0146022D01*
X0294685Y0150678D01*
X0293514Y0151850D01*
X0287357Y0151850D01*
X0286185Y0150678D01*
X0286185Y0146850D01*
X0285435Y0146850D01*
X0285435Y0147928D01*
X0284264Y0149100D01*
X0283935Y0149100D01*
X0284557Y0149100D01*
X0285435Y0149979D01*
X0285435Y0155721D01*
X0284557Y0156600D01*
X0279314Y0156600D01*
X0278435Y0155721D01*
X0278435Y0149979D01*
X0279314Y0149100D01*
X0279935Y0149100D01*
X0279607Y0149100D01*
X0278435Y0147928D01*
X0277264Y0149100D01*
X0272607Y0149100D01*
X0271435Y0147928D01*
X0271435Y0144850D01*
X0268435Y0144850D01*
X0268435Y0142367D01*
X0267844Y0143796D01*
X0266381Y0145258D01*
X0264470Y0146050D01*
X0262401Y0146050D01*
X0260490Y0145258D01*
X0259027Y0143796D01*
X0258435Y0142367D01*
X0257844Y0143796D01*
X0256381Y0145258D01*
X0254470Y0146050D01*
X0252401Y0146050D01*
X0250490Y0145258D01*
X0249027Y0143796D01*
X0248435Y0142367D01*
X0247844Y0143796D01*
X0246381Y0145258D01*
X0244470Y0146050D01*
X0242401Y0146050D01*
X0240490Y0145258D01*
X0239027Y0143796D01*
X0238421Y0142333D01*
X0238254Y0142846D01*
X0237883Y0143575D01*
X0237402Y0144238D01*
X0236823Y0144816D01*
X0236161Y0145297D01*
X0235431Y0145669D01*
X0234653Y0145922D01*
X0233935Y0146036D01*
X0233935Y0141350D01*
X0232935Y0141350D01*
X0232935Y0146036D01*
X0232218Y0145922D01*
X0231439Y0145669D01*
X0230710Y0145297D01*
X0230048Y0144816D01*
X0229469Y0144238D01*
X0228988Y0143575D01*
X0228616Y0142846D01*
X0228435Y0142289D01*
X0228435Y0144850D01*
X0226264Y0144850D01*
X0227514Y0144850D01*
X0228685Y0146022D01*
X0228685Y0150678D01*
X0227514Y0151850D01*
X0228685Y0153022D01*
X0228685Y0157678D01*
X0227514Y0158850D01*
X0226435Y0158850D01*
X0226435Y0161678D01*
X0224064Y0164050D01*
X0229435Y0164050D01*
X0229435Y0152850D01*
X0232435Y0149850D01*
X0268435Y0149850D01*
X0271435Y0152850D01*
X0271435Y0153350D01*
X0274435Y0153350D01*
X0274435Y0152350D01*
X0271435Y0152350D01*
X0271435Y0150403D01*
X0271538Y0150021D01*
X0271735Y0149679D01*
X0272014Y0149400D01*
X0272356Y0149202D01*
X0272738Y0149100D01*
X0274435Y0149100D01*
X0274435Y0152350D01*
X0275435Y0152350D01*
X0275435Y0149100D01*
X0277133Y0149100D01*
X0277514Y0149202D01*
X0277856Y0149400D01*
X0278136Y0149679D01*
X0278333Y0150021D01*
X0278435Y0150403D01*
X0278435Y0152350D01*
X0275435Y0152350D01*
X0275435Y0153350D01*
X0274435Y0153350D01*
X0274435Y0156600D01*
X0272738Y0156600D01*
X0272356Y0156498D01*
X0272014Y0156300D01*
X0271735Y0156021D01*
X0271538Y0155679D01*
X0271435Y0155297D01*
X0271435Y0153557D01*
X0271435Y0162850D01*
X0272435Y0162850D01*
X0272435Y0161022D01*
X0273435Y0160022D01*
X0274607Y0158850D01*
X0274935Y0158850D01*
X0274935Y0157979D01*
X0275814Y0157100D01*
X0281057Y0157100D01*
X0281935Y0157979D01*
X0281935Y0158850D01*
X0293074Y0158850D01*
X0293119Y0158804D01*
X0292949Y0158850D01*
X0290935Y0158850D01*
X0290935Y0155850D01*
X0289935Y0155850D01*
X0289935Y0154850D01*
X0286185Y0154850D01*
X0286185Y0153587D01*
X0286322Y0153078D01*
X0286585Y0152622D01*
X0286957Y0152250D01*
X0287413Y0151986D01*
X0287922Y0151850D01*
X0289935Y0151850D01*
X0289935Y0154850D01*
X0290935Y0154850D01*
X0290935Y0151850D01*
X0292949Y0151850D01*
X0293457Y0151986D01*
X0293913Y0152250D01*
X0294286Y0152622D01*
X0294549Y0153078D01*
X0294685Y0153587D01*
X0294685Y0154850D01*
X0290935Y0154850D01*
X0290935Y0155850D01*
X0294685Y0155850D01*
X0294685Y0157113D01*
X0294549Y0157622D01*
X0294354Y0157959D01*
X0294526Y0157662D02*
X0297435Y0157662D01*
X0297435Y0156664D02*
X0294685Y0156664D01*
X0294685Y0154667D02*
X0297435Y0154667D01*
X0297435Y0155665D02*
X0290935Y0155665D01*
X0288185Y0156850D02*
X0288185Y0153850D01*
X0288185Y0156850D02*
X0292685Y0156850D01*
X0292685Y0153850D01*
X0288185Y0153850D01*
X0288185Y0154849D02*
X0292685Y0154849D01*
X0292685Y0155848D02*
X0288185Y0155848D01*
X0288185Y0156847D02*
X0292685Y0156847D01*
X0290935Y0156664D02*
X0289935Y0156664D01*
X0289935Y0155850D02*
X0289935Y0158850D01*
X0287922Y0158850D01*
X0287413Y0158714D01*
X0286957Y0158450D01*
X0286585Y0158078D01*
X0286322Y0157622D01*
X0286185Y0157113D01*
X0286185Y0155850D01*
X0289935Y0155850D01*
X0289935Y0155665D02*
X0285435Y0155665D01*
X0285435Y0154667D02*
X0286185Y0154667D01*
X0286185Y0153668D02*
X0285435Y0153668D01*
X0285435Y0152670D02*
X0286557Y0152670D01*
X0287178Y0151671D02*
X0285435Y0151671D01*
X0285435Y0150673D02*
X0286185Y0150673D01*
X0286185Y0149674D02*
X0285131Y0149674D01*
X0284688Y0148676D02*
X0286185Y0148676D01*
X0286185Y0147677D02*
X0285435Y0147677D01*
X0283935Y0149100D02*
X0283935Y0149100D01*
X0281935Y0152850D02*
X0281935Y0144850D01*
X0283435Y0142600D02*
X0280435Y0142600D01*
X0280435Y0147100D01*
X0283435Y0147100D01*
X0283435Y0142600D01*
X0283435Y0143599D02*
X0280435Y0143599D01*
X0280435Y0144598D02*
X0283435Y0144598D01*
X0283435Y0145597D02*
X0280435Y0145597D01*
X0280435Y0146596D02*
X0283435Y0146596D01*
X0281935Y0144850D02*
X0289435Y0144850D01*
X0290435Y0145850D01*
X0290435Y0148350D01*
X0288185Y0146850D02*
X0288185Y0149850D01*
X0292685Y0149850D01*
X0292685Y0146850D01*
X0288185Y0146850D01*
X0288185Y0147849D02*
X0292685Y0147849D01*
X0292685Y0148848D02*
X0288185Y0148848D01*
X0288185Y0149847D02*
X0292685Y0149847D01*
X0294685Y0149674D02*
X0297435Y0149674D01*
X0297435Y0148676D02*
X0294685Y0148676D01*
X0294685Y0147677D02*
X0297435Y0147677D01*
X0297435Y0146679D02*
X0294685Y0146679D01*
X0294344Y0145680D02*
X0297435Y0145680D01*
X0299435Y0143850D02*
X0299435Y0163850D01*
X0300435Y0164850D01*
X0303656Y0164850D01*
X0304435Y0165630D01*
X0297435Y0171850D02*
X0313435Y0171850D01*
X0314435Y0170850D01*
X0314435Y0165630D01*
X0297435Y0171850D02*
X0294813Y0169228D01*
X0294514Y0169228D01*
X0288813Y0169228D01*
X0286435Y0168850D01*
X0287322Y0158661D02*
X0281935Y0158661D01*
X0281619Y0157662D02*
X0286345Y0157662D01*
X0286185Y0156664D02*
X0271435Y0156664D01*
X0271435Y0157662D02*
X0275252Y0157662D01*
X0274935Y0158661D02*
X0271435Y0158661D01*
X0271435Y0159659D02*
X0273798Y0159659D01*
X0272799Y0160658D02*
X0271435Y0160658D01*
X0271435Y0161656D02*
X0272435Y0161656D01*
X0272435Y0162655D02*
X0271435Y0162655D01*
X0275435Y0156600D02*
X0275435Y0153350D01*
X0278435Y0153350D01*
X0278435Y0155297D01*
X0278333Y0155679D01*
X0278136Y0156021D01*
X0277856Y0156300D01*
X0277514Y0156498D01*
X0277133Y0156600D01*
X0275435Y0156600D01*
X0275435Y0155665D02*
X0274435Y0155665D01*
X0274435Y0154667D02*
X0275435Y0154667D01*
X0275435Y0153668D02*
X0274435Y0153668D01*
X0274435Y0152670D02*
X0271255Y0152670D01*
X0271435Y0151671D02*
X0270257Y0151671D01*
X0269258Y0150673D02*
X0271435Y0150673D01*
X0271740Y0149674D02*
X0228685Y0149674D01*
X0228685Y0148676D02*
X0272183Y0148676D01*
X0271435Y0147677D02*
X0228685Y0147677D01*
X0228685Y0146679D02*
X0271435Y0146679D01*
X0271435Y0145680D02*
X0265362Y0145680D01*
X0266958Y0144682D02*
X0268435Y0144682D01*
X0268435Y0143683D02*
X0267890Y0143683D01*
X0268304Y0142685D02*
X0268435Y0142685D01*
X0271435Y0140850D02*
X0271896Y0141311D01*
X0272607Y0140600D01*
X0272935Y0140600D01*
X0272935Y0140522D01*
X0276607Y0136850D01*
X0295264Y0136850D01*
X0300264Y0141850D01*
X0301264Y0142850D01*
X0321935Y0142850D01*
X0321935Y0116067D01*
X0321126Y0116877D01*
X0319380Y0117600D01*
X0317491Y0117600D01*
X0315745Y0116877D01*
X0314409Y0115541D01*
X0313685Y0113795D01*
X0313685Y0111905D01*
X0314409Y0110159D01*
X0315745Y0108823D01*
X0317491Y0108100D01*
X0319380Y0108100D01*
X0321126Y0108823D01*
X0321935Y0109633D01*
X0321935Y0056067D01*
X0321126Y0056877D01*
X0319380Y0057600D01*
X0317491Y0057600D01*
X0315745Y0056877D01*
X0314409Y0055541D01*
X0313685Y0053795D01*
X0313685Y0051905D01*
X0314409Y0050159D01*
X0315745Y0048823D01*
X0317491Y0048100D01*
X0319380Y0048100D01*
X0321126Y0048823D01*
X0321935Y0049633D01*
X0321935Y0044380D01*
X0319853Y0046462D01*
X0316987Y0047649D01*
X0313884Y0047649D01*
X0311017Y0046462D01*
X0308824Y0044268D01*
X0307636Y0041401D01*
X0307636Y0038299D01*
X0308824Y0035432D01*
X0310906Y0033350D01*
X0290898Y0033350D01*
X0291324Y0033526D01*
X0292759Y0034961D01*
X0293535Y0036836D01*
X0293535Y0038864D01*
X0292759Y0040739D01*
X0291648Y0041850D01*
X0295351Y0041850D01*
X0295351Y0041236D01*
X0295821Y0040103D01*
X0296688Y0039235D01*
X0297822Y0038766D01*
X0299049Y0038766D01*
X0300182Y0039235D01*
X0301050Y0040103D01*
X0301520Y0041236D01*
X0301520Y0042463D01*
X0301050Y0043597D01*
X0300797Y0043850D01*
X0307264Y0043850D01*
X0309264Y0045850D01*
X0310435Y0047022D01*
X0310435Y0048842D01*
X0310967Y0049062D01*
X0312224Y0050319D01*
X0312904Y0051961D01*
X0312904Y0053739D01*
X0312224Y0055381D01*
X0310967Y0056638D01*
X0309324Y0057318D01*
X0307547Y0057318D01*
X0305904Y0056638D01*
X0304647Y0055381D01*
X0303967Y0053739D01*
X0303967Y0051961D01*
X0304647Y0050319D01*
X0305904Y0049062D01*
X0306435Y0048842D01*
X0306435Y0048678D01*
X0305607Y0047850D01*
X0268264Y0047850D01*
X0268795Y0048381D01*
X0269324Y0048381D01*
X0270967Y0049062D01*
X0272224Y0050319D01*
X0272904Y0051961D01*
X0272904Y0053739D01*
X0272224Y0055381D01*
X0270967Y0056638D01*
X0269324Y0057318D01*
X0267547Y0057318D01*
X0265904Y0056638D01*
X0264647Y0055381D01*
X0263967Y0053739D01*
X0263967Y0051961D01*
X0264647Y0050319D01*
X0264861Y0050105D01*
X0264607Y0049850D01*
X0261755Y0049850D01*
X0262224Y0050319D01*
X0262904Y0051961D01*
X0262904Y0053739D01*
X0262224Y0055381D01*
X0260967Y0056638D01*
X0259324Y0057318D01*
X0257547Y0057318D01*
X0255904Y0056638D01*
X0254647Y0055381D01*
X0253967Y0053739D01*
X0253967Y0051961D01*
X0254647Y0050319D01*
X0255861Y0049105D01*
X0252607Y0045850D01*
X0177264Y0045850D01*
X0175435Y0047678D01*
X0175435Y0049531D01*
X0175904Y0049062D01*
X0177547Y0048381D01*
X0179324Y0048381D01*
X0180967Y0049062D01*
X0182224Y0050319D01*
X0182904Y0051961D01*
X0182904Y0053739D01*
X0182224Y0055381D01*
X0180967Y0056638D01*
X0179324Y0057318D01*
X0177547Y0057318D01*
X0175904Y0056638D01*
X0175435Y0056169D01*
X0175435Y0056678D01*
X0172564Y0059550D01*
X0187388Y0059550D01*
X0188735Y0060897D01*
X0195735Y0067897D01*
X0195735Y0092788D01*
X0196050Y0093103D01*
X0196520Y0094236D01*
X0196520Y0095463D01*
X0196070Y0096550D01*
X0230588Y0096550D01*
X0230154Y0095503D01*
X0230154Y0094397D01*
X0217607Y0081850D01*
X0205797Y0081850D01*
X0205182Y0082465D01*
X0204049Y0082934D01*
X0202822Y0082934D01*
X0201688Y0082465D01*
X0200821Y0081597D01*
X0200351Y0080463D01*
X0200351Y0079236D01*
X0200821Y0078103D01*
X0201435Y0077488D01*
X0201435Y0067050D01*
X0201064Y0067050D01*
X0200185Y0066171D01*
X0200185Y0059529D01*
X0201064Y0058650D01*
X0201435Y0058650D01*
X0201435Y0056169D01*
X0201346Y0056258D01*
X0200777Y0056672D01*
X0200151Y0056991D01*
X0199482Y0057208D01*
X0198920Y0057297D01*
X0198920Y0053334D01*
X0197951Y0053334D01*
X0197951Y0052366D01*
X0193988Y0052366D01*
X0194077Y0051804D01*
X0194294Y0051135D01*
X0194614Y0050508D01*
X0195027Y0049939D01*
X0195524Y0049442D01*
X0196093Y0049028D01*
X0196720Y0048709D01*
X0197389Y0048492D01*
X0197951Y0048402D01*
X0197951Y0052366D01*
X0198920Y0052366D01*
X0198920Y0048402D01*
X0199482Y0048492D01*
X0200151Y0048709D01*
X0200777Y0049028D01*
X0201346Y0049442D01*
X0201435Y0049531D01*
X0201435Y0049022D01*
X0202607Y0047850D01*
X0204607Y0045850D01*
X0217264Y0045850D01*
X0218435Y0047022D01*
X0220128Y0048715D01*
X0220967Y0049062D01*
X0222224Y0050319D01*
X0222904Y0051961D01*
X0222904Y0053739D01*
X0222224Y0055381D01*
X0221755Y0055850D01*
X0225116Y0055850D01*
X0224647Y0055381D01*
X0223967Y0053739D01*
X0223967Y0051961D01*
X0224647Y0050319D01*
X0225904Y0049062D01*
X0227547Y0048381D01*
X0229324Y0048381D01*
X0230967Y0049062D01*
X0232224Y0050319D01*
X0232904Y0051961D01*
X0232904Y0053739D01*
X0232224Y0055381D01*
X0230967Y0056638D01*
X0230435Y0056858D01*
X0230435Y0057678D01*
X0229264Y0058850D01*
X0228264Y0059850D01*
X0219353Y0059850D01*
X0219352Y0059856D01*
X0218785Y0060328D01*
X0218264Y0060850D01*
X0218159Y0060850D01*
X0217685Y0061245D01*
X0217685Y0066171D01*
X0216807Y0067050D01*
X0216435Y0067050D01*
X0216435Y0069022D01*
X0224435Y0061022D01*
X0225607Y0059850D01*
X0271074Y0059850D01*
X0271688Y0059235D01*
X0272822Y0058766D01*
X0273691Y0058766D01*
X0275861Y0056595D01*
X0274647Y0055381D01*
X0273967Y0053739D01*
X0273967Y0051961D01*
X0274647Y0050319D01*
X0275904Y0049062D01*
X0277547Y0048381D01*
X0279324Y0048381D01*
X0280967Y0049062D01*
X0282224Y0050319D01*
X0282904Y0051961D01*
X0282904Y0053739D01*
X0282224Y0055381D01*
X0280967Y0056638D01*
X0280435Y0056858D01*
X0280435Y0057678D01*
X0276520Y0061594D01*
X0276520Y0062463D01*
X0276050Y0063597D01*
X0275182Y0064465D01*
X0274252Y0064850D01*
X0298074Y0064850D01*
X0298688Y0064235D01*
X0299822Y0063766D01*
X0301049Y0063766D01*
X0302182Y0064235D01*
X0303050Y0065103D01*
X0303520Y0066236D01*
X0303520Y0067463D01*
X0303050Y0068597D01*
X0302182Y0069465D01*
X0301049Y0069934D01*
X0299822Y0069934D01*
X0298688Y0069465D01*
X0298074Y0068850D01*
X0245797Y0068850D01*
X0245182Y0069465D01*
X0244049Y0069934D01*
X0242822Y0069934D01*
X0241688Y0069465D01*
X0240821Y0068597D01*
X0240351Y0067463D01*
X0240351Y0066236D01*
X0240821Y0065103D01*
X0241688Y0064235D01*
X0242619Y0063850D01*
X0227264Y0063850D01*
X0217264Y0073850D01*
X0216797Y0073850D01*
X0216182Y0074465D01*
X0215049Y0074934D01*
X0213822Y0074934D01*
X0212688Y0074465D01*
X0211821Y0073597D01*
X0211351Y0072463D01*
X0211351Y0071236D01*
X0211821Y0070103D01*
X0212435Y0069488D01*
X0212435Y0067050D01*
X0212064Y0067050D01*
X0211185Y0066171D01*
X0211185Y0059529D01*
X0212064Y0058650D01*
X0214551Y0058650D01*
X0216085Y0057372D01*
X0216435Y0057022D01*
X0216551Y0056906D01*
X0215904Y0056638D01*
X0214647Y0055381D01*
X0213967Y0053739D01*
X0213967Y0051961D01*
X0214647Y0050319D01*
X0215116Y0049850D01*
X0211755Y0049850D01*
X0212224Y0050319D01*
X0212904Y0051961D01*
X0212904Y0053739D01*
X0212224Y0055381D01*
X0210967Y0056638D01*
X0209324Y0057318D01*
X0207547Y0057318D01*
X0205904Y0056638D01*
X0205435Y0056169D01*
X0205435Y0058650D01*
X0205807Y0058650D01*
X0206685Y0059529D01*
X0206685Y0066171D01*
X0205807Y0067050D01*
X0205435Y0067050D01*
X0205435Y0077488D01*
X0205797Y0077850D01*
X0219264Y0077850D01*
X0232983Y0091569D01*
X0234088Y0091569D01*
X0235294Y0092068D01*
X0236217Y0092991D01*
X0236716Y0094197D01*
X0236716Y0095503D01*
X0236283Y0096550D01*
X0291374Y0096550D01*
X0291688Y0096235D01*
X0292822Y0095766D01*
X0294049Y0095766D01*
X0295182Y0096235D01*
X0296050Y0097103D01*
X0296520Y0098236D01*
X0296520Y0099463D01*
X0296050Y0100597D01*
X0295182Y0101465D01*
X0294049Y0101934D01*
X0292822Y0101934D01*
X0291688Y0101465D01*
X0291374Y0101150D01*
X0170111Y0101150D01*
X0169844Y0101796D01*
X0168789Y0102850D01*
X0176074Y0102850D01*
X0176688Y0102235D01*
X0177822Y0101766D01*
X0179049Y0101766D01*
X0180182Y0102235D01*
X0181050Y0103103D01*
X0181520Y0104236D01*
X0181520Y0105463D01*
X0181050Y0106597D01*
X0180182Y0107465D01*
X0179049Y0107934D01*
X0177822Y0107934D01*
X0176688Y0107465D01*
X0176074Y0106850D01*
X0158797Y0106850D01*
X0158182Y0107465D01*
X0157049Y0107934D01*
X0155822Y0107934D01*
X0154688Y0107465D01*
X0153821Y0106597D01*
X0153735Y0106391D01*
X0153735Y0111785D01*
X0154409Y0110159D01*
X0155745Y0108823D01*
X0157491Y0108100D01*
X0159380Y0108100D01*
X0161126Y0108823D01*
X0162462Y0110159D01*
X0163185Y0111905D01*
X0163185Y0113795D01*
X0162462Y0115541D01*
X0161126Y0116877D01*
X0159380Y0117600D01*
X0157491Y0117600D01*
X0155745Y0116877D01*
X0154409Y0115541D01*
X0153735Y0113915D01*
X0153735Y0114897D01*
X0160200Y0121362D01*
X0160200Y0128305D01*
X0160534Y0128443D01*
X0161842Y0129752D01*
X0162550Y0131461D01*
X0162550Y0132907D01*
X0165493Y0129964D01*
X0163045Y0129964D01*
X0161895Y0128815D01*
X0164971Y0125739D01*
X0164547Y0125314D01*
X0164971Y0124890D01*
X0165395Y0125314D01*
X0168471Y0122239D01*
X0169621Y0123388D01*
X0169621Y0125836D01*
X0178920Y0116537D01*
X0178920Y0113334D01*
X0182883Y0113334D01*
X0182794Y0113896D01*
X0182577Y0114565D01*
X0182257Y0115192D01*
X0181844Y0115761D01*
X0181755Y0115850D01*
X0185116Y0115850D01*
X0184647Y0115381D01*
X0183967Y0113739D01*
X0183967Y0111961D01*
X0184647Y0110319D01*
X0185904Y0109062D01*
X0187547Y0108381D01*
X0189324Y0108381D01*
X0190967Y0109062D01*
X0192224Y0110319D01*
X0192904Y0111961D01*
X0192904Y0113739D01*
X0192224Y0115381D01*
X0191755Y0115850D01*
X0195116Y0115850D01*
X0194647Y0115381D01*
X0193967Y0113739D01*
X0193967Y0111961D01*
X0194647Y0110319D01*
X0195904Y0109062D01*
X0197547Y0108381D01*
X0199324Y0108381D01*
X0200967Y0109062D01*
X0202224Y0110319D01*
X0202904Y0111961D01*
X0202904Y0113739D01*
X0202224Y0115381D01*
X0201755Y0115850D01*
X0205116Y0115850D01*
X0204647Y0115381D01*
X0203967Y0113739D01*
X0203967Y0111961D01*
X0204647Y0110319D01*
X0205904Y0109062D01*
X0207547Y0108381D01*
X0209324Y0108381D01*
X0210967Y0109062D01*
X0212224Y0110319D01*
X0212904Y0111961D01*
X0212904Y0113739D01*
X0212224Y0115381D01*
X0211755Y0115850D01*
X0215116Y0115850D01*
X0214647Y0115381D01*
X0213967Y0113739D01*
X0213967Y0111961D01*
X0214647Y0110319D01*
X0215904Y0109062D01*
X0217547Y0108381D01*
X0219324Y0108381D01*
X0220967Y0109062D01*
X0222224Y0110319D01*
X0222904Y0111961D01*
X0222904Y0113739D01*
X0222224Y0115381D01*
X0221755Y0115850D01*
X0222607Y0115850D01*
X0224187Y0114270D01*
X0223967Y0113739D01*
X0223967Y0111961D01*
X0224647Y0110319D01*
X0225904Y0109062D01*
X0227547Y0108381D01*
X0229324Y0108381D01*
X0230967Y0109062D01*
X0232224Y0110319D01*
X0232904Y0111961D01*
X0232904Y0113739D01*
X0232224Y0115381D01*
X0230967Y0116638D01*
X0229324Y0117318D01*
X0227547Y0117318D01*
X0227015Y0117098D01*
X0226264Y0117850D01*
X0232607Y0117850D01*
X0234861Y0115595D01*
X0234647Y0115381D01*
X0233967Y0113739D01*
X0233967Y0111961D01*
X0234647Y0110319D01*
X0235904Y0109062D01*
X0237547Y0108381D01*
X0239324Y0108381D01*
X0240967Y0109062D01*
X0242224Y0110319D01*
X0242904Y0111961D01*
X0242904Y0113739D01*
X0242224Y0115381D01*
X0240967Y0116638D01*
X0239324Y0117318D01*
X0238795Y0117318D01*
X0236264Y0119850D01*
X0243264Y0119850D01*
X0244435Y0121022D01*
X0246532Y0123118D01*
X0247421Y0122750D01*
X0249450Y0122750D01*
X0251324Y0123526D01*
X0251435Y0123638D01*
X0251435Y0121212D01*
X0250821Y0120597D01*
X0250351Y0119463D01*
X0250351Y0118236D01*
X0250821Y0117103D01*
X0251688Y0116235D01*
X0252822Y0115766D01*
X0254049Y0115766D01*
X0255182Y0116235D01*
X0256050Y0117103D01*
X0256520Y0118236D01*
X0256520Y0119463D01*
X0256050Y0120597D01*
X0255435Y0121212D01*
X0255435Y0122022D01*
X0256532Y0123118D01*
X0257421Y0122750D01*
X0259450Y0122750D01*
X0261324Y0123526D01*
X0261435Y0123638D01*
X0261435Y0121212D01*
X0260821Y0120597D01*
X0260351Y0119463D01*
X0260351Y0118236D01*
X0260821Y0117103D01*
X0261688Y0116235D01*
X0262822Y0115766D01*
X0264049Y0115766D01*
X0265182Y0116235D01*
X0266050Y0117103D01*
X0266520Y0118236D01*
X0266520Y0119463D01*
X0266050Y0120597D01*
X0265435Y0121212D01*
X0265435Y0122022D01*
X0266532Y0123118D01*
X0267421Y0122750D01*
X0269450Y0122750D01*
X0271324Y0123526D01*
X0272759Y0124961D01*
X0273461Y0126656D01*
X0273461Y0126656D01*
X0273709Y0125892D01*
X0274073Y0125177D01*
X0274545Y0124528D01*
X0275113Y0123960D01*
X0275762Y0123488D01*
X0276478Y0123124D01*
X0277241Y0122876D01*
X0277935Y0122766D01*
X0277935Y0127350D01*
X0278935Y0127350D01*
X0278935Y0122766D01*
X0279630Y0122876D01*
X0280393Y0123124D01*
X0281108Y0123488D01*
X0281758Y0123960D01*
X0282325Y0124528D01*
X0282797Y0125177D01*
X0283162Y0125892D01*
X0283410Y0126656D01*
X0284112Y0124961D01*
X0285546Y0123526D01*
X0287421Y0122750D01*
X0289450Y0122750D01*
X0291324Y0123526D01*
X0292759Y0124961D01*
X0293535Y0126836D01*
X0293535Y0128864D01*
X0292759Y0130739D01*
X0291324Y0132174D01*
X0289450Y0132950D01*
X0287421Y0132950D01*
X0285546Y0132174D01*
X0284112Y0130739D01*
X0283410Y0129044D01*
X0283410Y0129044D01*
X0283162Y0129808D01*
X0282797Y0130523D01*
X0282325Y0131172D01*
X0281758Y0131740D01*
X0281108Y0132212D01*
X0280393Y0132576D01*
X0279630Y0132824D01*
X0278935Y0132934D01*
X0278935Y0128350D01*
X0277935Y0128350D01*
X0277935Y0132934D01*
X0277241Y0132824D01*
X0276478Y0132576D01*
X0275762Y0132212D01*
X0275113Y0131740D01*
X0274545Y0131172D01*
X0274073Y0130523D01*
X0273709Y0129808D01*
X0273461Y0129044D01*
X0272759Y0130739D01*
X0271324Y0132174D01*
X0269450Y0132950D01*
X0267421Y0132950D01*
X0265546Y0132174D01*
X0264112Y0130739D01*
X0263435Y0129106D01*
X0262759Y0130739D01*
X0261324Y0132174D01*
X0259450Y0132950D01*
X0257421Y0132950D01*
X0255546Y0132174D01*
X0254112Y0130739D01*
X0253435Y0129106D01*
X0252759Y0130739D01*
X0251324Y0132174D01*
X0249450Y0132950D01*
X0247421Y0132950D01*
X0245546Y0132174D01*
X0244112Y0130739D01*
X0243435Y0129106D01*
X0242759Y0130739D01*
X0241324Y0132174D01*
X0239450Y0132950D01*
X0237421Y0132950D01*
X0235546Y0132174D01*
X0234112Y0130739D01*
X0233435Y0129106D01*
X0232759Y0130739D01*
X0231324Y0132174D01*
X0229450Y0132950D01*
X0227421Y0132950D01*
X0225546Y0132174D01*
X0224112Y0130739D01*
X0223435Y0129106D01*
X0222759Y0130739D01*
X0221324Y0132174D01*
X0219450Y0132950D01*
X0217421Y0132950D01*
X0215546Y0132174D01*
X0214112Y0130739D01*
X0213335Y0128864D01*
X0213335Y0126836D01*
X0214112Y0124961D01*
X0215223Y0123850D01*
X0205085Y0123850D01*
X0205085Y0132629D01*
X0204206Y0133507D01*
X0202435Y0133507D01*
X0202435Y0134488D01*
X0203050Y0135103D01*
X0203520Y0136236D01*
X0203520Y0137463D01*
X0203050Y0138597D01*
X0202182Y0139465D01*
X0201049Y0139934D01*
X0199822Y0139934D01*
X0198688Y0139465D01*
X0197821Y0138597D01*
X0197351Y0137463D01*
X0197351Y0136236D01*
X0197821Y0135103D01*
X0198435Y0134488D01*
X0198435Y0133507D01*
X0196664Y0133507D01*
X0195786Y0132629D01*
X0195786Y0123850D01*
X0195062Y0123850D01*
X0195085Y0123936D01*
X0195085Y0127570D01*
X0190935Y0127570D01*
X0190935Y0128570D01*
X0195085Y0128570D01*
X0195085Y0132205D01*
X0194983Y0132586D01*
X0194785Y0132928D01*
X0194506Y0133208D01*
X0194164Y0133405D01*
X0193782Y0133507D01*
X0190935Y0133507D01*
X0190935Y0128571D01*
X0189935Y0128571D01*
X0189935Y0133507D01*
X0187088Y0133507D01*
X0186707Y0133405D01*
X0186365Y0133208D01*
X0186085Y0132928D01*
X0185888Y0132586D01*
X0185786Y0132205D01*
X0185786Y0128570D01*
X0189935Y0128570D01*
X0189935Y0127570D01*
X0185786Y0127570D01*
X0185786Y0123936D01*
X0185809Y0123850D01*
X0185520Y0123850D01*
X0185520Y0124463D01*
X0185050Y0125597D01*
X0184182Y0126465D01*
X0183049Y0126934D01*
X0181822Y0126934D01*
X0180688Y0126465D01*
X0179821Y0125597D01*
X0179439Y0124675D01*
X0159264Y0144850D01*
X0166435Y0144850D01*
X0168435Y0142850D01*
X0174056Y0142850D01*
X0174780Y0142550D01*
X0182091Y0142550D01*
X0182815Y0142850D01*
X0205435Y0142850D01*
X0205435Y0141772D01*
X0206607Y0140600D01*
X0211264Y0140600D01*
X0212435Y0141772D01*
X0213607Y0140600D01*
X0218264Y0140600D01*
X0219435Y0141772D01*
X0219435Y0142850D01*
X0223435Y0142850D01*
X0225435Y0140850D01*
X0225435Y0136850D01*
X0227435Y0134850D01*
X0269435Y0134850D01*
X0271435Y0136850D01*
X0271435Y0140850D01*
X0271435Y0140688D02*
X0272519Y0140688D01*
X0271435Y0139689D02*
X0273768Y0139689D01*
X0274766Y0138691D02*
X0271435Y0138691D01*
X0271435Y0137692D02*
X0275765Y0137692D01*
X0277435Y0138850D02*
X0274935Y0141350D01*
X0274935Y0144850D01*
X0276435Y0142600D02*
X0273435Y0142600D01*
X0273435Y0147100D01*
X0276435Y0147100D01*
X0276435Y0142600D01*
X0276435Y0143599D02*
X0273435Y0143599D01*
X0273435Y0144598D02*
X0276435Y0144598D01*
X0276435Y0145597D02*
X0273435Y0145597D01*
X0273435Y0146596D02*
X0276435Y0146596D01*
X0278435Y0146679D02*
X0278435Y0146679D01*
X0278435Y0147677D02*
X0278435Y0147677D01*
X0278435Y0147928D02*
X0278435Y0144850D01*
X0278435Y0144850D01*
X0278435Y0147928D01*
X0277688Y0148676D02*
X0279183Y0148676D01*
X0279935Y0149100D02*
X0279935Y0149100D01*
X0278740Y0149674D02*
X0278131Y0149674D01*
X0278435Y0150673D02*
X0278435Y0150673D01*
X0278435Y0151671D02*
X0278435Y0151671D01*
X0278435Y0152670D02*
X0275435Y0152670D01*
X0275435Y0151671D02*
X0274435Y0151671D01*
X0274435Y0150673D02*
X0275435Y0150673D01*
X0275435Y0149674D02*
X0274435Y0149674D01*
X0278435Y0145680D02*
X0278435Y0145680D01*
X0277435Y0138850D02*
X0294435Y0138850D01*
X0299435Y0143850D01*
X0301099Y0142685D02*
X0321935Y0142685D01*
X0321935Y0141686D02*
X0300100Y0141686D01*
X0300264Y0141850D02*
X0300264Y0141850D01*
X0299102Y0140688D02*
X0321935Y0140688D01*
X0321935Y0139689D02*
X0298103Y0139689D01*
X0297105Y0138691D02*
X0313234Y0138691D01*
X0312688Y0138465D02*
X0313822Y0138934D01*
X0315049Y0138934D01*
X0316182Y0138465D01*
X0317050Y0137597D01*
X0317520Y0136463D01*
X0317520Y0135236D01*
X0317050Y0134103D01*
X0316455Y0133507D01*
X0318206Y0133507D01*
X0319085Y0132629D01*
X0319085Y0123512D01*
X0318206Y0122633D01*
X0310664Y0122633D01*
X0309786Y0123512D01*
X0309786Y0132629D01*
X0310664Y0133507D01*
X0312416Y0133507D01*
X0311821Y0134103D01*
X0311351Y0135236D01*
X0311351Y0136463D01*
X0311821Y0137597D01*
X0312688Y0138465D01*
X0311916Y0137692D02*
X0296106Y0137692D01*
X0300365Y0133208D02*
X0300085Y0132928D01*
X0299888Y0132586D01*
X0299786Y0132205D01*
X0299786Y0128570D01*
X0303935Y0128570D01*
X0303935Y0127570D01*
X0304935Y0127570D01*
X0304935Y0122633D01*
X0307782Y0122633D01*
X0308164Y0122736D01*
X0308506Y0122933D01*
X0308785Y0123212D01*
X0308983Y0123554D01*
X0309085Y0123936D01*
X0309085Y0127570D01*
X0304935Y0127570D01*
X0304935Y0128570D01*
X0309085Y0128570D01*
X0309085Y0132205D01*
X0308983Y0132586D01*
X0308785Y0132928D01*
X0308506Y0133208D01*
X0308164Y0133405D01*
X0307782Y0133507D01*
X0304935Y0133507D01*
X0304935Y0128571D01*
X0303935Y0128571D01*
X0303935Y0133507D01*
X0301088Y0133507D01*
X0300707Y0133405D01*
X0300365Y0133208D01*
X0299953Y0132700D02*
X0290054Y0132700D01*
X0291797Y0131701D02*
X0299786Y0131701D01*
X0299786Y0130703D02*
X0292774Y0130703D01*
X0293188Y0129704D02*
X0299786Y0129704D01*
X0299786Y0128706D02*
X0293535Y0128706D01*
X0293535Y0127707D02*
X0303935Y0127707D01*
X0303935Y0127570D02*
X0299786Y0127570D01*
X0299786Y0123936D01*
X0299888Y0123554D01*
X0300085Y0123212D01*
X0300365Y0122933D01*
X0300707Y0122736D01*
X0301088Y0122633D01*
X0303935Y0122633D01*
X0303935Y0127570D01*
X0303935Y0126709D02*
X0304935Y0126709D01*
X0304935Y0127707D02*
X0309786Y0127707D01*
X0309786Y0126709D02*
X0309085Y0126709D01*
X0309085Y0125710D02*
X0309786Y0125710D01*
X0309786Y0124712D02*
X0309085Y0124712D01*
X0309025Y0123713D02*
X0309786Y0123713D01*
X0310583Y0122715D02*
X0308085Y0122715D01*
X0304935Y0122715D02*
X0303935Y0122715D01*
X0303935Y0123713D02*
X0304935Y0123713D01*
X0304935Y0124712D02*
X0303935Y0124712D01*
X0303935Y0125710D02*
X0304935Y0125710D01*
X0304935Y0128706D02*
X0303935Y0128706D01*
X0303935Y0129704D02*
X0304935Y0129704D01*
X0304935Y0130703D02*
X0303935Y0130703D01*
X0303935Y0131701D02*
X0304935Y0131701D01*
X0304935Y0132700D02*
X0303935Y0132700D01*
X0308917Y0132700D02*
X0309857Y0132700D01*
X0309786Y0131701D02*
X0309085Y0131701D01*
X0309085Y0130703D02*
X0309786Y0130703D01*
X0309786Y0129704D02*
X0309085Y0129704D01*
X0309085Y0128706D02*
X0309786Y0128706D01*
X0314435Y0128070D02*
X0314435Y0135850D01*
X0311575Y0134697D02*
X0202644Y0134697D01*
X0202435Y0133698D02*
X0312225Y0133698D01*
X0311351Y0135695D02*
X0270281Y0135695D01*
X0271279Y0136694D02*
X0311446Y0136694D01*
X0315637Y0138691D02*
X0321935Y0138691D01*
X0321935Y0137692D02*
X0316955Y0137692D01*
X0317424Y0136694D02*
X0321935Y0136694D01*
X0321935Y0135695D02*
X0317520Y0135695D01*
X0317296Y0134697D02*
X0321935Y0134697D01*
X0321935Y0133698D02*
X0316645Y0133698D01*
X0319014Y0132700D02*
X0321935Y0132700D01*
X0321935Y0131701D02*
X0319085Y0131701D01*
X0319085Y0130703D02*
X0321935Y0130703D01*
X0321935Y0129704D02*
X0319085Y0129704D01*
X0319085Y0128706D02*
X0321935Y0128706D01*
X0321935Y0127707D02*
X0319085Y0127707D01*
X0319085Y0126709D02*
X0321935Y0126709D01*
X0321935Y0125710D02*
X0319085Y0125710D01*
X0319085Y0124712D02*
X0321935Y0124712D01*
X0321935Y0123713D02*
X0319085Y0123713D01*
X0318287Y0122715D02*
X0321935Y0122715D01*
X0321935Y0121716D02*
X0265435Y0121716D01*
X0265930Y0120718D02*
X0321935Y0120718D01*
X0321935Y0119719D02*
X0266414Y0119719D01*
X0266520Y0118720D02*
X0321935Y0118720D01*
X0321935Y0117722D02*
X0266306Y0117722D01*
X0266110Y0116723D02*
X0265671Y0116723D01*
X0265904Y0116638D02*
X0264647Y0115381D01*
X0263967Y0113739D01*
X0263967Y0111961D01*
X0264647Y0110319D01*
X0265904Y0109062D01*
X0267547Y0108381D01*
X0269324Y0108381D01*
X0270967Y0109062D01*
X0272224Y0110319D01*
X0272904Y0111961D01*
X0272904Y0113739D01*
X0272224Y0115381D01*
X0270967Y0116638D01*
X0269324Y0117318D01*
X0267547Y0117318D01*
X0265904Y0116638D01*
X0264991Y0115725D02*
X0261880Y0115725D01*
X0262224Y0115381D02*
X0260967Y0116638D01*
X0259324Y0117318D01*
X0257547Y0117318D01*
X0255904Y0116638D01*
X0254647Y0115381D01*
X0253967Y0113739D01*
X0253967Y0111961D01*
X0254647Y0110319D01*
X0255904Y0109062D01*
X0257547Y0108381D01*
X0259324Y0108381D01*
X0260967Y0109062D01*
X0262224Y0110319D01*
X0262904Y0111961D01*
X0262904Y0113739D01*
X0262224Y0115381D01*
X0262495Y0114726D02*
X0264376Y0114726D01*
X0263967Y0113728D02*
X0262904Y0113728D01*
X0262904Y0112729D02*
X0263967Y0112729D01*
X0264062Y0111731D02*
X0262809Y0111731D01*
X0262395Y0110732D02*
X0264476Y0110732D01*
X0265232Y0109734D02*
X0261639Y0109734D01*
X0260179Y0108735D02*
X0266692Y0108735D01*
X0270179Y0108735D02*
X0276692Y0108735D01*
X0275904Y0109062D02*
X0277547Y0108381D01*
X0279324Y0108381D01*
X0280967Y0109062D01*
X0282224Y0110319D01*
X0282904Y0111961D01*
X0282904Y0113739D01*
X0282224Y0115381D01*
X0280967Y0116638D01*
X0279324Y0117318D01*
X0277547Y0117318D01*
X0275904Y0116638D01*
X0274647Y0115381D01*
X0273967Y0113739D01*
X0273967Y0111961D01*
X0274647Y0110319D01*
X0275904Y0109062D01*
X0275232Y0109734D02*
X0271639Y0109734D01*
X0272395Y0110732D02*
X0274476Y0110732D01*
X0274062Y0111731D02*
X0272809Y0111731D01*
X0272904Y0112729D02*
X0273967Y0112729D01*
X0273967Y0113728D02*
X0272904Y0113728D01*
X0272495Y0114726D02*
X0274376Y0114726D01*
X0274991Y0115725D02*
X0271880Y0115725D01*
X0270761Y0116723D02*
X0276110Y0116723D01*
X0280761Y0116723D02*
X0286110Y0116723D01*
X0285904Y0116638D02*
X0284647Y0115381D01*
X0283967Y0113739D01*
X0283967Y0111961D01*
X0284647Y0110319D01*
X0285904Y0109062D01*
X0287547Y0108381D01*
X0289324Y0108381D01*
X0290967Y0109062D01*
X0292224Y0110319D01*
X0292904Y0111961D01*
X0292904Y0113739D01*
X0292224Y0115381D01*
X0290967Y0116638D01*
X0289324Y0117318D01*
X0287547Y0117318D01*
X0285904Y0116638D01*
X0284991Y0115725D02*
X0281880Y0115725D01*
X0282495Y0114726D02*
X0284376Y0114726D01*
X0283967Y0113728D02*
X0282904Y0113728D01*
X0282904Y0112729D02*
X0283967Y0112729D01*
X0284062Y0111731D02*
X0282809Y0111731D01*
X0282395Y0110732D02*
X0284476Y0110732D01*
X0285232Y0109734D02*
X0281639Y0109734D01*
X0280179Y0108735D02*
X0286692Y0108735D01*
X0290179Y0108735D02*
X0296692Y0108735D01*
X0295904Y0109062D02*
X0297547Y0108381D01*
X0299324Y0108381D01*
X0300967Y0109062D01*
X0302224Y0110319D01*
X0302904Y0111961D01*
X0302904Y0113739D01*
X0302224Y0115381D01*
X0300967Y0116638D01*
X0299324Y0117318D01*
X0297547Y0117318D01*
X0295904Y0116638D01*
X0294647Y0115381D01*
X0293967Y0113739D01*
X0293967Y0111961D01*
X0294647Y0110319D01*
X0295904Y0109062D01*
X0295232Y0109734D02*
X0291639Y0109734D01*
X0292395Y0110732D02*
X0294476Y0110732D01*
X0294062Y0111731D02*
X0292809Y0111731D01*
X0292904Y0112729D02*
X0293967Y0112729D01*
X0293967Y0113728D02*
X0292904Y0113728D01*
X0292495Y0114726D02*
X0294376Y0114726D01*
X0294991Y0115725D02*
X0291880Y0115725D01*
X0290761Y0116723D02*
X0296110Y0116723D01*
X0300761Y0116723D02*
X0306110Y0116723D01*
X0305904Y0116638D02*
X0304647Y0115381D01*
X0303967Y0113739D01*
X0303967Y0111961D01*
X0304647Y0110319D01*
X0305904Y0109062D01*
X0307547Y0108381D01*
X0309324Y0108381D01*
X0310967Y0109062D01*
X0312224Y0110319D01*
X0312904Y0111961D01*
X0312904Y0113739D01*
X0312224Y0115381D01*
X0310967Y0116638D01*
X0309324Y0117318D01*
X0307547Y0117318D01*
X0305904Y0116638D01*
X0304991Y0115725D02*
X0301880Y0115725D01*
X0302495Y0114726D02*
X0304376Y0114726D01*
X0303967Y0113728D02*
X0302904Y0113728D01*
X0302904Y0112729D02*
X0303967Y0112729D01*
X0304062Y0111731D02*
X0302809Y0111731D01*
X0302395Y0110732D02*
X0304476Y0110732D01*
X0305232Y0109734D02*
X0301639Y0109734D01*
X0300179Y0108735D02*
X0306692Y0108735D01*
X0310179Y0108735D02*
X0315957Y0108735D01*
X0314834Y0109734D02*
X0311639Y0109734D01*
X0312395Y0110732D02*
X0314171Y0110732D01*
X0313758Y0111731D02*
X0312809Y0111731D01*
X0312904Y0112729D02*
X0313685Y0112729D01*
X0313685Y0113728D02*
X0312904Y0113728D01*
X0312495Y0114726D02*
X0314071Y0114726D01*
X0314593Y0115725D02*
X0311880Y0115725D01*
X0310761Y0116723D02*
X0315591Y0116723D01*
X0321279Y0116723D02*
X0321935Y0116723D01*
X0321935Y0108735D02*
X0320914Y0108735D01*
X0321935Y0107737D02*
X0179525Y0107737D01*
X0179482Y0108492D02*
X0180151Y0108709D01*
X0180777Y0109028D01*
X0181346Y0109442D01*
X0181844Y0109939D01*
X0182257Y0110508D01*
X0182577Y0111135D01*
X0182794Y0111804D01*
X0182883Y0112366D01*
X0178920Y0112366D01*
X0178920Y0113334D01*
X0177951Y0113334D01*
X0177951Y0112366D01*
X0173988Y0112366D01*
X0174077Y0111804D01*
X0174294Y0111135D01*
X0174614Y0110508D01*
X0175027Y0109939D01*
X0175524Y0109442D01*
X0176093Y0109028D01*
X0176720Y0108709D01*
X0177389Y0108492D01*
X0177951Y0108402D01*
X0177951Y0112366D01*
X0178920Y0112366D01*
X0178920Y0108402D01*
X0179482Y0108492D01*
X0178920Y0108735D02*
X0177951Y0108735D01*
X0177951Y0109734D02*
X0178920Y0109734D01*
X0178920Y0110732D02*
X0177951Y0110732D01*
X0177951Y0111731D02*
X0178920Y0111731D01*
X0178920Y0112729D02*
X0183967Y0112729D01*
X0183967Y0113728D02*
X0182821Y0113728D01*
X0182494Y0114726D02*
X0184376Y0114726D01*
X0184991Y0115725D02*
X0181870Y0115725D01*
X0180435Y0117850D02*
X0151435Y0146850D01*
X0132435Y0146850D01*
X0129435Y0143850D01*
X0129435Y0140850D01*
X0134169Y0138691D02*
X0134699Y0138691D01*
X0134616Y0138854D02*
X0134988Y0138125D01*
X0135469Y0137462D01*
X0136048Y0136884D01*
X0136710Y0136403D01*
X0137439Y0136031D01*
X0138218Y0135778D01*
X0138935Y0135664D01*
X0138935Y0140350D01*
X0139935Y0140350D01*
X0139935Y0135664D01*
X0140653Y0135778D01*
X0141431Y0136031D01*
X0142161Y0136403D01*
X0142823Y0136884D01*
X0143402Y0137462D01*
X0143883Y0138125D01*
X0144254Y0138854D01*
X0144421Y0139367D01*
X0145027Y0137904D01*
X0146490Y0136442D01*
X0148401Y0135650D01*
X0150470Y0135650D01*
X0151115Y0135917D01*
X0153388Y0133644D01*
X0153250Y0133310D01*
X0153250Y0131461D01*
X0153958Y0129752D01*
X0155266Y0128443D01*
X0155600Y0128305D01*
X0155600Y0123267D01*
X0152994Y0120662D01*
X0152994Y0130471D01*
X0152116Y0131350D01*
X0145873Y0131350D01*
X0145057Y0130534D01*
X0144242Y0131350D01*
X0137999Y0131350D01*
X0137183Y0130534D01*
X0136368Y0131350D01*
X0130125Y0131350D01*
X0129309Y0130534D01*
X0128494Y0131350D01*
X0127372Y0131350D01*
X0127372Y0131741D01*
X0125435Y0133678D01*
X0124264Y0134850D01*
X0116203Y0134850D01*
X0116158Y0134891D01*
X0115383Y0134850D01*
X0114607Y0134850D01*
X0114564Y0134807D01*
X0114503Y0134804D01*
X0114085Y0134340D01*
X0114085Y0137276D01*
X0111761Y0139600D01*
X0114085Y0141924D01*
X0114085Y0143550D01*
X0109735Y0143550D01*
X0109735Y0144150D01*
X0114085Y0144150D01*
X0114085Y0144850D01*
X0116081Y0144850D01*
X0115027Y0143796D01*
X0114235Y0141884D01*
X0114235Y0139816D01*
X0115027Y0137904D01*
X0116490Y0136442D01*
X0118401Y0135650D01*
X0120470Y0135650D01*
X0122381Y0136442D01*
X0123844Y0137904D01*
X0124435Y0139333D01*
X0125027Y0137904D01*
X0126490Y0136442D01*
X0128401Y0135650D01*
X0130470Y0135650D01*
X0132381Y0136442D01*
X0133844Y0137904D01*
X0134450Y0139367D01*
X0134616Y0138854D01*
X0135302Y0137692D02*
X0133631Y0137692D01*
X0132633Y0136694D02*
X0136309Y0136694D01*
X0138935Y0136694D02*
X0139935Y0136694D01*
X0139935Y0137692D02*
X0138935Y0137692D01*
X0138935Y0138691D02*
X0139935Y0138691D01*
X0139935Y0139689D02*
X0138935Y0139689D01*
X0138935Y0135695D02*
X0139935Y0135695D01*
X0140130Y0135695D02*
X0148292Y0135695D01*
X0146238Y0136694D02*
X0142561Y0136694D01*
X0143569Y0137692D02*
X0145239Y0137692D01*
X0144701Y0138691D02*
X0144171Y0138691D01*
X0138741Y0135695D02*
X0130579Y0135695D01*
X0128292Y0135695D02*
X0120579Y0135695D01*
X0122633Y0136694D02*
X0126238Y0136694D01*
X0125239Y0137692D02*
X0123631Y0137692D01*
X0124169Y0138691D02*
X0124701Y0138691D01*
X0124417Y0134697D02*
X0152336Y0134697D01*
X0151338Y0135695D02*
X0150579Y0135695D01*
X0153335Y0133698D02*
X0125416Y0133698D01*
X0126414Y0132700D02*
X0153250Y0132700D01*
X0153250Y0131701D02*
X0127372Y0131701D01*
X0129141Y0130703D02*
X0129478Y0130703D01*
X0125372Y0130913D02*
X0123435Y0132850D01*
X0115435Y0132850D01*
X0113635Y0130850D01*
X0113635Y0109850D01*
X0112435Y0108850D01*
X0109226Y0105740D02*
X0088435Y0105740D01*
X0088435Y0106738D02*
X0108473Y0106738D01*
X0108647Y0106319D02*
X0109904Y0105062D01*
X0111547Y0104381D01*
X0113324Y0104381D01*
X0114967Y0105062D01*
X0116224Y0106319D01*
X0116904Y0107961D01*
X0116904Y0109739D01*
X0116224Y0111381D01*
X0115635Y0111969D01*
X0115635Y0112822D01*
X0118187Y0110270D01*
X0117967Y0109739D01*
X0117967Y0107961D01*
X0118647Y0106319D01*
X0119904Y0105062D01*
X0121547Y0104381D01*
X0123324Y0104381D01*
X0124967Y0105062D01*
X0125435Y0105531D01*
X0125435Y0104678D01*
X0123855Y0103098D01*
X0123324Y0103318D01*
X0121547Y0103318D01*
X0119904Y0102638D01*
X0118647Y0101381D01*
X0117967Y0099739D01*
X0117967Y0097961D01*
X0118647Y0096319D01*
X0119904Y0095062D01*
X0121547Y0094381D01*
X0123324Y0094381D01*
X0124967Y0095062D01*
X0126224Y0096319D01*
X0126904Y0097961D01*
X0126904Y0099739D01*
X0126684Y0100270D01*
X0129435Y0103022D01*
X0129435Y0105531D01*
X0129904Y0105062D01*
X0131547Y0104381D01*
X0133324Y0104381D01*
X0134967Y0105062D01*
X0135435Y0105531D01*
X0135435Y0104678D01*
X0133855Y0103098D01*
X0133324Y0103318D01*
X0131547Y0103318D01*
X0129904Y0102638D01*
X0128647Y0101381D01*
X0127967Y0099739D01*
X0127967Y0097961D01*
X0128647Y0096319D01*
X0129904Y0095062D01*
X0131547Y0094381D01*
X0133324Y0094381D01*
X0134967Y0095062D01*
X0136224Y0096319D01*
X0136904Y0097961D01*
X0136904Y0099739D01*
X0136684Y0100270D01*
X0139435Y0103022D01*
X0139435Y0104381D01*
X0141951Y0104381D01*
X0141951Y0108366D01*
X0142920Y0108366D01*
X0142920Y0109334D01*
X0146904Y0109334D01*
X0146904Y0112016D01*
X0146802Y0112397D01*
X0146604Y0112740D01*
X0146325Y0113019D01*
X0145983Y0113216D01*
X0145601Y0113318D01*
X0142920Y0113318D01*
X0142920Y0109334D01*
X0141951Y0109334D01*
X0141951Y0113318D01*
X0140732Y0113318D01*
X0143120Y0115707D01*
X0143120Y0118350D01*
X0144242Y0118350D01*
X0145057Y0119166D01*
X0145873Y0118350D01*
X0150683Y0118350D01*
X0149135Y0116803D01*
X0149135Y0101150D01*
X0146319Y0101150D01*
X0146224Y0101381D01*
X0144967Y0102638D01*
X0143324Y0103318D01*
X0141547Y0103318D01*
X0139904Y0102638D01*
X0138647Y0101381D01*
X0137967Y0099739D01*
X0137967Y0097961D01*
X0138647Y0096319D01*
X0139904Y0095062D01*
X0141547Y0094381D01*
X0143324Y0094381D01*
X0144967Y0095062D01*
X0145135Y0095231D01*
X0145135Y0071912D01*
X0144821Y0071597D01*
X0144351Y0070463D01*
X0144351Y0069236D01*
X0144821Y0068103D01*
X0145688Y0067235D01*
X0146822Y0066766D01*
X0148049Y0066766D01*
X0149182Y0067235D01*
X0150050Y0068103D01*
X0150520Y0069236D01*
X0150520Y0070463D01*
X0150050Y0071597D01*
X0149735Y0071912D01*
X0149735Y0096550D01*
X0160760Y0096550D01*
X0161027Y0095904D01*
X0162490Y0094442D01*
X0163953Y0093836D01*
X0163439Y0093669D01*
X0162710Y0093297D01*
X0162048Y0092816D01*
X0161469Y0092238D01*
X0160988Y0091575D01*
X0160616Y0090846D01*
X0160363Y0090068D01*
X0160250Y0089350D01*
X0164935Y0089350D01*
X0164935Y0088350D01*
X0160250Y0088350D01*
X0160363Y0087632D01*
X0160616Y0086854D01*
X0160988Y0086125D01*
X0161469Y0085462D01*
X0162048Y0084884D01*
X0162710Y0084403D01*
X0163439Y0084031D01*
X0163953Y0083864D01*
X0162490Y0083258D01*
X0161027Y0081796D01*
X0160235Y0079884D01*
X0160235Y0077816D01*
X0161027Y0075904D01*
X0162490Y0074442D01*
X0163918Y0073850D01*
X0162490Y0073258D01*
X0161027Y0071796D01*
X0160235Y0069884D01*
X0160235Y0067816D01*
X0161027Y0065904D01*
X0162490Y0064442D01*
X0163194Y0064150D01*
X0158497Y0064150D01*
X0158182Y0064465D01*
X0157049Y0064934D01*
X0155822Y0064934D01*
X0154688Y0064465D01*
X0153821Y0063597D01*
X0153351Y0062463D01*
X0153351Y0061236D01*
X0153511Y0060850D01*
X0150264Y0060850D01*
X0147520Y0063594D01*
X0147520Y0064463D01*
X0147050Y0065597D01*
X0146182Y0066465D01*
X0145049Y0066934D01*
X0143822Y0066934D01*
X0142935Y0066567D01*
X0142935Y0078650D01*
X0143307Y0078650D01*
X0144185Y0079529D01*
X0144185Y0086171D01*
X0143385Y0086971D01*
X0143435Y0087022D01*
X0143435Y0087708D01*
X0143532Y0088387D01*
X0143435Y0088517D01*
X0143435Y0088678D01*
X0142950Y0089164D01*
X0142538Y0089713D01*
X0142378Y0089736D01*
X0139264Y0092850D01*
X0117264Y0092850D01*
X0115009Y0095105D01*
X0116224Y0096319D01*
X0116904Y0097961D01*
X0116904Y0099739D01*
X0116224Y0101381D01*
X0114967Y0102638D01*
X0113324Y0103318D01*
X0111547Y0103318D01*
X0109904Y0102638D01*
X0108647Y0101381D01*
X0107967Y0099739D01*
X0107967Y0097961D01*
X0108647Y0096319D01*
X0109904Y0095062D01*
X0110435Y0094842D01*
X0110435Y0094022D01*
X0114435Y0090022D01*
X0115607Y0088850D01*
X0137607Y0088850D01*
X0139314Y0087143D01*
X0139301Y0087050D01*
X0138564Y0087050D01*
X0137685Y0086171D01*
X0137685Y0079529D01*
X0138564Y0078650D01*
X0138935Y0078650D01*
X0138935Y0073167D01*
X0138550Y0074097D01*
X0137682Y0074965D01*
X0136549Y0075434D01*
X0135322Y0075434D01*
X0134188Y0074965D01*
X0133321Y0074097D01*
X0132851Y0072963D01*
X0132851Y0071736D01*
X0133321Y0070603D01*
X0133935Y0069988D01*
X0133935Y0066212D01*
X0133321Y0065597D01*
X0132851Y0064463D01*
X0132851Y0063236D01*
X0133321Y0062103D01*
X0134188Y0061235D01*
X0135322Y0060766D01*
X0136549Y0060766D01*
X0137682Y0061235D01*
X0138550Y0062103D01*
X0138935Y0063033D01*
X0138935Y0055350D01*
X0137999Y0055350D01*
X0137183Y0054534D01*
X0136368Y0055350D01*
X0130125Y0055350D01*
X0129309Y0054534D01*
X0128494Y0055350D01*
X0122251Y0055350D01*
X0121435Y0054534D01*
X0120620Y0055350D01*
X0114377Y0055350D01*
X0113561Y0054534D01*
X0112746Y0055350D01*
X0106503Y0055350D01*
X0105687Y0054534D01*
X0104872Y0055350D01*
X0098629Y0055350D01*
X0097813Y0054534D01*
X0096998Y0055350D01*
X0090755Y0055350D01*
X0089876Y0054471D01*
X0089876Y0051150D01*
X0068388Y0051150D01*
X0065947Y0053591D01*
X0066085Y0053925D01*
X0066085Y0055775D01*
X0065377Y0057484D01*
X0064069Y0058792D01*
X0062360Y0059500D01*
X0060510Y0059500D01*
X0060176Y0059362D01*
X0059888Y0059650D01*
X0049935Y0059650D01*
X0049935Y0062221D01*
X0049057Y0063100D01*
X0044135Y0063100D01*
X0044135Y0076350D01*
X0044557Y0076350D01*
X0045435Y0077229D01*
X0045435Y0087471D01*
X0044557Y0088350D01*
X0038314Y0088350D01*
X0037435Y0087471D01*
X0037435Y0077229D01*
X0038314Y0076350D01*
X0038735Y0076350D01*
X0038735Y0063100D01*
X0033814Y0063100D01*
X0032935Y0062221D01*
X0032935Y0052479D01*
X0033264Y0052150D01*
X0029780Y0052150D01*
X0028200Y0051495D01*
X0027254Y0050550D01*
X0021554Y0050550D01*
X0019435Y0052668D01*
X0019435Y0065957D01*
X0019695Y0065697D01*
X0020038Y0065499D01*
X0020419Y0065397D01*
X0022676Y0065397D01*
X0022676Y0069350D01*
X0023676Y0069350D01*
X0023676Y0070350D01*
X0027235Y0070350D01*
X0027235Y0073000D01*
X0027132Y0073382D01*
X0026935Y0073724D01*
X0026656Y0074003D01*
X0026314Y0074201D01*
X0025932Y0074303D01*
X0023676Y0074303D01*
X0023676Y0070350D01*
X0022676Y0070350D01*
X0022676Y0074303D01*
X0020419Y0074303D01*
X0020038Y0074201D01*
X0019695Y0074003D01*
X0019435Y0073743D01*
X0019435Y0074130D01*
X0019652Y0074219D01*
X0020909Y0075476D01*
X0021589Y0077119D01*
X0021589Y0080004D01*
X0028435Y0086850D01*
X0028435Y0082850D01*
X0031935Y0082850D01*
X0031935Y0081850D01*
X0028435Y0081850D01*
X0028435Y0077653D01*
X0028538Y0077271D01*
X0028735Y0076929D01*
X0029014Y0076650D01*
X0029356Y0076452D01*
X0029738Y0076350D01*
X0031935Y0076350D01*
X0031935Y0081850D01*
X0032935Y0081850D01*
X0032935Y0076350D01*
X0035133Y0076350D01*
X0035514Y0076452D01*
X0035856Y0076650D01*
X0036136Y0076929D01*
X0036333Y0077271D01*
X0036435Y0077653D01*
X0036435Y0081850D01*
X0032935Y0081850D01*
X0032935Y0082850D01*
X0031935Y0082850D01*
X0031935Y0088350D01*
X0029935Y0088350D01*
X0031435Y0089850D01*
X0047617Y0089850D01*
X0047735Y0089732D01*
X0047735Y0088350D01*
X0047314Y0088350D01*
X0046435Y0087471D01*
X0046435Y0077229D01*
X0047314Y0076350D01*
X0053557Y0076350D01*
X0054435Y0077229D01*
X0054435Y0087471D01*
X0053557Y0088350D01*
X0053135Y0088350D01*
X0053135Y0089850D01*
X0083435Y0089850D01*
X0088435Y0094850D01*
X0088435Y0144850D01*
X0104785Y0144850D01*
X0104785Y0144150D01*
X0109135Y0144150D01*
X0109135Y0143550D01*
X0104785Y0143550D01*
X0104785Y0141924D01*
X0107109Y0139600D01*
X0104859Y0137350D01*
X0102107Y0137350D01*
X0100607Y0135850D01*
X0099435Y0134678D01*
X0099435Y0131350D01*
X0098629Y0131350D01*
X0097750Y0130471D01*
X0097750Y0130470D01*
X0097577Y0130771D01*
X0097297Y0131050D01*
X0096955Y0131248D01*
X0096574Y0131350D01*
X0094376Y0131350D01*
X0094376Y0125350D01*
X0093376Y0125350D01*
X0093376Y0124350D01*
X0089876Y0124350D01*
X0089876Y0119653D01*
X0089979Y0119271D01*
X0090176Y0118929D01*
X0090455Y0118650D01*
X0090797Y0118452D01*
X0091179Y0118350D01*
X0093376Y0118350D01*
X0093376Y0124350D01*
X0094376Y0124350D01*
X0094376Y0118350D01*
X0096574Y0118350D01*
X0096955Y0118452D01*
X0097297Y0118650D01*
X0097577Y0118929D01*
X0097750Y0119230D01*
X0097750Y0119229D01*
X0098629Y0118350D01*
X0104872Y0118350D01*
X0105750Y0119229D01*
X0105750Y0119230D01*
X0105924Y0118929D01*
X0106203Y0118650D01*
X0106545Y0118452D01*
X0106927Y0118350D01*
X0109124Y0118350D01*
X0109124Y0124350D01*
X0110124Y0124350D01*
X0110124Y0118350D01*
X0111635Y0118350D01*
X0111635Y0113318D01*
X0111547Y0113318D01*
X0109904Y0112638D01*
X0108647Y0111381D01*
X0107967Y0109739D01*
X0107967Y0107961D01*
X0108647Y0106319D01*
X0108060Y0107737D02*
X0088435Y0107737D01*
X0088435Y0108735D02*
X0107967Y0108735D01*
X0107967Y0109734D02*
X0088435Y0109734D01*
X0088435Y0110732D02*
X0108378Y0110732D01*
X0108997Y0111731D02*
X0088435Y0111731D01*
X0088435Y0112729D02*
X0110124Y0112729D01*
X0111635Y0113728D02*
X0088435Y0113728D01*
X0088435Y0114726D02*
X0111635Y0114726D01*
X0111635Y0115725D02*
X0088435Y0115725D01*
X0088435Y0116723D02*
X0111635Y0116723D01*
X0111635Y0117722D02*
X0088435Y0117722D01*
X0088435Y0118720D02*
X0090385Y0118720D01*
X0089876Y0119719D02*
X0088435Y0119719D01*
X0088435Y0120718D02*
X0089876Y0120718D01*
X0089876Y0121716D02*
X0088435Y0121716D01*
X0088435Y0122715D02*
X0089876Y0122715D01*
X0089876Y0123713D02*
X0088435Y0123713D01*
X0088435Y0124712D02*
X0093376Y0124712D01*
X0093376Y0125350D02*
X0089876Y0125350D01*
X0089876Y0130047D01*
X0089979Y0130429D01*
X0090176Y0130771D01*
X0090455Y0131050D01*
X0090797Y0131248D01*
X0091179Y0131350D01*
X0093376Y0131350D01*
X0093376Y0125350D01*
X0093376Y0125710D02*
X0094376Y0125710D01*
X0094376Y0126709D02*
X0093376Y0126709D01*
X0093376Y0127707D02*
X0094376Y0127707D01*
X0094376Y0128706D02*
X0093376Y0128706D01*
X0093376Y0129704D02*
X0094376Y0129704D01*
X0094376Y0130703D02*
X0093376Y0130703D01*
X0090137Y0130703D02*
X0088435Y0130703D01*
X0088435Y0131701D02*
X0099435Y0131701D01*
X0099435Y0132700D02*
X0088435Y0132700D01*
X0088435Y0133698D02*
X0099435Y0133698D01*
X0099454Y0134697D02*
X0088435Y0134697D01*
X0088435Y0135695D02*
X0100452Y0135695D01*
X0101451Y0136694D02*
X0088435Y0136694D01*
X0088435Y0137692D02*
X0105202Y0137692D01*
X0106200Y0138691D02*
X0088435Y0138691D01*
X0088435Y0139689D02*
X0107020Y0139689D01*
X0106022Y0140688D02*
X0088435Y0140688D01*
X0088435Y0141686D02*
X0105023Y0141686D01*
X0104785Y0142685D02*
X0088435Y0142685D01*
X0088435Y0143683D02*
X0109135Y0143683D01*
X0109735Y0143683D02*
X0114981Y0143683D01*
X0114567Y0142685D02*
X0114085Y0142685D01*
X0114235Y0141686D02*
X0113848Y0141686D01*
X0114235Y0140688D02*
X0112849Y0140688D01*
X0111851Y0139689D02*
X0114288Y0139689D01*
X0114701Y0138691D02*
X0112671Y0138691D01*
X0113669Y0137692D02*
X0115239Y0137692D01*
X0116238Y0136694D02*
X0114085Y0136694D01*
X0114085Y0135695D02*
X0118292Y0135695D01*
X0114407Y0134697D02*
X0114085Y0134697D01*
X0109435Y0135350D02*
X0102935Y0135350D01*
X0101435Y0133850D01*
X0101435Y0129280D01*
X0101750Y0128965D01*
X0101750Y0124850D01*
X0097982Y0130703D02*
X0097616Y0130703D01*
X0094376Y0123713D02*
X0093376Y0123713D01*
X0093376Y0122715D02*
X0094376Y0122715D01*
X0094376Y0121716D02*
X0093376Y0121716D01*
X0093376Y0120718D02*
X0094376Y0120718D01*
X0094376Y0119719D02*
X0093376Y0119719D01*
X0093376Y0118720D02*
X0094376Y0118720D01*
X0097368Y0118720D02*
X0098259Y0118720D01*
X0105242Y0118720D02*
X0106133Y0118720D01*
X0109124Y0118720D02*
X0110124Y0118720D01*
X0110124Y0119719D02*
X0109124Y0119719D01*
X0109124Y0120718D02*
X0110124Y0120718D01*
X0110124Y0121716D02*
X0109124Y0121716D01*
X0109124Y0122715D02*
X0110124Y0122715D01*
X0110124Y0123713D02*
X0109124Y0123713D01*
X0117498Y0124850D02*
X0117498Y0113787D01*
X0122435Y0108850D01*
X0119226Y0105740D02*
X0115645Y0105740D01*
X0116397Y0106738D02*
X0118473Y0106738D01*
X0118060Y0107737D02*
X0116811Y0107737D01*
X0116904Y0108735D02*
X0117967Y0108735D01*
X0117967Y0109734D02*
X0116904Y0109734D01*
X0116492Y0110732D02*
X0117725Y0110732D01*
X0116726Y0111731D02*
X0115874Y0111731D01*
X0115728Y0112729D02*
X0115635Y0112729D01*
X0114193Y0104741D02*
X0120678Y0104741D01*
X0120160Y0102744D02*
X0114710Y0102744D01*
X0115859Y0101746D02*
X0119012Y0101746D01*
X0118385Y0100747D02*
X0116486Y0100747D01*
X0116900Y0099749D02*
X0117971Y0099749D01*
X0117967Y0098750D02*
X0116904Y0098750D01*
X0116817Y0097752D02*
X0118054Y0097752D01*
X0118467Y0096753D02*
X0116404Y0096753D01*
X0115660Y0095755D02*
X0119211Y0095755D01*
X0120642Y0094756D02*
X0115358Y0094756D01*
X0116356Y0093758D02*
X0145135Y0093758D01*
X0145135Y0094756D02*
X0144229Y0094756D01*
X0145135Y0092759D02*
X0139355Y0092759D01*
X0140353Y0091761D02*
X0145135Y0091761D01*
X0145135Y0090762D02*
X0141352Y0090762D01*
X0142350Y0089764D02*
X0145135Y0089764D01*
X0145135Y0088765D02*
X0143349Y0088765D01*
X0143444Y0087767D02*
X0145135Y0087767D01*
X0145135Y0086768D02*
X0143589Y0086768D01*
X0144185Y0085770D02*
X0145135Y0085770D01*
X0145135Y0084771D02*
X0144185Y0084771D01*
X0144185Y0083773D02*
X0145135Y0083773D01*
X0145135Y0082774D02*
X0144185Y0082774D01*
X0144185Y0081776D02*
X0145135Y0081776D01*
X0145135Y0080777D02*
X0144185Y0080777D01*
X0144185Y0079779D02*
X0145135Y0079779D01*
X0145135Y0078780D02*
X0143437Y0078780D01*
X0142935Y0077782D02*
X0145135Y0077782D01*
X0145135Y0076783D02*
X0142935Y0076783D01*
X0142935Y0075784D02*
X0145135Y0075784D01*
X0145135Y0074786D02*
X0142935Y0074786D01*
X0142935Y0073787D02*
X0145135Y0073787D01*
X0145135Y0072789D02*
X0142935Y0072789D01*
X0142935Y0071790D02*
X0145014Y0071790D01*
X0144487Y0070792D02*
X0142935Y0070792D01*
X0142935Y0069793D02*
X0144351Y0069793D01*
X0144534Y0068795D02*
X0142935Y0068795D01*
X0142935Y0067796D02*
X0145127Y0067796D01*
X0145378Y0066798D02*
X0146744Y0066798D01*
X0146848Y0065799D02*
X0161132Y0065799D01*
X0160657Y0066798D02*
X0148126Y0066798D01*
X0149744Y0067796D02*
X0160243Y0067796D01*
X0160235Y0068795D02*
X0150337Y0068795D01*
X0150520Y0069793D02*
X0160235Y0069793D01*
X0160611Y0070792D02*
X0150384Y0070792D01*
X0149857Y0071790D02*
X0161025Y0071790D01*
X0162020Y0072789D02*
X0149735Y0072789D01*
X0149735Y0073787D02*
X0163767Y0073787D01*
X0162145Y0074786D02*
X0149735Y0074786D01*
X0149735Y0075784D02*
X0161147Y0075784D01*
X0160663Y0076783D02*
X0149735Y0076783D01*
X0149735Y0077782D02*
X0160250Y0077782D01*
X0160235Y0078780D02*
X0149735Y0078780D01*
X0149735Y0079779D02*
X0160235Y0079779D01*
X0160605Y0080777D02*
X0149735Y0080777D01*
X0149735Y0081776D02*
X0161019Y0081776D01*
X0162006Y0082774D02*
X0149735Y0082774D01*
X0149735Y0083773D02*
X0163731Y0083773D01*
X0162203Y0084771D02*
X0149735Y0084771D01*
X0149735Y0085770D02*
X0161246Y0085770D01*
X0160660Y0086768D02*
X0149735Y0086768D01*
X0149735Y0087767D02*
X0160342Y0087767D01*
X0160315Y0089764D02*
X0149735Y0089764D01*
X0149735Y0090762D02*
X0160589Y0090762D01*
X0161123Y0091761D02*
X0149735Y0091761D01*
X0149735Y0092759D02*
X0161991Y0092759D01*
X0163712Y0093758D02*
X0149735Y0093758D01*
X0149735Y0094756D02*
X0162175Y0094756D01*
X0161177Y0095755D02*
X0149735Y0095755D01*
X0149135Y0101746D02*
X0145859Y0101746D01*
X0144710Y0102744D02*
X0149135Y0102744D01*
X0149135Y0103743D02*
X0139435Y0103743D01*
X0139158Y0102744D02*
X0140160Y0102744D01*
X0139012Y0101746D02*
X0138160Y0101746D01*
X0138385Y0100747D02*
X0137161Y0100747D01*
X0136900Y0099749D02*
X0137971Y0099749D01*
X0137967Y0098750D02*
X0136904Y0098750D01*
X0136817Y0097752D02*
X0138054Y0097752D01*
X0138467Y0096753D02*
X0136404Y0096753D01*
X0135660Y0095755D02*
X0139211Y0095755D01*
X0140642Y0094756D02*
X0134229Y0094756D01*
X0130642Y0094756D02*
X0124229Y0094756D01*
X0125660Y0095755D02*
X0129211Y0095755D01*
X0128467Y0096753D02*
X0126404Y0096753D01*
X0126817Y0097752D02*
X0128054Y0097752D01*
X0127967Y0098750D02*
X0126904Y0098750D01*
X0126900Y0099749D02*
X0127971Y0099749D01*
X0128385Y0100747D02*
X0127161Y0100747D01*
X0128160Y0101746D02*
X0129012Y0101746D01*
X0129158Y0102744D02*
X0130160Y0102744D01*
X0129435Y0103743D02*
X0134500Y0103743D01*
X0134193Y0104741D02*
X0135435Y0104741D01*
X0137435Y0103850D02*
X0132435Y0098850D01*
X0130678Y0104741D02*
X0129435Y0104741D01*
X0127435Y0103850D02*
X0122435Y0098850D01*
X0124500Y0103743D02*
X0088435Y0103743D01*
X0088435Y0104741D02*
X0110678Y0104741D01*
X0110160Y0102744D02*
X0088435Y0102744D01*
X0088435Y0101746D02*
X0109012Y0101746D01*
X0108385Y0100747D02*
X0088435Y0100747D01*
X0088435Y0099749D02*
X0107971Y0099749D01*
X0107967Y0098750D02*
X0088435Y0098750D01*
X0088435Y0097752D02*
X0108054Y0097752D01*
X0108467Y0096753D02*
X0088435Y0096753D01*
X0088435Y0095755D02*
X0109211Y0095755D01*
X0110435Y0094756D02*
X0088342Y0094756D01*
X0087343Y0093758D02*
X0110699Y0093758D01*
X0111698Y0092759D02*
X0086345Y0092759D01*
X0085346Y0091761D02*
X0112696Y0091761D01*
X0113695Y0090762D02*
X0084348Y0090762D01*
X0080661Y0087353D02*
X0080092Y0087766D01*
X0079466Y0088086D01*
X0078797Y0088303D01*
X0078235Y0088392D01*
X0078235Y0081460D01*
X0082219Y0081460D01*
X0082219Y0084296D01*
X0082109Y0084991D01*
X0081891Y0085660D01*
X0081572Y0086286D01*
X0081159Y0086856D01*
X0080661Y0087353D01*
X0080092Y0087767D02*
X0133417Y0087767D01*
X0133822Y0087934D02*
X0132688Y0087465D01*
X0131821Y0086597D01*
X0131351Y0085463D01*
X0131351Y0084594D01*
X0114091Y0067334D01*
X0113983Y0067334D01*
X0112850Y0066865D01*
X0111982Y0065997D01*
X0111513Y0064863D01*
X0111513Y0063636D01*
X0111982Y0062503D01*
X0112850Y0061635D01*
X0113983Y0061166D01*
X0115210Y0061166D01*
X0116344Y0061635D01*
X0117211Y0062503D01*
X0117681Y0063636D01*
X0117681Y0064863D01*
X0117563Y0065149D01*
X0134180Y0081766D01*
X0135049Y0081766D01*
X0136182Y0082235D01*
X0137050Y0083103D01*
X0137520Y0084236D01*
X0137520Y0085463D01*
X0137050Y0086597D01*
X0136182Y0087465D01*
X0135049Y0087934D01*
X0133822Y0087934D01*
X0135454Y0087767D02*
X0138690Y0087767D01*
X0138282Y0086768D02*
X0136879Y0086768D01*
X0137393Y0085770D02*
X0137685Y0085770D01*
X0137685Y0084771D02*
X0137520Y0084771D01*
X0137685Y0083773D02*
X0137327Y0083773D01*
X0137685Y0082774D02*
X0136721Y0082774D01*
X0137685Y0081776D02*
X0135073Y0081776D01*
X0133191Y0080777D02*
X0137685Y0080777D01*
X0137685Y0079779D02*
X0132192Y0079779D01*
X0131194Y0078780D02*
X0138434Y0078780D01*
X0138935Y0077782D02*
X0130195Y0077782D01*
X0129197Y0076783D02*
X0138935Y0076783D01*
X0138935Y0075784D02*
X0128198Y0075784D01*
X0127200Y0074786D02*
X0134010Y0074786D01*
X0133192Y0073787D02*
X0126201Y0073787D01*
X0125203Y0072789D02*
X0132851Y0072789D01*
X0132851Y0071790D02*
X0124204Y0071790D01*
X0123206Y0070792D02*
X0133242Y0070792D01*
X0133935Y0069793D02*
X0122207Y0069793D01*
X0121209Y0068795D02*
X0133935Y0068795D01*
X0133935Y0067796D02*
X0120210Y0067796D01*
X0119212Y0066798D02*
X0133935Y0066798D01*
X0133523Y0065799D02*
X0118213Y0065799D01*
X0117681Y0064801D02*
X0132991Y0064801D01*
X0132851Y0063802D02*
X0117681Y0063802D01*
X0117336Y0062804D02*
X0133030Y0062804D01*
X0133618Y0061805D02*
X0116514Y0061805D01*
X0114597Y0064250D02*
X0114597Y0065011D01*
X0134435Y0084850D01*
X0131351Y0084771D02*
X0082144Y0084771D01*
X0082219Y0083773D02*
X0130530Y0083773D01*
X0129531Y0082774D02*
X0103176Y0082774D01*
X0102789Y0082934D02*
X0101562Y0082934D01*
X0100428Y0082465D01*
X0099561Y0081597D01*
X0099091Y0080463D01*
X0099091Y0079236D01*
X0099561Y0078103D01*
X0099876Y0077788D01*
X0099876Y0070172D01*
X0099561Y0069857D01*
X0099091Y0068723D01*
X0099091Y0067496D01*
X0099561Y0066363D01*
X0100428Y0065495D01*
X0101562Y0065026D01*
X0102789Y0065026D01*
X0103923Y0065495D01*
X0104790Y0066363D01*
X0105260Y0067496D01*
X0105260Y0068723D01*
X0104790Y0069857D01*
X0104476Y0070172D01*
X0104476Y0077788D01*
X0104790Y0078103D01*
X0105260Y0079236D01*
X0105260Y0080463D01*
X0104790Y0081597D01*
X0103923Y0082465D01*
X0102789Y0082934D01*
X0101175Y0082774D02*
X0082219Y0082774D01*
X0082219Y0081776D02*
X0083677Y0081776D01*
X0084033Y0082131D02*
X0083154Y0081252D01*
X0083154Y0076448D01*
X0083735Y0075866D01*
X0083735Y0064834D01*
X0083154Y0064252D01*
X0083154Y0059448D01*
X0084033Y0058569D01*
X0088838Y0058569D01*
X0089716Y0059448D01*
X0089716Y0064252D01*
X0089135Y0064834D01*
X0089135Y0075866D01*
X0089716Y0076448D01*
X0089716Y0081252D01*
X0088838Y0082131D01*
X0084033Y0082131D01*
X0083154Y0080777D02*
X0078235Y0080777D01*
X0078235Y0080492D02*
X0078235Y0081460D01*
X0077266Y0081460D01*
X0077266Y0080492D01*
X0073282Y0080492D01*
X0073282Y0077656D01*
X0073392Y0076961D01*
X0073609Y0076292D01*
X0073929Y0075665D01*
X0074342Y0075096D01*
X0074839Y0074599D01*
X0075408Y0074186D01*
X0076035Y0073866D01*
X0076704Y0073649D01*
X0077266Y0073560D01*
X0077266Y0080492D01*
X0078235Y0080492D01*
X0082219Y0080492D01*
X0082219Y0077656D01*
X0082109Y0076961D01*
X0081891Y0076292D01*
X0081572Y0075665D01*
X0081159Y0075096D01*
X0080661Y0074599D01*
X0080092Y0074186D01*
X0079466Y0073866D01*
X0078797Y0073649D01*
X0078235Y0073560D01*
X0078235Y0080492D01*
X0078235Y0079779D02*
X0077266Y0079779D01*
X0077266Y0080777D02*
X0054435Y0080777D01*
X0054435Y0079779D02*
X0073282Y0079779D01*
X0073282Y0078780D02*
X0054435Y0078780D01*
X0054435Y0077782D02*
X0073282Y0077782D01*
X0073450Y0076783D02*
X0053990Y0076783D01*
X0054435Y0081776D02*
X0073282Y0081776D01*
X0073282Y0081460D02*
X0077266Y0081460D01*
X0077266Y0088392D01*
X0076704Y0088303D01*
X0076035Y0088086D01*
X0075408Y0087766D01*
X0074839Y0087353D01*
X0074342Y0086856D01*
X0073929Y0086286D01*
X0073609Y0085660D01*
X0073392Y0084991D01*
X0073282Y0084296D01*
X0073282Y0081460D01*
X0073282Y0082774D02*
X0054435Y0082774D01*
X0054435Y0083773D02*
X0073282Y0083773D01*
X0073357Y0084771D02*
X0054435Y0084771D01*
X0054435Y0085770D02*
X0073665Y0085770D01*
X0074278Y0086768D02*
X0054435Y0086768D01*
X0054140Y0087767D02*
X0075409Y0087767D01*
X0077266Y0087767D02*
X0078235Y0087767D01*
X0078235Y0086768D02*
X0077266Y0086768D01*
X0077266Y0085770D02*
X0078235Y0085770D01*
X0078235Y0084771D02*
X0077266Y0084771D01*
X0077266Y0083773D02*
X0078235Y0083773D01*
X0078235Y0082774D02*
X0077266Y0082774D01*
X0077266Y0081776D02*
X0078235Y0081776D01*
X0078235Y0078780D02*
X0077266Y0078780D01*
X0077266Y0077782D02*
X0078235Y0077782D01*
X0078235Y0076783D02*
X0077266Y0076783D01*
X0077266Y0075784D02*
X0078235Y0075784D01*
X0078235Y0074786D02*
X0077266Y0074786D01*
X0077266Y0073787D02*
X0078235Y0073787D01*
X0079223Y0073787D02*
X0083735Y0073787D01*
X0083735Y0072789D02*
X0044135Y0072789D01*
X0044135Y0073787D02*
X0076278Y0073787D01*
X0074652Y0074786D02*
X0044135Y0074786D01*
X0044135Y0075784D02*
X0073868Y0075784D01*
X0080848Y0074786D02*
X0083735Y0074786D01*
X0083735Y0075784D02*
X0081633Y0075784D01*
X0082051Y0076783D02*
X0083154Y0076783D01*
X0083154Y0077782D02*
X0082219Y0077782D01*
X0082219Y0078780D02*
X0083154Y0078780D01*
X0083154Y0079779D02*
X0082219Y0079779D01*
X0081836Y0085770D02*
X0131478Y0085770D01*
X0131992Y0086768D02*
X0081222Y0086768D01*
X0089193Y0081776D02*
X0099739Y0081776D01*
X0099221Y0080777D02*
X0089716Y0080777D01*
X0089716Y0079779D02*
X0099091Y0079779D01*
X0099280Y0078780D02*
X0089716Y0078780D01*
X0089716Y0077782D02*
X0099876Y0077782D01*
X0099876Y0076783D02*
X0089716Y0076783D01*
X0089135Y0075784D02*
X0099876Y0075784D01*
X0099876Y0074786D02*
X0089135Y0074786D01*
X0089135Y0073787D02*
X0099876Y0073787D01*
X0099876Y0072789D02*
X0089135Y0072789D01*
X0089135Y0071790D02*
X0099876Y0071790D01*
X0099876Y0070792D02*
X0089135Y0070792D01*
X0089135Y0069793D02*
X0099535Y0069793D01*
X0099121Y0068795D02*
X0089135Y0068795D01*
X0089135Y0067796D02*
X0099091Y0067796D01*
X0099381Y0066798D02*
X0089135Y0066798D01*
X0089135Y0065799D02*
X0100124Y0065799D01*
X0104227Y0065799D02*
X0111900Y0065799D01*
X0111513Y0064801D02*
X0089168Y0064801D01*
X0089716Y0063802D02*
X0111513Y0063802D01*
X0111857Y0062804D02*
X0089716Y0062804D01*
X0089716Y0061805D02*
X0112680Y0061805D01*
X0112783Y0066798D02*
X0104970Y0066798D01*
X0105260Y0067796D02*
X0114553Y0067796D01*
X0115552Y0068795D02*
X0105230Y0068795D01*
X0104817Y0069793D02*
X0116550Y0069793D01*
X0117549Y0070792D02*
X0104476Y0070792D01*
X0104476Y0071790D02*
X0118547Y0071790D01*
X0119546Y0072789D02*
X0104476Y0072789D01*
X0104476Y0073787D02*
X0120544Y0073787D01*
X0121543Y0074786D02*
X0104476Y0074786D01*
X0104476Y0075784D02*
X0122541Y0075784D01*
X0123540Y0076783D02*
X0104476Y0076783D01*
X0104476Y0077782D02*
X0124538Y0077782D01*
X0125537Y0078780D02*
X0105071Y0078780D01*
X0105260Y0079779D02*
X0126536Y0079779D01*
X0127534Y0080777D02*
X0105130Y0080777D01*
X0104612Y0081776D02*
X0128533Y0081776D01*
X0137692Y0088765D02*
X0053135Y0088765D01*
X0053135Y0089764D02*
X0114693Y0089764D01*
X0116435Y0090850D02*
X0138435Y0090850D01*
X0141435Y0087850D01*
X0140935Y0084350D01*
X0140935Y0081350D02*
X0140935Y0049165D01*
X0141120Y0048850D02*
X0141120Y0037165D01*
X0142435Y0035850D01*
X0146935Y0035850D01*
X0147435Y0035350D01*
X0149797Y0033350D02*
X0150050Y0033603D01*
X0150520Y0034736D01*
X0150520Y0035963D01*
X0150050Y0037097D01*
X0149182Y0037965D01*
X0148049Y0038434D01*
X0146822Y0038434D01*
X0145688Y0037965D01*
X0145574Y0037850D01*
X0143264Y0037850D01*
X0143120Y0037993D01*
X0143120Y0042350D01*
X0144242Y0042350D01*
X0145057Y0043166D01*
X0145873Y0042350D01*
X0152116Y0042350D01*
X0152994Y0043229D01*
X0152994Y0054471D01*
X0152116Y0055350D01*
X0145873Y0055350D01*
X0145057Y0054534D01*
X0144242Y0055350D01*
X0142935Y0055350D01*
X0142935Y0061133D01*
X0143822Y0060766D01*
X0144691Y0060766D01*
X0148607Y0056850D01*
X0155718Y0056850D01*
X0154409Y0055541D01*
X0153685Y0053795D01*
X0153685Y0051905D01*
X0154409Y0050159D01*
X0155745Y0048823D01*
X0157491Y0048100D01*
X0159380Y0048100D01*
X0161126Y0048823D01*
X0162462Y0050159D01*
X0163185Y0051905D01*
X0163185Y0053795D01*
X0162462Y0055541D01*
X0161153Y0056850D01*
X0164377Y0056850D01*
X0163967Y0056440D01*
X0163967Y0049260D01*
X0164846Y0048381D01*
X0171435Y0048381D01*
X0171435Y0046214D01*
X0171367Y0046282D01*
X0170794Y0046699D01*
X0170163Y0047020D01*
X0169489Y0047239D01*
X0168790Y0047350D01*
X0168735Y0047350D01*
X0168735Y0043150D01*
X0168135Y0043150D01*
X0168135Y0042550D01*
X0163935Y0042550D01*
X0163935Y0042496D01*
X0164046Y0041796D01*
X0164265Y0041123D01*
X0164587Y0040491D01*
X0165003Y0039918D01*
X0165504Y0039418D01*
X0165676Y0039293D01*
X0164330Y0039850D01*
X0162540Y0039850D01*
X0161275Y0039326D01*
X0162250Y0040301D01*
X0162935Y0041955D01*
X0162935Y0043745D01*
X0162250Y0045399D01*
X0160984Y0046665D01*
X0159330Y0047350D01*
X0157540Y0047350D01*
X0155886Y0046665D01*
X0154620Y0045399D01*
X0153935Y0043745D01*
X0153935Y0041955D01*
X0154620Y0040301D01*
X0155886Y0039035D01*
X0157540Y0038350D01*
X0159330Y0038350D01*
X0160595Y0038874D01*
X0159620Y0037899D01*
X0158935Y0036245D01*
X0158935Y0034455D01*
X0159393Y0033350D01*
X0149797Y0033350D01*
X0150151Y0033847D02*
X0159187Y0033847D01*
X0158935Y0034846D02*
X0150520Y0034846D01*
X0150520Y0035844D02*
X0158935Y0035844D01*
X0159183Y0036843D02*
X0150156Y0036843D01*
X0149306Y0037841D02*
X0159596Y0037841D01*
X0160512Y0038840D02*
X0160561Y0038840D01*
X0161787Y0039838D02*
X0162512Y0039838D01*
X0162472Y0040837D02*
X0164411Y0040837D01*
X0164359Y0039838D02*
X0165083Y0039838D01*
X0166222Y0038927D02*
X0166708Y0038680D01*
X0167382Y0038461D01*
X0168081Y0038350D01*
X0168135Y0038350D01*
X0168135Y0042550D01*
X0168735Y0042550D01*
X0168735Y0038350D01*
X0168790Y0038350D01*
X0169489Y0038461D01*
X0170163Y0038680D01*
X0170794Y0039001D01*
X0171367Y0039418D01*
X0171868Y0039918D01*
X0172284Y0040491D01*
X0172606Y0041123D01*
X0172825Y0041796D01*
X0172935Y0042496D01*
X0172935Y0042550D01*
X0168735Y0042550D01*
X0168735Y0043150D01*
X0172935Y0043150D01*
X0172935Y0043204D01*
X0172825Y0043904D01*
X0172606Y0044577D01*
X0172321Y0045136D01*
X0175607Y0041850D01*
X0177264Y0041850D01*
X0215223Y0041850D01*
X0214112Y0040739D01*
X0213335Y0038864D01*
X0213335Y0036836D01*
X0214112Y0034961D01*
X0215546Y0033526D01*
X0215972Y0033350D01*
X0167478Y0033350D01*
X0172764Y0033350D01*
X0175264Y0035850D01*
X0191074Y0035850D01*
X0191688Y0035235D01*
X0192822Y0034766D01*
X0194049Y0034766D01*
X0195182Y0035235D01*
X0196050Y0036103D01*
X0196520Y0037236D01*
X0196520Y0038463D01*
X0196050Y0039597D01*
X0195182Y0040465D01*
X0194049Y0040934D01*
X0192822Y0040934D01*
X0191688Y0040465D01*
X0191074Y0039850D01*
X0173607Y0039850D01*
X0171107Y0037350D01*
X0167478Y0037350D01*
X0167250Y0037899D01*
X0166222Y0038927D01*
X0166310Y0038840D02*
X0166394Y0038840D01*
X0167274Y0037841D02*
X0171598Y0037841D01*
X0172597Y0038840D02*
X0170477Y0038840D01*
X0171787Y0039838D02*
X0173595Y0039838D01*
X0172460Y0040837D02*
X0192586Y0040837D01*
X0194285Y0040837D02*
X0214210Y0040837D01*
X0213739Y0039838D02*
X0195809Y0039838D01*
X0196364Y0038840D02*
X0213335Y0038840D01*
X0213335Y0037841D02*
X0196520Y0037841D01*
X0196356Y0036843D02*
X0213335Y0036843D01*
X0213746Y0035844D02*
X0195791Y0035844D01*
X0194241Y0034846D02*
X0214227Y0034846D01*
X0215226Y0033847D02*
X0173261Y0033847D01*
X0174259Y0034846D02*
X0192629Y0034846D01*
X0191080Y0035844D02*
X0175258Y0035844D01*
X0174435Y0037850D02*
X0171935Y0035350D01*
X0163435Y0035350D01*
X0167478Y0033350D02*
X0167478Y0033350D01*
X0168135Y0038840D02*
X0168735Y0038840D01*
X0168735Y0039838D02*
X0168135Y0039838D01*
X0168135Y0040837D02*
X0168735Y0040837D01*
X0168735Y0041835D02*
X0168135Y0041835D01*
X0168135Y0042834D02*
X0162935Y0042834D01*
X0162899Y0043832D02*
X0164035Y0043832D01*
X0164046Y0043904D02*
X0163935Y0043204D01*
X0163935Y0043150D01*
X0168135Y0043150D01*
X0168135Y0047350D01*
X0168081Y0047350D01*
X0167382Y0047239D01*
X0166708Y0047020D01*
X0166077Y0046699D01*
X0165504Y0046282D01*
X0165003Y0045782D01*
X0164587Y0045209D01*
X0164265Y0044577D01*
X0164046Y0043904D01*
X0164394Y0044831D02*
X0162486Y0044831D01*
X0161820Y0045829D02*
X0165051Y0045829D01*
X0166330Y0046828D02*
X0160591Y0046828D01*
X0161128Y0048825D02*
X0164402Y0048825D01*
X0163967Y0049823D02*
X0162126Y0049823D01*
X0162737Y0050822D02*
X0163967Y0050822D01*
X0163967Y0051820D02*
X0163150Y0051820D01*
X0163185Y0052819D02*
X0163967Y0052819D01*
X0163967Y0053817D02*
X0163176Y0053817D01*
X0162763Y0054816D02*
X0163967Y0054816D01*
X0163967Y0055814D02*
X0162189Y0055814D01*
X0161190Y0056813D02*
X0164340Y0056813D01*
X0170435Y0058850D02*
X0149435Y0058850D01*
X0144435Y0063850D01*
X0147520Y0063802D02*
X0154026Y0063802D01*
X0153492Y0062804D02*
X0148310Y0062804D01*
X0149308Y0061805D02*
X0153351Y0061805D01*
X0155681Y0056813D02*
X0142935Y0056813D01*
X0142935Y0057811D02*
X0147646Y0057811D01*
X0146647Y0058810D02*
X0142935Y0058810D01*
X0142935Y0059808D02*
X0145649Y0059808D01*
X0143723Y0060807D02*
X0142935Y0060807D01*
X0138935Y0060807D02*
X0136648Y0060807D01*
X0135223Y0060807D02*
X0089716Y0060807D01*
X0089716Y0059808D02*
X0138935Y0059808D01*
X0138935Y0058810D02*
X0089079Y0058810D01*
X0090221Y0054816D02*
X0066085Y0054816D01*
X0066069Y0055814D02*
X0138935Y0055814D01*
X0138935Y0056813D02*
X0065655Y0056813D01*
X0065050Y0057811D02*
X0138935Y0057811D01*
X0137465Y0054816D02*
X0136902Y0054816D01*
X0142935Y0055814D02*
X0154682Y0055814D01*
X0154108Y0054816D02*
X0152650Y0054816D01*
X0152994Y0053817D02*
X0153695Y0053817D01*
X0153685Y0052819D02*
X0152994Y0052819D01*
X0152994Y0051820D02*
X0153721Y0051820D01*
X0154134Y0050822D02*
X0152994Y0050822D01*
X0152994Y0049823D02*
X0154745Y0049823D01*
X0155743Y0048825D02*
X0152994Y0048825D01*
X0152994Y0047826D02*
X0171435Y0047826D01*
X0171435Y0046828D02*
X0170541Y0046828D01*
X0168735Y0046828D02*
X0168135Y0046828D01*
X0168135Y0045829D02*
X0168735Y0045829D01*
X0168735Y0044831D02*
X0168135Y0044831D01*
X0168135Y0043832D02*
X0168735Y0043832D01*
X0168735Y0042834D02*
X0174623Y0042834D01*
X0173625Y0043832D02*
X0172836Y0043832D01*
X0172626Y0044831D02*
X0172477Y0044831D01*
X0173435Y0046850D02*
X0176435Y0043850D01*
X0253435Y0043850D01*
X0257435Y0047850D01*
X0265435Y0047850D01*
X0268435Y0050850D01*
X0268435Y0052850D01*
X0263967Y0052819D02*
X0262904Y0052819D01*
X0262871Y0053817D02*
X0263999Y0053817D01*
X0264413Y0054816D02*
X0262458Y0054816D01*
X0261791Y0055814D02*
X0265080Y0055814D01*
X0266326Y0056813D02*
X0260545Y0056813D01*
X0256326Y0056813D02*
X0250545Y0056813D01*
X0250967Y0056638D02*
X0249324Y0057318D01*
X0247547Y0057318D01*
X0245904Y0056638D01*
X0244647Y0055381D01*
X0243967Y0053739D01*
X0243967Y0051961D01*
X0244647Y0050319D01*
X0245904Y0049062D01*
X0247547Y0048381D01*
X0249324Y0048381D01*
X0250967Y0049062D01*
X0252224Y0050319D01*
X0252904Y0051961D01*
X0252904Y0053739D01*
X0252224Y0055381D01*
X0250967Y0056638D01*
X0251791Y0055814D02*
X0255080Y0055814D01*
X0254413Y0054816D02*
X0252458Y0054816D01*
X0252871Y0053817D02*
X0253999Y0053817D01*
X0253967Y0052819D02*
X0252904Y0052819D01*
X0252845Y0051820D02*
X0254025Y0051820D01*
X0254439Y0050822D02*
X0252432Y0050822D01*
X0251728Y0049823D02*
X0255143Y0049823D01*
X0255582Y0048825D02*
X0250394Y0048825D01*
X0253585Y0046828D02*
X0218241Y0046828D01*
X0219240Y0047826D02*
X0254583Y0047826D01*
X0258435Y0042850D02*
X0261435Y0045850D01*
X0306435Y0045850D01*
X0308435Y0047850D01*
X0308435Y0052850D01*
X0303967Y0052819D02*
X0302904Y0052819D01*
X0302904Y0051961D02*
X0302224Y0050319D01*
X0300967Y0049062D01*
X0299324Y0048381D01*
X0297547Y0048381D01*
X0295904Y0049062D01*
X0294647Y0050319D01*
X0293967Y0051961D01*
X0293967Y0053739D01*
X0294647Y0055381D01*
X0295904Y0056638D01*
X0297547Y0057318D01*
X0299324Y0057318D01*
X0300967Y0056638D01*
X0302224Y0055381D01*
X0302904Y0053739D01*
X0302904Y0051961D01*
X0302845Y0051820D02*
X0304025Y0051820D01*
X0304439Y0050822D02*
X0302432Y0050822D01*
X0301728Y0049823D02*
X0305143Y0049823D01*
X0306435Y0048825D02*
X0300394Y0048825D01*
X0296477Y0048825D02*
X0290394Y0048825D01*
X0290967Y0049062D02*
X0292224Y0050319D01*
X0292904Y0051961D01*
X0292904Y0053739D01*
X0292224Y0055381D01*
X0290967Y0056638D01*
X0289324Y0057318D01*
X0287547Y0057318D01*
X0285904Y0056638D01*
X0284647Y0055381D01*
X0283967Y0053739D01*
X0283967Y0051961D01*
X0284647Y0050319D01*
X0285904Y0049062D01*
X0287547Y0048381D01*
X0289324Y0048381D01*
X0290967Y0049062D01*
X0291728Y0049823D02*
X0295143Y0049823D01*
X0294439Y0050822D02*
X0292432Y0050822D01*
X0292845Y0051820D02*
X0294025Y0051820D01*
X0293967Y0052819D02*
X0292904Y0052819D01*
X0292871Y0053817D02*
X0293999Y0053817D01*
X0294413Y0054816D02*
X0292458Y0054816D01*
X0291791Y0055814D02*
X0295080Y0055814D01*
X0296326Y0056813D02*
X0290545Y0056813D01*
X0286326Y0056813D02*
X0280545Y0056813D01*
X0280302Y0057811D02*
X0321935Y0057811D01*
X0321935Y0056813D02*
X0321190Y0056813D01*
X0321935Y0058810D02*
X0279304Y0058810D01*
X0278305Y0059808D02*
X0321935Y0059808D01*
X0321935Y0060807D02*
X0277307Y0060807D01*
X0276520Y0061805D02*
X0321935Y0061805D01*
X0321935Y0062804D02*
X0276379Y0062804D01*
X0275845Y0063802D02*
X0299733Y0063802D01*
X0301137Y0063802D02*
X0321935Y0063802D01*
X0321935Y0064801D02*
X0302748Y0064801D01*
X0303339Y0065799D02*
X0321935Y0065799D01*
X0321935Y0066798D02*
X0303520Y0066798D01*
X0303382Y0067796D02*
X0321935Y0067796D01*
X0321935Y0068795D02*
X0302852Y0068795D01*
X0301389Y0069793D02*
X0321935Y0069793D01*
X0321935Y0070792D02*
X0220322Y0070792D01*
X0221320Y0069793D02*
X0242482Y0069793D01*
X0241019Y0068795D02*
X0222319Y0068795D01*
X0223317Y0067796D02*
X0240489Y0067796D01*
X0240351Y0066798D02*
X0224316Y0066798D01*
X0225314Y0065799D02*
X0240532Y0065799D01*
X0241123Y0064801D02*
X0226313Y0064801D01*
X0226435Y0061850D02*
X0273435Y0061850D01*
X0278435Y0056850D01*
X0278435Y0052850D01*
X0273967Y0052819D02*
X0272904Y0052819D01*
X0272871Y0053817D02*
X0273999Y0053817D01*
X0274413Y0054816D02*
X0272458Y0054816D01*
X0271791Y0055814D02*
X0275080Y0055814D01*
X0275644Y0056813D02*
X0270545Y0056813D01*
X0272716Y0058810D02*
X0229304Y0058810D01*
X0228305Y0059808D02*
X0271115Y0059808D01*
X0274646Y0057811D02*
X0230302Y0057811D01*
X0230545Y0056813D02*
X0236326Y0056813D01*
X0235904Y0056638D02*
X0234647Y0055381D01*
X0233967Y0053739D01*
X0233967Y0051961D01*
X0234647Y0050319D01*
X0235904Y0049062D01*
X0237547Y0048381D01*
X0239324Y0048381D01*
X0240967Y0049062D01*
X0242224Y0050319D01*
X0242904Y0051961D01*
X0242904Y0053739D01*
X0242224Y0055381D01*
X0240967Y0056638D01*
X0239324Y0057318D01*
X0237547Y0057318D01*
X0235904Y0056638D01*
X0235080Y0055814D02*
X0231791Y0055814D01*
X0232458Y0054816D02*
X0234413Y0054816D01*
X0233999Y0053817D02*
X0232871Y0053817D01*
X0232904Y0052819D02*
X0233967Y0052819D01*
X0234025Y0051820D02*
X0232845Y0051820D01*
X0232432Y0050822D02*
X0234439Y0050822D01*
X0235143Y0049823D02*
X0231728Y0049823D01*
X0230394Y0048825D02*
X0236477Y0048825D01*
X0240394Y0048825D02*
X0246477Y0048825D01*
X0245143Y0049823D02*
X0241728Y0049823D01*
X0242432Y0050822D02*
X0244439Y0050822D01*
X0244025Y0051820D02*
X0242845Y0051820D01*
X0242904Y0052819D02*
X0243967Y0052819D01*
X0243999Y0053817D02*
X0242871Y0053817D01*
X0242458Y0054816D02*
X0244413Y0054816D01*
X0245080Y0055814D02*
X0241791Y0055814D01*
X0240545Y0056813D02*
X0246326Y0056813D01*
X0243435Y0066850D02*
X0300435Y0066850D01*
X0298123Y0064801D02*
X0274371Y0064801D01*
X0281791Y0055814D02*
X0285080Y0055814D01*
X0284413Y0054816D02*
X0282458Y0054816D01*
X0282871Y0053817D02*
X0283999Y0053817D01*
X0283967Y0052819D02*
X0282904Y0052819D01*
X0282845Y0051820D02*
X0284025Y0051820D01*
X0284439Y0050822D02*
X0282432Y0050822D01*
X0281728Y0049823D02*
X0285143Y0049823D01*
X0286477Y0048825D02*
X0280394Y0048825D01*
X0276477Y0048825D02*
X0270394Y0048825D01*
X0271728Y0049823D02*
X0275143Y0049823D01*
X0274439Y0050822D02*
X0272432Y0050822D01*
X0272845Y0051820D02*
X0274025Y0051820D01*
X0270435Y0043850D02*
X0296435Y0043850D01*
X0298435Y0041850D01*
X0295351Y0041835D02*
X0291663Y0041835D01*
X0292661Y0040837D02*
X0295517Y0040837D01*
X0296085Y0039838D02*
X0293132Y0039838D01*
X0293535Y0038840D02*
X0297644Y0038840D01*
X0299227Y0038840D02*
X0307636Y0038840D01*
X0307636Y0039838D02*
X0300785Y0039838D01*
X0301354Y0040837D02*
X0307636Y0040837D01*
X0307816Y0041835D02*
X0301520Y0041835D01*
X0301366Y0042834D02*
X0308229Y0042834D01*
X0308643Y0043832D02*
X0300815Y0043832D01*
X0308244Y0044831D02*
X0309386Y0044831D01*
X0309243Y0045829D02*
X0310385Y0045829D01*
X0310241Y0046828D02*
X0311901Y0046828D01*
X0310435Y0047826D02*
X0321935Y0047826D01*
X0321935Y0046828D02*
X0318970Y0046828D01*
X0320486Y0045829D02*
X0321935Y0045829D01*
X0321935Y0044831D02*
X0321484Y0044831D01*
X0321128Y0048825D02*
X0321935Y0048825D01*
X0315743Y0048825D02*
X0310435Y0048825D01*
X0311728Y0049823D02*
X0314745Y0049823D01*
X0314134Y0050822D02*
X0312432Y0050822D01*
X0312845Y0051820D02*
X0313721Y0051820D01*
X0313685Y0052819D02*
X0312904Y0052819D01*
X0312871Y0053817D02*
X0313695Y0053817D01*
X0314108Y0054816D02*
X0312458Y0054816D01*
X0311791Y0055814D02*
X0314682Y0055814D01*
X0315681Y0056813D02*
X0310545Y0056813D01*
X0306326Y0056813D02*
X0300545Y0056813D01*
X0301791Y0055814D02*
X0305080Y0055814D01*
X0304413Y0054816D02*
X0302458Y0054816D01*
X0302871Y0053817D02*
X0303999Y0053817D01*
X0299482Y0069793D02*
X0244389Y0069793D01*
X0228435Y0056850D02*
X0228435Y0052850D01*
X0225143Y0049823D02*
X0221728Y0049823D01*
X0222432Y0050822D02*
X0224439Y0050822D01*
X0224025Y0051820D02*
X0222845Y0051820D01*
X0222904Y0052819D02*
X0223967Y0052819D01*
X0223999Y0053817D02*
X0222871Y0053817D01*
X0222458Y0054816D02*
X0224413Y0054816D01*
X0225080Y0055814D02*
X0221791Y0055814D01*
X0218435Y0057850D02*
X0227435Y0057850D01*
X0228435Y0056850D01*
X0224650Y0060807D02*
X0218307Y0060807D01*
X0217685Y0061805D02*
X0223652Y0061805D01*
X0222653Y0062804D02*
X0217685Y0062804D01*
X0217685Y0063802D02*
X0221655Y0063802D01*
X0220656Y0064801D02*
X0217685Y0064801D01*
X0217685Y0065799D02*
X0219658Y0065799D01*
X0218659Y0066798D02*
X0217059Y0066798D01*
X0217661Y0067796D02*
X0216435Y0067796D01*
X0216435Y0068795D02*
X0216662Y0068795D01*
X0216435Y0071850D02*
X0226435Y0061850D01*
X0218435Y0057850D02*
X0217435Y0058850D01*
X0214435Y0061350D01*
X0214435Y0064350D02*
X0214435Y0071850D01*
X0216435Y0071850D01*
X0218325Y0072789D02*
X0321935Y0072789D01*
X0321935Y0073787D02*
X0217326Y0073787D01*
X0215407Y0074786D02*
X0321935Y0074786D01*
X0321935Y0075784D02*
X0205435Y0075784D01*
X0205435Y0074786D02*
X0213464Y0074786D01*
X0212011Y0073787D02*
X0205435Y0073787D01*
X0205435Y0072789D02*
X0211486Y0072789D01*
X0211351Y0071790D02*
X0205435Y0071790D01*
X0205435Y0070792D02*
X0211535Y0070792D01*
X0212130Y0069793D02*
X0205435Y0069793D01*
X0205435Y0068795D02*
X0212435Y0068795D01*
X0212435Y0067796D02*
X0205435Y0067796D01*
X0206059Y0066798D02*
X0211812Y0066798D01*
X0211185Y0065799D02*
X0206685Y0065799D01*
X0206685Y0064801D02*
X0211185Y0064801D01*
X0211185Y0063802D02*
X0206685Y0063802D01*
X0206685Y0062804D02*
X0211185Y0062804D01*
X0211185Y0061805D02*
X0206685Y0061805D01*
X0206685Y0060807D02*
X0211185Y0060807D01*
X0211185Y0059808D02*
X0206685Y0059808D01*
X0205967Y0058810D02*
X0211904Y0058810D01*
X0210545Y0056813D02*
X0216326Y0056813D01*
X0215558Y0057811D02*
X0205435Y0057811D01*
X0205435Y0056813D02*
X0206326Y0056813D01*
X0201435Y0056813D02*
X0200501Y0056813D01*
X0201435Y0057811D02*
X0174302Y0057811D01*
X0173304Y0058810D02*
X0200904Y0058810D01*
X0200185Y0059808D02*
X0187646Y0059808D01*
X0188645Y0060807D02*
X0200185Y0060807D01*
X0200185Y0061805D02*
X0189643Y0061805D01*
X0190642Y0062804D02*
X0200185Y0062804D01*
X0200185Y0063802D02*
X0191640Y0063802D01*
X0192639Y0064801D02*
X0200185Y0064801D01*
X0200185Y0065799D02*
X0193637Y0065799D01*
X0194636Y0066798D02*
X0200812Y0066798D01*
X0201435Y0067796D02*
X0195634Y0067796D01*
X0195735Y0068795D02*
X0201435Y0068795D01*
X0201435Y0069793D02*
X0195735Y0069793D01*
X0195735Y0070792D02*
X0201435Y0070792D01*
X0201435Y0071790D02*
X0195735Y0071790D01*
X0195735Y0072789D02*
X0201435Y0072789D01*
X0201435Y0073787D02*
X0195735Y0073787D01*
X0195735Y0074786D02*
X0201435Y0074786D01*
X0201435Y0075784D02*
X0195735Y0075784D01*
X0195735Y0076783D02*
X0201435Y0076783D01*
X0201142Y0077782D02*
X0195735Y0077782D01*
X0195735Y0078780D02*
X0200540Y0078780D01*
X0200351Y0079779D02*
X0195735Y0079779D01*
X0195735Y0080777D02*
X0200481Y0080777D01*
X0200999Y0081776D02*
X0195735Y0081776D01*
X0195735Y0082774D02*
X0202435Y0082774D01*
X0204436Y0082774D02*
X0218531Y0082774D01*
X0219530Y0083773D02*
X0195735Y0083773D01*
X0195735Y0084771D02*
X0220528Y0084771D01*
X0221527Y0085770D02*
X0195735Y0085770D01*
X0195735Y0086768D02*
X0222525Y0086768D01*
X0223524Y0087767D02*
X0195735Y0087767D01*
X0195735Y0088765D02*
X0224522Y0088765D01*
X0225521Y0089764D02*
X0195735Y0089764D01*
X0195735Y0090762D02*
X0226519Y0090762D01*
X0227518Y0091761D02*
X0195735Y0091761D01*
X0195735Y0092759D02*
X0228516Y0092759D01*
X0229515Y0093758D02*
X0196321Y0093758D01*
X0196520Y0094756D02*
X0230154Y0094756D01*
X0230259Y0095755D02*
X0196399Y0095755D01*
X0190801Y0096550D02*
X0190351Y0095463D01*
X0190351Y0094236D01*
X0190821Y0093103D01*
X0191135Y0092788D01*
X0191135Y0069803D01*
X0185483Y0064150D01*
X0167677Y0064150D01*
X0168381Y0064442D01*
X0169844Y0065904D01*
X0170635Y0067816D01*
X0170635Y0069884D01*
X0169844Y0071796D01*
X0168381Y0073258D01*
X0166953Y0073850D01*
X0168381Y0074442D01*
X0169844Y0075904D01*
X0170635Y0077816D01*
X0170635Y0079884D01*
X0169844Y0081796D01*
X0168381Y0083258D01*
X0166918Y0083864D01*
X0167431Y0084031D01*
X0168161Y0084403D01*
X0168823Y0084884D01*
X0169402Y0085462D01*
X0169883Y0086125D01*
X0170254Y0086854D01*
X0170507Y0087632D01*
X0170621Y0088350D01*
X0165935Y0088350D01*
X0165935Y0089350D01*
X0170621Y0089350D01*
X0170507Y0090068D01*
X0170254Y0090846D01*
X0169883Y0091575D01*
X0169402Y0092238D01*
X0168823Y0092816D01*
X0168161Y0093297D01*
X0167431Y0093669D01*
X0166918Y0093836D01*
X0168381Y0094442D01*
X0169844Y0095904D01*
X0170111Y0096550D01*
X0181894Y0096550D01*
X0181688Y0096465D01*
X0180821Y0095597D01*
X0180351Y0094463D01*
X0180351Y0093236D01*
X0180821Y0092103D01*
X0181435Y0091488D01*
X0181435Y0085212D01*
X0180821Y0084597D01*
X0180351Y0083463D01*
X0180351Y0082236D01*
X0180821Y0081103D01*
X0181688Y0080235D01*
X0182822Y0079766D01*
X0184049Y0079766D01*
X0185182Y0080235D01*
X0186050Y0081103D01*
X0186520Y0082236D01*
X0186520Y0083463D01*
X0186050Y0084597D01*
X0185435Y0085212D01*
X0185435Y0091488D01*
X0186050Y0092103D01*
X0186520Y0093236D01*
X0186520Y0094463D01*
X0186050Y0095597D01*
X0185182Y0096465D01*
X0184976Y0096550D01*
X0190801Y0096550D01*
X0190472Y0095755D02*
X0185892Y0095755D01*
X0186398Y0094756D02*
X0190351Y0094756D01*
X0190549Y0093758D02*
X0186520Y0093758D01*
X0186322Y0092759D02*
X0191135Y0092759D01*
X0191135Y0091761D02*
X0185708Y0091761D01*
X0185435Y0090762D02*
X0191135Y0090762D01*
X0191135Y0089764D02*
X0185435Y0089764D01*
X0185435Y0088765D02*
X0191135Y0088765D01*
X0191135Y0087767D02*
X0185435Y0087767D01*
X0185435Y0086768D02*
X0191135Y0086768D01*
X0191135Y0085770D02*
X0185435Y0085770D01*
X0185876Y0084771D02*
X0191135Y0084771D01*
X0191135Y0083773D02*
X0186392Y0083773D01*
X0186520Y0082774D02*
X0191135Y0082774D01*
X0191135Y0081776D02*
X0186329Y0081776D01*
X0185724Y0080777D02*
X0191135Y0080777D01*
X0191135Y0079779D02*
X0184080Y0079779D01*
X0182791Y0079779D02*
X0170635Y0079779D01*
X0170635Y0078780D02*
X0191135Y0078780D01*
X0191135Y0077782D02*
X0170621Y0077782D01*
X0170208Y0076783D02*
X0191135Y0076783D01*
X0191135Y0075784D02*
X0169724Y0075784D01*
X0168725Y0074786D02*
X0191135Y0074786D01*
X0191135Y0073787D02*
X0167103Y0073787D01*
X0168850Y0072789D02*
X0191135Y0072789D01*
X0191135Y0071790D02*
X0169846Y0071790D01*
X0170259Y0070792D02*
X0191135Y0070792D01*
X0191126Y0069793D02*
X0170635Y0069793D01*
X0170635Y0068795D02*
X0190128Y0068795D01*
X0189129Y0067796D02*
X0170627Y0067796D01*
X0170214Y0066798D02*
X0188131Y0066798D01*
X0187132Y0065799D02*
X0169739Y0065799D01*
X0168740Y0064801D02*
X0186134Y0064801D01*
X0187547Y0057318D02*
X0185904Y0056638D01*
X0184647Y0055381D01*
X0183967Y0053739D01*
X0183967Y0051961D01*
X0184647Y0050319D01*
X0185904Y0049062D01*
X0187547Y0048381D01*
X0189324Y0048381D01*
X0190967Y0049062D01*
X0192224Y0050319D01*
X0192904Y0051961D01*
X0192904Y0053739D01*
X0192224Y0055381D01*
X0190967Y0056638D01*
X0189324Y0057318D01*
X0187547Y0057318D01*
X0186326Y0056813D02*
X0180545Y0056813D01*
X0181791Y0055814D02*
X0185080Y0055814D01*
X0184413Y0054816D02*
X0182458Y0054816D01*
X0182871Y0053817D02*
X0183999Y0053817D01*
X0183967Y0052819D02*
X0182904Y0052819D01*
X0182845Y0051820D02*
X0184025Y0051820D01*
X0184439Y0050822D02*
X0182432Y0050822D01*
X0181728Y0049823D02*
X0185143Y0049823D01*
X0186477Y0048825D02*
X0180394Y0048825D01*
X0176477Y0048825D02*
X0175435Y0048825D01*
X0175435Y0047826D02*
X0202631Y0047826D01*
X0203629Y0046828D02*
X0176286Y0046828D01*
X0173435Y0046850D02*
X0173435Y0055850D01*
X0170435Y0058850D01*
X0175301Y0056813D02*
X0176326Y0056813D01*
X0190545Y0056813D02*
X0196370Y0056813D01*
X0196093Y0056672D02*
X0195524Y0056258D01*
X0195027Y0055761D01*
X0194614Y0055192D01*
X0194294Y0054565D01*
X0194077Y0053896D01*
X0193988Y0053334D01*
X0197951Y0053334D01*
X0197951Y0057297D01*
X0197389Y0057208D01*
X0196720Y0056991D01*
X0196093Y0056672D01*
X0195080Y0055814D02*
X0191791Y0055814D01*
X0192458Y0054816D02*
X0194422Y0054816D01*
X0194064Y0053817D02*
X0192871Y0053817D01*
X0192904Y0052819D02*
X0197951Y0052819D01*
X0197951Y0053817D02*
X0198920Y0053817D01*
X0198920Y0054816D02*
X0197951Y0054816D01*
X0197951Y0055814D02*
X0198920Y0055814D01*
X0198920Y0056813D02*
X0197951Y0056813D01*
X0203435Y0061350D02*
X0203435Y0049850D01*
X0205435Y0047850D01*
X0216435Y0047850D01*
X0218435Y0049850D01*
X0218435Y0052850D01*
X0214413Y0054816D02*
X0212458Y0054816D01*
X0212871Y0053817D02*
X0213999Y0053817D01*
X0213967Y0052819D02*
X0212904Y0052819D01*
X0212845Y0051820D02*
X0214025Y0051820D01*
X0214439Y0050822D02*
X0212432Y0050822D01*
X0211791Y0055814D02*
X0215080Y0055814D01*
X0220394Y0048825D02*
X0226477Y0048825D01*
X0215208Y0041835D02*
X0172831Y0041835D01*
X0174435Y0037850D02*
X0193435Y0037850D01*
X0190394Y0048825D02*
X0196493Y0048825D01*
X0197951Y0048825D02*
X0198920Y0048825D01*
X0198920Y0049823D02*
X0197951Y0049823D01*
X0197951Y0050822D02*
X0198920Y0050822D01*
X0198920Y0051820D02*
X0197951Y0051820D01*
X0195143Y0049823D02*
X0191728Y0049823D01*
X0192432Y0050822D02*
X0194454Y0050822D01*
X0194074Y0051820D02*
X0192845Y0051820D01*
X0200378Y0048825D02*
X0201632Y0048825D01*
X0203435Y0064350D02*
X0203435Y0079850D01*
X0218435Y0079850D01*
X0233435Y0094850D01*
X0236716Y0094756D02*
X0321935Y0094756D01*
X0321935Y0093758D02*
X0236534Y0093758D01*
X0235985Y0092759D02*
X0321935Y0092759D01*
X0321935Y0091761D02*
X0234551Y0091761D01*
X0232176Y0090762D02*
X0321935Y0090762D01*
X0321935Y0089764D02*
X0231177Y0089764D01*
X0230179Y0088765D02*
X0321935Y0088765D01*
X0321935Y0087767D02*
X0229180Y0087767D01*
X0228182Y0086768D02*
X0321935Y0086768D01*
X0321935Y0085770D02*
X0227183Y0085770D01*
X0226185Y0084771D02*
X0321935Y0084771D01*
X0321935Y0083773D02*
X0225186Y0083773D01*
X0224188Y0082774D02*
X0321935Y0082774D01*
X0321935Y0081776D02*
X0223189Y0081776D01*
X0222191Y0080777D02*
X0321935Y0080777D01*
X0321935Y0079779D02*
X0221192Y0079779D01*
X0220194Y0078780D02*
X0321935Y0078780D01*
X0321935Y0077782D02*
X0205729Y0077782D01*
X0205435Y0076783D02*
X0321935Y0076783D01*
X0321935Y0071790D02*
X0219323Y0071790D01*
X0236612Y0095755D02*
X0321935Y0095755D01*
X0321935Y0096753D02*
X0295700Y0096753D01*
X0296319Y0097752D02*
X0321935Y0097752D01*
X0321935Y0098750D02*
X0296520Y0098750D01*
X0296401Y0099749D02*
X0321935Y0099749D01*
X0321935Y0100747D02*
X0295900Y0100747D01*
X0294504Y0101746D02*
X0321935Y0101746D01*
X0321935Y0102744D02*
X0180691Y0102744D01*
X0181315Y0103743D02*
X0321935Y0103743D01*
X0321935Y0104741D02*
X0181520Y0104741D01*
X0181405Y0105740D02*
X0321935Y0105740D01*
X0321935Y0106738D02*
X0180909Y0106738D01*
X0180203Y0108735D02*
X0186692Y0108735D01*
X0185232Y0109734D02*
X0181639Y0109734D01*
X0182372Y0110732D02*
X0184476Y0110732D01*
X0184062Y0111731D02*
X0182770Y0111731D01*
X0178920Y0113728D02*
X0177951Y0113728D01*
X0177951Y0113334D02*
X0177951Y0117297D01*
X0177389Y0117208D01*
X0176720Y0116991D01*
X0176093Y0116672D01*
X0175524Y0116258D01*
X0175027Y0115761D01*
X0174614Y0115192D01*
X0174294Y0114565D01*
X0174077Y0113896D01*
X0173988Y0113334D01*
X0177951Y0113334D01*
X0177951Y0112729D02*
X0172904Y0112729D01*
X0172904Y0111961D02*
X0172224Y0110319D01*
X0170967Y0109062D01*
X0169324Y0108381D01*
X0167547Y0108381D01*
X0165904Y0109062D01*
X0164647Y0110319D01*
X0163967Y0111961D01*
X0163967Y0113739D01*
X0164647Y0115381D01*
X0165904Y0116638D01*
X0167547Y0117318D01*
X0169324Y0117318D01*
X0170967Y0116638D01*
X0172224Y0115381D01*
X0172904Y0113739D01*
X0172904Y0111961D01*
X0172809Y0111731D02*
X0174101Y0111731D01*
X0174499Y0110732D02*
X0172395Y0110732D01*
X0171639Y0109734D02*
X0175232Y0109734D01*
X0176668Y0108735D02*
X0170179Y0108735D01*
X0166692Y0108735D02*
X0160914Y0108735D01*
X0162037Y0109734D02*
X0165232Y0109734D01*
X0164476Y0110732D02*
X0162700Y0110732D01*
X0163113Y0111731D02*
X0164062Y0111731D01*
X0163967Y0112729D02*
X0163185Y0112729D01*
X0163185Y0113728D02*
X0163967Y0113728D01*
X0164376Y0114726D02*
X0162799Y0114726D01*
X0162278Y0115725D02*
X0164991Y0115725D01*
X0166110Y0116723D02*
X0161279Y0116723D01*
X0158557Y0119719D02*
X0175738Y0119719D01*
X0176736Y0118720D02*
X0157559Y0118720D01*
X0156560Y0117722D02*
X0177735Y0117722D01*
X0177951Y0116723D02*
X0178734Y0116723D01*
X0178920Y0115725D02*
X0177951Y0115725D01*
X0177951Y0114726D02*
X0178920Y0114726D01*
X0176195Y0116723D02*
X0170761Y0116723D01*
X0171880Y0115725D02*
X0175001Y0115725D01*
X0174376Y0114726D02*
X0172495Y0114726D01*
X0172904Y0113728D02*
X0174050Y0113728D01*
X0177345Y0107737D02*
X0157525Y0107737D01*
X0155957Y0108735D02*
X0153735Y0108735D01*
X0153735Y0107737D02*
X0155345Y0107737D01*
X0153962Y0106738D02*
X0153735Y0106738D01*
X0153735Y0109734D02*
X0154834Y0109734D01*
X0154171Y0110732D02*
X0153735Y0110732D01*
X0153735Y0111731D02*
X0153758Y0111731D01*
X0153735Y0114726D02*
X0154071Y0114726D01*
X0154563Y0115725D02*
X0154593Y0115725D01*
X0155562Y0116723D02*
X0155591Y0116723D01*
X0153050Y0120718D02*
X0152994Y0120718D01*
X0152994Y0121716D02*
X0154049Y0121716D01*
X0155047Y0122715D02*
X0152994Y0122715D01*
X0152994Y0123713D02*
X0155600Y0123713D01*
X0155600Y0124712D02*
X0152994Y0124712D01*
X0152994Y0125710D02*
X0155600Y0125710D01*
X0155600Y0126709D02*
X0152994Y0126709D01*
X0152994Y0127707D02*
X0155600Y0127707D01*
X0155004Y0128706D02*
X0152994Y0128706D01*
X0152994Y0129704D02*
X0154005Y0129704D01*
X0153564Y0130703D02*
X0152763Y0130703D01*
X0145226Y0130703D02*
X0144889Y0130703D01*
X0141120Y0124850D02*
X0141120Y0116535D01*
X0137435Y0112850D01*
X0137435Y0103850D01*
X0141951Y0104741D02*
X0142920Y0104741D01*
X0142920Y0104381D02*
X0145601Y0104381D01*
X0145983Y0104484D01*
X0146325Y0104681D01*
X0146604Y0104960D01*
X0146802Y0105303D01*
X0146904Y0105684D01*
X0146904Y0108366D01*
X0142920Y0108366D01*
X0142920Y0104381D01*
X0142920Y0105740D02*
X0141951Y0105740D01*
X0141951Y0106738D02*
X0142920Y0106738D01*
X0142920Y0107737D02*
X0141951Y0107737D01*
X0142920Y0108735D02*
X0149135Y0108735D01*
X0149135Y0107737D02*
X0146904Y0107737D01*
X0146904Y0106738D02*
X0149135Y0106738D01*
X0149135Y0105740D02*
X0146904Y0105740D01*
X0146385Y0104741D02*
X0149135Y0104741D01*
X0149135Y0109734D02*
X0146904Y0109734D01*
X0146904Y0110732D02*
X0149135Y0110732D01*
X0149135Y0111731D02*
X0146904Y0111731D01*
X0146610Y0112729D02*
X0149135Y0112729D01*
X0149135Y0113728D02*
X0141142Y0113728D01*
X0141951Y0112729D02*
X0142920Y0112729D01*
X0142920Y0111731D02*
X0141951Y0111731D01*
X0141951Y0110732D02*
X0142920Y0110732D01*
X0142920Y0109734D02*
X0141951Y0109734D01*
X0142140Y0114726D02*
X0149135Y0114726D01*
X0149135Y0115725D02*
X0143120Y0115725D01*
X0143120Y0116723D02*
X0149135Y0116723D01*
X0150055Y0117722D02*
X0143120Y0117722D01*
X0144612Y0118720D02*
X0145503Y0118720D01*
X0136435Y0116850D02*
X0132435Y0112850D01*
X0132435Y0108850D01*
X0127435Y0112850D02*
X0127435Y0103850D01*
X0125435Y0104741D02*
X0124193Y0104741D01*
X0127435Y0112850D02*
X0133246Y0118661D01*
X0133246Y0124850D01*
X0137015Y0130703D02*
X0137352Y0130703D01*
X0125372Y0130913D02*
X0125372Y0124850D01*
X0125335Y0124813D01*
X0125335Y0116850D01*
X0112435Y0098850D02*
X0112435Y0094850D01*
X0116435Y0090850D01*
X0137861Y0074786D02*
X0138935Y0074786D01*
X0138935Y0073787D02*
X0138678Y0073787D01*
X0135935Y0072350D02*
X0135935Y0063850D01*
X0138840Y0062804D02*
X0138935Y0062804D01*
X0138935Y0061805D02*
X0138253Y0061805D01*
X0142935Y0066798D02*
X0143493Y0066798D01*
X0147380Y0064801D02*
X0155500Y0064801D01*
X0157371Y0064801D02*
X0162131Y0064801D01*
X0145339Y0054816D02*
X0144776Y0054816D01*
X0152994Y0046828D02*
X0156279Y0046828D01*
X0155051Y0045829D02*
X0152994Y0045829D01*
X0152994Y0044831D02*
X0154385Y0044831D01*
X0153971Y0043832D02*
X0152994Y0043832D01*
X0152599Y0042834D02*
X0153935Y0042834D01*
X0153985Y0041835D02*
X0143120Y0041835D01*
X0143120Y0040837D02*
X0154399Y0040837D01*
X0155083Y0039838D02*
X0143120Y0039838D01*
X0143120Y0038840D02*
X0156358Y0038840D01*
X0162886Y0041835D02*
X0164040Y0041835D01*
X0145389Y0042834D02*
X0144725Y0042834D01*
X0129591Y0054816D02*
X0129028Y0054816D01*
X0121717Y0054816D02*
X0121154Y0054816D01*
X0113843Y0054816D02*
X0113280Y0054816D01*
X0105969Y0054816D02*
X0105406Y0054816D01*
X0098095Y0054816D02*
X0097532Y0054816D01*
X0089876Y0053817D02*
X0066041Y0053817D01*
X0066719Y0052819D02*
X0089876Y0052819D01*
X0089876Y0051820D02*
X0067718Y0051820D01*
X0064027Y0058810D02*
X0083792Y0058810D01*
X0083154Y0059808D02*
X0049935Y0059808D01*
X0049935Y0060807D02*
X0058902Y0060807D01*
X0059509Y0060200D02*
X0056785Y0062924D01*
X0056785Y0064550D01*
X0061135Y0064550D01*
X0061135Y0065150D01*
X0056785Y0065150D01*
X0056785Y0066776D01*
X0059509Y0069500D01*
X0061135Y0069500D01*
X0061135Y0065150D01*
X0061735Y0065150D01*
X0061735Y0069500D01*
X0063361Y0069500D01*
X0066085Y0066776D01*
X0066085Y0065150D01*
X0061735Y0065150D01*
X0061735Y0064550D01*
X0061735Y0060200D01*
X0063361Y0060200D01*
X0066085Y0062924D01*
X0066085Y0064550D01*
X0061735Y0064550D01*
X0061135Y0064550D01*
X0061135Y0060200D01*
X0059509Y0060200D01*
X0061135Y0060807D02*
X0061735Y0060807D01*
X0061735Y0061805D02*
X0061135Y0061805D01*
X0061135Y0062804D02*
X0061735Y0062804D01*
X0061735Y0063802D02*
X0061135Y0063802D01*
X0061135Y0064801D02*
X0044135Y0064801D01*
X0044135Y0065799D02*
X0056785Y0065799D01*
X0056807Y0066798D02*
X0044135Y0066798D01*
X0044135Y0067796D02*
X0057806Y0067796D01*
X0058804Y0068795D02*
X0044135Y0068795D01*
X0044135Y0069793D02*
X0083735Y0069793D01*
X0083735Y0068795D02*
X0064067Y0068795D01*
X0065065Y0067796D02*
X0083735Y0067796D01*
X0083735Y0066798D02*
X0066064Y0066798D01*
X0066085Y0065799D02*
X0083735Y0065799D01*
X0083703Y0064801D02*
X0061735Y0064801D01*
X0061735Y0065799D02*
X0061135Y0065799D01*
X0061135Y0066798D02*
X0061735Y0066798D01*
X0061735Y0067796D02*
X0061135Y0067796D01*
X0061135Y0068795D02*
X0061735Y0068795D01*
X0066085Y0063802D02*
X0083154Y0063802D01*
X0083154Y0062804D02*
X0065965Y0062804D01*
X0064967Y0061805D02*
X0083154Y0061805D01*
X0083154Y0060807D02*
X0063968Y0060807D01*
X0057904Y0061805D02*
X0049935Y0061805D01*
X0049353Y0062804D02*
X0056905Y0062804D01*
X0056785Y0063802D02*
X0044135Y0063802D01*
X0038735Y0063802D02*
X0027059Y0063802D01*
X0026361Y0064500D02*
X0029085Y0061776D01*
X0029085Y0060150D01*
X0024735Y0060150D01*
X0024135Y0060150D01*
X0024135Y0059550D01*
X0019785Y0059550D01*
X0019785Y0057924D01*
X0022509Y0055200D01*
X0024135Y0055200D01*
X0024135Y0059550D01*
X0024735Y0059550D01*
X0024735Y0055200D01*
X0026361Y0055200D01*
X0029085Y0057924D01*
X0029085Y0059550D01*
X0024735Y0059550D01*
X0024735Y0060150D01*
X0024735Y0064500D01*
X0026361Y0064500D01*
X0025932Y0065397D02*
X0026314Y0065499D01*
X0026656Y0065697D01*
X0026935Y0065976D01*
X0027132Y0066318D01*
X0027235Y0066700D01*
X0027235Y0069350D01*
X0023676Y0069350D01*
X0023676Y0065397D01*
X0025932Y0065397D01*
X0026758Y0065799D02*
X0038735Y0065799D01*
X0038735Y0064801D02*
X0019435Y0064801D01*
X0019435Y0065799D02*
X0019593Y0065799D01*
X0019435Y0063802D02*
X0021812Y0063802D01*
X0022509Y0064500D02*
X0019785Y0061776D01*
X0019785Y0060150D01*
X0024135Y0060150D01*
X0024135Y0064500D01*
X0022509Y0064500D01*
X0022676Y0065799D02*
X0023676Y0065799D01*
X0023676Y0066798D02*
X0022676Y0066798D01*
X0022676Y0067796D02*
X0023676Y0067796D01*
X0023676Y0068795D02*
X0022676Y0068795D01*
X0023676Y0069793D02*
X0038735Y0069793D01*
X0038735Y0068795D02*
X0027235Y0068795D01*
X0027235Y0067796D02*
X0038735Y0067796D01*
X0038735Y0066798D02*
X0027235Y0066798D01*
X0024735Y0063802D02*
X0024135Y0063802D01*
X0024135Y0062804D02*
X0024735Y0062804D01*
X0024735Y0061805D02*
X0024135Y0061805D01*
X0024135Y0060807D02*
X0024735Y0060807D01*
X0024735Y0059808D02*
X0032935Y0059808D01*
X0032935Y0058810D02*
X0029085Y0058810D01*
X0028973Y0057811D02*
X0032935Y0057811D01*
X0032935Y0056813D02*
X0027974Y0056813D01*
X0026976Y0055814D02*
X0032935Y0055814D01*
X0032935Y0054816D02*
X0019435Y0054816D01*
X0019435Y0055814D02*
X0021895Y0055814D01*
X0020897Y0056813D02*
X0019435Y0056813D01*
X0019435Y0057811D02*
X0019898Y0057811D01*
X0019785Y0058810D02*
X0019435Y0058810D01*
X0019435Y0059808D02*
X0024135Y0059808D01*
X0024135Y0058810D02*
X0024735Y0058810D01*
X0024735Y0057811D02*
X0024135Y0057811D01*
X0024135Y0056813D02*
X0024735Y0056813D01*
X0024735Y0055814D02*
X0024135Y0055814D01*
X0020284Y0051820D02*
X0028984Y0051820D01*
X0027526Y0050822D02*
X0021282Y0050822D01*
X0019435Y0052819D02*
X0032935Y0052819D01*
X0032935Y0053817D02*
X0019435Y0053817D01*
X0019435Y0060807D02*
X0019785Y0060807D01*
X0019815Y0061805D02*
X0019435Y0061805D01*
X0019435Y0062804D02*
X0020813Y0062804D01*
X0028058Y0062804D02*
X0033518Y0062804D01*
X0032935Y0061805D02*
X0029056Y0061805D01*
X0029085Y0060807D02*
X0032935Y0060807D01*
X0027235Y0070792D02*
X0038735Y0070792D01*
X0038735Y0071790D02*
X0027235Y0071790D01*
X0027235Y0072789D02*
X0038735Y0072789D01*
X0038735Y0073787D02*
X0026871Y0073787D01*
X0023676Y0073787D02*
X0022676Y0073787D01*
X0022676Y0072789D02*
X0023676Y0072789D01*
X0023676Y0071790D02*
X0022676Y0071790D01*
X0022676Y0070792D02*
X0023676Y0070792D01*
X0020218Y0074786D02*
X0038735Y0074786D01*
X0038735Y0075784D02*
X0021036Y0075784D01*
X0021450Y0076783D02*
X0028881Y0076783D01*
X0028435Y0077782D02*
X0021589Y0077782D01*
X0021589Y0078780D02*
X0028435Y0078780D01*
X0028435Y0079779D02*
X0021589Y0079779D01*
X0022362Y0080777D02*
X0028435Y0080777D01*
X0028435Y0081776D02*
X0023361Y0081776D01*
X0024359Y0082774D02*
X0031935Y0082774D01*
X0031935Y0081776D02*
X0032935Y0081776D01*
X0032935Y0082774D02*
X0037435Y0082774D01*
X0037435Y0081776D02*
X0036435Y0081776D01*
X0036435Y0080777D02*
X0037435Y0080777D01*
X0037435Y0079779D02*
X0036435Y0079779D01*
X0036435Y0078780D02*
X0037435Y0078780D01*
X0037435Y0077782D02*
X0036435Y0077782D01*
X0035990Y0076783D02*
X0037881Y0076783D01*
X0032935Y0076783D02*
X0031935Y0076783D01*
X0031935Y0077782D02*
X0032935Y0077782D01*
X0032935Y0078780D02*
X0031935Y0078780D01*
X0031935Y0079779D02*
X0032935Y0079779D01*
X0032935Y0080777D02*
X0031935Y0080777D01*
X0032935Y0082850D02*
X0036435Y0082850D01*
X0036435Y0087047D01*
X0036333Y0087429D01*
X0036136Y0087771D01*
X0035856Y0088050D01*
X0035514Y0088248D01*
X0035133Y0088350D01*
X0032935Y0088350D01*
X0032935Y0082850D01*
X0032935Y0083773D02*
X0031935Y0083773D01*
X0031935Y0084771D02*
X0032935Y0084771D01*
X0032935Y0085770D02*
X0031935Y0085770D01*
X0031935Y0086768D02*
X0032935Y0086768D01*
X0032935Y0087767D02*
X0031935Y0087767D01*
X0030351Y0088765D02*
X0047735Y0088765D01*
X0047703Y0089764D02*
X0031349Y0089764D01*
X0028435Y0086768D02*
X0028354Y0086768D01*
X0028435Y0085770D02*
X0027355Y0085770D01*
X0026356Y0084771D02*
X0028435Y0084771D01*
X0028435Y0083773D02*
X0025358Y0083773D01*
X0036138Y0087767D02*
X0037731Y0087767D01*
X0037435Y0086768D02*
X0036435Y0086768D01*
X0036435Y0085770D02*
X0037435Y0085770D01*
X0037435Y0084771D02*
X0036435Y0084771D01*
X0036435Y0083773D02*
X0037435Y0083773D01*
X0045435Y0083773D02*
X0046435Y0083773D01*
X0046435Y0084771D02*
X0045435Y0084771D01*
X0045435Y0085770D02*
X0046435Y0085770D01*
X0046435Y0086768D02*
X0045435Y0086768D01*
X0045140Y0087767D02*
X0046731Y0087767D01*
X0046435Y0082774D02*
X0045435Y0082774D01*
X0045435Y0081776D02*
X0046435Y0081776D01*
X0046435Y0080777D02*
X0045435Y0080777D01*
X0045435Y0079779D02*
X0046435Y0079779D01*
X0046435Y0078780D02*
X0045435Y0078780D01*
X0045435Y0077782D02*
X0046435Y0077782D01*
X0046881Y0076783D02*
X0044990Y0076783D01*
X0044135Y0071790D02*
X0083735Y0071790D01*
X0083735Y0070792D02*
X0044135Y0070792D01*
X0019480Y0073787D02*
X0019435Y0073787D01*
X0015695Y0069850D02*
X0014435Y0067850D01*
X0088435Y0125710D02*
X0089876Y0125710D01*
X0089876Y0126709D02*
X0088435Y0126709D01*
X0088435Y0127707D02*
X0089876Y0127707D01*
X0089876Y0128706D02*
X0088435Y0128706D01*
X0088435Y0129704D02*
X0089876Y0129704D01*
X0088435Y0144682D02*
X0104785Y0144682D01*
X0114085Y0144682D02*
X0115913Y0144682D01*
X0119435Y0144850D02*
X0119435Y0140850D01*
X0119435Y0144850D02*
X0123435Y0148850D01*
X0152435Y0148850D01*
X0181435Y0119850D01*
X0233435Y0119850D01*
X0238435Y0114850D01*
X0238435Y0112850D01*
X0236692Y0108735D02*
X0230179Y0108735D01*
X0231639Y0109734D02*
X0235232Y0109734D01*
X0234476Y0110732D02*
X0232395Y0110732D01*
X0232809Y0111731D02*
X0234062Y0111731D01*
X0233967Y0112729D02*
X0232904Y0112729D01*
X0232904Y0113728D02*
X0233967Y0113728D01*
X0234376Y0114726D02*
X0232495Y0114726D01*
X0231880Y0115725D02*
X0234732Y0115725D01*
X0233733Y0116723D02*
X0230761Y0116723D01*
X0232735Y0117722D02*
X0226392Y0117722D01*
X0223435Y0117850D02*
X0180435Y0117850D01*
X0174739Y0120718D02*
X0166950Y0120718D01*
X0166897Y0120664D02*
X0168047Y0121814D01*
X0164971Y0124890D01*
X0161895Y0121814D01*
X0163045Y0120664D01*
X0166897Y0120664D01*
X0167949Y0121716D02*
X0173741Y0121716D01*
X0172742Y0122715D02*
X0168947Y0122715D01*
X0167995Y0122715D02*
X0167147Y0122715D01*
X0166997Y0123713D02*
X0166148Y0123713D01*
X0165998Y0124712D02*
X0165150Y0124712D01*
X0164792Y0124712D02*
X0163944Y0124712D01*
X0164547Y0125314D02*
X0161471Y0122239D01*
X0160321Y0123388D01*
X0160321Y0127241D01*
X0161471Y0128390D01*
X0164547Y0125314D01*
X0164942Y0125710D02*
X0164151Y0125710D01*
X0164001Y0126709D02*
X0163152Y0126709D01*
X0163003Y0127707D02*
X0162154Y0127707D01*
X0162004Y0128706D02*
X0160796Y0128706D01*
X0160787Y0127707D02*
X0160200Y0127707D01*
X0160200Y0126709D02*
X0160321Y0126709D01*
X0160321Y0125710D02*
X0160200Y0125710D01*
X0160200Y0124712D02*
X0160321Y0124712D01*
X0160321Y0123713D02*
X0160200Y0123713D01*
X0160200Y0122715D02*
X0160995Y0122715D01*
X0161947Y0122715D02*
X0162795Y0122715D01*
X0162945Y0123713D02*
X0163794Y0123713D01*
X0161993Y0121716D02*
X0160200Y0121716D01*
X0159556Y0120718D02*
X0162992Y0120718D01*
X0169621Y0123713D02*
X0171744Y0123713D01*
X0170745Y0124712D02*
X0169621Y0124712D01*
X0169621Y0125710D02*
X0169747Y0125710D01*
X0174410Y0129704D02*
X0185786Y0129704D01*
X0185786Y0128706D02*
X0175408Y0128706D01*
X0176407Y0127707D02*
X0189935Y0127707D01*
X0189935Y0128706D02*
X0190935Y0128706D01*
X0190935Y0129704D02*
X0189935Y0129704D01*
X0189935Y0130703D02*
X0190935Y0130703D01*
X0190935Y0131701D02*
X0189935Y0131701D01*
X0189935Y0132700D02*
X0190935Y0132700D01*
X0185953Y0132700D02*
X0182377Y0132700D01*
X0182242Y0132656D02*
X0182886Y0132865D01*
X0183489Y0133172D01*
X0184037Y0133570D01*
X0184515Y0134049D01*
X0184913Y0134596D01*
X0185220Y0135199D01*
X0185429Y0135843D01*
X0185526Y0136450D01*
X0178835Y0136450D01*
X0178835Y0132550D01*
X0181574Y0132550D01*
X0182242Y0132656D01*
X0184165Y0133698D02*
X0198435Y0133698D01*
X0198227Y0134697D02*
X0184964Y0134697D01*
X0185381Y0135695D02*
X0197575Y0135695D01*
X0197351Y0136694D02*
X0178835Y0136694D01*
X0178835Y0136450D02*
X0178835Y0137250D01*
X0178035Y0137250D01*
X0178035Y0136450D01*
X0171345Y0136450D01*
X0171441Y0135843D01*
X0171650Y0135199D01*
X0171958Y0134596D01*
X0172356Y0134049D01*
X0172834Y0133570D01*
X0173382Y0133172D01*
X0173985Y0132865D01*
X0174628Y0132656D01*
X0175297Y0132550D01*
X0178035Y0132550D01*
X0178035Y0136450D01*
X0178835Y0136450D01*
X0178835Y0135695D02*
X0178035Y0135695D01*
X0178035Y0134697D02*
X0178835Y0134697D01*
X0178835Y0133698D02*
X0178035Y0133698D01*
X0178035Y0132700D02*
X0178835Y0132700D01*
X0178035Y0136694D02*
X0167420Y0136694D01*
X0166422Y0137692D02*
X0171415Y0137692D01*
X0171441Y0137857D02*
X0171345Y0137250D01*
X0178035Y0137250D01*
X0178035Y0141150D01*
X0175297Y0141150D01*
X0174628Y0141044D01*
X0173985Y0140835D01*
X0173382Y0140528D01*
X0172834Y0140130D01*
X0172356Y0139651D01*
X0171958Y0139104D01*
X0171650Y0138501D01*
X0171441Y0137857D01*
X0171747Y0138691D02*
X0165423Y0138691D01*
X0164425Y0139689D02*
X0172393Y0139689D01*
X0173696Y0140688D02*
X0163426Y0140688D01*
X0162428Y0141686D02*
X0205521Y0141686D01*
X0205435Y0142685D02*
X0182416Y0142685D01*
X0182242Y0141044D02*
X0181574Y0141150D01*
X0178835Y0141150D01*
X0178835Y0137250D01*
X0185526Y0137250D01*
X0185429Y0137857D01*
X0185220Y0138501D01*
X0184913Y0139104D01*
X0184515Y0139651D01*
X0184037Y0140130D01*
X0183489Y0140528D01*
X0182886Y0140835D01*
X0182242Y0141044D01*
X0183175Y0140688D02*
X0206519Y0140688D01*
X0202956Y0138691D02*
X0225435Y0138691D01*
X0225435Y0139689D02*
X0201640Y0139689D01*
X0199230Y0139689D02*
X0184477Y0139689D01*
X0185123Y0138691D02*
X0197914Y0138691D01*
X0197446Y0137692D02*
X0185456Y0137692D01*
X0178835Y0137692D02*
X0178035Y0137692D01*
X0178035Y0138691D02*
X0178835Y0138691D01*
X0178835Y0139689D02*
X0178035Y0139689D01*
X0178035Y0140688D02*
X0178835Y0140688D01*
X0174455Y0142685D02*
X0161429Y0142685D01*
X0160431Y0143683D02*
X0167602Y0143683D01*
X0166604Y0144682D02*
X0159432Y0144682D01*
X0170435Y0144850D02*
X0170435Y0151850D01*
X0186435Y0151850D01*
X0186435Y0158033D01*
X0186821Y0157103D01*
X0187688Y0156235D01*
X0188822Y0155766D01*
X0190049Y0155766D01*
X0191182Y0156235D01*
X0191797Y0156850D01*
X0206264Y0156850D01*
X0208264Y0158850D01*
X0208935Y0158850D01*
X0208935Y0157979D01*
X0209814Y0157100D01*
X0215057Y0157100D01*
X0215935Y0157979D01*
X0215935Y0163522D01*
X0216264Y0163850D01*
X0216464Y0164050D01*
X0219057Y0164050D01*
X0219435Y0164429D01*
X0219435Y0163022D01*
X0220607Y0161850D01*
X0222435Y0160022D01*
X0222435Y0158850D01*
X0221357Y0158850D01*
X0220185Y0157678D01*
X0220185Y0153022D01*
X0221357Y0151850D01*
X0227514Y0151850D01*
X0221357Y0151850D01*
X0220185Y0150678D01*
X0220185Y0146850D01*
X0219435Y0146850D01*
X0219435Y0147928D01*
X0218264Y0149100D01*
X0217935Y0149100D01*
X0218557Y0149100D01*
X0219435Y0149979D01*
X0219435Y0155721D01*
X0218557Y0156600D01*
X0213314Y0156600D01*
X0212435Y0155721D01*
X0212435Y0149979D01*
X0213314Y0149100D01*
X0213935Y0149100D01*
X0213607Y0149100D01*
X0212435Y0147928D01*
X0212435Y0144850D01*
X0209435Y0144850D01*
X0209435Y0145350D01*
X0208435Y0145350D01*
X0208435Y0144850D01*
X0185042Y0144850D01*
X0185220Y0145199D01*
X0185429Y0145843D01*
X0185526Y0146450D01*
X0178835Y0146450D01*
X0178835Y0147250D01*
X0178035Y0147250D01*
X0178035Y0146450D01*
X0171345Y0146450D01*
X0171441Y0145843D01*
X0171650Y0145199D01*
X0171828Y0144850D01*
X0170435Y0144850D01*
X0170435Y0145680D02*
X0171494Y0145680D01*
X0170435Y0146679D02*
X0178035Y0146679D01*
X0178035Y0147250D02*
X0171345Y0147250D01*
X0171441Y0147857D01*
X0171650Y0148501D01*
X0171958Y0149104D01*
X0172356Y0149651D01*
X0172834Y0150130D01*
X0173382Y0150528D01*
X0173985Y0150835D01*
X0174628Y0151044D01*
X0175297Y0151150D01*
X0178035Y0151150D01*
X0178035Y0147250D01*
X0178035Y0147677D02*
X0178835Y0147677D01*
X0178835Y0147250D02*
X0178835Y0151150D01*
X0181574Y0151150D01*
X0182242Y0151044D01*
X0182886Y0150835D01*
X0183489Y0150528D01*
X0184037Y0150130D01*
X0184515Y0149651D01*
X0184913Y0149104D01*
X0185220Y0148501D01*
X0185429Y0147857D01*
X0185526Y0147250D01*
X0178835Y0147250D01*
X0178835Y0146679D02*
X0205435Y0146679D01*
X0205435Y0147363D02*
X0205435Y0145350D01*
X0208435Y0145350D01*
X0208435Y0149100D01*
X0206738Y0149100D01*
X0206356Y0149202D01*
X0206014Y0149400D01*
X0205735Y0149679D01*
X0205538Y0150021D01*
X0205435Y0150403D01*
X0205435Y0152350D01*
X0208435Y0152350D01*
X0208435Y0153350D01*
X0205435Y0153350D01*
X0205435Y0155297D01*
X0205538Y0155679D01*
X0205735Y0156021D01*
X0206014Y0156300D01*
X0206356Y0156498D01*
X0206738Y0156600D01*
X0208435Y0156600D01*
X0208435Y0153350D01*
X0209435Y0153350D01*
X0209435Y0156600D01*
X0211133Y0156600D01*
X0211514Y0156498D01*
X0211856Y0156300D01*
X0212136Y0156021D01*
X0212333Y0155679D01*
X0212435Y0155297D01*
X0212435Y0153350D01*
X0209435Y0153350D01*
X0209435Y0152350D01*
X0209435Y0149100D01*
X0211133Y0149100D01*
X0211514Y0149202D01*
X0211856Y0149400D01*
X0212136Y0149679D01*
X0212333Y0150021D01*
X0212435Y0150403D01*
X0212435Y0152350D01*
X0209435Y0152350D01*
X0208435Y0152350D01*
X0208435Y0149100D01*
X0207172Y0149100D01*
X0206663Y0148964D01*
X0206207Y0148700D01*
X0205835Y0148328D01*
X0205572Y0147872D01*
X0205435Y0147363D01*
X0205520Y0147677D02*
X0185458Y0147677D01*
X0185131Y0148676D02*
X0206183Y0148676D01*
X0205740Y0149674D02*
X0184492Y0149674D01*
X0183204Y0150673D02*
X0205435Y0150673D01*
X0205435Y0151671D02*
X0170435Y0151671D01*
X0170435Y0150673D02*
X0173667Y0150673D01*
X0172379Y0149674D02*
X0170435Y0149674D01*
X0170435Y0148676D02*
X0171740Y0148676D01*
X0171413Y0147677D02*
X0170435Y0147677D01*
X0178035Y0148676D02*
X0178835Y0148676D01*
X0178835Y0149674D02*
X0178035Y0149674D01*
X0178035Y0150673D02*
X0178835Y0150673D01*
X0186435Y0152670D02*
X0208435Y0152670D01*
X0208435Y0153668D02*
X0209435Y0153668D01*
X0209435Y0152670D02*
X0212435Y0152670D01*
X0212435Y0153668D02*
X0212435Y0153668D01*
X0212435Y0154667D02*
X0212435Y0154667D01*
X0212435Y0155665D02*
X0212337Y0155665D01*
X0209435Y0155665D02*
X0208435Y0155665D01*
X0208435Y0154667D02*
X0209435Y0154667D01*
X0209435Y0151671D02*
X0208435Y0151671D01*
X0208435Y0150673D02*
X0209435Y0150673D01*
X0209435Y0149674D02*
X0208435Y0149674D01*
X0208435Y0148676D02*
X0209435Y0148676D01*
X0209435Y0149100D02*
X0209435Y0145350D01*
X0212435Y0145350D01*
X0212435Y0147363D01*
X0212299Y0147872D01*
X0212036Y0148328D01*
X0211663Y0148700D01*
X0211207Y0148964D01*
X0210699Y0149100D01*
X0209435Y0149100D01*
X0209435Y0147677D02*
X0208435Y0147677D01*
X0208435Y0146679D02*
X0209435Y0146679D01*
X0209435Y0145680D02*
X0208435Y0145680D01*
X0207435Y0142600D02*
X0210435Y0142600D01*
X0207435Y0142600D02*
X0207435Y0147100D01*
X0210435Y0147100D01*
X0210435Y0142600D01*
X0210435Y0143599D02*
X0207435Y0143599D01*
X0207435Y0144598D02*
X0210435Y0144598D01*
X0210435Y0145597D02*
X0207435Y0145597D01*
X0207435Y0146596D02*
X0210435Y0146596D01*
X0212435Y0146679D02*
X0212435Y0146679D01*
X0212435Y0147677D02*
X0212351Y0147677D01*
X0211688Y0148676D02*
X0213183Y0148676D01*
X0213935Y0149100D02*
X0213935Y0149100D01*
X0212740Y0149674D02*
X0212131Y0149674D01*
X0212435Y0150673D02*
X0212435Y0150673D01*
X0212435Y0151671D02*
X0212435Y0151671D01*
X0215935Y0152850D02*
X0215935Y0144850D01*
X0217435Y0142600D02*
X0214435Y0142600D01*
X0214435Y0147100D01*
X0217435Y0147100D01*
X0217435Y0142600D01*
X0217435Y0143599D02*
X0214435Y0143599D01*
X0214435Y0144598D02*
X0217435Y0144598D01*
X0217435Y0145597D02*
X0214435Y0145597D01*
X0214435Y0146596D02*
X0217435Y0146596D01*
X0219435Y0147677D02*
X0220185Y0147677D01*
X0220185Y0148676D02*
X0218688Y0148676D01*
X0217935Y0149100D02*
X0217935Y0149100D01*
X0219131Y0149674D02*
X0220185Y0149674D01*
X0220185Y0150673D02*
X0219435Y0150673D01*
X0219435Y0151671D02*
X0221178Y0151671D01*
X0220537Y0152670D02*
X0219435Y0152670D01*
X0219435Y0153668D02*
X0220185Y0153668D01*
X0220185Y0154667D02*
X0219435Y0154667D01*
X0219435Y0155665D02*
X0220185Y0155665D01*
X0220185Y0156664D02*
X0191611Y0156664D01*
X0189435Y0158850D02*
X0205435Y0158850D01*
X0207435Y0160850D01*
X0212435Y0160850D01*
X0212435Y0162850D01*
X0215435Y0165850D01*
X0215435Y0168850D01*
X0216067Y0163653D02*
X0219435Y0163653D01*
X0219802Y0162655D02*
X0215935Y0162655D01*
X0215935Y0161656D02*
X0220800Y0161656D01*
X0221799Y0160658D02*
X0215935Y0160658D01*
X0215935Y0159659D02*
X0222435Y0159659D01*
X0221168Y0158661D02*
X0215935Y0158661D01*
X0215619Y0157662D02*
X0220185Y0157662D01*
X0222185Y0156850D02*
X0222185Y0153850D01*
X0222185Y0156850D02*
X0226685Y0156850D01*
X0226685Y0153850D01*
X0222185Y0153850D01*
X0222185Y0154849D02*
X0226685Y0154849D01*
X0226685Y0155848D02*
X0222185Y0155848D01*
X0222185Y0156847D02*
X0226685Y0156847D01*
X0228685Y0156664D02*
X0229435Y0156664D01*
X0229435Y0157662D02*
X0228685Y0157662D01*
X0229435Y0158661D02*
X0227703Y0158661D01*
X0226435Y0159659D02*
X0229435Y0159659D01*
X0229435Y0160658D02*
X0226435Y0160658D01*
X0226435Y0161656D02*
X0229435Y0161656D01*
X0229435Y0162655D02*
X0225459Y0162655D01*
X0224460Y0163653D02*
X0229435Y0163653D01*
X0224435Y0160850D02*
X0221435Y0163850D01*
X0221435Y0171850D01*
X0218435Y0174850D01*
X0194435Y0174850D01*
X0190435Y0170850D01*
X0190435Y0165630D01*
X0186589Y0157662D02*
X0186435Y0157662D01*
X0186435Y0156664D02*
X0187260Y0156664D01*
X0186435Y0155665D02*
X0205534Y0155665D01*
X0205435Y0154667D02*
X0186435Y0154667D01*
X0186435Y0153668D02*
X0205435Y0153668D01*
X0207076Y0157662D02*
X0209252Y0157662D01*
X0208935Y0158661D02*
X0208075Y0158661D01*
X0205435Y0145680D02*
X0185377Y0145680D01*
X0171489Y0135695D02*
X0168419Y0135695D01*
X0169417Y0134697D02*
X0171907Y0134697D01*
X0172706Y0133698D02*
X0170416Y0133698D01*
X0171414Y0132700D02*
X0174494Y0132700D01*
X0173411Y0130703D02*
X0185786Y0130703D01*
X0185786Y0131701D02*
X0172413Y0131701D01*
X0177405Y0126709D02*
X0181277Y0126709D01*
X0179934Y0125710D02*
X0178404Y0125710D01*
X0179402Y0124712D02*
X0179454Y0124712D01*
X0182435Y0123850D02*
X0184435Y0121850D01*
X0242435Y0121850D01*
X0248435Y0127850D01*
X0253188Y0129704D02*
X0253683Y0129704D01*
X0254097Y0130703D02*
X0252774Y0130703D01*
X0251797Y0131701D02*
X0255074Y0131701D01*
X0256817Y0132700D02*
X0250054Y0132700D01*
X0246817Y0132700D02*
X0240054Y0132700D01*
X0241797Y0131701D02*
X0245074Y0131701D01*
X0244097Y0130703D02*
X0242774Y0130703D01*
X0243188Y0129704D02*
X0243683Y0129704D01*
X0236817Y0132700D02*
X0230054Y0132700D01*
X0231797Y0131701D02*
X0235074Y0131701D01*
X0234097Y0130703D02*
X0232774Y0130703D01*
X0233188Y0129704D02*
X0233683Y0129704D01*
X0226817Y0132700D02*
X0220054Y0132700D01*
X0221797Y0131701D02*
X0225074Y0131701D01*
X0224097Y0130703D02*
X0222774Y0130703D01*
X0223188Y0129704D02*
X0223683Y0129704D01*
X0226590Y0135695D02*
X0203295Y0135695D01*
X0203520Y0136694D02*
X0225592Y0136694D01*
X0225435Y0137692D02*
X0203425Y0137692D01*
X0200435Y0136850D02*
X0200435Y0128070D01*
X0195786Y0127707D02*
X0190935Y0127707D01*
X0185786Y0126709D02*
X0183594Y0126709D01*
X0184937Y0125710D02*
X0185786Y0125710D01*
X0185786Y0124712D02*
X0185417Y0124712D01*
X0195085Y0124712D02*
X0195786Y0124712D01*
X0195786Y0125710D02*
X0195085Y0125710D01*
X0195085Y0126709D02*
X0195786Y0126709D01*
X0195786Y0128706D02*
X0195085Y0128706D01*
X0195085Y0129704D02*
X0195786Y0129704D01*
X0195786Y0130703D02*
X0195085Y0130703D01*
X0195085Y0131701D02*
X0195786Y0131701D01*
X0195857Y0132700D02*
X0194917Y0132700D01*
X0205014Y0132700D02*
X0216817Y0132700D01*
X0215074Y0131701D02*
X0205085Y0131701D01*
X0205085Y0130703D02*
X0214097Y0130703D01*
X0213683Y0129704D02*
X0205085Y0129704D01*
X0205085Y0128706D02*
X0213335Y0128706D01*
X0213335Y0127707D02*
X0205085Y0127707D01*
X0205085Y0126709D02*
X0213388Y0126709D01*
X0213802Y0125710D02*
X0205085Y0125710D01*
X0205085Y0124712D02*
X0214361Y0124712D01*
X0214991Y0115725D02*
X0211880Y0115725D01*
X0212495Y0114726D02*
X0214376Y0114726D01*
X0213967Y0113728D02*
X0212904Y0113728D01*
X0212904Y0112729D02*
X0213967Y0112729D01*
X0214062Y0111731D02*
X0212809Y0111731D01*
X0212395Y0110732D02*
X0214476Y0110732D01*
X0215232Y0109734D02*
X0211639Y0109734D01*
X0210179Y0108735D02*
X0216692Y0108735D01*
X0220179Y0108735D02*
X0226692Y0108735D01*
X0225232Y0109734D02*
X0221639Y0109734D01*
X0222395Y0110732D02*
X0224476Y0110732D01*
X0224062Y0111731D02*
X0222809Y0111731D01*
X0222904Y0112729D02*
X0223967Y0112729D01*
X0223967Y0113728D02*
X0222904Y0113728D01*
X0222495Y0114726D02*
X0223731Y0114726D01*
X0222732Y0115725D02*
X0221880Y0115725D01*
X0223435Y0117850D02*
X0228435Y0112850D01*
X0236395Y0119719D02*
X0250457Y0119719D01*
X0250351Y0118720D02*
X0237393Y0118720D01*
X0238392Y0117722D02*
X0250564Y0117722D01*
X0250761Y0116723D02*
X0251200Y0116723D01*
X0250967Y0116638D02*
X0249324Y0117318D01*
X0247547Y0117318D01*
X0245904Y0116638D01*
X0244647Y0115381D01*
X0243967Y0113739D01*
X0243967Y0111961D01*
X0244647Y0110319D01*
X0245904Y0109062D01*
X0247547Y0108381D01*
X0249324Y0108381D01*
X0250967Y0109062D01*
X0252224Y0110319D01*
X0252904Y0111961D01*
X0252904Y0113739D01*
X0252224Y0115381D01*
X0250967Y0116638D01*
X0251880Y0115725D02*
X0254991Y0115725D01*
X0254376Y0114726D02*
X0252495Y0114726D01*
X0252904Y0113728D02*
X0253967Y0113728D01*
X0253967Y0112729D02*
X0252904Y0112729D01*
X0252809Y0111731D02*
X0254062Y0111731D01*
X0254476Y0110732D02*
X0252395Y0110732D01*
X0251639Y0109734D02*
X0255232Y0109734D01*
X0256692Y0108735D02*
X0250179Y0108735D01*
X0246692Y0108735D02*
X0240179Y0108735D01*
X0241639Y0109734D02*
X0245232Y0109734D01*
X0244476Y0110732D02*
X0242395Y0110732D01*
X0242809Y0111731D02*
X0244062Y0111731D01*
X0243967Y0112729D02*
X0242904Y0112729D01*
X0242904Y0113728D02*
X0243967Y0113728D01*
X0244376Y0114726D02*
X0242495Y0114726D01*
X0241880Y0115725D02*
X0244991Y0115725D01*
X0246110Y0116723D02*
X0240761Y0116723D01*
X0244131Y0120718D02*
X0250941Y0120718D01*
X0251435Y0121716D02*
X0245130Y0121716D01*
X0246128Y0122715D02*
X0251435Y0122715D01*
X0253435Y0122850D02*
X0253435Y0118850D01*
X0256306Y0117722D02*
X0260564Y0117722D01*
X0260761Y0116723D02*
X0261200Y0116723D01*
X0260351Y0118720D02*
X0256520Y0118720D01*
X0256414Y0119719D02*
X0260457Y0119719D01*
X0260941Y0120718D02*
X0255930Y0120718D01*
X0255435Y0121716D02*
X0261435Y0121716D01*
X0261435Y0122715D02*
X0256128Y0122715D01*
X0253435Y0122850D02*
X0258435Y0127850D01*
X0263188Y0129704D02*
X0263683Y0129704D01*
X0264097Y0130703D02*
X0262774Y0130703D01*
X0261797Y0131701D02*
X0265074Y0131701D01*
X0266817Y0132700D02*
X0260054Y0132700D01*
X0268435Y0127850D02*
X0263435Y0122850D01*
X0263435Y0118850D01*
X0266128Y0122715D02*
X0300786Y0122715D01*
X0299846Y0123713D02*
X0291511Y0123713D01*
X0292509Y0124712D02*
X0299786Y0124712D01*
X0299786Y0125710D02*
X0293069Y0125710D01*
X0293483Y0126709D02*
X0299786Y0126709D01*
X0286817Y0132700D02*
X0280014Y0132700D01*
X0278935Y0132700D02*
X0277935Y0132700D01*
X0277935Y0131701D02*
X0278935Y0131701D01*
X0278935Y0130703D02*
X0277935Y0130703D01*
X0277935Y0129704D02*
X0278935Y0129704D01*
X0278935Y0128706D02*
X0277935Y0128706D01*
X0277935Y0126709D02*
X0278935Y0126709D01*
X0278935Y0125710D02*
X0277935Y0125710D01*
X0277935Y0124712D02*
X0278935Y0124712D01*
X0278935Y0123713D02*
X0277935Y0123713D01*
X0275453Y0123713D02*
X0271511Y0123713D01*
X0272509Y0124712D02*
X0274412Y0124712D01*
X0273802Y0125710D02*
X0273069Y0125710D01*
X0273461Y0129044D02*
X0273461Y0129044D01*
X0273675Y0129704D02*
X0273188Y0129704D01*
X0272774Y0130703D02*
X0274204Y0130703D01*
X0275074Y0131701D02*
X0271797Y0131701D01*
X0270054Y0132700D02*
X0276857Y0132700D01*
X0281797Y0131701D02*
X0285074Y0131701D01*
X0284097Y0130703D02*
X0282667Y0130703D01*
X0283195Y0129704D02*
X0283683Y0129704D01*
X0283410Y0126656D02*
X0283410Y0126656D01*
X0283069Y0125710D02*
X0283802Y0125710D01*
X0284361Y0124712D02*
X0282459Y0124712D01*
X0281418Y0123713D02*
X0285360Y0123713D01*
X0261509Y0145680D02*
X0255362Y0145680D01*
X0256958Y0144682D02*
X0259913Y0144682D01*
X0258981Y0143683D02*
X0257890Y0143683D01*
X0258304Y0142685D02*
X0258567Y0142685D01*
X0251509Y0145680D02*
X0245362Y0145680D01*
X0246958Y0144682D02*
X0249913Y0144682D01*
X0248981Y0143683D02*
X0247890Y0143683D01*
X0248304Y0142685D02*
X0248567Y0142685D01*
X0241509Y0145680D02*
X0235397Y0145680D01*
X0233935Y0145680D02*
X0232935Y0145680D01*
X0232935Y0144682D02*
X0233935Y0144682D01*
X0233935Y0143683D02*
X0232935Y0143683D01*
X0232935Y0142685D02*
X0233935Y0142685D01*
X0233935Y0141686D02*
X0232935Y0141686D01*
X0229913Y0144682D02*
X0228435Y0144682D01*
X0228435Y0143683D02*
X0229066Y0143683D01*
X0228564Y0142685D02*
X0228435Y0142685D01*
X0228344Y0145680D02*
X0231474Y0145680D01*
X0236957Y0144682D02*
X0239913Y0144682D01*
X0238981Y0143683D02*
X0237804Y0143683D01*
X0238307Y0142685D02*
X0238567Y0142685D01*
X0231613Y0150673D02*
X0228685Y0150673D01*
X0227692Y0151671D02*
X0230614Y0151671D01*
X0229616Y0152670D02*
X0228334Y0152670D01*
X0228685Y0153668D02*
X0229435Y0153668D01*
X0229435Y0154667D02*
X0228685Y0154667D01*
X0228685Y0155665D02*
X0229435Y0155665D01*
X0224435Y0155350D02*
X0224435Y0160850D01*
X0222185Y0149850D02*
X0222185Y0146850D01*
X0222185Y0149850D02*
X0226685Y0149850D01*
X0226685Y0146850D01*
X0222185Y0146850D01*
X0222185Y0147849D02*
X0226685Y0147849D01*
X0226685Y0148848D02*
X0222185Y0148848D01*
X0222185Y0149847D02*
X0226685Y0149847D01*
X0224435Y0148350D02*
X0224435Y0145850D01*
X0223435Y0144850D01*
X0215935Y0144850D01*
X0212435Y0145680D02*
X0212435Y0145680D01*
X0212435Y0142850D02*
X0212435Y0141772D01*
X0212435Y0142850D01*
X0212435Y0142850D01*
X0212435Y0142685D02*
X0212435Y0142685D01*
X0212350Y0141686D02*
X0212521Y0141686D01*
X0213519Y0140688D02*
X0211352Y0140688D01*
X0218352Y0140688D02*
X0225435Y0140688D01*
X0224599Y0141686D02*
X0219350Y0141686D01*
X0219435Y0142685D02*
X0223601Y0142685D01*
X0204991Y0115725D02*
X0201880Y0115725D01*
X0202495Y0114726D02*
X0204376Y0114726D01*
X0203967Y0113728D02*
X0202904Y0113728D01*
X0202904Y0112729D02*
X0203967Y0112729D01*
X0204062Y0111731D02*
X0202809Y0111731D01*
X0202395Y0110732D02*
X0204476Y0110732D01*
X0205232Y0109734D02*
X0201639Y0109734D01*
X0200179Y0108735D02*
X0206692Y0108735D01*
X0196692Y0108735D02*
X0190179Y0108735D01*
X0191639Y0109734D02*
X0195232Y0109734D01*
X0194476Y0110732D02*
X0192395Y0110732D01*
X0192809Y0111731D02*
X0194062Y0111731D01*
X0193967Y0112729D02*
X0192904Y0112729D01*
X0192904Y0113728D02*
X0193967Y0113728D01*
X0194376Y0114726D02*
X0192495Y0114726D01*
X0191880Y0115725D02*
X0194991Y0115725D01*
X0178435Y0104850D02*
X0156435Y0104850D01*
X0168895Y0102744D02*
X0176179Y0102744D01*
X0169864Y0101746D02*
X0292367Y0101746D01*
X0256110Y0116723D02*
X0255671Y0116723D01*
X0289935Y0152670D02*
X0290935Y0152670D01*
X0290935Y0153668D02*
X0289935Y0153668D01*
X0289935Y0154667D02*
X0290935Y0154667D01*
X0290935Y0157662D02*
X0289935Y0157662D01*
X0289935Y0158661D02*
X0290935Y0158661D01*
X0294685Y0153668D02*
X0297435Y0153668D01*
X0297435Y0152670D02*
X0294313Y0152670D01*
X0293692Y0151671D02*
X0297435Y0151671D01*
X0297435Y0150673D02*
X0294685Y0150673D01*
X0278435Y0153668D02*
X0278435Y0153668D01*
X0278435Y0154667D02*
X0278435Y0154667D01*
X0278435Y0155665D02*
X0278337Y0155665D01*
X0271534Y0155665D02*
X0271435Y0155665D01*
X0195435Y0177850D02*
X0195435Y0200393D01*
X0207514Y0216472D01*
X0162757Y0132700D02*
X0162550Y0132700D01*
X0162550Y0131701D02*
X0163756Y0131701D01*
X0164754Y0130703D02*
X0162236Y0130703D01*
X0161795Y0129704D02*
X0162785Y0129704D01*
X0169694Y0095755D02*
X0180978Y0095755D01*
X0180472Y0094756D02*
X0168696Y0094756D01*
X0167159Y0093758D02*
X0180351Y0093758D01*
X0180549Y0092759D02*
X0168880Y0092759D01*
X0169748Y0091761D02*
X0181163Y0091761D01*
X0181435Y0090762D02*
X0170282Y0090762D01*
X0170555Y0089764D02*
X0181435Y0089764D01*
X0181435Y0088765D02*
X0165935Y0088765D01*
X0164935Y0088765D02*
X0149735Y0088765D01*
X0167139Y0083773D02*
X0180479Y0083773D01*
X0180351Y0082774D02*
X0168865Y0082774D01*
X0169852Y0081776D02*
X0180542Y0081776D01*
X0181147Y0080777D02*
X0170266Y0080777D01*
X0168668Y0084771D02*
X0180995Y0084771D01*
X0181435Y0085770D02*
X0169625Y0085770D01*
X0170211Y0086768D02*
X0181435Y0086768D01*
X0181435Y0087767D02*
X0170529Y0087767D01*
X0183435Y0082850D02*
X0183435Y0093850D01*
X0258435Y0042850D02*
X0258435Y0037850D01*
X0268435Y0037850D02*
X0268435Y0041850D01*
X0270435Y0043850D01*
X0264439Y0050822D02*
X0262432Y0050822D01*
X0262845Y0051820D02*
X0264025Y0051820D01*
X0291645Y0033847D02*
X0310409Y0033847D01*
X0309410Y0034846D02*
X0292643Y0034846D01*
X0293125Y0035844D02*
X0308653Y0035844D01*
X0308239Y0036843D02*
X0293535Y0036843D01*
X0293535Y0037841D02*
X0307826Y0037841D01*
D21*
X0281935Y0152850D03*
X0274935Y0152850D03*
X0278435Y0160850D03*
X0215935Y0152850D03*
X0208935Y0152850D03*
X0212435Y0160850D03*
D22*
X0199135Y0237950D02*
X0199135Y0245750D01*
X0179435Y0245750D02*
X0179435Y0237950D01*
X0159735Y0237950D02*
X0159735Y0245750D01*
X0246735Y0245750D02*
X0246735Y0237950D01*
X0266435Y0237950D02*
X0266435Y0245750D01*
X0286135Y0245750D02*
X0286135Y0237950D01*
X0052335Y0248950D02*
X0052335Y0256750D01*
X0032535Y0256750D02*
X0032535Y0248950D01*
D23*
X0215435Y0168850D03*
X0227435Y0168850D03*
X0274435Y0168850D03*
X0286435Y0168850D03*
D24*
X0304435Y0165630D03*
X0314435Y0165630D03*
X0314435Y0128070D03*
X0304435Y0128070D03*
X0200435Y0128070D03*
X0190435Y0128070D03*
X0190435Y0165630D03*
X0200435Y0165630D03*
D25*
X0218435Y0127850D03*
X0228435Y0127850D03*
X0238435Y0127850D03*
X0248435Y0127850D03*
X0258435Y0127850D03*
X0268435Y0127850D03*
X0278435Y0127850D03*
X0288435Y0127850D03*
X0288435Y0037850D03*
X0278435Y0037850D03*
X0268435Y0037850D03*
X0258435Y0037850D03*
X0248435Y0037850D03*
X0238435Y0037850D03*
X0228435Y0037850D03*
X0218435Y0037850D03*
D26*
X0077750Y0078007D02*
X0077750Y0083944D01*
X0017120Y0083944D02*
X0017120Y0078007D01*
X0037593Y0193756D02*
X0037593Y0199693D01*
X0057278Y0199693D02*
X0057278Y0193756D01*
D27*
X0032254Y0224173D02*
X0028294Y0228133D01*
X0014576Y0213567D02*
X0010617Y0217527D01*
X0175635Y0146850D02*
X0181235Y0146850D01*
X0181235Y0136850D02*
X0175635Y0136850D01*
X0050235Y0047850D02*
X0044635Y0047850D01*
X0036235Y0047850D02*
X0030635Y0047850D01*
X0030635Y0037850D02*
X0036235Y0037850D01*
X0044635Y0037850D02*
X0050235Y0037850D01*
D28*
X0071435Y0239850D02*
X0077435Y0239850D01*
X0077435Y0259850D02*
X0071435Y0259850D01*
D29*
X0023176Y0069850D03*
X0015695Y0069850D03*
D30*
X0032435Y0082350D03*
X0041435Y0082350D03*
X0050435Y0082350D03*
D31*
X0041435Y0057350D03*
D32*
X0119435Y0140850D03*
X0129435Y0140850D03*
X0139435Y0140850D03*
X0149435Y0140850D03*
X0165435Y0098850D03*
X0165435Y0088850D03*
X0165435Y0078850D03*
X0165435Y0068850D03*
X0233435Y0140850D03*
X0243435Y0140850D03*
X0253435Y0140850D03*
X0263435Y0140850D03*
D33*
X0081435Y0225850D03*
X0041435Y0225850D03*
D34*
X0158435Y0042850D03*
X0163435Y0035350D03*
X0168435Y0042850D03*
D35*
X0156435Y0061850D02*
X0186435Y0061850D01*
X0193435Y0068850D01*
X0193435Y0094850D01*
X0165435Y0098850D02*
X0142435Y0098850D01*
X0147435Y0098850D01*
X0147435Y0069850D01*
X0140935Y0049165D02*
X0141120Y0048850D01*
X0102176Y0068110D02*
X0102176Y0079850D01*
X0093876Y0048850D02*
X0067435Y0048850D01*
X0061435Y0054850D01*
X0058935Y0057350D01*
X0041435Y0057350D01*
X0147435Y0098850D02*
X0151435Y0098850D01*
X0151435Y0115850D01*
X0157900Y0122314D01*
X0157900Y0132386D01*
X0149435Y0140850D01*
X0149435Y0140850D01*
X0200435Y0165630D02*
X0200435Y0167850D01*
X0201813Y0169228D01*
X0207514Y0169228D01*
X0151435Y0098850D02*
X0293435Y0098850D01*
D36*
X0293435Y0098850D03*
X0263435Y0118850D03*
X0253435Y0118850D03*
X0295435Y0160850D03*
X0314435Y0135850D03*
X0300435Y0066850D03*
X0298435Y0041850D03*
X0273435Y0061850D03*
X0243435Y0066850D03*
X0214435Y0071850D03*
X0203435Y0079850D03*
X0193435Y0094850D03*
X0183435Y0093850D03*
X0183435Y0082850D03*
X0178435Y0104850D03*
X0156435Y0104850D03*
X0136435Y0116850D03*
X0125335Y0116850D03*
X0134435Y0084850D03*
X0135935Y0072350D03*
X0135935Y0063850D03*
X0144435Y0063850D03*
X0147435Y0069850D03*
X0156435Y0061850D03*
X0147435Y0035350D03*
X0114597Y0064250D03*
X0102176Y0068110D03*
X0102176Y0079850D03*
X0182435Y0123850D03*
X0200435Y0136850D03*
X0189435Y0158850D03*
X0195435Y0177850D03*
X0227435Y0168850D03*
X0193435Y0037850D03*
D37*
X0086435Y0042850D02*
X0081435Y0037850D01*
X0047435Y0037850D01*
X0033435Y0037850D01*
X0033435Y0047850D02*
X0020435Y0047850D01*
X0014435Y0053850D01*
X0014435Y0059850D01*
X0014435Y0067850D01*
X0014435Y0078291D01*
X0017120Y0080976D01*
X0029994Y0093850D01*
X0047435Y0093850D01*
X0050435Y0090850D01*
X0050435Y0082350D01*
X0041435Y0082350D02*
X0041435Y0057350D01*
X0041435Y0050850D01*
X0044435Y0047850D01*
X0047435Y0047850D01*
X0044935Y0056350D02*
X0041435Y0057350D01*
X0086435Y0061850D02*
X0086435Y0078850D01*
D38*
X0086435Y0078850D03*
X0086435Y0061850D03*
X0086435Y0042850D03*
D39*
X0215388Y0192850D02*
X0223435Y0200897D01*
X0223435Y0257850D01*
X0218435Y0262850D01*
X0184435Y0262850D01*
X0179435Y0257850D01*
X0179435Y0241850D01*
X0266435Y0241850D02*
X0266435Y0255850D01*
X0273435Y0262850D01*
X0301435Y0262850D01*
X0310435Y0249850D01*
X0310435Y0200897D01*
X0302388Y0192850D01*
X0074435Y0259850D02*
X0059335Y0259850D01*
X0052335Y0252850D01*
X0041435Y0225850D02*
X0044435Y0221850D01*
X0057435Y0207850D01*
X0057435Y0197881D01*
X0057278Y0196724D01*
X0041435Y0225850D02*
X0040132Y0226153D01*
X0030274Y0226153D01*
D40*
X0233435Y0094850D03*
M02*
