G75*
%MOIN*%
%OFA0B0*%
%FSLAX25Y25*%
%IPPOS*%
%LPD*%
%AMOC8*
5,1,8,0,0,1.08239X$1,22.5*
%
%ADD10C,0.00000*%
%ADD11R,0.05937X0.05937*%
%ADD12C,0.05937*%
%ADD13C,0.01260*%
%ADD14C,0.06300*%
%ADD15R,0.05118X0.05906*%
%ADD16OC8,0.06300*%
%ADD17R,0.04000X0.04500*%
%ADD18C,0.01000*%
%ADD19R,0.03346X0.08661*%
%ADD20R,0.03937X0.04134*%
%ADD21R,0.08600X0.08600*%
%ADD22C,0.07000*%
%ADD23C,0.07800*%
%ADD24R,0.04724X0.04724*%
%ADD25C,0.07200*%
%ADD26C,0.05937*%
%ADD27C,0.05600*%
%ADD28C,0.06000*%
%ADD29C,0.07400*%
%ADD30R,0.01378X0.04724*%
%ADD31R,0.05906X0.05118*%
%ADD32OC8,0.07600*%
%ADD33C,0.06000*%
%ADD34C,0.03169*%
%ADD35C,0.01600*%
%ADD36R,0.03562X0.03562*%
%ADD37C,0.02400*%
%ADD38C,0.07600*%
%ADD39C,0.03562*%
D10*
X0006435Y0031850D02*
X0323435Y0031850D01*
X0323435Y0267850D01*
X0006435Y0267850D01*
X0006435Y0031850D01*
X0008136Y0039850D02*
X0008138Y0040008D01*
X0008144Y0040166D01*
X0008154Y0040324D01*
X0008168Y0040482D01*
X0008186Y0040639D01*
X0008207Y0040796D01*
X0008233Y0040952D01*
X0008263Y0041108D01*
X0008296Y0041263D01*
X0008334Y0041416D01*
X0008375Y0041569D01*
X0008420Y0041721D01*
X0008469Y0041872D01*
X0008522Y0042021D01*
X0008578Y0042169D01*
X0008638Y0042315D01*
X0008702Y0042460D01*
X0008770Y0042603D01*
X0008841Y0042745D01*
X0008915Y0042885D01*
X0008993Y0043022D01*
X0009075Y0043158D01*
X0009159Y0043292D01*
X0009248Y0043423D01*
X0009339Y0043552D01*
X0009434Y0043679D01*
X0009531Y0043804D01*
X0009632Y0043926D01*
X0009736Y0044045D01*
X0009843Y0044162D01*
X0009953Y0044276D01*
X0010066Y0044387D01*
X0010181Y0044496D01*
X0010299Y0044601D01*
X0010420Y0044703D01*
X0010543Y0044803D01*
X0010669Y0044899D01*
X0010797Y0044992D01*
X0010927Y0045082D01*
X0011060Y0045168D01*
X0011195Y0045252D01*
X0011331Y0045331D01*
X0011470Y0045408D01*
X0011611Y0045480D01*
X0011753Y0045550D01*
X0011897Y0045615D01*
X0012043Y0045677D01*
X0012190Y0045735D01*
X0012339Y0045790D01*
X0012489Y0045841D01*
X0012640Y0045888D01*
X0012792Y0045931D01*
X0012945Y0045970D01*
X0013100Y0046006D01*
X0013255Y0046037D01*
X0013411Y0046065D01*
X0013567Y0046089D01*
X0013724Y0046109D01*
X0013882Y0046125D01*
X0014039Y0046137D01*
X0014198Y0046145D01*
X0014356Y0046149D01*
X0014514Y0046149D01*
X0014672Y0046145D01*
X0014831Y0046137D01*
X0014988Y0046125D01*
X0015146Y0046109D01*
X0015303Y0046089D01*
X0015459Y0046065D01*
X0015615Y0046037D01*
X0015770Y0046006D01*
X0015925Y0045970D01*
X0016078Y0045931D01*
X0016230Y0045888D01*
X0016381Y0045841D01*
X0016531Y0045790D01*
X0016680Y0045735D01*
X0016827Y0045677D01*
X0016973Y0045615D01*
X0017117Y0045550D01*
X0017259Y0045480D01*
X0017400Y0045408D01*
X0017539Y0045331D01*
X0017675Y0045252D01*
X0017810Y0045168D01*
X0017943Y0045082D01*
X0018073Y0044992D01*
X0018201Y0044899D01*
X0018327Y0044803D01*
X0018450Y0044703D01*
X0018571Y0044601D01*
X0018689Y0044496D01*
X0018804Y0044387D01*
X0018917Y0044276D01*
X0019027Y0044162D01*
X0019134Y0044045D01*
X0019238Y0043926D01*
X0019339Y0043804D01*
X0019436Y0043679D01*
X0019531Y0043552D01*
X0019622Y0043423D01*
X0019711Y0043292D01*
X0019795Y0043158D01*
X0019877Y0043022D01*
X0019955Y0042885D01*
X0020029Y0042745D01*
X0020100Y0042603D01*
X0020168Y0042460D01*
X0020232Y0042315D01*
X0020292Y0042169D01*
X0020348Y0042021D01*
X0020401Y0041872D01*
X0020450Y0041721D01*
X0020495Y0041569D01*
X0020536Y0041416D01*
X0020574Y0041263D01*
X0020607Y0041108D01*
X0020637Y0040952D01*
X0020663Y0040796D01*
X0020684Y0040639D01*
X0020702Y0040482D01*
X0020716Y0040324D01*
X0020726Y0040166D01*
X0020732Y0040008D01*
X0020734Y0039850D01*
X0020732Y0039692D01*
X0020726Y0039534D01*
X0020716Y0039376D01*
X0020702Y0039218D01*
X0020684Y0039061D01*
X0020663Y0038904D01*
X0020637Y0038748D01*
X0020607Y0038592D01*
X0020574Y0038437D01*
X0020536Y0038284D01*
X0020495Y0038131D01*
X0020450Y0037979D01*
X0020401Y0037828D01*
X0020348Y0037679D01*
X0020292Y0037531D01*
X0020232Y0037385D01*
X0020168Y0037240D01*
X0020100Y0037097D01*
X0020029Y0036955D01*
X0019955Y0036815D01*
X0019877Y0036678D01*
X0019795Y0036542D01*
X0019711Y0036408D01*
X0019622Y0036277D01*
X0019531Y0036148D01*
X0019436Y0036021D01*
X0019339Y0035896D01*
X0019238Y0035774D01*
X0019134Y0035655D01*
X0019027Y0035538D01*
X0018917Y0035424D01*
X0018804Y0035313D01*
X0018689Y0035204D01*
X0018571Y0035099D01*
X0018450Y0034997D01*
X0018327Y0034897D01*
X0018201Y0034801D01*
X0018073Y0034708D01*
X0017943Y0034618D01*
X0017810Y0034532D01*
X0017675Y0034448D01*
X0017539Y0034369D01*
X0017400Y0034292D01*
X0017259Y0034220D01*
X0017117Y0034150D01*
X0016973Y0034085D01*
X0016827Y0034023D01*
X0016680Y0033965D01*
X0016531Y0033910D01*
X0016381Y0033859D01*
X0016230Y0033812D01*
X0016078Y0033769D01*
X0015925Y0033730D01*
X0015770Y0033694D01*
X0015615Y0033663D01*
X0015459Y0033635D01*
X0015303Y0033611D01*
X0015146Y0033591D01*
X0014988Y0033575D01*
X0014831Y0033563D01*
X0014672Y0033555D01*
X0014514Y0033551D01*
X0014356Y0033551D01*
X0014198Y0033555D01*
X0014039Y0033563D01*
X0013882Y0033575D01*
X0013724Y0033591D01*
X0013567Y0033611D01*
X0013411Y0033635D01*
X0013255Y0033663D01*
X0013100Y0033694D01*
X0012945Y0033730D01*
X0012792Y0033769D01*
X0012640Y0033812D01*
X0012489Y0033859D01*
X0012339Y0033910D01*
X0012190Y0033965D01*
X0012043Y0034023D01*
X0011897Y0034085D01*
X0011753Y0034150D01*
X0011611Y0034220D01*
X0011470Y0034292D01*
X0011331Y0034369D01*
X0011195Y0034448D01*
X0011060Y0034532D01*
X0010927Y0034618D01*
X0010797Y0034708D01*
X0010669Y0034801D01*
X0010543Y0034897D01*
X0010420Y0034997D01*
X0010299Y0035099D01*
X0010181Y0035204D01*
X0010066Y0035313D01*
X0009953Y0035424D01*
X0009843Y0035538D01*
X0009736Y0035655D01*
X0009632Y0035774D01*
X0009531Y0035896D01*
X0009434Y0036021D01*
X0009339Y0036148D01*
X0009248Y0036277D01*
X0009159Y0036408D01*
X0009075Y0036542D01*
X0008993Y0036678D01*
X0008915Y0036815D01*
X0008841Y0036955D01*
X0008770Y0037097D01*
X0008702Y0037240D01*
X0008638Y0037385D01*
X0008578Y0037531D01*
X0008522Y0037679D01*
X0008469Y0037828D01*
X0008420Y0037979D01*
X0008375Y0038131D01*
X0008334Y0038284D01*
X0008296Y0038437D01*
X0008263Y0038592D01*
X0008233Y0038748D01*
X0008207Y0038904D01*
X0008186Y0039061D01*
X0008168Y0039218D01*
X0008154Y0039376D01*
X0008144Y0039534D01*
X0008138Y0039692D01*
X0008136Y0039850D01*
X0155185Y0052850D02*
X0155187Y0052963D01*
X0155193Y0053077D01*
X0155203Y0053190D01*
X0155217Y0053302D01*
X0155234Y0053414D01*
X0155256Y0053526D01*
X0155282Y0053636D01*
X0155311Y0053746D01*
X0155344Y0053854D01*
X0155381Y0053962D01*
X0155422Y0054067D01*
X0155466Y0054172D01*
X0155514Y0054275D01*
X0155565Y0054376D01*
X0155620Y0054475D01*
X0155679Y0054572D01*
X0155741Y0054667D01*
X0155806Y0054760D01*
X0155874Y0054851D01*
X0155945Y0054939D01*
X0156020Y0055025D01*
X0156097Y0055108D01*
X0156177Y0055188D01*
X0156260Y0055265D01*
X0156346Y0055340D01*
X0156434Y0055411D01*
X0156525Y0055479D01*
X0156618Y0055544D01*
X0156713Y0055606D01*
X0156810Y0055665D01*
X0156909Y0055720D01*
X0157010Y0055771D01*
X0157113Y0055819D01*
X0157218Y0055863D01*
X0157323Y0055904D01*
X0157431Y0055941D01*
X0157539Y0055974D01*
X0157649Y0056003D01*
X0157759Y0056029D01*
X0157871Y0056051D01*
X0157983Y0056068D01*
X0158095Y0056082D01*
X0158208Y0056092D01*
X0158322Y0056098D01*
X0158435Y0056100D01*
X0158548Y0056098D01*
X0158662Y0056092D01*
X0158775Y0056082D01*
X0158887Y0056068D01*
X0158999Y0056051D01*
X0159111Y0056029D01*
X0159221Y0056003D01*
X0159331Y0055974D01*
X0159439Y0055941D01*
X0159547Y0055904D01*
X0159652Y0055863D01*
X0159757Y0055819D01*
X0159860Y0055771D01*
X0159961Y0055720D01*
X0160060Y0055665D01*
X0160157Y0055606D01*
X0160252Y0055544D01*
X0160345Y0055479D01*
X0160436Y0055411D01*
X0160524Y0055340D01*
X0160610Y0055265D01*
X0160693Y0055188D01*
X0160773Y0055108D01*
X0160850Y0055025D01*
X0160925Y0054939D01*
X0160996Y0054851D01*
X0161064Y0054760D01*
X0161129Y0054667D01*
X0161191Y0054572D01*
X0161250Y0054475D01*
X0161305Y0054376D01*
X0161356Y0054275D01*
X0161404Y0054172D01*
X0161448Y0054067D01*
X0161489Y0053962D01*
X0161526Y0053854D01*
X0161559Y0053746D01*
X0161588Y0053636D01*
X0161614Y0053526D01*
X0161636Y0053414D01*
X0161653Y0053302D01*
X0161667Y0053190D01*
X0161677Y0053077D01*
X0161683Y0052963D01*
X0161685Y0052850D01*
X0161683Y0052737D01*
X0161677Y0052623D01*
X0161667Y0052510D01*
X0161653Y0052398D01*
X0161636Y0052286D01*
X0161614Y0052174D01*
X0161588Y0052064D01*
X0161559Y0051954D01*
X0161526Y0051846D01*
X0161489Y0051738D01*
X0161448Y0051633D01*
X0161404Y0051528D01*
X0161356Y0051425D01*
X0161305Y0051324D01*
X0161250Y0051225D01*
X0161191Y0051128D01*
X0161129Y0051033D01*
X0161064Y0050940D01*
X0160996Y0050849D01*
X0160925Y0050761D01*
X0160850Y0050675D01*
X0160773Y0050592D01*
X0160693Y0050512D01*
X0160610Y0050435D01*
X0160524Y0050360D01*
X0160436Y0050289D01*
X0160345Y0050221D01*
X0160252Y0050156D01*
X0160157Y0050094D01*
X0160060Y0050035D01*
X0159961Y0049980D01*
X0159860Y0049929D01*
X0159757Y0049881D01*
X0159652Y0049837D01*
X0159547Y0049796D01*
X0159439Y0049759D01*
X0159331Y0049726D01*
X0159221Y0049697D01*
X0159111Y0049671D01*
X0158999Y0049649D01*
X0158887Y0049632D01*
X0158775Y0049618D01*
X0158662Y0049608D01*
X0158548Y0049602D01*
X0158435Y0049600D01*
X0158322Y0049602D01*
X0158208Y0049608D01*
X0158095Y0049618D01*
X0157983Y0049632D01*
X0157871Y0049649D01*
X0157759Y0049671D01*
X0157649Y0049697D01*
X0157539Y0049726D01*
X0157431Y0049759D01*
X0157323Y0049796D01*
X0157218Y0049837D01*
X0157113Y0049881D01*
X0157010Y0049929D01*
X0156909Y0049980D01*
X0156810Y0050035D01*
X0156713Y0050094D01*
X0156618Y0050156D01*
X0156525Y0050221D01*
X0156434Y0050289D01*
X0156346Y0050360D01*
X0156260Y0050435D01*
X0156177Y0050512D01*
X0156097Y0050592D01*
X0156020Y0050675D01*
X0155945Y0050761D01*
X0155874Y0050849D01*
X0155806Y0050940D01*
X0155741Y0051033D01*
X0155679Y0051128D01*
X0155620Y0051225D01*
X0155565Y0051324D01*
X0155514Y0051425D01*
X0155466Y0051528D01*
X0155422Y0051633D01*
X0155381Y0051738D01*
X0155344Y0051846D01*
X0155311Y0051954D01*
X0155282Y0052064D01*
X0155256Y0052174D01*
X0155234Y0052286D01*
X0155217Y0052398D01*
X0155203Y0052510D01*
X0155193Y0052623D01*
X0155187Y0052737D01*
X0155185Y0052850D01*
X0155185Y0112850D02*
X0155187Y0112963D01*
X0155193Y0113077D01*
X0155203Y0113190D01*
X0155217Y0113302D01*
X0155234Y0113414D01*
X0155256Y0113526D01*
X0155282Y0113636D01*
X0155311Y0113746D01*
X0155344Y0113854D01*
X0155381Y0113962D01*
X0155422Y0114067D01*
X0155466Y0114172D01*
X0155514Y0114275D01*
X0155565Y0114376D01*
X0155620Y0114475D01*
X0155679Y0114572D01*
X0155741Y0114667D01*
X0155806Y0114760D01*
X0155874Y0114851D01*
X0155945Y0114939D01*
X0156020Y0115025D01*
X0156097Y0115108D01*
X0156177Y0115188D01*
X0156260Y0115265D01*
X0156346Y0115340D01*
X0156434Y0115411D01*
X0156525Y0115479D01*
X0156618Y0115544D01*
X0156713Y0115606D01*
X0156810Y0115665D01*
X0156909Y0115720D01*
X0157010Y0115771D01*
X0157113Y0115819D01*
X0157218Y0115863D01*
X0157323Y0115904D01*
X0157431Y0115941D01*
X0157539Y0115974D01*
X0157649Y0116003D01*
X0157759Y0116029D01*
X0157871Y0116051D01*
X0157983Y0116068D01*
X0158095Y0116082D01*
X0158208Y0116092D01*
X0158322Y0116098D01*
X0158435Y0116100D01*
X0158548Y0116098D01*
X0158662Y0116092D01*
X0158775Y0116082D01*
X0158887Y0116068D01*
X0158999Y0116051D01*
X0159111Y0116029D01*
X0159221Y0116003D01*
X0159331Y0115974D01*
X0159439Y0115941D01*
X0159547Y0115904D01*
X0159652Y0115863D01*
X0159757Y0115819D01*
X0159860Y0115771D01*
X0159961Y0115720D01*
X0160060Y0115665D01*
X0160157Y0115606D01*
X0160252Y0115544D01*
X0160345Y0115479D01*
X0160436Y0115411D01*
X0160524Y0115340D01*
X0160610Y0115265D01*
X0160693Y0115188D01*
X0160773Y0115108D01*
X0160850Y0115025D01*
X0160925Y0114939D01*
X0160996Y0114851D01*
X0161064Y0114760D01*
X0161129Y0114667D01*
X0161191Y0114572D01*
X0161250Y0114475D01*
X0161305Y0114376D01*
X0161356Y0114275D01*
X0161404Y0114172D01*
X0161448Y0114067D01*
X0161489Y0113962D01*
X0161526Y0113854D01*
X0161559Y0113746D01*
X0161588Y0113636D01*
X0161614Y0113526D01*
X0161636Y0113414D01*
X0161653Y0113302D01*
X0161667Y0113190D01*
X0161677Y0113077D01*
X0161683Y0112963D01*
X0161685Y0112850D01*
X0161683Y0112737D01*
X0161677Y0112623D01*
X0161667Y0112510D01*
X0161653Y0112398D01*
X0161636Y0112286D01*
X0161614Y0112174D01*
X0161588Y0112064D01*
X0161559Y0111954D01*
X0161526Y0111846D01*
X0161489Y0111738D01*
X0161448Y0111633D01*
X0161404Y0111528D01*
X0161356Y0111425D01*
X0161305Y0111324D01*
X0161250Y0111225D01*
X0161191Y0111128D01*
X0161129Y0111033D01*
X0161064Y0110940D01*
X0160996Y0110849D01*
X0160925Y0110761D01*
X0160850Y0110675D01*
X0160773Y0110592D01*
X0160693Y0110512D01*
X0160610Y0110435D01*
X0160524Y0110360D01*
X0160436Y0110289D01*
X0160345Y0110221D01*
X0160252Y0110156D01*
X0160157Y0110094D01*
X0160060Y0110035D01*
X0159961Y0109980D01*
X0159860Y0109929D01*
X0159757Y0109881D01*
X0159652Y0109837D01*
X0159547Y0109796D01*
X0159439Y0109759D01*
X0159331Y0109726D01*
X0159221Y0109697D01*
X0159111Y0109671D01*
X0158999Y0109649D01*
X0158887Y0109632D01*
X0158775Y0109618D01*
X0158662Y0109608D01*
X0158548Y0109602D01*
X0158435Y0109600D01*
X0158322Y0109602D01*
X0158208Y0109608D01*
X0158095Y0109618D01*
X0157983Y0109632D01*
X0157871Y0109649D01*
X0157759Y0109671D01*
X0157649Y0109697D01*
X0157539Y0109726D01*
X0157431Y0109759D01*
X0157323Y0109796D01*
X0157218Y0109837D01*
X0157113Y0109881D01*
X0157010Y0109929D01*
X0156909Y0109980D01*
X0156810Y0110035D01*
X0156713Y0110094D01*
X0156618Y0110156D01*
X0156525Y0110221D01*
X0156434Y0110289D01*
X0156346Y0110360D01*
X0156260Y0110435D01*
X0156177Y0110512D01*
X0156097Y0110592D01*
X0156020Y0110675D01*
X0155945Y0110761D01*
X0155874Y0110849D01*
X0155806Y0110940D01*
X0155741Y0111033D01*
X0155679Y0111128D01*
X0155620Y0111225D01*
X0155565Y0111324D01*
X0155514Y0111425D01*
X0155466Y0111528D01*
X0155422Y0111633D01*
X0155381Y0111738D01*
X0155344Y0111846D01*
X0155311Y0111954D01*
X0155282Y0112064D01*
X0155256Y0112174D01*
X0155234Y0112286D01*
X0155217Y0112398D01*
X0155203Y0112510D01*
X0155193Y0112623D01*
X0155187Y0112737D01*
X0155185Y0112850D01*
X0309136Y0039850D02*
X0309138Y0040008D01*
X0309144Y0040166D01*
X0309154Y0040324D01*
X0309168Y0040482D01*
X0309186Y0040639D01*
X0309207Y0040796D01*
X0309233Y0040952D01*
X0309263Y0041108D01*
X0309296Y0041263D01*
X0309334Y0041416D01*
X0309375Y0041569D01*
X0309420Y0041721D01*
X0309469Y0041872D01*
X0309522Y0042021D01*
X0309578Y0042169D01*
X0309638Y0042315D01*
X0309702Y0042460D01*
X0309770Y0042603D01*
X0309841Y0042745D01*
X0309915Y0042885D01*
X0309993Y0043022D01*
X0310075Y0043158D01*
X0310159Y0043292D01*
X0310248Y0043423D01*
X0310339Y0043552D01*
X0310434Y0043679D01*
X0310531Y0043804D01*
X0310632Y0043926D01*
X0310736Y0044045D01*
X0310843Y0044162D01*
X0310953Y0044276D01*
X0311066Y0044387D01*
X0311181Y0044496D01*
X0311299Y0044601D01*
X0311420Y0044703D01*
X0311543Y0044803D01*
X0311669Y0044899D01*
X0311797Y0044992D01*
X0311927Y0045082D01*
X0312060Y0045168D01*
X0312195Y0045252D01*
X0312331Y0045331D01*
X0312470Y0045408D01*
X0312611Y0045480D01*
X0312753Y0045550D01*
X0312897Y0045615D01*
X0313043Y0045677D01*
X0313190Y0045735D01*
X0313339Y0045790D01*
X0313489Y0045841D01*
X0313640Y0045888D01*
X0313792Y0045931D01*
X0313945Y0045970D01*
X0314100Y0046006D01*
X0314255Y0046037D01*
X0314411Y0046065D01*
X0314567Y0046089D01*
X0314724Y0046109D01*
X0314882Y0046125D01*
X0315039Y0046137D01*
X0315198Y0046145D01*
X0315356Y0046149D01*
X0315514Y0046149D01*
X0315672Y0046145D01*
X0315831Y0046137D01*
X0315988Y0046125D01*
X0316146Y0046109D01*
X0316303Y0046089D01*
X0316459Y0046065D01*
X0316615Y0046037D01*
X0316770Y0046006D01*
X0316925Y0045970D01*
X0317078Y0045931D01*
X0317230Y0045888D01*
X0317381Y0045841D01*
X0317531Y0045790D01*
X0317680Y0045735D01*
X0317827Y0045677D01*
X0317973Y0045615D01*
X0318117Y0045550D01*
X0318259Y0045480D01*
X0318400Y0045408D01*
X0318539Y0045331D01*
X0318675Y0045252D01*
X0318810Y0045168D01*
X0318943Y0045082D01*
X0319073Y0044992D01*
X0319201Y0044899D01*
X0319327Y0044803D01*
X0319450Y0044703D01*
X0319571Y0044601D01*
X0319689Y0044496D01*
X0319804Y0044387D01*
X0319917Y0044276D01*
X0320027Y0044162D01*
X0320134Y0044045D01*
X0320238Y0043926D01*
X0320339Y0043804D01*
X0320436Y0043679D01*
X0320531Y0043552D01*
X0320622Y0043423D01*
X0320711Y0043292D01*
X0320795Y0043158D01*
X0320877Y0043022D01*
X0320955Y0042885D01*
X0321029Y0042745D01*
X0321100Y0042603D01*
X0321168Y0042460D01*
X0321232Y0042315D01*
X0321292Y0042169D01*
X0321348Y0042021D01*
X0321401Y0041872D01*
X0321450Y0041721D01*
X0321495Y0041569D01*
X0321536Y0041416D01*
X0321574Y0041263D01*
X0321607Y0041108D01*
X0321637Y0040952D01*
X0321663Y0040796D01*
X0321684Y0040639D01*
X0321702Y0040482D01*
X0321716Y0040324D01*
X0321726Y0040166D01*
X0321732Y0040008D01*
X0321734Y0039850D01*
X0321732Y0039692D01*
X0321726Y0039534D01*
X0321716Y0039376D01*
X0321702Y0039218D01*
X0321684Y0039061D01*
X0321663Y0038904D01*
X0321637Y0038748D01*
X0321607Y0038592D01*
X0321574Y0038437D01*
X0321536Y0038284D01*
X0321495Y0038131D01*
X0321450Y0037979D01*
X0321401Y0037828D01*
X0321348Y0037679D01*
X0321292Y0037531D01*
X0321232Y0037385D01*
X0321168Y0037240D01*
X0321100Y0037097D01*
X0321029Y0036955D01*
X0320955Y0036815D01*
X0320877Y0036678D01*
X0320795Y0036542D01*
X0320711Y0036408D01*
X0320622Y0036277D01*
X0320531Y0036148D01*
X0320436Y0036021D01*
X0320339Y0035896D01*
X0320238Y0035774D01*
X0320134Y0035655D01*
X0320027Y0035538D01*
X0319917Y0035424D01*
X0319804Y0035313D01*
X0319689Y0035204D01*
X0319571Y0035099D01*
X0319450Y0034997D01*
X0319327Y0034897D01*
X0319201Y0034801D01*
X0319073Y0034708D01*
X0318943Y0034618D01*
X0318810Y0034532D01*
X0318675Y0034448D01*
X0318539Y0034369D01*
X0318400Y0034292D01*
X0318259Y0034220D01*
X0318117Y0034150D01*
X0317973Y0034085D01*
X0317827Y0034023D01*
X0317680Y0033965D01*
X0317531Y0033910D01*
X0317381Y0033859D01*
X0317230Y0033812D01*
X0317078Y0033769D01*
X0316925Y0033730D01*
X0316770Y0033694D01*
X0316615Y0033663D01*
X0316459Y0033635D01*
X0316303Y0033611D01*
X0316146Y0033591D01*
X0315988Y0033575D01*
X0315831Y0033563D01*
X0315672Y0033555D01*
X0315514Y0033551D01*
X0315356Y0033551D01*
X0315198Y0033555D01*
X0315039Y0033563D01*
X0314882Y0033575D01*
X0314724Y0033591D01*
X0314567Y0033611D01*
X0314411Y0033635D01*
X0314255Y0033663D01*
X0314100Y0033694D01*
X0313945Y0033730D01*
X0313792Y0033769D01*
X0313640Y0033812D01*
X0313489Y0033859D01*
X0313339Y0033910D01*
X0313190Y0033965D01*
X0313043Y0034023D01*
X0312897Y0034085D01*
X0312753Y0034150D01*
X0312611Y0034220D01*
X0312470Y0034292D01*
X0312331Y0034369D01*
X0312195Y0034448D01*
X0312060Y0034532D01*
X0311927Y0034618D01*
X0311797Y0034708D01*
X0311669Y0034801D01*
X0311543Y0034897D01*
X0311420Y0034997D01*
X0311299Y0035099D01*
X0311181Y0035204D01*
X0311066Y0035313D01*
X0310953Y0035424D01*
X0310843Y0035538D01*
X0310736Y0035655D01*
X0310632Y0035774D01*
X0310531Y0035896D01*
X0310434Y0036021D01*
X0310339Y0036148D01*
X0310248Y0036277D01*
X0310159Y0036408D01*
X0310075Y0036542D01*
X0309993Y0036678D01*
X0309915Y0036815D01*
X0309841Y0036955D01*
X0309770Y0037097D01*
X0309702Y0037240D01*
X0309638Y0037385D01*
X0309578Y0037531D01*
X0309522Y0037679D01*
X0309469Y0037828D01*
X0309420Y0037979D01*
X0309375Y0038131D01*
X0309334Y0038284D01*
X0309296Y0038437D01*
X0309263Y0038592D01*
X0309233Y0038748D01*
X0309207Y0038904D01*
X0309186Y0039061D01*
X0309168Y0039218D01*
X0309154Y0039376D01*
X0309144Y0039534D01*
X0309138Y0039692D01*
X0309136Y0039850D01*
X0315185Y0052850D02*
X0315187Y0052963D01*
X0315193Y0053077D01*
X0315203Y0053190D01*
X0315217Y0053302D01*
X0315234Y0053414D01*
X0315256Y0053526D01*
X0315282Y0053636D01*
X0315311Y0053746D01*
X0315344Y0053854D01*
X0315381Y0053962D01*
X0315422Y0054067D01*
X0315466Y0054172D01*
X0315514Y0054275D01*
X0315565Y0054376D01*
X0315620Y0054475D01*
X0315679Y0054572D01*
X0315741Y0054667D01*
X0315806Y0054760D01*
X0315874Y0054851D01*
X0315945Y0054939D01*
X0316020Y0055025D01*
X0316097Y0055108D01*
X0316177Y0055188D01*
X0316260Y0055265D01*
X0316346Y0055340D01*
X0316434Y0055411D01*
X0316525Y0055479D01*
X0316618Y0055544D01*
X0316713Y0055606D01*
X0316810Y0055665D01*
X0316909Y0055720D01*
X0317010Y0055771D01*
X0317113Y0055819D01*
X0317218Y0055863D01*
X0317323Y0055904D01*
X0317431Y0055941D01*
X0317539Y0055974D01*
X0317649Y0056003D01*
X0317759Y0056029D01*
X0317871Y0056051D01*
X0317983Y0056068D01*
X0318095Y0056082D01*
X0318208Y0056092D01*
X0318322Y0056098D01*
X0318435Y0056100D01*
X0318548Y0056098D01*
X0318662Y0056092D01*
X0318775Y0056082D01*
X0318887Y0056068D01*
X0318999Y0056051D01*
X0319111Y0056029D01*
X0319221Y0056003D01*
X0319331Y0055974D01*
X0319439Y0055941D01*
X0319547Y0055904D01*
X0319652Y0055863D01*
X0319757Y0055819D01*
X0319860Y0055771D01*
X0319961Y0055720D01*
X0320060Y0055665D01*
X0320157Y0055606D01*
X0320252Y0055544D01*
X0320345Y0055479D01*
X0320436Y0055411D01*
X0320524Y0055340D01*
X0320610Y0055265D01*
X0320693Y0055188D01*
X0320773Y0055108D01*
X0320850Y0055025D01*
X0320925Y0054939D01*
X0320996Y0054851D01*
X0321064Y0054760D01*
X0321129Y0054667D01*
X0321191Y0054572D01*
X0321250Y0054475D01*
X0321305Y0054376D01*
X0321356Y0054275D01*
X0321404Y0054172D01*
X0321448Y0054067D01*
X0321489Y0053962D01*
X0321526Y0053854D01*
X0321559Y0053746D01*
X0321588Y0053636D01*
X0321614Y0053526D01*
X0321636Y0053414D01*
X0321653Y0053302D01*
X0321667Y0053190D01*
X0321677Y0053077D01*
X0321683Y0052963D01*
X0321685Y0052850D01*
X0321683Y0052737D01*
X0321677Y0052623D01*
X0321667Y0052510D01*
X0321653Y0052398D01*
X0321636Y0052286D01*
X0321614Y0052174D01*
X0321588Y0052064D01*
X0321559Y0051954D01*
X0321526Y0051846D01*
X0321489Y0051738D01*
X0321448Y0051633D01*
X0321404Y0051528D01*
X0321356Y0051425D01*
X0321305Y0051324D01*
X0321250Y0051225D01*
X0321191Y0051128D01*
X0321129Y0051033D01*
X0321064Y0050940D01*
X0320996Y0050849D01*
X0320925Y0050761D01*
X0320850Y0050675D01*
X0320773Y0050592D01*
X0320693Y0050512D01*
X0320610Y0050435D01*
X0320524Y0050360D01*
X0320436Y0050289D01*
X0320345Y0050221D01*
X0320252Y0050156D01*
X0320157Y0050094D01*
X0320060Y0050035D01*
X0319961Y0049980D01*
X0319860Y0049929D01*
X0319757Y0049881D01*
X0319652Y0049837D01*
X0319547Y0049796D01*
X0319439Y0049759D01*
X0319331Y0049726D01*
X0319221Y0049697D01*
X0319111Y0049671D01*
X0318999Y0049649D01*
X0318887Y0049632D01*
X0318775Y0049618D01*
X0318662Y0049608D01*
X0318548Y0049602D01*
X0318435Y0049600D01*
X0318322Y0049602D01*
X0318208Y0049608D01*
X0318095Y0049618D01*
X0317983Y0049632D01*
X0317871Y0049649D01*
X0317759Y0049671D01*
X0317649Y0049697D01*
X0317539Y0049726D01*
X0317431Y0049759D01*
X0317323Y0049796D01*
X0317218Y0049837D01*
X0317113Y0049881D01*
X0317010Y0049929D01*
X0316909Y0049980D01*
X0316810Y0050035D01*
X0316713Y0050094D01*
X0316618Y0050156D01*
X0316525Y0050221D01*
X0316434Y0050289D01*
X0316346Y0050360D01*
X0316260Y0050435D01*
X0316177Y0050512D01*
X0316097Y0050592D01*
X0316020Y0050675D01*
X0315945Y0050761D01*
X0315874Y0050849D01*
X0315806Y0050940D01*
X0315741Y0051033D01*
X0315679Y0051128D01*
X0315620Y0051225D01*
X0315565Y0051324D01*
X0315514Y0051425D01*
X0315466Y0051528D01*
X0315422Y0051633D01*
X0315381Y0051738D01*
X0315344Y0051846D01*
X0315311Y0051954D01*
X0315282Y0052064D01*
X0315256Y0052174D01*
X0315234Y0052286D01*
X0315217Y0052398D01*
X0315203Y0052510D01*
X0315193Y0052623D01*
X0315187Y0052737D01*
X0315185Y0052850D01*
X0315185Y0112850D02*
X0315187Y0112963D01*
X0315193Y0113077D01*
X0315203Y0113190D01*
X0315217Y0113302D01*
X0315234Y0113414D01*
X0315256Y0113526D01*
X0315282Y0113636D01*
X0315311Y0113746D01*
X0315344Y0113854D01*
X0315381Y0113962D01*
X0315422Y0114067D01*
X0315466Y0114172D01*
X0315514Y0114275D01*
X0315565Y0114376D01*
X0315620Y0114475D01*
X0315679Y0114572D01*
X0315741Y0114667D01*
X0315806Y0114760D01*
X0315874Y0114851D01*
X0315945Y0114939D01*
X0316020Y0115025D01*
X0316097Y0115108D01*
X0316177Y0115188D01*
X0316260Y0115265D01*
X0316346Y0115340D01*
X0316434Y0115411D01*
X0316525Y0115479D01*
X0316618Y0115544D01*
X0316713Y0115606D01*
X0316810Y0115665D01*
X0316909Y0115720D01*
X0317010Y0115771D01*
X0317113Y0115819D01*
X0317218Y0115863D01*
X0317323Y0115904D01*
X0317431Y0115941D01*
X0317539Y0115974D01*
X0317649Y0116003D01*
X0317759Y0116029D01*
X0317871Y0116051D01*
X0317983Y0116068D01*
X0318095Y0116082D01*
X0318208Y0116092D01*
X0318322Y0116098D01*
X0318435Y0116100D01*
X0318548Y0116098D01*
X0318662Y0116092D01*
X0318775Y0116082D01*
X0318887Y0116068D01*
X0318999Y0116051D01*
X0319111Y0116029D01*
X0319221Y0116003D01*
X0319331Y0115974D01*
X0319439Y0115941D01*
X0319547Y0115904D01*
X0319652Y0115863D01*
X0319757Y0115819D01*
X0319860Y0115771D01*
X0319961Y0115720D01*
X0320060Y0115665D01*
X0320157Y0115606D01*
X0320252Y0115544D01*
X0320345Y0115479D01*
X0320436Y0115411D01*
X0320524Y0115340D01*
X0320610Y0115265D01*
X0320693Y0115188D01*
X0320773Y0115108D01*
X0320850Y0115025D01*
X0320925Y0114939D01*
X0320996Y0114851D01*
X0321064Y0114760D01*
X0321129Y0114667D01*
X0321191Y0114572D01*
X0321250Y0114475D01*
X0321305Y0114376D01*
X0321356Y0114275D01*
X0321404Y0114172D01*
X0321448Y0114067D01*
X0321489Y0113962D01*
X0321526Y0113854D01*
X0321559Y0113746D01*
X0321588Y0113636D01*
X0321614Y0113526D01*
X0321636Y0113414D01*
X0321653Y0113302D01*
X0321667Y0113190D01*
X0321677Y0113077D01*
X0321683Y0112963D01*
X0321685Y0112850D01*
X0321683Y0112737D01*
X0321677Y0112623D01*
X0321667Y0112510D01*
X0321653Y0112398D01*
X0321636Y0112286D01*
X0321614Y0112174D01*
X0321588Y0112064D01*
X0321559Y0111954D01*
X0321526Y0111846D01*
X0321489Y0111738D01*
X0321448Y0111633D01*
X0321404Y0111528D01*
X0321356Y0111425D01*
X0321305Y0111324D01*
X0321250Y0111225D01*
X0321191Y0111128D01*
X0321129Y0111033D01*
X0321064Y0110940D01*
X0320996Y0110849D01*
X0320925Y0110761D01*
X0320850Y0110675D01*
X0320773Y0110592D01*
X0320693Y0110512D01*
X0320610Y0110435D01*
X0320524Y0110360D01*
X0320436Y0110289D01*
X0320345Y0110221D01*
X0320252Y0110156D01*
X0320157Y0110094D01*
X0320060Y0110035D01*
X0319961Y0109980D01*
X0319860Y0109929D01*
X0319757Y0109881D01*
X0319652Y0109837D01*
X0319547Y0109796D01*
X0319439Y0109759D01*
X0319331Y0109726D01*
X0319221Y0109697D01*
X0319111Y0109671D01*
X0318999Y0109649D01*
X0318887Y0109632D01*
X0318775Y0109618D01*
X0318662Y0109608D01*
X0318548Y0109602D01*
X0318435Y0109600D01*
X0318322Y0109602D01*
X0318208Y0109608D01*
X0318095Y0109618D01*
X0317983Y0109632D01*
X0317871Y0109649D01*
X0317759Y0109671D01*
X0317649Y0109697D01*
X0317539Y0109726D01*
X0317431Y0109759D01*
X0317323Y0109796D01*
X0317218Y0109837D01*
X0317113Y0109881D01*
X0317010Y0109929D01*
X0316909Y0109980D01*
X0316810Y0110035D01*
X0316713Y0110094D01*
X0316618Y0110156D01*
X0316525Y0110221D01*
X0316434Y0110289D01*
X0316346Y0110360D01*
X0316260Y0110435D01*
X0316177Y0110512D01*
X0316097Y0110592D01*
X0316020Y0110675D01*
X0315945Y0110761D01*
X0315874Y0110849D01*
X0315806Y0110940D01*
X0315741Y0111033D01*
X0315679Y0111128D01*
X0315620Y0111225D01*
X0315565Y0111324D01*
X0315514Y0111425D01*
X0315466Y0111528D01*
X0315422Y0111633D01*
X0315381Y0111738D01*
X0315344Y0111846D01*
X0315311Y0111954D01*
X0315282Y0112064D01*
X0315256Y0112174D01*
X0315234Y0112286D01*
X0315217Y0112398D01*
X0315203Y0112510D01*
X0315193Y0112623D01*
X0315187Y0112737D01*
X0315185Y0112850D01*
X0309136Y0259850D02*
X0309138Y0260008D01*
X0309144Y0260166D01*
X0309154Y0260324D01*
X0309168Y0260482D01*
X0309186Y0260639D01*
X0309207Y0260796D01*
X0309233Y0260952D01*
X0309263Y0261108D01*
X0309296Y0261263D01*
X0309334Y0261416D01*
X0309375Y0261569D01*
X0309420Y0261721D01*
X0309469Y0261872D01*
X0309522Y0262021D01*
X0309578Y0262169D01*
X0309638Y0262315D01*
X0309702Y0262460D01*
X0309770Y0262603D01*
X0309841Y0262745D01*
X0309915Y0262885D01*
X0309993Y0263022D01*
X0310075Y0263158D01*
X0310159Y0263292D01*
X0310248Y0263423D01*
X0310339Y0263552D01*
X0310434Y0263679D01*
X0310531Y0263804D01*
X0310632Y0263926D01*
X0310736Y0264045D01*
X0310843Y0264162D01*
X0310953Y0264276D01*
X0311066Y0264387D01*
X0311181Y0264496D01*
X0311299Y0264601D01*
X0311420Y0264703D01*
X0311543Y0264803D01*
X0311669Y0264899D01*
X0311797Y0264992D01*
X0311927Y0265082D01*
X0312060Y0265168D01*
X0312195Y0265252D01*
X0312331Y0265331D01*
X0312470Y0265408D01*
X0312611Y0265480D01*
X0312753Y0265550D01*
X0312897Y0265615D01*
X0313043Y0265677D01*
X0313190Y0265735D01*
X0313339Y0265790D01*
X0313489Y0265841D01*
X0313640Y0265888D01*
X0313792Y0265931D01*
X0313945Y0265970D01*
X0314100Y0266006D01*
X0314255Y0266037D01*
X0314411Y0266065D01*
X0314567Y0266089D01*
X0314724Y0266109D01*
X0314882Y0266125D01*
X0315039Y0266137D01*
X0315198Y0266145D01*
X0315356Y0266149D01*
X0315514Y0266149D01*
X0315672Y0266145D01*
X0315831Y0266137D01*
X0315988Y0266125D01*
X0316146Y0266109D01*
X0316303Y0266089D01*
X0316459Y0266065D01*
X0316615Y0266037D01*
X0316770Y0266006D01*
X0316925Y0265970D01*
X0317078Y0265931D01*
X0317230Y0265888D01*
X0317381Y0265841D01*
X0317531Y0265790D01*
X0317680Y0265735D01*
X0317827Y0265677D01*
X0317973Y0265615D01*
X0318117Y0265550D01*
X0318259Y0265480D01*
X0318400Y0265408D01*
X0318539Y0265331D01*
X0318675Y0265252D01*
X0318810Y0265168D01*
X0318943Y0265082D01*
X0319073Y0264992D01*
X0319201Y0264899D01*
X0319327Y0264803D01*
X0319450Y0264703D01*
X0319571Y0264601D01*
X0319689Y0264496D01*
X0319804Y0264387D01*
X0319917Y0264276D01*
X0320027Y0264162D01*
X0320134Y0264045D01*
X0320238Y0263926D01*
X0320339Y0263804D01*
X0320436Y0263679D01*
X0320531Y0263552D01*
X0320622Y0263423D01*
X0320711Y0263292D01*
X0320795Y0263158D01*
X0320877Y0263022D01*
X0320955Y0262885D01*
X0321029Y0262745D01*
X0321100Y0262603D01*
X0321168Y0262460D01*
X0321232Y0262315D01*
X0321292Y0262169D01*
X0321348Y0262021D01*
X0321401Y0261872D01*
X0321450Y0261721D01*
X0321495Y0261569D01*
X0321536Y0261416D01*
X0321574Y0261263D01*
X0321607Y0261108D01*
X0321637Y0260952D01*
X0321663Y0260796D01*
X0321684Y0260639D01*
X0321702Y0260482D01*
X0321716Y0260324D01*
X0321726Y0260166D01*
X0321732Y0260008D01*
X0321734Y0259850D01*
X0321732Y0259692D01*
X0321726Y0259534D01*
X0321716Y0259376D01*
X0321702Y0259218D01*
X0321684Y0259061D01*
X0321663Y0258904D01*
X0321637Y0258748D01*
X0321607Y0258592D01*
X0321574Y0258437D01*
X0321536Y0258284D01*
X0321495Y0258131D01*
X0321450Y0257979D01*
X0321401Y0257828D01*
X0321348Y0257679D01*
X0321292Y0257531D01*
X0321232Y0257385D01*
X0321168Y0257240D01*
X0321100Y0257097D01*
X0321029Y0256955D01*
X0320955Y0256815D01*
X0320877Y0256678D01*
X0320795Y0256542D01*
X0320711Y0256408D01*
X0320622Y0256277D01*
X0320531Y0256148D01*
X0320436Y0256021D01*
X0320339Y0255896D01*
X0320238Y0255774D01*
X0320134Y0255655D01*
X0320027Y0255538D01*
X0319917Y0255424D01*
X0319804Y0255313D01*
X0319689Y0255204D01*
X0319571Y0255099D01*
X0319450Y0254997D01*
X0319327Y0254897D01*
X0319201Y0254801D01*
X0319073Y0254708D01*
X0318943Y0254618D01*
X0318810Y0254532D01*
X0318675Y0254448D01*
X0318539Y0254369D01*
X0318400Y0254292D01*
X0318259Y0254220D01*
X0318117Y0254150D01*
X0317973Y0254085D01*
X0317827Y0254023D01*
X0317680Y0253965D01*
X0317531Y0253910D01*
X0317381Y0253859D01*
X0317230Y0253812D01*
X0317078Y0253769D01*
X0316925Y0253730D01*
X0316770Y0253694D01*
X0316615Y0253663D01*
X0316459Y0253635D01*
X0316303Y0253611D01*
X0316146Y0253591D01*
X0315988Y0253575D01*
X0315831Y0253563D01*
X0315672Y0253555D01*
X0315514Y0253551D01*
X0315356Y0253551D01*
X0315198Y0253555D01*
X0315039Y0253563D01*
X0314882Y0253575D01*
X0314724Y0253591D01*
X0314567Y0253611D01*
X0314411Y0253635D01*
X0314255Y0253663D01*
X0314100Y0253694D01*
X0313945Y0253730D01*
X0313792Y0253769D01*
X0313640Y0253812D01*
X0313489Y0253859D01*
X0313339Y0253910D01*
X0313190Y0253965D01*
X0313043Y0254023D01*
X0312897Y0254085D01*
X0312753Y0254150D01*
X0312611Y0254220D01*
X0312470Y0254292D01*
X0312331Y0254369D01*
X0312195Y0254448D01*
X0312060Y0254532D01*
X0311927Y0254618D01*
X0311797Y0254708D01*
X0311669Y0254801D01*
X0311543Y0254897D01*
X0311420Y0254997D01*
X0311299Y0255099D01*
X0311181Y0255204D01*
X0311066Y0255313D01*
X0310953Y0255424D01*
X0310843Y0255538D01*
X0310736Y0255655D01*
X0310632Y0255774D01*
X0310531Y0255896D01*
X0310434Y0256021D01*
X0310339Y0256148D01*
X0310248Y0256277D01*
X0310159Y0256408D01*
X0310075Y0256542D01*
X0309993Y0256678D01*
X0309915Y0256815D01*
X0309841Y0256955D01*
X0309770Y0257097D01*
X0309702Y0257240D01*
X0309638Y0257385D01*
X0309578Y0257531D01*
X0309522Y0257679D01*
X0309469Y0257828D01*
X0309420Y0257979D01*
X0309375Y0258131D01*
X0309334Y0258284D01*
X0309296Y0258437D01*
X0309263Y0258592D01*
X0309233Y0258748D01*
X0309207Y0258904D01*
X0309186Y0259061D01*
X0309168Y0259218D01*
X0309154Y0259376D01*
X0309144Y0259534D01*
X0309138Y0259692D01*
X0309136Y0259850D01*
X0132136Y0259850D02*
X0132138Y0260008D01*
X0132144Y0260166D01*
X0132154Y0260324D01*
X0132168Y0260482D01*
X0132186Y0260639D01*
X0132207Y0260796D01*
X0132233Y0260952D01*
X0132263Y0261108D01*
X0132296Y0261263D01*
X0132334Y0261416D01*
X0132375Y0261569D01*
X0132420Y0261721D01*
X0132469Y0261872D01*
X0132522Y0262021D01*
X0132578Y0262169D01*
X0132638Y0262315D01*
X0132702Y0262460D01*
X0132770Y0262603D01*
X0132841Y0262745D01*
X0132915Y0262885D01*
X0132993Y0263022D01*
X0133075Y0263158D01*
X0133159Y0263292D01*
X0133248Y0263423D01*
X0133339Y0263552D01*
X0133434Y0263679D01*
X0133531Y0263804D01*
X0133632Y0263926D01*
X0133736Y0264045D01*
X0133843Y0264162D01*
X0133953Y0264276D01*
X0134066Y0264387D01*
X0134181Y0264496D01*
X0134299Y0264601D01*
X0134420Y0264703D01*
X0134543Y0264803D01*
X0134669Y0264899D01*
X0134797Y0264992D01*
X0134927Y0265082D01*
X0135060Y0265168D01*
X0135195Y0265252D01*
X0135331Y0265331D01*
X0135470Y0265408D01*
X0135611Y0265480D01*
X0135753Y0265550D01*
X0135897Y0265615D01*
X0136043Y0265677D01*
X0136190Y0265735D01*
X0136339Y0265790D01*
X0136489Y0265841D01*
X0136640Y0265888D01*
X0136792Y0265931D01*
X0136945Y0265970D01*
X0137100Y0266006D01*
X0137255Y0266037D01*
X0137411Y0266065D01*
X0137567Y0266089D01*
X0137724Y0266109D01*
X0137882Y0266125D01*
X0138039Y0266137D01*
X0138198Y0266145D01*
X0138356Y0266149D01*
X0138514Y0266149D01*
X0138672Y0266145D01*
X0138831Y0266137D01*
X0138988Y0266125D01*
X0139146Y0266109D01*
X0139303Y0266089D01*
X0139459Y0266065D01*
X0139615Y0266037D01*
X0139770Y0266006D01*
X0139925Y0265970D01*
X0140078Y0265931D01*
X0140230Y0265888D01*
X0140381Y0265841D01*
X0140531Y0265790D01*
X0140680Y0265735D01*
X0140827Y0265677D01*
X0140973Y0265615D01*
X0141117Y0265550D01*
X0141259Y0265480D01*
X0141400Y0265408D01*
X0141539Y0265331D01*
X0141675Y0265252D01*
X0141810Y0265168D01*
X0141943Y0265082D01*
X0142073Y0264992D01*
X0142201Y0264899D01*
X0142327Y0264803D01*
X0142450Y0264703D01*
X0142571Y0264601D01*
X0142689Y0264496D01*
X0142804Y0264387D01*
X0142917Y0264276D01*
X0143027Y0264162D01*
X0143134Y0264045D01*
X0143238Y0263926D01*
X0143339Y0263804D01*
X0143436Y0263679D01*
X0143531Y0263552D01*
X0143622Y0263423D01*
X0143711Y0263292D01*
X0143795Y0263158D01*
X0143877Y0263022D01*
X0143955Y0262885D01*
X0144029Y0262745D01*
X0144100Y0262603D01*
X0144168Y0262460D01*
X0144232Y0262315D01*
X0144292Y0262169D01*
X0144348Y0262021D01*
X0144401Y0261872D01*
X0144450Y0261721D01*
X0144495Y0261569D01*
X0144536Y0261416D01*
X0144574Y0261263D01*
X0144607Y0261108D01*
X0144637Y0260952D01*
X0144663Y0260796D01*
X0144684Y0260639D01*
X0144702Y0260482D01*
X0144716Y0260324D01*
X0144726Y0260166D01*
X0144732Y0260008D01*
X0144734Y0259850D01*
X0144732Y0259692D01*
X0144726Y0259534D01*
X0144716Y0259376D01*
X0144702Y0259218D01*
X0144684Y0259061D01*
X0144663Y0258904D01*
X0144637Y0258748D01*
X0144607Y0258592D01*
X0144574Y0258437D01*
X0144536Y0258284D01*
X0144495Y0258131D01*
X0144450Y0257979D01*
X0144401Y0257828D01*
X0144348Y0257679D01*
X0144292Y0257531D01*
X0144232Y0257385D01*
X0144168Y0257240D01*
X0144100Y0257097D01*
X0144029Y0256955D01*
X0143955Y0256815D01*
X0143877Y0256678D01*
X0143795Y0256542D01*
X0143711Y0256408D01*
X0143622Y0256277D01*
X0143531Y0256148D01*
X0143436Y0256021D01*
X0143339Y0255896D01*
X0143238Y0255774D01*
X0143134Y0255655D01*
X0143027Y0255538D01*
X0142917Y0255424D01*
X0142804Y0255313D01*
X0142689Y0255204D01*
X0142571Y0255099D01*
X0142450Y0254997D01*
X0142327Y0254897D01*
X0142201Y0254801D01*
X0142073Y0254708D01*
X0141943Y0254618D01*
X0141810Y0254532D01*
X0141675Y0254448D01*
X0141539Y0254369D01*
X0141400Y0254292D01*
X0141259Y0254220D01*
X0141117Y0254150D01*
X0140973Y0254085D01*
X0140827Y0254023D01*
X0140680Y0253965D01*
X0140531Y0253910D01*
X0140381Y0253859D01*
X0140230Y0253812D01*
X0140078Y0253769D01*
X0139925Y0253730D01*
X0139770Y0253694D01*
X0139615Y0253663D01*
X0139459Y0253635D01*
X0139303Y0253611D01*
X0139146Y0253591D01*
X0138988Y0253575D01*
X0138831Y0253563D01*
X0138672Y0253555D01*
X0138514Y0253551D01*
X0138356Y0253551D01*
X0138198Y0253555D01*
X0138039Y0253563D01*
X0137882Y0253575D01*
X0137724Y0253591D01*
X0137567Y0253611D01*
X0137411Y0253635D01*
X0137255Y0253663D01*
X0137100Y0253694D01*
X0136945Y0253730D01*
X0136792Y0253769D01*
X0136640Y0253812D01*
X0136489Y0253859D01*
X0136339Y0253910D01*
X0136190Y0253965D01*
X0136043Y0254023D01*
X0135897Y0254085D01*
X0135753Y0254150D01*
X0135611Y0254220D01*
X0135470Y0254292D01*
X0135331Y0254369D01*
X0135195Y0254448D01*
X0135060Y0254532D01*
X0134927Y0254618D01*
X0134797Y0254708D01*
X0134669Y0254801D01*
X0134543Y0254897D01*
X0134420Y0254997D01*
X0134299Y0255099D01*
X0134181Y0255204D01*
X0134066Y0255313D01*
X0133953Y0255424D01*
X0133843Y0255538D01*
X0133736Y0255655D01*
X0133632Y0255774D01*
X0133531Y0255896D01*
X0133434Y0256021D01*
X0133339Y0256148D01*
X0133248Y0256277D01*
X0133159Y0256408D01*
X0133075Y0256542D01*
X0132993Y0256678D01*
X0132915Y0256815D01*
X0132841Y0256955D01*
X0132770Y0257097D01*
X0132702Y0257240D01*
X0132638Y0257385D01*
X0132578Y0257531D01*
X0132522Y0257679D01*
X0132469Y0257828D01*
X0132420Y0257979D01*
X0132375Y0258131D01*
X0132334Y0258284D01*
X0132296Y0258437D01*
X0132263Y0258592D01*
X0132233Y0258748D01*
X0132207Y0258904D01*
X0132186Y0259061D01*
X0132168Y0259218D01*
X0132154Y0259376D01*
X0132144Y0259534D01*
X0132138Y0259692D01*
X0132136Y0259850D01*
X0008136Y0259850D02*
X0008138Y0260008D01*
X0008144Y0260166D01*
X0008154Y0260324D01*
X0008168Y0260482D01*
X0008186Y0260639D01*
X0008207Y0260796D01*
X0008233Y0260952D01*
X0008263Y0261108D01*
X0008296Y0261263D01*
X0008334Y0261416D01*
X0008375Y0261569D01*
X0008420Y0261721D01*
X0008469Y0261872D01*
X0008522Y0262021D01*
X0008578Y0262169D01*
X0008638Y0262315D01*
X0008702Y0262460D01*
X0008770Y0262603D01*
X0008841Y0262745D01*
X0008915Y0262885D01*
X0008993Y0263022D01*
X0009075Y0263158D01*
X0009159Y0263292D01*
X0009248Y0263423D01*
X0009339Y0263552D01*
X0009434Y0263679D01*
X0009531Y0263804D01*
X0009632Y0263926D01*
X0009736Y0264045D01*
X0009843Y0264162D01*
X0009953Y0264276D01*
X0010066Y0264387D01*
X0010181Y0264496D01*
X0010299Y0264601D01*
X0010420Y0264703D01*
X0010543Y0264803D01*
X0010669Y0264899D01*
X0010797Y0264992D01*
X0010927Y0265082D01*
X0011060Y0265168D01*
X0011195Y0265252D01*
X0011331Y0265331D01*
X0011470Y0265408D01*
X0011611Y0265480D01*
X0011753Y0265550D01*
X0011897Y0265615D01*
X0012043Y0265677D01*
X0012190Y0265735D01*
X0012339Y0265790D01*
X0012489Y0265841D01*
X0012640Y0265888D01*
X0012792Y0265931D01*
X0012945Y0265970D01*
X0013100Y0266006D01*
X0013255Y0266037D01*
X0013411Y0266065D01*
X0013567Y0266089D01*
X0013724Y0266109D01*
X0013882Y0266125D01*
X0014039Y0266137D01*
X0014198Y0266145D01*
X0014356Y0266149D01*
X0014514Y0266149D01*
X0014672Y0266145D01*
X0014831Y0266137D01*
X0014988Y0266125D01*
X0015146Y0266109D01*
X0015303Y0266089D01*
X0015459Y0266065D01*
X0015615Y0266037D01*
X0015770Y0266006D01*
X0015925Y0265970D01*
X0016078Y0265931D01*
X0016230Y0265888D01*
X0016381Y0265841D01*
X0016531Y0265790D01*
X0016680Y0265735D01*
X0016827Y0265677D01*
X0016973Y0265615D01*
X0017117Y0265550D01*
X0017259Y0265480D01*
X0017400Y0265408D01*
X0017539Y0265331D01*
X0017675Y0265252D01*
X0017810Y0265168D01*
X0017943Y0265082D01*
X0018073Y0264992D01*
X0018201Y0264899D01*
X0018327Y0264803D01*
X0018450Y0264703D01*
X0018571Y0264601D01*
X0018689Y0264496D01*
X0018804Y0264387D01*
X0018917Y0264276D01*
X0019027Y0264162D01*
X0019134Y0264045D01*
X0019238Y0263926D01*
X0019339Y0263804D01*
X0019436Y0263679D01*
X0019531Y0263552D01*
X0019622Y0263423D01*
X0019711Y0263292D01*
X0019795Y0263158D01*
X0019877Y0263022D01*
X0019955Y0262885D01*
X0020029Y0262745D01*
X0020100Y0262603D01*
X0020168Y0262460D01*
X0020232Y0262315D01*
X0020292Y0262169D01*
X0020348Y0262021D01*
X0020401Y0261872D01*
X0020450Y0261721D01*
X0020495Y0261569D01*
X0020536Y0261416D01*
X0020574Y0261263D01*
X0020607Y0261108D01*
X0020637Y0260952D01*
X0020663Y0260796D01*
X0020684Y0260639D01*
X0020702Y0260482D01*
X0020716Y0260324D01*
X0020726Y0260166D01*
X0020732Y0260008D01*
X0020734Y0259850D01*
X0020732Y0259692D01*
X0020726Y0259534D01*
X0020716Y0259376D01*
X0020702Y0259218D01*
X0020684Y0259061D01*
X0020663Y0258904D01*
X0020637Y0258748D01*
X0020607Y0258592D01*
X0020574Y0258437D01*
X0020536Y0258284D01*
X0020495Y0258131D01*
X0020450Y0257979D01*
X0020401Y0257828D01*
X0020348Y0257679D01*
X0020292Y0257531D01*
X0020232Y0257385D01*
X0020168Y0257240D01*
X0020100Y0257097D01*
X0020029Y0256955D01*
X0019955Y0256815D01*
X0019877Y0256678D01*
X0019795Y0256542D01*
X0019711Y0256408D01*
X0019622Y0256277D01*
X0019531Y0256148D01*
X0019436Y0256021D01*
X0019339Y0255896D01*
X0019238Y0255774D01*
X0019134Y0255655D01*
X0019027Y0255538D01*
X0018917Y0255424D01*
X0018804Y0255313D01*
X0018689Y0255204D01*
X0018571Y0255099D01*
X0018450Y0254997D01*
X0018327Y0254897D01*
X0018201Y0254801D01*
X0018073Y0254708D01*
X0017943Y0254618D01*
X0017810Y0254532D01*
X0017675Y0254448D01*
X0017539Y0254369D01*
X0017400Y0254292D01*
X0017259Y0254220D01*
X0017117Y0254150D01*
X0016973Y0254085D01*
X0016827Y0254023D01*
X0016680Y0253965D01*
X0016531Y0253910D01*
X0016381Y0253859D01*
X0016230Y0253812D01*
X0016078Y0253769D01*
X0015925Y0253730D01*
X0015770Y0253694D01*
X0015615Y0253663D01*
X0015459Y0253635D01*
X0015303Y0253611D01*
X0015146Y0253591D01*
X0014988Y0253575D01*
X0014831Y0253563D01*
X0014672Y0253555D01*
X0014514Y0253551D01*
X0014356Y0253551D01*
X0014198Y0253555D01*
X0014039Y0253563D01*
X0013882Y0253575D01*
X0013724Y0253591D01*
X0013567Y0253611D01*
X0013411Y0253635D01*
X0013255Y0253663D01*
X0013100Y0253694D01*
X0012945Y0253730D01*
X0012792Y0253769D01*
X0012640Y0253812D01*
X0012489Y0253859D01*
X0012339Y0253910D01*
X0012190Y0253965D01*
X0012043Y0254023D01*
X0011897Y0254085D01*
X0011753Y0254150D01*
X0011611Y0254220D01*
X0011470Y0254292D01*
X0011331Y0254369D01*
X0011195Y0254448D01*
X0011060Y0254532D01*
X0010927Y0254618D01*
X0010797Y0254708D01*
X0010669Y0254801D01*
X0010543Y0254897D01*
X0010420Y0254997D01*
X0010299Y0255099D01*
X0010181Y0255204D01*
X0010066Y0255313D01*
X0009953Y0255424D01*
X0009843Y0255538D01*
X0009736Y0255655D01*
X0009632Y0255774D01*
X0009531Y0255896D01*
X0009434Y0256021D01*
X0009339Y0256148D01*
X0009248Y0256277D01*
X0009159Y0256408D01*
X0009075Y0256542D01*
X0008993Y0256678D01*
X0008915Y0256815D01*
X0008841Y0256955D01*
X0008770Y0257097D01*
X0008702Y0257240D01*
X0008638Y0257385D01*
X0008578Y0257531D01*
X0008522Y0257679D01*
X0008469Y0257828D01*
X0008420Y0257979D01*
X0008375Y0258131D01*
X0008334Y0258284D01*
X0008296Y0258437D01*
X0008263Y0258592D01*
X0008233Y0258748D01*
X0008207Y0258904D01*
X0008186Y0259061D01*
X0008168Y0259218D01*
X0008154Y0259376D01*
X0008144Y0259534D01*
X0008138Y0259692D01*
X0008136Y0259850D01*
D11*
X0142435Y0108850D03*
X0168435Y0052850D03*
D12*
X0178435Y0052850D03*
X0188435Y0052850D03*
X0198435Y0052850D03*
X0208435Y0052850D03*
X0218435Y0052850D03*
X0228435Y0052850D03*
X0238435Y0052850D03*
X0248435Y0052850D03*
X0258435Y0052850D03*
X0268435Y0052850D03*
X0278435Y0052850D03*
X0288435Y0052850D03*
X0298435Y0052850D03*
X0308435Y0052850D03*
X0308435Y0112850D03*
X0298435Y0112850D03*
X0288435Y0112850D03*
X0278435Y0112850D03*
X0268435Y0112850D03*
X0258435Y0112850D03*
X0248435Y0112850D03*
X0238435Y0112850D03*
X0228435Y0112850D03*
X0218435Y0112850D03*
X0208435Y0112850D03*
X0198435Y0112850D03*
X0188435Y0112850D03*
X0178435Y0112850D03*
X0168435Y0112850D03*
X0142435Y0098850D03*
X0132435Y0098850D03*
X0122435Y0098850D03*
X0112435Y0098850D03*
X0112435Y0108850D03*
X0122435Y0108850D03*
X0132435Y0108850D03*
D13*
X0165385Y0123425D02*
X0166015Y0122795D01*
X0163927Y0122795D01*
X0162452Y0124270D01*
X0162452Y0126358D01*
X0163927Y0127833D01*
X0166015Y0127833D01*
X0167490Y0126358D01*
X0167490Y0124270D01*
X0166015Y0122795D01*
X0165623Y0123740D01*
X0164319Y0123740D01*
X0163397Y0124662D01*
X0163397Y0125966D01*
X0164319Y0126888D01*
X0165623Y0126888D01*
X0166545Y0125966D01*
X0166545Y0124662D01*
X0165623Y0123740D01*
X0165232Y0124685D01*
X0164710Y0124685D01*
X0164342Y0125053D01*
X0164342Y0125575D01*
X0164710Y0125943D01*
X0165232Y0125943D01*
X0165600Y0125575D01*
X0165600Y0125053D01*
X0165232Y0124685D01*
D14*
X0157900Y0132386D03*
X0061435Y0054850D03*
X0014435Y0059850D03*
D15*
X0093695Y0058850D03*
X0101176Y0058850D03*
X0102176Y0087850D03*
X0094695Y0087850D03*
X0140695Y0121850D03*
X0148176Y0121850D03*
D16*
X0109435Y0135350D03*
X0109435Y0143850D03*
X0061435Y0064850D03*
X0024435Y0059850D03*
D17*
X0094935Y0104850D03*
X0101935Y0104850D03*
X0098435Y0112850D03*
D18*
X0097935Y0112729D02*
X0089135Y0112729D01*
X0089135Y0111731D02*
X0094935Y0111731D01*
X0094935Y0112350D02*
X0094935Y0110403D01*
X0095038Y0110021D01*
X0095235Y0109679D01*
X0095514Y0109400D01*
X0095856Y0109202D01*
X0096238Y0109100D01*
X0097935Y0109100D01*
X0097935Y0112350D01*
X0094935Y0112350D01*
X0094935Y0113350D02*
X0097935Y0113350D01*
X0097935Y0112350D01*
X0098935Y0112350D01*
X0098935Y0109100D01*
X0100633Y0109100D01*
X0101014Y0109202D01*
X0101356Y0109400D01*
X0101636Y0109679D01*
X0101833Y0110021D01*
X0101935Y0110403D01*
X0101935Y0112350D01*
X0098935Y0112350D01*
X0098935Y0113350D01*
X0097935Y0113350D01*
X0097935Y0116600D01*
X0096238Y0116600D01*
X0095856Y0116498D01*
X0095514Y0116300D01*
X0095235Y0116021D01*
X0095038Y0115679D01*
X0094935Y0115297D01*
X0094935Y0113350D01*
X0094935Y0113728D02*
X0089135Y0113728D01*
X0089135Y0114726D02*
X0094935Y0114726D01*
X0095064Y0115725D02*
X0089135Y0115725D01*
X0089135Y0116723D02*
X0122251Y0116723D01*
X0122251Y0116236D02*
X0122721Y0115103D01*
X0123588Y0114235D01*
X0124722Y0113766D01*
X0125646Y0113766D01*
X0127033Y0112424D01*
X0127607Y0111850D01*
X0127626Y0111850D01*
X0127640Y0111837D01*
X0128452Y0111850D01*
X0129116Y0111850D01*
X0128647Y0111381D01*
X0127967Y0109739D01*
X0127967Y0107961D01*
X0128647Y0106319D01*
X0129904Y0105062D01*
X0131547Y0104381D01*
X0133324Y0104381D01*
X0134967Y0105062D01*
X0136224Y0106319D01*
X0136904Y0107961D01*
X0136904Y0109739D01*
X0136224Y0111381D01*
X0135755Y0111850D01*
X0137967Y0111850D01*
X0137967Y0109334D01*
X0141951Y0109334D01*
X0141951Y0108366D01*
X0137967Y0108366D01*
X0137967Y0105684D01*
X0138069Y0105303D01*
X0138267Y0104960D01*
X0138546Y0104681D01*
X0138888Y0104484D01*
X0139269Y0104381D01*
X0141951Y0104381D01*
X0141951Y0108366D01*
X0142920Y0108366D01*
X0142920Y0109334D01*
X0146904Y0109334D01*
X0146904Y0111553D01*
X0153351Y0105106D01*
X0153351Y0104236D01*
X0153821Y0103103D01*
X0154688Y0102235D01*
X0155822Y0101766D01*
X0157049Y0101766D01*
X0158182Y0102235D01*
X0159050Y0103103D01*
X0159520Y0104236D01*
X0159520Y0105463D01*
X0159050Y0106597D01*
X0158182Y0107465D01*
X0157049Y0107934D01*
X0156180Y0107934D01*
X0148264Y0115850D01*
X0139360Y0115850D01*
X0139520Y0116236D01*
X0139520Y0117397D01*
X0140195Y0117397D01*
X0140195Y0121350D01*
X0141195Y0121350D01*
X0141195Y0117397D01*
X0143452Y0117397D01*
X0143833Y0117499D01*
X0144175Y0117697D01*
X0144435Y0117957D01*
X0144995Y0117397D01*
X0151356Y0117397D01*
X0152235Y0118276D01*
X0152235Y0125424D01*
X0151748Y0125910D01*
X0154774Y0128936D01*
X0155266Y0128443D01*
X0156975Y0127736D01*
X0158825Y0127736D01*
X0160534Y0128443D01*
X0161842Y0129752D01*
X0162550Y0131461D01*
X0162550Y0133310D01*
X0161842Y0135020D01*
X0161011Y0135850D01*
X0161607Y0135850D01*
X0174435Y0123022D01*
X0175607Y0121850D01*
X0180074Y0121850D01*
X0180688Y0121235D01*
X0181822Y0120766D01*
X0183049Y0120766D01*
X0184182Y0121235D01*
X0185050Y0122103D01*
X0185520Y0123236D01*
X0185520Y0124463D01*
X0185050Y0125597D01*
X0184182Y0126465D01*
X0183049Y0126934D01*
X0181822Y0126934D01*
X0180688Y0126465D01*
X0180074Y0125850D01*
X0177264Y0125850D01*
X0163264Y0139850D01*
X0155607Y0139850D01*
X0154435Y0138678D01*
X0153973Y0138216D01*
X0154635Y0139816D01*
X0154635Y0141884D01*
X0153844Y0143796D01*
X0152789Y0144850D01*
X0166435Y0144850D01*
X0168435Y0142850D01*
X0174056Y0142850D01*
X0174780Y0142550D01*
X0182091Y0142550D01*
X0182815Y0142850D01*
X0188435Y0142850D01*
X0188435Y0139772D01*
X0189607Y0138600D01*
X0189935Y0138600D01*
X0189935Y0138522D01*
X0193607Y0134850D01*
X0198074Y0134850D01*
X0198688Y0134235D01*
X0199822Y0133766D01*
X0201049Y0133766D01*
X0202182Y0134235D01*
X0203050Y0135103D01*
X0203520Y0136236D01*
X0203520Y0137463D01*
X0203050Y0138597D01*
X0202182Y0139465D01*
X0202144Y0139480D01*
X0202435Y0139772D01*
X0202435Y0140850D01*
X0205607Y0140850D01*
X0214607Y0131850D01*
X0215223Y0131850D01*
X0214112Y0130739D01*
X0213335Y0128864D01*
X0213335Y0126836D01*
X0214112Y0124961D01*
X0215546Y0123526D01*
X0217421Y0122750D01*
X0219450Y0122750D01*
X0221324Y0123526D01*
X0222759Y0124961D01*
X0223435Y0126594D01*
X0224112Y0124961D01*
X0225546Y0123526D01*
X0227421Y0122750D01*
X0229450Y0122750D01*
X0231324Y0123526D01*
X0231435Y0123638D01*
X0231435Y0116169D01*
X0230967Y0116638D01*
X0229324Y0117318D01*
X0227547Y0117318D01*
X0225904Y0116638D01*
X0224647Y0115381D01*
X0223967Y0113739D01*
X0223967Y0111961D01*
X0224647Y0110319D01*
X0225904Y0109062D01*
X0227547Y0108381D01*
X0229324Y0108381D01*
X0230967Y0109062D01*
X0231435Y0109531D01*
X0231435Y0097490D01*
X0230654Y0096709D01*
X0230154Y0095503D01*
X0230154Y0094197D01*
X0230654Y0092991D01*
X0231577Y0092068D01*
X0232104Y0091850D01*
X0194252Y0091850D01*
X0195182Y0092235D01*
X0196050Y0093103D01*
X0196520Y0094236D01*
X0196520Y0095463D01*
X0196050Y0096597D01*
X0195735Y0096912D01*
X0195735Y0101897D01*
X0199388Y0105550D01*
X0200735Y0106897D01*
X0200735Y0108966D01*
X0200967Y0109062D01*
X0202224Y0110319D01*
X0202904Y0111961D01*
X0202904Y0113739D01*
X0202224Y0115381D01*
X0200967Y0116638D01*
X0199324Y0117318D01*
X0197547Y0117318D01*
X0195904Y0116638D01*
X0194647Y0115381D01*
X0193967Y0113739D01*
X0193967Y0111961D01*
X0194647Y0110319D01*
X0195904Y0109062D01*
X0196135Y0108966D01*
X0196135Y0108803D01*
X0191135Y0103803D01*
X0191135Y0096912D01*
X0190821Y0096597D01*
X0190351Y0095463D01*
X0190351Y0094236D01*
X0190821Y0093103D01*
X0191688Y0092235D01*
X0192619Y0091850D01*
X0185797Y0091850D01*
X0186050Y0092103D01*
X0186520Y0093236D01*
X0186520Y0094463D01*
X0186050Y0095597D01*
X0185435Y0096212D01*
X0185435Y0102678D01*
X0184264Y0103850D01*
X0181264Y0106850D01*
X0180797Y0106850D01*
X0180182Y0107465D01*
X0179049Y0107934D01*
X0177822Y0107934D01*
X0176688Y0107465D01*
X0175821Y0106597D01*
X0175351Y0105463D01*
X0175351Y0104236D01*
X0175821Y0103103D01*
X0176688Y0102235D01*
X0177822Y0101766D01*
X0179049Y0101766D01*
X0180182Y0102235D01*
X0180202Y0102255D01*
X0181435Y0101022D01*
X0181435Y0096212D01*
X0180821Y0095597D01*
X0180351Y0094463D01*
X0180351Y0093236D01*
X0180821Y0092103D01*
X0181074Y0091850D01*
X0175264Y0091850D01*
X0171264Y0095850D01*
X0169789Y0095850D01*
X0169844Y0095904D01*
X0170635Y0097816D01*
X0170635Y0099884D01*
X0169844Y0101796D01*
X0168381Y0103258D01*
X0166470Y0104050D01*
X0164401Y0104050D01*
X0162490Y0103258D01*
X0161027Y0101796D01*
X0160235Y0099884D01*
X0160235Y0097816D01*
X0161027Y0095904D01*
X0161344Y0095587D01*
X0160607Y0094850D01*
X0144455Y0094850D01*
X0144967Y0095062D01*
X0146224Y0096319D01*
X0146904Y0097961D01*
X0146904Y0099739D01*
X0146224Y0101381D01*
X0144967Y0102638D01*
X0143324Y0103318D01*
X0141547Y0103318D01*
X0139904Y0102638D01*
X0138647Y0101381D01*
X0137967Y0099739D01*
X0137967Y0097961D01*
X0138647Y0096319D01*
X0139904Y0095062D01*
X0140416Y0094850D01*
X0139264Y0094850D01*
X0136684Y0097430D01*
X0136904Y0097961D01*
X0136904Y0099739D01*
X0136224Y0101381D01*
X0134967Y0102638D01*
X0133324Y0103318D01*
X0131547Y0103318D01*
X0129904Y0102638D01*
X0128647Y0101381D01*
X0127967Y0099739D01*
X0127967Y0097961D01*
X0128647Y0096319D01*
X0129904Y0095062D01*
X0131547Y0094381D01*
X0133324Y0094381D01*
X0133855Y0094602D01*
X0136435Y0092022D01*
X0137607Y0090850D01*
X0160618Y0090850D01*
X0160616Y0090846D01*
X0160363Y0090068D01*
X0160250Y0089350D01*
X0164935Y0089350D01*
X0164935Y0088350D01*
X0160250Y0088350D01*
X0160363Y0087632D01*
X0160616Y0086854D01*
X0160988Y0086125D01*
X0161187Y0085850D01*
X0157264Y0085850D01*
X0154435Y0088678D01*
X0153264Y0089850D01*
X0134264Y0089850D01*
X0126684Y0097430D01*
X0126904Y0097961D01*
X0126904Y0099739D01*
X0126224Y0101381D01*
X0124967Y0102638D01*
X0123324Y0103318D01*
X0121547Y0103318D01*
X0119904Y0102638D01*
X0119435Y0102169D01*
X0119435Y0103022D01*
X0121015Y0104602D01*
X0121547Y0104381D01*
X0123324Y0104381D01*
X0124967Y0105062D01*
X0126224Y0106319D01*
X0126904Y0107961D01*
X0126904Y0109739D01*
X0126224Y0111381D01*
X0124967Y0112638D01*
X0123324Y0113318D01*
X0121547Y0113318D01*
X0119904Y0112638D01*
X0118647Y0111381D01*
X0117967Y0109739D01*
X0117967Y0107961D01*
X0118187Y0107430D01*
X0115435Y0104678D01*
X0115435Y0102169D01*
X0114967Y0102638D01*
X0113324Y0103318D01*
X0111547Y0103318D01*
X0109904Y0102638D01*
X0109435Y0102169D01*
X0109435Y0103022D01*
X0111015Y0104602D01*
X0111547Y0104381D01*
X0113324Y0104381D01*
X0114967Y0105062D01*
X0116224Y0106319D01*
X0116904Y0107961D01*
X0116904Y0109739D01*
X0116224Y0111381D01*
X0114967Y0112638D01*
X0113324Y0113318D01*
X0111547Y0113318D01*
X0109904Y0112638D01*
X0108647Y0111381D01*
X0107967Y0109739D01*
X0107967Y0107961D01*
X0108187Y0107430D01*
X0105435Y0104678D01*
X0105435Y0095022D01*
X0106607Y0093850D01*
X0110607Y0089850D01*
X0114607Y0089850D01*
X0106235Y0089850D01*
X0106235Y0091424D01*
X0105356Y0092303D01*
X0103935Y0092303D01*
X0103935Y0092600D01*
X0104264Y0092600D01*
X0105435Y0093772D01*
X0105435Y0099928D01*
X0104264Y0101100D01*
X0103935Y0101100D01*
X0104557Y0101100D01*
X0105435Y0101979D01*
X0105435Y0107721D01*
X0104557Y0108600D01*
X0099314Y0108600D01*
X0098435Y0107721D01*
X0097557Y0108600D01*
X0092314Y0108600D01*
X0091435Y0107721D01*
X0091435Y0101979D01*
X0092314Y0101100D01*
X0092935Y0101100D01*
X0092607Y0101100D01*
X0091435Y0099928D01*
X0091435Y0093772D01*
X0092607Y0092600D01*
X0097264Y0092600D01*
X0098435Y0093772D01*
X0098435Y0099928D01*
X0097264Y0101100D01*
X0096935Y0101100D01*
X0097557Y0101100D01*
X0098435Y0101979D01*
X0098435Y0107721D01*
X0098435Y0101979D01*
X0099314Y0101100D01*
X0099935Y0101100D01*
X0099607Y0101100D01*
X0098435Y0099928D01*
X0098435Y0093772D01*
X0099607Y0092600D01*
X0099935Y0092600D01*
X0099935Y0092303D01*
X0098995Y0092303D01*
X0098435Y0091743D01*
X0098175Y0092003D01*
X0097833Y0092201D01*
X0097452Y0092303D01*
X0095195Y0092303D01*
X0095195Y0088350D01*
X0094195Y0088350D01*
X0094195Y0087350D01*
X0090636Y0087350D01*
X0090636Y0084700D01*
X0090738Y0084318D01*
X0090936Y0083976D01*
X0091215Y0083697D01*
X0091557Y0083499D01*
X0091939Y0083397D01*
X0094195Y0083397D01*
X0094195Y0087350D01*
X0095195Y0087350D01*
X0095195Y0083397D01*
X0097452Y0083397D01*
X0097833Y0083499D01*
X0098175Y0083697D01*
X0098435Y0083957D01*
X0098995Y0083397D01*
X0099876Y0083397D01*
X0099876Y0081912D01*
X0099561Y0081597D01*
X0099091Y0080463D01*
X0099091Y0079236D01*
X0099561Y0078103D01*
X0100428Y0077235D01*
X0101562Y0076766D01*
X0102789Y0076766D01*
X0103923Y0077235D01*
X0103983Y0077295D01*
X0103983Y0076090D01*
X0107935Y0076090D01*
X0107935Y0075090D01*
X0103983Y0075090D01*
X0103983Y0072834D01*
X0104085Y0072452D01*
X0104282Y0072110D01*
X0104542Y0071850D01*
X0103983Y0071290D01*
X0103983Y0070665D01*
X0103923Y0070725D01*
X0102789Y0071194D01*
X0101562Y0071194D01*
X0100428Y0070725D01*
X0099854Y0070150D01*
X0078483Y0070150D01*
X0077135Y0068803D01*
X0065506Y0057173D01*
X0065377Y0057484D01*
X0064069Y0058792D01*
X0062360Y0059500D01*
X0060510Y0059500D01*
X0058801Y0058792D01*
X0057493Y0057484D01*
X0056785Y0055775D01*
X0056785Y0053925D01*
X0057493Y0052216D01*
X0058801Y0050908D01*
X0060510Y0050200D01*
X0062360Y0050200D01*
X0064069Y0050908D01*
X0065377Y0052216D01*
X0065516Y0052550D01*
X0067388Y0052550D01*
X0068735Y0053897D01*
X0080388Y0065550D01*
X0091395Y0065550D01*
X0091395Y0063303D01*
X0090515Y0063303D01*
X0089716Y0062504D01*
X0089716Y0064252D01*
X0088838Y0065131D01*
X0084033Y0065131D01*
X0083154Y0064252D01*
X0083154Y0059448D01*
X0083735Y0058866D01*
X0083735Y0045834D01*
X0083154Y0045252D01*
X0083154Y0040448D01*
X0084033Y0039569D01*
X0088838Y0039569D01*
X0089716Y0040448D01*
X0089716Y0045252D01*
X0089135Y0045834D01*
X0089135Y0058866D01*
X0089636Y0059367D01*
X0089636Y0055276D01*
X0090515Y0054397D01*
X0096876Y0054397D01*
X0097435Y0054957D01*
X0097695Y0054697D01*
X0098037Y0054499D01*
X0098419Y0054397D01*
X0100676Y0054397D01*
X0100676Y0058350D01*
X0101676Y0058350D01*
X0101676Y0059350D01*
X0105235Y0059350D01*
X0105235Y0062000D01*
X0105132Y0062382D01*
X0104935Y0062724D01*
X0104656Y0063003D01*
X0104314Y0063201D01*
X0103932Y0063303D01*
X0101676Y0063303D01*
X0101676Y0059350D01*
X0100676Y0059350D01*
X0100676Y0063303D01*
X0098419Y0063303D01*
X0098037Y0063201D01*
X0097695Y0063003D01*
X0097435Y0062743D01*
X0096876Y0063303D01*
X0095995Y0063303D01*
X0095995Y0065550D01*
X0100374Y0065550D01*
X0100428Y0065495D01*
X0101562Y0065026D01*
X0102789Y0065026D01*
X0103923Y0065495D01*
X0103977Y0065550D01*
X0103983Y0065550D01*
X0103983Y0064929D01*
X0104861Y0064051D01*
X0111513Y0064051D01*
X0111513Y0063636D01*
X0111982Y0062503D01*
X0112408Y0062077D01*
X0112408Y0056351D01*
X0113286Y0055472D01*
X0115156Y0055472D01*
X0115156Y0055301D01*
X0116435Y0054022D01*
X0117607Y0052850D01*
X0141264Y0052850D01*
X0152264Y0063850D01*
X0153435Y0065022D01*
X0153435Y0071850D01*
X0161081Y0071850D01*
X0161027Y0071796D01*
X0160235Y0069884D01*
X0160235Y0067816D01*
X0161027Y0065904D01*
X0162490Y0064442D01*
X0164401Y0063650D01*
X0166470Y0063650D01*
X0168381Y0064442D01*
X0169844Y0065904D01*
X0170235Y0066850D01*
X0171264Y0066850D01*
X0174264Y0069850D01*
X0212074Y0069850D01*
X0212688Y0069235D01*
X0213822Y0068766D01*
X0215049Y0068766D01*
X0216182Y0069235D01*
X0217050Y0070103D01*
X0217520Y0071236D01*
X0217520Y0072463D01*
X0217050Y0073597D01*
X0216182Y0074465D01*
X0215252Y0074850D01*
X0232607Y0074850D01*
X0240351Y0067106D01*
X0240351Y0066236D01*
X0240821Y0065103D01*
X0241435Y0064488D01*
X0241435Y0056169D01*
X0240967Y0056638D01*
X0239324Y0057318D01*
X0237547Y0057318D01*
X0235904Y0056638D01*
X0234647Y0055381D01*
X0233967Y0053739D01*
X0233967Y0051961D01*
X0234647Y0050319D01*
X0235904Y0049062D01*
X0237547Y0048381D01*
X0239324Y0048381D01*
X0240967Y0049062D01*
X0241435Y0049531D01*
X0241435Y0042062D01*
X0241324Y0042174D01*
X0239450Y0042950D01*
X0237421Y0042950D01*
X0235546Y0042174D01*
X0234112Y0040739D01*
X0233435Y0039106D01*
X0232759Y0040739D01*
X0231324Y0042174D01*
X0229450Y0042950D01*
X0227421Y0042950D01*
X0225546Y0042174D01*
X0224112Y0040739D01*
X0223435Y0039106D01*
X0222759Y0040739D01*
X0221324Y0042174D01*
X0219450Y0042950D01*
X0217421Y0042950D01*
X0215546Y0042174D01*
X0214112Y0040739D01*
X0213335Y0038864D01*
X0213335Y0036836D01*
X0214112Y0034961D01*
X0215546Y0033526D01*
X0215972Y0033350D01*
X0167478Y0033350D01*
X0167935Y0034455D01*
X0167935Y0036245D01*
X0167250Y0037899D01*
X0166222Y0038927D01*
X0166708Y0038680D01*
X0167382Y0038461D01*
X0168081Y0038350D01*
X0168135Y0038350D01*
X0168135Y0042550D01*
X0163935Y0042550D01*
X0163935Y0042496D01*
X0164046Y0041796D01*
X0164265Y0041123D01*
X0164587Y0040491D01*
X0165003Y0039918D01*
X0165504Y0039418D01*
X0165676Y0039293D01*
X0164330Y0039850D01*
X0162540Y0039850D01*
X0161275Y0039326D01*
X0162250Y0040301D01*
X0162935Y0041955D01*
X0162935Y0043745D01*
X0162250Y0045399D01*
X0160984Y0046665D01*
X0159330Y0047350D01*
X0157540Y0047350D01*
X0155886Y0046665D01*
X0154620Y0045399D01*
X0154186Y0044350D01*
X0151685Y0044350D01*
X0151685Y0044678D01*
X0150514Y0045850D01*
X0144357Y0045850D01*
X0143185Y0044678D01*
X0143185Y0044350D01*
X0142188Y0044350D01*
X0149388Y0051550D01*
X0156604Y0058766D01*
X0157049Y0058766D01*
X0158182Y0059235D01*
X0159050Y0060103D01*
X0159520Y0061236D01*
X0159520Y0062463D01*
X0159050Y0063597D01*
X0158182Y0064465D01*
X0157049Y0064934D01*
X0155822Y0064934D01*
X0154688Y0064465D01*
X0153821Y0063597D01*
X0153351Y0062463D01*
X0153351Y0062018D01*
X0146135Y0054803D01*
X0135483Y0044150D01*
X0128483Y0037150D01*
X0066388Y0037150D01*
X0058388Y0045150D01*
X0053616Y0045150D01*
X0053881Y0045414D01*
X0054535Y0046995D01*
X0054535Y0048705D01*
X0053881Y0050286D01*
X0052671Y0051495D01*
X0051091Y0052150D01*
X0043780Y0052150D01*
X0042200Y0051495D01*
X0040990Y0050286D01*
X0040435Y0048947D01*
X0039881Y0050286D01*
X0038671Y0051495D01*
X0037091Y0052150D01*
X0029780Y0052150D01*
X0028200Y0051495D01*
X0026990Y0050286D01*
X0026335Y0048705D01*
X0026335Y0046995D01*
X0026990Y0045414D01*
X0028200Y0044205D01*
X0029780Y0043550D01*
X0034483Y0043550D01*
X0035883Y0042150D01*
X0029780Y0042150D01*
X0028200Y0041495D01*
X0026990Y0040286D01*
X0026335Y0038705D01*
X0026335Y0036995D01*
X0026843Y0035769D01*
X0022235Y0040796D01*
X0022235Y0041401D01*
X0021047Y0044268D01*
X0019435Y0045880D01*
X0019435Y0071850D01*
X0022435Y0074850D01*
X0059435Y0074850D01*
X0074435Y0089850D01*
X0083435Y0089850D01*
X0083735Y0090150D01*
X0083735Y0081834D01*
X0083154Y0081252D01*
X0083154Y0076448D01*
X0084033Y0075569D01*
X0088838Y0075569D01*
X0089716Y0076448D01*
X0089716Y0081252D01*
X0089135Y0081834D01*
X0089135Y0133621D01*
X0089148Y0133598D01*
X0089428Y0133319D01*
X0089770Y0133122D01*
X0090151Y0133019D01*
X0091685Y0133019D01*
X0091685Y0138513D01*
X0092359Y0138513D01*
X0092359Y0139187D01*
X0091685Y0139187D01*
X0091685Y0144681D01*
X0090151Y0144681D01*
X0090060Y0144656D01*
X0090254Y0144850D01*
X0093967Y0144850D01*
X0093967Y0144661D01*
X0093893Y0144681D01*
X0092359Y0144681D01*
X0092359Y0139187D01*
X0095195Y0139187D01*
X0095195Y0141287D01*
X0099676Y0141287D01*
X0099676Y0139187D01*
X0102512Y0139187D01*
X0102512Y0144681D01*
X0100978Y0144681D01*
X0100904Y0144661D01*
X0100904Y0144850D01*
X0104785Y0144850D01*
X0104785Y0144663D01*
X0104719Y0144681D01*
X0103185Y0144681D01*
X0103185Y0139187D01*
X0102512Y0139187D01*
X0102512Y0138513D01*
X0099676Y0138513D01*
X0099676Y0136413D01*
X0095195Y0136413D01*
X0095195Y0138513D01*
X0092359Y0138513D01*
X0092359Y0133019D01*
X0093893Y0133019D01*
X0093967Y0133039D01*
X0093967Y0130158D01*
X0094846Y0129279D01*
X0100025Y0129279D01*
X0100904Y0130158D01*
X0100904Y0130846D01*
X0104613Y0130846D01*
X0104614Y0130845D01*
X0105442Y0130846D01*
X0106268Y0130846D01*
X0106269Y0130847D01*
X0106271Y0130847D01*
X0106816Y0131394D01*
X0107509Y0130700D01*
X0111361Y0130700D01*
X0114085Y0133424D01*
X0114085Y0137276D01*
X0111761Y0139600D01*
X0114085Y0141924D01*
X0114085Y0143550D01*
X0109735Y0143550D01*
X0109735Y0144150D01*
X0114085Y0144150D01*
X0114085Y0144850D01*
X0116081Y0144850D01*
X0115027Y0143796D01*
X0114235Y0141884D01*
X0114235Y0139816D01*
X0115027Y0137904D01*
X0116490Y0136442D01*
X0118401Y0135650D01*
X0120470Y0135650D01*
X0122381Y0136442D01*
X0123844Y0137904D01*
X0124435Y0139333D01*
X0125027Y0137904D01*
X0126490Y0136442D01*
X0128401Y0135650D01*
X0130470Y0135650D01*
X0132381Y0136442D01*
X0133844Y0137904D01*
X0134450Y0139367D01*
X0134616Y0138854D01*
X0134988Y0138125D01*
X0135469Y0137462D01*
X0136048Y0136884D01*
X0136710Y0136403D01*
X0137439Y0136031D01*
X0138218Y0135778D01*
X0138935Y0135664D01*
X0138935Y0140350D01*
X0139935Y0140350D01*
X0139935Y0135664D01*
X0140653Y0135778D01*
X0141431Y0136031D01*
X0142161Y0136403D01*
X0142823Y0136884D01*
X0143402Y0137462D01*
X0143883Y0138125D01*
X0144254Y0138854D01*
X0144421Y0139367D01*
X0145027Y0137904D01*
X0146490Y0136442D01*
X0148401Y0135650D01*
X0150470Y0135650D01*
X0152070Y0136313D01*
X0150607Y0134850D01*
X0138607Y0134850D01*
X0137435Y0133678D01*
X0135607Y0131850D01*
X0135607Y0131850D01*
X0134435Y0130678D01*
X0134435Y0119212D01*
X0133821Y0118597D01*
X0133351Y0117463D01*
X0133351Y0116236D01*
X0133511Y0115850D01*
X0129245Y0115850D01*
X0128420Y0116648D01*
X0128420Y0117463D01*
X0127950Y0118597D01*
X0127082Y0119465D01*
X0125949Y0119934D01*
X0124722Y0119934D01*
X0123588Y0119465D01*
X0122721Y0118597D01*
X0122251Y0117463D01*
X0122251Y0116236D01*
X0122463Y0115725D02*
X0101807Y0115725D01*
X0101833Y0115679D02*
X0101636Y0116021D01*
X0101356Y0116300D01*
X0101014Y0116498D01*
X0100633Y0116600D01*
X0098935Y0116600D01*
X0098935Y0113350D01*
X0101935Y0113350D01*
X0101935Y0115297D01*
X0101833Y0115679D01*
X0101935Y0114726D02*
X0123097Y0114726D01*
X0124746Y0112729D02*
X0126717Y0112729D01*
X0125874Y0111731D02*
X0128997Y0111731D01*
X0128378Y0110732D02*
X0126492Y0110732D01*
X0126904Y0109734D02*
X0127967Y0109734D01*
X0127967Y0108735D02*
X0126904Y0108735D01*
X0126811Y0107737D02*
X0128060Y0107737D01*
X0128473Y0106738D02*
X0126397Y0106738D01*
X0125645Y0105740D02*
X0129226Y0105740D01*
X0130678Y0104741D02*
X0124193Y0104741D01*
X0124710Y0102744D02*
X0130160Y0102744D01*
X0129012Y0101746D02*
X0125859Y0101746D01*
X0126486Y0100747D02*
X0128385Y0100747D01*
X0127971Y0099749D02*
X0126900Y0099749D01*
X0126904Y0098750D02*
X0127967Y0098750D01*
X0128054Y0097752D02*
X0126817Y0097752D01*
X0127361Y0096753D02*
X0128467Y0096753D01*
X0128359Y0095755D02*
X0129211Y0095755D01*
X0129358Y0094756D02*
X0130642Y0094756D01*
X0130356Y0093758D02*
X0134699Y0093758D01*
X0135698Y0092759D02*
X0131355Y0092759D01*
X0132353Y0091761D02*
X0136696Y0091761D01*
X0138435Y0092850D02*
X0161435Y0092850D01*
X0162435Y0093850D01*
X0170435Y0093850D01*
X0174435Y0089850D01*
X0238435Y0089850D01*
X0270435Y0057850D01*
X0286435Y0057850D01*
X0288435Y0055850D01*
X0288435Y0052850D01*
X0288435Y0051850D01*
X0278435Y0041850D01*
X0278435Y0037850D01*
X0268435Y0037850D02*
X0263435Y0042850D01*
X0263435Y0058850D01*
X0236435Y0085850D01*
X0176435Y0085850D01*
X0174435Y0083850D01*
X0156435Y0083850D01*
X0152435Y0087850D01*
X0134435Y0087850D01*
X0134435Y0084850D01*
X0134435Y0087850D02*
X0133435Y0087850D01*
X0122435Y0098850D01*
X0120160Y0102744D02*
X0119435Y0102744D01*
X0120157Y0103743D02*
X0153556Y0103743D01*
X0153351Y0104741D02*
X0146385Y0104741D01*
X0146325Y0104681D02*
X0146604Y0104960D01*
X0146802Y0105303D01*
X0146904Y0105684D01*
X0146904Y0108366D01*
X0142920Y0108366D01*
X0142920Y0104381D01*
X0145601Y0104381D01*
X0145983Y0104484D01*
X0146325Y0104681D01*
X0146904Y0105740D02*
X0152717Y0105740D01*
X0151719Y0106738D02*
X0146904Y0106738D01*
X0146904Y0107737D02*
X0150720Y0107737D01*
X0149722Y0108735D02*
X0142920Y0108735D01*
X0141951Y0108735D02*
X0136904Y0108735D01*
X0136904Y0109734D02*
X0137967Y0109734D01*
X0137967Y0110732D02*
X0136492Y0110732D01*
X0135874Y0111731D02*
X0137967Y0111731D01*
X0137967Y0107737D02*
X0136811Y0107737D01*
X0136397Y0106738D02*
X0137967Y0106738D01*
X0137967Y0105740D02*
X0135645Y0105740D01*
X0134193Y0104741D02*
X0138486Y0104741D01*
X0140160Y0102744D02*
X0134710Y0102744D01*
X0135859Y0101746D02*
X0139012Y0101746D01*
X0138385Y0100747D02*
X0136486Y0100747D01*
X0136900Y0099749D02*
X0137971Y0099749D01*
X0137967Y0098750D02*
X0136904Y0098750D01*
X0136817Y0097752D02*
X0138054Y0097752D01*
X0138467Y0096753D02*
X0137361Y0096753D01*
X0138359Y0095755D02*
X0139211Y0095755D01*
X0138435Y0092850D02*
X0132435Y0098850D01*
X0133352Y0090762D02*
X0160589Y0090762D01*
X0160315Y0089764D02*
X0153350Y0089764D01*
X0154349Y0088765D02*
X0164935Y0088765D01*
X0165935Y0088765D02*
X0172692Y0088765D01*
X0173607Y0087850D02*
X0169884Y0091573D01*
X0170254Y0090846D01*
X0170507Y0090068D01*
X0170621Y0089350D01*
X0165935Y0089350D01*
X0165935Y0088350D01*
X0170621Y0088350D01*
X0170507Y0087632D01*
X0170254Y0086854D01*
X0169883Y0086125D01*
X0169683Y0085850D01*
X0173607Y0085850D01*
X0175607Y0087850D01*
X0237264Y0087850D01*
X0238435Y0086678D01*
X0265435Y0059678D01*
X0265435Y0056169D01*
X0265904Y0056638D01*
X0267547Y0057318D01*
X0268138Y0057318D01*
X0237607Y0087850D01*
X0173607Y0087850D01*
X0174525Y0086768D02*
X0170211Y0086768D01*
X0170529Y0087767D02*
X0175524Y0087767D01*
X0171693Y0089764D02*
X0170555Y0089764D01*
X0170695Y0090762D02*
X0170282Y0090762D01*
X0173356Y0093758D02*
X0180351Y0093758D01*
X0180472Y0094756D02*
X0172358Y0094756D01*
X0171359Y0095755D02*
X0180978Y0095755D01*
X0181435Y0096753D02*
X0170195Y0096753D01*
X0170609Y0097752D02*
X0181435Y0097752D01*
X0181435Y0098750D02*
X0170635Y0098750D01*
X0170635Y0099749D02*
X0181435Y0099749D01*
X0181435Y0100747D02*
X0170278Y0100747D01*
X0169864Y0101746D02*
X0180711Y0101746D01*
X0183435Y0101850D02*
X0180435Y0104850D01*
X0178435Y0104850D01*
X0175556Y0103743D02*
X0167211Y0103743D01*
X0168895Y0102744D02*
X0176179Y0102744D01*
X0175351Y0104741D02*
X0159520Y0104741D01*
X0159405Y0105740D02*
X0175466Y0105740D01*
X0175962Y0106738D02*
X0158909Y0106738D01*
X0159380Y0108100D02*
X0157491Y0108100D01*
X0155745Y0108823D01*
X0154409Y0110159D01*
X0153685Y0111905D01*
X0153685Y0113795D01*
X0154409Y0115541D01*
X0155745Y0116877D01*
X0157491Y0117600D01*
X0159380Y0117600D01*
X0161126Y0116877D01*
X0162462Y0115541D01*
X0163185Y0113795D01*
X0163185Y0111905D01*
X0162462Y0110159D01*
X0161126Y0108823D01*
X0159380Y0108100D01*
X0160914Y0108735D02*
X0166692Y0108735D01*
X0165904Y0109062D02*
X0167547Y0108381D01*
X0169324Y0108381D01*
X0170967Y0109062D01*
X0172224Y0110319D01*
X0172904Y0111961D01*
X0172904Y0113739D01*
X0172224Y0115381D01*
X0170967Y0116638D01*
X0169324Y0117318D01*
X0167547Y0117318D01*
X0165904Y0116638D01*
X0164647Y0115381D01*
X0163967Y0113739D01*
X0163967Y0111961D01*
X0164647Y0110319D01*
X0165904Y0109062D01*
X0165232Y0109734D02*
X0162037Y0109734D01*
X0162700Y0110732D02*
X0164476Y0110732D01*
X0164062Y0111731D02*
X0163113Y0111731D01*
X0163185Y0112729D02*
X0163967Y0112729D01*
X0163967Y0113728D02*
X0163185Y0113728D01*
X0162799Y0114726D02*
X0164376Y0114726D01*
X0164991Y0115725D02*
X0162278Y0115725D01*
X0161279Y0116723D02*
X0166110Y0116723D01*
X0166897Y0120664D02*
X0163045Y0120664D01*
X0161895Y0121814D01*
X0164971Y0124890D01*
X0165395Y0125314D01*
X0168471Y0122239D01*
X0169621Y0123388D01*
X0169621Y0127241D01*
X0168471Y0128390D01*
X0165395Y0125314D01*
X0164971Y0125739D01*
X0168047Y0128815D01*
X0166897Y0129964D01*
X0163045Y0129964D01*
X0161895Y0128815D01*
X0164971Y0125739D01*
X0164547Y0125314D01*
X0164971Y0124890D01*
X0168047Y0121814D01*
X0166897Y0120664D01*
X0166950Y0120718D02*
X0231435Y0120718D01*
X0231435Y0121716D02*
X0184663Y0121716D01*
X0185303Y0122715D02*
X0231435Y0122715D01*
X0233435Y0122850D02*
X0238435Y0127850D01*
X0238435Y0133850D01*
X0215435Y0133850D01*
X0206435Y0142850D01*
X0198935Y0142850D01*
X0197435Y0145100D02*
X0200435Y0145100D01*
X0200435Y0140600D01*
X0197435Y0140600D01*
X0197435Y0145100D01*
X0197435Y0141599D02*
X0200435Y0141599D01*
X0200435Y0142598D02*
X0197435Y0142598D01*
X0197435Y0143597D02*
X0200435Y0143597D01*
X0200435Y0144596D02*
X0197435Y0144596D01*
X0193435Y0145100D02*
X0190435Y0145100D01*
X0193435Y0145100D02*
X0193435Y0140600D01*
X0190435Y0140600D01*
X0190435Y0145100D01*
X0190435Y0141599D02*
X0193435Y0141599D01*
X0193435Y0142598D02*
X0190435Y0142598D01*
X0190435Y0143597D02*
X0193435Y0143597D01*
X0193435Y0144596D02*
X0190435Y0144596D01*
X0191935Y0142850D02*
X0191935Y0139350D01*
X0194435Y0136850D01*
X0200435Y0136850D01*
X0198227Y0134697D02*
X0184964Y0134697D01*
X0184913Y0134596D02*
X0185220Y0135199D01*
X0185429Y0135843D01*
X0185526Y0136450D01*
X0178835Y0136450D01*
X0178835Y0132550D01*
X0181574Y0132550D01*
X0182242Y0132656D01*
X0182886Y0132865D01*
X0183489Y0133172D01*
X0184037Y0133570D01*
X0184515Y0134049D01*
X0184913Y0134596D01*
X0184165Y0133698D02*
X0212759Y0133698D01*
X0213757Y0132700D02*
X0182377Y0132700D01*
X0178835Y0132700D02*
X0178035Y0132700D01*
X0178035Y0132550D02*
X0178035Y0136450D01*
X0171345Y0136450D01*
X0171441Y0135843D01*
X0171650Y0135199D01*
X0171958Y0134596D01*
X0172356Y0134049D01*
X0172834Y0133570D01*
X0173382Y0133172D01*
X0173985Y0132865D01*
X0174628Y0132656D01*
X0175297Y0132550D01*
X0178035Y0132550D01*
X0178035Y0133698D02*
X0178835Y0133698D01*
X0178835Y0134697D02*
X0178035Y0134697D01*
X0178035Y0135695D02*
X0178835Y0135695D01*
X0178835Y0136450D02*
X0178035Y0136450D01*
X0178035Y0137250D01*
X0171345Y0137250D01*
X0171441Y0137857D01*
X0171650Y0138501D01*
X0171958Y0139104D01*
X0172356Y0139651D01*
X0172834Y0140130D01*
X0173382Y0140528D01*
X0173985Y0140835D01*
X0174628Y0141044D01*
X0175297Y0141150D01*
X0178035Y0141150D01*
X0178035Y0137250D01*
X0178835Y0137250D01*
X0178835Y0141150D01*
X0181574Y0141150D01*
X0182242Y0141044D01*
X0182886Y0140835D01*
X0183489Y0140528D01*
X0184037Y0140130D01*
X0184515Y0139651D01*
X0184913Y0139104D01*
X0185220Y0138501D01*
X0185429Y0137857D01*
X0185526Y0137250D01*
X0178835Y0137250D01*
X0178835Y0136450D01*
X0178835Y0136694D02*
X0191763Y0136694D01*
X0190765Y0137692D02*
X0185456Y0137692D01*
X0185123Y0138691D02*
X0189516Y0138691D01*
X0188518Y0139689D02*
X0184477Y0139689D01*
X0183175Y0140688D02*
X0188435Y0140688D01*
X0188435Y0141686D02*
X0154635Y0141686D01*
X0154635Y0140688D02*
X0173696Y0140688D01*
X0172393Y0139689D02*
X0163425Y0139689D01*
X0164423Y0138691D02*
X0171747Y0138691D01*
X0171415Y0137692D02*
X0165422Y0137692D01*
X0166420Y0136694D02*
X0178035Y0136694D01*
X0178035Y0137692D02*
X0178835Y0137692D01*
X0178835Y0138691D02*
X0178035Y0138691D01*
X0178035Y0139689D02*
X0178835Y0139689D01*
X0178835Y0140688D02*
X0178035Y0140688D01*
X0182416Y0142685D02*
X0188435Y0142685D01*
X0185381Y0135695D02*
X0192762Y0135695D01*
X0202644Y0134697D02*
X0211760Y0134697D01*
X0210762Y0135695D02*
X0203295Y0135695D01*
X0203520Y0136694D02*
X0209763Y0136694D01*
X0208765Y0137692D02*
X0203425Y0137692D01*
X0202956Y0138691D02*
X0207766Y0138691D01*
X0206768Y0139689D02*
X0202353Y0139689D01*
X0202435Y0140688D02*
X0205769Y0140688D01*
X0202685Y0149850D02*
X0202685Y0152850D01*
X0202685Y0149850D02*
X0198185Y0149850D01*
X0198185Y0152850D01*
X0202685Y0152850D01*
X0202685Y0150849D02*
X0198185Y0150849D01*
X0198185Y0151848D02*
X0202685Y0151848D01*
X0202685Y0152847D02*
X0198185Y0152847D01*
X0199802Y0151350D02*
X0200435Y0151350D01*
X0190069Y0151350D01*
X0189435Y0150716D01*
X0189435Y0158850D02*
X0189435Y0168850D01*
X0195435Y0174850D01*
X0195435Y0177850D01*
X0189569Y0158984D02*
X0189435Y0158850D01*
X0202685Y0159850D02*
X0202685Y0156850D01*
X0198185Y0156850D01*
X0198185Y0159850D01*
X0202685Y0159850D01*
X0202685Y0157849D02*
X0198185Y0157849D01*
X0198185Y0158848D02*
X0202685Y0158848D01*
X0202685Y0159847D02*
X0198185Y0159847D01*
X0174455Y0142685D02*
X0154304Y0142685D01*
X0153890Y0143683D02*
X0167602Y0143683D01*
X0166604Y0144682D02*
X0152958Y0144682D01*
X0154583Y0139689D02*
X0155446Y0139689D01*
X0154448Y0138691D02*
X0154169Y0138691D01*
X0156435Y0137850D02*
X0162435Y0137850D01*
X0176435Y0123850D01*
X0182435Y0123850D01*
X0181277Y0126709D02*
X0176405Y0126709D01*
X0175407Y0127707D02*
X0213335Y0127707D01*
X0213335Y0128706D02*
X0174408Y0128706D01*
X0173410Y0129704D02*
X0213683Y0129704D01*
X0214097Y0130703D02*
X0172411Y0130703D01*
X0171413Y0131701D02*
X0215074Y0131701D01*
X0213388Y0126709D02*
X0183594Y0126709D01*
X0184937Y0125710D02*
X0213802Y0125710D01*
X0214361Y0124712D02*
X0185417Y0124712D01*
X0185520Y0123713D02*
X0215360Y0123713D01*
X0221511Y0123713D02*
X0225360Y0123713D01*
X0224361Y0124712D02*
X0222509Y0124712D01*
X0223069Y0125710D02*
X0223802Y0125710D01*
X0226110Y0116723D02*
X0220761Y0116723D01*
X0220967Y0116638D02*
X0219324Y0117318D01*
X0217547Y0117318D01*
X0215904Y0116638D01*
X0214647Y0115381D01*
X0213967Y0113739D01*
X0213967Y0111961D01*
X0214647Y0110319D01*
X0215904Y0109062D01*
X0217547Y0108381D01*
X0219324Y0108381D01*
X0220967Y0109062D01*
X0222224Y0110319D01*
X0222904Y0111961D01*
X0222904Y0113739D01*
X0222224Y0115381D01*
X0220967Y0116638D01*
X0221880Y0115725D02*
X0224991Y0115725D01*
X0224376Y0114726D02*
X0222495Y0114726D01*
X0222904Y0113728D02*
X0223967Y0113728D01*
X0223967Y0112729D02*
X0222904Y0112729D01*
X0222809Y0111731D02*
X0224062Y0111731D01*
X0224476Y0110732D02*
X0222395Y0110732D01*
X0221639Y0109734D02*
X0225232Y0109734D01*
X0226692Y0108735D02*
X0220179Y0108735D01*
X0216692Y0108735D02*
X0210179Y0108735D01*
X0210967Y0109062D02*
X0212224Y0110319D01*
X0212904Y0111961D01*
X0212904Y0113739D01*
X0212224Y0115381D01*
X0210967Y0116638D01*
X0209324Y0117318D01*
X0207547Y0117318D01*
X0205904Y0116638D01*
X0204647Y0115381D01*
X0203967Y0113739D01*
X0203967Y0111961D01*
X0204647Y0110319D01*
X0205904Y0109062D01*
X0207547Y0108381D01*
X0209324Y0108381D01*
X0210967Y0109062D01*
X0211639Y0109734D02*
X0215232Y0109734D01*
X0214476Y0110732D02*
X0212395Y0110732D01*
X0212809Y0111731D02*
X0214062Y0111731D01*
X0213967Y0112729D02*
X0212904Y0112729D01*
X0212904Y0113728D02*
X0213967Y0113728D01*
X0214376Y0114726D02*
X0212495Y0114726D01*
X0211880Y0115725D02*
X0214991Y0115725D01*
X0216110Y0116723D02*
X0210761Y0116723D01*
X0206110Y0116723D02*
X0200761Y0116723D01*
X0201880Y0115725D02*
X0204991Y0115725D01*
X0204376Y0114726D02*
X0202495Y0114726D01*
X0202904Y0113728D02*
X0203967Y0113728D01*
X0203967Y0112729D02*
X0202904Y0112729D01*
X0202809Y0111731D02*
X0204062Y0111731D01*
X0204476Y0110732D02*
X0202395Y0110732D01*
X0201639Y0109734D02*
X0205232Y0109734D01*
X0206692Y0108735D02*
X0200735Y0108735D01*
X0200735Y0107737D02*
X0231435Y0107737D01*
X0231435Y0108735D02*
X0230179Y0108735D01*
X0231435Y0106738D02*
X0200576Y0106738D01*
X0199578Y0105740D02*
X0231435Y0105740D01*
X0231435Y0104741D02*
X0198579Y0104741D01*
X0197581Y0103743D02*
X0231435Y0103743D01*
X0231435Y0102744D02*
X0196582Y0102744D01*
X0195735Y0101746D02*
X0231435Y0101746D01*
X0231435Y0100747D02*
X0195735Y0100747D01*
X0195735Y0099749D02*
X0231435Y0099749D01*
X0231435Y0098750D02*
X0195735Y0098750D01*
X0195735Y0097752D02*
X0231435Y0097752D01*
X0230698Y0096753D02*
X0195894Y0096753D01*
X0196399Y0095755D02*
X0230259Y0095755D01*
X0230154Y0094756D02*
X0196520Y0094756D01*
X0196321Y0093758D02*
X0230336Y0093758D01*
X0230886Y0092759D02*
X0195706Y0092759D01*
X0191164Y0092759D02*
X0186322Y0092759D01*
X0186520Y0093758D02*
X0190549Y0093758D01*
X0190351Y0094756D02*
X0186398Y0094756D01*
X0185892Y0095755D02*
X0190472Y0095755D01*
X0190977Y0096753D02*
X0185435Y0096753D01*
X0185435Y0097752D02*
X0191135Y0097752D01*
X0191135Y0098750D02*
X0185435Y0098750D01*
X0185435Y0099749D02*
X0191135Y0099749D01*
X0191135Y0100747D02*
X0185435Y0100747D01*
X0185435Y0101746D02*
X0191135Y0101746D01*
X0191135Y0102744D02*
X0185369Y0102744D01*
X0184371Y0103743D02*
X0191135Y0103743D01*
X0192074Y0104741D02*
X0183372Y0104741D01*
X0182374Y0105740D02*
X0193073Y0105740D01*
X0194071Y0106738D02*
X0181375Y0106738D01*
X0179525Y0107737D02*
X0195070Y0107737D01*
X0196068Y0108735D02*
X0190179Y0108735D01*
X0190967Y0109062D02*
X0192224Y0110319D01*
X0192904Y0111961D01*
X0192904Y0113739D01*
X0192224Y0115381D01*
X0190967Y0116638D01*
X0189324Y0117318D01*
X0187547Y0117318D01*
X0185904Y0116638D01*
X0184647Y0115381D01*
X0183967Y0113739D01*
X0183967Y0111961D01*
X0184647Y0110319D01*
X0185904Y0109062D01*
X0187547Y0108381D01*
X0189324Y0108381D01*
X0190967Y0109062D01*
X0191639Y0109734D02*
X0195232Y0109734D01*
X0194476Y0110732D02*
X0192395Y0110732D01*
X0192809Y0111731D02*
X0194062Y0111731D01*
X0193967Y0112729D02*
X0192904Y0112729D01*
X0192904Y0113728D02*
X0193967Y0113728D01*
X0194376Y0114726D02*
X0192495Y0114726D01*
X0191880Y0115725D02*
X0194991Y0115725D01*
X0196110Y0116723D02*
X0190761Y0116723D01*
X0186110Y0116723D02*
X0180676Y0116723D01*
X0180777Y0116672D02*
X0180151Y0116991D01*
X0179482Y0117208D01*
X0178920Y0117297D01*
X0178920Y0113334D01*
X0182883Y0113334D01*
X0182794Y0113896D01*
X0182577Y0114565D01*
X0182257Y0115192D01*
X0181844Y0115761D01*
X0181346Y0116258D01*
X0180777Y0116672D01*
X0181870Y0115725D02*
X0184991Y0115725D01*
X0184376Y0114726D02*
X0182494Y0114726D01*
X0182821Y0113728D02*
X0183967Y0113728D01*
X0183967Y0112729D02*
X0178920Y0112729D01*
X0178920Y0112366D02*
X0178920Y0113334D01*
X0177951Y0113334D01*
X0177951Y0112366D01*
X0173988Y0112366D01*
X0174077Y0111804D01*
X0174294Y0111135D01*
X0174614Y0110508D01*
X0175027Y0109939D01*
X0175524Y0109442D01*
X0176093Y0109028D01*
X0176720Y0108709D01*
X0177389Y0108492D01*
X0177951Y0108402D01*
X0177951Y0112366D01*
X0178920Y0112366D01*
X0182883Y0112366D01*
X0182794Y0111804D01*
X0182577Y0111135D01*
X0182257Y0110508D01*
X0181844Y0109939D01*
X0181346Y0109442D01*
X0180777Y0109028D01*
X0180151Y0108709D01*
X0179482Y0108492D01*
X0178920Y0108402D01*
X0178920Y0112366D01*
X0178920Y0111731D02*
X0177951Y0111731D01*
X0177951Y0112729D02*
X0172904Y0112729D01*
X0172904Y0113728D02*
X0174050Y0113728D01*
X0174077Y0113896D02*
X0173988Y0113334D01*
X0177951Y0113334D01*
X0177951Y0117297D01*
X0177389Y0117208D01*
X0176720Y0116991D01*
X0176093Y0116672D01*
X0175524Y0116258D01*
X0175027Y0115761D01*
X0174614Y0115192D01*
X0174294Y0114565D01*
X0174077Y0113896D01*
X0174376Y0114726D02*
X0172495Y0114726D01*
X0171880Y0115725D02*
X0175001Y0115725D01*
X0176195Y0116723D02*
X0170761Y0116723D01*
X0172809Y0111731D02*
X0174101Y0111731D01*
X0174499Y0110732D02*
X0172395Y0110732D01*
X0171639Y0109734D02*
X0175232Y0109734D01*
X0176668Y0108735D02*
X0170179Y0108735D01*
X0177345Y0107737D02*
X0157525Y0107737D01*
X0155957Y0108735D02*
X0155378Y0108735D01*
X0154834Y0109734D02*
X0154380Y0109734D01*
X0154171Y0110732D02*
X0153381Y0110732D01*
X0153758Y0111731D02*
X0152383Y0111731D01*
X0151384Y0112729D02*
X0153685Y0112729D01*
X0153685Y0113728D02*
X0150386Y0113728D01*
X0149387Y0114726D02*
X0154071Y0114726D01*
X0154593Y0115725D02*
X0148389Y0115725D01*
X0147435Y0113850D02*
X0156435Y0104850D01*
X0159315Y0103743D02*
X0163659Y0103743D01*
X0161976Y0102744D02*
X0158691Y0102744D01*
X0161006Y0101746D02*
X0145859Y0101746D01*
X0146486Y0100747D02*
X0160593Y0100747D01*
X0160235Y0099749D02*
X0146900Y0099749D01*
X0146904Y0098750D02*
X0160235Y0098750D01*
X0160262Y0097752D02*
X0146817Y0097752D01*
X0146404Y0096753D02*
X0160675Y0096753D01*
X0161177Y0095755D02*
X0145660Y0095755D01*
X0144710Y0102744D02*
X0154179Y0102744D01*
X0148723Y0109734D02*
X0146904Y0109734D01*
X0146904Y0110732D02*
X0147725Y0110732D01*
X0147435Y0113850D02*
X0128435Y0113850D01*
X0125335Y0116850D01*
X0124202Y0119719D02*
X0089135Y0119719D01*
X0089135Y0120718D02*
X0134435Y0120718D01*
X0134435Y0121716D02*
X0089135Y0121716D01*
X0089135Y0122715D02*
X0134435Y0122715D01*
X0134435Y0123713D02*
X0089135Y0123713D01*
X0089135Y0124712D02*
X0134435Y0124712D01*
X0134435Y0125710D02*
X0089135Y0125710D01*
X0089135Y0126709D02*
X0134435Y0126709D01*
X0134435Y0127707D02*
X0089135Y0127707D01*
X0089135Y0128706D02*
X0134435Y0128706D01*
X0134435Y0129704D02*
X0100450Y0129704D01*
X0100904Y0130703D02*
X0107507Y0130703D01*
X0105439Y0132846D02*
X0108135Y0135550D01*
X0109435Y0135350D01*
X0106200Y0138691D02*
X0103185Y0138691D01*
X0103185Y0138513D02*
X0103185Y0139187D01*
X0106022Y0139187D01*
X0106022Y0140687D01*
X0107109Y0139600D01*
X0106022Y0138513D01*
X0106022Y0138513D01*
X0103185Y0138513D01*
X0102512Y0138691D02*
X0092359Y0138691D01*
X0092359Y0139689D02*
X0091685Y0139689D01*
X0091685Y0140688D02*
X0092359Y0140688D01*
X0092359Y0141686D02*
X0091685Y0141686D01*
X0091685Y0142685D02*
X0092359Y0142685D01*
X0092359Y0143683D02*
X0091685Y0143683D01*
X0090086Y0144682D02*
X0093967Y0144682D01*
X0095195Y0140688D02*
X0099676Y0140688D01*
X0099676Y0139689D02*
X0095195Y0139689D01*
X0095195Y0137692D02*
X0099676Y0137692D01*
X0099676Y0136694D02*
X0095195Y0136694D01*
X0092359Y0136694D02*
X0091685Y0136694D01*
X0091685Y0137692D02*
X0092359Y0137692D01*
X0092359Y0135695D02*
X0091685Y0135695D01*
X0091685Y0134697D02*
X0092359Y0134697D01*
X0092359Y0133698D02*
X0091685Y0133698D01*
X0093967Y0132700D02*
X0089135Y0132700D01*
X0089135Y0131701D02*
X0093967Y0131701D01*
X0093967Y0130703D02*
X0089135Y0130703D01*
X0089135Y0129704D02*
X0094421Y0129704D01*
X0097435Y0132846D02*
X0105439Y0132846D01*
X0111364Y0130703D02*
X0134460Y0130703D01*
X0135458Y0131701D02*
X0112363Y0131701D01*
X0113361Y0132700D02*
X0136457Y0132700D01*
X0137435Y0133678D02*
X0137435Y0133678D01*
X0137455Y0133698D02*
X0114085Y0133698D01*
X0114085Y0134697D02*
X0138454Y0134697D01*
X0138741Y0135695D02*
X0130579Y0135695D01*
X0132633Y0136694D02*
X0136309Y0136694D01*
X0135302Y0137692D02*
X0133631Y0137692D01*
X0134169Y0138691D02*
X0134699Y0138691D01*
X0138935Y0138691D02*
X0139935Y0138691D01*
X0139935Y0139689D02*
X0138935Y0139689D01*
X0138935Y0137692D02*
X0139935Y0137692D01*
X0139935Y0136694D02*
X0138935Y0136694D01*
X0138935Y0135695D02*
X0139935Y0135695D01*
X0140130Y0135695D02*
X0148292Y0135695D01*
X0146238Y0136694D02*
X0142561Y0136694D01*
X0143569Y0137692D02*
X0145239Y0137692D01*
X0144701Y0138691D02*
X0144171Y0138691D01*
X0150579Y0135695D02*
X0151452Y0135695D01*
X0151435Y0132850D02*
X0156435Y0137850D01*
X0161166Y0135695D02*
X0161762Y0135695D01*
X0161976Y0134697D02*
X0162760Y0134697D01*
X0162389Y0133698D02*
X0163759Y0133698D01*
X0164757Y0132700D02*
X0162550Y0132700D01*
X0162550Y0131701D02*
X0165756Y0131701D01*
X0166754Y0130703D02*
X0162236Y0130703D01*
X0161795Y0129704D02*
X0162785Y0129704D01*
X0162004Y0128706D02*
X0160796Y0128706D01*
X0161471Y0128390D02*
X0160321Y0127241D01*
X0160321Y0123388D01*
X0161471Y0122239D01*
X0164547Y0125314D01*
X0161471Y0128390D01*
X0162154Y0127707D02*
X0163003Y0127707D01*
X0163152Y0126709D02*
X0164001Y0126709D01*
X0164151Y0125710D02*
X0164942Y0125710D01*
X0165000Y0125710D02*
X0165791Y0125710D01*
X0165941Y0126709D02*
X0166789Y0126709D01*
X0166939Y0127707D02*
X0167788Y0127707D01*
X0167938Y0128706D02*
X0168751Y0128706D01*
X0169154Y0127707D02*
X0169750Y0127707D01*
X0169621Y0126709D02*
X0170748Y0126709D01*
X0171747Y0125710D02*
X0169621Y0125710D01*
X0169621Y0124712D02*
X0172745Y0124712D01*
X0173744Y0123713D02*
X0169621Y0123713D01*
X0168947Y0122715D02*
X0174742Y0122715D01*
X0180208Y0121716D02*
X0167949Y0121716D01*
X0167995Y0122715D02*
X0167147Y0122715D01*
X0166997Y0123713D02*
X0166148Y0123713D01*
X0165998Y0124712D02*
X0165150Y0124712D01*
X0164792Y0124712D02*
X0163944Y0124712D01*
X0163794Y0123713D02*
X0162945Y0123713D01*
X0162795Y0122715D02*
X0161947Y0122715D01*
X0160995Y0122715D02*
X0152235Y0122715D01*
X0152235Y0123713D02*
X0160321Y0123713D01*
X0160321Y0124712D02*
X0152235Y0124712D01*
X0151949Y0125710D02*
X0160321Y0125710D01*
X0160321Y0126709D02*
X0152547Y0126709D01*
X0153545Y0127707D02*
X0160787Y0127707D01*
X0155004Y0128706D02*
X0154544Y0128706D01*
X0150183Y0130850D02*
X0147483Y0128150D01*
X0146135Y0126803D01*
X0146135Y0126303D01*
X0144995Y0126303D01*
X0144435Y0125743D01*
X0144175Y0126003D01*
X0143833Y0126201D01*
X0143452Y0126303D01*
X0141195Y0126303D01*
X0141195Y0122350D01*
X0140195Y0122350D01*
X0140195Y0126303D01*
X0138435Y0126303D01*
X0138435Y0129022D01*
X0140264Y0130850D01*
X0150183Y0130850D01*
X0150035Y0130703D02*
X0140116Y0130703D01*
X0139118Y0129704D02*
X0149037Y0129704D01*
X0148038Y0128706D02*
X0138435Y0128706D01*
X0138435Y0127707D02*
X0147040Y0127707D01*
X0146135Y0126709D02*
X0138435Y0126709D01*
X0140195Y0125710D02*
X0141195Y0125710D01*
X0141195Y0124712D02*
X0140195Y0124712D01*
X0140195Y0123713D02*
X0141195Y0123713D01*
X0141195Y0122715D02*
X0140195Y0122715D01*
X0140195Y0120718D02*
X0141195Y0120718D01*
X0141195Y0119719D02*
X0140195Y0119719D01*
X0140195Y0118720D02*
X0141195Y0118720D01*
X0141195Y0117722D02*
X0140195Y0117722D01*
X0139520Y0116723D02*
X0155591Y0116723D01*
X0152235Y0118720D02*
X0231435Y0118720D01*
X0231435Y0117722D02*
X0151681Y0117722D01*
X0152235Y0119719D02*
X0231435Y0119719D01*
X0231435Y0116723D02*
X0230761Y0116723D01*
X0233435Y0122850D02*
X0233435Y0094850D01*
X0237347Y0087767D02*
X0237690Y0087767D01*
X0238346Y0086768D02*
X0238689Y0086768D01*
X0239344Y0085770D02*
X0239687Y0085770D01*
X0240343Y0084771D02*
X0240686Y0084771D01*
X0241341Y0083773D02*
X0241684Y0083773D01*
X0242340Y0082774D02*
X0242683Y0082774D01*
X0243338Y0081776D02*
X0243681Y0081776D01*
X0244337Y0080777D02*
X0244680Y0080777D01*
X0245335Y0079779D02*
X0245678Y0079779D01*
X0246334Y0078780D02*
X0246677Y0078780D01*
X0247332Y0077782D02*
X0247675Y0077782D01*
X0248331Y0076783D02*
X0248674Y0076783D01*
X0249329Y0075784D02*
X0249672Y0075784D01*
X0250328Y0074786D02*
X0250671Y0074786D01*
X0251326Y0073787D02*
X0251669Y0073787D01*
X0252325Y0072789D02*
X0252668Y0072789D01*
X0253323Y0071790D02*
X0253666Y0071790D01*
X0254322Y0070792D02*
X0254665Y0070792D01*
X0255320Y0069793D02*
X0255664Y0069793D01*
X0256319Y0068795D02*
X0256662Y0068795D01*
X0257317Y0067796D02*
X0257661Y0067796D01*
X0258316Y0066798D02*
X0258659Y0066798D01*
X0259314Y0065799D02*
X0259658Y0065799D01*
X0260313Y0064801D02*
X0260656Y0064801D01*
X0261311Y0063802D02*
X0261655Y0063802D01*
X0262310Y0062804D02*
X0262653Y0062804D01*
X0263308Y0061805D02*
X0263652Y0061805D01*
X0264307Y0060807D02*
X0264650Y0060807D01*
X0265305Y0059808D02*
X0265649Y0059808D01*
X0265435Y0058810D02*
X0266647Y0058810D01*
X0267646Y0057811D02*
X0265435Y0057811D01*
X0265435Y0056813D02*
X0266326Y0056813D01*
X0273435Y0061850D02*
X0273435Y0121850D01*
X0273435Y0131850D01*
X0277435Y0135850D01*
X0295435Y0135850D01*
X0302435Y0142850D01*
X0305935Y0142850D01*
X0307435Y0140600D02*
X0304435Y0140600D01*
X0304435Y0145100D01*
X0307435Y0145100D01*
X0307435Y0140600D01*
X0307435Y0141599D02*
X0304435Y0141599D01*
X0304435Y0142598D02*
X0307435Y0142598D01*
X0307435Y0143597D02*
X0304435Y0143597D01*
X0304435Y0144596D02*
X0307435Y0144596D01*
X0309435Y0142850D02*
X0309435Y0142850D01*
X0309435Y0139772D01*
X0310607Y0138600D01*
X0310935Y0138600D01*
X0310935Y0136522D01*
X0311351Y0136106D01*
X0311351Y0135236D01*
X0311821Y0134103D01*
X0312688Y0133235D01*
X0313822Y0132766D01*
X0315049Y0132766D01*
X0316182Y0133235D01*
X0317050Y0134103D01*
X0317520Y0135236D01*
X0317520Y0136463D01*
X0317050Y0137597D01*
X0316182Y0138465D01*
X0315437Y0138773D01*
X0316435Y0139772D01*
X0316435Y0142850D01*
X0321935Y0142850D01*
X0321935Y0116067D01*
X0321126Y0116877D01*
X0319380Y0117600D01*
X0317491Y0117600D01*
X0315745Y0116877D01*
X0314409Y0115541D01*
X0313685Y0113795D01*
X0313685Y0111905D01*
X0314409Y0110159D01*
X0315745Y0108823D01*
X0317491Y0108100D01*
X0319380Y0108100D01*
X0321126Y0108823D01*
X0321935Y0109633D01*
X0321935Y0056067D01*
X0321126Y0056877D01*
X0319380Y0057600D01*
X0317491Y0057600D01*
X0315745Y0056877D01*
X0314409Y0055541D01*
X0313685Y0053795D01*
X0313685Y0051905D01*
X0314409Y0050159D01*
X0315745Y0048823D01*
X0317491Y0048100D01*
X0319380Y0048100D01*
X0321126Y0048823D01*
X0321935Y0049633D01*
X0321935Y0044380D01*
X0319853Y0046462D01*
X0316987Y0047649D01*
X0313884Y0047649D01*
X0311017Y0046462D01*
X0308824Y0044268D01*
X0307636Y0041401D01*
X0307636Y0038299D01*
X0308824Y0035432D01*
X0310906Y0033350D01*
X0290898Y0033350D01*
X0291324Y0033526D01*
X0292759Y0034961D01*
X0293535Y0036836D01*
X0293535Y0038864D01*
X0293291Y0039453D01*
X0294388Y0040550D01*
X0295351Y0041513D01*
X0295351Y0041236D01*
X0295821Y0040103D01*
X0296688Y0039235D01*
X0297822Y0038766D01*
X0299049Y0038766D01*
X0300182Y0039235D01*
X0301050Y0040103D01*
X0301520Y0041236D01*
X0301520Y0042463D01*
X0301050Y0043597D01*
X0300435Y0044212D01*
X0300435Y0048842D01*
X0300967Y0049062D01*
X0302224Y0050319D01*
X0302904Y0051961D01*
X0302904Y0053739D01*
X0302224Y0055381D01*
X0300967Y0056638D01*
X0299324Y0057318D01*
X0297547Y0057318D01*
X0295904Y0056638D01*
X0295735Y0056469D01*
X0295735Y0096788D01*
X0296050Y0097103D01*
X0296520Y0098236D01*
X0296520Y0098682D01*
X0299388Y0101550D01*
X0300735Y0102897D01*
X0300735Y0108966D01*
X0300967Y0109062D01*
X0302224Y0110319D01*
X0302904Y0111961D01*
X0302904Y0113739D01*
X0302224Y0115381D01*
X0300967Y0116638D01*
X0299324Y0117318D01*
X0297547Y0117318D01*
X0295904Y0116638D01*
X0294647Y0115381D01*
X0293967Y0113739D01*
X0293967Y0111961D01*
X0294647Y0110319D01*
X0295904Y0109062D01*
X0296135Y0108966D01*
X0296135Y0104803D01*
X0293267Y0101934D01*
X0292822Y0101934D01*
X0291688Y0101465D01*
X0290821Y0100597D01*
X0290351Y0099463D01*
X0290351Y0098236D01*
X0290821Y0097103D01*
X0291135Y0096788D01*
X0291135Y0056469D01*
X0290967Y0056638D01*
X0290128Y0056985D01*
X0289264Y0057850D01*
X0287264Y0059850D01*
X0275797Y0059850D01*
X0276050Y0060103D01*
X0276520Y0061236D01*
X0276520Y0062463D01*
X0276050Y0063597D01*
X0275435Y0064212D01*
X0275435Y0109531D01*
X0275904Y0109062D01*
X0277547Y0108381D01*
X0279324Y0108381D01*
X0280967Y0109062D01*
X0282224Y0110319D01*
X0282904Y0111961D01*
X0282904Y0113739D01*
X0282224Y0115381D01*
X0280967Y0116638D01*
X0279324Y0117318D01*
X0277547Y0117318D01*
X0275904Y0116638D01*
X0275435Y0116169D01*
X0275435Y0123726D01*
X0275762Y0123488D01*
X0276478Y0123124D01*
X0277241Y0122876D01*
X0277935Y0122766D01*
X0277935Y0127350D01*
X0278935Y0127350D01*
X0278935Y0122766D01*
X0279630Y0122876D01*
X0280393Y0123124D01*
X0281108Y0123488D01*
X0281758Y0123960D01*
X0282325Y0124528D01*
X0282797Y0125177D01*
X0283162Y0125892D01*
X0283410Y0126656D01*
X0284112Y0124961D01*
X0285546Y0123526D01*
X0287421Y0122750D01*
X0289450Y0122750D01*
X0291324Y0123526D01*
X0292759Y0124961D01*
X0293535Y0126836D01*
X0293535Y0128864D01*
X0292759Y0130739D01*
X0291324Y0132174D01*
X0289450Y0132950D01*
X0287421Y0132950D01*
X0285546Y0132174D01*
X0284112Y0130739D01*
X0283410Y0129044D01*
X0283410Y0129044D01*
X0283162Y0129808D01*
X0282797Y0130523D01*
X0282325Y0131172D01*
X0281758Y0131740D01*
X0281108Y0132212D01*
X0280393Y0132576D01*
X0279630Y0132824D01*
X0278935Y0132934D01*
X0278935Y0128350D01*
X0277935Y0128350D01*
X0277935Y0132934D01*
X0277241Y0132824D01*
X0277237Y0132823D01*
X0278264Y0133850D01*
X0296264Y0133850D01*
X0302435Y0140022D01*
X0302435Y0139772D01*
X0303607Y0138600D01*
X0308264Y0138600D01*
X0309435Y0139772D01*
X0309435Y0142850D01*
X0309435Y0142685D02*
X0309435Y0142685D01*
X0309435Y0141686D02*
X0309435Y0141686D01*
X0309435Y0140688D02*
X0309435Y0140688D01*
X0309353Y0139689D02*
X0309518Y0139689D01*
X0310516Y0138691D02*
X0308355Y0138691D01*
X0310935Y0137692D02*
X0300106Y0137692D01*
X0299107Y0136694D02*
X0310935Y0136694D01*
X0311351Y0135695D02*
X0298109Y0135695D01*
X0297110Y0134697D02*
X0311575Y0134697D01*
X0312225Y0133698D02*
X0278112Y0133698D01*
X0277935Y0132700D02*
X0278935Y0132700D01*
X0278935Y0131701D02*
X0277935Y0131701D01*
X0277935Y0130703D02*
X0278935Y0130703D01*
X0278935Y0129704D02*
X0277935Y0129704D01*
X0277935Y0128706D02*
X0278935Y0128706D01*
X0278935Y0126709D02*
X0277935Y0126709D01*
X0277935Y0125710D02*
X0278935Y0125710D01*
X0278935Y0124712D02*
X0277935Y0124712D01*
X0277935Y0123713D02*
X0278935Y0123713D01*
X0281418Y0123713D02*
X0285360Y0123713D01*
X0284361Y0124712D02*
X0282459Y0124712D01*
X0283069Y0125710D02*
X0283802Y0125710D01*
X0283410Y0126656D02*
X0283410Y0126656D01*
X0283195Y0129704D02*
X0283683Y0129704D01*
X0284097Y0130703D02*
X0282667Y0130703D01*
X0281797Y0131701D02*
X0285074Y0131701D01*
X0286817Y0132700D02*
X0280014Y0132700D01*
X0290054Y0132700D02*
X0321935Y0132700D01*
X0321935Y0133698D02*
X0316645Y0133698D01*
X0317296Y0134697D02*
X0321935Y0134697D01*
X0321935Y0135695D02*
X0317520Y0135695D01*
X0317424Y0136694D02*
X0321935Y0136694D01*
X0321935Y0137692D02*
X0316955Y0137692D01*
X0315637Y0138691D02*
X0321935Y0138691D01*
X0321935Y0139689D02*
X0316353Y0139689D01*
X0316435Y0140688D02*
X0321935Y0140688D01*
X0321935Y0141686D02*
X0316435Y0141686D01*
X0316435Y0142685D02*
X0321935Y0142685D01*
X0312935Y0142850D02*
X0312935Y0137350D01*
X0314435Y0135850D01*
X0321935Y0131701D02*
X0291797Y0131701D01*
X0292774Y0130703D02*
X0321935Y0130703D01*
X0321935Y0129704D02*
X0293188Y0129704D01*
X0293535Y0128706D02*
X0321935Y0128706D01*
X0321935Y0127707D02*
X0293535Y0127707D01*
X0293483Y0126709D02*
X0321935Y0126709D01*
X0321935Y0125710D02*
X0293069Y0125710D01*
X0292509Y0124712D02*
X0321935Y0124712D01*
X0321935Y0123713D02*
X0291511Y0123713D01*
X0289324Y0117318D02*
X0287547Y0117318D01*
X0285904Y0116638D01*
X0284647Y0115381D01*
X0283967Y0113739D01*
X0283967Y0111961D01*
X0284647Y0110319D01*
X0285904Y0109062D01*
X0287547Y0108381D01*
X0289324Y0108381D01*
X0290967Y0109062D01*
X0292224Y0110319D01*
X0292904Y0111961D01*
X0292904Y0113739D01*
X0292224Y0115381D01*
X0290967Y0116638D01*
X0289324Y0117318D01*
X0290761Y0116723D02*
X0296110Y0116723D01*
X0294991Y0115725D02*
X0291880Y0115725D01*
X0292495Y0114726D02*
X0294376Y0114726D01*
X0293967Y0113728D02*
X0292904Y0113728D01*
X0292904Y0112729D02*
X0293967Y0112729D01*
X0294062Y0111731D02*
X0292809Y0111731D01*
X0292395Y0110732D02*
X0294476Y0110732D01*
X0295232Y0109734D02*
X0291639Y0109734D01*
X0290179Y0108735D02*
X0296135Y0108735D01*
X0296135Y0107737D02*
X0275435Y0107737D01*
X0275435Y0108735D02*
X0276692Y0108735D01*
X0275435Y0106738D02*
X0296135Y0106738D01*
X0296135Y0105740D02*
X0275435Y0105740D01*
X0275435Y0104741D02*
X0296074Y0104741D01*
X0295076Y0103743D02*
X0275435Y0103743D01*
X0275435Y0102744D02*
X0294077Y0102744D01*
X0292367Y0101746D02*
X0275435Y0101746D01*
X0275435Y0100747D02*
X0290971Y0100747D01*
X0290469Y0099749D02*
X0275435Y0099749D01*
X0275435Y0098750D02*
X0290351Y0098750D01*
X0290552Y0097752D02*
X0275435Y0097752D01*
X0275435Y0096753D02*
X0291135Y0096753D01*
X0291135Y0095755D02*
X0275435Y0095755D01*
X0275435Y0094756D02*
X0291135Y0094756D01*
X0291135Y0093758D02*
X0275435Y0093758D01*
X0275435Y0092759D02*
X0291135Y0092759D01*
X0291135Y0091761D02*
X0275435Y0091761D01*
X0275435Y0090762D02*
X0291135Y0090762D01*
X0291135Y0089764D02*
X0275435Y0089764D01*
X0275435Y0088765D02*
X0291135Y0088765D01*
X0291135Y0087767D02*
X0275435Y0087767D01*
X0275435Y0086768D02*
X0291135Y0086768D01*
X0291135Y0085770D02*
X0275435Y0085770D01*
X0275435Y0084771D02*
X0291135Y0084771D01*
X0291135Y0083773D02*
X0275435Y0083773D01*
X0275435Y0082774D02*
X0291135Y0082774D01*
X0291135Y0081776D02*
X0275435Y0081776D01*
X0275435Y0080777D02*
X0291135Y0080777D01*
X0291135Y0079779D02*
X0275435Y0079779D01*
X0275435Y0078780D02*
X0291135Y0078780D01*
X0291135Y0077782D02*
X0275435Y0077782D01*
X0275435Y0076783D02*
X0291135Y0076783D01*
X0291135Y0075784D02*
X0275435Y0075784D01*
X0275435Y0074786D02*
X0291135Y0074786D01*
X0291135Y0073787D02*
X0275435Y0073787D01*
X0275435Y0072789D02*
X0291135Y0072789D01*
X0291135Y0071790D02*
X0275435Y0071790D01*
X0275435Y0070792D02*
X0291135Y0070792D01*
X0291135Y0069793D02*
X0275435Y0069793D01*
X0275435Y0068795D02*
X0291135Y0068795D01*
X0291135Y0067796D02*
X0275435Y0067796D01*
X0275435Y0066798D02*
X0291135Y0066798D01*
X0291135Y0065799D02*
X0275435Y0065799D01*
X0275435Y0064801D02*
X0291135Y0064801D01*
X0291135Y0063802D02*
X0275845Y0063802D01*
X0276379Y0062804D02*
X0291135Y0062804D01*
X0291135Y0061805D02*
X0276520Y0061805D01*
X0276342Y0060807D02*
X0291135Y0060807D01*
X0291135Y0059808D02*
X0287305Y0059808D01*
X0288304Y0058810D02*
X0291135Y0058810D01*
X0291135Y0057811D02*
X0289302Y0057811D01*
X0290545Y0056813D02*
X0291135Y0056813D01*
X0295735Y0056813D02*
X0296326Y0056813D01*
X0295735Y0057811D02*
X0321935Y0057811D01*
X0321935Y0056813D02*
X0321190Y0056813D01*
X0321935Y0058810D02*
X0295735Y0058810D01*
X0295735Y0059808D02*
X0321935Y0059808D01*
X0321935Y0060807D02*
X0295735Y0060807D01*
X0295735Y0061805D02*
X0321935Y0061805D01*
X0321935Y0062804D02*
X0295735Y0062804D01*
X0295735Y0063802D02*
X0299733Y0063802D01*
X0299822Y0063766D02*
X0301049Y0063766D01*
X0302182Y0064235D01*
X0303050Y0065103D01*
X0303520Y0066236D01*
X0303520Y0067106D01*
X0309264Y0072850D01*
X0310435Y0074022D01*
X0310435Y0108842D01*
X0310967Y0109062D01*
X0312224Y0110319D01*
X0312904Y0111961D01*
X0312904Y0113739D01*
X0312224Y0115381D01*
X0310967Y0116638D01*
X0309324Y0117318D01*
X0307547Y0117318D01*
X0305904Y0116638D01*
X0304647Y0115381D01*
X0303967Y0113739D01*
X0303967Y0111961D01*
X0304647Y0110319D01*
X0305904Y0109062D01*
X0306435Y0108842D01*
X0306435Y0075678D01*
X0300691Y0069934D01*
X0299822Y0069934D01*
X0298688Y0069465D01*
X0297821Y0068597D01*
X0297351Y0067463D01*
X0297351Y0066236D01*
X0297821Y0065103D01*
X0298688Y0064235D01*
X0299822Y0063766D01*
X0301137Y0063802D02*
X0321935Y0063802D01*
X0321935Y0064801D02*
X0302748Y0064801D01*
X0303339Y0065799D02*
X0321935Y0065799D01*
X0321935Y0066798D02*
X0303520Y0066798D01*
X0304210Y0067796D02*
X0321935Y0067796D01*
X0321935Y0068795D02*
X0305209Y0068795D01*
X0306207Y0069793D02*
X0321935Y0069793D01*
X0321935Y0070792D02*
X0307206Y0070792D01*
X0308204Y0071790D02*
X0321935Y0071790D01*
X0321935Y0072789D02*
X0309203Y0072789D01*
X0310201Y0073787D02*
X0321935Y0073787D01*
X0321935Y0074786D02*
X0310435Y0074786D01*
X0310435Y0075784D02*
X0321935Y0075784D01*
X0321935Y0076783D02*
X0310435Y0076783D01*
X0310435Y0077782D02*
X0321935Y0077782D01*
X0321935Y0078780D02*
X0310435Y0078780D01*
X0310435Y0079779D02*
X0321935Y0079779D01*
X0321935Y0080777D02*
X0310435Y0080777D01*
X0310435Y0081776D02*
X0321935Y0081776D01*
X0321935Y0082774D02*
X0310435Y0082774D01*
X0310435Y0083773D02*
X0321935Y0083773D01*
X0321935Y0084771D02*
X0310435Y0084771D01*
X0310435Y0085770D02*
X0321935Y0085770D01*
X0321935Y0086768D02*
X0310435Y0086768D01*
X0310435Y0087767D02*
X0321935Y0087767D01*
X0321935Y0088765D02*
X0310435Y0088765D01*
X0310435Y0089764D02*
X0321935Y0089764D01*
X0321935Y0090762D02*
X0310435Y0090762D01*
X0310435Y0091761D02*
X0321935Y0091761D01*
X0321935Y0092759D02*
X0310435Y0092759D01*
X0310435Y0093758D02*
X0321935Y0093758D01*
X0321935Y0094756D02*
X0310435Y0094756D01*
X0310435Y0095755D02*
X0321935Y0095755D01*
X0321935Y0096753D02*
X0310435Y0096753D01*
X0310435Y0097752D02*
X0321935Y0097752D01*
X0321935Y0098750D02*
X0310435Y0098750D01*
X0310435Y0099749D02*
X0321935Y0099749D01*
X0321935Y0100747D02*
X0310435Y0100747D01*
X0310435Y0101746D02*
X0321935Y0101746D01*
X0321935Y0102744D02*
X0310435Y0102744D01*
X0310435Y0103743D02*
X0321935Y0103743D01*
X0321935Y0104741D02*
X0310435Y0104741D01*
X0310435Y0105740D02*
X0321935Y0105740D01*
X0321935Y0106738D02*
X0310435Y0106738D01*
X0310435Y0107737D02*
X0321935Y0107737D01*
X0321935Y0108735D02*
X0320914Y0108735D01*
X0315957Y0108735D02*
X0310435Y0108735D01*
X0311639Y0109734D02*
X0314834Y0109734D01*
X0314171Y0110732D02*
X0312395Y0110732D01*
X0312809Y0111731D02*
X0313758Y0111731D01*
X0313685Y0112729D02*
X0312904Y0112729D01*
X0312904Y0113728D02*
X0313685Y0113728D01*
X0314071Y0114726D02*
X0312495Y0114726D01*
X0311880Y0115725D02*
X0314593Y0115725D01*
X0315591Y0116723D02*
X0310761Y0116723D01*
X0308435Y0112850D02*
X0308435Y0074850D01*
X0300435Y0066850D01*
X0297351Y0066798D02*
X0295735Y0066798D01*
X0295735Y0067796D02*
X0297489Y0067796D01*
X0298019Y0068795D02*
X0295735Y0068795D01*
X0295735Y0069793D02*
X0299482Y0069793D01*
X0301549Y0070792D02*
X0295735Y0070792D01*
X0295735Y0071790D02*
X0302547Y0071790D01*
X0303546Y0072789D02*
X0295735Y0072789D01*
X0295735Y0073787D02*
X0304544Y0073787D01*
X0305543Y0074786D02*
X0295735Y0074786D01*
X0295735Y0075784D02*
X0306435Y0075784D01*
X0306435Y0076783D02*
X0295735Y0076783D01*
X0295735Y0077782D02*
X0306435Y0077782D01*
X0306435Y0078780D02*
X0295735Y0078780D01*
X0295735Y0079779D02*
X0306435Y0079779D01*
X0306435Y0080777D02*
X0295735Y0080777D01*
X0295735Y0081776D02*
X0306435Y0081776D01*
X0306435Y0082774D02*
X0295735Y0082774D01*
X0295735Y0083773D02*
X0306435Y0083773D01*
X0306435Y0084771D02*
X0295735Y0084771D01*
X0295735Y0085770D02*
X0306435Y0085770D01*
X0306435Y0086768D02*
X0295735Y0086768D01*
X0295735Y0087767D02*
X0306435Y0087767D01*
X0306435Y0088765D02*
X0295735Y0088765D01*
X0295735Y0089764D02*
X0306435Y0089764D01*
X0306435Y0090762D02*
X0295735Y0090762D01*
X0295735Y0091761D02*
X0306435Y0091761D01*
X0306435Y0092759D02*
X0295735Y0092759D01*
X0295735Y0093758D02*
X0306435Y0093758D01*
X0306435Y0094756D02*
X0295735Y0094756D01*
X0295735Y0095755D02*
X0306435Y0095755D01*
X0306435Y0096753D02*
X0295735Y0096753D01*
X0296319Y0097752D02*
X0306435Y0097752D01*
X0306435Y0098750D02*
X0296588Y0098750D01*
X0297587Y0099749D02*
X0306435Y0099749D01*
X0306435Y0100747D02*
X0298585Y0100747D01*
X0299584Y0101746D02*
X0306435Y0101746D01*
X0306435Y0102744D02*
X0300582Y0102744D01*
X0300735Y0103743D02*
X0306435Y0103743D01*
X0306435Y0104741D02*
X0300735Y0104741D01*
X0300735Y0105740D02*
X0306435Y0105740D01*
X0306435Y0106738D02*
X0300735Y0106738D01*
X0300735Y0107737D02*
X0306435Y0107737D01*
X0306435Y0108735D02*
X0300735Y0108735D01*
X0301639Y0109734D02*
X0305232Y0109734D01*
X0304476Y0110732D02*
X0302395Y0110732D01*
X0302809Y0111731D02*
X0304062Y0111731D01*
X0303967Y0112729D02*
X0302904Y0112729D01*
X0302904Y0113728D02*
X0303967Y0113728D01*
X0304376Y0114726D02*
X0302495Y0114726D01*
X0301880Y0115725D02*
X0304991Y0115725D01*
X0306110Y0116723D02*
X0300761Y0116723D01*
X0286110Y0116723D02*
X0280761Y0116723D01*
X0281880Y0115725D02*
X0284991Y0115725D01*
X0284376Y0114726D02*
X0282495Y0114726D01*
X0282904Y0113728D02*
X0283967Y0113728D01*
X0283967Y0112729D02*
X0282904Y0112729D01*
X0282809Y0111731D02*
X0284062Y0111731D01*
X0284476Y0110732D02*
X0282395Y0110732D01*
X0281639Y0109734D02*
X0285232Y0109734D01*
X0286692Y0108735D02*
X0280179Y0108735D01*
X0276110Y0116723D02*
X0275435Y0116723D01*
X0275435Y0117722D02*
X0321935Y0117722D01*
X0321935Y0118720D02*
X0275435Y0118720D01*
X0275435Y0119719D02*
X0321935Y0119719D01*
X0321935Y0120718D02*
X0275435Y0120718D01*
X0275435Y0121716D02*
X0321935Y0121716D01*
X0321935Y0122715D02*
X0275435Y0122715D01*
X0275435Y0123713D02*
X0275453Y0123713D01*
X0273435Y0121850D02*
X0254435Y0121850D01*
X0248435Y0127850D01*
X0248435Y0135850D01*
X0253435Y0140850D01*
X0243435Y0140850D02*
X0243435Y0138850D01*
X0238435Y0133850D01*
X0186692Y0108735D02*
X0180203Y0108735D01*
X0178920Y0108735D02*
X0177951Y0108735D01*
X0177951Y0109734D02*
X0178920Y0109734D01*
X0178920Y0110732D02*
X0177951Y0110732D01*
X0177951Y0113728D02*
X0178920Y0113728D01*
X0178920Y0114726D02*
X0177951Y0114726D01*
X0177951Y0115725D02*
X0178920Y0115725D01*
X0178920Y0116723D02*
X0177951Y0116723D01*
X0182770Y0111731D02*
X0184062Y0111731D01*
X0184476Y0110732D02*
X0182372Y0110732D01*
X0181639Y0109734D02*
X0185232Y0109734D01*
X0183435Y0101850D02*
X0183435Y0093850D01*
X0180549Y0092759D02*
X0174355Y0092759D01*
X0183435Y0082850D02*
X0184435Y0083850D01*
X0235435Y0083850D01*
X0253435Y0065850D01*
X0253435Y0042850D01*
X0258435Y0037850D01*
X0248435Y0037850D02*
X0243435Y0042850D01*
X0243435Y0066850D01*
X0233435Y0076850D01*
X0172435Y0076850D01*
X0169435Y0073850D01*
X0151435Y0073850D01*
X0151435Y0065850D01*
X0140435Y0054850D01*
X0118435Y0054850D01*
X0117156Y0056130D01*
X0117156Y0059334D01*
X0119715Y0059334D02*
X0122274Y0059334D01*
X0122274Y0067689D01*
X0124435Y0067850D01*
X0128435Y0067850D02*
X0108435Y0068110D01*
X0103983Y0070792D02*
X0103760Y0070792D01*
X0104483Y0071790D02*
X0019435Y0071790D01*
X0019435Y0070792D02*
X0100591Y0070792D01*
X0103995Y0072789D02*
X0020374Y0072789D01*
X0021373Y0073787D02*
X0076278Y0073787D01*
X0076035Y0073866D02*
X0076704Y0073649D01*
X0077266Y0073560D01*
X0077266Y0080492D01*
X0073282Y0080492D01*
X0073282Y0077656D01*
X0073392Y0076961D01*
X0073609Y0076292D01*
X0073929Y0075665D01*
X0074342Y0075096D01*
X0074839Y0074599D01*
X0075408Y0074186D01*
X0076035Y0073866D01*
X0077266Y0073787D02*
X0078235Y0073787D01*
X0078235Y0073560D02*
X0078797Y0073649D01*
X0079466Y0073866D01*
X0080092Y0074186D01*
X0080661Y0074599D01*
X0081159Y0075096D01*
X0081572Y0075665D01*
X0081891Y0076292D01*
X0082109Y0076961D01*
X0082219Y0077656D01*
X0082219Y0080492D01*
X0078235Y0080492D01*
X0078235Y0081460D01*
X0082219Y0081460D01*
X0082219Y0084296D01*
X0082109Y0084991D01*
X0081891Y0085660D01*
X0081572Y0086286D01*
X0081159Y0086856D01*
X0080661Y0087353D01*
X0080092Y0087766D01*
X0079466Y0088086D01*
X0078797Y0088303D01*
X0078235Y0088392D01*
X0078235Y0081460D01*
X0077266Y0081460D01*
X0077266Y0080492D01*
X0078235Y0080492D01*
X0078235Y0073560D01*
X0079223Y0073787D02*
X0103983Y0073787D01*
X0103983Y0074786D02*
X0080848Y0074786D01*
X0081633Y0075784D02*
X0083817Y0075784D01*
X0083154Y0076783D02*
X0082051Y0076783D01*
X0082219Y0077782D02*
X0083154Y0077782D01*
X0083154Y0078780D02*
X0082219Y0078780D01*
X0082219Y0079779D02*
X0083154Y0079779D01*
X0083154Y0080777D02*
X0078235Y0080777D01*
X0077266Y0080777D02*
X0065362Y0080777D01*
X0064364Y0079779D02*
X0073282Y0079779D01*
X0073282Y0078780D02*
X0063365Y0078780D01*
X0062367Y0077782D02*
X0073282Y0077782D01*
X0073450Y0076783D02*
X0061368Y0076783D01*
X0060370Y0075784D02*
X0073868Y0075784D01*
X0074652Y0074786D02*
X0022371Y0074786D01*
X0019435Y0069793D02*
X0078126Y0069793D01*
X0077128Y0068795D02*
X0064067Y0068795D01*
X0063361Y0069500D02*
X0061735Y0069500D01*
X0061735Y0065150D01*
X0061135Y0065150D01*
X0061135Y0064550D01*
X0056785Y0064550D01*
X0056785Y0062924D01*
X0059509Y0060200D01*
X0061135Y0060200D01*
X0061135Y0064550D01*
X0061735Y0064550D01*
X0061735Y0060200D01*
X0063361Y0060200D01*
X0066085Y0062924D01*
X0066085Y0064550D01*
X0061735Y0064550D01*
X0061735Y0065150D01*
X0066085Y0065150D01*
X0066085Y0066776D01*
X0063361Y0069500D01*
X0061735Y0068795D02*
X0061135Y0068795D01*
X0061135Y0069500D02*
X0059509Y0069500D01*
X0056785Y0066776D01*
X0056785Y0065150D01*
X0061135Y0065150D01*
X0061135Y0069500D01*
X0061135Y0067796D02*
X0061735Y0067796D01*
X0061735Y0066798D02*
X0061135Y0066798D01*
X0061135Y0065799D02*
X0061735Y0065799D01*
X0061735Y0064801D02*
X0073134Y0064801D01*
X0074132Y0065799D02*
X0066085Y0065799D01*
X0066064Y0066798D02*
X0075131Y0066798D01*
X0076129Y0067796D02*
X0065065Y0067796D01*
X0061135Y0064801D02*
X0019435Y0064801D01*
X0019435Y0065799D02*
X0056785Y0065799D01*
X0056807Y0066798D02*
X0019435Y0066798D01*
X0019435Y0067796D02*
X0057806Y0067796D01*
X0058804Y0068795D02*
X0019435Y0068795D01*
X0019435Y0063802D02*
X0021812Y0063802D01*
X0022509Y0064500D02*
X0019785Y0061776D01*
X0019785Y0060150D01*
X0024135Y0060150D01*
X0024135Y0059550D01*
X0019785Y0059550D01*
X0019785Y0057924D01*
X0022509Y0055200D01*
X0024135Y0055200D01*
X0024135Y0059550D01*
X0024735Y0059550D01*
X0024735Y0055200D01*
X0026361Y0055200D01*
X0029085Y0057924D01*
X0029085Y0059550D01*
X0024735Y0059550D01*
X0024735Y0060150D01*
X0024135Y0060150D01*
X0024135Y0064500D01*
X0022509Y0064500D01*
X0024135Y0063802D02*
X0024735Y0063802D01*
X0024735Y0064500D02*
X0026361Y0064500D01*
X0029085Y0061776D01*
X0029085Y0060150D01*
X0024735Y0060150D01*
X0024735Y0064500D01*
X0024735Y0062804D02*
X0024135Y0062804D01*
X0024135Y0061805D02*
X0024735Y0061805D01*
X0024735Y0060807D02*
X0024135Y0060807D01*
X0024135Y0059808D02*
X0019435Y0059808D01*
X0019435Y0058810D02*
X0019785Y0058810D01*
X0019898Y0057811D02*
X0019435Y0057811D01*
X0019435Y0056813D02*
X0020897Y0056813D01*
X0021895Y0055814D02*
X0019435Y0055814D01*
X0019435Y0054816D02*
X0056785Y0054816D01*
X0056802Y0055814D02*
X0026976Y0055814D01*
X0027974Y0056813D02*
X0057215Y0056813D01*
X0057821Y0057811D02*
X0028973Y0057811D01*
X0029085Y0058810D02*
X0058844Y0058810D01*
X0058902Y0060807D02*
X0029085Y0060807D01*
X0029056Y0061805D02*
X0057904Y0061805D01*
X0056905Y0062804D02*
X0028058Y0062804D01*
X0027059Y0063802D02*
X0056785Y0063802D01*
X0061135Y0063802D02*
X0061735Y0063802D01*
X0061735Y0062804D02*
X0061135Y0062804D01*
X0061135Y0061805D02*
X0061735Y0061805D01*
X0061735Y0060807D02*
X0061135Y0060807D01*
X0063968Y0060807D02*
X0069140Y0060807D01*
X0070138Y0061805D02*
X0064967Y0061805D01*
X0065965Y0062804D02*
X0071137Y0062804D01*
X0072135Y0063802D02*
X0066085Y0063802D01*
X0068141Y0059808D02*
X0024735Y0059808D01*
X0024735Y0058810D02*
X0024135Y0058810D01*
X0024135Y0057811D02*
X0024735Y0057811D01*
X0024735Y0056813D02*
X0024135Y0056813D01*
X0024135Y0055814D02*
X0024735Y0055814D01*
X0028984Y0051820D02*
X0019435Y0051820D01*
X0019435Y0050822D02*
X0027526Y0050822D01*
X0026798Y0049823D02*
X0019435Y0049823D01*
X0019435Y0048825D02*
X0026385Y0048825D01*
X0026335Y0047826D02*
X0019435Y0047826D01*
X0019435Y0046828D02*
X0026405Y0046828D01*
X0026818Y0045829D02*
X0019486Y0045829D01*
X0020484Y0044831D02*
X0027574Y0044831D01*
X0029099Y0043832D02*
X0021228Y0043832D01*
X0021641Y0042834D02*
X0035199Y0042834D01*
X0029020Y0041835D02*
X0022055Y0041835D01*
X0022235Y0040837D02*
X0027541Y0040837D01*
X0026805Y0039838D02*
X0023113Y0039838D01*
X0024028Y0038840D02*
X0026391Y0038840D01*
X0026335Y0037841D02*
X0024944Y0037841D01*
X0025859Y0036843D02*
X0026398Y0036843D01*
X0026774Y0035844D02*
X0026812Y0035844D01*
X0040072Y0049823D02*
X0040798Y0049823D01*
X0041526Y0050822D02*
X0039345Y0050822D01*
X0037887Y0051820D02*
X0042984Y0051820D01*
X0051887Y0051820D02*
X0057889Y0051820D01*
X0057244Y0052819D02*
X0019435Y0052819D01*
X0019435Y0053817D02*
X0056830Y0053817D01*
X0059009Y0050822D02*
X0053345Y0050822D01*
X0054072Y0049823D02*
X0083735Y0049823D01*
X0083735Y0048825D02*
X0054486Y0048825D01*
X0054535Y0047826D02*
X0083735Y0047826D01*
X0083735Y0046828D02*
X0054466Y0046828D01*
X0054053Y0045829D02*
X0083731Y0045829D01*
X0083154Y0044831D02*
X0058707Y0044831D01*
X0059706Y0043832D02*
X0083154Y0043832D01*
X0083154Y0042834D02*
X0060704Y0042834D01*
X0061703Y0041835D02*
X0083154Y0041835D01*
X0083154Y0040837D02*
X0062701Y0040837D01*
X0063700Y0039838D02*
X0083764Y0039838D01*
X0089107Y0039838D02*
X0131171Y0039838D01*
X0132169Y0040837D02*
X0089716Y0040837D01*
X0089716Y0041835D02*
X0133168Y0041835D01*
X0134166Y0042834D02*
X0089716Y0042834D01*
X0089716Y0043832D02*
X0135165Y0043832D01*
X0136163Y0044831D02*
X0089716Y0044831D01*
X0089140Y0045829D02*
X0137162Y0045829D01*
X0138160Y0046828D02*
X0089135Y0046828D01*
X0089135Y0047826D02*
X0139159Y0047826D01*
X0140157Y0048825D02*
X0089135Y0048825D01*
X0089135Y0049823D02*
X0141156Y0049823D01*
X0142154Y0050822D02*
X0089135Y0050822D01*
X0089135Y0051820D02*
X0143153Y0051820D01*
X0144151Y0052819D02*
X0089135Y0052819D01*
X0089135Y0053817D02*
X0116640Y0053817D01*
X0115641Y0054816D02*
X0104774Y0054816D01*
X0104656Y0054697D02*
X0104935Y0054976D01*
X0105132Y0055318D01*
X0105235Y0055700D01*
X0105235Y0058350D01*
X0101676Y0058350D01*
X0101676Y0054397D01*
X0103932Y0054397D01*
X0104314Y0054499D01*
X0104656Y0054697D01*
X0105235Y0055814D02*
X0112944Y0055814D01*
X0112408Y0056813D02*
X0105235Y0056813D01*
X0105235Y0057811D02*
X0112408Y0057811D01*
X0112408Y0058810D02*
X0101676Y0058810D01*
X0101676Y0059808D02*
X0100676Y0059808D01*
X0100676Y0060807D02*
X0101676Y0060807D01*
X0101676Y0061805D02*
X0100676Y0061805D01*
X0100676Y0062804D02*
X0101676Y0062804D01*
X0104111Y0064801D02*
X0095995Y0064801D01*
X0095995Y0063802D02*
X0111513Y0063802D01*
X0111857Y0062804D02*
X0104855Y0062804D01*
X0105235Y0061805D02*
X0112408Y0061805D01*
X0112408Y0060807D02*
X0105235Y0060807D01*
X0105235Y0059808D02*
X0112408Y0059808D01*
X0114597Y0059334D02*
X0114597Y0064250D01*
X0112888Y0070150D02*
X0112888Y0071290D01*
X0112328Y0071850D01*
X0112588Y0072110D01*
X0112786Y0072452D01*
X0112888Y0072834D01*
X0112888Y0075090D01*
X0108935Y0075090D01*
X0108935Y0076090D01*
X0107935Y0076090D01*
X0107935Y0079649D01*
X0105285Y0079649D01*
X0105260Y0079642D01*
X0105260Y0080463D01*
X0104790Y0081597D01*
X0104476Y0081912D01*
X0104476Y0083397D01*
X0105356Y0083397D01*
X0106235Y0084276D01*
X0106235Y0085850D01*
X0112909Y0085850D01*
X0112708Y0085649D01*
X0112510Y0085307D01*
X0112408Y0084925D01*
X0112408Y0082366D01*
X0114597Y0082366D01*
X0114597Y0082366D01*
X0114597Y0078504D01*
X0115483Y0078504D01*
X0115769Y0078580D01*
X0115846Y0078504D01*
X0123584Y0078504D01*
X0124463Y0079382D01*
X0124463Y0080366D01*
X0125091Y0080366D01*
X0132851Y0072606D01*
X0132851Y0071736D01*
X0133321Y0070603D01*
X0133774Y0070150D01*
X0112888Y0070150D01*
X0112888Y0070792D02*
X0133242Y0070792D01*
X0132851Y0071790D02*
X0112388Y0071790D01*
X0112876Y0072789D02*
X0132668Y0072789D01*
X0131669Y0073787D02*
X0112888Y0073787D01*
X0112888Y0074786D02*
X0130671Y0074786D01*
X0129672Y0075784D02*
X0108935Y0075784D01*
X0108935Y0076090D02*
X0112888Y0076090D01*
X0112888Y0078347D01*
X0112786Y0078728D01*
X0112588Y0079070D01*
X0112309Y0079349D01*
X0111967Y0079547D01*
X0111586Y0079649D01*
X0108935Y0079649D01*
X0108935Y0076090D01*
X0108935Y0076783D02*
X0107935Y0076783D01*
X0107935Y0075784D02*
X0089053Y0075784D01*
X0089716Y0076783D02*
X0101520Y0076783D01*
X0102831Y0076783D02*
X0103983Y0076783D01*
X0105260Y0079779D02*
X0112415Y0079779D01*
X0112408Y0079806D02*
X0112510Y0079425D01*
X0112708Y0079083D01*
X0112987Y0078803D01*
X0113329Y0078606D01*
X0113710Y0078504D01*
X0114597Y0078504D01*
X0114597Y0082366D01*
X0114597Y0082366D01*
X0112408Y0082366D01*
X0112408Y0079806D01*
X0112408Y0080777D02*
X0105130Y0080777D01*
X0104612Y0081776D02*
X0112408Y0081776D01*
X0112408Y0082774D02*
X0104476Y0082774D01*
X0105731Y0083773D02*
X0112408Y0083773D01*
X0112408Y0084771D02*
X0106235Y0084771D01*
X0106235Y0085770D02*
X0112828Y0085770D01*
X0114435Y0087850D02*
X0117156Y0085130D01*
X0117156Y0082366D01*
X0119715Y0082366D02*
X0119715Y0087570D01*
X0115435Y0091850D01*
X0111435Y0091850D01*
X0107435Y0095850D01*
X0107435Y0103850D01*
X0112435Y0108850D01*
X0115645Y0105740D02*
X0116497Y0105740D01*
X0116397Y0106738D02*
X0117495Y0106738D01*
X0118060Y0107737D02*
X0116811Y0107737D01*
X0116904Y0108735D02*
X0117967Y0108735D01*
X0117967Y0109734D02*
X0116904Y0109734D01*
X0116492Y0110732D02*
X0118378Y0110732D01*
X0118997Y0111731D02*
X0115874Y0111731D01*
X0114746Y0112729D02*
X0120124Y0112729D01*
X0122435Y0108850D02*
X0117435Y0103850D01*
X0117435Y0095850D01*
X0139435Y0073850D01*
X0151435Y0073850D01*
X0153435Y0071790D02*
X0161025Y0071790D01*
X0160611Y0070792D02*
X0153435Y0070792D01*
X0153435Y0069793D02*
X0160235Y0069793D01*
X0160235Y0068795D02*
X0153435Y0068795D01*
X0153435Y0067796D02*
X0160243Y0067796D01*
X0160657Y0066798D02*
X0153435Y0066798D01*
X0153435Y0065799D02*
X0161132Y0065799D01*
X0162131Y0064801D02*
X0157371Y0064801D01*
X0158845Y0063802D02*
X0164033Y0063802D01*
X0166838Y0063802D02*
X0241435Y0063802D01*
X0241435Y0062804D02*
X0159379Y0062804D01*
X0159520Y0061805D02*
X0241435Y0061805D01*
X0241435Y0060807D02*
X0159342Y0060807D01*
X0158755Y0059808D02*
X0241435Y0059808D01*
X0241435Y0058810D02*
X0157155Y0058810D01*
X0157491Y0057600D02*
X0155745Y0056877D01*
X0154409Y0055541D01*
X0153685Y0053795D01*
X0153685Y0051905D01*
X0154409Y0050159D01*
X0155745Y0048823D01*
X0157491Y0048100D01*
X0159380Y0048100D01*
X0161126Y0048823D01*
X0162462Y0050159D01*
X0163185Y0051905D01*
X0163185Y0053795D01*
X0162462Y0055541D01*
X0161126Y0056877D01*
X0159380Y0057600D01*
X0157491Y0057600D01*
X0155649Y0057811D02*
X0241435Y0057811D01*
X0241435Y0056813D02*
X0240545Y0056813D01*
X0236326Y0056813D02*
X0230545Y0056813D01*
X0230967Y0056638D02*
X0229324Y0057318D01*
X0227547Y0057318D01*
X0225904Y0056638D01*
X0224647Y0055381D01*
X0223967Y0053739D01*
X0223967Y0051961D01*
X0224647Y0050319D01*
X0225904Y0049062D01*
X0227547Y0048381D01*
X0229324Y0048381D01*
X0230967Y0049062D01*
X0232224Y0050319D01*
X0232904Y0051961D01*
X0232904Y0053739D01*
X0232224Y0055381D01*
X0230967Y0056638D01*
X0231791Y0055814D02*
X0235080Y0055814D01*
X0234413Y0054816D02*
X0232458Y0054816D01*
X0232871Y0053817D02*
X0233999Y0053817D01*
X0233967Y0052819D02*
X0232904Y0052819D01*
X0232845Y0051820D02*
X0234025Y0051820D01*
X0234439Y0050822D02*
X0232432Y0050822D01*
X0231728Y0049823D02*
X0235143Y0049823D01*
X0236477Y0048825D02*
X0230394Y0048825D01*
X0226477Y0048825D02*
X0220394Y0048825D01*
X0220967Y0049062D02*
X0219324Y0048381D01*
X0217547Y0048381D01*
X0215904Y0049062D01*
X0214647Y0050319D01*
X0213967Y0051961D01*
X0213967Y0053739D01*
X0214647Y0055381D01*
X0215904Y0056638D01*
X0217547Y0057318D01*
X0219324Y0057318D01*
X0220967Y0056638D01*
X0222224Y0055381D01*
X0222904Y0053739D01*
X0222904Y0051961D01*
X0222224Y0050319D01*
X0220967Y0049062D01*
X0221728Y0049823D02*
X0225143Y0049823D01*
X0224439Y0050822D02*
X0222432Y0050822D01*
X0222845Y0051820D02*
X0224025Y0051820D01*
X0223967Y0052819D02*
X0222904Y0052819D01*
X0222871Y0053817D02*
X0223999Y0053817D01*
X0224413Y0054816D02*
X0222458Y0054816D01*
X0221791Y0055814D02*
X0225080Y0055814D01*
X0226326Y0056813D02*
X0220545Y0056813D01*
X0216326Y0056813D02*
X0210545Y0056813D01*
X0210967Y0056638D02*
X0209324Y0057318D01*
X0207547Y0057318D01*
X0205904Y0056638D01*
X0204647Y0055381D01*
X0203967Y0053739D01*
X0203967Y0051961D01*
X0204187Y0051430D01*
X0193691Y0040934D01*
X0192822Y0040934D01*
X0191688Y0040465D01*
X0190821Y0039597D01*
X0190351Y0038463D01*
X0190351Y0037236D01*
X0190821Y0036103D01*
X0191688Y0035235D01*
X0192822Y0034766D01*
X0194049Y0034766D01*
X0195182Y0035235D01*
X0196050Y0036103D01*
X0196520Y0037236D01*
X0196520Y0038106D01*
X0207015Y0048602D01*
X0207547Y0048381D01*
X0209324Y0048381D01*
X0210967Y0049062D01*
X0212224Y0050319D01*
X0212904Y0051961D01*
X0212904Y0053739D01*
X0212224Y0055381D01*
X0210967Y0056638D01*
X0211791Y0055814D02*
X0215080Y0055814D01*
X0214413Y0054816D02*
X0212458Y0054816D01*
X0212871Y0053817D02*
X0213999Y0053817D01*
X0213967Y0052819D02*
X0212904Y0052819D01*
X0212845Y0051820D02*
X0214025Y0051820D01*
X0214439Y0050822D02*
X0212432Y0050822D01*
X0211728Y0049823D02*
X0215143Y0049823D01*
X0216477Y0048825D02*
X0210394Y0048825D01*
X0206240Y0047826D02*
X0241435Y0047826D01*
X0241435Y0046828D02*
X0205241Y0046828D01*
X0204243Y0045829D02*
X0241435Y0045829D01*
X0241435Y0044831D02*
X0203244Y0044831D01*
X0202246Y0043832D02*
X0241435Y0043832D01*
X0241435Y0042834D02*
X0239731Y0042834D01*
X0237140Y0042834D02*
X0229731Y0042834D01*
X0231663Y0041835D02*
X0235208Y0041835D01*
X0234209Y0040837D02*
X0232661Y0040837D01*
X0233132Y0039838D02*
X0233739Y0039838D01*
X0227140Y0042834D02*
X0219731Y0042834D01*
X0221663Y0041835D02*
X0225208Y0041835D01*
X0224209Y0040837D02*
X0222661Y0040837D01*
X0223132Y0039838D02*
X0223739Y0039838D01*
X0217140Y0042834D02*
X0201247Y0042834D01*
X0200249Y0041835D02*
X0215208Y0041835D01*
X0214209Y0040837D02*
X0199250Y0040837D01*
X0198252Y0039838D02*
X0213739Y0039838D01*
X0213335Y0038840D02*
X0197253Y0038840D01*
X0196520Y0037841D02*
X0213335Y0037841D01*
X0213335Y0036843D02*
X0196356Y0036843D01*
X0195791Y0035844D02*
X0213746Y0035844D01*
X0214227Y0034846D02*
X0194241Y0034846D01*
X0192629Y0034846D02*
X0167935Y0034846D01*
X0167935Y0035844D02*
X0191080Y0035844D01*
X0190514Y0036843D02*
X0167688Y0036843D01*
X0167274Y0037841D02*
X0190351Y0037841D01*
X0190507Y0038840D02*
X0170477Y0038840D01*
X0170163Y0038680D02*
X0170794Y0039001D01*
X0171367Y0039418D01*
X0171868Y0039918D01*
X0172284Y0040491D01*
X0172606Y0041123D01*
X0172825Y0041796D01*
X0172935Y0042496D01*
X0172935Y0042550D01*
X0168735Y0042550D01*
X0168735Y0038350D01*
X0168790Y0038350D01*
X0169489Y0038461D01*
X0170163Y0038680D01*
X0168735Y0038840D02*
X0168135Y0038840D01*
X0168135Y0039838D02*
X0168735Y0039838D01*
X0168735Y0040837D02*
X0168135Y0040837D01*
X0168135Y0041835D02*
X0168735Y0041835D01*
X0168735Y0042550D02*
X0168135Y0042550D01*
X0168135Y0043150D01*
X0163935Y0043150D01*
X0163935Y0043204D01*
X0164046Y0043904D01*
X0164265Y0044577D01*
X0164587Y0045209D01*
X0165003Y0045782D01*
X0165504Y0046282D01*
X0166077Y0046699D01*
X0166708Y0047020D01*
X0167382Y0047239D01*
X0168081Y0047350D01*
X0168135Y0047350D01*
X0168135Y0043150D01*
X0168735Y0043150D01*
X0168735Y0047350D01*
X0168790Y0047350D01*
X0169489Y0047239D01*
X0170163Y0047020D01*
X0170794Y0046699D01*
X0171367Y0046282D01*
X0171868Y0045782D01*
X0172284Y0045209D01*
X0172606Y0044577D01*
X0172825Y0043904D01*
X0172935Y0043204D01*
X0172935Y0043150D01*
X0168735Y0043150D01*
X0168735Y0042550D01*
X0168735Y0042834D02*
X0195591Y0042834D01*
X0196589Y0043832D02*
X0172836Y0043832D01*
X0172477Y0044831D02*
X0197588Y0044831D01*
X0198586Y0045829D02*
X0171820Y0045829D01*
X0170541Y0046828D02*
X0199585Y0046828D01*
X0200583Y0047826D02*
X0145664Y0047826D01*
X0144666Y0046828D02*
X0156279Y0046828D01*
X0155051Y0045829D02*
X0150535Y0045829D01*
X0151533Y0044831D02*
X0154385Y0044831D01*
X0156935Y0042350D02*
X0158435Y0042850D01*
X0156935Y0042350D02*
X0147435Y0042350D01*
X0149685Y0043850D02*
X0149685Y0040850D01*
X0145185Y0040850D01*
X0145185Y0043850D01*
X0149685Y0043850D01*
X0149685Y0041849D02*
X0145185Y0041849D01*
X0145185Y0042848D02*
X0149685Y0042848D01*
X0149685Y0043847D02*
X0145185Y0043847D01*
X0143338Y0044831D02*
X0142669Y0044831D01*
X0143667Y0045829D02*
X0144336Y0045829D01*
X0146663Y0048825D02*
X0155743Y0048825D01*
X0154745Y0049823D02*
X0147661Y0049823D01*
X0148660Y0050822D02*
X0154134Y0050822D01*
X0153721Y0051820D02*
X0149658Y0051820D01*
X0150657Y0052819D02*
X0153685Y0052819D01*
X0153695Y0053817D02*
X0151655Y0053817D01*
X0152654Y0054816D02*
X0154108Y0054816D01*
X0153652Y0055814D02*
X0154682Y0055814D01*
X0154651Y0056813D02*
X0155681Y0056813D01*
X0152140Y0060807D02*
X0149221Y0060807D01*
X0150219Y0061805D02*
X0153138Y0061805D01*
X0153492Y0062804D02*
X0151218Y0062804D01*
X0152216Y0063802D02*
X0154026Y0063802D01*
X0153215Y0064801D02*
X0155500Y0064801D01*
X0151141Y0059808D02*
X0148222Y0059808D01*
X0147224Y0058810D02*
X0150143Y0058810D01*
X0149144Y0057811D02*
X0146225Y0057811D01*
X0145227Y0056813D02*
X0148145Y0056813D01*
X0147147Y0055814D02*
X0144228Y0055814D01*
X0143230Y0054816D02*
X0146148Y0054816D01*
X0145150Y0053817D02*
X0142231Y0053817D01*
X0147435Y0052850D02*
X0148435Y0053850D01*
X0144435Y0063850D02*
X0135935Y0063850D01*
X0135935Y0059350D01*
X0134435Y0061600D02*
X0137435Y0061600D01*
X0137435Y0057100D01*
X0134435Y0057100D01*
X0134435Y0061600D01*
X0134435Y0058099D02*
X0137435Y0058099D01*
X0137435Y0059098D02*
X0134435Y0059098D01*
X0134435Y0060097D02*
X0137435Y0060097D01*
X0137435Y0061096D02*
X0134435Y0061096D01*
X0130435Y0061600D02*
X0127435Y0061600D01*
X0130435Y0061600D02*
X0130435Y0057100D01*
X0127435Y0057100D01*
X0127435Y0061600D01*
X0127435Y0058099D02*
X0130435Y0058099D01*
X0130435Y0059098D02*
X0127435Y0059098D01*
X0127435Y0060097D02*
X0130435Y0060097D01*
X0130435Y0061096D02*
X0127435Y0061096D01*
X0135935Y0072350D02*
X0125920Y0082366D01*
X0122274Y0082366D01*
X0124463Y0079779D02*
X0125678Y0079779D01*
X0126677Y0078780D02*
X0123861Y0078780D01*
X0127675Y0077782D02*
X0112888Y0077782D01*
X0112888Y0076783D02*
X0128674Y0076783D01*
X0114597Y0078780D02*
X0114597Y0078780D01*
X0114597Y0079779D02*
X0114597Y0079779D01*
X0114597Y0080777D02*
X0114597Y0080777D01*
X0114597Y0081776D02*
X0114597Y0081776D01*
X0113027Y0078780D02*
X0112756Y0078780D01*
X0108935Y0078780D02*
X0107935Y0078780D01*
X0107935Y0077782D02*
X0108935Y0077782D01*
X0099882Y0077782D02*
X0089716Y0077782D01*
X0089716Y0078780D02*
X0099280Y0078780D01*
X0099091Y0079779D02*
X0089716Y0079779D01*
X0089716Y0080777D02*
X0099221Y0080777D01*
X0099739Y0081776D02*
X0089193Y0081776D01*
X0089135Y0082774D02*
X0099876Y0082774D01*
X0098620Y0083773D02*
X0098251Y0083773D01*
X0095195Y0083773D02*
X0094195Y0083773D01*
X0094195Y0084771D02*
X0095195Y0084771D01*
X0095195Y0085770D02*
X0094195Y0085770D01*
X0094195Y0086768D02*
X0095195Y0086768D01*
X0094195Y0087767D02*
X0089135Y0087767D01*
X0089135Y0088765D02*
X0090636Y0088765D01*
X0090636Y0088350D02*
X0090636Y0091000D01*
X0090738Y0091382D01*
X0090936Y0091724D01*
X0091215Y0092003D01*
X0091557Y0092201D01*
X0091939Y0092303D01*
X0094195Y0092303D01*
X0094195Y0088350D01*
X0090636Y0088350D01*
X0090636Y0089764D02*
X0089135Y0089764D01*
X0089135Y0090762D02*
X0090636Y0090762D01*
X0090973Y0091761D02*
X0089135Y0091761D01*
X0089135Y0092759D02*
X0092448Y0092759D01*
X0091449Y0093758D02*
X0089135Y0093758D01*
X0089135Y0094756D02*
X0091435Y0094756D01*
X0091435Y0095755D02*
X0089135Y0095755D01*
X0089135Y0096753D02*
X0091435Y0096753D01*
X0091435Y0097752D02*
X0089135Y0097752D01*
X0089135Y0098750D02*
X0091435Y0098750D01*
X0091435Y0099749D02*
X0089135Y0099749D01*
X0089135Y0100747D02*
X0092254Y0100747D01*
X0092935Y0101100D02*
X0092935Y0101100D01*
X0091668Y0101746D02*
X0089135Y0101746D01*
X0089135Y0102744D02*
X0091435Y0102744D01*
X0091435Y0103743D02*
X0089135Y0103743D01*
X0089135Y0104741D02*
X0091435Y0104741D01*
X0091435Y0105740D02*
X0089135Y0105740D01*
X0089135Y0106738D02*
X0091435Y0106738D01*
X0091451Y0107737D02*
X0089135Y0107737D01*
X0089135Y0108735D02*
X0107967Y0108735D01*
X0107967Y0109734D02*
X0101667Y0109734D01*
X0101935Y0110732D02*
X0108378Y0110732D01*
X0108997Y0111731D02*
X0101935Y0111731D01*
X0101935Y0113728D02*
X0125686Y0113728D01*
X0128420Y0116723D02*
X0133351Y0116723D01*
X0133458Y0117722D02*
X0128313Y0117722D01*
X0127827Y0118720D02*
X0133944Y0118720D01*
X0134435Y0119719D02*
X0126469Y0119719D01*
X0122844Y0118720D02*
X0089135Y0118720D01*
X0089135Y0117722D02*
X0122358Y0117722D01*
X0110124Y0112729D02*
X0098935Y0112729D01*
X0098935Y0111731D02*
X0097935Y0111731D01*
X0097935Y0110732D02*
X0098935Y0110732D01*
X0098935Y0109734D02*
X0097935Y0109734D01*
X0098420Y0107737D02*
X0098451Y0107737D01*
X0098435Y0106738D02*
X0098435Y0106738D01*
X0098435Y0105740D02*
X0098435Y0105740D01*
X0098435Y0104741D02*
X0098435Y0104741D01*
X0098435Y0103743D02*
X0098435Y0103743D01*
X0098435Y0102744D02*
X0098435Y0102744D01*
X0098202Y0101746D02*
X0098668Y0101746D01*
X0099254Y0100747D02*
X0097617Y0100747D01*
X0096935Y0101100D02*
X0096935Y0101100D01*
X0098435Y0099749D02*
X0098435Y0099749D01*
X0098435Y0098750D02*
X0098435Y0098750D01*
X0098435Y0097752D02*
X0098435Y0097752D01*
X0098435Y0096753D02*
X0098435Y0096753D01*
X0098435Y0095755D02*
X0098435Y0095755D01*
X0098435Y0094756D02*
X0098435Y0094756D01*
X0098422Y0093758D02*
X0098449Y0093758D01*
X0099448Y0092759D02*
X0097423Y0092759D01*
X0098418Y0091761D02*
X0098453Y0091761D01*
X0095195Y0091761D02*
X0094195Y0091761D01*
X0094195Y0090762D02*
X0095195Y0090762D01*
X0095195Y0089764D02*
X0094195Y0089764D01*
X0094195Y0088765D02*
X0095195Y0088765D01*
X0090636Y0086768D02*
X0089135Y0086768D01*
X0089135Y0085770D02*
X0090636Y0085770D01*
X0090636Y0084771D02*
X0089135Y0084771D01*
X0089135Y0083773D02*
X0091140Y0083773D01*
X0083735Y0083773D02*
X0082219Y0083773D01*
X0082219Y0082774D02*
X0083735Y0082774D01*
X0083677Y0081776D02*
X0082219Y0081776D01*
X0082144Y0084771D02*
X0083735Y0084771D01*
X0083735Y0085770D02*
X0081836Y0085770D01*
X0081222Y0086768D02*
X0083735Y0086768D01*
X0083735Y0087767D02*
X0080092Y0087767D01*
X0078235Y0087767D02*
X0077266Y0087767D01*
X0077266Y0088392D02*
X0076704Y0088303D01*
X0076035Y0088086D01*
X0075408Y0087766D01*
X0074839Y0087353D01*
X0074342Y0086856D01*
X0073929Y0086286D01*
X0073609Y0085660D01*
X0073392Y0084991D01*
X0073282Y0084296D01*
X0073282Y0081460D01*
X0077266Y0081460D01*
X0077266Y0088392D01*
X0077266Y0086768D02*
X0078235Y0086768D01*
X0078235Y0085770D02*
X0077266Y0085770D01*
X0077266Y0084771D02*
X0078235Y0084771D01*
X0078235Y0083773D02*
X0077266Y0083773D01*
X0077266Y0082774D02*
X0078235Y0082774D01*
X0078235Y0081776D02*
X0077266Y0081776D01*
X0077266Y0079779D02*
X0078235Y0079779D01*
X0078235Y0078780D02*
X0077266Y0078780D01*
X0077266Y0077782D02*
X0078235Y0077782D01*
X0078235Y0076783D02*
X0077266Y0076783D01*
X0077266Y0075784D02*
X0078235Y0075784D01*
X0078235Y0074786D02*
X0077266Y0074786D01*
X0073282Y0081776D02*
X0066361Y0081776D01*
X0067359Y0082774D02*
X0073282Y0082774D01*
X0073282Y0083773D02*
X0068358Y0083773D01*
X0069356Y0084771D02*
X0073357Y0084771D01*
X0073665Y0085770D02*
X0070355Y0085770D01*
X0071354Y0086768D02*
X0074278Y0086768D01*
X0075409Y0087767D02*
X0072352Y0087767D01*
X0073351Y0088765D02*
X0083735Y0088765D01*
X0083735Y0089764D02*
X0074349Y0089764D01*
X0093435Y0099100D02*
X0096435Y0099100D01*
X0096435Y0094600D01*
X0093435Y0094600D01*
X0093435Y0099100D01*
X0093435Y0095599D02*
X0096435Y0095599D01*
X0096435Y0096598D02*
X0093435Y0096598D01*
X0093435Y0097597D02*
X0096435Y0097597D01*
X0096435Y0098596D02*
X0093435Y0098596D01*
X0094935Y0096850D02*
X0094935Y0104850D01*
X0095203Y0109734D02*
X0089135Y0109734D01*
X0089135Y0110732D02*
X0094935Y0110732D01*
X0097935Y0113728D02*
X0098935Y0113728D01*
X0098935Y0114726D02*
X0097935Y0114726D01*
X0097935Y0115725D02*
X0098935Y0115725D01*
X0105420Y0107737D02*
X0108060Y0107737D01*
X0107495Y0106738D02*
X0105435Y0106738D01*
X0105435Y0105740D02*
X0106497Y0105740D01*
X0105498Y0104741D02*
X0105435Y0104741D01*
X0105435Y0103743D02*
X0105435Y0103743D01*
X0105435Y0102744D02*
X0105435Y0102744D01*
X0105435Y0101746D02*
X0105202Y0101746D01*
X0105435Y0100747D02*
X0104617Y0100747D01*
X0103935Y0101100D02*
X0103935Y0101100D01*
X0105435Y0099749D02*
X0105435Y0099749D01*
X0105435Y0098750D02*
X0105435Y0098750D01*
X0105435Y0097752D02*
X0105435Y0097752D01*
X0105435Y0096753D02*
X0105435Y0096753D01*
X0105435Y0095755D02*
X0105435Y0095755D01*
X0105435Y0094756D02*
X0105701Y0094756D01*
X0105422Y0093758D02*
X0106699Y0093758D01*
X0107698Y0092759D02*
X0104423Y0092759D01*
X0105898Y0091761D02*
X0108696Y0091761D01*
X0109695Y0090762D02*
X0106235Y0090762D01*
X0102176Y0087850D02*
X0114435Y0087850D01*
X0114607Y0089850D02*
X0114607Y0089850D01*
X0102176Y0087850D02*
X0101935Y0087090D01*
X0101935Y0096850D01*
X0100435Y0099100D02*
X0103435Y0099100D01*
X0103435Y0094600D01*
X0100435Y0094600D01*
X0100435Y0099100D01*
X0100435Y0095599D02*
X0103435Y0095599D01*
X0103435Y0096598D02*
X0100435Y0096598D01*
X0100435Y0097597D02*
X0103435Y0097597D01*
X0103435Y0098596D02*
X0100435Y0098596D01*
X0101935Y0096850D02*
X0101935Y0104850D01*
X0099935Y0101100D02*
X0099935Y0101100D01*
X0109435Y0102744D02*
X0110160Y0102744D01*
X0110157Y0103743D02*
X0115435Y0103743D01*
X0115435Y0102744D02*
X0114710Y0102744D01*
X0114193Y0104741D02*
X0115498Y0104741D01*
X0136435Y0116850D02*
X0136435Y0129850D01*
X0139435Y0132850D01*
X0151435Y0132850D01*
X0152235Y0121716D02*
X0161993Y0121716D01*
X0162992Y0120718D02*
X0152235Y0120718D01*
X0144670Y0117722D02*
X0144200Y0117722D01*
X0142920Y0107737D02*
X0141951Y0107737D01*
X0141951Y0106738D02*
X0142920Y0106738D01*
X0142920Y0105740D02*
X0141951Y0105740D01*
X0141951Y0104741D02*
X0142920Y0104741D01*
X0155347Y0087767D02*
X0160342Y0087767D01*
X0160660Y0086768D02*
X0156346Y0086768D01*
X0165435Y0078850D02*
X0202435Y0078850D01*
X0203435Y0079850D01*
X0215407Y0074786D02*
X0232671Y0074786D01*
X0233669Y0073787D02*
X0216860Y0073787D01*
X0217385Y0072789D02*
X0234668Y0072789D01*
X0235667Y0071790D02*
X0217520Y0071790D01*
X0217335Y0070792D02*
X0236665Y0070792D01*
X0237664Y0069793D02*
X0216741Y0069793D01*
X0215119Y0068795D02*
X0238662Y0068795D01*
X0239661Y0067796D02*
X0172210Y0067796D01*
X0173209Y0068795D02*
X0213751Y0068795D01*
X0212130Y0069793D02*
X0174207Y0069793D01*
X0173435Y0071850D02*
X0214435Y0071850D01*
X0206326Y0056813D02*
X0200501Y0056813D01*
X0200777Y0056672D02*
X0200151Y0056991D01*
X0199482Y0057208D01*
X0198920Y0057297D01*
X0198920Y0053334D01*
X0202883Y0053334D01*
X0202794Y0053896D01*
X0202577Y0054565D01*
X0202257Y0055192D01*
X0201844Y0055761D01*
X0201346Y0056258D01*
X0200777Y0056672D01*
X0201791Y0055814D02*
X0205080Y0055814D01*
X0204413Y0054816D02*
X0202449Y0054816D01*
X0202806Y0053817D02*
X0203999Y0053817D01*
X0203967Y0052819D02*
X0198920Y0052819D01*
X0198920Y0052366D02*
X0198920Y0053334D01*
X0197951Y0053334D01*
X0197951Y0052366D01*
X0193988Y0052366D01*
X0194077Y0051804D01*
X0194294Y0051135D01*
X0194614Y0050508D01*
X0195027Y0049939D01*
X0195524Y0049442D01*
X0196093Y0049028D01*
X0196720Y0048709D01*
X0197389Y0048492D01*
X0197951Y0048402D01*
X0197951Y0052366D01*
X0198920Y0052366D01*
X0202883Y0052366D01*
X0202794Y0051804D01*
X0202577Y0051135D01*
X0202257Y0050508D01*
X0201844Y0049939D01*
X0201346Y0049442D01*
X0200777Y0049028D01*
X0200151Y0048709D01*
X0199482Y0048492D01*
X0198920Y0048402D01*
X0198920Y0052366D01*
X0198920Y0051820D02*
X0197951Y0051820D01*
X0197951Y0050822D02*
X0198920Y0050822D01*
X0198920Y0049823D02*
X0197951Y0049823D01*
X0197951Y0048825D02*
X0198920Y0048825D01*
X0200378Y0048825D02*
X0201582Y0048825D01*
X0201728Y0049823D02*
X0202580Y0049823D01*
X0202417Y0050822D02*
X0203579Y0050822D01*
X0204025Y0051820D02*
X0202796Y0051820D01*
X0198920Y0053817D02*
X0197951Y0053817D01*
X0197951Y0053334D02*
X0197951Y0057297D01*
X0197389Y0057208D01*
X0196720Y0056991D01*
X0196093Y0056672D01*
X0195524Y0056258D01*
X0195027Y0055761D01*
X0194614Y0055192D01*
X0194294Y0054565D01*
X0194077Y0053896D01*
X0193988Y0053334D01*
X0197951Y0053334D01*
X0197951Y0052819D02*
X0192904Y0052819D01*
X0192904Y0051961D02*
X0192224Y0050319D01*
X0190967Y0049062D01*
X0189324Y0048381D01*
X0187547Y0048381D01*
X0185904Y0049062D01*
X0184647Y0050319D01*
X0183967Y0051961D01*
X0183967Y0053739D01*
X0184647Y0055381D01*
X0185904Y0056638D01*
X0187547Y0057318D01*
X0189324Y0057318D01*
X0190967Y0056638D01*
X0192224Y0055381D01*
X0192904Y0053739D01*
X0192904Y0051961D01*
X0192845Y0051820D02*
X0194074Y0051820D01*
X0194454Y0050822D02*
X0192432Y0050822D01*
X0191728Y0049823D02*
X0195143Y0049823D01*
X0196493Y0048825D02*
X0190394Y0048825D01*
X0186477Y0048825D02*
X0180394Y0048825D01*
X0180967Y0049062D02*
X0182224Y0050319D01*
X0182904Y0051961D01*
X0182904Y0053739D01*
X0182224Y0055381D01*
X0180967Y0056638D01*
X0179324Y0057318D01*
X0177547Y0057318D01*
X0175904Y0056638D01*
X0174647Y0055381D01*
X0173967Y0053739D01*
X0173967Y0051961D01*
X0174647Y0050319D01*
X0175904Y0049062D01*
X0177547Y0048381D01*
X0179324Y0048381D01*
X0180967Y0049062D01*
X0181728Y0049823D02*
X0185143Y0049823D01*
X0184439Y0050822D02*
X0182432Y0050822D01*
X0182845Y0051820D02*
X0184025Y0051820D01*
X0183967Y0052819D02*
X0182904Y0052819D01*
X0182871Y0053817D02*
X0183999Y0053817D01*
X0184413Y0054816D02*
X0182458Y0054816D01*
X0181791Y0055814D02*
X0185080Y0055814D01*
X0186326Y0056813D02*
X0180545Y0056813D01*
X0176326Y0056813D02*
X0172531Y0056813D01*
X0172904Y0056440D02*
X0172025Y0057318D01*
X0164846Y0057318D01*
X0163967Y0056440D01*
X0163967Y0049260D01*
X0164846Y0048381D01*
X0172025Y0048381D01*
X0172904Y0049260D01*
X0172904Y0056440D01*
X0172904Y0055814D02*
X0175080Y0055814D01*
X0174413Y0054816D02*
X0172904Y0054816D01*
X0172904Y0053817D02*
X0173999Y0053817D01*
X0173967Y0052819D02*
X0172904Y0052819D01*
X0172904Y0051820D02*
X0174025Y0051820D01*
X0174439Y0050822D02*
X0172904Y0050822D01*
X0172904Y0049823D02*
X0175143Y0049823D01*
X0176477Y0048825D02*
X0172468Y0048825D01*
X0168735Y0046828D02*
X0168135Y0046828D01*
X0168135Y0045829D02*
X0168735Y0045829D01*
X0168735Y0044831D02*
X0168135Y0044831D01*
X0168135Y0043832D02*
X0168735Y0043832D01*
X0168135Y0042834D02*
X0162935Y0042834D01*
X0162899Y0043832D02*
X0164035Y0043832D01*
X0164394Y0044831D02*
X0162486Y0044831D01*
X0161820Y0045829D02*
X0165051Y0045829D01*
X0166330Y0046828D02*
X0160591Y0046828D01*
X0161128Y0048825D02*
X0164402Y0048825D01*
X0163967Y0049823D02*
X0162126Y0049823D01*
X0162737Y0050822D02*
X0163967Y0050822D01*
X0163967Y0051820D02*
X0163150Y0051820D01*
X0163185Y0052819D02*
X0163967Y0052819D01*
X0163967Y0053817D02*
X0163176Y0053817D01*
X0162763Y0054816D02*
X0163967Y0054816D01*
X0163967Y0055814D02*
X0162189Y0055814D01*
X0161190Y0056813D02*
X0164340Y0056813D01*
X0168740Y0064801D02*
X0241123Y0064801D01*
X0240532Y0065799D02*
X0169739Y0065799D01*
X0170214Y0066798D02*
X0240351Y0066798D01*
X0240394Y0048825D02*
X0241435Y0048825D01*
X0215226Y0033847D02*
X0167684Y0033847D01*
X0163435Y0035350D02*
X0147435Y0035350D01*
X0149685Y0036850D02*
X0149685Y0033850D01*
X0145185Y0033850D01*
X0145185Y0036850D01*
X0149685Y0036850D01*
X0149685Y0034849D02*
X0145185Y0034849D01*
X0145185Y0035848D02*
X0149685Y0035848D01*
X0149685Y0036847D02*
X0145185Y0036847D01*
X0147435Y0042350D02*
X0136935Y0042350D01*
X0136435Y0041850D01*
X0130172Y0038840D02*
X0064698Y0038840D01*
X0065697Y0037841D02*
X0129174Y0037841D01*
X0101676Y0054816D02*
X0100676Y0054816D01*
X0100676Y0055814D02*
X0101676Y0055814D01*
X0101676Y0056813D02*
X0100676Y0056813D01*
X0100676Y0057811D02*
X0101676Y0057811D01*
X0097577Y0054816D02*
X0097294Y0054816D01*
X0090096Y0054816D02*
X0089135Y0054816D01*
X0089135Y0055814D02*
X0089636Y0055814D01*
X0089636Y0056813D02*
X0089135Y0056813D01*
X0089135Y0057811D02*
X0089636Y0057811D01*
X0089636Y0058810D02*
X0089135Y0058810D01*
X0089716Y0062804D02*
X0090016Y0062804D01*
X0089716Y0063802D02*
X0091395Y0063802D01*
X0091395Y0064801D02*
X0089168Y0064801D01*
X0083703Y0064801D02*
X0079639Y0064801D01*
X0078640Y0063802D02*
X0083154Y0063802D01*
X0083154Y0062804D02*
X0077642Y0062804D01*
X0076643Y0061805D02*
X0083154Y0061805D01*
X0083154Y0060807D02*
X0075645Y0060807D01*
X0074646Y0059808D02*
X0083154Y0059808D01*
X0083735Y0058810D02*
X0073648Y0058810D01*
X0072649Y0057811D02*
X0083735Y0057811D01*
X0083735Y0056813D02*
X0071651Y0056813D01*
X0070652Y0055814D02*
X0083735Y0055814D01*
X0083735Y0054816D02*
X0069654Y0054816D01*
X0068655Y0053817D02*
X0083735Y0053817D01*
X0083735Y0052819D02*
X0067657Y0052819D01*
X0064982Y0051820D02*
X0083735Y0051820D01*
X0083735Y0050822D02*
X0063861Y0050822D01*
X0065050Y0057811D02*
X0066144Y0057811D01*
X0067143Y0058810D02*
X0064027Y0058810D01*
X0097374Y0062804D02*
X0097496Y0062804D01*
X0161787Y0039838D02*
X0162512Y0039838D01*
X0162472Y0040837D02*
X0164411Y0040837D01*
X0164359Y0039838D02*
X0165083Y0039838D01*
X0166310Y0038840D02*
X0166394Y0038840D01*
X0164040Y0041835D02*
X0162886Y0041835D01*
X0171787Y0039838D02*
X0191062Y0039838D01*
X0192586Y0040837D02*
X0172460Y0040837D01*
X0172831Y0041835D02*
X0194592Y0041835D01*
X0193435Y0037850D02*
X0208435Y0052850D01*
X0198920Y0054816D02*
X0197951Y0054816D01*
X0197951Y0055814D02*
X0198920Y0055814D01*
X0198920Y0056813D02*
X0197951Y0056813D01*
X0196370Y0056813D02*
X0190545Y0056813D01*
X0191791Y0055814D02*
X0195080Y0055814D01*
X0194422Y0054816D02*
X0192458Y0054816D01*
X0192871Y0053817D02*
X0194064Y0053817D01*
X0173435Y0071850D02*
X0170435Y0068850D01*
X0165435Y0068850D01*
X0167157Y0129704D02*
X0167753Y0129704D01*
X0170414Y0132700D02*
X0174494Y0132700D01*
X0172706Y0133698D02*
X0169416Y0133698D01*
X0168417Y0134697D02*
X0171907Y0134697D01*
X0171489Y0135695D02*
X0167419Y0135695D01*
X0128292Y0135695D02*
X0120579Y0135695D01*
X0122633Y0136694D02*
X0126238Y0136694D01*
X0125239Y0137692D02*
X0123631Y0137692D01*
X0124169Y0138691D02*
X0124701Y0138691D01*
X0118292Y0135695D02*
X0114085Y0135695D01*
X0114085Y0136694D02*
X0116238Y0136694D01*
X0115239Y0137692D02*
X0113669Y0137692D01*
X0112671Y0138691D02*
X0114701Y0138691D01*
X0114288Y0139689D02*
X0111851Y0139689D01*
X0112849Y0140688D02*
X0114235Y0140688D01*
X0114235Y0141686D02*
X0113848Y0141686D01*
X0114085Y0142685D02*
X0114567Y0142685D01*
X0114981Y0143683D02*
X0109735Y0143683D01*
X0114085Y0144682D02*
X0115913Y0144682D01*
X0107020Y0139689D02*
X0106022Y0139689D01*
X0103185Y0139689D02*
X0102512Y0139689D01*
X0102512Y0140688D02*
X0103185Y0140688D01*
X0103185Y0141686D02*
X0102512Y0141686D01*
X0102512Y0142685D02*
X0103185Y0142685D01*
X0103185Y0143683D02*
X0102512Y0143683D01*
X0100904Y0144682D02*
X0104785Y0144682D01*
X0020813Y0062804D02*
X0019435Y0062804D01*
X0019435Y0061805D02*
X0019815Y0061805D01*
X0019785Y0060807D02*
X0019435Y0060807D01*
X0291645Y0033847D02*
X0310409Y0033847D01*
X0309410Y0034846D02*
X0292643Y0034846D01*
X0293125Y0035844D02*
X0308653Y0035844D01*
X0308239Y0036843D02*
X0293535Y0036843D01*
X0293535Y0037841D02*
X0307826Y0037841D01*
X0307636Y0038840D02*
X0299227Y0038840D01*
X0297644Y0038840D02*
X0293535Y0038840D01*
X0293676Y0039838D02*
X0296085Y0039838D01*
X0295517Y0040837D02*
X0294675Y0040837D01*
X0298435Y0041850D02*
X0298435Y0052850D01*
X0302904Y0052819D02*
X0303967Y0052819D01*
X0303967Y0051961D02*
X0304647Y0050319D01*
X0305904Y0049062D01*
X0307547Y0048381D01*
X0309324Y0048381D01*
X0310967Y0049062D01*
X0312224Y0050319D01*
X0312904Y0051961D01*
X0312904Y0053739D01*
X0312224Y0055381D01*
X0310967Y0056638D01*
X0309324Y0057318D01*
X0307547Y0057318D01*
X0305904Y0056638D01*
X0304647Y0055381D01*
X0303967Y0053739D01*
X0303967Y0051961D01*
X0304025Y0051820D02*
X0302845Y0051820D01*
X0302432Y0050822D02*
X0304439Y0050822D01*
X0305143Y0049823D02*
X0301728Y0049823D01*
X0300435Y0048825D02*
X0306477Y0048825D01*
X0310385Y0045829D02*
X0300435Y0045829D01*
X0300435Y0044831D02*
X0309386Y0044831D01*
X0308643Y0043832D02*
X0300815Y0043832D01*
X0301366Y0042834D02*
X0308229Y0042834D01*
X0307816Y0041835D02*
X0301520Y0041835D01*
X0301354Y0040837D02*
X0307636Y0040837D01*
X0307636Y0039838D02*
X0300785Y0039838D01*
X0300435Y0046828D02*
X0311901Y0046828D01*
X0310394Y0048825D02*
X0315743Y0048825D01*
X0314745Y0049823D02*
X0311728Y0049823D01*
X0312432Y0050822D02*
X0314134Y0050822D01*
X0313721Y0051820D02*
X0312845Y0051820D01*
X0312904Y0052819D02*
X0313685Y0052819D01*
X0313695Y0053817D02*
X0312871Y0053817D01*
X0312458Y0054816D02*
X0314108Y0054816D01*
X0314682Y0055814D02*
X0311791Y0055814D01*
X0310545Y0056813D02*
X0315681Y0056813D01*
X0306326Y0056813D02*
X0300545Y0056813D01*
X0301791Y0055814D02*
X0305080Y0055814D01*
X0304413Y0054816D02*
X0302458Y0054816D01*
X0302871Y0053817D02*
X0303999Y0053817D01*
X0300435Y0047826D02*
X0321935Y0047826D01*
X0321935Y0046828D02*
X0318970Y0046828D01*
X0320486Y0045829D02*
X0321935Y0045829D01*
X0321935Y0044831D02*
X0321484Y0044831D01*
X0321128Y0048825D02*
X0321935Y0048825D01*
X0298123Y0064801D02*
X0295735Y0064801D01*
X0295735Y0065799D02*
X0297532Y0065799D01*
X0321279Y0116723D02*
X0321935Y0116723D01*
X0303516Y0138691D02*
X0301105Y0138691D01*
X0302103Y0139689D02*
X0302518Y0139689D01*
X0311435Y0140600D02*
X0314435Y0140600D01*
X0311435Y0140600D02*
X0311435Y0145100D01*
X0314435Y0145100D01*
X0314435Y0140600D01*
X0314435Y0141599D02*
X0311435Y0141599D01*
X0311435Y0142598D02*
X0314435Y0142598D01*
X0314435Y0143597D02*
X0311435Y0143597D01*
X0311435Y0144596D02*
X0314435Y0144596D01*
X0314435Y0151350D02*
X0305069Y0151350D01*
X0303435Y0150716D01*
X0303435Y0158984D02*
X0297302Y0158984D01*
X0295435Y0160850D01*
X0294514Y0169228D02*
X0309057Y0169228D01*
X0314435Y0163850D01*
X0314435Y0158350D01*
X0316685Y0159850D02*
X0316685Y0156850D01*
X0312185Y0156850D01*
X0312185Y0159850D01*
X0316685Y0159850D01*
X0316685Y0157849D02*
X0312185Y0157849D01*
X0312185Y0158848D02*
X0316685Y0158848D01*
X0316685Y0159847D02*
X0312185Y0159847D01*
X0316685Y0152850D02*
X0316685Y0149850D01*
X0312185Y0149850D01*
X0312185Y0152850D01*
X0316685Y0152850D01*
X0316685Y0150849D02*
X0312185Y0150849D01*
X0312185Y0151848D02*
X0316685Y0151848D01*
X0316685Y0152847D02*
X0312185Y0152847D01*
D19*
X0102849Y0138850D03*
X0092022Y0138850D03*
D20*
X0097435Y0132846D03*
X0097435Y0144854D03*
D21*
X0159483Y0169228D03*
X0215388Y0192850D03*
X0246483Y0169228D03*
X0302388Y0192850D03*
X0246483Y0216472D03*
X0159483Y0216472D03*
D22*
X0207514Y0216472D03*
X0207514Y0169228D03*
X0294514Y0169228D03*
X0294514Y0216472D03*
D23*
X0286135Y0237950D02*
X0286135Y0245750D01*
X0266435Y0245750D02*
X0266435Y0237950D01*
X0246735Y0237950D02*
X0246735Y0245750D01*
X0199135Y0245750D02*
X0199135Y0237950D01*
X0179435Y0237950D02*
X0179435Y0245750D01*
X0159735Y0245750D02*
X0159735Y0237950D01*
X0052335Y0248950D02*
X0052335Y0256750D01*
X0032535Y0256750D02*
X0032535Y0248950D01*
D24*
X0189435Y0158984D03*
X0189435Y0150716D03*
X0303435Y0150716D03*
X0303435Y0158984D03*
D25*
X0288435Y0127850D03*
X0278435Y0127850D03*
X0268435Y0127850D03*
X0258435Y0127850D03*
X0248435Y0127850D03*
X0238435Y0127850D03*
X0228435Y0127850D03*
X0218435Y0127850D03*
X0218435Y0037850D03*
X0228435Y0037850D03*
X0238435Y0037850D03*
X0248435Y0037850D03*
X0258435Y0037850D03*
X0268435Y0037850D03*
X0278435Y0037850D03*
X0288435Y0037850D03*
D26*
X0077750Y0078007D02*
X0077750Y0083944D01*
X0017120Y0083944D02*
X0017120Y0078007D01*
X0037593Y0193756D02*
X0037593Y0199693D01*
X0057278Y0199693D02*
X0057278Y0193756D01*
D27*
X0032254Y0224173D02*
X0028294Y0228133D01*
X0014576Y0213567D02*
X0010617Y0217527D01*
X0175635Y0146850D02*
X0181235Y0146850D01*
X0181235Y0136850D02*
X0175635Y0136850D01*
X0050235Y0047850D02*
X0044635Y0047850D01*
X0036235Y0047850D02*
X0030635Y0047850D01*
X0030635Y0037850D02*
X0036235Y0037850D01*
X0044635Y0037850D02*
X0050235Y0037850D01*
D28*
X0071435Y0239850D02*
X0077435Y0239850D01*
X0077435Y0259850D02*
X0071435Y0259850D01*
D29*
X0119435Y0140850D03*
X0129435Y0140850D03*
X0139435Y0140850D03*
X0149435Y0140850D03*
X0165435Y0098850D03*
X0165435Y0088850D03*
X0165435Y0078850D03*
X0165435Y0068850D03*
X0233435Y0140850D03*
X0243435Y0140850D03*
X0253435Y0140850D03*
X0263435Y0140850D03*
D30*
X0122274Y0082366D03*
X0119715Y0082366D03*
X0117156Y0082366D03*
X0114597Y0082366D03*
X0114597Y0059334D03*
X0117156Y0059334D03*
X0119715Y0059334D03*
X0122274Y0059334D03*
D31*
X0108435Y0068110D03*
X0108435Y0075590D03*
D32*
X0081435Y0225850D03*
X0041435Y0225850D03*
D33*
X0158435Y0042850D03*
X0163435Y0035350D03*
X0168435Y0042850D03*
D34*
X0147435Y0035350D03*
X0156435Y0061850D03*
X0147435Y0069850D03*
X0144435Y0063850D03*
X0135935Y0063850D03*
X0135935Y0072350D03*
X0134435Y0084850D03*
X0156435Y0104850D03*
X0136435Y0116850D03*
X0125335Y0116850D03*
X0102176Y0079850D03*
X0102176Y0068110D03*
X0114597Y0064250D03*
X0178435Y0104850D03*
X0183435Y0093850D03*
X0193435Y0094850D03*
X0183435Y0082850D03*
X0203435Y0079850D03*
X0214435Y0071850D03*
X0243435Y0066850D03*
X0273435Y0061850D03*
X0298435Y0041850D03*
X0300435Y0066850D03*
X0293435Y0098850D03*
X0263435Y0118850D03*
X0253435Y0118850D03*
X0295435Y0160850D03*
X0314435Y0135850D03*
X0227435Y0168850D03*
X0195435Y0177850D03*
X0189435Y0158850D03*
X0200435Y0136850D03*
X0182435Y0123850D03*
X0193435Y0037850D03*
D35*
X0156435Y0061850D02*
X0148435Y0053850D01*
X0136435Y0041850D01*
X0129435Y0034850D01*
X0065435Y0034850D01*
X0057435Y0042850D01*
X0038435Y0042850D01*
X0033435Y0047850D01*
X0061435Y0054850D02*
X0066435Y0054850D01*
X0079435Y0067850D01*
X0093435Y0067850D01*
X0093695Y0067590D01*
X0093695Y0058850D01*
X0093435Y0067850D02*
X0102435Y0067850D01*
X0102176Y0068110D01*
X0102435Y0067850D02*
X0124435Y0067850D01*
X0128435Y0067850D01*
X0128935Y0067350D01*
X0128935Y0059350D01*
X0128435Y0067850D02*
X0145435Y0067850D01*
X0147435Y0069850D01*
X0102176Y0079850D02*
X0102176Y0087850D01*
X0148176Y0121850D02*
X0148435Y0122110D01*
X0148435Y0125850D01*
X0154971Y0132386D01*
X0157900Y0132386D01*
X0154435Y0149850D02*
X0170435Y0149850D01*
X0175435Y0154850D01*
X0193435Y0154850D01*
X0194435Y0155850D01*
X0194435Y0158850D01*
X0194935Y0158350D01*
X0200435Y0158350D01*
X0194435Y0158850D02*
X0194435Y0161850D01*
X0201813Y0169228D01*
X0207514Y0169228D01*
X0224435Y0169228D01*
X0224435Y0153850D01*
X0231435Y0146850D01*
X0264435Y0146850D01*
X0267435Y0146850D01*
X0271435Y0150850D01*
X0271435Y0163850D01*
X0276813Y0169228D01*
X0294514Y0169228D01*
X0264435Y0146850D02*
X0263435Y0145850D01*
X0263435Y0140850D01*
X0298435Y0112850D02*
X0298435Y0103850D01*
X0293435Y0098850D01*
X0293435Y0042850D01*
X0288435Y0037850D01*
X0198435Y0107850D02*
X0198435Y0112850D01*
X0198435Y0107850D02*
X0193435Y0102850D01*
X0193435Y0094850D01*
X0224435Y0169228D02*
X0227057Y0169228D01*
X0227435Y0168850D01*
D36*
X0086435Y0078850D03*
X0086435Y0061850D03*
X0086435Y0042850D03*
D37*
X0086435Y0061850D01*
X0086435Y0078850D02*
X0086435Y0144850D01*
X0091435Y0149850D01*
X0154435Y0149850D01*
D38*
X0159483Y0169228D02*
X0159483Y0173803D01*
X0159435Y0173850D01*
X0198435Y0231850D01*
X0199135Y0232550D01*
X0199135Y0241850D01*
X0159735Y0241850D02*
X0159735Y0216725D01*
X0159483Y0216472D01*
X0081435Y0225850D02*
X0074435Y0231850D01*
X0074435Y0239850D01*
X0032535Y0252850D02*
X0024435Y0252850D01*
X0012597Y0241011D01*
X0012597Y0215547D01*
X0012597Y0205689D01*
X0020435Y0197850D01*
X0037467Y0197850D01*
X0037593Y0196724D01*
X0246483Y0216472D02*
X0246735Y0216725D01*
X0246735Y0241850D01*
X0285435Y0236850D02*
X0246435Y0173850D01*
X0246435Y0172850D01*
X0246483Y0172803D01*
X0246483Y0171897D01*
X0246435Y0171850D01*
X0246483Y0169228D01*
X0285435Y0236850D02*
X0286135Y0237550D01*
X0286135Y0241850D01*
D39*
X0233435Y0094850D03*
M02*
