G75*
%MOIN*%
%OFA0B0*%
%FSLAX25Y25*%
%IPPOS*%
%LPD*%
%AMOC8*
5,1,8,0,0,1.08239X$1,22.5*
%
%ADD10C,0.00000*%
%ADD11R,0.05937X0.05937*%
%ADD12C,0.05937*%
%ADD13C,0.01260*%
%ADD14C,0.06300*%
%ADD15R,0.05906X0.05118*%
%ADD16OC8,0.06300*%
%ADD17R,0.05118X0.05906*%
%ADD18R,0.04500X0.04000*%
%ADD19C,0.01000*%
%ADD20R,0.08600X0.08600*%
%ADD21C,0.07000*%
%ADD22C,0.07800*%
%ADD23R,0.04724X0.04724*%
%ADD24C,0.07200*%
%ADD25C,0.05937*%
%ADD26C,0.05600*%
%ADD27C,0.06000*%
%ADD28R,0.01378X0.04724*%
%ADD29OC8,0.07600*%
%ADD30C,0.06000*%
%ADD31R,0.06000X0.03000*%
%ADD32C,0.02067*%
%ADD33C,0.01969*%
%ADD34R,0.06500X0.06500*%
%ADD35C,0.06500*%
%ADD36OC8,0.05937*%
%ADD37R,0.04000X0.04500*%
%ADD38R,0.04000X0.04000*%
%ADD39C,0.03169*%
%ADD40R,0.03562X0.03562*%
%ADD41C,0.01600*%
%ADD42C,0.07600*%
%ADD43C,0.03562*%
D10*
X0002000Y0031850D02*
X0319000Y0031850D01*
X0319000Y0267850D01*
X0002000Y0267850D01*
X0002000Y0031850D01*
X0003701Y0039850D02*
X0003703Y0040008D01*
X0003709Y0040166D01*
X0003719Y0040324D01*
X0003733Y0040482D01*
X0003751Y0040639D01*
X0003772Y0040796D01*
X0003798Y0040952D01*
X0003828Y0041108D01*
X0003861Y0041263D01*
X0003899Y0041416D01*
X0003940Y0041569D01*
X0003985Y0041721D01*
X0004034Y0041872D01*
X0004087Y0042021D01*
X0004143Y0042169D01*
X0004203Y0042315D01*
X0004267Y0042460D01*
X0004335Y0042603D01*
X0004406Y0042745D01*
X0004480Y0042885D01*
X0004558Y0043022D01*
X0004640Y0043158D01*
X0004724Y0043292D01*
X0004813Y0043423D01*
X0004904Y0043552D01*
X0004999Y0043679D01*
X0005096Y0043804D01*
X0005197Y0043926D01*
X0005301Y0044045D01*
X0005408Y0044162D01*
X0005518Y0044276D01*
X0005631Y0044387D01*
X0005746Y0044496D01*
X0005864Y0044601D01*
X0005985Y0044703D01*
X0006108Y0044803D01*
X0006234Y0044899D01*
X0006362Y0044992D01*
X0006492Y0045082D01*
X0006625Y0045168D01*
X0006760Y0045252D01*
X0006896Y0045331D01*
X0007035Y0045408D01*
X0007176Y0045480D01*
X0007318Y0045550D01*
X0007462Y0045615D01*
X0007608Y0045677D01*
X0007755Y0045735D01*
X0007904Y0045790D01*
X0008054Y0045841D01*
X0008205Y0045888D01*
X0008357Y0045931D01*
X0008510Y0045970D01*
X0008665Y0046006D01*
X0008820Y0046037D01*
X0008976Y0046065D01*
X0009132Y0046089D01*
X0009289Y0046109D01*
X0009447Y0046125D01*
X0009604Y0046137D01*
X0009763Y0046145D01*
X0009921Y0046149D01*
X0010079Y0046149D01*
X0010237Y0046145D01*
X0010396Y0046137D01*
X0010553Y0046125D01*
X0010711Y0046109D01*
X0010868Y0046089D01*
X0011024Y0046065D01*
X0011180Y0046037D01*
X0011335Y0046006D01*
X0011490Y0045970D01*
X0011643Y0045931D01*
X0011795Y0045888D01*
X0011946Y0045841D01*
X0012096Y0045790D01*
X0012245Y0045735D01*
X0012392Y0045677D01*
X0012538Y0045615D01*
X0012682Y0045550D01*
X0012824Y0045480D01*
X0012965Y0045408D01*
X0013104Y0045331D01*
X0013240Y0045252D01*
X0013375Y0045168D01*
X0013508Y0045082D01*
X0013638Y0044992D01*
X0013766Y0044899D01*
X0013892Y0044803D01*
X0014015Y0044703D01*
X0014136Y0044601D01*
X0014254Y0044496D01*
X0014369Y0044387D01*
X0014482Y0044276D01*
X0014592Y0044162D01*
X0014699Y0044045D01*
X0014803Y0043926D01*
X0014904Y0043804D01*
X0015001Y0043679D01*
X0015096Y0043552D01*
X0015187Y0043423D01*
X0015276Y0043292D01*
X0015360Y0043158D01*
X0015442Y0043022D01*
X0015520Y0042885D01*
X0015594Y0042745D01*
X0015665Y0042603D01*
X0015733Y0042460D01*
X0015797Y0042315D01*
X0015857Y0042169D01*
X0015913Y0042021D01*
X0015966Y0041872D01*
X0016015Y0041721D01*
X0016060Y0041569D01*
X0016101Y0041416D01*
X0016139Y0041263D01*
X0016172Y0041108D01*
X0016202Y0040952D01*
X0016228Y0040796D01*
X0016249Y0040639D01*
X0016267Y0040482D01*
X0016281Y0040324D01*
X0016291Y0040166D01*
X0016297Y0040008D01*
X0016299Y0039850D01*
X0016297Y0039692D01*
X0016291Y0039534D01*
X0016281Y0039376D01*
X0016267Y0039218D01*
X0016249Y0039061D01*
X0016228Y0038904D01*
X0016202Y0038748D01*
X0016172Y0038592D01*
X0016139Y0038437D01*
X0016101Y0038284D01*
X0016060Y0038131D01*
X0016015Y0037979D01*
X0015966Y0037828D01*
X0015913Y0037679D01*
X0015857Y0037531D01*
X0015797Y0037385D01*
X0015733Y0037240D01*
X0015665Y0037097D01*
X0015594Y0036955D01*
X0015520Y0036815D01*
X0015442Y0036678D01*
X0015360Y0036542D01*
X0015276Y0036408D01*
X0015187Y0036277D01*
X0015096Y0036148D01*
X0015001Y0036021D01*
X0014904Y0035896D01*
X0014803Y0035774D01*
X0014699Y0035655D01*
X0014592Y0035538D01*
X0014482Y0035424D01*
X0014369Y0035313D01*
X0014254Y0035204D01*
X0014136Y0035099D01*
X0014015Y0034997D01*
X0013892Y0034897D01*
X0013766Y0034801D01*
X0013638Y0034708D01*
X0013508Y0034618D01*
X0013375Y0034532D01*
X0013240Y0034448D01*
X0013104Y0034369D01*
X0012965Y0034292D01*
X0012824Y0034220D01*
X0012682Y0034150D01*
X0012538Y0034085D01*
X0012392Y0034023D01*
X0012245Y0033965D01*
X0012096Y0033910D01*
X0011946Y0033859D01*
X0011795Y0033812D01*
X0011643Y0033769D01*
X0011490Y0033730D01*
X0011335Y0033694D01*
X0011180Y0033663D01*
X0011024Y0033635D01*
X0010868Y0033611D01*
X0010711Y0033591D01*
X0010553Y0033575D01*
X0010396Y0033563D01*
X0010237Y0033555D01*
X0010079Y0033551D01*
X0009921Y0033551D01*
X0009763Y0033555D01*
X0009604Y0033563D01*
X0009447Y0033575D01*
X0009289Y0033591D01*
X0009132Y0033611D01*
X0008976Y0033635D01*
X0008820Y0033663D01*
X0008665Y0033694D01*
X0008510Y0033730D01*
X0008357Y0033769D01*
X0008205Y0033812D01*
X0008054Y0033859D01*
X0007904Y0033910D01*
X0007755Y0033965D01*
X0007608Y0034023D01*
X0007462Y0034085D01*
X0007318Y0034150D01*
X0007176Y0034220D01*
X0007035Y0034292D01*
X0006896Y0034369D01*
X0006760Y0034448D01*
X0006625Y0034532D01*
X0006492Y0034618D01*
X0006362Y0034708D01*
X0006234Y0034801D01*
X0006108Y0034897D01*
X0005985Y0034997D01*
X0005864Y0035099D01*
X0005746Y0035204D01*
X0005631Y0035313D01*
X0005518Y0035424D01*
X0005408Y0035538D01*
X0005301Y0035655D01*
X0005197Y0035774D01*
X0005096Y0035896D01*
X0004999Y0036021D01*
X0004904Y0036148D01*
X0004813Y0036277D01*
X0004724Y0036408D01*
X0004640Y0036542D01*
X0004558Y0036678D01*
X0004480Y0036815D01*
X0004406Y0036955D01*
X0004335Y0037097D01*
X0004267Y0037240D01*
X0004203Y0037385D01*
X0004143Y0037531D01*
X0004087Y0037679D01*
X0004034Y0037828D01*
X0003985Y0037979D01*
X0003940Y0038131D01*
X0003899Y0038284D01*
X0003861Y0038437D01*
X0003828Y0038592D01*
X0003798Y0038748D01*
X0003772Y0038904D01*
X0003751Y0039061D01*
X0003733Y0039218D01*
X0003719Y0039376D01*
X0003709Y0039534D01*
X0003703Y0039692D01*
X0003701Y0039850D01*
X0150750Y0052850D02*
X0150752Y0052963D01*
X0150758Y0053077D01*
X0150768Y0053190D01*
X0150782Y0053302D01*
X0150799Y0053414D01*
X0150821Y0053526D01*
X0150847Y0053636D01*
X0150876Y0053746D01*
X0150909Y0053854D01*
X0150946Y0053962D01*
X0150987Y0054067D01*
X0151031Y0054172D01*
X0151079Y0054275D01*
X0151130Y0054376D01*
X0151185Y0054475D01*
X0151244Y0054572D01*
X0151306Y0054667D01*
X0151371Y0054760D01*
X0151439Y0054851D01*
X0151510Y0054939D01*
X0151585Y0055025D01*
X0151662Y0055108D01*
X0151742Y0055188D01*
X0151825Y0055265D01*
X0151911Y0055340D01*
X0151999Y0055411D01*
X0152090Y0055479D01*
X0152183Y0055544D01*
X0152278Y0055606D01*
X0152375Y0055665D01*
X0152474Y0055720D01*
X0152575Y0055771D01*
X0152678Y0055819D01*
X0152783Y0055863D01*
X0152888Y0055904D01*
X0152996Y0055941D01*
X0153104Y0055974D01*
X0153214Y0056003D01*
X0153324Y0056029D01*
X0153436Y0056051D01*
X0153548Y0056068D01*
X0153660Y0056082D01*
X0153773Y0056092D01*
X0153887Y0056098D01*
X0154000Y0056100D01*
X0154113Y0056098D01*
X0154227Y0056092D01*
X0154340Y0056082D01*
X0154452Y0056068D01*
X0154564Y0056051D01*
X0154676Y0056029D01*
X0154786Y0056003D01*
X0154896Y0055974D01*
X0155004Y0055941D01*
X0155112Y0055904D01*
X0155217Y0055863D01*
X0155322Y0055819D01*
X0155425Y0055771D01*
X0155526Y0055720D01*
X0155625Y0055665D01*
X0155722Y0055606D01*
X0155817Y0055544D01*
X0155910Y0055479D01*
X0156001Y0055411D01*
X0156089Y0055340D01*
X0156175Y0055265D01*
X0156258Y0055188D01*
X0156338Y0055108D01*
X0156415Y0055025D01*
X0156490Y0054939D01*
X0156561Y0054851D01*
X0156629Y0054760D01*
X0156694Y0054667D01*
X0156756Y0054572D01*
X0156815Y0054475D01*
X0156870Y0054376D01*
X0156921Y0054275D01*
X0156969Y0054172D01*
X0157013Y0054067D01*
X0157054Y0053962D01*
X0157091Y0053854D01*
X0157124Y0053746D01*
X0157153Y0053636D01*
X0157179Y0053526D01*
X0157201Y0053414D01*
X0157218Y0053302D01*
X0157232Y0053190D01*
X0157242Y0053077D01*
X0157248Y0052963D01*
X0157250Y0052850D01*
X0157248Y0052737D01*
X0157242Y0052623D01*
X0157232Y0052510D01*
X0157218Y0052398D01*
X0157201Y0052286D01*
X0157179Y0052174D01*
X0157153Y0052064D01*
X0157124Y0051954D01*
X0157091Y0051846D01*
X0157054Y0051738D01*
X0157013Y0051633D01*
X0156969Y0051528D01*
X0156921Y0051425D01*
X0156870Y0051324D01*
X0156815Y0051225D01*
X0156756Y0051128D01*
X0156694Y0051033D01*
X0156629Y0050940D01*
X0156561Y0050849D01*
X0156490Y0050761D01*
X0156415Y0050675D01*
X0156338Y0050592D01*
X0156258Y0050512D01*
X0156175Y0050435D01*
X0156089Y0050360D01*
X0156001Y0050289D01*
X0155910Y0050221D01*
X0155817Y0050156D01*
X0155722Y0050094D01*
X0155625Y0050035D01*
X0155526Y0049980D01*
X0155425Y0049929D01*
X0155322Y0049881D01*
X0155217Y0049837D01*
X0155112Y0049796D01*
X0155004Y0049759D01*
X0154896Y0049726D01*
X0154786Y0049697D01*
X0154676Y0049671D01*
X0154564Y0049649D01*
X0154452Y0049632D01*
X0154340Y0049618D01*
X0154227Y0049608D01*
X0154113Y0049602D01*
X0154000Y0049600D01*
X0153887Y0049602D01*
X0153773Y0049608D01*
X0153660Y0049618D01*
X0153548Y0049632D01*
X0153436Y0049649D01*
X0153324Y0049671D01*
X0153214Y0049697D01*
X0153104Y0049726D01*
X0152996Y0049759D01*
X0152888Y0049796D01*
X0152783Y0049837D01*
X0152678Y0049881D01*
X0152575Y0049929D01*
X0152474Y0049980D01*
X0152375Y0050035D01*
X0152278Y0050094D01*
X0152183Y0050156D01*
X0152090Y0050221D01*
X0151999Y0050289D01*
X0151911Y0050360D01*
X0151825Y0050435D01*
X0151742Y0050512D01*
X0151662Y0050592D01*
X0151585Y0050675D01*
X0151510Y0050761D01*
X0151439Y0050849D01*
X0151371Y0050940D01*
X0151306Y0051033D01*
X0151244Y0051128D01*
X0151185Y0051225D01*
X0151130Y0051324D01*
X0151079Y0051425D01*
X0151031Y0051528D01*
X0150987Y0051633D01*
X0150946Y0051738D01*
X0150909Y0051846D01*
X0150876Y0051954D01*
X0150847Y0052064D01*
X0150821Y0052174D01*
X0150799Y0052286D01*
X0150782Y0052398D01*
X0150768Y0052510D01*
X0150758Y0052623D01*
X0150752Y0052737D01*
X0150750Y0052850D01*
X0150750Y0112850D02*
X0150752Y0112963D01*
X0150758Y0113077D01*
X0150768Y0113190D01*
X0150782Y0113302D01*
X0150799Y0113414D01*
X0150821Y0113526D01*
X0150847Y0113636D01*
X0150876Y0113746D01*
X0150909Y0113854D01*
X0150946Y0113962D01*
X0150987Y0114067D01*
X0151031Y0114172D01*
X0151079Y0114275D01*
X0151130Y0114376D01*
X0151185Y0114475D01*
X0151244Y0114572D01*
X0151306Y0114667D01*
X0151371Y0114760D01*
X0151439Y0114851D01*
X0151510Y0114939D01*
X0151585Y0115025D01*
X0151662Y0115108D01*
X0151742Y0115188D01*
X0151825Y0115265D01*
X0151911Y0115340D01*
X0151999Y0115411D01*
X0152090Y0115479D01*
X0152183Y0115544D01*
X0152278Y0115606D01*
X0152375Y0115665D01*
X0152474Y0115720D01*
X0152575Y0115771D01*
X0152678Y0115819D01*
X0152783Y0115863D01*
X0152888Y0115904D01*
X0152996Y0115941D01*
X0153104Y0115974D01*
X0153214Y0116003D01*
X0153324Y0116029D01*
X0153436Y0116051D01*
X0153548Y0116068D01*
X0153660Y0116082D01*
X0153773Y0116092D01*
X0153887Y0116098D01*
X0154000Y0116100D01*
X0154113Y0116098D01*
X0154227Y0116092D01*
X0154340Y0116082D01*
X0154452Y0116068D01*
X0154564Y0116051D01*
X0154676Y0116029D01*
X0154786Y0116003D01*
X0154896Y0115974D01*
X0155004Y0115941D01*
X0155112Y0115904D01*
X0155217Y0115863D01*
X0155322Y0115819D01*
X0155425Y0115771D01*
X0155526Y0115720D01*
X0155625Y0115665D01*
X0155722Y0115606D01*
X0155817Y0115544D01*
X0155910Y0115479D01*
X0156001Y0115411D01*
X0156089Y0115340D01*
X0156175Y0115265D01*
X0156258Y0115188D01*
X0156338Y0115108D01*
X0156415Y0115025D01*
X0156490Y0114939D01*
X0156561Y0114851D01*
X0156629Y0114760D01*
X0156694Y0114667D01*
X0156756Y0114572D01*
X0156815Y0114475D01*
X0156870Y0114376D01*
X0156921Y0114275D01*
X0156969Y0114172D01*
X0157013Y0114067D01*
X0157054Y0113962D01*
X0157091Y0113854D01*
X0157124Y0113746D01*
X0157153Y0113636D01*
X0157179Y0113526D01*
X0157201Y0113414D01*
X0157218Y0113302D01*
X0157232Y0113190D01*
X0157242Y0113077D01*
X0157248Y0112963D01*
X0157250Y0112850D01*
X0157248Y0112737D01*
X0157242Y0112623D01*
X0157232Y0112510D01*
X0157218Y0112398D01*
X0157201Y0112286D01*
X0157179Y0112174D01*
X0157153Y0112064D01*
X0157124Y0111954D01*
X0157091Y0111846D01*
X0157054Y0111738D01*
X0157013Y0111633D01*
X0156969Y0111528D01*
X0156921Y0111425D01*
X0156870Y0111324D01*
X0156815Y0111225D01*
X0156756Y0111128D01*
X0156694Y0111033D01*
X0156629Y0110940D01*
X0156561Y0110849D01*
X0156490Y0110761D01*
X0156415Y0110675D01*
X0156338Y0110592D01*
X0156258Y0110512D01*
X0156175Y0110435D01*
X0156089Y0110360D01*
X0156001Y0110289D01*
X0155910Y0110221D01*
X0155817Y0110156D01*
X0155722Y0110094D01*
X0155625Y0110035D01*
X0155526Y0109980D01*
X0155425Y0109929D01*
X0155322Y0109881D01*
X0155217Y0109837D01*
X0155112Y0109796D01*
X0155004Y0109759D01*
X0154896Y0109726D01*
X0154786Y0109697D01*
X0154676Y0109671D01*
X0154564Y0109649D01*
X0154452Y0109632D01*
X0154340Y0109618D01*
X0154227Y0109608D01*
X0154113Y0109602D01*
X0154000Y0109600D01*
X0153887Y0109602D01*
X0153773Y0109608D01*
X0153660Y0109618D01*
X0153548Y0109632D01*
X0153436Y0109649D01*
X0153324Y0109671D01*
X0153214Y0109697D01*
X0153104Y0109726D01*
X0152996Y0109759D01*
X0152888Y0109796D01*
X0152783Y0109837D01*
X0152678Y0109881D01*
X0152575Y0109929D01*
X0152474Y0109980D01*
X0152375Y0110035D01*
X0152278Y0110094D01*
X0152183Y0110156D01*
X0152090Y0110221D01*
X0151999Y0110289D01*
X0151911Y0110360D01*
X0151825Y0110435D01*
X0151742Y0110512D01*
X0151662Y0110592D01*
X0151585Y0110675D01*
X0151510Y0110761D01*
X0151439Y0110849D01*
X0151371Y0110940D01*
X0151306Y0111033D01*
X0151244Y0111128D01*
X0151185Y0111225D01*
X0151130Y0111324D01*
X0151079Y0111425D01*
X0151031Y0111528D01*
X0150987Y0111633D01*
X0150946Y0111738D01*
X0150909Y0111846D01*
X0150876Y0111954D01*
X0150847Y0112064D01*
X0150821Y0112174D01*
X0150799Y0112286D01*
X0150782Y0112398D01*
X0150768Y0112510D01*
X0150758Y0112623D01*
X0150752Y0112737D01*
X0150750Y0112850D01*
X0304701Y0129850D02*
X0304703Y0130008D01*
X0304709Y0130166D01*
X0304719Y0130324D01*
X0304733Y0130482D01*
X0304751Y0130639D01*
X0304772Y0130796D01*
X0304798Y0130952D01*
X0304828Y0131108D01*
X0304861Y0131263D01*
X0304899Y0131416D01*
X0304940Y0131569D01*
X0304985Y0131721D01*
X0305034Y0131872D01*
X0305087Y0132021D01*
X0305143Y0132169D01*
X0305203Y0132315D01*
X0305267Y0132460D01*
X0305335Y0132603D01*
X0305406Y0132745D01*
X0305480Y0132885D01*
X0305558Y0133022D01*
X0305640Y0133158D01*
X0305724Y0133292D01*
X0305813Y0133423D01*
X0305904Y0133552D01*
X0305999Y0133679D01*
X0306096Y0133804D01*
X0306197Y0133926D01*
X0306301Y0134045D01*
X0306408Y0134162D01*
X0306518Y0134276D01*
X0306631Y0134387D01*
X0306746Y0134496D01*
X0306864Y0134601D01*
X0306985Y0134703D01*
X0307108Y0134803D01*
X0307234Y0134899D01*
X0307362Y0134992D01*
X0307492Y0135082D01*
X0307625Y0135168D01*
X0307760Y0135252D01*
X0307896Y0135331D01*
X0308035Y0135408D01*
X0308176Y0135480D01*
X0308318Y0135550D01*
X0308462Y0135615D01*
X0308608Y0135677D01*
X0308755Y0135735D01*
X0308904Y0135790D01*
X0309054Y0135841D01*
X0309205Y0135888D01*
X0309357Y0135931D01*
X0309510Y0135970D01*
X0309665Y0136006D01*
X0309820Y0136037D01*
X0309976Y0136065D01*
X0310132Y0136089D01*
X0310289Y0136109D01*
X0310447Y0136125D01*
X0310604Y0136137D01*
X0310763Y0136145D01*
X0310921Y0136149D01*
X0311079Y0136149D01*
X0311237Y0136145D01*
X0311396Y0136137D01*
X0311553Y0136125D01*
X0311711Y0136109D01*
X0311868Y0136089D01*
X0312024Y0136065D01*
X0312180Y0136037D01*
X0312335Y0136006D01*
X0312490Y0135970D01*
X0312643Y0135931D01*
X0312795Y0135888D01*
X0312946Y0135841D01*
X0313096Y0135790D01*
X0313245Y0135735D01*
X0313392Y0135677D01*
X0313538Y0135615D01*
X0313682Y0135550D01*
X0313824Y0135480D01*
X0313965Y0135408D01*
X0314104Y0135331D01*
X0314240Y0135252D01*
X0314375Y0135168D01*
X0314508Y0135082D01*
X0314638Y0134992D01*
X0314766Y0134899D01*
X0314892Y0134803D01*
X0315015Y0134703D01*
X0315136Y0134601D01*
X0315254Y0134496D01*
X0315369Y0134387D01*
X0315482Y0134276D01*
X0315592Y0134162D01*
X0315699Y0134045D01*
X0315803Y0133926D01*
X0315904Y0133804D01*
X0316001Y0133679D01*
X0316096Y0133552D01*
X0316187Y0133423D01*
X0316276Y0133292D01*
X0316360Y0133158D01*
X0316442Y0133022D01*
X0316520Y0132885D01*
X0316594Y0132745D01*
X0316665Y0132603D01*
X0316733Y0132460D01*
X0316797Y0132315D01*
X0316857Y0132169D01*
X0316913Y0132021D01*
X0316966Y0131872D01*
X0317015Y0131721D01*
X0317060Y0131569D01*
X0317101Y0131416D01*
X0317139Y0131263D01*
X0317172Y0131108D01*
X0317202Y0130952D01*
X0317228Y0130796D01*
X0317249Y0130639D01*
X0317267Y0130482D01*
X0317281Y0130324D01*
X0317291Y0130166D01*
X0317297Y0130008D01*
X0317299Y0129850D01*
X0317297Y0129692D01*
X0317291Y0129534D01*
X0317281Y0129376D01*
X0317267Y0129218D01*
X0317249Y0129061D01*
X0317228Y0128904D01*
X0317202Y0128748D01*
X0317172Y0128592D01*
X0317139Y0128437D01*
X0317101Y0128284D01*
X0317060Y0128131D01*
X0317015Y0127979D01*
X0316966Y0127828D01*
X0316913Y0127679D01*
X0316857Y0127531D01*
X0316797Y0127385D01*
X0316733Y0127240D01*
X0316665Y0127097D01*
X0316594Y0126955D01*
X0316520Y0126815D01*
X0316442Y0126678D01*
X0316360Y0126542D01*
X0316276Y0126408D01*
X0316187Y0126277D01*
X0316096Y0126148D01*
X0316001Y0126021D01*
X0315904Y0125896D01*
X0315803Y0125774D01*
X0315699Y0125655D01*
X0315592Y0125538D01*
X0315482Y0125424D01*
X0315369Y0125313D01*
X0315254Y0125204D01*
X0315136Y0125099D01*
X0315015Y0124997D01*
X0314892Y0124897D01*
X0314766Y0124801D01*
X0314638Y0124708D01*
X0314508Y0124618D01*
X0314375Y0124532D01*
X0314240Y0124448D01*
X0314104Y0124369D01*
X0313965Y0124292D01*
X0313824Y0124220D01*
X0313682Y0124150D01*
X0313538Y0124085D01*
X0313392Y0124023D01*
X0313245Y0123965D01*
X0313096Y0123910D01*
X0312946Y0123859D01*
X0312795Y0123812D01*
X0312643Y0123769D01*
X0312490Y0123730D01*
X0312335Y0123694D01*
X0312180Y0123663D01*
X0312024Y0123635D01*
X0311868Y0123611D01*
X0311711Y0123591D01*
X0311553Y0123575D01*
X0311396Y0123563D01*
X0311237Y0123555D01*
X0311079Y0123551D01*
X0310921Y0123551D01*
X0310763Y0123555D01*
X0310604Y0123563D01*
X0310447Y0123575D01*
X0310289Y0123591D01*
X0310132Y0123611D01*
X0309976Y0123635D01*
X0309820Y0123663D01*
X0309665Y0123694D01*
X0309510Y0123730D01*
X0309357Y0123769D01*
X0309205Y0123812D01*
X0309054Y0123859D01*
X0308904Y0123910D01*
X0308755Y0123965D01*
X0308608Y0124023D01*
X0308462Y0124085D01*
X0308318Y0124150D01*
X0308176Y0124220D01*
X0308035Y0124292D01*
X0307896Y0124369D01*
X0307760Y0124448D01*
X0307625Y0124532D01*
X0307492Y0124618D01*
X0307362Y0124708D01*
X0307234Y0124801D01*
X0307108Y0124897D01*
X0306985Y0124997D01*
X0306864Y0125099D01*
X0306746Y0125204D01*
X0306631Y0125313D01*
X0306518Y0125424D01*
X0306408Y0125538D01*
X0306301Y0125655D01*
X0306197Y0125774D01*
X0306096Y0125896D01*
X0305999Y0126021D01*
X0305904Y0126148D01*
X0305813Y0126277D01*
X0305724Y0126408D01*
X0305640Y0126542D01*
X0305558Y0126678D01*
X0305480Y0126815D01*
X0305406Y0126955D01*
X0305335Y0127097D01*
X0305267Y0127240D01*
X0305203Y0127385D01*
X0305143Y0127531D01*
X0305087Y0127679D01*
X0305034Y0127828D01*
X0304985Y0127979D01*
X0304940Y0128131D01*
X0304899Y0128284D01*
X0304861Y0128437D01*
X0304828Y0128592D01*
X0304798Y0128748D01*
X0304772Y0128904D01*
X0304751Y0129061D01*
X0304733Y0129218D01*
X0304719Y0129376D01*
X0304709Y0129534D01*
X0304703Y0129692D01*
X0304701Y0129850D01*
X0310750Y0112850D02*
X0310752Y0112963D01*
X0310758Y0113077D01*
X0310768Y0113190D01*
X0310782Y0113302D01*
X0310799Y0113414D01*
X0310821Y0113526D01*
X0310847Y0113636D01*
X0310876Y0113746D01*
X0310909Y0113854D01*
X0310946Y0113962D01*
X0310987Y0114067D01*
X0311031Y0114172D01*
X0311079Y0114275D01*
X0311130Y0114376D01*
X0311185Y0114475D01*
X0311244Y0114572D01*
X0311306Y0114667D01*
X0311371Y0114760D01*
X0311439Y0114851D01*
X0311510Y0114939D01*
X0311585Y0115025D01*
X0311662Y0115108D01*
X0311742Y0115188D01*
X0311825Y0115265D01*
X0311911Y0115340D01*
X0311999Y0115411D01*
X0312090Y0115479D01*
X0312183Y0115544D01*
X0312278Y0115606D01*
X0312375Y0115665D01*
X0312474Y0115720D01*
X0312575Y0115771D01*
X0312678Y0115819D01*
X0312783Y0115863D01*
X0312888Y0115904D01*
X0312996Y0115941D01*
X0313104Y0115974D01*
X0313214Y0116003D01*
X0313324Y0116029D01*
X0313436Y0116051D01*
X0313548Y0116068D01*
X0313660Y0116082D01*
X0313773Y0116092D01*
X0313887Y0116098D01*
X0314000Y0116100D01*
X0314113Y0116098D01*
X0314227Y0116092D01*
X0314340Y0116082D01*
X0314452Y0116068D01*
X0314564Y0116051D01*
X0314676Y0116029D01*
X0314786Y0116003D01*
X0314896Y0115974D01*
X0315004Y0115941D01*
X0315112Y0115904D01*
X0315217Y0115863D01*
X0315322Y0115819D01*
X0315425Y0115771D01*
X0315526Y0115720D01*
X0315625Y0115665D01*
X0315722Y0115606D01*
X0315817Y0115544D01*
X0315910Y0115479D01*
X0316001Y0115411D01*
X0316089Y0115340D01*
X0316175Y0115265D01*
X0316258Y0115188D01*
X0316338Y0115108D01*
X0316415Y0115025D01*
X0316490Y0114939D01*
X0316561Y0114851D01*
X0316629Y0114760D01*
X0316694Y0114667D01*
X0316756Y0114572D01*
X0316815Y0114475D01*
X0316870Y0114376D01*
X0316921Y0114275D01*
X0316969Y0114172D01*
X0317013Y0114067D01*
X0317054Y0113962D01*
X0317091Y0113854D01*
X0317124Y0113746D01*
X0317153Y0113636D01*
X0317179Y0113526D01*
X0317201Y0113414D01*
X0317218Y0113302D01*
X0317232Y0113190D01*
X0317242Y0113077D01*
X0317248Y0112963D01*
X0317250Y0112850D01*
X0317248Y0112737D01*
X0317242Y0112623D01*
X0317232Y0112510D01*
X0317218Y0112398D01*
X0317201Y0112286D01*
X0317179Y0112174D01*
X0317153Y0112064D01*
X0317124Y0111954D01*
X0317091Y0111846D01*
X0317054Y0111738D01*
X0317013Y0111633D01*
X0316969Y0111528D01*
X0316921Y0111425D01*
X0316870Y0111324D01*
X0316815Y0111225D01*
X0316756Y0111128D01*
X0316694Y0111033D01*
X0316629Y0110940D01*
X0316561Y0110849D01*
X0316490Y0110761D01*
X0316415Y0110675D01*
X0316338Y0110592D01*
X0316258Y0110512D01*
X0316175Y0110435D01*
X0316089Y0110360D01*
X0316001Y0110289D01*
X0315910Y0110221D01*
X0315817Y0110156D01*
X0315722Y0110094D01*
X0315625Y0110035D01*
X0315526Y0109980D01*
X0315425Y0109929D01*
X0315322Y0109881D01*
X0315217Y0109837D01*
X0315112Y0109796D01*
X0315004Y0109759D01*
X0314896Y0109726D01*
X0314786Y0109697D01*
X0314676Y0109671D01*
X0314564Y0109649D01*
X0314452Y0109632D01*
X0314340Y0109618D01*
X0314227Y0109608D01*
X0314113Y0109602D01*
X0314000Y0109600D01*
X0313887Y0109602D01*
X0313773Y0109608D01*
X0313660Y0109618D01*
X0313548Y0109632D01*
X0313436Y0109649D01*
X0313324Y0109671D01*
X0313214Y0109697D01*
X0313104Y0109726D01*
X0312996Y0109759D01*
X0312888Y0109796D01*
X0312783Y0109837D01*
X0312678Y0109881D01*
X0312575Y0109929D01*
X0312474Y0109980D01*
X0312375Y0110035D01*
X0312278Y0110094D01*
X0312183Y0110156D01*
X0312090Y0110221D01*
X0311999Y0110289D01*
X0311911Y0110360D01*
X0311825Y0110435D01*
X0311742Y0110512D01*
X0311662Y0110592D01*
X0311585Y0110675D01*
X0311510Y0110761D01*
X0311439Y0110849D01*
X0311371Y0110940D01*
X0311306Y0111033D01*
X0311244Y0111128D01*
X0311185Y0111225D01*
X0311130Y0111324D01*
X0311079Y0111425D01*
X0311031Y0111528D01*
X0310987Y0111633D01*
X0310946Y0111738D01*
X0310909Y0111846D01*
X0310876Y0111954D01*
X0310847Y0112064D01*
X0310821Y0112174D01*
X0310799Y0112286D01*
X0310782Y0112398D01*
X0310768Y0112510D01*
X0310758Y0112623D01*
X0310752Y0112737D01*
X0310750Y0112850D01*
X0310750Y0052850D02*
X0310752Y0052963D01*
X0310758Y0053077D01*
X0310768Y0053190D01*
X0310782Y0053302D01*
X0310799Y0053414D01*
X0310821Y0053526D01*
X0310847Y0053636D01*
X0310876Y0053746D01*
X0310909Y0053854D01*
X0310946Y0053962D01*
X0310987Y0054067D01*
X0311031Y0054172D01*
X0311079Y0054275D01*
X0311130Y0054376D01*
X0311185Y0054475D01*
X0311244Y0054572D01*
X0311306Y0054667D01*
X0311371Y0054760D01*
X0311439Y0054851D01*
X0311510Y0054939D01*
X0311585Y0055025D01*
X0311662Y0055108D01*
X0311742Y0055188D01*
X0311825Y0055265D01*
X0311911Y0055340D01*
X0311999Y0055411D01*
X0312090Y0055479D01*
X0312183Y0055544D01*
X0312278Y0055606D01*
X0312375Y0055665D01*
X0312474Y0055720D01*
X0312575Y0055771D01*
X0312678Y0055819D01*
X0312783Y0055863D01*
X0312888Y0055904D01*
X0312996Y0055941D01*
X0313104Y0055974D01*
X0313214Y0056003D01*
X0313324Y0056029D01*
X0313436Y0056051D01*
X0313548Y0056068D01*
X0313660Y0056082D01*
X0313773Y0056092D01*
X0313887Y0056098D01*
X0314000Y0056100D01*
X0314113Y0056098D01*
X0314227Y0056092D01*
X0314340Y0056082D01*
X0314452Y0056068D01*
X0314564Y0056051D01*
X0314676Y0056029D01*
X0314786Y0056003D01*
X0314896Y0055974D01*
X0315004Y0055941D01*
X0315112Y0055904D01*
X0315217Y0055863D01*
X0315322Y0055819D01*
X0315425Y0055771D01*
X0315526Y0055720D01*
X0315625Y0055665D01*
X0315722Y0055606D01*
X0315817Y0055544D01*
X0315910Y0055479D01*
X0316001Y0055411D01*
X0316089Y0055340D01*
X0316175Y0055265D01*
X0316258Y0055188D01*
X0316338Y0055108D01*
X0316415Y0055025D01*
X0316490Y0054939D01*
X0316561Y0054851D01*
X0316629Y0054760D01*
X0316694Y0054667D01*
X0316756Y0054572D01*
X0316815Y0054475D01*
X0316870Y0054376D01*
X0316921Y0054275D01*
X0316969Y0054172D01*
X0317013Y0054067D01*
X0317054Y0053962D01*
X0317091Y0053854D01*
X0317124Y0053746D01*
X0317153Y0053636D01*
X0317179Y0053526D01*
X0317201Y0053414D01*
X0317218Y0053302D01*
X0317232Y0053190D01*
X0317242Y0053077D01*
X0317248Y0052963D01*
X0317250Y0052850D01*
X0317248Y0052737D01*
X0317242Y0052623D01*
X0317232Y0052510D01*
X0317218Y0052398D01*
X0317201Y0052286D01*
X0317179Y0052174D01*
X0317153Y0052064D01*
X0317124Y0051954D01*
X0317091Y0051846D01*
X0317054Y0051738D01*
X0317013Y0051633D01*
X0316969Y0051528D01*
X0316921Y0051425D01*
X0316870Y0051324D01*
X0316815Y0051225D01*
X0316756Y0051128D01*
X0316694Y0051033D01*
X0316629Y0050940D01*
X0316561Y0050849D01*
X0316490Y0050761D01*
X0316415Y0050675D01*
X0316338Y0050592D01*
X0316258Y0050512D01*
X0316175Y0050435D01*
X0316089Y0050360D01*
X0316001Y0050289D01*
X0315910Y0050221D01*
X0315817Y0050156D01*
X0315722Y0050094D01*
X0315625Y0050035D01*
X0315526Y0049980D01*
X0315425Y0049929D01*
X0315322Y0049881D01*
X0315217Y0049837D01*
X0315112Y0049796D01*
X0315004Y0049759D01*
X0314896Y0049726D01*
X0314786Y0049697D01*
X0314676Y0049671D01*
X0314564Y0049649D01*
X0314452Y0049632D01*
X0314340Y0049618D01*
X0314227Y0049608D01*
X0314113Y0049602D01*
X0314000Y0049600D01*
X0313887Y0049602D01*
X0313773Y0049608D01*
X0313660Y0049618D01*
X0313548Y0049632D01*
X0313436Y0049649D01*
X0313324Y0049671D01*
X0313214Y0049697D01*
X0313104Y0049726D01*
X0312996Y0049759D01*
X0312888Y0049796D01*
X0312783Y0049837D01*
X0312678Y0049881D01*
X0312575Y0049929D01*
X0312474Y0049980D01*
X0312375Y0050035D01*
X0312278Y0050094D01*
X0312183Y0050156D01*
X0312090Y0050221D01*
X0311999Y0050289D01*
X0311911Y0050360D01*
X0311825Y0050435D01*
X0311742Y0050512D01*
X0311662Y0050592D01*
X0311585Y0050675D01*
X0311510Y0050761D01*
X0311439Y0050849D01*
X0311371Y0050940D01*
X0311306Y0051033D01*
X0311244Y0051128D01*
X0311185Y0051225D01*
X0311130Y0051324D01*
X0311079Y0051425D01*
X0311031Y0051528D01*
X0310987Y0051633D01*
X0310946Y0051738D01*
X0310909Y0051846D01*
X0310876Y0051954D01*
X0310847Y0052064D01*
X0310821Y0052174D01*
X0310799Y0052286D01*
X0310782Y0052398D01*
X0310768Y0052510D01*
X0310758Y0052623D01*
X0310752Y0052737D01*
X0310750Y0052850D01*
X0304701Y0039850D02*
X0304703Y0040008D01*
X0304709Y0040166D01*
X0304719Y0040324D01*
X0304733Y0040482D01*
X0304751Y0040639D01*
X0304772Y0040796D01*
X0304798Y0040952D01*
X0304828Y0041108D01*
X0304861Y0041263D01*
X0304899Y0041416D01*
X0304940Y0041569D01*
X0304985Y0041721D01*
X0305034Y0041872D01*
X0305087Y0042021D01*
X0305143Y0042169D01*
X0305203Y0042315D01*
X0305267Y0042460D01*
X0305335Y0042603D01*
X0305406Y0042745D01*
X0305480Y0042885D01*
X0305558Y0043022D01*
X0305640Y0043158D01*
X0305724Y0043292D01*
X0305813Y0043423D01*
X0305904Y0043552D01*
X0305999Y0043679D01*
X0306096Y0043804D01*
X0306197Y0043926D01*
X0306301Y0044045D01*
X0306408Y0044162D01*
X0306518Y0044276D01*
X0306631Y0044387D01*
X0306746Y0044496D01*
X0306864Y0044601D01*
X0306985Y0044703D01*
X0307108Y0044803D01*
X0307234Y0044899D01*
X0307362Y0044992D01*
X0307492Y0045082D01*
X0307625Y0045168D01*
X0307760Y0045252D01*
X0307896Y0045331D01*
X0308035Y0045408D01*
X0308176Y0045480D01*
X0308318Y0045550D01*
X0308462Y0045615D01*
X0308608Y0045677D01*
X0308755Y0045735D01*
X0308904Y0045790D01*
X0309054Y0045841D01*
X0309205Y0045888D01*
X0309357Y0045931D01*
X0309510Y0045970D01*
X0309665Y0046006D01*
X0309820Y0046037D01*
X0309976Y0046065D01*
X0310132Y0046089D01*
X0310289Y0046109D01*
X0310447Y0046125D01*
X0310604Y0046137D01*
X0310763Y0046145D01*
X0310921Y0046149D01*
X0311079Y0046149D01*
X0311237Y0046145D01*
X0311396Y0046137D01*
X0311553Y0046125D01*
X0311711Y0046109D01*
X0311868Y0046089D01*
X0312024Y0046065D01*
X0312180Y0046037D01*
X0312335Y0046006D01*
X0312490Y0045970D01*
X0312643Y0045931D01*
X0312795Y0045888D01*
X0312946Y0045841D01*
X0313096Y0045790D01*
X0313245Y0045735D01*
X0313392Y0045677D01*
X0313538Y0045615D01*
X0313682Y0045550D01*
X0313824Y0045480D01*
X0313965Y0045408D01*
X0314104Y0045331D01*
X0314240Y0045252D01*
X0314375Y0045168D01*
X0314508Y0045082D01*
X0314638Y0044992D01*
X0314766Y0044899D01*
X0314892Y0044803D01*
X0315015Y0044703D01*
X0315136Y0044601D01*
X0315254Y0044496D01*
X0315369Y0044387D01*
X0315482Y0044276D01*
X0315592Y0044162D01*
X0315699Y0044045D01*
X0315803Y0043926D01*
X0315904Y0043804D01*
X0316001Y0043679D01*
X0316096Y0043552D01*
X0316187Y0043423D01*
X0316276Y0043292D01*
X0316360Y0043158D01*
X0316442Y0043022D01*
X0316520Y0042885D01*
X0316594Y0042745D01*
X0316665Y0042603D01*
X0316733Y0042460D01*
X0316797Y0042315D01*
X0316857Y0042169D01*
X0316913Y0042021D01*
X0316966Y0041872D01*
X0317015Y0041721D01*
X0317060Y0041569D01*
X0317101Y0041416D01*
X0317139Y0041263D01*
X0317172Y0041108D01*
X0317202Y0040952D01*
X0317228Y0040796D01*
X0317249Y0040639D01*
X0317267Y0040482D01*
X0317281Y0040324D01*
X0317291Y0040166D01*
X0317297Y0040008D01*
X0317299Y0039850D01*
X0317297Y0039692D01*
X0317291Y0039534D01*
X0317281Y0039376D01*
X0317267Y0039218D01*
X0317249Y0039061D01*
X0317228Y0038904D01*
X0317202Y0038748D01*
X0317172Y0038592D01*
X0317139Y0038437D01*
X0317101Y0038284D01*
X0317060Y0038131D01*
X0317015Y0037979D01*
X0316966Y0037828D01*
X0316913Y0037679D01*
X0316857Y0037531D01*
X0316797Y0037385D01*
X0316733Y0037240D01*
X0316665Y0037097D01*
X0316594Y0036955D01*
X0316520Y0036815D01*
X0316442Y0036678D01*
X0316360Y0036542D01*
X0316276Y0036408D01*
X0316187Y0036277D01*
X0316096Y0036148D01*
X0316001Y0036021D01*
X0315904Y0035896D01*
X0315803Y0035774D01*
X0315699Y0035655D01*
X0315592Y0035538D01*
X0315482Y0035424D01*
X0315369Y0035313D01*
X0315254Y0035204D01*
X0315136Y0035099D01*
X0315015Y0034997D01*
X0314892Y0034897D01*
X0314766Y0034801D01*
X0314638Y0034708D01*
X0314508Y0034618D01*
X0314375Y0034532D01*
X0314240Y0034448D01*
X0314104Y0034369D01*
X0313965Y0034292D01*
X0313824Y0034220D01*
X0313682Y0034150D01*
X0313538Y0034085D01*
X0313392Y0034023D01*
X0313245Y0033965D01*
X0313096Y0033910D01*
X0312946Y0033859D01*
X0312795Y0033812D01*
X0312643Y0033769D01*
X0312490Y0033730D01*
X0312335Y0033694D01*
X0312180Y0033663D01*
X0312024Y0033635D01*
X0311868Y0033611D01*
X0311711Y0033591D01*
X0311553Y0033575D01*
X0311396Y0033563D01*
X0311237Y0033555D01*
X0311079Y0033551D01*
X0310921Y0033551D01*
X0310763Y0033555D01*
X0310604Y0033563D01*
X0310447Y0033575D01*
X0310289Y0033591D01*
X0310132Y0033611D01*
X0309976Y0033635D01*
X0309820Y0033663D01*
X0309665Y0033694D01*
X0309510Y0033730D01*
X0309357Y0033769D01*
X0309205Y0033812D01*
X0309054Y0033859D01*
X0308904Y0033910D01*
X0308755Y0033965D01*
X0308608Y0034023D01*
X0308462Y0034085D01*
X0308318Y0034150D01*
X0308176Y0034220D01*
X0308035Y0034292D01*
X0307896Y0034369D01*
X0307760Y0034448D01*
X0307625Y0034532D01*
X0307492Y0034618D01*
X0307362Y0034708D01*
X0307234Y0034801D01*
X0307108Y0034897D01*
X0306985Y0034997D01*
X0306864Y0035099D01*
X0306746Y0035204D01*
X0306631Y0035313D01*
X0306518Y0035424D01*
X0306408Y0035538D01*
X0306301Y0035655D01*
X0306197Y0035774D01*
X0306096Y0035896D01*
X0305999Y0036021D01*
X0305904Y0036148D01*
X0305813Y0036277D01*
X0305724Y0036408D01*
X0305640Y0036542D01*
X0305558Y0036678D01*
X0305480Y0036815D01*
X0305406Y0036955D01*
X0305335Y0037097D01*
X0305267Y0037240D01*
X0305203Y0037385D01*
X0305143Y0037531D01*
X0305087Y0037679D01*
X0305034Y0037828D01*
X0304985Y0037979D01*
X0304940Y0038131D01*
X0304899Y0038284D01*
X0304861Y0038437D01*
X0304828Y0038592D01*
X0304798Y0038748D01*
X0304772Y0038904D01*
X0304751Y0039061D01*
X0304733Y0039218D01*
X0304719Y0039376D01*
X0304709Y0039534D01*
X0304703Y0039692D01*
X0304701Y0039850D01*
X0304701Y0259850D02*
X0304703Y0260008D01*
X0304709Y0260166D01*
X0304719Y0260324D01*
X0304733Y0260482D01*
X0304751Y0260639D01*
X0304772Y0260796D01*
X0304798Y0260952D01*
X0304828Y0261108D01*
X0304861Y0261263D01*
X0304899Y0261416D01*
X0304940Y0261569D01*
X0304985Y0261721D01*
X0305034Y0261872D01*
X0305087Y0262021D01*
X0305143Y0262169D01*
X0305203Y0262315D01*
X0305267Y0262460D01*
X0305335Y0262603D01*
X0305406Y0262745D01*
X0305480Y0262885D01*
X0305558Y0263022D01*
X0305640Y0263158D01*
X0305724Y0263292D01*
X0305813Y0263423D01*
X0305904Y0263552D01*
X0305999Y0263679D01*
X0306096Y0263804D01*
X0306197Y0263926D01*
X0306301Y0264045D01*
X0306408Y0264162D01*
X0306518Y0264276D01*
X0306631Y0264387D01*
X0306746Y0264496D01*
X0306864Y0264601D01*
X0306985Y0264703D01*
X0307108Y0264803D01*
X0307234Y0264899D01*
X0307362Y0264992D01*
X0307492Y0265082D01*
X0307625Y0265168D01*
X0307760Y0265252D01*
X0307896Y0265331D01*
X0308035Y0265408D01*
X0308176Y0265480D01*
X0308318Y0265550D01*
X0308462Y0265615D01*
X0308608Y0265677D01*
X0308755Y0265735D01*
X0308904Y0265790D01*
X0309054Y0265841D01*
X0309205Y0265888D01*
X0309357Y0265931D01*
X0309510Y0265970D01*
X0309665Y0266006D01*
X0309820Y0266037D01*
X0309976Y0266065D01*
X0310132Y0266089D01*
X0310289Y0266109D01*
X0310447Y0266125D01*
X0310604Y0266137D01*
X0310763Y0266145D01*
X0310921Y0266149D01*
X0311079Y0266149D01*
X0311237Y0266145D01*
X0311396Y0266137D01*
X0311553Y0266125D01*
X0311711Y0266109D01*
X0311868Y0266089D01*
X0312024Y0266065D01*
X0312180Y0266037D01*
X0312335Y0266006D01*
X0312490Y0265970D01*
X0312643Y0265931D01*
X0312795Y0265888D01*
X0312946Y0265841D01*
X0313096Y0265790D01*
X0313245Y0265735D01*
X0313392Y0265677D01*
X0313538Y0265615D01*
X0313682Y0265550D01*
X0313824Y0265480D01*
X0313965Y0265408D01*
X0314104Y0265331D01*
X0314240Y0265252D01*
X0314375Y0265168D01*
X0314508Y0265082D01*
X0314638Y0264992D01*
X0314766Y0264899D01*
X0314892Y0264803D01*
X0315015Y0264703D01*
X0315136Y0264601D01*
X0315254Y0264496D01*
X0315369Y0264387D01*
X0315482Y0264276D01*
X0315592Y0264162D01*
X0315699Y0264045D01*
X0315803Y0263926D01*
X0315904Y0263804D01*
X0316001Y0263679D01*
X0316096Y0263552D01*
X0316187Y0263423D01*
X0316276Y0263292D01*
X0316360Y0263158D01*
X0316442Y0263022D01*
X0316520Y0262885D01*
X0316594Y0262745D01*
X0316665Y0262603D01*
X0316733Y0262460D01*
X0316797Y0262315D01*
X0316857Y0262169D01*
X0316913Y0262021D01*
X0316966Y0261872D01*
X0317015Y0261721D01*
X0317060Y0261569D01*
X0317101Y0261416D01*
X0317139Y0261263D01*
X0317172Y0261108D01*
X0317202Y0260952D01*
X0317228Y0260796D01*
X0317249Y0260639D01*
X0317267Y0260482D01*
X0317281Y0260324D01*
X0317291Y0260166D01*
X0317297Y0260008D01*
X0317299Y0259850D01*
X0317297Y0259692D01*
X0317291Y0259534D01*
X0317281Y0259376D01*
X0317267Y0259218D01*
X0317249Y0259061D01*
X0317228Y0258904D01*
X0317202Y0258748D01*
X0317172Y0258592D01*
X0317139Y0258437D01*
X0317101Y0258284D01*
X0317060Y0258131D01*
X0317015Y0257979D01*
X0316966Y0257828D01*
X0316913Y0257679D01*
X0316857Y0257531D01*
X0316797Y0257385D01*
X0316733Y0257240D01*
X0316665Y0257097D01*
X0316594Y0256955D01*
X0316520Y0256815D01*
X0316442Y0256678D01*
X0316360Y0256542D01*
X0316276Y0256408D01*
X0316187Y0256277D01*
X0316096Y0256148D01*
X0316001Y0256021D01*
X0315904Y0255896D01*
X0315803Y0255774D01*
X0315699Y0255655D01*
X0315592Y0255538D01*
X0315482Y0255424D01*
X0315369Y0255313D01*
X0315254Y0255204D01*
X0315136Y0255099D01*
X0315015Y0254997D01*
X0314892Y0254897D01*
X0314766Y0254801D01*
X0314638Y0254708D01*
X0314508Y0254618D01*
X0314375Y0254532D01*
X0314240Y0254448D01*
X0314104Y0254369D01*
X0313965Y0254292D01*
X0313824Y0254220D01*
X0313682Y0254150D01*
X0313538Y0254085D01*
X0313392Y0254023D01*
X0313245Y0253965D01*
X0313096Y0253910D01*
X0312946Y0253859D01*
X0312795Y0253812D01*
X0312643Y0253769D01*
X0312490Y0253730D01*
X0312335Y0253694D01*
X0312180Y0253663D01*
X0312024Y0253635D01*
X0311868Y0253611D01*
X0311711Y0253591D01*
X0311553Y0253575D01*
X0311396Y0253563D01*
X0311237Y0253555D01*
X0311079Y0253551D01*
X0310921Y0253551D01*
X0310763Y0253555D01*
X0310604Y0253563D01*
X0310447Y0253575D01*
X0310289Y0253591D01*
X0310132Y0253611D01*
X0309976Y0253635D01*
X0309820Y0253663D01*
X0309665Y0253694D01*
X0309510Y0253730D01*
X0309357Y0253769D01*
X0309205Y0253812D01*
X0309054Y0253859D01*
X0308904Y0253910D01*
X0308755Y0253965D01*
X0308608Y0254023D01*
X0308462Y0254085D01*
X0308318Y0254150D01*
X0308176Y0254220D01*
X0308035Y0254292D01*
X0307896Y0254369D01*
X0307760Y0254448D01*
X0307625Y0254532D01*
X0307492Y0254618D01*
X0307362Y0254708D01*
X0307234Y0254801D01*
X0307108Y0254897D01*
X0306985Y0254997D01*
X0306864Y0255099D01*
X0306746Y0255204D01*
X0306631Y0255313D01*
X0306518Y0255424D01*
X0306408Y0255538D01*
X0306301Y0255655D01*
X0306197Y0255774D01*
X0306096Y0255896D01*
X0305999Y0256021D01*
X0305904Y0256148D01*
X0305813Y0256277D01*
X0305724Y0256408D01*
X0305640Y0256542D01*
X0305558Y0256678D01*
X0305480Y0256815D01*
X0305406Y0256955D01*
X0305335Y0257097D01*
X0305267Y0257240D01*
X0305203Y0257385D01*
X0305143Y0257531D01*
X0305087Y0257679D01*
X0305034Y0257828D01*
X0304985Y0257979D01*
X0304940Y0258131D01*
X0304899Y0258284D01*
X0304861Y0258437D01*
X0304828Y0258592D01*
X0304798Y0258748D01*
X0304772Y0258904D01*
X0304751Y0259061D01*
X0304733Y0259218D01*
X0304719Y0259376D01*
X0304709Y0259534D01*
X0304703Y0259692D01*
X0304701Y0259850D01*
X0128701Y0259850D02*
X0128703Y0260008D01*
X0128709Y0260166D01*
X0128719Y0260324D01*
X0128733Y0260482D01*
X0128751Y0260639D01*
X0128772Y0260796D01*
X0128798Y0260952D01*
X0128828Y0261108D01*
X0128861Y0261263D01*
X0128899Y0261416D01*
X0128940Y0261569D01*
X0128985Y0261721D01*
X0129034Y0261872D01*
X0129087Y0262021D01*
X0129143Y0262169D01*
X0129203Y0262315D01*
X0129267Y0262460D01*
X0129335Y0262603D01*
X0129406Y0262745D01*
X0129480Y0262885D01*
X0129558Y0263022D01*
X0129640Y0263158D01*
X0129724Y0263292D01*
X0129813Y0263423D01*
X0129904Y0263552D01*
X0129999Y0263679D01*
X0130096Y0263804D01*
X0130197Y0263926D01*
X0130301Y0264045D01*
X0130408Y0264162D01*
X0130518Y0264276D01*
X0130631Y0264387D01*
X0130746Y0264496D01*
X0130864Y0264601D01*
X0130985Y0264703D01*
X0131108Y0264803D01*
X0131234Y0264899D01*
X0131362Y0264992D01*
X0131492Y0265082D01*
X0131625Y0265168D01*
X0131760Y0265252D01*
X0131896Y0265331D01*
X0132035Y0265408D01*
X0132176Y0265480D01*
X0132318Y0265550D01*
X0132462Y0265615D01*
X0132608Y0265677D01*
X0132755Y0265735D01*
X0132904Y0265790D01*
X0133054Y0265841D01*
X0133205Y0265888D01*
X0133357Y0265931D01*
X0133510Y0265970D01*
X0133665Y0266006D01*
X0133820Y0266037D01*
X0133976Y0266065D01*
X0134132Y0266089D01*
X0134289Y0266109D01*
X0134447Y0266125D01*
X0134604Y0266137D01*
X0134763Y0266145D01*
X0134921Y0266149D01*
X0135079Y0266149D01*
X0135237Y0266145D01*
X0135396Y0266137D01*
X0135553Y0266125D01*
X0135711Y0266109D01*
X0135868Y0266089D01*
X0136024Y0266065D01*
X0136180Y0266037D01*
X0136335Y0266006D01*
X0136490Y0265970D01*
X0136643Y0265931D01*
X0136795Y0265888D01*
X0136946Y0265841D01*
X0137096Y0265790D01*
X0137245Y0265735D01*
X0137392Y0265677D01*
X0137538Y0265615D01*
X0137682Y0265550D01*
X0137824Y0265480D01*
X0137965Y0265408D01*
X0138104Y0265331D01*
X0138240Y0265252D01*
X0138375Y0265168D01*
X0138508Y0265082D01*
X0138638Y0264992D01*
X0138766Y0264899D01*
X0138892Y0264803D01*
X0139015Y0264703D01*
X0139136Y0264601D01*
X0139254Y0264496D01*
X0139369Y0264387D01*
X0139482Y0264276D01*
X0139592Y0264162D01*
X0139699Y0264045D01*
X0139803Y0263926D01*
X0139904Y0263804D01*
X0140001Y0263679D01*
X0140096Y0263552D01*
X0140187Y0263423D01*
X0140276Y0263292D01*
X0140360Y0263158D01*
X0140442Y0263022D01*
X0140520Y0262885D01*
X0140594Y0262745D01*
X0140665Y0262603D01*
X0140733Y0262460D01*
X0140797Y0262315D01*
X0140857Y0262169D01*
X0140913Y0262021D01*
X0140966Y0261872D01*
X0141015Y0261721D01*
X0141060Y0261569D01*
X0141101Y0261416D01*
X0141139Y0261263D01*
X0141172Y0261108D01*
X0141202Y0260952D01*
X0141228Y0260796D01*
X0141249Y0260639D01*
X0141267Y0260482D01*
X0141281Y0260324D01*
X0141291Y0260166D01*
X0141297Y0260008D01*
X0141299Y0259850D01*
X0141297Y0259692D01*
X0141291Y0259534D01*
X0141281Y0259376D01*
X0141267Y0259218D01*
X0141249Y0259061D01*
X0141228Y0258904D01*
X0141202Y0258748D01*
X0141172Y0258592D01*
X0141139Y0258437D01*
X0141101Y0258284D01*
X0141060Y0258131D01*
X0141015Y0257979D01*
X0140966Y0257828D01*
X0140913Y0257679D01*
X0140857Y0257531D01*
X0140797Y0257385D01*
X0140733Y0257240D01*
X0140665Y0257097D01*
X0140594Y0256955D01*
X0140520Y0256815D01*
X0140442Y0256678D01*
X0140360Y0256542D01*
X0140276Y0256408D01*
X0140187Y0256277D01*
X0140096Y0256148D01*
X0140001Y0256021D01*
X0139904Y0255896D01*
X0139803Y0255774D01*
X0139699Y0255655D01*
X0139592Y0255538D01*
X0139482Y0255424D01*
X0139369Y0255313D01*
X0139254Y0255204D01*
X0139136Y0255099D01*
X0139015Y0254997D01*
X0138892Y0254897D01*
X0138766Y0254801D01*
X0138638Y0254708D01*
X0138508Y0254618D01*
X0138375Y0254532D01*
X0138240Y0254448D01*
X0138104Y0254369D01*
X0137965Y0254292D01*
X0137824Y0254220D01*
X0137682Y0254150D01*
X0137538Y0254085D01*
X0137392Y0254023D01*
X0137245Y0253965D01*
X0137096Y0253910D01*
X0136946Y0253859D01*
X0136795Y0253812D01*
X0136643Y0253769D01*
X0136490Y0253730D01*
X0136335Y0253694D01*
X0136180Y0253663D01*
X0136024Y0253635D01*
X0135868Y0253611D01*
X0135711Y0253591D01*
X0135553Y0253575D01*
X0135396Y0253563D01*
X0135237Y0253555D01*
X0135079Y0253551D01*
X0134921Y0253551D01*
X0134763Y0253555D01*
X0134604Y0253563D01*
X0134447Y0253575D01*
X0134289Y0253591D01*
X0134132Y0253611D01*
X0133976Y0253635D01*
X0133820Y0253663D01*
X0133665Y0253694D01*
X0133510Y0253730D01*
X0133357Y0253769D01*
X0133205Y0253812D01*
X0133054Y0253859D01*
X0132904Y0253910D01*
X0132755Y0253965D01*
X0132608Y0254023D01*
X0132462Y0254085D01*
X0132318Y0254150D01*
X0132176Y0254220D01*
X0132035Y0254292D01*
X0131896Y0254369D01*
X0131760Y0254448D01*
X0131625Y0254532D01*
X0131492Y0254618D01*
X0131362Y0254708D01*
X0131234Y0254801D01*
X0131108Y0254897D01*
X0130985Y0254997D01*
X0130864Y0255099D01*
X0130746Y0255204D01*
X0130631Y0255313D01*
X0130518Y0255424D01*
X0130408Y0255538D01*
X0130301Y0255655D01*
X0130197Y0255774D01*
X0130096Y0255896D01*
X0129999Y0256021D01*
X0129904Y0256148D01*
X0129813Y0256277D01*
X0129724Y0256408D01*
X0129640Y0256542D01*
X0129558Y0256678D01*
X0129480Y0256815D01*
X0129406Y0256955D01*
X0129335Y0257097D01*
X0129267Y0257240D01*
X0129203Y0257385D01*
X0129143Y0257531D01*
X0129087Y0257679D01*
X0129034Y0257828D01*
X0128985Y0257979D01*
X0128940Y0258131D01*
X0128899Y0258284D01*
X0128861Y0258437D01*
X0128828Y0258592D01*
X0128798Y0258748D01*
X0128772Y0258904D01*
X0128751Y0259061D01*
X0128733Y0259218D01*
X0128719Y0259376D01*
X0128709Y0259534D01*
X0128703Y0259692D01*
X0128701Y0259850D01*
X0003701Y0259850D02*
X0003703Y0260008D01*
X0003709Y0260166D01*
X0003719Y0260324D01*
X0003733Y0260482D01*
X0003751Y0260639D01*
X0003772Y0260796D01*
X0003798Y0260952D01*
X0003828Y0261108D01*
X0003861Y0261263D01*
X0003899Y0261416D01*
X0003940Y0261569D01*
X0003985Y0261721D01*
X0004034Y0261872D01*
X0004087Y0262021D01*
X0004143Y0262169D01*
X0004203Y0262315D01*
X0004267Y0262460D01*
X0004335Y0262603D01*
X0004406Y0262745D01*
X0004480Y0262885D01*
X0004558Y0263022D01*
X0004640Y0263158D01*
X0004724Y0263292D01*
X0004813Y0263423D01*
X0004904Y0263552D01*
X0004999Y0263679D01*
X0005096Y0263804D01*
X0005197Y0263926D01*
X0005301Y0264045D01*
X0005408Y0264162D01*
X0005518Y0264276D01*
X0005631Y0264387D01*
X0005746Y0264496D01*
X0005864Y0264601D01*
X0005985Y0264703D01*
X0006108Y0264803D01*
X0006234Y0264899D01*
X0006362Y0264992D01*
X0006492Y0265082D01*
X0006625Y0265168D01*
X0006760Y0265252D01*
X0006896Y0265331D01*
X0007035Y0265408D01*
X0007176Y0265480D01*
X0007318Y0265550D01*
X0007462Y0265615D01*
X0007608Y0265677D01*
X0007755Y0265735D01*
X0007904Y0265790D01*
X0008054Y0265841D01*
X0008205Y0265888D01*
X0008357Y0265931D01*
X0008510Y0265970D01*
X0008665Y0266006D01*
X0008820Y0266037D01*
X0008976Y0266065D01*
X0009132Y0266089D01*
X0009289Y0266109D01*
X0009447Y0266125D01*
X0009604Y0266137D01*
X0009763Y0266145D01*
X0009921Y0266149D01*
X0010079Y0266149D01*
X0010237Y0266145D01*
X0010396Y0266137D01*
X0010553Y0266125D01*
X0010711Y0266109D01*
X0010868Y0266089D01*
X0011024Y0266065D01*
X0011180Y0266037D01*
X0011335Y0266006D01*
X0011490Y0265970D01*
X0011643Y0265931D01*
X0011795Y0265888D01*
X0011946Y0265841D01*
X0012096Y0265790D01*
X0012245Y0265735D01*
X0012392Y0265677D01*
X0012538Y0265615D01*
X0012682Y0265550D01*
X0012824Y0265480D01*
X0012965Y0265408D01*
X0013104Y0265331D01*
X0013240Y0265252D01*
X0013375Y0265168D01*
X0013508Y0265082D01*
X0013638Y0264992D01*
X0013766Y0264899D01*
X0013892Y0264803D01*
X0014015Y0264703D01*
X0014136Y0264601D01*
X0014254Y0264496D01*
X0014369Y0264387D01*
X0014482Y0264276D01*
X0014592Y0264162D01*
X0014699Y0264045D01*
X0014803Y0263926D01*
X0014904Y0263804D01*
X0015001Y0263679D01*
X0015096Y0263552D01*
X0015187Y0263423D01*
X0015276Y0263292D01*
X0015360Y0263158D01*
X0015442Y0263022D01*
X0015520Y0262885D01*
X0015594Y0262745D01*
X0015665Y0262603D01*
X0015733Y0262460D01*
X0015797Y0262315D01*
X0015857Y0262169D01*
X0015913Y0262021D01*
X0015966Y0261872D01*
X0016015Y0261721D01*
X0016060Y0261569D01*
X0016101Y0261416D01*
X0016139Y0261263D01*
X0016172Y0261108D01*
X0016202Y0260952D01*
X0016228Y0260796D01*
X0016249Y0260639D01*
X0016267Y0260482D01*
X0016281Y0260324D01*
X0016291Y0260166D01*
X0016297Y0260008D01*
X0016299Y0259850D01*
X0016297Y0259692D01*
X0016291Y0259534D01*
X0016281Y0259376D01*
X0016267Y0259218D01*
X0016249Y0259061D01*
X0016228Y0258904D01*
X0016202Y0258748D01*
X0016172Y0258592D01*
X0016139Y0258437D01*
X0016101Y0258284D01*
X0016060Y0258131D01*
X0016015Y0257979D01*
X0015966Y0257828D01*
X0015913Y0257679D01*
X0015857Y0257531D01*
X0015797Y0257385D01*
X0015733Y0257240D01*
X0015665Y0257097D01*
X0015594Y0256955D01*
X0015520Y0256815D01*
X0015442Y0256678D01*
X0015360Y0256542D01*
X0015276Y0256408D01*
X0015187Y0256277D01*
X0015096Y0256148D01*
X0015001Y0256021D01*
X0014904Y0255896D01*
X0014803Y0255774D01*
X0014699Y0255655D01*
X0014592Y0255538D01*
X0014482Y0255424D01*
X0014369Y0255313D01*
X0014254Y0255204D01*
X0014136Y0255099D01*
X0014015Y0254997D01*
X0013892Y0254897D01*
X0013766Y0254801D01*
X0013638Y0254708D01*
X0013508Y0254618D01*
X0013375Y0254532D01*
X0013240Y0254448D01*
X0013104Y0254369D01*
X0012965Y0254292D01*
X0012824Y0254220D01*
X0012682Y0254150D01*
X0012538Y0254085D01*
X0012392Y0254023D01*
X0012245Y0253965D01*
X0012096Y0253910D01*
X0011946Y0253859D01*
X0011795Y0253812D01*
X0011643Y0253769D01*
X0011490Y0253730D01*
X0011335Y0253694D01*
X0011180Y0253663D01*
X0011024Y0253635D01*
X0010868Y0253611D01*
X0010711Y0253591D01*
X0010553Y0253575D01*
X0010396Y0253563D01*
X0010237Y0253555D01*
X0010079Y0253551D01*
X0009921Y0253551D01*
X0009763Y0253555D01*
X0009604Y0253563D01*
X0009447Y0253575D01*
X0009289Y0253591D01*
X0009132Y0253611D01*
X0008976Y0253635D01*
X0008820Y0253663D01*
X0008665Y0253694D01*
X0008510Y0253730D01*
X0008357Y0253769D01*
X0008205Y0253812D01*
X0008054Y0253859D01*
X0007904Y0253910D01*
X0007755Y0253965D01*
X0007608Y0254023D01*
X0007462Y0254085D01*
X0007318Y0254150D01*
X0007176Y0254220D01*
X0007035Y0254292D01*
X0006896Y0254369D01*
X0006760Y0254448D01*
X0006625Y0254532D01*
X0006492Y0254618D01*
X0006362Y0254708D01*
X0006234Y0254801D01*
X0006108Y0254897D01*
X0005985Y0254997D01*
X0005864Y0255099D01*
X0005746Y0255204D01*
X0005631Y0255313D01*
X0005518Y0255424D01*
X0005408Y0255538D01*
X0005301Y0255655D01*
X0005197Y0255774D01*
X0005096Y0255896D01*
X0004999Y0256021D01*
X0004904Y0256148D01*
X0004813Y0256277D01*
X0004724Y0256408D01*
X0004640Y0256542D01*
X0004558Y0256678D01*
X0004480Y0256815D01*
X0004406Y0256955D01*
X0004335Y0257097D01*
X0004267Y0257240D01*
X0004203Y0257385D01*
X0004143Y0257531D01*
X0004087Y0257679D01*
X0004034Y0257828D01*
X0003985Y0257979D01*
X0003940Y0258131D01*
X0003899Y0258284D01*
X0003861Y0258437D01*
X0003828Y0258592D01*
X0003798Y0258748D01*
X0003772Y0258904D01*
X0003751Y0259061D01*
X0003733Y0259218D01*
X0003719Y0259376D01*
X0003709Y0259534D01*
X0003703Y0259692D01*
X0003701Y0259850D01*
D11*
X0138000Y0108850D03*
X0164000Y0052850D03*
D12*
X0174000Y0052850D03*
X0184000Y0052850D03*
X0194000Y0052850D03*
X0204000Y0052850D03*
X0214000Y0052850D03*
X0224000Y0052850D03*
X0234000Y0052850D03*
X0244000Y0052850D03*
X0254000Y0052850D03*
X0264000Y0052850D03*
X0274000Y0052850D03*
X0284000Y0052850D03*
X0294000Y0052850D03*
X0304000Y0052850D03*
X0304000Y0112850D03*
X0294000Y0112850D03*
X0284000Y0112850D03*
X0274000Y0112850D03*
X0264000Y0112850D03*
X0254000Y0112850D03*
X0244000Y0112850D03*
X0234000Y0112850D03*
X0224000Y0112850D03*
X0214000Y0112850D03*
X0204000Y0112850D03*
X0194000Y0112850D03*
X0184000Y0112850D03*
X0174000Y0112850D03*
X0164000Y0112850D03*
X0138000Y0098850D03*
X0128000Y0098850D03*
X0118000Y0098850D03*
X0108000Y0098850D03*
X0108000Y0108850D03*
X0118000Y0108850D03*
X0128000Y0108850D03*
D13*
X0160950Y0123425D02*
X0161580Y0122795D01*
X0159492Y0122795D01*
X0158017Y0124270D01*
X0158017Y0126358D01*
X0159492Y0127833D01*
X0161580Y0127833D01*
X0163055Y0126358D01*
X0163055Y0124270D01*
X0161580Y0122795D01*
X0161188Y0123740D01*
X0159884Y0123740D01*
X0158962Y0124662D01*
X0158962Y0125966D01*
X0159884Y0126888D01*
X0161188Y0126888D01*
X0162110Y0125966D01*
X0162110Y0124662D01*
X0161188Y0123740D01*
X0160797Y0124685D01*
X0160275Y0124685D01*
X0159907Y0125053D01*
X0159907Y0125575D01*
X0160275Y0125943D01*
X0160797Y0125943D01*
X0161165Y0125575D01*
X0161165Y0125053D01*
X0160797Y0124685D01*
D14*
X0153464Y0132386D03*
X0057000Y0054850D03*
X0010000Y0059850D03*
D15*
X0096000Y0068110D03*
X0096000Y0075590D03*
X0155000Y0091410D03*
X0155000Y0098890D03*
D16*
X0105000Y0136350D03*
X0105000Y0144850D03*
X0057000Y0064850D03*
X0057000Y0043850D03*
X0065000Y0043850D03*
X0073000Y0043850D03*
X0020000Y0059850D03*
X0294000Y0132850D03*
D17*
X0096740Y0058850D03*
X0089260Y0058850D03*
D18*
X0129000Y0069350D03*
X0129000Y0076350D03*
X0137000Y0072850D03*
X0134000Y0121350D03*
X0134000Y0128350D03*
X0126000Y0124850D03*
D19*
X0126000Y0125850D01*
X0123500Y0128350D01*
X0119000Y0128350D01*
X0116750Y0126850D02*
X0116750Y0129850D01*
X0121250Y0129850D01*
X0121250Y0126850D01*
X0116750Y0126850D01*
X0116750Y0127849D02*
X0121250Y0127849D01*
X0121250Y0128848D02*
X0116750Y0128848D01*
X0116750Y0129847D02*
X0121250Y0129847D01*
X0119000Y0128350D02*
X0119000Y0131850D01*
X0122000Y0134850D01*
X0144000Y0134850D01*
X0154000Y0124850D01*
X0155162Y0127707D02*
X0156352Y0127707D01*
X0155928Y0127283D02*
X0157035Y0128390D01*
X0160111Y0125314D01*
X0160535Y0124890D01*
X0157460Y0121814D01*
X0158609Y0120664D01*
X0162462Y0120664D01*
X0163611Y0121814D01*
X0160536Y0124890D01*
X0160960Y0125314D01*
X0164036Y0122239D01*
X0165186Y0123388D01*
X0165186Y0127241D01*
X0164036Y0128390D01*
X0160960Y0125314D01*
X0160536Y0125739D01*
X0163611Y0128815D01*
X0162462Y0129964D01*
X0158609Y0129964D01*
X0157460Y0128815D01*
X0160535Y0125739D01*
X0160111Y0125314D01*
X0157035Y0122239D01*
X0156393Y0122881D01*
X0155747Y0122235D01*
X0154613Y0121766D01*
X0153386Y0121766D01*
X0153084Y0121891D01*
X0153084Y0120736D01*
X0152717Y0119850D01*
X0163172Y0119850D01*
X0166916Y0123594D01*
X0166916Y0124463D01*
X0167385Y0125597D01*
X0168253Y0126465D01*
X0169386Y0126934D01*
X0170613Y0126934D01*
X0171747Y0126465D01*
X0172615Y0125597D01*
X0173084Y0124463D01*
X0173084Y0123236D01*
X0172615Y0122103D01*
X0171747Y0121235D01*
X0170613Y0120766D01*
X0169744Y0120766D01*
X0165884Y0116906D01*
X0166531Y0116638D01*
X0167788Y0115381D01*
X0168468Y0113739D01*
X0168468Y0111961D01*
X0167788Y0110319D01*
X0166531Y0109062D01*
X0164889Y0108381D01*
X0163111Y0108381D01*
X0161469Y0109062D01*
X0160212Y0110319D01*
X0159531Y0111961D01*
X0159531Y0113739D01*
X0160212Y0115381D01*
X0160681Y0115850D01*
X0157717Y0115850D01*
X0158027Y0115541D01*
X0158750Y0113795D01*
X0158750Y0111905D01*
X0158027Y0110159D01*
X0156691Y0108823D01*
X0154945Y0108100D01*
X0153055Y0108100D01*
X0151309Y0108823D01*
X0149973Y0110159D01*
X0149250Y0111905D01*
X0149250Y0113795D01*
X0149973Y0115541D01*
X0150283Y0115850D01*
X0134807Y0115850D01*
X0134415Y0114903D01*
X0133595Y0114083D01*
X0133828Y0113850D01*
X0134460Y0113218D01*
X0134834Y0113318D01*
X0137516Y0113318D01*
X0137516Y0109334D01*
X0138484Y0109334D01*
X0138484Y0113318D01*
X0141166Y0113318D01*
X0141547Y0113216D01*
X0141890Y0113019D01*
X0142169Y0112740D01*
X0142366Y0112397D01*
X0142468Y0112016D01*
X0142468Y0109334D01*
X0138484Y0109334D01*
X0138484Y0108366D01*
X0142468Y0108366D01*
X0142468Y0105850D01*
X0148638Y0105850D01*
X0149253Y0106465D01*
X0150386Y0106934D01*
X0151613Y0106934D01*
X0152747Y0106465D01*
X0153615Y0105597D01*
X0154084Y0104463D01*
X0154084Y0103236D01*
X0153965Y0102949D01*
X0158574Y0102949D01*
X0159453Y0102071D01*
X0159453Y0095710D01*
X0158893Y0095150D01*
X0159153Y0094890D01*
X0159351Y0094548D01*
X0159453Y0094166D01*
X0159453Y0091910D01*
X0155500Y0091910D01*
X0155500Y0090910D01*
X0159453Y0090910D01*
X0159453Y0088653D01*
X0159351Y0088272D01*
X0159153Y0087930D01*
X0158874Y0087650D01*
X0158532Y0087453D01*
X0158290Y0087388D01*
X0159828Y0085850D01*
X0165308Y0085850D01*
X0164937Y0086360D01*
X0164598Y0087027D01*
X0164367Y0087738D01*
X0164250Y0088475D01*
X0168625Y0088475D01*
X0168625Y0089225D01*
X0168625Y0093600D01*
X0167888Y0093483D01*
X0167177Y0093252D01*
X0166510Y0092913D01*
X0165906Y0092473D01*
X0165377Y0091944D01*
X0164937Y0091340D01*
X0164598Y0090673D01*
X0164367Y0089962D01*
X0164250Y0089225D01*
X0168625Y0089225D01*
X0169375Y0089225D01*
X0169375Y0093600D01*
X0170112Y0093483D01*
X0170823Y0093252D01*
X0171490Y0092913D01*
X0172094Y0092473D01*
X0172623Y0091944D01*
X0173063Y0091340D01*
X0173402Y0090673D01*
X0173633Y0089962D01*
X0173750Y0089225D01*
X0169375Y0089225D01*
X0169375Y0088475D01*
X0173750Y0088475D01*
X0173633Y0087738D01*
X0173402Y0087027D01*
X0173063Y0086360D01*
X0172692Y0085850D01*
X0173172Y0085850D01*
X0175172Y0087850D01*
X0176076Y0087850D01*
X0175916Y0088236D01*
X0175916Y0089463D01*
X0176385Y0090597D01*
X0177138Y0091350D01*
X0176385Y0092103D01*
X0175916Y0093236D01*
X0175916Y0094463D01*
X0176385Y0095597D01*
X0177000Y0096212D01*
X0177000Y0109531D01*
X0176911Y0109442D01*
X0176342Y0109028D01*
X0175715Y0108709D01*
X0175046Y0108492D01*
X0174484Y0108402D01*
X0174484Y0112366D01*
X0173516Y0112366D01*
X0173516Y0108402D01*
X0172954Y0108492D01*
X0172285Y0108709D01*
X0171658Y0109028D01*
X0171089Y0109442D01*
X0170592Y0109939D01*
X0170178Y0110508D01*
X0169859Y0111135D01*
X0169642Y0111804D01*
X0169552Y0112366D01*
X0173516Y0112366D01*
X0173516Y0113334D01*
X0169552Y0113334D01*
X0169642Y0113896D01*
X0169859Y0114565D01*
X0170178Y0115192D01*
X0170592Y0115761D01*
X0171089Y0116258D01*
X0171658Y0116672D01*
X0172285Y0116991D01*
X0172954Y0117208D01*
X0173516Y0117297D01*
X0173516Y0113334D01*
X0174484Y0113334D01*
X0174484Y0117297D01*
X0175046Y0117208D01*
X0175715Y0116991D01*
X0176342Y0116672D01*
X0176911Y0116258D01*
X0177000Y0116169D01*
X0177000Y0118488D01*
X0176385Y0119103D01*
X0175916Y0120236D01*
X0175916Y0121463D01*
X0176385Y0122597D01*
X0177253Y0123465D01*
X0178386Y0123934D01*
X0179613Y0123934D01*
X0180747Y0123465D01*
X0181615Y0122597D01*
X0182084Y0121463D01*
X0182084Y0120236D01*
X0181615Y0119103D01*
X0181000Y0118488D01*
X0181000Y0116169D01*
X0181469Y0116638D01*
X0183111Y0117318D01*
X0184889Y0117318D01*
X0186531Y0116638D01*
X0187000Y0116169D01*
X0187000Y0123022D01*
X0184256Y0125766D01*
X0183386Y0125766D01*
X0182253Y0126235D01*
X0181385Y0127103D01*
X0180916Y0128236D01*
X0180916Y0129463D01*
X0181076Y0129850D01*
X0175817Y0129850D01*
X0175613Y0129766D01*
X0174386Y0129766D01*
X0173253Y0130235D01*
X0172385Y0131103D01*
X0171916Y0132236D01*
X0171916Y0133463D01*
X0172385Y0134597D01*
X0173253Y0135465D01*
X0174386Y0135934D01*
X0175613Y0135934D01*
X0176747Y0135465D01*
X0177615Y0134597D01*
X0177924Y0133850D01*
X0184172Y0133850D01*
X0184172Y0133850D01*
X0183000Y0135022D01*
X0183000Y0135569D01*
X0178598Y0135569D01*
X0177719Y0136448D01*
X0177719Y0141252D01*
X0178598Y0142131D01*
X0183000Y0142131D01*
X0183000Y0145569D01*
X0178598Y0145569D01*
X0177719Y0146448D01*
X0177719Y0151252D01*
X0178598Y0152131D01*
X0183402Y0152131D01*
X0184281Y0151252D01*
X0184281Y0150397D01*
X0185000Y0149678D01*
X0187000Y0147678D01*
X0187000Y0136678D01*
X0187828Y0135850D01*
X0201828Y0135850D01*
X0203000Y0134678D01*
X0208900Y0128778D01*
X0208900Y0128864D01*
X0209676Y0130739D01*
X0211111Y0132174D01*
X0212986Y0132950D01*
X0215014Y0132950D01*
X0216889Y0132174D01*
X0218324Y0130739D01*
X0219000Y0129106D01*
X0219676Y0130739D01*
X0221111Y0132174D01*
X0222986Y0132950D01*
X0225014Y0132950D01*
X0226889Y0132174D01*
X0228324Y0130739D01*
X0229000Y0129106D01*
X0229676Y0130739D01*
X0231111Y0132174D01*
X0232986Y0132950D01*
X0235014Y0132950D01*
X0236889Y0132174D01*
X0238324Y0130739D01*
X0239000Y0129106D01*
X0239676Y0130739D01*
X0241111Y0132174D01*
X0242986Y0132950D01*
X0245014Y0132950D01*
X0246889Y0132174D01*
X0248324Y0130739D01*
X0249000Y0129106D01*
X0249676Y0130739D01*
X0251111Y0132174D01*
X0252986Y0132950D01*
X0255014Y0132950D01*
X0256889Y0132174D01*
X0258324Y0130739D01*
X0259000Y0129106D01*
X0259676Y0130739D01*
X0261111Y0132174D01*
X0262986Y0132950D01*
X0265014Y0132950D01*
X0266889Y0132174D01*
X0268324Y0130739D01*
X0269026Y0129044D01*
X0269026Y0129044D01*
X0269274Y0129808D01*
X0269638Y0130523D01*
X0270110Y0131172D01*
X0270678Y0131740D01*
X0271327Y0132212D01*
X0272042Y0132576D01*
X0272806Y0132824D01*
X0273500Y0132934D01*
X0273500Y0128350D01*
X0274500Y0128350D01*
X0274500Y0132934D01*
X0275194Y0132824D01*
X0275958Y0132576D01*
X0276673Y0132212D01*
X0277322Y0131740D01*
X0277890Y0131172D01*
X0278362Y0130523D01*
X0278726Y0129808D01*
X0278974Y0129044D01*
X0278974Y0129044D01*
X0279676Y0130739D01*
X0281111Y0132174D01*
X0282986Y0132950D01*
X0285014Y0132950D01*
X0286889Y0132174D01*
X0288324Y0130739D01*
X0289100Y0128864D01*
X0289100Y0126836D01*
X0288324Y0124961D01*
X0286889Y0123526D01*
X0285014Y0122750D01*
X0282986Y0122750D01*
X0281111Y0123526D01*
X0279676Y0124961D01*
X0278974Y0126656D01*
X0278974Y0126656D01*
X0278726Y0125892D01*
X0278362Y0125177D01*
X0277890Y0124528D01*
X0277322Y0123960D01*
X0276673Y0123488D01*
X0275958Y0123124D01*
X0275194Y0122876D01*
X0274500Y0122766D01*
X0274500Y0127350D01*
X0273500Y0127350D01*
X0273500Y0122766D01*
X0272806Y0122876D01*
X0272042Y0123124D01*
X0271327Y0123488D01*
X0270678Y0123960D01*
X0270110Y0124528D01*
X0269638Y0125177D01*
X0269274Y0125892D01*
X0269026Y0126656D01*
X0269026Y0126656D01*
X0268324Y0124961D01*
X0266889Y0123526D01*
X0265014Y0122750D01*
X0262986Y0122750D01*
X0262097Y0123118D01*
X0261000Y0122022D01*
X0261000Y0116169D01*
X0261469Y0116638D01*
X0263111Y0117318D01*
X0264889Y0117318D01*
X0266531Y0116638D01*
X0267788Y0115381D01*
X0268468Y0113739D01*
X0268468Y0111961D01*
X0267788Y0110319D01*
X0266531Y0109062D01*
X0264889Y0108381D01*
X0263111Y0108381D01*
X0261469Y0109062D01*
X0261000Y0109531D01*
X0261000Y0097212D01*
X0261615Y0096597D01*
X0262084Y0095463D01*
X0262084Y0094236D01*
X0261615Y0093103D01*
X0260747Y0092235D01*
X0259613Y0091766D01*
X0258386Y0091766D01*
X0257253Y0092235D01*
X0256385Y0093103D01*
X0255916Y0094236D01*
X0255916Y0095463D01*
X0256385Y0096597D01*
X0257000Y0097212D01*
X0257000Y0109531D01*
X0256531Y0109062D01*
X0254889Y0108381D01*
X0253111Y0108381D01*
X0251469Y0109062D01*
X0251000Y0109531D01*
X0251000Y0097212D01*
X0251615Y0096597D01*
X0252084Y0095463D01*
X0252084Y0094236D01*
X0251615Y0093103D01*
X0250747Y0092235D01*
X0249613Y0091766D01*
X0248386Y0091766D01*
X0247578Y0092101D01*
X0252744Y0086934D01*
X0253613Y0086934D01*
X0254747Y0086465D01*
X0255615Y0085597D01*
X0256084Y0084463D01*
X0256084Y0083236D01*
X0255615Y0082103D01*
X0254747Y0081235D01*
X0253613Y0080766D01*
X0252913Y0080766D01*
X0268744Y0064934D01*
X0269613Y0064934D01*
X0270747Y0064465D01*
X0271615Y0063597D01*
X0272000Y0062667D01*
X0272000Y0108842D01*
X0271469Y0109062D01*
X0270212Y0110319D01*
X0269531Y0111961D01*
X0269531Y0113739D01*
X0270212Y0115381D01*
X0271469Y0116638D01*
X0273111Y0117318D01*
X0274889Y0117318D01*
X0276531Y0116638D01*
X0277788Y0115381D01*
X0278468Y0113739D01*
X0278468Y0111961D01*
X0277788Y0110319D01*
X0276531Y0109062D01*
X0276000Y0108842D01*
X0276000Y0060022D01*
X0274828Y0058850D01*
X0273297Y0057318D01*
X0274889Y0057318D01*
X0276531Y0056638D01*
X0277788Y0055381D01*
X0278468Y0053739D01*
X0278468Y0051961D01*
X0277788Y0050319D01*
X0276531Y0049062D01*
X0274889Y0048381D01*
X0273111Y0048381D01*
X0271469Y0049062D01*
X0271000Y0049531D01*
X0271000Y0042062D01*
X0271111Y0042174D01*
X0272000Y0042542D01*
X0272000Y0042678D01*
X0273172Y0043850D01*
X0273172Y0043850D01*
X0280044Y0050723D01*
X0279531Y0051961D01*
X0279531Y0053739D01*
X0280212Y0055381D01*
X0281469Y0056638D01*
X0282000Y0056858D01*
X0282000Y0067766D01*
X0281386Y0067766D01*
X0280253Y0068235D01*
X0279385Y0069103D01*
X0278916Y0070236D01*
X0278916Y0071463D01*
X0279385Y0072597D01*
X0280253Y0073465D01*
X0281386Y0073934D01*
X0282613Y0073934D01*
X0283747Y0073465D01*
X0284615Y0072597D01*
X0285084Y0071463D01*
X0285084Y0070594D01*
X0286000Y0069678D01*
X0286000Y0056858D01*
X0286531Y0056638D01*
X0286700Y0056469D01*
X0286700Y0096788D01*
X0286385Y0097103D01*
X0285916Y0098236D01*
X0285916Y0099463D01*
X0286385Y0100597D01*
X0287253Y0101465D01*
X0288386Y0101934D01*
X0288832Y0101934D01*
X0291700Y0104803D01*
X0291700Y0108966D01*
X0291469Y0109062D01*
X0290212Y0110319D01*
X0289531Y0111961D01*
X0289531Y0113739D01*
X0290212Y0115381D01*
X0291469Y0116638D01*
X0291700Y0116734D01*
X0291700Y0118100D01*
X0290129Y0118100D01*
X0289250Y0118979D01*
X0289250Y0126721D01*
X0290129Y0127600D01*
X0297871Y0127600D01*
X0298750Y0126721D01*
X0298750Y0118979D01*
X0297871Y0118100D01*
X0296300Y0118100D01*
X0296300Y0116734D01*
X0296531Y0116638D01*
X0297788Y0115381D01*
X0298468Y0113739D01*
X0298468Y0111961D01*
X0297788Y0110319D01*
X0296531Y0109062D01*
X0296300Y0108966D01*
X0296300Y0102897D01*
X0294953Y0101550D01*
X0292084Y0098682D01*
X0292084Y0098236D01*
X0291615Y0097103D01*
X0291300Y0096788D01*
X0291300Y0066391D01*
X0291385Y0066597D01*
X0292253Y0067465D01*
X0293386Y0067934D01*
X0294256Y0067934D01*
X0302000Y0075678D01*
X0302000Y0108842D01*
X0301469Y0109062D01*
X0300212Y0110319D01*
X0299531Y0111961D01*
X0299531Y0113739D01*
X0300212Y0115381D01*
X0301469Y0116638D01*
X0303111Y0117318D01*
X0304889Y0117318D01*
X0306531Y0116638D01*
X0307788Y0115381D01*
X0308468Y0113739D01*
X0308468Y0111961D01*
X0307788Y0110319D01*
X0306531Y0109062D01*
X0306000Y0108842D01*
X0306000Y0074022D01*
X0304828Y0072850D01*
X0297084Y0065106D01*
X0297084Y0064236D01*
X0296615Y0063103D01*
X0295747Y0062235D01*
X0294613Y0061766D01*
X0293386Y0061766D01*
X0292253Y0062235D01*
X0291385Y0063103D01*
X0291300Y0063309D01*
X0291300Y0056469D01*
X0291469Y0056638D01*
X0293111Y0057318D01*
X0294889Y0057318D01*
X0296531Y0056638D01*
X0297788Y0055381D01*
X0298468Y0053739D01*
X0298468Y0051961D01*
X0297788Y0050319D01*
X0296531Y0049062D01*
X0296000Y0048842D01*
X0296000Y0044212D01*
X0296615Y0043597D01*
X0297084Y0042463D01*
X0297084Y0041236D01*
X0296615Y0040103D01*
X0295747Y0039235D01*
X0294613Y0038766D01*
X0293386Y0038766D01*
X0292253Y0039235D01*
X0291385Y0040103D01*
X0290916Y0041236D01*
X0290916Y0041513D01*
X0289953Y0040550D01*
X0289953Y0040550D01*
X0288856Y0039453D01*
X0289100Y0038864D01*
X0289100Y0036836D01*
X0288324Y0034961D01*
X0286889Y0033526D01*
X0286463Y0033350D01*
X0306470Y0033350D01*
X0304388Y0035432D01*
X0303201Y0038299D01*
X0303201Y0041401D01*
X0304388Y0044268D01*
X0306582Y0046462D01*
X0309449Y0047649D01*
X0312551Y0047649D01*
X0315418Y0046462D01*
X0317500Y0044380D01*
X0317500Y0049633D01*
X0316691Y0048823D01*
X0314945Y0048100D01*
X0313055Y0048100D01*
X0311309Y0048823D01*
X0309973Y0050159D01*
X0309250Y0051905D01*
X0309250Y0053795D01*
X0309973Y0055541D01*
X0311309Y0056877D01*
X0313055Y0057600D01*
X0314945Y0057600D01*
X0316691Y0056877D01*
X0317500Y0056067D01*
X0317500Y0109633D01*
X0316691Y0108823D01*
X0314945Y0108100D01*
X0313055Y0108100D01*
X0311309Y0108823D01*
X0309973Y0110159D01*
X0309250Y0111905D01*
X0309250Y0113795D01*
X0309973Y0115541D01*
X0311309Y0116877D01*
X0313055Y0117600D01*
X0314945Y0117600D01*
X0316691Y0116877D01*
X0317500Y0116067D01*
X0317500Y0125320D01*
X0315418Y0123238D01*
X0312551Y0122051D01*
X0309449Y0122051D01*
X0308750Y0122340D01*
X0308750Y0121905D01*
X0308027Y0120159D01*
X0306691Y0118823D01*
X0304945Y0118100D01*
X0303055Y0118100D01*
X0301309Y0118823D01*
X0299973Y0120159D01*
X0299250Y0121905D01*
X0299250Y0123795D01*
X0299973Y0125541D01*
X0301309Y0126877D01*
X0303055Y0127600D01*
X0303490Y0127600D01*
X0303201Y0128299D01*
X0303201Y0131401D01*
X0304388Y0134268D01*
X0306582Y0136462D01*
X0309449Y0137649D01*
X0312551Y0137649D01*
X0315418Y0136462D01*
X0317500Y0134380D01*
X0317500Y0156850D01*
X0316281Y0156850D01*
X0316281Y0154448D01*
X0315402Y0153569D01*
X0315000Y0153569D01*
X0315000Y0152850D01*
X0316078Y0152850D01*
X0317250Y0151678D01*
X0317250Y0147022D01*
X0316078Y0145850D01*
X0317250Y0144678D01*
X0317250Y0140022D01*
X0316078Y0138850D01*
X0309922Y0138850D01*
X0309862Y0138909D01*
X0309862Y0138733D01*
X0308984Y0137854D01*
X0303016Y0137854D01*
X0302138Y0138733D01*
X0302138Y0144700D01*
X0303016Y0145578D01*
X0308984Y0145578D01*
X0309317Y0145245D01*
X0309922Y0145850D01*
X0316078Y0145850D01*
X0309922Y0145850D01*
X0309317Y0146455D01*
X0308984Y0146122D01*
X0303016Y0146122D01*
X0302138Y0147000D01*
X0302138Y0147850D01*
X0299172Y0147850D01*
X0298000Y0149022D01*
X0290256Y0156766D01*
X0289386Y0156766D01*
X0289183Y0156850D01*
X0284253Y0156850D01*
X0273953Y0146550D01*
X0266300Y0146550D01*
X0266300Y0145039D01*
X0266691Y0144877D01*
X0268027Y0143541D01*
X0268750Y0141795D01*
X0268750Y0139905D01*
X0268027Y0138159D01*
X0266691Y0136823D01*
X0264945Y0136100D01*
X0263055Y0136100D01*
X0261309Y0136823D01*
X0259973Y0138159D01*
X0259250Y0139905D01*
X0259250Y0141795D01*
X0259973Y0143541D01*
X0261309Y0144877D01*
X0261700Y0145039D01*
X0261700Y0146550D01*
X0226250Y0146550D01*
X0226250Y0146022D01*
X0225078Y0144850D01*
X0226250Y0143678D01*
X0226250Y0139022D01*
X0225078Y0137850D01*
X0218922Y0137850D01*
X0218862Y0137909D01*
X0218862Y0137733D01*
X0217984Y0136854D01*
X0212016Y0136854D01*
X0211138Y0137733D01*
X0211138Y0143700D01*
X0212016Y0144578D01*
X0217984Y0144578D01*
X0218317Y0144245D01*
X0218922Y0144850D01*
X0225078Y0144850D01*
X0218922Y0144850D01*
X0218317Y0145455D01*
X0217984Y0145122D01*
X0212016Y0145122D01*
X0211138Y0146000D01*
X0211138Y0146984D01*
X0209639Y0146984D01*
X0209597Y0146946D01*
X0208818Y0146984D01*
X0208038Y0146984D01*
X0207998Y0147023D01*
X0207942Y0147026D01*
X0207418Y0147604D01*
X0206866Y0148155D01*
X0206866Y0148211D01*
X0199099Y0156766D01*
X0198386Y0156766D01*
X0198183Y0156850D01*
X0192953Y0156850D01*
X0191653Y0155550D01*
X0136047Y0155550D01*
X0134747Y0156850D01*
X0129924Y0156850D01*
X0130084Y0156463D01*
X0130084Y0155236D01*
X0129615Y0154103D01*
X0128747Y0153235D01*
X0127613Y0152766D01*
X0126386Y0152766D01*
X0125253Y0153235D01*
X0124385Y0154103D01*
X0123916Y0155236D01*
X0123916Y0156463D01*
X0124385Y0157597D01*
X0124555Y0157767D01*
X0122945Y0157100D01*
X0121055Y0157100D01*
X0119309Y0157823D01*
X0117973Y0159159D01*
X0117250Y0160905D01*
X0117250Y0162772D01*
X0115584Y0161106D01*
X0115584Y0160236D01*
X0115115Y0159103D01*
X0114247Y0158235D01*
X0113113Y0157766D01*
X0111886Y0157766D01*
X0110753Y0158235D01*
X0109885Y0159103D01*
X0109416Y0160236D01*
X0109416Y0161463D01*
X0109885Y0162597D01*
X0110753Y0163465D01*
X0111886Y0163934D01*
X0112756Y0163934D01*
X0115000Y0166178D01*
X0115000Y0179022D01*
X0114517Y0179505D01*
X0114247Y0179235D01*
X0113113Y0178766D01*
X0111886Y0178766D01*
X0110753Y0179235D01*
X0109885Y0180103D01*
X0109416Y0181236D01*
X0109416Y0182463D01*
X0109885Y0183597D01*
X0110753Y0184465D01*
X0111886Y0184934D01*
X0113113Y0184934D01*
X0114247Y0184465D01*
X0114862Y0183850D01*
X0115828Y0183850D01*
X0117250Y0182428D01*
X0117250Y0185297D01*
X0117352Y0185679D01*
X0117550Y0186021D01*
X0117829Y0186300D01*
X0118171Y0186498D01*
X0118553Y0186600D01*
X0121625Y0186600D01*
X0121625Y0182225D01*
X0122375Y0182225D01*
X0122375Y0186600D01*
X0125447Y0186600D01*
X0125829Y0186498D01*
X0126171Y0186300D01*
X0126450Y0186021D01*
X0126648Y0185679D01*
X0126750Y0185297D01*
X0126750Y0182225D01*
X0122375Y0182225D01*
X0122375Y0181475D01*
X0126750Y0181475D01*
X0126750Y0178403D01*
X0126648Y0178021D01*
X0126450Y0177679D01*
X0126171Y0177400D01*
X0125829Y0177202D01*
X0125447Y0177100D01*
X0122375Y0177100D01*
X0122375Y0181475D01*
X0121625Y0181475D01*
X0121625Y0177100D01*
X0119000Y0177100D01*
X0119000Y0175567D01*
X0119309Y0175877D01*
X0121055Y0176600D01*
X0122945Y0176600D01*
X0124691Y0175877D01*
X0126027Y0174541D01*
X0126750Y0172795D01*
X0126750Y0170905D01*
X0126464Y0170214D01*
X0128000Y0168678D01*
X0128000Y0189850D01*
X0114500Y0189850D01*
X0114500Y0189600D01*
X0110250Y0189600D01*
X0110250Y0189100D01*
X0114500Y0189100D01*
X0114500Y0187653D01*
X0114398Y0187271D01*
X0114200Y0186929D01*
X0113921Y0186650D01*
X0113579Y0186452D01*
X0113197Y0186350D01*
X0110250Y0186350D01*
X0110250Y0189100D01*
X0109750Y0189100D01*
X0109750Y0186350D01*
X0106803Y0186350D01*
X0106421Y0186452D01*
X0106079Y0186650D01*
X0105800Y0186929D01*
X0105602Y0187271D01*
X0105500Y0187653D01*
X0105500Y0189100D01*
X0109750Y0189100D01*
X0109750Y0189600D01*
X0105500Y0189600D01*
X0105500Y0189850D01*
X0092500Y0189850D01*
X0092500Y0189600D01*
X0088250Y0189600D01*
X0088250Y0189100D01*
X0092500Y0189100D01*
X0092500Y0187653D01*
X0092398Y0187271D01*
X0092200Y0186929D01*
X0091921Y0186650D01*
X0091579Y0186452D01*
X0091197Y0186350D01*
X0088250Y0186350D01*
X0088250Y0189100D01*
X0087750Y0189100D01*
X0087750Y0186350D01*
X0084803Y0186350D01*
X0084421Y0186452D01*
X0084079Y0186650D01*
X0083800Y0186929D01*
X0083602Y0187271D01*
X0083500Y0187653D01*
X0083500Y0189100D01*
X0087750Y0189100D01*
X0087750Y0189600D01*
X0083500Y0189600D01*
X0083500Y0189850D01*
X0083393Y0189850D01*
X0083300Y0189773D01*
X0083300Y0161351D01*
X0083460Y0146125D01*
X0083861Y0146392D01*
X0084322Y0146583D01*
X0084811Y0146681D01*
X0085595Y0146681D01*
X0085595Y0141350D01*
X0086594Y0141350D01*
X0086594Y0146681D01*
X0087377Y0146681D01*
X0087867Y0146583D01*
X0088328Y0146392D01*
X0088743Y0146115D01*
X0089096Y0145762D01*
X0089150Y0145681D01*
X0094850Y0145681D01*
X0094904Y0145762D01*
X0095257Y0146115D01*
X0095672Y0146392D01*
X0096133Y0146583D01*
X0096623Y0146681D01*
X0097406Y0146681D01*
X0097406Y0141350D01*
X0098405Y0141350D01*
X0098405Y0146681D01*
X0099188Y0146681D01*
X0099678Y0146583D01*
X0100139Y0146392D01*
X0100350Y0146251D01*
X0100350Y0146776D01*
X0103074Y0149500D01*
X0104700Y0149500D01*
X0104700Y0145150D01*
X0105300Y0145150D01*
X0105300Y0149500D01*
X0106926Y0149500D01*
X0109650Y0146776D01*
X0109650Y0145150D01*
X0105300Y0145150D01*
X0105300Y0144550D01*
X0109650Y0144550D01*
X0109650Y0142924D01*
X0107326Y0140600D01*
X0109650Y0138276D01*
X0109650Y0134424D01*
X0106926Y0131700D01*
X0103074Y0131700D01*
X0101928Y0132846D01*
X0100832Y0132846D01*
X0100831Y0132846D01*
X0100006Y0132846D01*
X0099176Y0132846D01*
X0099175Y0132846D01*
X0095293Y0132848D01*
X0095090Y0132360D01*
X0094391Y0131661D01*
X0093478Y0131283D01*
X0090522Y0131283D01*
X0089609Y0131661D01*
X0088910Y0132360D01*
X0088531Y0133273D01*
X0088531Y0135444D01*
X0088328Y0135308D01*
X0087867Y0135117D01*
X0087377Y0135019D01*
X0086594Y0135019D01*
X0086594Y0140350D01*
X0085595Y0140350D01*
X0085595Y0135019D01*
X0084811Y0135019D01*
X0084322Y0135117D01*
X0083861Y0135308D01*
X0083572Y0135501D01*
X0083668Y0126347D01*
X0084172Y0126850D01*
X0093828Y0126850D01*
X0095000Y0125678D01*
X0096500Y0124178D01*
X0096500Y0124100D01*
X0096828Y0124100D01*
X0098000Y0122928D01*
X0098000Y0116772D01*
X0096828Y0115600D01*
X0092172Y0115600D01*
X0091000Y0116772D01*
X0091000Y0122850D01*
X0091000Y0122850D01*
X0091000Y0116772D01*
X0090953Y0116725D01*
X0092078Y0115600D01*
X0095621Y0115600D01*
X0096500Y0114721D01*
X0096500Y0108979D01*
X0095621Y0108100D01*
X0090379Y0108100D01*
X0089500Y0108979D01*
X0089500Y0112522D01*
X0087997Y0114025D01*
X0087615Y0113103D01*
X0086747Y0112235D01*
X0085613Y0111766D01*
X0084386Y0111766D01*
X0083819Y0112001D01*
X0084000Y0094850D01*
X0083300Y0094150D01*
X0083300Y0083131D01*
X0083402Y0083131D01*
X0084281Y0082252D01*
X0084281Y0077448D01*
X0083402Y0076569D01*
X0078598Y0076569D01*
X0077746Y0077420D01*
X0077673Y0076961D01*
X0077456Y0076292D01*
X0077137Y0075665D01*
X0076723Y0075096D01*
X0076226Y0074599D01*
X0075657Y0074186D01*
X0075030Y0073866D01*
X0074361Y0073649D01*
X0073799Y0073560D01*
X0073799Y0080492D01*
X0072831Y0080492D01*
X0072831Y0073560D01*
X0072269Y0073649D01*
X0071600Y0073866D01*
X0070973Y0074186D01*
X0070404Y0074599D01*
X0069907Y0075096D01*
X0069493Y0075665D01*
X0069174Y0076292D01*
X0068956Y0076961D01*
X0068846Y0077656D01*
X0068846Y0080492D01*
X0072831Y0080492D01*
X0072831Y0081460D01*
X0068846Y0081460D01*
X0068846Y0084296D01*
X0068956Y0084991D01*
X0069174Y0085660D01*
X0069493Y0086286D01*
X0069907Y0086856D01*
X0070404Y0087353D01*
X0070973Y0087766D01*
X0071600Y0088086D01*
X0072269Y0088303D01*
X0072831Y0088392D01*
X0072831Y0081460D01*
X0073799Y0081460D01*
X0073799Y0088392D01*
X0074361Y0088303D01*
X0075030Y0088086D01*
X0075657Y0087766D01*
X0076226Y0087353D01*
X0076723Y0086856D01*
X0077137Y0086286D01*
X0077456Y0085660D01*
X0077673Y0084991D01*
X0077783Y0084296D01*
X0077783Y0082317D01*
X0078598Y0083131D01*
X0078700Y0083131D01*
X0078700Y0089850D01*
X0070000Y0089850D01*
X0055000Y0074850D01*
X0018000Y0074850D01*
X0015000Y0071850D01*
X0015000Y0045880D01*
X0016612Y0044268D01*
X0017799Y0041401D01*
X0017799Y0040796D01*
X0022408Y0035769D01*
X0021900Y0036995D01*
X0021900Y0038705D01*
X0022555Y0040286D01*
X0023764Y0041495D01*
X0025345Y0042150D01*
X0031447Y0042150D01*
X0030047Y0043550D01*
X0025345Y0043550D01*
X0023764Y0044205D01*
X0022555Y0045414D01*
X0021900Y0046995D01*
X0021900Y0048705D01*
X0022555Y0050286D01*
X0023764Y0051495D01*
X0025345Y0052150D01*
X0032472Y0052150D01*
X0037000Y0056678D01*
X0037000Y0056772D01*
X0036750Y0057022D01*
X0036750Y0061678D01*
X0037922Y0062850D01*
X0044078Y0062850D01*
X0045250Y0064022D01*
X0045250Y0068678D01*
X0044078Y0069850D01*
X0037922Y0069850D01*
X0036750Y0068678D01*
X0036750Y0068350D01*
X0034862Y0068350D01*
X0034862Y0069967D01*
X0033984Y0070846D01*
X0028016Y0070846D01*
X0027138Y0069967D01*
X0027138Y0064000D01*
X0028016Y0063122D01*
X0033984Y0063122D01*
X0034862Y0064000D01*
X0034862Y0064350D01*
X0036750Y0064350D01*
X0036750Y0064022D01*
X0037922Y0062850D01*
X0044078Y0062850D01*
X0045250Y0061678D01*
X0045250Y0057022D01*
X0044078Y0055850D01*
X0041000Y0055850D01*
X0041000Y0055022D01*
X0039828Y0053850D01*
X0035685Y0049707D01*
X0036000Y0048947D01*
X0036555Y0050286D01*
X0037764Y0051495D01*
X0039345Y0052150D01*
X0046655Y0052150D01*
X0048236Y0051495D01*
X0049445Y0050286D01*
X0050100Y0048705D01*
X0050100Y0046995D01*
X0049445Y0045414D01*
X0049237Y0045206D01*
X0050077Y0045150D01*
X0050953Y0045150D01*
X0051015Y0045087D01*
X0051104Y0045082D01*
X0051680Y0044422D01*
X0052300Y0043803D01*
X0052300Y0043714D01*
X0052531Y0043450D01*
X0056600Y0043450D01*
X0057400Y0043450D01*
X0057400Y0039200D01*
X0058926Y0039200D01*
X0061000Y0041274D01*
X0063074Y0039200D01*
X0066926Y0039200D01*
X0069000Y0041274D01*
X0070700Y0039574D01*
X0070700Y0037150D01*
X0058044Y0037150D01*
X0056250Y0039200D01*
X0056600Y0039200D01*
X0056600Y0043450D01*
X0056600Y0044250D01*
X0056600Y0048500D01*
X0055074Y0048500D01*
X0052350Y0045776D01*
X0052350Y0044250D01*
X0056600Y0044250D01*
X0057400Y0044250D01*
X0057400Y0048500D01*
X0058926Y0048500D01*
X0061000Y0046426D01*
X0063074Y0048500D01*
X0066926Y0048500D01*
X0069000Y0046426D01*
X0071074Y0048500D01*
X0074926Y0048500D01*
X0077650Y0045776D01*
X0077650Y0041924D01*
X0075300Y0039574D01*
X0075300Y0037150D01*
X0106938Y0037150D01*
X0107253Y0037465D01*
X0107968Y0037761D01*
X0107500Y0038229D01*
X0107500Y0043471D01*
X0108379Y0044350D01*
X0114000Y0044350D01*
X0114000Y0044678D01*
X0116000Y0046678D01*
X0117172Y0047850D01*
X0133638Y0047850D01*
X0134253Y0048465D01*
X0135386Y0048934D01*
X0136613Y0048934D01*
X0137747Y0048465D01*
X0138615Y0047597D01*
X0139084Y0046463D01*
X0139084Y0045236D01*
X0138615Y0044103D01*
X0137747Y0043235D01*
X0136613Y0042766D01*
X0135386Y0042766D01*
X0134253Y0043235D01*
X0133638Y0043850D01*
X0124121Y0043850D01*
X0124500Y0043471D01*
X0124500Y0040178D01*
X0124828Y0039850D01*
X0137076Y0039850D01*
X0136916Y0040236D01*
X0136916Y0041463D01*
X0137385Y0042597D01*
X0138253Y0043465D01*
X0139386Y0043934D01*
X0139832Y0043934D01*
X0141700Y0045803D01*
X0141700Y0052803D01*
X0150916Y0062018D01*
X0150916Y0062463D01*
X0151385Y0063597D01*
X0152253Y0064465D01*
X0153386Y0064934D01*
X0154613Y0064934D01*
X0155747Y0064465D01*
X0156615Y0063597D01*
X0157084Y0062463D01*
X0157084Y0061236D01*
X0156615Y0060103D01*
X0155747Y0059235D01*
X0154613Y0058766D01*
X0154168Y0058766D01*
X0152966Y0057563D01*
X0153055Y0057600D01*
X0154945Y0057600D01*
X0156691Y0056877D01*
X0157400Y0056167D01*
X0157400Y0064797D01*
X0157359Y0065572D01*
X0157400Y0065617D01*
X0157400Y0065678D01*
X0157949Y0066227D01*
X0161000Y0069617D01*
X0161000Y0069678D01*
X0161549Y0070227D01*
X0162068Y0070804D01*
X0162128Y0070807D01*
X0162172Y0070850D01*
X0162947Y0070850D01*
X0163722Y0070891D01*
X0163767Y0070850D01*
X0164687Y0070850D01*
X0164973Y0071541D01*
X0165283Y0071850D01*
X0154172Y0071850D01*
X0153000Y0073022D01*
X0153000Y0073022D01*
X0147172Y0078850D01*
X0132750Y0078850D01*
X0132750Y0073729D01*
X0131871Y0072850D01*
X0126129Y0072850D01*
X0125604Y0072325D01*
X0125078Y0072850D01*
X0118922Y0072850D01*
X0117750Y0071678D01*
X0117750Y0070150D01*
X0117341Y0070150D01*
X0117584Y0070736D01*
X0117584Y0071963D01*
X0117115Y0073097D01*
X0116496Y0073716D01*
X0116484Y0080367D01*
X0116484Y0081194D01*
X0116483Y0081196D01*
X0116483Y0081198D01*
X0115898Y0081781D01*
X0115422Y0082257D01*
X0114516Y0083182D01*
X0114516Y0083194D01*
X0113937Y0083772D01*
X0113365Y0084357D01*
X0113353Y0084357D01*
X0113344Y0084366D01*
X0113028Y0084366D01*
X0113028Y0085349D01*
X0112149Y0086228D01*
X0110280Y0086228D01*
X0110280Y0089399D01*
X0105000Y0094678D01*
X0105000Y0095531D01*
X0105469Y0095062D01*
X0107111Y0094381D01*
X0108889Y0094381D01*
X0110531Y0095062D01*
X0111000Y0095531D01*
X0111000Y0093022D01*
X0121000Y0083022D01*
X0122172Y0081850D01*
X0129172Y0081850D01*
X0127172Y0079850D01*
X0126129Y0079850D01*
X0125604Y0079325D01*
X0125078Y0079850D01*
X0118922Y0079850D01*
X0117750Y0078678D01*
X0117750Y0074022D01*
X0118922Y0072850D01*
X0125078Y0072850D01*
X0125604Y0073375D01*
X0126129Y0072850D01*
X0131871Y0072850D01*
X0132750Y0071971D01*
X0132750Y0070150D01*
X0133422Y0070150D01*
X0133352Y0070271D01*
X0133250Y0070653D01*
X0133250Y0072350D01*
X0136500Y0072350D01*
X0136500Y0073350D01*
X0136500Y0076350D01*
X0134553Y0076350D01*
X0134171Y0076248D01*
X0133829Y0076050D01*
X0133550Y0075771D01*
X0133352Y0075429D01*
X0133250Y0075047D01*
X0133250Y0073350D01*
X0136500Y0073350D01*
X0137500Y0073350D01*
X0137500Y0076350D01*
X0139447Y0076350D01*
X0139829Y0076248D01*
X0140171Y0076050D01*
X0140450Y0075771D01*
X0140648Y0075429D01*
X0140750Y0075047D01*
X0140750Y0073350D01*
X0137500Y0073350D01*
X0137500Y0072350D01*
X0140750Y0072350D01*
X0140750Y0070853D01*
X0140916Y0071018D01*
X0140916Y0071463D01*
X0141385Y0072597D01*
X0142253Y0073465D01*
X0143386Y0073934D01*
X0144613Y0073934D01*
X0145747Y0073465D01*
X0146615Y0072597D01*
X0147084Y0071463D01*
X0147084Y0070236D01*
X0146615Y0069103D01*
X0145747Y0068235D01*
X0144613Y0067766D01*
X0144168Y0067766D01*
X0141953Y0065550D01*
X0131378Y0065550D01*
X0132000Y0064928D01*
X0132000Y0058850D01*
X0132172Y0058850D01*
X0137172Y0063850D01*
X0141638Y0063850D01*
X0142253Y0064465D01*
X0143386Y0064934D01*
X0144613Y0064934D01*
X0145747Y0064465D01*
X0146615Y0063597D01*
X0147084Y0062463D01*
X0147084Y0061236D01*
X0146615Y0060103D01*
X0145747Y0059235D01*
X0144613Y0058766D01*
X0143386Y0058766D01*
X0142253Y0059235D01*
X0141638Y0059850D01*
X0138828Y0059850D01*
X0138825Y0059847D01*
X0139747Y0059465D01*
X0140615Y0058597D01*
X0141084Y0057463D01*
X0141084Y0056236D01*
X0140615Y0055103D01*
X0139747Y0054235D01*
X0138613Y0053766D01*
X0137744Y0053766D01*
X0136828Y0052850D01*
X0106172Y0052850D01*
X0105000Y0054022D01*
X0103720Y0055301D01*
X0103720Y0055472D01*
X0101851Y0055472D01*
X0100972Y0056351D01*
X0100972Y0062077D01*
X0100708Y0062342D01*
X0100799Y0062000D01*
X0100799Y0059350D01*
X0097240Y0059350D01*
X0096240Y0059350D01*
X0096240Y0063303D01*
X0093984Y0063303D01*
X0093602Y0063201D01*
X0093260Y0063003D01*
X0093000Y0062743D01*
X0092440Y0063303D01*
X0086079Y0063303D01*
X0085201Y0062424D01*
X0085201Y0055276D01*
X0086079Y0054397D01*
X0092440Y0054397D01*
X0093000Y0054957D01*
X0093260Y0054697D01*
X0093602Y0054499D01*
X0093984Y0054397D01*
X0096240Y0054397D01*
X0096240Y0058350D01*
X0097240Y0058350D01*
X0097240Y0054397D01*
X0099497Y0054397D01*
X0099878Y0054499D01*
X0100220Y0054697D01*
X0100499Y0054976D01*
X0100697Y0055318D01*
X0100799Y0055700D01*
X0100799Y0058350D01*
X0097240Y0058350D01*
X0097240Y0059350D01*
X0097240Y0063303D01*
X0099497Y0063303D01*
X0099878Y0063201D01*
X0100220Y0063003D01*
X0100424Y0062799D01*
X0100077Y0063636D01*
X0100077Y0064554D01*
X0099574Y0064051D01*
X0092426Y0064051D01*
X0091547Y0064929D01*
X0091547Y0065550D01*
X0075953Y0065550D01*
X0062953Y0052550D01*
X0061080Y0052550D01*
X0060942Y0052216D01*
X0059634Y0050908D01*
X0057925Y0050200D01*
X0056075Y0050200D01*
X0054366Y0050908D01*
X0053058Y0052216D01*
X0052350Y0053925D01*
X0052350Y0055775D01*
X0053058Y0057484D01*
X0054366Y0058792D01*
X0056075Y0059500D01*
X0057925Y0059500D01*
X0059634Y0058792D01*
X0060942Y0057484D01*
X0061071Y0057173D01*
X0074047Y0070150D01*
X0091547Y0070150D01*
X0091547Y0071290D01*
X0092107Y0071850D01*
X0091847Y0072110D01*
X0091649Y0072452D01*
X0091547Y0072834D01*
X0091547Y0075090D01*
X0095500Y0075090D01*
X0095500Y0076090D01*
X0091547Y0076090D01*
X0091547Y0078347D01*
X0091649Y0078728D01*
X0091847Y0079070D01*
X0092126Y0079349D01*
X0092468Y0079547D01*
X0092850Y0079649D01*
X0095500Y0079649D01*
X0095500Y0076090D01*
X0096500Y0076090D01*
X0100453Y0076090D01*
X0100453Y0078347D01*
X0100351Y0078728D01*
X0100153Y0079070D01*
X0099874Y0079349D01*
X0099532Y0079547D01*
X0099150Y0079649D01*
X0096500Y0079649D01*
X0096500Y0076090D01*
X0096500Y0075090D01*
X0100453Y0075090D01*
X0100453Y0072834D01*
X0100351Y0072452D01*
X0100153Y0072110D01*
X0099893Y0071850D01*
X0100453Y0071290D01*
X0100453Y0070150D01*
X0103720Y0070150D01*
X0103720Y0078504D01*
X0103161Y0078504D01*
X0103161Y0082366D01*
X0103161Y0082366D01*
X0100972Y0082366D01*
X0100972Y0084925D01*
X0101075Y0085307D01*
X0101272Y0085649D01*
X0101473Y0085850D01*
X0094172Y0085850D01*
X0093000Y0087022D01*
X0088672Y0091350D01*
X0088672Y0091350D01*
X0087500Y0092522D01*
X0087500Y0092600D01*
X0087172Y0092600D01*
X0086000Y0093772D01*
X0086000Y0099928D01*
X0086525Y0100454D01*
X0086000Y0100979D01*
X0086000Y0106721D01*
X0086879Y0107600D01*
X0092121Y0107600D01*
X0093000Y0106721D01*
X0093000Y0100979D01*
X0092475Y0100454D01*
X0093000Y0099928D01*
X0093000Y0093772D01*
X0092453Y0093225D01*
X0095828Y0089850D01*
X0104172Y0089850D01*
X0102172Y0091850D01*
X0101000Y0093022D01*
X0101000Y0104678D01*
X0103752Y0107430D01*
X0103531Y0107961D01*
X0103531Y0109739D01*
X0104212Y0111381D01*
X0104596Y0111766D01*
X0103386Y0111766D01*
X0103000Y0111926D01*
X0103000Y0107022D01*
X0101828Y0105850D01*
X0100910Y0104932D01*
X0100896Y0104806D01*
X0100336Y0104357D01*
X0100000Y0104022D01*
X0100000Y0100979D01*
X0099475Y0100454D01*
X0100000Y0099928D01*
X0100000Y0093772D01*
X0098828Y0092600D01*
X0094172Y0092600D01*
X0093000Y0093772D01*
X0093000Y0099928D01*
X0093525Y0100454D01*
X0093000Y0100979D01*
X0093000Y0106721D01*
X0093879Y0107600D01*
X0097922Y0107600D01*
X0099000Y0108678D01*
X0099000Y0127678D01*
X0101000Y0129678D01*
X0102172Y0130850D01*
X0106172Y0130850D01*
X0113000Y0137678D01*
X0113000Y0138537D01*
X0112309Y0138823D01*
X0110973Y0140159D01*
X0110250Y0141905D01*
X0110250Y0143795D01*
X0110973Y0145541D01*
X0112309Y0146877D01*
X0114055Y0147600D01*
X0115945Y0147600D01*
X0117691Y0146877D01*
X0119027Y0145541D01*
X0119750Y0143795D01*
X0119750Y0141905D01*
X0119027Y0140159D01*
X0117691Y0138823D01*
X0117000Y0138537D01*
X0117000Y0137678D01*
X0117000Y0137678D01*
X0118172Y0138850D01*
X0122283Y0138850D01*
X0120973Y0140159D01*
X0120250Y0141905D01*
X0120250Y0143795D01*
X0120973Y0145541D01*
X0122309Y0146877D01*
X0124055Y0147600D01*
X0125945Y0147600D01*
X0127691Y0146877D01*
X0129027Y0145541D01*
X0129750Y0143795D01*
X0129750Y0141905D01*
X0129027Y0140159D01*
X0127717Y0138850D01*
X0132424Y0138850D01*
X0131906Y0139227D01*
X0131377Y0139756D01*
X0130937Y0140360D01*
X0130598Y0141027D01*
X0130367Y0141738D01*
X0130250Y0142475D01*
X0134625Y0142475D01*
X0134625Y0143225D01*
X0134625Y0147600D01*
X0133888Y0147483D01*
X0133177Y0147252D01*
X0132510Y0146913D01*
X0131906Y0146473D01*
X0131377Y0145944D01*
X0130937Y0145340D01*
X0130598Y0144673D01*
X0130367Y0143962D01*
X0130250Y0143225D01*
X0134625Y0143225D01*
X0135375Y0143225D01*
X0135375Y0147600D01*
X0136112Y0147483D01*
X0136823Y0147252D01*
X0137490Y0146913D01*
X0138094Y0146473D01*
X0138623Y0145944D01*
X0139063Y0145340D01*
X0139402Y0144673D01*
X0139633Y0143962D01*
X0139750Y0143225D01*
X0135375Y0143225D01*
X0135375Y0142475D01*
X0139750Y0142475D01*
X0139633Y0141738D01*
X0139402Y0141027D01*
X0139063Y0140360D01*
X0138623Y0139756D01*
X0138094Y0139227D01*
X0137576Y0138850D01*
X0140379Y0138850D01*
X0140250Y0138979D01*
X0140250Y0146721D01*
X0141129Y0147600D01*
X0148871Y0147600D01*
X0149750Y0146721D01*
X0149750Y0139850D01*
X0155183Y0139850D01*
X0154253Y0140235D01*
X0153385Y0141103D01*
X0152916Y0142236D01*
X0152916Y0143463D01*
X0153385Y0144597D01*
X0154253Y0145465D01*
X0155386Y0145934D01*
X0156613Y0145934D01*
X0157747Y0145465D01*
X0158615Y0144597D01*
X0159084Y0143463D01*
X0159084Y0142236D01*
X0158615Y0141103D01*
X0157747Y0140235D01*
X0156817Y0139850D01*
X0166719Y0139850D01*
X0166719Y0141252D01*
X0167598Y0142131D01*
X0172402Y0142131D01*
X0173281Y0141252D01*
X0173281Y0136448D01*
X0172402Y0135569D01*
X0167598Y0135569D01*
X0167316Y0135850D01*
X0156576Y0135850D01*
X0157407Y0135020D01*
X0158114Y0133310D01*
X0158114Y0131461D01*
X0157407Y0129752D01*
X0156098Y0128443D01*
X0154741Y0127881D01*
X0155747Y0127465D01*
X0155928Y0127283D01*
X0156361Y0128706D02*
X0157569Y0128706D01*
X0157719Y0127707D02*
X0158567Y0127707D01*
X0158717Y0126709D02*
X0159566Y0126709D01*
X0159716Y0125710D02*
X0160507Y0125710D01*
X0160564Y0125710D02*
X0161355Y0125710D01*
X0161505Y0126709D02*
X0162354Y0126709D01*
X0162504Y0127707D02*
X0163352Y0127707D01*
X0163502Y0128706D02*
X0180916Y0128706D01*
X0181015Y0129704D02*
X0162722Y0129704D01*
X0164719Y0127707D02*
X0181135Y0127707D01*
X0181780Y0126709D02*
X0171158Y0126709D01*
X0172502Y0125710D02*
X0184312Y0125710D01*
X0185310Y0124712D02*
X0172981Y0124712D01*
X0173084Y0123713D02*
X0177852Y0123713D01*
X0176503Y0122715D02*
X0172868Y0122715D01*
X0172228Y0121716D02*
X0176020Y0121716D01*
X0175916Y0120718D02*
X0169696Y0120718D01*
X0168697Y0119719D02*
X0176130Y0119719D01*
X0176768Y0118720D02*
X0167699Y0118720D01*
X0166700Y0117722D02*
X0177000Y0117722D01*
X0177000Y0116723D02*
X0176241Y0116723D01*
X0174484Y0116723D02*
X0173516Y0116723D01*
X0173516Y0115725D02*
X0174484Y0115725D01*
X0174484Y0114726D02*
X0173516Y0114726D01*
X0173516Y0113728D02*
X0174484Y0113728D01*
X0173516Y0112729D02*
X0168468Y0112729D01*
X0168468Y0113728D02*
X0169615Y0113728D01*
X0169941Y0114726D02*
X0168059Y0114726D01*
X0167444Y0115725D02*
X0170565Y0115725D01*
X0171759Y0116723D02*
X0166325Y0116723D01*
X0164000Y0117850D02*
X0170000Y0123850D01*
X0168842Y0126709D02*
X0165186Y0126709D01*
X0165186Y0125710D02*
X0167498Y0125710D01*
X0167019Y0124712D02*
X0165186Y0124712D01*
X0165186Y0123713D02*
X0166916Y0123713D01*
X0166036Y0122715D02*
X0164512Y0122715D01*
X0163560Y0122715D02*
X0162711Y0122715D01*
X0162561Y0123713D02*
X0161713Y0123713D01*
X0161563Y0124712D02*
X0160714Y0124712D01*
X0160357Y0124712D02*
X0159508Y0124712D01*
X0159358Y0123713D02*
X0158510Y0123713D01*
X0158360Y0122715D02*
X0157511Y0122715D01*
X0156559Y0122715D02*
X0156226Y0122715D01*
X0157558Y0121716D02*
X0153084Y0121716D01*
X0153076Y0120718D02*
X0158556Y0120718D01*
X0162515Y0120718D02*
X0164039Y0120718D01*
X0163513Y0121716D02*
X0165038Y0121716D01*
X0164000Y0117850D02*
X0133000Y0117850D01*
X0131800Y0116650D01*
X0131000Y0113850D02*
X0133000Y0111850D01*
X0133000Y0104850D01*
X0134000Y0103850D01*
X0151000Y0103850D01*
X0152086Y0106738D02*
X0177000Y0106738D01*
X0177000Y0105740D02*
X0153472Y0105740D01*
X0153969Y0104741D02*
X0177000Y0104741D01*
X0177000Y0103743D02*
X0154084Y0103743D01*
X0158779Y0102744D02*
X0164273Y0102744D01*
X0164250Y0102721D02*
X0164250Y0094979D01*
X0165129Y0094100D01*
X0172871Y0094100D01*
X0173750Y0094979D01*
X0173750Y0102721D01*
X0172871Y0103600D01*
X0165129Y0103600D01*
X0164250Y0102721D01*
X0164250Y0101746D02*
X0159453Y0101746D01*
X0159453Y0100747D02*
X0164250Y0100747D01*
X0164250Y0099749D02*
X0159453Y0099749D01*
X0159453Y0098750D02*
X0164250Y0098750D01*
X0164250Y0097752D02*
X0159453Y0097752D01*
X0159453Y0096753D02*
X0164250Y0096753D01*
X0164250Y0095755D02*
X0159453Y0095755D01*
X0159230Y0094756D02*
X0164472Y0094756D01*
X0166299Y0092759D02*
X0159453Y0092759D01*
X0159453Y0093758D02*
X0175916Y0093758D01*
X0176037Y0094756D02*
X0173528Y0094756D01*
X0173750Y0095755D02*
X0176543Y0095755D01*
X0177000Y0096753D02*
X0173750Y0096753D01*
X0173750Y0097752D02*
X0177000Y0097752D01*
X0177000Y0098750D02*
X0173750Y0098750D01*
X0173750Y0099749D02*
X0177000Y0099749D01*
X0177000Y0100747D02*
X0173750Y0100747D01*
X0173750Y0101746D02*
X0177000Y0101746D01*
X0177000Y0102744D02*
X0173727Y0102744D01*
X0177000Y0107737D02*
X0142468Y0107737D01*
X0142468Y0106738D02*
X0149914Y0106738D01*
X0151521Y0108735D02*
X0138484Y0108735D01*
X0138484Y0109734D02*
X0137516Y0109734D01*
X0137516Y0110732D02*
X0138484Y0110732D01*
X0138484Y0111731D02*
X0137516Y0111731D01*
X0137516Y0112729D02*
X0138484Y0112729D01*
X0142175Y0112729D02*
X0149250Y0112729D01*
X0149250Y0113728D02*
X0133950Y0113728D01*
X0134238Y0114726D02*
X0149636Y0114726D01*
X0150157Y0115725D02*
X0134755Y0115725D01*
X0131000Y0113850D02*
X0123000Y0113850D01*
X0121000Y0115850D01*
X0121000Y0116850D01*
X0116750Y0119850D02*
X0116750Y0122850D01*
X0121250Y0122850D01*
X0121250Y0119850D01*
X0116750Y0119850D01*
X0116750Y0120849D02*
X0121250Y0120849D01*
X0121250Y0121848D02*
X0116750Y0121848D01*
X0116750Y0122847D02*
X0121250Y0122847D01*
X0119000Y0121350D02*
X0112500Y0114850D01*
X0104000Y0114850D01*
X0104562Y0111731D02*
X0103000Y0111731D01*
X0103000Y0110732D02*
X0103943Y0110732D01*
X0103531Y0109734D02*
X0103000Y0109734D01*
X0103000Y0108735D02*
X0103531Y0108735D01*
X0103624Y0107737D02*
X0103000Y0107737D01*
X0103060Y0106738D02*
X0102717Y0106738D01*
X0102061Y0105740D02*
X0101718Y0105740D01*
X0101063Y0104741D02*
X0100816Y0104741D01*
X0101000Y0103743D02*
X0100000Y0103743D01*
X0100000Y0102744D02*
X0101000Y0102744D01*
X0101000Y0101746D02*
X0100000Y0101746D01*
X0099769Y0100747D02*
X0101000Y0100747D01*
X0101000Y0099749D02*
X0100000Y0099749D01*
X0100000Y0098750D02*
X0101000Y0098750D01*
X0101000Y0097752D02*
X0100000Y0097752D01*
X0100000Y0096753D02*
X0101000Y0096753D01*
X0101000Y0095755D02*
X0100000Y0095755D01*
X0100000Y0094756D02*
X0101000Y0094756D01*
X0101000Y0093758D02*
X0099986Y0093758D01*
X0098988Y0092759D02*
X0101262Y0092759D01*
X0102261Y0091761D02*
X0093918Y0091761D01*
X0094012Y0092759D02*
X0092919Y0092759D01*
X0092986Y0093758D02*
X0093014Y0093758D01*
X0093000Y0094756D02*
X0093000Y0094756D01*
X0093000Y0095755D02*
X0093000Y0095755D01*
X0093000Y0096753D02*
X0093000Y0096753D01*
X0093000Y0097752D02*
X0093000Y0097752D01*
X0093000Y0098750D02*
X0093000Y0098750D01*
X0093000Y0099749D02*
X0093000Y0099749D01*
X0092769Y0100747D02*
X0093231Y0100747D01*
X0093000Y0101746D02*
X0093000Y0101746D01*
X0093000Y0102744D02*
X0093000Y0102744D01*
X0093000Y0103743D02*
X0093000Y0103743D01*
X0093000Y0104741D02*
X0093000Y0104741D01*
X0093000Y0105740D02*
X0093000Y0105740D01*
X0092983Y0106738D02*
X0093017Y0106738D01*
X0096257Y0108735D02*
X0099000Y0108735D01*
X0099000Y0109734D02*
X0096500Y0109734D01*
X0096500Y0110732D02*
X0099000Y0110732D01*
X0099000Y0111731D02*
X0096500Y0111731D01*
X0096500Y0112729D02*
X0099000Y0112729D01*
X0099000Y0113728D02*
X0096500Y0113728D01*
X0096495Y0114726D02*
X0099000Y0114726D01*
X0099000Y0115725D02*
X0096953Y0115725D01*
X0097952Y0116723D02*
X0099000Y0116723D01*
X0099000Y0117722D02*
X0098000Y0117722D01*
X0098000Y0118720D02*
X0099000Y0118720D01*
X0099000Y0119719D02*
X0098000Y0119719D01*
X0098000Y0120718D02*
X0099000Y0120718D01*
X0099000Y0121716D02*
X0098000Y0121716D01*
X0098000Y0122715D02*
X0099000Y0122715D01*
X0099000Y0123713D02*
X0097215Y0123713D01*
X0095967Y0124712D02*
X0099000Y0124712D01*
X0099000Y0125710D02*
X0094968Y0125710D01*
X0093970Y0126709D02*
X0099000Y0126709D01*
X0099029Y0127707D02*
X0083654Y0127707D01*
X0083665Y0126709D02*
X0084030Y0126709D01*
X0083644Y0128706D02*
X0100027Y0128706D01*
X0101026Y0129704D02*
X0083633Y0129704D01*
X0083623Y0130703D02*
X0102024Y0130703D01*
X0103073Y0131701D02*
X0094431Y0131701D01*
X0095231Y0132700D02*
X0102074Y0132700D01*
X0103496Y0134846D02*
X0100004Y0134846D01*
X0092000Y0134850D01*
X0088531Y0134697D02*
X0083581Y0134697D01*
X0083591Y0133698D02*
X0088531Y0133698D01*
X0088769Y0132700D02*
X0083602Y0132700D01*
X0083612Y0131701D02*
X0089569Y0131701D01*
X0086594Y0135695D02*
X0085595Y0135695D01*
X0085595Y0136694D02*
X0086594Y0136694D01*
X0086594Y0137692D02*
X0085595Y0137692D01*
X0085595Y0138691D02*
X0086594Y0138691D01*
X0086594Y0139689D02*
X0085595Y0139689D01*
X0085595Y0141686D02*
X0086594Y0141686D01*
X0086594Y0142685D02*
X0085595Y0142685D01*
X0085595Y0143683D02*
X0086594Y0143683D01*
X0086594Y0144682D02*
X0085595Y0144682D01*
X0085595Y0145680D02*
X0086594Y0145680D01*
X0086594Y0146679D02*
X0085595Y0146679D01*
X0084802Y0146679D02*
X0083454Y0146679D01*
X0083444Y0147677D02*
X0101251Y0147677D01*
X0100350Y0146679D02*
X0099198Y0146679D01*
X0098405Y0146679D02*
X0097406Y0146679D01*
X0096613Y0146679D02*
X0087387Y0146679D01*
X0087386Y0150266D02*
X0088613Y0150266D01*
X0088817Y0150350D01*
X0091621Y0150350D01*
X0092500Y0151229D01*
X0092500Y0151350D01*
X0105500Y0151350D01*
X0105500Y0151229D01*
X0106379Y0150350D01*
X0113621Y0150350D01*
X0114500Y0151229D01*
X0114500Y0155471D01*
X0113621Y0156350D01*
X0106379Y0156350D01*
X0105500Y0155471D01*
X0105500Y0155350D01*
X0092500Y0155350D01*
X0092500Y0155471D01*
X0091621Y0156350D01*
X0088817Y0156350D01*
X0088613Y0156434D01*
X0087386Y0156434D01*
X0087183Y0156350D01*
X0084379Y0156350D01*
X0083500Y0155471D01*
X0083500Y0151229D01*
X0084379Y0150350D01*
X0087183Y0150350D01*
X0087386Y0150266D01*
X0084056Y0150673D02*
X0083412Y0150673D01*
X0083402Y0151671D02*
X0083500Y0151671D01*
X0083500Y0152670D02*
X0083391Y0152670D01*
X0083381Y0153668D02*
X0083500Y0153668D01*
X0083500Y0154667D02*
X0083370Y0154667D01*
X0083360Y0155665D02*
X0083694Y0155665D01*
X0083349Y0156664D02*
X0123999Y0156664D01*
X0123916Y0155665D02*
X0114306Y0155665D01*
X0114500Y0154667D02*
X0124152Y0154667D01*
X0124820Y0153668D02*
X0114500Y0153668D01*
X0114500Y0152670D02*
X0202818Y0152670D01*
X0201911Y0153668D02*
X0129180Y0153668D01*
X0129848Y0154667D02*
X0201005Y0154667D01*
X0200098Y0155665D02*
X0191769Y0155665D01*
X0192767Y0156664D02*
X0199191Y0156664D01*
X0199000Y0159850D02*
X0208866Y0148984D01*
X0215000Y0148984D01*
X0211458Y0145680D02*
X0187000Y0145680D01*
X0187000Y0144682D02*
X0218753Y0144682D01*
X0215634Y0141350D02*
X0215000Y0140716D01*
X0215634Y0141350D02*
X0222000Y0141350D01*
X0224250Y0142850D02*
X0224250Y0139850D01*
X0219750Y0139850D01*
X0219750Y0142850D01*
X0224250Y0142850D01*
X0224250Y0140849D02*
X0219750Y0140849D01*
X0219750Y0141848D02*
X0224250Y0141848D01*
X0224250Y0142847D02*
X0219750Y0142847D01*
X0218822Y0137692D02*
X0229250Y0137692D01*
X0229250Y0137403D02*
X0229352Y0137021D01*
X0229550Y0136679D01*
X0229829Y0136400D01*
X0230171Y0136202D01*
X0230553Y0136100D01*
X0233625Y0136100D01*
X0233625Y0140475D01*
X0234375Y0140475D01*
X0234375Y0141225D01*
X0233625Y0141225D01*
X0233625Y0145600D01*
X0230553Y0145600D01*
X0230171Y0145498D01*
X0229829Y0145300D01*
X0229550Y0145021D01*
X0229352Y0144679D01*
X0229250Y0144297D01*
X0229250Y0141225D01*
X0233625Y0141225D01*
X0233625Y0140475D01*
X0229250Y0140475D01*
X0229250Y0137403D01*
X0229541Y0136694D02*
X0187000Y0136694D01*
X0187000Y0137692D02*
X0211178Y0137692D01*
X0211138Y0138691D02*
X0187000Y0138691D01*
X0187000Y0139689D02*
X0211138Y0139689D01*
X0211138Y0140688D02*
X0187000Y0140688D01*
X0187000Y0141686D02*
X0211138Y0141686D01*
X0211138Y0142685D02*
X0187000Y0142685D01*
X0187000Y0143683D02*
X0211138Y0143683D01*
X0211138Y0146679D02*
X0187000Y0146679D01*
X0187000Y0147677D02*
X0207344Y0147677D01*
X0206444Y0148676D02*
X0186003Y0148676D01*
X0185004Y0149674D02*
X0205538Y0149674D01*
X0204631Y0150673D02*
X0184281Y0150673D01*
X0183862Y0151671D02*
X0203725Y0151671D01*
X0201983Y0135695D02*
X0290269Y0135695D01*
X0289350Y0134776D02*
X0289350Y0133250D01*
X0293600Y0133250D01*
X0293600Y0137500D01*
X0292074Y0137500D01*
X0289350Y0134776D01*
X0289350Y0134697D02*
X0202982Y0134697D01*
X0203980Y0133698D02*
X0289350Y0133698D01*
X0289350Y0132450D02*
X0289350Y0130924D01*
X0292074Y0128200D01*
X0293600Y0128200D01*
X0293600Y0132450D01*
X0294400Y0132450D01*
X0294400Y0133250D01*
X0298650Y0133250D01*
X0298650Y0134776D01*
X0295926Y0137500D01*
X0294400Y0137500D01*
X0294400Y0133250D01*
X0293600Y0133250D01*
X0293600Y0132450D01*
X0289350Y0132450D01*
X0289350Y0131701D02*
X0287361Y0131701D01*
X0288339Y0130703D02*
X0289571Y0130703D01*
X0288752Y0129704D02*
X0290570Y0129704D01*
X0291568Y0128706D02*
X0289100Y0128706D01*
X0289100Y0127707D02*
X0303446Y0127707D01*
X0303201Y0128706D02*
X0296432Y0128706D01*
X0295926Y0128200D02*
X0298650Y0130924D01*
X0298650Y0132450D01*
X0294400Y0132450D01*
X0294400Y0128200D01*
X0295926Y0128200D01*
X0294400Y0128706D02*
X0293600Y0128706D01*
X0293600Y0129704D02*
X0294400Y0129704D01*
X0294400Y0130703D02*
X0293600Y0130703D01*
X0293600Y0131701D02*
X0294400Y0131701D01*
X0294400Y0132700D02*
X0303739Y0132700D01*
X0304152Y0133698D02*
X0298650Y0133698D01*
X0298650Y0134697D02*
X0304817Y0134697D01*
X0305815Y0135695D02*
X0297731Y0135695D01*
X0296732Y0136694D02*
X0307142Y0136694D01*
X0309820Y0138691D02*
X0317500Y0138691D01*
X0317500Y0139689D02*
X0316918Y0139689D01*
X0317250Y0140688D02*
X0317500Y0140688D01*
X0317500Y0141686D02*
X0317250Y0141686D01*
X0317250Y0142685D02*
X0317500Y0142685D01*
X0317500Y0143683D02*
X0317250Y0143683D01*
X0317247Y0144682D02*
X0317500Y0144682D01*
X0317500Y0145680D02*
X0316248Y0145680D01*
X0316907Y0146679D02*
X0317500Y0146679D01*
X0317500Y0147677D02*
X0317250Y0147677D01*
X0317250Y0148676D02*
X0317500Y0148676D01*
X0317500Y0149674D02*
X0317250Y0149674D01*
X0317250Y0150673D02*
X0317500Y0150673D01*
X0317500Y0151671D02*
X0317250Y0151671D01*
X0317500Y0152670D02*
X0316259Y0152670D01*
X0315502Y0153668D02*
X0317500Y0153668D01*
X0317500Y0154667D02*
X0316281Y0154667D01*
X0316281Y0155665D02*
X0317500Y0155665D01*
X0317500Y0156664D02*
X0316281Y0156664D01*
X0313000Y0156850D02*
X0313000Y0149350D01*
X0315250Y0150850D02*
X0315250Y0147850D01*
X0310750Y0147850D01*
X0310750Y0150850D01*
X0315250Y0150850D01*
X0315250Y0148849D02*
X0310750Y0148849D01*
X0310750Y0149848D02*
X0315250Y0149848D01*
X0315250Y0150847D02*
X0310750Y0150847D01*
X0306000Y0149984D02*
X0305866Y0149850D01*
X0300000Y0149850D01*
X0290000Y0159850D01*
X0290358Y0156664D02*
X0284067Y0156664D01*
X0283068Y0155665D02*
X0291356Y0155665D01*
X0292355Y0154667D02*
X0282070Y0154667D01*
X0281071Y0153668D02*
X0293353Y0153668D01*
X0294352Y0152670D02*
X0280073Y0152670D01*
X0279074Y0151671D02*
X0295350Y0151671D01*
X0296349Y0150673D02*
X0278076Y0150673D01*
X0277077Y0149674D02*
X0297347Y0149674D01*
X0298346Y0148676D02*
X0276078Y0148676D01*
X0275080Y0147677D02*
X0302138Y0147677D01*
X0302459Y0146679D02*
X0274081Y0146679D01*
X0267884Y0143683D02*
X0302138Y0143683D01*
X0302138Y0142685D02*
X0268381Y0142685D01*
X0268750Y0141686D02*
X0302138Y0141686D01*
X0302138Y0140688D02*
X0268750Y0140688D01*
X0268661Y0139689D02*
X0302138Y0139689D01*
X0302180Y0138691D02*
X0268247Y0138691D01*
X0267560Y0137692D02*
X0317500Y0137692D01*
X0317500Y0136694D02*
X0314858Y0136694D01*
X0316185Y0135695D02*
X0317500Y0135695D01*
X0317500Y0134697D02*
X0317183Y0134697D01*
X0315250Y0140850D02*
X0315250Y0143850D01*
X0315250Y0140850D02*
X0310750Y0140850D01*
X0310750Y0143850D01*
X0315250Y0143850D01*
X0315250Y0141849D02*
X0310750Y0141849D01*
X0310750Y0142848D02*
X0315250Y0142848D01*
X0315250Y0143847D02*
X0310750Y0143847D01*
X0309752Y0145680D02*
X0266300Y0145680D01*
X0266886Y0144682D02*
X0302138Y0144682D01*
X0306000Y0141716D02*
X0306634Y0142350D01*
X0313000Y0142350D01*
X0303325Y0131701D02*
X0298650Y0131701D01*
X0298429Y0130703D02*
X0303201Y0130703D01*
X0303201Y0129704D02*
X0297430Y0129704D01*
X0298750Y0126709D02*
X0301141Y0126709D01*
X0300143Y0125710D02*
X0298750Y0125710D01*
X0298750Y0124712D02*
X0299630Y0124712D01*
X0299250Y0123713D02*
X0298750Y0123713D01*
X0298750Y0122715D02*
X0299250Y0122715D01*
X0299328Y0121716D02*
X0298750Y0121716D01*
X0298750Y0120718D02*
X0299742Y0120718D01*
X0300413Y0119719D02*
X0298750Y0119719D01*
X0298492Y0118720D02*
X0301557Y0118720D01*
X0301675Y0116723D02*
X0296325Y0116723D01*
X0296300Y0117722D02*
X0317500Y0117722D01*
X0317500Y0118720D02*
X0306443Y0118720D01*
X0307587Y0119719D02*
X0317500Y0119719D01*
X0317500Y0120718D02*
X0308258Y0120718D01*
X0308672Y0121716D02*
X0317500Y0121716D01*
X0317500Y0122715D02*
X0314154Y0122715D01*
X0315893Y0123713D02*
X0317500Y0123713D01*
X0317500Y0124712D02*
X0316891Y0124712D01*
X0316844Y0116723D02*
X0317500Y0116723D01*
X0311156Y0116723D02*
X0306325Y0116723D01*
X0307444Y0115725D02*
X0310157Y0115725D01*
X0309636Y0114726D02*
X0308059Y0114726D01*
X0308468Y0113728D02*
X0309250Y0113728D01*
X0309250Y0112729D02*
X0308468Y0112729D01*
X0308373Y0111731D02*
X0309322Y0111731D01*
X0309736Y0110732D02*
X0307960Y0110732D01*
X0307203Y0109734D02*
X0310399Y0109734D01*
X0311521Y0108735D02*
X0306000Y0108735D01*
X0306000Y0107737D02*
X0317500Y0107737D01*
X0317500Y0108735D02*
X0316479Y0108735D01*
X0317500Y0106738D02*
X0306000Y0106738D01*
X0306000Y0105740D02*
X0317500Y0105740D01*
X0317500Y0104741D02*
X0306000Y0104741D01*
X0306000Y0103743D02*
X0317500Y0103743D01*
X0317500Y0102744D02*
X0306000Y0102744D01*
X0306000Y0101746D02*
X0317500Y0101746D01*
X0317500Y0100747D02*
X0306000Y0100747D01*
X0306000Y0099749D02*
X0317500Y0099749D01*
X0317500Y0098750D02*
X0306000Y0098750D01*
X0306000Y0097752D02*
X0317500Y0097752D01*
X0317500Y0096753D02*
X0306000Y0096753D01*
X0306000Y0095755D02*
X0317500Y0095755D01*
X0317500Y0094756D02*
X0306000Y0094756D01*
X0306000Y0093758D02*
X0317500Y0093758D01*
X0317500Y0092759D02*
X0306000Y0092759D01*
X0306000Y0091761D02*
X0317500Y0091761D01*
X0317500Y0090762D02*
X0306000Y0090762D01*
X0306000Y0089764D02*
X0317500Y0089764D01*
X0317500Y0088765D02*
X0306000Y0088765D01*
X0306000Y0087767D02*
X0317500Y0087767D01*
X0317500Y0086768D02*
X0306000Y0086768D01*
X0306000Y0085770D02*
X0317500Y0085770D01*
X0317500Y0084771D02*
X0306000Y0084771D01*
X0306000Y0083773D02*
X0317500Y0083773D01*
X0317500Y0082774D02*
X0306000Y0082774D01*
X0306000Y0081776D02*
X0317500Y0081776D01*
X0317500Y0080777D02*
X0306000Y0080777D01*
X0306000Y0079779D02*
X0317500Y0079779D01*
X0317500Y0078780D02*
X0306000Y0078780D01*
X0306000Y0077782D02*
X0317500Y0077782D01*
X0317500Y0076783D02*
X0306000Y0076783D01*
X0306000Y0075784D02*
X0317500Y0075784D01*
X0317500Y0074786D02*
X0306000Y0074786D01*
X0305766Y0073787D02*
X0317500Y0073787D01*
X0317500Y0072789D02*
X0304767Y0072789D01*
X0303769Y0071790D02*
X0317500Y0071790D01*
X0317500Y0070792D02*
X0302770Y0070792D01*
X0301772Y0069793D02*
X0317500Y0069793D01*
X0317500Y0068795D02*
X0300773Y0068795D01*
X0299775Y0067796D02*
X0317500Y0067796D01*
X0317500Y0066798D02*
X0298776Y0066798D01*
X0297778Y0065799D02*
X0317500Y0065799D01*
X0317500Y0064801D02*
X0297084Y0064801D01*
X0296904Y0063802D02*
X0317500Y0063802D01*
X0317500Y0062804D02*
X0296316Y0062804D01*
X0294709Y0061805D02*
X0317500Y0061805D01*
X0317500Y0060807D02*
X0291300Y0060807D01*
X0291300Y0061805D02*
X0293291Y0061805D01*
X0291684Y0062804D02*
X0291300Y0062804D01*
X0291300Y0059808D02*
X0317500Y0059808D01*
X0317500Y0058810D02*
X0291300Y0058810D01*
X0291300Y0057811D02*
X0317500Y0057811D01*
X0317500Y0056813D02*
X0316755Y0056813D01*
X0311245Y0056813D02*
X0306110Y0056813D01*
X0306531Y0056638D02*
X0304889Y0057318D01*
X0303111Y0057318D01*
X0301469Y0056638D01*
X0300212Y0055381D01*
X0299531Y0053739D01*
X0299531Y0051961D01*
X0300212Y0050319D01*
X0301469Y0049062D01*
X0303111Y0048381D01*
X0304889Y0048381D01*
X0306531Y0049062D01*
X0307788Y0050319D01*
X0308468Y0051961D01*
X0308468Y0053739D01*
X0307788Y0055381D01*
X0306531Y0056638D01*
X0307355Y0055814D02*
X0310247Y0055814D01*
X0309673Y0054816D02*
X0308022Y0054816D01*
X0308436Y0053817D02*
X0309259Y0053817D01*
X0309250Y0052819D02*
X0308468Y0052819D01*
X0308410Y0051820D02*
X0309285Y0051820D01*
X0309699Y0050822D02*
X0307997Y0050822D01*
X0307293Y0049823D02*
X0310309Y0049823D01*
X0311308Y0048825D02*
X0305959Y0048825D01*
X0307465Y0046828D02*
X0296000Y0046828D01*
X0296000Y0047826D02*
X0317500Y0047826D01*
X0317500Y0046828D02*
X0314535Y0046828D01*
X0316051Y0045829D02*
X0317500Y0045829D01*
X0317500Y0044831D02*
X0317049Y0044831D01*
X0316692Y0048825D02*
X0317500Y0048825D01*
X0305949Y0045829D02*
X0296000Y0045829D01*
X0296000Y0044831D02*
X0304951Y0044831D01*
X0304208Y0043832D02*
X0296380Y0043832D01*
X0296931Y0042834D02*
X0303794Y0042834D01*
X0303380Y0041835D02*
X0297084Y0041835D01*
X0296919Y0040837D02*
X0303201Y0040837D01*
X0303201Y0039838D02*
X0296350Y0039838D01*
X0294792Y0038840D02*
X0303201Y0038840D01*
X0303390Y0037841D02*
X0289100Y0037841D01*
X0289100Y0036843D02*
X0303804Y0036843D01*
X0304217Y0035844D02*
X0288689Y0035844D01*
X0288208Y0034846D02*
X0304975Y0034846D01*
X0305973Y0033847D02*
X0287210Y0033847D01*
X0289100Y0038840D02*
X0293208Y0038840D01*
X0291650Y0039838D02*
X0289241Y0039838D01*
X0290239Y0040837D02*
X0291081Y0040837D01*
X0294000Y0041850D02*
X0294000Y0052850D01*
X0298468Y0052819D02*
X0299531Y0052819D01*
X0299564Y0053817D02*
X0298436Y0053817D01*
X0298022Y0054816D02*
X0299978Y0054816D01*
X0300645Y0055814D02*
X0297355Y0055814D01*
X0296110Y0056813D02*
X0301890Y0056813D01*
X0299590Y0051820D02*
X0298410Y0051820D01*
X0297997Y0050822D02*
X0300003Y0050822D01*
X0300707Y0049823D02*
X0297293Y0049823D01*
X0296000Y0048825D02*
X0302041Y0048825D01*
X0291890Y0056813D02*
X0291300Y0056813D01*
X0286700Y0056813D02*
X0286110Y0056813D01*
X0286000Y0057811D02*
X0286700Y0057811D01*
X0286700Y0058810D02*
X0286000Y0058810D01*
X0286000Y0059808D02*
X0286700Y0059808D01*
X0286700Y0060807D02*
X0286000Y0060807D01*
X0286000Y0061805D02*
X0286700Y0061805D01*
X0286700Y0062804D02*
X0286000Y0062804D01*
X0286000Y0063802D02*
X0286700Y0063802D01*
X0286700Y0064801D02*
X0286000Y0064801D01*
X0286000Y0065799D02*
X0286700Y0065799D01*
X0286700Y0066798D02*
X0286000Y0066798D01*
X0286000Y0067796D02*
X0286700Y0067796D01*
X0286700Y0068795D02*
X0286000Y0068795D01*
X0285885Y0069793D02*
X0286700Y0069793D01*
X0286700Y0070792D02*
X0285084Y0070792D01*
X0284949Y0071790D02*
X0286700Y0071790D01*
X0286700Y0072789D02*
X0284423Y0072789D01*
X0282968Y0073787D02*
X0286700Y0073787D01*
X0286700Y0074786D02*
X0276000Y0074786D01*
X0276000Y0075784D02*
X0286700Y0075784D01*
X0286700Y0076783D02*
X0276000Y0076783D01*
X0276000Y0077782D02*
X0286700Y0077782D01*
X0286700Y0078780D02*
X0276000Y0078780D01*
X0276000Y0079779D02*
X0286700Y0079779D01*
X0286700Y0080777D02*
X0276000Y0080777D01*
X0276000Y0081776D02*
X0286700Y0081776D01*
X0286700Y0082774D02*
X0276000Y0082774D01*
X0276000Y0083773D02*
X0286700Y0083773D01*
X0286700Y0084771D02*
X0276000Y0084771D01*
X0276000Y0085770D02*
X0286700Y0085770D01*
X0286700Y0086768D02*
X0276000Y0086768D01*
X0276000Y0087767D02*
X0286700Y0087767D01*
X0286700Y0088765D02*
X0276000Y0088765D01*
X0276000Y0089764D02*
X0286700Y0089764D01*
X0286700Y0090762D02*
X0276000Y0090762D01*
X0276000Y0091761D02*
X0286700Y0091761D01*
X0286700Y0092759D02*
X0276000Y0092759D01*
X0276000Y0093758D02*
X0286700Y0093758D01*
X0286700Y0094756D02*
X0276000Y0094756D01*
X0276000Y0095755D02*
X0286700Y0095755D01*
X0286700Y0096753D02*
X0276000Y0096753D01*
X0276000Y0097752D02*
X0286117Y0097752D01*
X0285916Y0098750D02*
X0276000Y0098750D01*
X0276000Y0099749D02*
X0286034Y0099749D01*
X0286535Y0100747D02*
X0276000Y0100747D01*
X0276000Y0101746D02*
X0287932Y0101746D01*
X0289642Y0102744D02*
X0276000Y0102744D01*
X0276000Y0103743D02*
X0290640Y0103743D01*
X0291639Y0104741D02*
X0276000Y0104741D01*
X0276000Y0105740D02*
X0291700Y0105740D01*
X0291700Y0106738D02*
X0276000Y0106738D01*
X0276000Y0107737D02*
X0291700Y0107737D01*
X0291700Y0108735D02*
X0285743Y0108735D01*
X0286531Y0109062D02*
X0284889Y0108381D01*
X0283111Y0108381D01*
X0281469Y0109062D01*
X0280212Y0110319D01*
X0279531Y0111961D01*
X0279531Y0113739D01*
X0280212Y0115381D01*
X0281469Y0116638D01*
X0283111Y0117318D01*
X0284889Y0117318D01*
X0286531Y0116638D01*
X0287788Y0115381D01*
X0288468Y0113739D01*
X0288468Y0111961D01*
X0287788Y0110319D01*
X0286531Y0109062D01*
X0287203Y0109734D02*
X0290797Y0109734D01*
X0290040Y0110732D02*
X0287960Y0110732D01*
X0288373Y0111731D02*
X0289627Y0111731D01*
X0289531Y0112729D02*
X0288468Y0112729D01*
X0288468Y0113728D02*
X0289531Y0113728D01*
X0289941Y0114726D02*
X0288059Y0114726D01*
X0287444Y0115725D02*
X0290556Y0115725D01*
X0291675Y0116723D02*
X0286325Y0116723D01*
X0289508Y0118720D02*
X0261000Y0118720D01*
X0261000Y0117722D02*
X0291700Y0117722D01*
X0289250Y0119719D02*
X0261000Y0119719D01*
X0261000Y0120718D02*
X0289250Y0120718D01*
X0289250Y0121716D02*
X0261000Y0121716D01*
X0261693Y0122715D02*
X0289250Y0122715D01*
X0289250Y0123713D02*
X0287076Y0123713D01*
X0288074Y0124712D02*
X0289250Y0124712D01*
X0289250Y0125710D02*
X0288634Y0125710D01*
X0289047Y0126709D02*
X0289250Y0126709D01*
X0285619Y0132700D02*
X0293600Y0132700D01*
X0293600Y0133698D02*
X0294400Y0133698D01*
X0294400Y0134697D02*
X0293600Y0134697D01*
X0293600Y0135695D02*
X0294400Y0135695D01*
X0294400Y0136694D02*
X0293600Y0136694D01*
X0291268Y0136694D02*
X0266378Y0136694D01*
X0265619Y0132700D02*
X0272422Y0132700D01*
X0273500Y0132700D02*
X0274500Y0132700D01*
X0274500Y0131701D02*
X0273500Y0131701D01*
X0273500Y0130703D02*
X0274500Y0130703D01*
X0274500Y0129704D02*
X0273500Y0129704D01*
X0273500Y0128706D02*
X0274500Y0128706D01*
X0274500Y0126709D02*
X0273500Y0126709D01*
X0273500Y0125710D02*
X0274500Y0125710D01*
X0274500Y0124712D02*
X0273500Y0124712D01*
X0273500Y0123713D02*
X0274500Y0123713D01*
X0276983Y0123713D02*
X0280924Y0123713D01*
X0279926Y0124712D02*
X0278024Y0124712D01*
X0278633Y0125710D02*
X0279366Y0125710D01*
X0279248Y0129704D02*
X0278760Y0129704D01*
X0278231Y0130703D02*
X0279661Y0130703D01*
X0280639Y0131701D02*
X0277361Y0131701D01*
X0275578Y0132700D02*
X0282381Y0132700D01*
X0270639Y0131701D02*
X0267361Y0131701D01*
X0268339Y0130703D02*
X0269769Y0130703D01*
X0269240Y0129704D02*
X0268752Y0129704D01*
X0264000Y0127850D02*
X0259000Y0122850D01*
X0259000Y0094850D01*
X0262084Y0094756D02*
X0272000Y0094756D01*
X0272000Y0093758D02*
X0261886Y0093758D01*
X0261271Y0092759D02*
X0272000Y0092759D01*
X0272000Y0091761D02*
X0247918Y0091761D01*
X0248916Y0090762D02*
X0272000Y0090762D01*
X0272000Y0089764D02*
X0249915Y0089764D01*
X0250913Y0088765D02*
X0272000Y0088765D01*
X0272000Y0087767D02*
X0251912Y0087767D01*
X0254015Y0086768D02*
X0272000Y0086768D01*
X0272000Y0085770D02*
X0255442Y0085770D01*
X0255957Y0084771D02*
X0272000Y0084771D01*
X0272000Y0083773D02*
X0256084Y0083773D01*
X0255893Y0082774D02*
X0272000Y0082774D01*
X0272000Y0081776D02*
X0255287Y0081776D01*
X0253641Y0080777D02*
X0272000Y0080777D01*
X0272000Y0079779D02*
X0253900Y0079779D01*
X0254898Y0078780D02*
X0272000Y0078780D01*
X0272000Y0077782D02*
X0255897Y0077782D01*
X0256895Y0076783D02*
X0272000Y0076783D01*
X0272000Y0075784D02*
X0257894Y0075784D01*
X0258892Y0074786D02*
X0272000Y0074786D01*
X0272000Y0073787D02*
X0259891Y0073787D01*
X0260889Y0072789D02*
X0272000Y0072789D01*
X0272000Y0071790D02*
X0261888Y0071790D01*
X0262886Y0070792D02*
X0272000Y0070792D01*
X0272000Y0069793D02*
X0263885Y0069793D01*
X0264883Y0068795D02*
X0272000Y0068795D01*
X0272000Y0067796D02*
X0265882Y0067796D01*
X0266881Y0066798D02*
X0272000Y0066798D01*
X0272000Y0065799D02*
X0267879Y0065799D01*
X0269935Y0064801D02*
X0272000Y0064801D01*
X0272000Y0063802D02*
X0271409Y0063802D01*
X0271943Y0062804D02*
X0272000Y0062804D01*
X0274000Y0060850D02*
X0274000Y0112850D01*
X0277203Y0109734D02*
X0280797Y0109734D01*
X0280040Y0110732D02*
X0277960Y0110732D01*
X0278373Y0111731D02*
X0279627Y0111731D01*
X0279531Y0112729D02*
X0278468Y0112729D01*
X0278468Y0113728D02*
X0279531Y0113728D01*
X0279941Y0114726D02*
X0278059Y0114726D01*
X0277444Y0115725D02*
X0280556Y0115725D01*
X0281675Y0116723D02*
X0276325Y0116723D01*
X0271675Y0116723D02*
X0266325Y0116723D01*
X0267444Y0115725D02*
X0270556Y0115725D01*
X0269941Y0114726D02*
X0268059Y0114726D01*
X0268468Y0113728D02*
X0269531Y0113728D01*
X0269531Y0112729D02*
X0268468Y0112729D01*
X0268373Y0111731D02*
X0269627Y0111731D01*
X0270040Y0110732D02*
X0267960Y0110732D01*
X0267203Y0109734D02*
X0270797Y0109734D01*
X0272000Y0108735D02*
X0265743Y0108735D01*
X0262257Y0108735D02*
X0261000Y0108735D01*
X0261000Y0107737D02*
X0272000Y0107737D01*
X0272000Y0106738D02*
X0261000Y0106738D01*
X0261000Y0105740D02*
X0272000Y0105740D01*
X0272000Y0104741D02*
X0261000Y0104741D01*
X0261000Y0103743D02*
X0272000Y0103743D01*
X0272000Y0102744D02*
X0261000Y0102744D01*
X0261000Y0101746D02*
X0272000Y0101746D01*
X0272000Y0100747D02*
X0261000Y0100747D01*
X0261000Y0099749D02*
X0272000Y0099749D01*
X0272000Y0098750D02*
X0261000Y0098750D01*
X0261000Y0097752D02*
X0272000Y0097752D01*
X0272000Y0096753D02*
X0261459Y0096753D01*
X0261964Y0095755D02*
X0272000Y0095755D01*
X0257000Y0097752D02*
X0251000Y0097752D01*
X0251000Y0098750D02*
X0257000Y0098750D01*
X0257000Y0099749D02*
X0251000Y0099749D01*
X0251000Y0100747D02*
X0257000Y0100747D01*
X0257000Y0101746D02*
X0251000Y0101746D01*
X0251000Y0102744D02*
X0257000Y0102744D01*
X0257000Y0103743D02*
X0251000Y0103743D01*
X0251000Y0104741D02*
X0257000Y0104741D01*
X0257000Y0105740D02*
X0251000Y0105740D01*
X0251000Y0106738D02*
X0257000Y0106738D01*
X0257000Y0107737D02*
X0251000Y0107737D01*
X0251000Y0108735D02*
X0252257Y0108735D01*
X0255743Y0108735D02*
X0257000Y0108735D01*
X0261000Y0116723D02*
X0261675Y0116723D01*
X0267076Y0123713D02*
X0271017Y0123713D01*
X0269976Y0124712D02*
X0268074Y0124712D01*
X0268634Y0125710D02*
X0269366Y0125710D01*
X0260639Y0131701D02*
X0257361Y0131701D01*
X0258339Y0130703D02*
X0259661Y0130703D01*
X0259248Y0129704D02*
X0258752Y0129704D01*
X0255619Y0132700D02*
X0262381Y0132700D01*
X0261622Y0136694D02*
X0256378Y0136694D01*
X0256691Y0136823D02*
X0258027Y0138159D01*
X0258750Y0139905D01*
X0258750Y0141795D01*
X0258027Y0143541D01*
X0256691Y0144877D01*
X0254945Y0145600D01*
X0253055Y0145600D01*
X0251309Y0144877D01*
X0249973Y0143541D01*
X0249250Y0141795D01*
X0249250Y0139905D01*
X0249973Y0138159D01*
X0251309Y0136823D01*
X0253055Y0136100D01*
X0254945Y0136100D01*
X0256691Y0136823D01*
X0257560Y0137692D02*
X0260440Y0137692D01*
X0259753Y0138691D02*
X0258247Y0138691D01*
X0258661Y0139689D02*
X0259339Y0139689D01*
X0259250Y0140688D02*
X0258750Y0140688D01*
X0258750Y0141686D02*
X0259250Y0141686D01*
X0259619Y0142685D02*
X0258381Y0142685D01*
X0257884Y0143683D02*
X0260116Y0143683D01*
X0261114Y0144682D02*
X0256886Y0144682D01*
X0251114Y0144682D02*
X0246886Y0144682D01*
X0246691Y0144877D02*
X0244945Y0145600D01*
X0243055Y0145600D01*
X0241309Y0144877D01*
X0239973Y0143541D01*
X0239250Y0141795D01*
X0239250Y0139905D01*
X0239973Y0138159D01*
X0241309Y0136823D01*
X0243055Y0136100D01*
X0244945Y0136100D01*
X0246691Y0136823D01*
X0248027Y0138159D01*
X0248750Y0139905D01*
X0248750Y0141795D01*
X0248027Y0143541D01*
X0246691Y0144877D01*
X0247884Y0143683D02*
X0250116Y0143683D01*
X0249619Y0142685D02*
X0248381Y0142685D01*
X0248750Y0141686D02*
X0249250Y0141686D01*
X0249250Y0140688D02*
X0248750Y0140688D01*
X0248661Y0139689D02*
X0249339Y0139689D01*
X0249753Y0138691D02*
X0248247Y0138691D01*
X0247560Y0137692D02*
X0250440Y0137692D01*
X0251622Y0136694D02*
X0246378Y0136694D01*
X0245619Y0132700D02*
X0252381Y0132700D01*
X0250639Y0131701D02*
X0247361Y0131701D01*
X0248339Y0130703D02*
X0249661Y0130703D01*
X0249248Y0129704D02*
X0248752Y0129704D01*
X0244000Y0127850D02*
X0239000Y0122850D01*
X0239000Y0091850D01*
X0269000Y0061850D01*
X0274000Y0060850D02*
X0269000Y0055850D01*
X0269000Y0034850D01*
X0267000Y0033150D01*
X0225000Y0033150D01*
X0224000Y0033850D01*
X0224000Y0037850D01*
X0219303Y0039838D02*
X0218697Y0039838D01*
X0219000Y0039106D02*
X0218324Y0040739D01*
X0216889Y0042174D01*
X0215014Y0042950D01*
X0212986Y0042950D01*
X0211111Y0042174D01*
X0209676Y0040739D01*
X0208900Y0038864D01*
X0208900Y0036836D01*
X0209676Y0034961D01*
X0211111Y0033526D01*
X0211537Y0033350D01*
X0173835Y0033350D01*
X0174500Y0034955D01*
X0174500Y0036745D01*
X0173815Y0038399D01*
X0172787Y0039427D01*
X0173273Y0039180D01*
X0173946Y0038961D01*
X0174646Y0038850D01*
X0174700Y0038850D01*
X0174700Y0043050D01*
X0170500Y0043050D01*
X0170500Y0042996D01*
X0170611Y0042296D01*
X0170830Y0041623D01*
X0171151Y0040991D01*
X0171568Y0040418D01*
X0172068Y0039918D01*
X0172240Y0039793D01*
X0170895Y0040350D01*
X0169105Y0040350D01*
X0167840Y0039826D01*
X0168815Y0040801D01*
X0169500Y0042455D01*
X0169500Y0044245D01*
X0168815Y0045899D01*
X0167549Y0047165D01*
X0165895Y0047850D01*
X0164105Y0047850D01*
X0162451Y0047165D01*
X0161185Y0045899D01*
X0160543Y0044350D01*
X0160250Y0044350D01*
X0160250Y0044678D01*
X0159078Y0045850D01*
X0158924Y0045850D01*
X0160124Y0046850D01*
X0160228Y0046850D01*
X0160750Y0047372D01*
X0161317Y0047844D01*
X0161326Y0047948D01*
X0161400Y0048022D01*
X0161400Y0048381D01*
X0167590Y0048381D01*
X0168468Y0049260D01*
X0168468Y0056440D01*
X0167590Y0057318D01*
X0161400Y0057318D01*
X0161400Y0064083D01*
X0163891Y0066850D01*
X0164687Y0066850D01*
X0164973Y0066159D01*
X0166309Y0064823D01*
X0168055Y0064100D01*
X0169945Y0064100D01*
X0171691Y0064823D01*
X0173027Y0066159D01*
X0173313Y0066850D01*
X0176828Y0066850D01*
X0179828Y0069850D01*
X0196076Y0069850D01*
X0195916Y0069463D01*
X0195916Y0068236D01*
X0196385Y0067103D01*
X0197000Y0066488D01*
X0197000Y0063022D01*
X0198172Y0061850D01*
X0199172Y0060850D01*
X0197281Y0060850D01*
X0197281Y0061503D01*
X0196782Y0062709D01*
X0195859Y0063632D01*
X0194653Y0064131D01*
X0193347Y0064131D01*
X0192141Y0063632D01*
X0191218Y0062709D01*
X0190719Y0061503D01*
X0190719Y0060197D01*
X0191218Y0058991D01*
X0192141Y0058068D01*
X0193347Y0057569D01*
X0194453Y0057569D01*
X0194769Y0057252D01*
X0194484Y0057297D01*
X0194484Y0053334D01*
X0198447Y0053334D01*
X0198358Y0053896D01*
X0198141Y0054565D01*
X0197822Y0055192D01*
X0197408Y0055761D01*
X0196911Y0056258D01*
X0196342Y0056672D01*
X0195992Y0056850D01*
X0201980Y0056850D01*
X0201469Y0056638D01*
X0200212Y0055381D01*
X0199531Y0053739D01*
X0199531Y0051961D01*
X0199752Y0051430D01*
X0189256Y0040934D01*
X0188386Y0040934D01*
X0187253Y0040465D01*
X0186385Y0039597D01*
X0185916Y0038463D01*
X0185916Y0037236D01*
X0186385Y0036103D01*
X0187253Y0035235D01*
X0188386Y0034766D01*
X0189613Y0034766D01*
X0190747Y0035235D01*
X0191615Y0036103D01*
X0192084Y0037236D01*
X0192084Y0038106D01*
X0202580Y0048602D01*
X0203111Y0048381D01*
X0204889Y0048381D01*
X0206531Y0049062D01*
X0207788Y0050319D01*
X0208468Y0051961D01*
X0208468Y0053739D01*
X0207788Y0055381D01*
X0206531Y0056638D01*
X0206020Y0056850D01*
X0211980Y0056850D01*
X0211469Y0056638D01*
X0210212Y0055381D01*
X0209531Y0053739D01*
X0209531Y0051961D01*
X0210212Y0050319D01*
X0211469Y0049062D01*
X0213111Y0048381D01*
X0214889Y0048381D01*
X0216531Y0049062D01*
X0217788Y0050319D01*
X0218468Y0051961D01*
X0218468Y0053739D01*
X0217788Y0055381D01*
X0216531Y0056638D01*
X0216020Y0056850D01*
X0217828Y0056850D01*
X0222744Y0061766D01*
X0223613Y0061766D01*
X0224747Y0062235D01*
X0225500Y0062988D01*
X0225500Y0057065D01*
X0224889Y0057318D01*
X0223111Y0057318D01*
X0221469Y0056638D01*
X0220212Y0055381D01*
X0219531Y0053739D01*
X0219531Y0051961D01*
X0220212Y0050319D01*
X0221469Y0049062D01*
X0223111Y0048381D01*
X0224889Y0048381D01*
X0226531Y0049062D01*
X0227000Y0049531D01*
X0227000Y0042062D01*
X0226889Y0042174D01*
X0225014Y0042950D01*
X0222986Y0042950D01*
X0221111Y0042174D01*
X0219676Y0040739D01*
X0219000Y0039106D01*
X0218226Y0040837D02*
X0219774Y0040837D01*
X0220773Y0041835D02*
X0217227Y0041835D01*
X0215295Y0042834D02*
X0222705Y0042834D01*
X0225295Y0042834D02*
X0227000Y0042834D01*
X0227000Y0043832D02*
X0197811Y0043832D01*
X0198809Y0044831D02*
X0227000Y0044831D01*
X0227000Y0045829D02*
X0199808Y0045829D01*
X0200806Y0046828D02*
X0227000Y0046828D01*
X0227000Y0047826D02*
X0201805Y0047826D01*
X0199143Y0050822D02*
X0197982Y0050822D01*
X0198141Y0051135D02*
X0197822Y0050508D01*
X0197408Y0049939D01*
X0196911Y0049442D01*
X0196342Y0049028D01*
X0195715Y0048709D01*
X0195046Y0048492D01*
X0194484Y0048402D01*
X0194484Y0052366D01*
X0193516Y0052366D01*
X0193516Y0048402D01*
X0192954Y0048492D01*
X0192285Y0048709D01*
X0191658Y0049028D01*
X0191089Y0049442D01*
X0190592Y0049939D01*
X0190178Y0050508D01*
X0189859Y0051135D01*
X0189642Y0051804D01*
X0189552Y0052366D01*
X0193516Y0052366D01*
X0193516Y0053334D01*
X0189552Y0053334D01*
X0189642Y0053896D01*
X0189859Y0054565D01*
X0190178Y0055192D01*
X0190592Y0055761D01*
X0191089Y0056258D01*
X0191658Y0056672D01*
X0192285Y0056991D01*
X0192954Y0057208D01*
X0193516Y0057297D01*
X0193516Y0053334D01*
X0194484Y0053334D01*
X0194484Y0052366D01*
X0198447Y0052366D01*
X0198358Y0051804D01*
X0198141Y0051135D01*
X0198361Y0051820D02*
X0199590Y0051820D01*
X0199531Y0052819D02*
X0194484Y0052819D01*
X0193516Y0052819D02*
X0188468Y0052819D01*
X0188468Y0051961D02*
X0187788Y0050319D01*
X0186531Y0049062D01*
X0184889Y0048381D01*
X0183111Y0048381D01*
X0181469Y0049062D01*
X0180212Y0050319D01*
X0179531Y0051961D01*
X0179531Y0053739D01*
X0180212Y0055381D01*
X0181469Y0056638D01*
X0183111Y0057318D01*
X0184889Y0057318D01*
X0186531Y0056638D01*
X0187788Y0055381D01*
X0188468Y0053739D01*
X0188468Y0051961D01*
X0188410Y0051820D02*
X0189639Y0051820D01*
X0190018Y0050822D02*
X0187997Y0050822D01*
X0187293Y0049823D02*
X0190707Y0049823D01*
X0192057Y0048825D02*
X0185959Y0048825D01*
X0182041Y0048825D02*
X0175959Y0048825D01*
X0176531Y0049062D02*
X0177788Y0050319D01*
X0178468Y0051961D01*
X0178468Y0053739D01*
X0177788Y0055381D01*
X0176531Y0056638D01*
X0174889Y0057318D01*
X0173111Y0057318D01*
X0171469Y0056638D01*
X0170212Y0055381D01*
X0169531Y0053739D01*
X0169531Y0051961D01*
X0170212Y0050319D01*
X0171469Y0049062D01*
X0173111Y0048381D01*
X0174889Y0048381D01*
X0176531Y0049062D01*
X0177293Y0049823D02*
X0180707Y0049823D01*
X0180003Y0050822D02*
X0177997Y0050822D01*
X0178410Y0051820D02*
X0179590Y0051820D01*
X0179531Y0052819D02*
X0178468Y0052819D01*
X0178436Y0053817D02*
X0179564Y0053817D01*
X0179978Y0054816D02*
X0178022Y0054816D01*
X0177355Y0055814D02*
X0180645Y0055814D01*
X0181890Y0056813D02*
X0176110Y0056813D01*
X0171890Y0056813D02*
X0168096Y0056813D01*
X0168468Y0055814D02*
X0170645Y0055814D01*
X0169978Y0054816D02*
X0168468Y0054816D01*
X0168468Y0053817D02*
X0169564Y0053817D01*
X0169531Y0052819D02*
X0168468Y0052819D01*
X0168468Y0051820D02*
X0169590Y0051820D01*
X0170003Y0050822D02*
X0168468Y0050822D01*
X0168468Y0049823D02*
X0170707Y0049823D01*
X0172041Y0048825D02*
X0168033Y0048825D01*
X0167886Y0046828D02*
X0172131Y0046828D01*
X0172068Y0046782D02*
X0171568Y0046282D01*
X0171151Y0045709D01*
X0170830Y0045077D01*
X0170611Y0044404D01*
X0170500Y0043704D01*
X0170500Y0043650D01*
X0174700Y0043650D01*
X0174700Y0047850D01*
X0174646Y0047850D01*
X0173946Y0047739D01*
X0173273Y0047520D01*
X0172641Y0047199D01*
X0172068Y0046782D01*
X0171239Y0045829D02*
X0168844Y0045829D01*
X0169257Y0044831D02*
X0170750Y0044831D01*
X0170520Y0043832D02*
X0169500Y0043832D01*
X0169500Y0042834D02*
X0170526Y0042834D01*
X0170761Y0041835D02*
X0169243Y0041835D01*
X0168830Y0040837D02*
X0171264Y0040837D01*
X0172131Y0039838D02*
X0172178Y0039838D01*
X0173374Y0038840D02*
X0186072Y0038840D01*
X0185916Y0037841D02*
X0174046Y0037841D01*
X0174460Y0036843D02*
X0186079Y0036843D01*
X0186644Y0035844D02*
X0174500Y0035844D01*
X0174455Y0034846D02*
X0188194Y0034846D01*
X0189806Y0034846D02*
X0209792Y0034846D01*
X0209311Y0035844D02*
X0191356Y0035844D01*
X0191921Y0036843D02*
X0208900Y0036843D01*
X0208900Y0037841D02*
X0192084Y0037841D01*
X0192818Y0038840D02*
X0208900Y0038840D01*
X0209303Y0039838D02*
X0193816Y0039838D01*
X0194815Y0040837D02*
X0209774Y0040837D01*
X0210773Y0041835D02*
X0195814Y0041835D01*
X0196812Y0042834D02*
X0212705Y0042834D01*
X0212041Y0048825D02*
X0205959Y0048825D01*
X0207293Y0049823D02*
X0210707Y0049823D01*
X0210003Y0050822D02*
X0207997Y0050822D01*
X0208410Y0051820D02*
X0209590Y0051820D01*
X0209531Y0052819D02*
X0208468Y0052819D01*
X0208436Y0053817D02*
X0209564Y0053817D01*
X0209978Y0054816D02*
X0208022Y0054816D01*
X0207355Y0055814D02*
X0210645Y0055814D01*
X0211890Y0056813D02*
X0206110Y0056813D01*
X0201890Y0056813D02*
X0196065Y0056813D01*
X0194484Y0056813D02*
X0193516Y0056813D01*
X0193516Y0055814D02*
X0194484Y0055814D01*
X0194484Y0054816D02*
X0193516Y0054816D01*
X0193516Y0053817D02*
X0194484Y0053817D01*
X0194484Y0051820D02*
X0193516Y0051820D01*
X0193516Y0050822D02*
X0194484Y0050822D01*
X0194484Y0049823D02*
X0193516Y0049823D01*
X0193516Y0048825D02*
X0194484Y0048825D01*
X0195943Y0048825D02*
X0197146Y0048825D01*
X0197293Y0049823D02*
X0198145Y0049823D01*
X0196148Y0047826D02*
X0175504Y0047826D01*
X0175354Y0047850D02*
X0175300Y0047850D01*
X0175300Y0043650D01*
X0174700Y0043650D01*
X0174700Y0043050D01*
X0175300Y0043050D01*
X0175300Y0043650D01*
X0179500Y0043650D01*
X0179500Y0043704D01*
X0179389Y0044404D01*
X0179170Y0045077D01*
X0178849Y0045709D01*
X0178432Y0046282D01*
X0177932Y0046782D01*
X0177359Y0047199D01*
X0176727Y0047520D01*
X0176054Y0047739D01*
X0175354Y0047850D01*
X0175300Y0047826D02*
X0174700Y0047826D01*
X0174496Y0047826D02*
X0165953Y0047826D01*
X0164047Y0047826D02*
X0161295Y0047826D01*
X0162114Y0046828D02*
X0160097Y0046828D01*
X0159099Y0045829D02*
X0161156Y0045829D01*
X0160743Y0044831D02*
X0160098Y0044831D01*
X0157000Y0046850D02*
X0153000Y0046850D01*
X0144000Y0037850D01*
X0124000Y0037850D01*
X0121000Y0040850D01*
X0124500Y0040837D02*
X0136916Y0040837D01*
X0137070Y0041835D02*
X0124500Y0041835D01*
X0124500Y0042834D02*
X0135223Y0042834D01*
X0136777Y0042834D02*
X0137622Y0042834D01*
X0138344Y0043832D02*
X0139140Y0043832D01*
X0138916Y0044831D02*
X0140728Y0044831D01*
X0141700Y0045829D02*
X0139084Y0045829D01*
X0138933Y0046828D02*
X0141700Y0046828D01*
X0141700Y0047826D02*
X0138386Y0047826D01*
X0136878Y0048825D02*
X0141700Y0048825D01*
X0141700Y0049823D02*
X0083300Y0049823D01*
X0083300Y0048825D02*
X0135122Y0048825D01*
X0136000Y0045850D02*
X0118000Y0045850D01*
X0116000Y0043850D01*
X0116000Y0040850D01*
X0114152Y0044831D02*
X0083703Y0044831D01*
X0083402Y0045131D02*
X0083300Y0045131D01*
X0083300Y0054569D01*
X0083402Y0054569D01*
X0084281Y0055448D01*
X0084281Y0060252D01*
X0083402Y0061131D01*
X0078598Y0061131D01*
X0077719Y0060252D01*
X0077719Y0055448D01*
X0078598Y0054569D01*
X0078700Y0054569D01*
X0078700Y0045131D01*
X0078598Y0045131D01*
X0077719Y0044252D01*
X0077719Y0039448D01*
X0078598Y0038569D01*
X0083402Y0038569D01*
X0084281Y0039448D01*
X0084281Y0044252D01*
X0083402Y0045131D01*
X0083300Y0045829D02*
X0115151Y0045829D01*
X0116149Y0046828D02*
X0083300Y0046828D01*
X0083300Y0047826D02*
X0117148Y0047826D01*
X0124139Y0043832D02*
X0133656Y0043832D01*
X0141700Y0050822D02*
X0083300Y0050822D01*
X0083300Y0051820D02*
X0141700Y0051820D01*
X0141716Y0052819D02*
X0083300Y0052819D01*
X0083300Y0053817D02*
X0105204Y0053817D01*
X0104206Y0054816D02*
X0100339Y0054816D01*
X0100799Y0055814D02*
X0101509Y0055814D01*
X0100972Y0056813D02*
X0100799Y0056813D01*
X0100799Y0057811D02*
X0100972Y0057811D01*
X0100972Y0058810D02*
X0097240Y0058810D01*
X0097240Y0059808D02*
X0096240Y0059808D01*
X0096240Y0060807D02*
X0097240Y0060807D01*
X0097240Y0061805D02*
X0096240Y0061805D01*
X0096240Y0062804D02*
X0097240Y0062804D01*
X0100077Y0063802D02*
X0074205Y0063802D01*
X0073207Y0062804D02*
X0085581Y0062804D01*
X0085201Y0061805D02*
X0072208Y0061805D01*
X0071210Y0060807D02*
X0078273Y0060807D01*
X0077719Y0059808D02*
X0070211Y0059808D01*
X0069212Y0058810D02*
X0077719Y0058810D01*
X0077719Y0057811D02*
X0068214Y0057811D01*
X0067215Y0056813D02*
X0077719Y0056813D01*
X0077719Y0055814D02*
X0066217Y0055814D01*
X0065218Y0054816D02*
X0078351Y0054816D01*
X0078700Y0053817D02*
X0064220Y0053817D01*
X0063221Y0052819D02*
X0078700Y0052819D01*
X0078700Y0051820D02*
X0060546Y0051820D01*
X0059426Y0050822D02*
X0078700Y0050822D01*
X0078700Y0049823D02*
X0049637Y0049823D01*
X0050051Y0048825D02*
X0078700Y0048825D01*
X0078700Y0047826D02*
X0075600Y0047826D01*
X0076598Y0046828D02*
X0078700Y0046828D01*
X0078700Y0045829D02*
X0077597Y0045829D01*
X0077650Y0044831D02*
X0078297Y0044831D01*
X0077719Y0043832D02*
X0077650Y0043832D01*
X0077650Y0042834D02*
X0077719Y0042834D01*
X0077719Y0041835D02*
X0077561Y0041835D01*
X0077719Y0040837D02*
X0076563Y0040837D01*
X0075564Y0039838D02*
X0077719Y0039838D01*
X0078327Y0038840D02*
X0075300Y0038840D01*
X0075300Y0037841D02*
X0107888Y0037841D01*
X0107500Y0038840D02*
X0083673Y0038840D01*
X0084281Y0039838D02*
X0107500Y0039838D01*
X0107500Y0040837D02*
X0084281Y0040837D01*
X0084281Y0041835D02*
X0107500Y0041835D01*
X0107500Y0042834D02*
X0084281Y0042834D01*
X0084281Y0043832D02*
X0107861Y0043832D01*
X0111000Y0040850D02*
X0111000Y0037850D01*
X0113500Y0035350D01*
X0156000Y0035350D01*
X0158250Y0036850D02*
X0158250Y0033850D01*
X0153750Y0033850D01*
X0153750Y0036850D01*
X0158250Y0036850D01*
X0158250Y0034849D02*
X0153750Y0034849D01*
X0153750Y0035848D02*
X0158250Y0035848D01*
X0158250Y0036847D02*
X0153750Y0036847D01*
X0156000Y0035350D02*
X0169500Y0035350D01*
X0170000Y0035850D01*
X0174041Y0033847D02*
X0210790Y0033847D01*
X0195149Y0046828D02*
X0177869Y0046828D01*
X0178761Y0045829D02*
X0194151Y0045829D01*
X0193152Y0044831D02*
X0179250Y0044831D01*
X0179480Y0043832D02*
X0192154Y0043832D01*
X0191155Y0042834D02*
X0179474Y0042834D01*
X0179500Y0042996D02*
X0179500Y0043050D01*
X0175300Y0043050D01*
X0175300Y0038850D01*
X0175354Y0038850D01*
X0176054Y0038961D01*
X0176727Y0039180D01*
X0177359Y0039501D01*
X0177932Y0039918D01*
X0178432Y0040418D01*
X0178849Y0040991D01*
X0179170Y0041623D01*
X0179389Y0042296D01*
X0179500Y0042996D01*
X0179239Y0041835D02*
X0190157Y0041835D01*
X0188151Y0040837D02*
X0178736Y0040837D01*
X0177822Y0039838D02*
X0186626Y0039838D01*
X0189000Y0037850D02*
X0204000Y0052850D01*
X0200645Y0055814D02*
X0197355Y0055814D01*
X0198014Y0054816D02*
X0199978Y0054816D01*
X0199564Y0053817D02*
X0198371Y0053817D01*
X0196000Y0058850D02*
X0217000Y0058850D01*
X0223000Y0064850D01*
X0225316Y0062804D02*
X0225500Y0062804D01*
X0225500Y0061805D02*
X0223709Y0061805D01*
X0225500Y0060807D02*
X0221785Y0060807D01*
X0220787Y0059808D02*
X0225500Y0059808D01*
X0225500Y0058810D02*
X0219788Y0058810D01*
X0218790Y0057811D02*
X0225500Y0057811D01*
X0229000Y0058850D02*
X0229000Y0042850D01*
X0234000Y0037850D01*
X0239000Y0042850D02*
X0239000Y0064850D01*
X0239000Y0068850D01*
X0231000Y0076850D01*
X0179000Y0076850D01*
X0179000Y0071850D02*
X0211000Y0071850D01*
X0214000Y0068850D01*
X0218000Y0073850D02*
X0155000Y0073850D01*
X0148000Y0080850D01*
X0131000Y0080850D01*
X0129000Y0078850D01*
X0129000Y0076350D01*
X0122000Y0076350D01*
X0124250Y0077850D02*
X0124250Y0074850D01*
X0119750Y0074850D01*
X0119750Y0077850D01*
X0124250Y0077850D01*
X0124250Y0075849D02*
X0119750Y0075849D01*
X0119750Y0076848D02*
X0124250Y0076848D01*
X0124250Y0077847D02*
X0119750Y0077847D01*
X0117750Y0077782D02*
X0116489Y0077782D01*
X0116487Y0078780D02*
X0117852Y0078780D01*
X0118850Y0079779D02*
X0116485Y0079779D01*
X0116484Y0080777D02*
X0128099Y0080777D01*
X0129097Y0081776D02*
X0115903Y0081776D01*
X0114915Y0082774D02*
X0121247Y0082774D01*
X0120249Y0083773D02*
X0113937Y0083773D01*
X0113028Y0084771D02*
X0119250Y0084771D01*
X0118252Y0085770D02*
X0112607Y0085770D01*
X0110280Y0086768D02*
X0117253Y0086768D01*
X0116255Y0087767D02*
X0110280Y0087767D01*
X0110280Y0088765D02*
X0115256Y0088765D01*
X0114258Y0089764D02*
X0109915Y0089764D01*
X0108916Y0090762D02*
X0113259Y0090762D01*
X0112261Y0091761D02*
X0107918Y0091761D01*
X0106919Y0092759D02*
X0111262Y0092759D01*
X0111000Y0093758D02*
X0105921Y0093758D01*
X0106206Y0094756D02*
X0105000Y0094756D01*
X0103000Y0093850D02*
X0103000Y0103850D01*
X0108000Y0108850D01*
X0113000Y0103850D02*
X0118000Y0108850D01*
X0113000Y0103850D02*
X0113000Y0093850D01*
X0123000Y0083850D01*
X0149000Y0083850D01*
X0147242Y0078780D02*
X0132750Y0078780D01*
X0132750Y0077782D02*
X0148240Y0077782D01*
X0149239Y0076783D02*
X0132750Y0076783D01*
X0132750Y0075784D02*
X0133563Y0075784D01*
X0133250Y0074786D02*
X0132750Y0074786D01*
X0132750Y0073787D02*
X0133250Y0073787D01*
X0131932Y0072789D02*
X0136500Y0072789D01*
X0136500Y0073787D02*
X0137500Y0073787D01*
X0137500Y0072789D02*
X0141577Y0072789D01*
X0141051Y0071790D02*
X0140750Y0071790D01*
X0140750Y0073787D02*
X0143032Y0073787D01*
X0144968Y0073787D02*
X0152234Y0073787D01*
X0153233Y0072789D02*
X0146423Y0072789D01*
X0146949Y0071790D02*
X0165223Y0071790D01*
X0162057Y0070792D02*
X0147084Y0070792D01*
X0146901Y0069793D02*
X0161115Y0069793D01*
X0160260Y0068795D02*
X0146307Y0068795D01*
X0144688Y0067796D02*
X0159361Y0067796D01*
X0158462Y0066798D02*
X0143201Y0066798D01*
X0142202Y0065799D02*
X0157521Y0065799D01*
X0157400Y0064801D02*
X0154935Y0064801D01*
X0156409Y0063802D02*
X0157400Y0063802D01*
X0157400Y0062804D02*
X0156943Y0062804D01*
X0157084Y0061805D02*
X0157400Y0061805D01*
X0157400Y0060807D02*
X0156906Y0060807D01*
X0157400Y0059808D02*
X0156320Y0059808D01*
X0157400Y0058810D02*
X0154720Y0058810D01*
X0153214Y0057811D02*
X0157400Y0057811D01*
X0157400Y0056813D02*
X0156755Y0056813D01*
X0161400Y0057811D02*
X0192762Y0057811D01*
X0191935Y0056813D02*
X0186110Y0056813D01*
X0187355Y0055814D02*
X0190645Y0055814D01*
X0189986Y0054816D02*
X0188022Y0054816D01*
X0188436Y0053817D02*
X0189629Y0053817D01*
X0191400Y0058810D02*
X0161400Y0058810D01*
X0161400Y0059808D02*
X0190880Y0059808D01*
X0190719Y0060807D02*
X0161400Y0060807D01*
X0161400Y0061805D02*
X0190844Y0061805D01*
X0191314Y0062804D02*
X0161400Y0062804D01*
X0161400Y0063802D02*
X0192554Y0063802D01*
X0195446Y0063802D02*
X0197000Y0063802D01*
X0197000Y0064801D02*
X0171637Y0064801D01*
X0172667Y0065799D02*
X0197000Y0065799D01*
X0196690Y0066798D02*
X0173291Y0066798D01*
X0176000Y0068850D02*
X0179000Y0071850D01*
X0179772Y0069793D02*
X0196052Y0069793D01*
X0195916Y0068795D02*
X0178773Y0068795D01*
X0177775Y0067796D02*
X0196098Y0067796D01*
X0199000Y0068850D02*
X0199000Y0063850D01*
X0201000Y0061850D01*
X0214000Y0061850D01*
X0216110Y0056813D02*
X0221890Y0056813D01*
X0220645Y0055814D02*
X0217355Y0055814D01*
X0218022Y0054816D02*
X0219978Y0054816D01*
X0219564Y0053817D02*
X0218436Y0053817D01*
X0218468Y0052819D02*
X0219531Y0052819D01*
X0219590Y0051820D02*
X0218410Y0051820D01*
X0217997Y0050822D02*
X0220003Y0050822D01*
X0220707Y0049823D02*
X0217293Y0049823D01*
X0215959Y0048825D02*
X0222041Y0048825D01*
X0225959Y0048825D02*
X0227000Y0048825D01*
X0234000Y0052850D02*
X0234000Y0059850D01*
X0235000Y0060850D01*
X0235000Y0064850D01*
X0229000Y0063850D02*
X0228000Y0064850D01*
X0227000Y0064850D01*
X0218000Y0073850D01*
X0231000Y0082850D02*
X0184000Y0082850D01*
X0176000Y0085850D02*
X0174000Y0083850D01*
X0159000Y0083850D01*
X0156000Y0086850D01*
X0125000Y0086850D01*
X0118000Y0093850D01*
X0118000Y0098850D01*
X0111000Y0094756D02*
X0109793Y0094756D01*
X0108280Y0088570D02*
X0103000Y0093850D01*
X0103259Y0090762D02*
X0094916Y0090762D01*
X0095000Y0087850D02*
X0104000Y0087850D01*
X0105720Y0086130D01*
X0105720Y0082366D01*
X0105720Y0068130D01*
X0106000Y0067850D01*
X0108000Y0067850D02*
X0108280Y0067570D01*
X0108280Y0059334D01*
X0110839Y0059334D01*
X0114500Y0063350D02*
X0116000Y0061850D01*
X0121500Y0061850D01*
X0123000Y0059600D02*
X0120000Y0059600D01*
X0120000Y0064100D01*
X0123000Y0064100D01*
X0123000Y0059600D01*
X0123000Y0060599D02*
X0120000Y0060599D01*
X0120000Y0061598D02*
X0123000Y0061598D01*
X0123000Y0062597D02*
X0120000Y0062597D01*
X0120000Y0063596D02*
X0123000Y0063596D01*
X0121500Y0061850D02*
X0121500Y0058350D01*
X0123000Y0056850D01*
X0133000Y0056850D01*
X0138000Y0061850D01*
X0144000Y0061850D01*
X0147084Y0061805D02*
X0150703Y0061805D01*
X0151057Y0062804D02*
X0146943Y0062804D01*
X0146409Y0063802D02*
X0151591Y0063802D01*
X0153065Y0064801D02*
X0144935Y0064801D01*
X0143065Y0064801D02*
X0132000Y0064801D01*
X0132000Y0063802D02*
X0137124Y0063802D01*
X0136125Y0062804D02*
X0132000Y0062804D01*
X0132000Y0061805D02*
X0135127Y0061805D01*
X0134128Y0060807D02*
X0132000Y0060807D01*
X0132000Y0059808D02*
X0133130Y0059808D01*
X0130000Y0059600D02*
X0127000Y0059600D01*
X0127000Y0064100D01*
X0130000Y0064100D01*
X0130000Y0059600D01*
X0130000Y0060599D02*
X0127000Y0060599D01*
X0127000Y0061598D02*
X0130000Y0061598D01*
X0130000Y0062597D02*
X0127000Y0062597D01*
X0127000Y0063596D02*
X0130000Y0063596D01*
X0128500Y0061850D02*
X0128500Y0068850D01*
X0129000Y0069350D01*
X0129000Y0067850D01*
X0132750Y0070792D02*
X0133250Y0070792D01*
X0133250Y0071790D02*
X0132750Y0071790D01*
X0136500Y0074786D02*
X0137500Y0074786D01*
X0137500Y0075784D02*
X0136500Y0075784D01*
X0140437Y0075784D02*
X0150237Y0075784D01*
X0151236Y0074786D02*
X0140750Y0074786D01*
X0126068Y0072789D02*
X0125139Y0072789D01*
X0124250Y0070850D02*
X0124250Y0067850D01*
X0119750Y0067850D01*
X0119750Y0070850D01*
X0124250Y0070850D01*
X0124250Y0068849D02*
X0119750Y0068849D01*
X0119750Y0069848D02*
X0124250Y0069848D01*
X0124250Y0070847D02*
X0119750Y0070847D01*
X0117750Y0070792D02*
X0117584Y0070792D01*
X0117584Y0071790D02*
X0117862Y0071790D01*
X0117242Y0072789D02*
X0118861Y0072789D01*
X0117984Y0073787D02*
X0116496Y0073787D01*
X0116494Y0074786D02*
X0117750Y0074786D01*
X0117750Y0075784D02*
X0116492Y0075784D01*
X0116491Y0076783D02*
X0117750Y0076783D01*
X0114484Y0080366D02*
X0114500Y0071350D01*
X0122000Y0069350D02*
X0122000Y0067850D01*
X0121500Y0061850D02*
X0121000Y0060350D01*
X0114500Y0063350D02*
X0114500Y0063850D01*
X0105720Y0059334D02*
X0105720Y0056130D01*
X0107000Y0054850D01*
X0136000Y0054850D01*
X0138000Y0056850D01*
X0141084Y0056813D02*
X0145710Y0056813D01*
X0146709Y0057811D02*
X0140940Y0057811D01*
X0140402Y0058810D02*
X0143280Y0058810D01*
X0144720Y0058810D02*
X0147707Y0058810D01*
X0148706Y0059808D02*
X0146320Y0059808D01*
X0146906Y0060807D02*
X0149704Y0060807D01*
X0144712Y0055814D02*
X0140909Y0055814D01*
X0140328Y0054816D02*
X0143713Y0054816D01*
X0142715Y0053817D02*
X0138738Y0053817D01*
X0138917Y0059808D02*
X0141680Y0059808D01*
X0157000Y0046850D02*
X0159400Y0048850D01*
X0159400Y0064850D01*
X0163000Y0068850D01*
X0169000Y0068850D01*
X0176000Y0068850D01*
X0166363Y0064801D02*
X0162046Y0064801D01*
X0162945Y0065799D02*
X0165333Y0065799D01*
X0164709Y0066798D02*
X0163844Y0066798D01*
X0169000Y0078850D02*
X0170000Y0079850D01*
X0204000Y0079850D01*
X0199000Y0093850D02*
X0199000Y0095850D01*
X0209000Y0105850D01*
X0209000Y0125850D01*
X0201000Y0133850D01*
X0187000Y0133850D01*
X0185000Y0135850D01*
X0185000Y0146850D01*
X0183000Y0148850D01*
X0181000Y0148850D01*
X0177719Y0148676D02*
X0107750Y0148676D01*
X0108749Y0147677D02*
X0177719Y0147677D01*
X0177719Y0146679D02*
X0149750Y0146679D01*
X0149750Y0145680D02*
X0154773Y0145680D01*
X0153470Y0144682D02*
X0149750Y0144682D01*
X0149750Y0143683D02*
X0153007Y0143683D01*
X0152916Y0142685D02*
X0149750Y0142685D01*
X0149750Y0141686D02*
X0153144Y0141686D01*
X0153800Y0140688D02*
X0149750Y0140688D01*
X0149000Y0137850D02*
X0169000Y0137850D01*
X0170000Y0138850D01*
X0173281Y0138691D02*
X0177719Y0138691D01*
X0177719Y0139689D02*
X0173281Y0139689D01*
X0173281Y0140688D02*
X0177719Y0140688D01*
X0178153Y0141686D02*
X0172847Y0141686D01*
X0173281Y0137692D02*
X0177719Y0137692D01*
X0177719Y0136694D02*
X0173281Y0136694D01*
X0173809Y0135695D02*
X0172529Y0135695D01*
X0172485Y0134697D02*
X0157540Y0134697D01*
X0157954Y0133698D02*
X0172013Y0133698D01*
X0171916Y0132700D02*
X0158114Y0132700D01*
X0158114Y0131701D02*
X0172138Y0131701D01*
X0172786Y0130703D02*
X0157800Y0130703D01*
X0157359Y0129704D02*
X0158349Y0129704D01*
X0156731Y0135695D02*
X0167471Y0135695D01*
X0166719Y0140688D02*
X0158200Y0140688D01*
X0158856Y0141686D02*
X0167153Y0141686D01*
X0159084Y0142685D02*
X0183000Y0142685D01*
X0183000Y0143683D02*
X0158993Y0143683D01*
X0158530Y0144682D02*
X0183000Y0144682D01*
X0178486Y0145680D02*
X0157227Y0145680D01*
X0149000Y0137850D02*
X0148000Y0136850D01*
X0119000Y0136850D01*
X0113063Y0130913D01*
X0113063Y0124850D01*
X0107000Y0128850D02*
X0115000Y0136850D01*
X0115000Y0142850D01*
X0110617Y0144682D02*
X0105300Y0144682D01*
X0105300Y0145680D02*
X0104700Y0145680D01*
X0104700Y0146679D02*
X0105300Y0146679D01*
X0105300Y0147677D02*
X0104700Y0147677D01*
X0104700Y0148676D02*
X0105300Y0148676D01*
X0106056Y0150673D02*
X0091944Y0150673D01*
X0088000Y0153350D02*
X0110000Y0153350D01*
X0105694Y0155665D02*
X0092306Y0155665D01*
X0083339Y0157662D02*
X0119697Y0157662D01*
X0118472Y0158661D02*
X0114673Y0158661D01*
X0115345Y0159659D02*
X0117766Y0159659D01*
X0117352Y0160658D02*
X0115584Y0160658D01*
X0116135Y0161656D02*
X0117250Y0161656D01*
X0117250Y0162655D02*
X0117133Y0162655D01*
X0117000Y0165350D02*
X0117000Y0179850D01*
X0115000Y0181850D01*
X0112500Y0181850D01*
X0109668Y0180628D02*
X0083300Y0180628D01*
X0083300Y0179630D02*
X0110359Y0179630D01*
X0109416Y0181627D02*
X0083300Y0181627D01*
X0083300Y0182625D02*
X0109483Y0182625D01*
X0109912Y0183624D02*
X0083300Y0183624D01*
X0083300Y0184622D02*
X0111133Y0184622D01*
X0110250Y0186619D02*
X0109750Y0186619D01*
X0109750Y0187618D02*
X0110250Y0187618D01*
X0110250Y0188616D02*
X0109750Y0188616D01*
X0106132Y0186619D02*
X0091868Y0186619D01*
X0092491Y0187618D02*
X0105509Y0187618D01*
X0105500Y0188616D02*
X0092500Y0188616D01*
X0092500Y0189615D02*
X0105500Y0189615D01*
X0113868Y0186619D02*
X0128000Y0186619D01*
X0128000Y0185621D02*
X0126663Y0185621D01*
X0126750Y0184622D02*
X0128000Y0184622D01*
X0128000Y0183624D02*
X0126750Y0183624D01*
X0126750Y0182625D02*
X0128000Y0182625D01*
X0128000Y0181627D02*
X0122375Y0181627D01*
X0122375Y0182625D02*
X0121625Y0182625D01*
X0121625Y0183624D02*
X0122375Y0183624D01*
X0122375Y0184622D02*
X0121625Y0184622D01*
X0121625Y0185621D02*
X0122375Y0185621D01*
X0117337Y0185621D02*
X0083300Y0185621D01*
X0083300Y0186619D02*
X0084132Y0186619D01*
X0083509Y0187618D02*
X0083300Y0187618D01*
X0083300Y0188616D02*
X0083500Y0188616D01*
X0083500Y0189615D02*
X0083300Y0189615D01*
X0087750Y0188616D02*
X0088250Y0188616D01*
X0088250Y0187618D02*
X0087750Y0187618D01*
X0087750Y0186619D02*
X0088250Y0186619D01*
X0083300Y0178631D02*
X0115000Y0178631D01*
X0115000Y0177633D02*
X0083300Y0177633D01*
X0083300Y0176634D02*
X0083663Y0176634D01*
X0083500Y0176471D02*
X0083500Y0172229D01*
X0084379Y0171350D01*
X0087183Y0171350D01*
X0087183Y0171350D01*
X0084803Y0171350D01*
X0084421Y0171248D01*
X0084079Y0171050D01*
X0083800Y0170771D01*
X0083602Y0170429D01*
X0083500Y0170047D01*
X0083500Y0168600D01*
X0087750Y0168600D01*
X0087750Y0168100D01*
X0088250Y0168100D01*
X0088250Y0168600D01*
X0092500Y0168600D01*
X0092500Y0170047D01*
X0092398Y0170429D01*
X0092200Y0170771D01*
X0091921Y0171050D01*
X0091579Y0171248D01*
X0091197Y0171350D01*
X0088817Y0171350D01*
X0091621Y0171350D01*
X0092500Y0172229D01*
X0092500Y0172350D01*
X0105500Y0172350D01*
X0105500Y0172229D01*
X0106379Y0171350D01*
X0113621Y0171350D01*
X0114500Y0172229D01*
X0114500Y0176471D01*
X0113621Y0177350D01*
X0106379Y0177350D01*
X0105500Y0176471D01*
X0105500Y0176350D01*
X0092500Y0176350D01*
X0092500Y0176471D01*
X0091621Y0177350D01*
X0088817Y0177350D01*
X0088613Y0177434D01*
X0087386Y0177434D01*
X0087183Y0177350D01*
X0084379Y0177350D01*
X0083500Y0176471D01*
X0083500Y0175636D02*
X0083300Y0175636D01*
X0083300Y0174637D02*
X0083500Y0174637D01*
X0083500Y0173639D02*
X0083300Y0173639D01*
X0083300Y0172640D02*
X0083500Y0172640D01*
X0083300Y0171642D02*
X0084087Y0171642D01*
X0083726Y0170643D02*
X0083300Y0170643D01*
X0083300Y0169645D02*
X0083500Y0169645D01*
X0083500Y0168646D02*
X0083300Y0168646D01*
X0083500Y0168100D02*
X0083500Y0166653D01*
X0083602Y0166271D01*
X0083800Y0165929D01*
X0084079Y0165650D01*
X0084421Y0165452D01*
X0084803Y0165350D01*
X0087750Y0165350D01*
X0087750Y0168100D01*
X0083500Y0168100D01*
X0083500Y0167648D02*
X0083300Y0167648D01*
X0083300Y0166649D02*
X0083501Y0166649D01*
X0083300Y0165651D02*
X0084078Y0165651D01*
X0083300Y0164652D02*
X0113474Y0164652D01*
X0113197Y0165350D02*
X0113579Y0165452D01*
X0113921Y0165650D01*
X0114200Y0165929D01*
X0114398Y0166271D01*
X0114500Y0166653D01*
X0114500Y0168100D01*
X0110250Y0168100D01*
X0110250Y0168600D01*
X0109750Y0168600D01*
X0109750Y0171350D01*
X0106803Y0171350D01*
X0106421Y0171248D01*
X0106079Y0171050D01*
X0105800Y0170771D01*
X0105602Y0170429D01*
X0105500Y0170047D01*
X0105500Y0168600D01*
X0109750Y0168600D01*
X0109750Y0168100D01*
X0110250Y0168100D01*
X0110250Y0165350D01*
X0113197Y0165350D01*
X0113922Y0165651D02*
X0114472Y0165651D01*
X0114499Y0166649D02*
X0115000Y0166649D01*
X0115000Y0167648D02*
X0114500Y0167648D01*
X0114500Y0168600D02*
X0114500Y0170047D01*
X0114398Y0170429D01*
X0114200Y0170771D01*
X0113921Y0171050D01*
X0113579Y0171248D01*
X0113197Y0171350D01*
X0110250Y0171350D01*
X0110250Y0168600D01*
X0114500Y0168600D01*
X0114500Y0168646D02*
X0115000Y0168646D01*
X0115000Y0169645D02*
X0114500Y0169645D01*
X0114274Y0170643D02*
X0115000Y0170643D01*
X0115000Y0171642D02*
X0113913Y0171642D01*
X0114500Y0172640D02*
X0115000Y0172640D01*
X0115000Y0173639D02*
X0114500Y0173639D01*
X0114500Y0174637D02*
X0115000Y0174637D01*
X0115000Y0175636D02*
X0114500Y0175636D01*
X0114337Y0176634D02*
X0115000Y0176634D01*
X0119000Y0176634D02*
X0128000Y0176634D01*
X0128000Y0175636D02*
X0124932Y0175636D01*
X0125930Y0174637D02*
X0128000Y0174637D01*
X0128000Y0173639D02*
X0126400Y0173639D01*
X0126750Y0172640D02*
X0128000Y0172640D01*
X0128000Y0171642D02*
X0126750Y0171642D01*
X0126641Y0170643D02*
X0128000Y0170643D01*
X0128000Y0169645D02*
X0127034Y0169645D01*
X0127000Y0166850D02*
X0122000Y0171850D01*
X0119068Y0175636D02*
X0119000Y0175636D01*
X0121625Y0177633D02*
X0122375Y0177633D01*
X0122375Y0178631D02*
X0121625Y0178631D01*
X0121625Y0179630D02*
X0122375Y0179630D01*
X0122375Y0180628D02*
X0121625Y0180628D01*
X0117250Y0182625D02*
X0117053Y0182625D01*
X0117250Y0183624D02*
X0116055Y0183624D01*
X0117250Y0184622D02*
X0113867Y0184622D01*
X0114491Y0187618D02*
X0128000Y0187618D01*
X0128000Y0188616D02*
X0114500Y0188616D01*
X0114500Y0189615D02*
X0128000Y0189615D01*
X0128000Y0180628D02*
X0126750Y0180628D01*
X0126750Y0179630D02*
X0128000Y0179630D01*
X0128000Y0178631D02*
X0126750Y0178631D01*
X0126404Y0177633D02*
X0128000Y0177633D01*
X0127000Y0166850D02*
X0127000Y0155850D01*
X0130084Y0155665D02*
X0135932Y0155665D01*
X0134933Y0156664D02*
X0130001Y0156664D01*
X0124451Y0157662D02*
X0124303Y0157662D01*
X0117000Y0165350D02*
X0112500Y0160850D01*
X0109655Y0159659D02*
X0083318Y0159659D01*
X0083328Y0158661D02*
X0110327Y0158661D01*
X0109416Y0160658D02*
X0083307Y0160658D01*
X0083300Y0161656D02*
X0109496Y0161656D01*
X0109943Y0162655D02*
X0083300Y0162655D01*
X0083300Y0163653D02*
X0111209Y0163653D01*
X0110250Y0165651D02*
X0109750Y0165651D01*
X0109750Y0165350D02*
X0109750Y0168100D01*
X0105500Y0168100D01*
X0105500Y0166653D01*
X0105602Y0166271D01*
X0105800Y0165929D01*
X0106079Y0165650D01*
X0106421Y0165452D01*
X0106803Y0165350D01*
X0109750Y0165350D01*
X0109750Y0166649D02*
X0110250Y0166649D01*
X0110250Y0167648D02*
X0109750Y0167648D01*
X0109750Y0168646D02*
X0110250Y0168646D01*
X0110250Y0169645D02*
X0109750Y0169645D01*
X0109750Y0170643D02*
X0110250Y0170643D01*
X0110000Y0174350D02*
X0088000Y0174350D01*
X0088817Y0171350D02*
X0088817Y0171350D01*
X0091913Y0171642D02*
X0106087Y0171642D01*
X0105726Y0170643D02*
X0092274Y0170643D01*
X0092500Y0169645D02*
X0105500Y0169645D01*
X0105500Y0168646D02*
X0092500Y0168646D01*
X0092500Y0168100D02*
X0088250Y0168100D01*
X0088250Y0165350D01*
X0091197Y0165350D01*
X0091579Y0165452D01*
X0091921Y0165650D01*
X0092200Y0165929D01*
X0092398Y0166271D01*
X0092500Y0166653D01*
X0092500Y0168100D01*
X0092500Y0167648D02*
X0105500Y0167648D01*
X0105501Y0166649D02*
X0092499Y0166649D01*
X0091922Y0165651D02*
X0106078Y0165651D01*
X0105663Y0176634D02*
X0092337Y0176634D01*
X0088250Y0167648D02*
X0087750Y0167648D01*
X0087750Y0166649D02*
X0088250Y0166649D01*
X0088250Y0165651D02*
X0087750Y0165651D01*
X0083423Y0149674D02*
X0177719Y0149674D01*
X0177719Y0150673D02*
X0113944Y0150673D01*
X0114500Y0151671D02*
X0178138Y0151671D01*
X0178471Y0135695D02*
X0176191Y0135695D01*
X0177515Y0134697D02*
X0183325Y0134697D01*
X0176000Y0131850D02*
X0193000Y0131850D01*
X0199000Y0125850D01*
X0199000Y0105850D01*
X0194000Y0100850D01*
X0194000Y0093850D01*
X0184000Y0093850D02*
X0184000Y0103850D01*
X0189000Y0108850D01*
X0189000Y0123850D01*
X0184000Y0128850D01*
X0186309Y0123713D02*
X0180148Y0123713D01*
X0181497Y0122715D02*
X0187000Y0122715D01*
X0187000Y0121716D02*
X0181980Y0121716D01*
X0182084Y0120718D02*
X0187000Y0120718D01*
X0187000Y0119719D02*
X0181870Y0119719D01*
X0181232Y0118720D02*
X0187000Y0118720D01*
X0187000Y0117722D02*
X0181000Y0117722D01*
X0181000Y0116723D02*
X0181675Y0116723D01*
X0179000Y0120850D02*
X0179000Y0093850D01*
X0176113Y0092759D02*
X0171701Y0092759D01*
X0172757Y0091761D02*
X0176728Y0091761D01*
X0176550Y0090762D02*
X0173357Y0090762D01*
X0173664Y0089764D02*
X0176040Y0089764D01*
X0175916Y0088765D02*
X0169375Y0088765D01*
X0168625Y0088765D02*
X0159453Y0088765D01*
X0159453Y0089764D02*
X0164336Y0089764D01*
X0164643Y0090762D02*
X0159453Y0090762D01*
X0158990Y0087767D02*
X0164362Y0087767D01*
X0164730Y0086768D02*
X0158910Y0086768D01*
X0155500Y0091761D02*
X0165243Y0091761D01*
X0168625Y0091761D02*
X0169375Y0091761D01*
X0169375Y0092759D02*
X0168625Y0092759D01*
X0168625Y0090762D02*
X0169375Y0090762D01*
X0169375Y0089764D02*
X0168625Y0089764D01*
X0173638Y0087767D02*
X0175088Y0087767D01*
X0174090Y0086768D02*
X0173270Y0086768D01*
X0176000Y0085850D02*
X0233000Y0085850D01*
X0259000Y0059850D01*
X0259000Y0042850D01*
X0264000Y0037850D01*
X0271000Y0042834D02*
X0272155Y0042834D01*
X0273154Y0043832D02*
X0271000Y0043832D01*
X0271000Y0044831D02*
X0274152Y0044831D01*
X0275151Y0045829D02*
X0271000Y0045829D01*
X0271000Y0046828D02*
X0276149Y0046828D01*
X0277148Y0047826D02*
X0271000Y0047826D01*
X0271000Y0048825D02*
X0272041Y0048825D01*
X0275959Y0048825D02*
X0278146Y0048825D01*
X0277293Y0049823D02*
X0279145Y0049823D01*
X0280003Y0050822D02*
X0277997Y0050822D01*
X0278410Y0051820D02*
X0279590Y0051820D01*
X0279531Y0052819D02*
X0278468Y0052819D01*
X0278436Y0053817D02*
X0279564Y0053817D01*
X0279978Y0054816D02*
X0278022Y0054816D01*
X0277355Y0055814D02*
X0280645Y0055814D01*
X0281890Y0056813D02*
X0276110Y0056813D01*
X0274788Y0058810D02*
X0282000Y0058810D01*
X0282000Y0059808D02*
X0275787Y0059808D01*
X0276000Y0060807D02*
X0282000Y0060807D01*
X0282000Y0061805D02*
X0276000Y0061805D01*
X0276000Y0062804D02*
X0282000Y0062804D01*
X0282000Y0063802D02*
X0276000Y0063802D01*
X0276000Y0064801D02*
X0282000Y0064801D01*
X0282000Y0065799D02*
X0276000Y0065799D01*
X0276000Y0066798D02*
X0282000Y0066798D01*
X0281312Y0067796D02*
X0276000Y0067796D01*
X0276000Y0068795D02*
X0279693Y0068795D01*
X0279099Y0069793D02*
X0276000Y0069793D01*
X0276000Y0070792D02*
X0278916Y0070792D01*
X0279051Y0071790D02*
X0276000Y0071790D01*
X0276000Y0072789D02*
X0279577Y0072789D01*
X0281032Y0073787D02*
X0276000Y0073787D01*
X0282000Y0070850D02*
X0284000Y0068850D01*
X0284000Y0052850D01*
X0284000Y0051850D01*
X0274000Y0041850D01*
X0274000Y0037850D01*
X0254000Y0037850D02*
X0249000Y0042850D01*
X0249000Y0064850D01*
X0231000Y0082850D01*
X0234000Y0088850D02*
X0252000Y0070850D01*
X0255000Y0070850D01*
X0253000Y0083850D02*
X0244000Y0092850D01*
X0244000Y0112850D01*
X0249000Y0122850D02*
X0254000Y0127850D01*
X0249000Y0122850D02*
X0249000Y0094850D01*
X0252084Y0094756D02*
X0255916Y0094756D01*
X0256036Y0095755D02*
X0251964Y0095755D01*
X0251459Y0096753D02*
X0256541Y0096753D01*
X0256114Y0093758D02*
X0251886Y0093758D01*
X0251271Y0092759D02*
X0256729Y0092759D01*
X0276000Y0108735D02*
X0282257Y0108735D01*
X0292153Y0098750D02*
X0302000Y0098750D01*
X0302000Y0097752D02*
X0291883Y0097752D01*
X0291300Y0096753D02*
X0302000Y0096753D01*
X0302000Y0095755D02*
X0291300Y0095755D01*
X0291300Y0094756D02*
X0302000Y0094756D01*
X0302000Y0093758D02*
X0291300Y0093758D01*
X0291300Y0092759D02*
X0302000Y0092759D01*
X0302000Y0091761D02*
X0291300Y0091761D01*
X0291300Y0090762D02*
X0302000Y0090762D01*
X0302000Y0089764D02*
X0291300Y0089764D01*
X0291300Y0088765D02*
X0302000Y0088765D01*
X0302000Y0087767D02*
X0291300Y0087767D01*
X0291300Y0086768D02*
X0302000Y0086768D01*
X0302000Y0085770D02*
X0291300Y0085770D01*
X0291300Y0084771D02*
X0302000Y0084771D01*
X0302000Y0083773D02*
X0291300Y0083773D01*
X0291300Y0082774D02*
X0302000Y0082774D01*
X0302000Y0081776D02*
X0291300Y0081776D01*
X0291300Y0080777D02*
X0302000Y0080777D01*
X0302000Y0079779D02*
X0291300Y0079779D01*
X0291300Y0078780D02*
X0302000Y0078780D01*
X0302000Y0077782D02*
X0291300Y0077782D01*
X0291300Y0076783D02*
X0302000Y0076783D01*
X0302000Y0075784D02*
X0291300Y0075784D01*
X0291300Y0074786D02*
X0301108Y0074786D01*
X0300109Y0073787D02*
X0291300Y0073787D01*
X0291300Y0072789D02*
X0299111Y0072789D01*
X0298112Y0071790D02*
X0291300Y0071790D01*
X0291300Y0070792D02*
X0297114Y0070792D01*
X0296115Y0069793D02*
X0291300Y0069793D01*
X0291300Y0068795D02*
X0295116Y0068795D01*
X0293054Y0067796D02*
X0291300Y0067796D01*
X0291300Y0066798D02*
X0291586Y0066798D01*
X0294000Y0064850D02*
X0304000Y0074850D01*
X0304000Y0112850D01*
X0300797Y0109734D02*
X0297203Y0109734D01*
X0297960Y0110732D02*
X0300040Y0110732D01*
X0299627Y0111731D02*
X0298373Y0111731D01*
X0298468Y0112729D02*
X0299531Y0112729D01*
X0299531Y0113728D02*
X0298468Y0113728D01*
X0298059Y0114726D02*
X0299941Y0114726D01*
X0300556Y0115725D02*
X0297444Y0115725D01*
X0296300Y0108735D02*
X0302000Y0108735D01*
X0302000Y0107737D02*
X0296300Y0107737D01*
X0296300Y0106738D02*
X0302000Y0106738D01*
X0302000Y0105740D02*
X0296300Y0105740D01*
X0296300Y0104741D02*
X0302000Y0104741D01*
X0302000Y0103743D02*
X0296300Y0103743D01*
X0296147Y0102744D02*
X0302000Y0102744D01*
X0302000Y0101746D02*
X0295148Y0101746D01*
X0294150Y0100747D02*
X0302000Y0100747D01*
X0302000Y0099749D02*
X0293151Y0099749D01*
X0282000Y0057811D02*
X0273790Y0057811D01*
X0244000Y0037850D02*
X0239000Y0042850D01*
X0198216Y0061805D02*
X0197156Y0061805D01*
X0197218Y0062804D02*
X0196686Y0062804D01*
X0194000Y0060850D02*
X0196000Y0058850D01*
X0175300Y0046828D02*
X0174700Y0046828D01*
X0174700Y0045829D02*
X0175300Y0045829D01*
X0175300Y0044831D02*
X0174700Y0044831D01*
X0174700Y0043832D02*
X0175300Y0043832D01*
X0175300Y0042834D02*
X0174700Y0042834D01*
X0174700Y0041835D02*
X0175300Y0041835D01*
X0175300Y0040837D02*
X0174700Y0040837D01*
X0174700Y0039838D02*
X0175300Y0039838D01*
X0167869Y0039838D02*
X0167852Y0039838D01*
X0165000Y0043350D02*
X0164000Y0042350D01*
X0156000Y0042350D01*
X0158250Y0043850D02*
X0158250Y0040850D01*
X0153750Y0040850D01*
X0153750Y0043850D01*
X0158250Y0043850D01*
X0158250Y0041849D02*
X0153750Y0041849D01*
X0153750Y0042848D02*
X0158250Y0042848D01*
X0158250Y0043847D02*
X0153750Y0043847D01*
X0126057Y0079779D02*
X0125150Y0079779D01*
X0114484Y0080366D02*
X0114000Y0080850D01*
X0112516Y0082366D01*
X0110839Y0082366D01*
X0108280Y0082366D02*
X0108280Y0088570D01*
X0101393Y0085770D02*
X0083300Y0085770D01*
X0083300Y0086768D02*
X0093253Y0086768D01*
X0092255Y0087767D02*
X0083300Y0087767D01*
X0083300Y0088765D02*
X0091256Y0088765D01*
X0090258Y0089764D02*
X0083300Y0089764D01*
X0083300Y0090762D02*
X0089259Y0090762D01*
X0088261Y0091761D02*
X0083300Y0091761D01*
X0083300Y0092759D02*
X0087012Y0092759D01*
X0086014Y0093758D02*
X0083300Y0093758D01*
X0083906Y0094756D02*
X0086000Y0094756D01*
X0086000Y0095755D02*
X0083990Y0095755D01*
X0083980Y0096753D02*
X0086000Y0096753D01*
X0086000Y0097752D02*
X0083969Y0097752D01*
X0083959Y0098750D02*
X0086000Y0098750D01*
X0086000Y0099749D02*
X0083948Y0099749D01*
X0083938Y0100747D02*
X0086231Y0100747D01*
X0086000Y0101746D02*
X0083927Y0101746D01*
X0083917Y0102744D02*
X0086000Y0102744D01*
X0086000Y0103743D02*
X0083906Y0103743D01*
X0083896Y0104741D02*
X0086000Y0104741D01*
X0086000Y0105740D02*
X0083885Y0105740D01*
X0083875Y0106738D02*
X0086017Y0106738D01*
X0083864Y0107737D02*
X0098058Y0107737D01*
X0099000Y0105850D02*
X0101000Y0107850D01*
X0101000Y0126850D01*
X0103000Y0128850D01*
X0107000Y0128850D01*
X0106927Y0131701D02*
X0107023Y0131701D01*
X0107926Y0132700D02*
X0108021Y0132700D01*
X0108924Y0133698D02*
X0109020Y0133698D01*
X0109650Y0134697D02*
X0110018Y0134697D01*
X0109650Y0135695D02*
X0111017Y0135695D01*
X0112015Y0136694D02*
X0109650Y0136694D01*
X0109650Y0137692D02*
X0113000Y0137692D01*
X0112629Y0138691D02*
X0109235Y0138691D01*
X0108237Y0139689D02*
X0111443Y0139689D01*
X0110754Y0140688D02*
X0107414Y0140688D01*
X0108412Y0141686D02*
X0110341Y0141686D01*
X0110250Y0142685D02*
X0109411Y0142685D01*
X0109650Y0143683D02*
X0110250Y0143683D01*
X0109650Y0145680D02*
X0111113Y0145680D01*
X0112111Y0146679D02*
X0109650Y0146679D01*
X0102250Y0148676D02*
X0083433Y0148676D01*
X0097406Y0145680D02*
X0098405Y0145680D01*
X0098405Y0144682D02*
X0097406Y0144682D01*
X0097406Y0143683D02*
X0098405Y0143683D01*
X0098405Y0142685D02*
X0097406Y0142685D01*
X0097406Y0141686D02*
X0098405Y0141686D01*
X0098406Y0141350D02*
X0101472Y0141350D01*
X0101472Y0141801D01*
X0102674Y0140600D01*
X0101472Y0139398D01*
X0101472Y0140350D01*
X0098406Y0140350D01*
X0098406Y0141350D01*
X0098406Y0140688D02*
X0102586Y0140688D01*
X0101763Y0139689D02*
X0101472Y0139689D01*
X0101472Y0141686D02*
X0101588Y0141686D01*
X0105000Y0136350D02*
X0103496Y0134846D01*
X0117000Y0137692D02*
X0117014Y0137692D01*
X0117371Y0138691D02*
X0118012Y0138691D01*
X0118557Y0139689D02*
X0121443Y0139689D01*
X0120754Y0140688D02*
X0119246Y0140688D01*
X0119659Y0141686D02*
X0120341Y0141686D01*
X0120250Y0142685D02*
X0119750Y0142685D01*
X0119750Y0143683D02*
X0120250Y0143683D01*
X0120617Y0144682D02*
X0119383Y0144682D01*
X0118887Y0145680D02*
X0121113Y0145680D01*
X0122111Y0146679D02*
X0117889Y0146679D01*
X0127889Y0146679D02*
X0132189Y0146679D01*
X0131185Y0145680D02*
X0128887Y0145680D01*
X0129383Y0144682D02*
X0130602Y0144682D01*
X0130323Y0143683D02*
X0129750Y0143683D01*
X0129750Y0142685D02*
X0134625Y0142685D01*
X0135375Y0142685D02*
X0140250Y0142685D01*
X0140250Y0143683D02*
X0139677Y0143683D01*
X0139398Y0144682D02*
X0140250Y0144682D01*
X0140250Y0145680D02*
X0138815Y0145680D01*
X0137811Y0146679D02*
X0140250Y0146679D01*
X0135375Y0146679D02*
X0134625Y0146679D01*
X0134625Y0145680D02*
X0135375Y0145680D01*
X0135375Y0144682D02*
X0134625Y0144682D01*
X0134625Y0143683D02*
X0135375Y0143683D01*
X0139616Y0141686D02*
X0140250Y0141686D01*
X0140250Y0140688D02*
X0139229Y0140688D01*
X0138557Y0139689D02*
X0140250Y0139689D01*
X0131443Y0139689D02*
X0128557Y0139689D01*
X0129246Y0140688D02*
X0130771Y0140688D01*
X0130384Y0141686D02*
X0129659Y0141686D01*
X0133000Y0131850D02*
X0133000Y0129850D01*
X0134000Y0128850D01*
X0134000Y0128350D01*
X0141000Y0128350D01*
X0138750Y0126850D02*
X0138750Y0129850D01*
X0143250Y0129850D01*
X0143250Y0126850D01*
X0138750Y0126850D01*
X0138750Y0127849D02*
X0143250Y0127849D01*
X0143250Y0128848D02*
X0138750Y0128848D01*
X0138750Y0129847D02*
X0143250Y0129847D01*
X0141000Y0121350D02*
X0134000Y0121350D01*
X0138750Y0119850D02*
X0138750Y0122850D01*
X0143250Y0122850D01*
X0143250Y0119850D01*
X0138750Y0119850D01*
X0138750Y0120849D02*
X0143250Y0120849D01*
X0143250Y0121848D02*
X0138750Y0121848D01*
X0138750Y0122847D02*
X0143250Y0122847D01*
X0141000Y0121350D02*
X0150000Y0121350D01*
X0157843Y0115725D02*
X0160556Y0115725D01*
X0159941Y0114726D02*
X0158364Y0114726D01*
X0158750Y0113728D02*
X0159531Y0113728D01*
X0159531Y0112729D02*
X0158750Y0112729D01*
X0158678Y0111731D02*
X0159627Y0111731D01*
X0160040Y0110732D02*
X0158264Y0110732D01*
X0157601Y0109734D02*
X0160797Y0109734D01*
X0162257Y0108735D02*
X0156479Y0108735D01*
X0150399Y0109734D02*
X0142468Y0109734D01*
X0142468Y0110732D02*
X0149736Y0110732D01*
X0149322Y0111731D02*
X0142468Y0111731D01*
X0154040Y0098890D02*
X0155000Y0098850D01*
X0155000Y0098890D02*
X0154040Y0098890D01*
X0149000Y0093850D02*
X0138000Y0093850D01*
X0137000Y0092850D01*
X0132000Y0089850D02*
X0149000Y0089850D01*
X0132000Y0089850D02*
X0128000Y0093850D01*
X0128000Y0098850D01*
X0103161Y0082366D02*
X0103161Y0078504D01*
X0102275Y0078504D01*
X0101893Y0078606D01*
X0101551Y0078803D01*
X0101272Y0079083D01*
X0101075Y0079425D01*
X0100972Y0079806D01*
X0100972Y0082366D01*
X0103161Y0082366D01*
X0103161Y0082366D01*
X0103161Y0081776D02*
X0103161Y0081776D01*
X0103161Y0080777D02*
X0103161Y0080777D01*
X0103161Y0079779D02*
X0103161Y0079779D01*
X0103161Y0078780D02*
X0103161Y0078780D01*
X0103720Y0077782D02*
X0100453Y0077782D01*
X0100453Y0076783D02*
X0103720Y0076783D01*
X0103720Y0075784D02*
X0096500Y0075784D01*
X0096500Y0076783D02*
X0095500Y0076783D01*
X0095500Y0075784D02*
X0077197Y0075784D01*
X0077616Y0076783D02*
X0078383Y0076783D01*
X0076413Y0074786D02*
X0091547Y0074786D01*
X0091547Y0073787D02*
X0074788Y0073787D01*
X0073799Y0073787D02*
X0072831Y0073787D01*
X0071842Y0073787D02*
X0016937Y0073787D01*
X0015939Y0072789D02*
X0091559Y0072789D01*
X0092047Y0071790D02*
X0015000Y0071790D01*
X0015000Y0070792D02*
X0027962Y0070792D01*
X0027138Y0069793D02*
X0015000Y0069793D01*
X0015000Y0068795D02*
X0027138Y0068795D01*
X0027138Y0067796D02*
X0015000Y0067796D01*
X0015000Y0066798D02*
X0027138Y0066798D01*
X0027138Y0065799D02*
X0015000Y0065799D01*
X0015000Y0064801D02*
X0027138Y0064801D01*
X0027336Y0063802D02*
X0022624Y0063802D01*
X0021926Y0064500D02*
X0020300Y0064500D01*
X0020300Y0060150D01*
X0024650Y0060150D01*
X0024650Y0061776D01*
X0021926Y0064500D01*
X0020300Y0063802D02*
X0019700Y0063802D01*
X0019700Y0064500D02*
X0018074Y0064500D01*
X0015350Y0061776D01*
X0015350Y0060150D01*
X0019700Y0060150D01*
X0019700Y0064500D01*
X0019700Y0062804D02*
X0020300Y0062804D01*
X0020300Y0061805D02*
X0019700Y0061805D01*
X0019700Y0060807D02*
X0020300Y0060807D01*
X0020300Y0060150D02*
X0019700Y0060150D01*
X0019700Y0059550D01*
X0020300Y0059550D01*
X0020300Y0060150D01*
X0020300Y0059808D02*
X0027138Y0059808D01*
X0027138Y0059216D02*
X0030500Y0059216D01*
X0030500Y0058216D01*
X0031500Y0058216D01*
X0031500Y0054854D01*
X0033560Y0054854D01*
X0033941Y0054956D01*
X0034283Y0055154D01*
X0034562Y0055433D01*
X0034760Y0055775D01*
X0034862Y0056156D01*
X0034862Y0058216D01*
X0031500Y0058216D01*
X0031500Y0059216D01*
X0034862Y0059216D01*
X0034862Y0061276D01*
X0034760Y0061657D01*
X0034562Y0061999D01*
X0034283Y0062279D01*
X0033941Y0062476D01*
X0033560Y0062578D01*
X0031500Y0062578D01*
X0031500Y0059216D01*
X0030500Y0059216D01*
X0030500Y0062578D01*
X0028440Y0062578D01*
X0028059Y0062476D01*
X0027717Y0062279D01*
X0027437Y0061999D01*
X0027240Y0061657D01*
X0027138Y0061276D01*
X0027138Y0059216D01*
X0027138Y0058216D02*
X0027138Y0056156D01*
X0027240Y0055775D01*
X0027437Y0055433D01*
X0027717Y0055154D01*
X0028059Y0054956D01*
X0028440Y0054854D01*
X0030500Y0054854D01*
X0030500Y0058216D01*
X0027138Y0058216D01*
X0027138Y0057811D02*
X0024537Y0057811D01*
X0024650Y0057924D02*
X0024650Y0059550D01*
X0020300Y0059550D01*
X0020300Y0055200D01*
X0021926Y0055200D01*
X0024650Y0057924D01*
X0024650Y0058810D02*
X0030500Y0058810D01*
X0030500Y0059808D02*
X0031500Y0059808D01*
X0031500Y0058810D02*
X0036750Y0058810D01*
X0036750Y0059808D02*
X0034862Y0059808D01*
X0034862Y0060807D02*
X0036750Y0060807D01*
X0036877Y0061805D02*
X0034675Y0061805D01*
X0034664Y0063802D02*
X0036969Y0063802D01*
X0037875Y0062804D02*
X0023622Y0062804D01*
X0024621Y0061805D02*
X0027325Y0061805D01*
X0027138Y0060807D02*
X0024650Y0060807D01*
X0023539Y0056813D02*
X0027138Y0056813D01*
X0027229Y0055814D02*
X0022540Y0055814D01*
X0020300Y0055814D02*
X0019700Y0055814D01*
X0019700Y0055200D02*
X0019700Y0059550D01*
X0015350Y0059550D01*
X0015350Y0057924D01*
X0018074Y0055200D01*
X0019700Y0055200D01*
X0019700Y0056813D02*
X0020300Y0056813D01*
X0020300Y0057811D02*
X0019700Y0057811D01*
X0019700Y0058810D02*
X0020300Y0058810D01*
X0019700Y0059808D02*
X0015000Y0059808D01*
X0015000Y0058810D02*
X0015350Y0058810D01*
X0015463Y0057811D02*
X0015000Y0057811D01*
X0015000Y0056813D02*
X0016461Y0056813D01*
X0017460Y0055814D02*
X0015000Y0055814D01*
X0015000Y0054816D02*
X0035137Y0054816D01*
X0034770Y0055814D02*
X0036136Y0055814D01*
X0036959Y0056813D02*
X0034862Y0056813D01*
X0034862Y0057811D02*
X0036750Y0057811D01*
X0039000Y0057350D02*
X0041000Y0059350D01*
X0038750Y0057850D02*
X0038750Y0060850D01*
X0043250Y0060850D01*
X0043250Y0057850D01*
X0038750Y0057850D01*
X0038750Y0058849D02*
X0043250Y0058849D01*
X0043250Y0059848D02*
X0038750Y0059848D01*
X0038750Y0060847D02*
X0043250Y0060847D01*
X0045250Y0060807D02*
X0054467Y0060807D01*
X0055074Y0060200D02*
X0052350Y0062924D01*
X0052350Y0064550D01*
X0056700Y0064550D01*
X0056700Y0065150D01*
X0056700Y0069500D01*
X0055074Y0069500D01*
X0052350Y0066776D01*
X0052350Y0065150D01*
X0056700Y0065150D01*
X0057300Y0065150D01*
X0057300Y0069500D01*
X0058926Y0069500D01*
X0061650Y0066776D01*
X0061650Y0065150D01*
X0057300Y0065150D01*
X0057300Y0064550D01*
X0061650Y0064550D01*
X0061650Y0062924D01*
X0058926Y0060200D01*
X0057300Y0060200D01*
X0057300Y0064550D01*
X0056700Y0064550D01*
X0056700Y0060200D01*
X0055074Y0060200D01*
X0054409Y0058810D02*
X0045250Y0058810D01*
X0045250Y0059808D02*
X0063706Y0059808D01*
X0064704Y0060807D02*
X0059533Y0060807D01*
X0060531Y0061805D02*
X0065703Y0061805D01*
X0066701Y0062804D02*
X0061530Y0062804D01*
X0061650Y0063802D02*
X0067700Y0063802D01*
X0068698Y0064801D02*
X0057300Y0064801D01*
X0056700Y0064801D02*
X0045250Y0064801D01*
X0045250Y0065799D02*
X0052350Y0065799D01*
X0052372Y0066798D02*
X0045250Y0066798D01*
X0045250Y0067796D02*
X0053370Y0067796D01*
X0054369Y0068795D02*
X0045133Y0068795D01*
X0044135Y0069793D02*
X0073691Y0069793D01*
X0072692Y0068795D02*
X0059631Y0068795D01*
X0060630Y0067796D02*
X0071694Y0067796D01*
X0070695Y0066798D02*
X0061628Y0066798D01*
X0061650Y0065799D02*
X0069697Y0065799D01*
X0075204Y0064801D02*
X0091676Y0064801D01*
X0092939Y0062804D02*
X0093061Y0062804D01*
X0095740Y0067850D02*
X0090000Y0067850D01*
X0089260Y0067590D02*
X0089000Y0067850D01*
X0091547Y0070792D02*
X0034038Y0070792D01*
X0034862Y0069793D02*
X0037865Y0069793D01*
X0036866Y0068795D02*
X0034862Y0068795D01*
X0031634Y0066350D02*
X0031000Y0066984D01*
X0031634Y0066350D02*
X0041000Y0066350D01*
X0038750Y0064850D02*
X0038750Y0067850D01*
X0043250Y0067850D01*
X0043250Y0064850D01*
X0038750Y0064850D01*
X0038750Y0065849D02*
X0043250Y0065849D01*
X0043250Y0066848D02*
X0038750Y0066848D01*
X0038750Y0067847D02*
X0043250Y0067847D01*
X0045031Y0063802D02*
X0052350Y0063802D01*
X0052470Y0062804D02*
X0044125Y0062804D01*
X0045123Y0061805D02*
X0053469Y0061805D01*
X0056700Y0061805D02*
X0057300Y0061805D01*
X0057300Y0060807D02*
X0056700Y0060807D01*
X0056700Y0062804D02*
X0057300Y0062804D01*
X0057300Y0063802D02*
X0056700Y0063802D01*
X0056700Y0065799D02*
X0057300Y0065799D01*
X0057300Y0066798D02*
X0056700Y0066798D01*
X0056700Y0067796D02*
X0057300Y0067796D01*
X0057300Y0068795D02*
X0056700Y0068795D01*
X0055934Y0075784D02*
X0069432Y0075784D01*
X0069014Y0076783D02*
X0056933Y0076783D01*
X0057932Y0077782D02*
X0068846Y0077782D01*
X0068846Y0078780D02*
X0058930Y0078780D01*
X0059929Y0079779D02*
X0068846Y0079779D01*
X0068846Y0081776D02*
X0061926Y0081776D01*
X0062924Y0082774D02*
X0068846Y0082774D01*
X0068846Y0083773D02*
X0063923Y0083773D01*
X0064921Y0084771D02*
X0068922Y0084771D01*
X0069230Y0085770D02*
X0065920Y0085770D01*
X0066918Y0086768D02*
X0069843Y0086768D01*
X0070974Y0087767D02*
X0067917Y0087767D01*
X0068915Y0088765D02*
X0078700Y0088765D01*
X0078700Y0087767D02*
X0075656Y0087767D01*
X0076787Y0086768D02*
X0078700Y0086768D01*
X0078700Y0085770D02*
X0077400Y0085770D01*
X0077708Y0084771D02*
X0078700Y0084771D01*
X0078700Y0083773D02*
X0077783Y0083773D01*
X0077783Y0082774D02*
X0078241Y0082774D01*
X0083300Y0083773D02*
X0100972Y0083773D01*
X0100972Y0084771D02*
X0083300Y0084771D01*
X0083759Y0082774D02*
X0100972Y0082774D01*
X0100972Y0081776D02*
X0084281Y0081776D01*
X0084281Y0080777D02*
X0100972Y0080777D01*
X0100980Y0079779D02*
X0084281Y0079779D01*
X0084281Y0078780D02*
X0091679Y0078780D01*
X0091547Y0077782D02*
X0084281Y0077782D01*
X0083617Y0076783D02*
X0091547Y0076783D01*
X0095500Y0077782D02*
X0096500Y0077782D01*
X0096500Y0078780D02*
X0095500Y0078780D01*
X0100321Y0078780D02*
X0101592Y0078780D01*
X0100453Y0074786D02*
X0103720Y0074786D01*
X0103720Y0073787D02*
X0100453Y0073787D01*
X0100441Y0072789D02*
X0103720Y0072789D01*
X0103720Y0071790D02*
X0099953Y0071790D01*
X0100453Y0070792D02*
X0103720Y0070792D01*
X0096000Y0068110D02*
X0095740Y0067850D01*
X0100419Y0062804D02*
X0100422Y0062804D01*
X0100799Y0061805D02*
X0100972Y0061805D01*
X0100972Y0060807D02*
X0100799Y0060807D01*
X0100799Y0059808D02*
X0100972Y0059808D01*
X0103161Y0059334D02*
X0103161Y0064250D01*
X0097240Y0057811D02*
X0096240Y0057811D01*
X0096240Y0056813D02*
X0097240Y0056813D01*
X0097240Y0055814D02*
X0096240Y0055814D01*
X0096240Y0054816D02*
X0097240Y0054816D01*
X0093141Y0054816D02*
X0092859Y0054816D01*
X0085661Y0054816D02*
X0083649Y0054816D01*
X0084281Y0055814D02*
X0085201Y0055814D01*
X0085201Y0056813D02*
X0084281Y0056813D01*
X0084281Y0057811D02*
X0085201Y0057811D01*
X0085201Y0058810D02*
X0084281Y0058810D01*
X0084281Y0059808D02*
X0085201Y0059808D01*
X0085201Y0060807D02*
X0083727Y0060807D01*
X0073799Y0074786D02*
X0072831Y0074786D01*
X0072831Y0075784D02*
X0073799Y0075784D01*
X0073799Y0076783D02*
X0072831Y0076783D01*
X0072831Y0077782D02*
X0073799Y0077782D01*
X0073799Y0078780D02*
X0072831Y0078780D01*
X0072831Y0079779D02*
X0073799Y0079779D01*
X0072831Y0080777D02*
X0060927Y0080777D01*
X0070217Y0074786D02*
X0017936Y0074786D01*
X0017376Y0063802D02*
X0015000Y0063802D01*
X0015000Y0062804D02*
X0016378Y0062804D01*
X0015379Y0061805D02*
X0015000Y0061805D01*
X0015000Y0060807D02*
X0015350Y0060807D01*
X0015000Y0053817D02*
X0034139Y0053817D01*
X0033140Y0052819D02*
X0015000Y0052819D01*
X0015000Y0051820D02*
X0024549Y0051820D01*
X0023091Y0050822D02*
X0015000Y0050822D01*
X0015000Y0049823D02*
X0022363Y0049823D01*
X0021949Y0048825D02*
X0015000Y0048825D01*
X0015000Y0047826D02*
X0021900Y0047826D01*
X0021969Y0046828D02*
X0015000Y0046828D01*
X0015051Y0045829D02*
X0022383Y0045829D01*
X0023138Y0044831D02*
X0016049Y0044831D01*
X0016792Y0043832D02*
X0024664Y0043832D01*
X0024584Y0041835D02*
X0017620Y0041835D01*
X0017799Y0040837D02*
X0023105Y0040837D01*
X0022369Y0039838D02*
X0018678Y0039838D01*
X0019593Y0038840D02*
X0021956Y0038840D01*
X0021900Y0037841D02*
X0020508Y0037841D01*
X0021423Y0036843D02*
X0021963Y0036843D01*
X0022339Y0035844D02*
X0022377Y0035844D01*
X0017206Y0042834D02*
X0030764Y0042834D01*
X0031000Y0047850D02*
X0029000Y0047850D01*
X0031000Y0047850D02*
X0039000Y0055850D01*
X0039000Y0057350D01*
X0041000Y0055814D02*
X0052366Y0055814D01*
X0052350Y0054816D02*
X0040794Y0054816D01*
X0039796Y0053817D02*
X0052395Y0053817D01*
X0052808Y0052819D02*
X0038797Y0052819D01*
X0038549Y0051820D02*
X0037799Y0051820D01*
X0037091Y0050822D02*
X0036800Y0050822D01*
X0036363Y0049823D02*
X0035802Y0049823D01*
X0031500Y0055814D02*
X0030500Y0055814D01*
X0030500Y0056813D02*
X0031500Y0056813D01*
X0031500Y0057811D02*
X0030500Y0057811D01*
X0030500Y0060807D02*
X0031500Y0060807D01*
X0031500Y0061805D02*
X0030500Y0061805D01*
X0045250Y0057811D02*
X0053385Y0057811D01*
X0052780Y0056813D02*
X0045041Y0056813D01*
X0047451Y0051820D02*
X0053454Y0051820D01*
X0054574Y0050822D02*
X0048909Y0050822D01*
X0050100Y0047826D02*
X0054400Y0047826D01*
X0053402Y0046828D02*
X0050031Y0046828D01*
X0049617Y0045829D02*
X0052403Y0045829D01*
X0052350Y0044831D02*
X0051323Y0044831D01*
X0052271Y0043832D02*
X0056600Y0043832D01*
X0056600Y0042834D02*
X0057400Y0042834D01*
X0057400Y0041835D02*
X0056600Y0041835D01*
X0056600Y0040837D02*
X0057400Y0040837D01*
X0057400Y0039838D02*
X0056600Y0039838D01*
X0056565Y0038840D02*
X0070700Y0038840D01*
X0070700Y0037841D02*
X0057439Y0037841D01*
X0059564Y0039838D02*
X0062436Y0039838D01*
X0061437Y0040837D02*
X0060563Y0040837D01*
X0057400Y0044831D02*
X0056600Y0044831D01*
X0056600Y0045829D02*
X0057400Y0045829D01*
X0057400Y0046828D02*
X0056600Y0046828D01*
X0056600Y0047826D02*
X0057400Y0047826D01*
X0059600Y0047826D02*
X0062400Y0047826D01*
X0061402Y0046828D02*
X0060598Y0046828D01*
X0067600Y0047826D02*
X0070400Y0047826D01*
X0069402Y0046828D02*
X0068598Y0046828D01*
X0068563Y0040837D02*
X0069437Y0040837D01*
X0070436Y0039838D02*
X0067564Y0039838D01*
X0061709Y0057811D02*
X0060615Y0057811D01*
X0059591Y0058810D02*
X0062707Y0058810D01*
X0072831Y0081776D02*
X0073799Y0081776D01*
X0073799Y0082774D02*
X0072831Y0082774D01*
X0072831Y0083773D02*
X0073799Y0083773D01*
X0073799Y0084771D02*
X0072831Y0084771D01*
X0072831Y0085770D02*
X0073799Y0085770D01*
X0073799Y0086768D02*
X0072831Y0086768D01*
X0072831Y0087767D02*
X0073799Y0087767D01*
X0069914Y0089764D02*
X0078700Y0089764D01*
X0089500Y0093350D02*
X0089500Y0096850D01*
X0088000Y0099100D02*
X0091000Y0099100D01*
X0091000Y0094600D01*
X0088000Y0094600D01*
X0088000Y0099100D01*
X0088000Y0095599D02*
X0091000Y0095599D01*
X0091000Y0096598D02*
X0088000Y0096598D01*
X0088000Y0097597D02*
X0091000Y0097597D01*
X0091000Y0098596D02*
X0088000Y0098596D01*
X0089500Y0096850D02*
X0089500Y0103850D01*
X0089743Y0108735D02*
X0083854Y0108735D01*
X0083843Y0109734D02*
X0089500Y0109734D01*
X0089500Y0110732D02*
X0083833Y0110732D01*
X0083822Y0111731D02*
X0089500Y0111731D01*
X0089292Y0112729D02*
X0087241Y0112729D01*
X0087874Y0113728D02*
X0088294Y0113728D01*
X0085000Y0114850D02*
X0084000Y0115850D01*
X0084000Y0123850D01*
X0085000Y0124850D01*
X0093000Y0124850D01*
X0094500Y0123350D01*
X0094500Y0119850D01*
X0096000Y0117600D02*
X0093000Y0117600D01*
X0093000Y0122100D01*
X0096000Y0122100D01*
X0096000Y0117600D01*
X0096000Y0118599D02*
X0093000Y0118599D01*
X0093000Y0119598D02*
X0096000Y0119598D01*
X0096000Y0120597D02*
X0093000Y0120597D01*
X0093000Y0121596D02*
X0096000Y0121596D01*
X0091000Y0121716D02*
X0091000Y0121716D01*
X0091000Y0120718D02*
X0091000Y0120718D01*
X0091000Y0119719D02*
X0091000Y0119719D01*
X0091000Y0118720D02*
X0091000Y0118720D01*
X0091000Y0117722D02*
X0091000Y0117722D01*
X0090955Y0116723D02*
X0091048Y0116723D01*
X0091953Y0115725D02*
X0092047Y0115725D01*
X0093000Y0111850D02*
X0087500Y0117350D01*
X0087500Y0119850D01*
X0089000Y0117600D02*
X0086000Y0117600D01*
X0086000Y0122100D01*
X0089000Y0122100D01*
X0089000Y0117600D01*
X0089000Y0118599D02*
X0086000Y0118599D01*
X0086000Y0119598D02*
X0089000Y0119598D01*
X0089000Y0120597D02*
X0086000Y0120597D01*
X0086000Y0121596D02*
X0089000Y0121596D01*
X0091000Y0122715D02*
X0091000Y0122715D01*
X0099000Y0105850D02*
X0096500Y0103850D01*
X0096500Y0096850D01*
X0095000Y0099100D02*
X0098000Y0099100D01*
X0098000Y0094600D01*
X0095000Y0094600D01*
X0095000Y0099100D01*
X0095000Y0095599D02*
X0098000Y0095599D01*
X0098000Y0096598D02*
X0095000Y0096598D01*
X0095000Y0097597D02*
X0098000Y0097597D01*
X0098000Y0098596D02*
X0095000Y0098596D01*
X0089500Y0093350D02*
X0095000Y0087850D01*
X0165743Y0108735D02*
X0172233Y0108735D01*
X0173516Y0108735D02*
X0174484Y0108735D01*
X0174484Y0109734D02*
X0173516Y0109734D01*
X0173516Y0110732D02*
X0174484Y0110732D01*
X0174484Y0111731D02*
X0173516Y0111731D01*
X0170797Y0109734D02*
X0167203Y0109734D01*
X0167960Y0110732D02*
X0170064Y0110732D01*
X0169665Y0111731D02*
X0168373Y0111731D01*
X0175767Y0108735D02*
X0177000Y0108735D01*
X0186325Y0116723D02*
X0187000Y0116723D01*
X0176000Y0131850D02*
X0175000Y0132850D01*
X0204979Y0132700D02*
X0212381Y0132700D01*
X0210639Y0131701D02*
X0205977Y0131701D01*
X0206976Y0130703D02*
X0209661Y0130703D01*
X0209248Y0129704D02*
X0207974Y0129704D01*
X0215619Y0132700D02*
X0222381Y0132700D01*
X0220639Y0131701D02*
X0217361Y0131701D01*
X0218339Y0130703D02*
X0219661Y0130703D01*
X0219248Y0129704D02*
X0218752Y0129704D01*
X0225619Y0132700D02*
X0232381Y0132700D01*
X0230639Y0131701D02*
X0227361Y0131701D01*
X0228339Y0130703D02*
X0229661Y0130703D01*
X0229248Y0129704D02*
X0228752Y0129704D01*
X0234000Y0127850D02*
X0229000Y0122850D01*
X0229000Y0094850D01*
X0234000Y0088850D02*
X0179000Y0088850D01*
X0235619Y0132700D02*
X0242381Y0132700D01*
X0240639Y0131701D02*
X0237361Y0131701D01*
X0238339Y0130703D02*
X0239661Y0130703D01*
X0239248Y0129704D02*
X0238752Y0129704D01*
X0237447Y0136100D02*
X0234375Y0136100D01*
X0234375Y0140475D01*
X0238750Y0140475D01*
X0238750Y0137403D01*
X0238648Y0137021D01*
X0238450Y0136679D01*
X0238171Y0136400D01*
X0237829Y0136202D01*
X0237447Y0136100D01*
X0238459Y0136694D02*
X0241622Y0136694D01*
X0240440Y0137692D02*
X0238750Y0137692D01*
X0238750Y0138691D02*
X0239753Y0138691D01*
X0239339Y0139689D02*
X0238750Y0139689D01*
X0239250Y0140688D02*
X0234375Y0140688D01*
X0234375Y0141225D02*
X0238750Y0141225D01*
X0238750Y0144297D01*
X0238648Y0144679D01*
X0238450Y0145021D01*
X0238171Y0145300D01*
X0237829Y0145498D01*
X0237447Y0145600D01*
X0234375Y0145600D01*
X0234375Y0141225D01*
X0234375Y0141686D02*
X0233625Y0141686D01*
X0233625Y0140688D02*
X0226250Y0140688D01*
X0226250Y0141686D02*
X0229250Y0141686D01*
X0229250Y0142685D02*
X0226250Y0142685D01*
X0226245Y0143683D02*
X0229250Y0143683D01*
X0229354Y0144682D02*
X0225247Y0144682D01*
X0225909Y0145680D02*
X0261700Y0145680D01*
X0241114Y0144682D02*
X0238646Y0144682D01*
X0238750Y0143683D02*
X0240116Y0143683D01*
X0239619Y0142685D02*
X0238750Y0142685D01*
X0238750Y0141686D02*
X0239250Y0141686D01*
X0234375Y0142685D02*
X0233625Y0142685D01*
X0233625Y0143683D02*
X0234375Y0143683D01*
X0234375Y0144682D02*
X0233625Y0144682D01*
X0233625Y0139689D02*
X0234375Y0139689D01*
X0234375Y0138691D02*
X0233625Y0138691D01*
X0233625Y0137692D02*
X0234375Y0137692D01*
X0234375Y0136694D02*
X0233625Y0136694D01*
X0229250Y0138691D02*
X0225919Y0138691D01*
X0226250Y0139689D02*
X0229250Y0139689D01*
X0224250Y0146850D02*
X0224250Y0149850D01*
X0224250Y0146850D02*
X0219750Y0146850D01*
X0219750Y0149850D01*
X0224250Y0149850D01*
X0224250Y0147849D02*
X0219750Y0147849D01*
X0219750Y0148848D02*
X0224250Y0148848D01*
X0224250Y0149847D02*
X0219750Y0149847D01*
D20*
X0250047Y0176228D03*
X0218953Y0199850D03*
X0250047Y0223472D03*
X0305953Y0199850D03*
X0163047Y0176228D03*
X0163047Y0223472D03*
D21*
X0211079Y0223472D03*
X0211079Y0176228D03*
X0298079Y0176228D03*
X0298079Y0223472D03*
D22*
X0289700Y0244950D02*
X0289700Y0252750D01*
X0270000Y0252750D02*
X0270000Y0244950D01*
X0250300Y0244950D02*
X0250300Y0252750D01*
X0202700Y0252750D02*
X0202700Y0244950D01*
X0183000Y0244950D02*
X0183000Y0252750D01*
X0163300Y0252750D02*
X0163300Y0244950D01*
X0047900Y0247950D02*
X0047900Y0255750D01*
X0028100Y0255750D02*
X0028100Y0247950D01*
D23*
X0215000Y0148984D03*
X0215000Y0140716D03*
X0306000Y0141716D03*
X0306000Y0149984D03*
X0031000Y0066984D03*
X0031000Y0058716D03*
D24*
X0214000Y0037850D03*
X0224000Y0037850D03*
X0234000Y0037850D03*
X0244000Y0037850D03*
X0254000Y0037850D03*
X0264000Y0037850D03*
X0274000Y0037850D03*
X0284000Y0037850D03*
X0284000Y0127850D03*
X0274000Y0127850D03*
X0264000Y0127850D03*
X0254000Y0127850D03*
X0244000Y0127850D03*
X0234000Y0127850D03*
X0224000Y0127850D03*
X0214000Y0127850D03*
D25*
X0073315Y0083944D02*
X0073315Y0078007D01*
X0012685Y0078007D02*
X0012685Y0083944D01*
X0033157Y0193756D02*
X0033157Y0199693D01*
X0052843Y0199693D02*
X0052843Y0193756D01*
D26*
X0030000Y0222050D02*
X0030000Y0227650D01*
X0010000Y0228050D02*
X0010000Y0233650D01*
X0026200Y0047850D02*
X0031800Y0047850D01*
X0040200Y0047850D02*
X0045800Y0047850D01*
X0045800Y0037850D02*
X0040200Y0037850D01*
X0031800Y0037850D02*
X0026200Y0037850D01*
D27*
X0067000Y0236850D02*
X0073000Y0236850D01*
X0073000Y0256850D02*
X0067000Y0256850D01*
D28*
X0103161Y0082366D03*
X0105720Y0082366D03*
X0108280Y0082366D03*
X0110839Y0082366D03*
X0110839Y0059334D03*
X0108280Y0059334D03*
X0105720Y0059334D03*
X0103161Y0059334D03*
D29*
X0077000Y0219850D03*
X0037000Y0219850D03*
D30*
X0165000Y0043350D03*
X0170000Y0035850D03*
X0175000Y0043350D03*
D31*
X0110000Y0153350D03*
X0110000Y0168350D03*
X0110000Y0174350D03*
X0110000Y0189350D03*
X0088000Y0189350D03*
X0088000Y0174350D03*
X0088000Y0168350D03*
X0088000Y0153350D03*
D32*
X0087128Y0144147D02*
X0087128Y0137553D01*
X0085060Y0137553D01*
X0085060Y0144147D01*
X0087128Y0144147D01*
X0087128Y0139619D02*
X0085060Y0139619D01*
X0085060Y0141685D02*
X0087128Y0141685D01*
X0087128Y0143751D02*
X0085060Y0143751D01*
X0098940Y0144147D02*
X0098940Y0137553D01*
X0096872Y0137553D01*
X0096872Y0144147D01*
X0098940Y0144147D01*
X0098940Y0139619D02*
X0096872Y0139619D01*
X0096872Y0141685D02*
X0098940Y0141685D01*
X0098940Y0143751D02*
X0096872Y0143751D01*
D33*
X0091016Y0135933D02*
X0091016Y0133767D01*
X0091016Y0135933D02*
X0092984Y0135933D01*
X0092984Y0133767D01*
X0091016Y0133767D01*
X0091016Y0135735D02*
X0092984Y0135735D01*
D34*
X0145000Y0142850D03*
X0122000Y0181850D03*
X0169000Y0098850D03*
X0234000Y0140850D03*
X0294000Y0122850D03*
D35*
X0304000Y0122850D03*
X0264000Y0140850D03*
X0254000Y0140850D03*
X0244000Y0140850D03*
X0169000Y0088850D03*
X0169000Y0078850D03*
X0169000Y0068850D03*
X0135000Y0142850D03*
X0125000Y0142850D03*
X0115000Y0142850D03*
X0122000Y0161850D03*
X0122000Y0171850D03*
D36*
X0145000Y0172850D03*
X0145000Y0162850D03*
X0145000Y0212850D03*
X0145000Y0242850D03*
D37*
X0093000Y0111850D03*
X0089500Y0103850D03*
X0096500Y0103850D03*
D38*
X0111000Y0040850D03*
X0116000Y0040850D03*
X0121000Y0040850D03*
X0229000Y0058850D03*
X0229000Y0063850D03*
X0229000Y0068850D03*
D39*
X0223000Y0064850D03*
X0214000Y0061850D03*
X0214000Y0068850D03*
X0204000Y0079850D03*
X0199000Y0068850D03*
X0184000Y0082850D03*
X0179000Y0076850D03*
X0179000Y0088850D03*
X0179000Y0093850D03*
X0184000Y0093850D03*
X0189000Y0093850D03*
X0194000Y0093850D03*
X0199000Y0093850D03*
X0184000Y0103850D03*
X0179000Y0120850D03*
X0184000Y0128850D03*
X0175000Y0132850D03*
X0170000Y0123850D03*
X0154000Y0124850D03*
X0150000Y0121350D03*
X0131800Y0116650D03*
X0121000Y0116850D03*
X0113063Y0124850D03*
X0104000Y0114850D03*
X0093000Y0111850D03*
X0085000Y0114850D03*
X0125000Y0086850D03*
X0137000Y0092850D03*
X0149000Y0093850D03*
X0149000Y0089850D03*
X0149000Y0083850D03*
X0144000Y0070850D03*
X0144000Y0061850D03*
X0138000Y0056850D03*
X0136000Y0045850D03*
X0140000Y0040850D03*
X0154000Y0061850D03*
X0189000Y0037850D03*
X0235000Y0064850D03*
X0239000Y0064850D03*
X0255000Y0070850D03*
X0269000Y0061850D03*
X0282000Y0070850D03*
X0294000Y0064850D03*
X0294000Y0041850D03*
X0253000Y0083850D03*
X0249000Y0094850D03*
X0259000Y0094850D03*
X0289000Y0098850D03*
X0290000Y0159850D03*
X0199000Y0159850D03*
X0156000Y0142850D03*
X0133000Y0131850D03*
X0127000Y0155850D03*
X0112500Y0160850D03*
X0088000Y0153350D03*
X0088000Y0174350D03*
X0088000Y0189350D03*
X0112500Y0181850D03*
X0151000Y0103850D03*
X0155000Y0098850D03*
X0114500Y0071350D03*
X0114500Y0063850D03*
X0103161Y0064250D03*
X0089260Y0058850D03*
X0109000Y0034850D03*
D40*
X0111000Y0040850D03*
X0081000Y0041850D03*
X0081000Y0057850D03*
X0081000Y0079850D03*
X0170000Y0138850D03*
X0181000Y0138850D03*
X0181000Y0148850D03*
X0222000Y0156850D03*
X0313000Y0156850D03*
X0229000Y0068850D03*
D41*
X0189000Y0093850D02*
X0189000Y0102850D01*
X0194000Y0107850D01*
X0194000Y0112850D01*
X0222000Y0148350D02*
X0222000Y0156850D01*
X0222000Y0148350D02*
X0222500Y0148350D01*
X0226000Y0148850D01*
X0264000Y0148850D01*
X0264000Y0140850D01*
X0264000Y0148850D02*
X0273000Y0148850D01*
X0298079Y0173929D01*
X0298079Y0176228D01*
X0294000Y0122850D02*
X0294000Y0112850D01*
X0294000Y0103850D01*
X0289000Y0098850D01*
X0289000Y0042850D01*
X0284000Y0037850D01*
X0154000Y0061850D02*
X0144000Y0051850D01*
X0144000Y0044850D01*
X0140000Y0040850D01*
X0141000Y0067850D02*
X0129000Y0067850D01*
X0122000Y0067850D01*
X0108000Y0067850D01*
X0106000Y0067850D01*
X0090000Y0067850D01*
X0089000Y0067850D01*
X0075000Y0067850D01*
X0062000Y0054850D01*
X0057000Y0054850D01*
X0050000Y0042850D02*
X0057000Y0034850D01*
X0073000Y0034850D01*
X0073000Y0043850D01*
X0081000Y0041850D02*
X0081000Y0057850D01*
X0081000Y0079850D02*
X0081000Y0190850D01*
X0084000Y0193350D01*
X0128000Y0193350D01*
X0131000Y0190850D01*
X0131000Y0172850D01*
X0145000Y0172850D01*
X0131000Y0172850D02*
X0131000Y0163850D01*
X0137000Y0157850D01*
X0190701Y0157850D01*
X0209079Y0176228D01*
X0211079Y0176228D01*
X0144000Y0070850D02*
X0141000Y0067850D01*
X0109000Y0034850D02*
X0073000Y0034850D01*
X0050000Y0042850D02*
X0034000Y0042850D01*
X0029000Y0047850D01*
D42*
X0033157Y0196724D02*
X0033031Y0197850D01*
X0016000Y0197850D01*
X0010000Y0203850D01*
X0010000Y0230850D01*
X0010000Y0242850D01*
X0019000Y0251850D01*
X0028100Y0251850D01*
X0070000Y0236850D02*
X0070000Y0227850D01*
X0077000Y0219850D01*
X0145000Y0212850D02*
X0155378Y0223472D01*
X0163047Y0223472D01*
X0163300Y0223725D01*
X0163300Y0248850D01*
X0202700Y0248850D02*
X0219000Y0248850D01*
X0224000Y0243850D01*
X0224000Y0204897D01*
X0218953Y0199850D01*
X0250047Y0223472D02*
X0250300Y0223725D01*
X0250300Y0248850D01*
X0289700Y0248850D02*
X0306000Y0248850D01*
X0311000Y0243850D01*
X0311000Y0204897D01*
X0305953Y0199850D01*
D43*
X0229000Y0094850D03*
X0194000Y0060850D03*
M02*
