G75*
%MOIN*%
%OFA0B0*%
%FSLAX25Y25*%
%IPPOS*%
%LPD*%
%AMOC8*
5,1,8,0,0,1.08239X$1,22.5*
%
%ADD10C,0.00000*%
%ADD11R,0.05937X0.05937*%
%ADD12C,0.05937*%
%ADD13C,0.01260*%
%ADD14C,0.06300*%
%ADD15R,0.05000X0.10000*%
%ADD16R,0.03500X0.02400*%
%ADD17OC8,0.06300*%
%ADD18R,0.08600X0.08600*%
%ADD19C,0.07000*%
%ADD20C,0.01000*%
%ADD21R,0.04000X0.04500*%
%ADD22C,0.07800*%
%ADD23R,0.06000X0.06600*%
%ADD24C,0.07200*%
%ADD25C,0.05937*%
%ADD26C,0.05600*%
%ADD27C,0.06000*%
%ADD28R,0.05118X0.05906*%
%ADD29R,0.05000X0.09000*%
%ADD30R,0.14000X0.08500*%
%ADD31OC8,0.07600*%
%ADD32C,0.06000*%
%ADD33R,0.05906X0.05118*%
%ADD34R,0.04000X0.04000*%
%ADD35R,0.06500X0.06500*%
%ADD36C,0.06500*%
%ADD37OC8,0.05937*%
%ADD38C,0.03169*%
%ADD39R,0.03562X0.03562*%
%ADD40C,0.01600*%
%ADD41C,0.02400*%
%ADD42C,0.03200*%
%ADD43C,0.07600*%
%ADD44C,0.03562*%
D10*
X0002000Y0031850D02*
X0319000Y0031850D01*
X0319000Y0267850D01*
X0002000Y0267850D01*
X0002000Y0031850D01*
X0003701Y0039850D02*
X0003703Y0040008D01*
X0003709Y0040166D01*
X0003719Y0040324D01*
X0003733Y0040482D01*
X0003751Y0040639D01*
X0003772Y0040796D01*
X0003798Y0040952D01*
X0003828Y0041108D01*
X0003861Y0041263D01*
X0003899Y0041416D01*
X0003940Y0041569D01*
X0003985Y0041721D01*
X0004034Y0041872D01*
X0004087Y0042021D01*
X0004143Y0042169D01*
X0004203Y0042315D01*
X0004267Y0042460D01*
X0004335Y0042603D01*
X0004406Y0042745D01*
X0004480Y0042885D01*
X0004558Y0043022D01*
X0004640Y0043158D01*
X0004724Y0043292D01*
X0004813Y0043423D01*
X0004904Y0043552D01*
X0004999Y0043679D01*
X0005096Y0043804D01*
X0005197Y0043926D01*
X0005301Y0044045D01*
X0005408Y0044162D01*
X0005518Y0044276D01*
X0005631Y0044387D01*
X0005746Y0044496D01*
X0005864Y0044601D01*
X0005985Y0044703D01*
X0006108Y0044803D01*
X0006234Y0044899D01*
X0006362Y0044992D01*
X0006492Y0045082D01*
X0006625Y0045168D01*
X0006760Y0045252D01*
X0006896Y0045331D01*
X0007035Y0045408D01*
X0007176Y0045480D01*
X0007318Y0045550D01*
X0007462Y0045615D01*
X0007608Y0045677D01*
X0007755Y0045735D01*
X0007904Y0045790D01*
X0008054Y0045841D01*
X0008205Y0045888D01*
X0008357Y0045931D01*
X0008510Y0045970D01*
X0008665Y0046006D01*
X0008820Y0046037D01*
X0008976Y0046065D01*
X0009132Y0046089D01*
X0009289Y0046109D01*
X0009447Y0046125D01*
X0009604Y0046137D01*
X0009763Y0046145D01*
X0009921Y0046149D01*
X0010079Y0046149D01*
X0010237Y0046145D01*
X0010396Y0046137D01*
X0010553Y0046125D01*
X0010711Y0046109D01*
X0010868Y0046089D01*
X0011024Y0046065D01*
X0011180Y0046037D01*
X0011335Y0046006D01*
X0011490Y0045970D01*
X0011643Y0045931D01*
X0011795Y0045888D01*
X0011946Y0045841D01*
X0012096Y0045790D01*
X0012245Y0045735D01*
X0012392Y0045677D01*
X0012538Y0045615D01*
X0012682Y0045550D01*
X0012824Y0045480D01*
X0012965Y0045408D01*
X0013104Y0045331D01*
X0013240Y0045252D01*
X0013375Y0045168D01*
X0013508Y0045082D01*
X0013638Y0044992D01*
X0013766Y0044899D01*
X0013892Y0044803D01*
X0014015Y0044703D01*
X0014136Y0044601D01*
X0014254Y0044496D01*
X0014369Y0044387D01*
X0014482Y0044276D01*
X0014592Y0044162D01*
X0014699Y0044045D01*
X0014803Y0043926D01*
X0014904Y0043804D01*
X0015001Y0043679D01*
X0015096Y0043552D01*
X0015187Y0043423D01*
X0015276Y0043292D01*
X0015360Y0043158D01*
X0015442Y0043022D01*
X0015520Y0042885D01*
X0015594Y0042745D01*
X0015665Y0042603D01*
X0015733Y0042460D01*
X0015797Y0042315D01*
X0015857Y0042169D01*
X0015913Y0042021D01*
X0015966Y0041872D01*
X0016015Y0041721D01*
X0016060Y0041569D01*
X0016101Y0041416D01*
X0016139Y0041263D01*
X0016172Y0041108D01*
X0016202Y0040952D01*
X0016228Y0040796D01*
X0016249Y0040639D01*
X0016267Y0040482D01*
X0016281Y0040324D01*
X0016291Y0040166D01*
X0016297Y0040008D01*
X0016299Y0039850D01*
X0016297Y0039692D01*
X0016291Y0039534D01*
X0016281Y0039376D01*
X0016267Y0039218D01*
X0016249Y0039061D01*
X0016228Y0038904D01*
X0016202Y0038748D01*
X0016172Y0038592D01*
X0016139Y0038437D01*
X0016101Y0038284D01*
X0016060Y0038131D01*
X0016015Y0037979D01*
X0015966Y0037828D01*
X0015913Y0037679D01*
X0015857Y0037531D01*
X0015797Y0037385D01*
X0015733Y0037240D01*
X0015665Y0037097D01*
X0015594Y0036955D01*
X0015520Y0036815D01*
X0015442Y0036678D01*
X0015360Y0036542D01*
X0015276Y0036408D01*
X0015187Y0036277D01*
X0015096Y0036148D01*
X0015001Y0036021D01*
X0014904Y0035896D01*
X0014803Y0035774D01*
X0014699Y0035655D01*
X0014592Y0035538D01*
X0014482Y0035424D01*
X0014369Y0035313D01*
X0014254Y0035204D01*
X0014136Y0035099D01*
X0014015Y0034997D01*
X0013892Y0034897D01*
X0013766Y0034801D01*
X0013638Y0034708D01*
X0013508Y0034618D01*
X0013375Y0034532D01*
X0013240Y0034448D01*
X0013104Y0034369D01*
X0012965Y0034292D01*
X0012824Y0034220D01*
X0012682Y0034150D01*
X0012538Y0034085D01*
X0012392Y0034023D01*
X0012245Y0033965D01*
X0012096Y0033910D01*
X0011946Y0033859D01*
X0011795Y0033812D01*
X0011643Y0033769D01*
X0011490Y0033730D01*
X0011335Y0033694D01*
X0011180Y0033663D01*
X0011024Y0033635D01*
X0010868Y0033611D01*
X0010711Y0033591D01*
X0010553Y0033575D01*
X0010396Y0033563D01*
X0010237Y0033555D01*
X0010079Y0033551D01*
X0009921Y0033551D01*
X0009763Y0033555D01*
X0009604Y0033563D01*
X0009447Y0033575D01*
X0009289Y0033591D01*
X0009132Y0033611D01*
X0008976Y0033635D01*
X0008820Y0033663D01*
X0008665Y0033694D01*
X0008510Y0033730D01*
X0008357Y0033769D01*
X0008205Y0033812D01*
X0008054Y0033859D01*
X0007904Y0033910D01*
X0007755Y0033965D01*
X0007608Y0034023D01*
X0007462Y0034085D01*
X0007318Y0034150D01*
X0007176Y0034220D01*
X0007035Y0034292D01*
X0006896Y0034369D01*
X0006760Y0034448D01*
X0006625Y0034532D01*
X0006492Y0034618D01*
X0006362Y0034708D01*
X0006234Y0034801D01*
X0006108Y0034897D01*
X0005985Y0034997D01*
X0005864Y0035099D01*
X0005746Y0035204D01*
X0005631Y0035313D01*
X0005518Y0035424D01*
X0005408Y0035538D01*
X0005301Y0035655D01*
X0005197Y0035774D01*
X0005096Y0035896D01*
X0004999Y0036021D01*
X0004904Y0036148D01*
X0004813Y0036277D01*
X0004724Y0036408D01*
X0004640Y0036542D01*
X0004558Y0036678D01*
X0004480Y0036815D01*
X0004406Y0036955D01*
X0004335Y0037097D01*
X0004267Y0037240D01*
X0004203Y0037385D01*
X0004143Y0037531D01*
X0004087Y0037679D01*
X0004034Y0037828D01*
X0003985Y0037979D01*
X0003940Y0038131D01*
X0003899Y0038284D01*
X0003861Y0038437D01*
X0003828Y0038592D01*
X0003798Y0038748D01*
X0003772Y0038904D01*
X0003751Y0039061D01*
X0003733Y0039218D01*
X0003719Y0039376D01*
X0003709Y0039534D01*
X0003703Y0039692D01*
X0003701Y0039850D01*
X0150750Y0052850D02*
X0150752Y0052963D01*
X0150758Y0053077D01*
X0150768Y0053190D01*
X0150782Y0053302D01*
X0150799Y0053414D01*
X0150821Y0053526D01*
X0150847Y0053636D01*
X0150876Y0053746D01*
X0150909Y0053854D01*
X0150946Y0053962D01*
X0150987Y0054067D01*
X0151031Y0054172D01*
X0151079Y0054275D01*
X0151130Y0054376D01*
X0151185Y0054475D01*
X0151244Y0054572D01*
X0151306Y0054667D01*
X0151371Y0054760D01*
X0151439Y0054851D01*
X0151510Y0054939D01*
X0151585Y0055025D01*
X0151662Y0055108D01*
X0151742Y0055188D01*
X0151825Y0055265D01*
X0151911Y0055340D01*
X0151999Y0055411D01*
X0152090Y0055479D01*
X0152183Y0055544D01*
X0152278Y0055606D01*
X0152375Y0055665D01*
X0152474Y0055720D01*
X0152575Y0055771D01*
X0152678Y0055819D01*
X0152783Y0055863D01*
X0152888Y0055904D01*
X0152996Y0055941D01*
X0153104Y0055974D01*
X0153214Y0056003D01*
X0153324Y0056029D01*
X0153436Y0056051D01*
X0153548Y0056068D01*
X0153660Y0056082D01*
X0153773Y0056092D01*
X0153887Y0056098D01*
X0154000Y0056100D01*
X0154113Y0056098D01*
X0154227Y0056092D01*
X0154340Y0056082D01*
X0154452Y0056068D01*
X0154564Y0056051D01*
X0154676Y0056029D01*
X0154786Y0056003D01*
X0154896Y0055974D01*
X0155004Y0055941D01*
X0155112Y0055904D01*
X0155217Y0055863D01*
X0155322Y0055819D01*
X0155425Y0055771D01*
X0155526Y0055720D01*
X0155625Y0055665D01*
X0155722Y0055606D01*
X0155817Y0055544D01*
X0155910Y0055479D01*
X0156001Y0055411D01*
X0156089Y0055340D01*
X0156175Y0055265D01*
X0156258Y0055188D01*
X0156338Y0055108D01*
X0156415Y0055025D01*
X0156490Y0054939D01*
X0156561Y0054851D01*
X0156629Y0054760D01*
X0156694Y0054667D01*
X0156756Y0054572D01*
X0156815Y0054475D01*
X0156870Y0054376D01*
X0156921Y0054275D01*
X0156969Y0054172D01*
X0157013Y0054067D01*
X0157054Y0053962D01*
X0157091Y0053854D01*
X0157124Y0053746D01*
X0157153Y0053636D01*
X0157179Y0053526D01*
X0157201Y0053414D01*
X0157218Y0053302D01*
X0157232Y0053190D01*
X0157242Y0053077D01*
X0157248Y0052963D01*
X0157250Y0052850D01*
X0157248Y0052737D01*
X0157242Y0052623D01*
X0157232Y0052510D01*
X0157218Y0052398D01*
X0157201Y0052286D01*
X0157179Y0052174D01*
X0157153Y0052064D01*
X0157124Y0051954D01*
X0157091Y0051846D01*
X0157054Y0051738D01*
X0157013Y0051633D01*
X0156969Y0051528D01*
X0156921Y0051425D01*
X0156870Y0051324D01*
X0156815Y0051225D01*
X0156756Y0051128D01*
X0156694Y0051033D01*
X0156629Y0050940D01*
X0156561Y0050849D01*
X0156490Y0050761D01*
X0156415Y0050675D01*
X0156338Y0050592D01*
X0156258Y0050512D01*
X0156175Y0050435D01*
X0156089Y0050360D01*
X0156001Y0050289D01*
X0155910Y0050221D01*
X0155817Y0050156D01*
X0155722Y0050094D01*
X0155625Y0050035D01*
X0155526Y0049980D01*
X0155425Y0049929D01*
X0155322Y0049881D01*
X0155217Y0049837D01*
X0155112Y0049796D01*
X0155004Y0049759D01*
X0154896Y0049726D01*
X0154786Y0049697D01*
X0154676Y0049671D01*
X0154564Y0049649D01*
X0154452Y0049632D01*
X0154340Y0049618D01*
X0154227Y0049608D01*
X0154113Y0049602D01*
X0154000Y0049600D01*
X0153887Y0049602D01*
X0153773Y0049608D01*
X0153660Y0049618D01*
X0153548Y0049632D01*
X0153436Y0049649D01*
X0153324Y0049671D01*
X0153214Y0049697D01*
X0153104Y0049726D01*
X0152996Y0049759D01*
X0152888Y0049796D01*
X0152783Y0049837D01*
X0152678Y0049881D01*
X0152575Y0049929D01*
X0152474Y0049980D01*
X0152375Y0050035D01*
X0152278Y0050094D01*
X0152183Y0050156D01*
X0152090Y0050221D01*
X0151999Y0050289D01*
X0151911Y0050360D01*
X0151825Y0050435D01*
X0151742Y0050512D01*
X0151662Y0050592D01*
X0151585Y0050675D01*
X0151510Y0050761D01*
X0151439Y0050849D01*
X0151371Y0050940D01*
X0151306Y0051033D01*
X0151244Y0051128D01*
X0151185Y0051225D01*
X0151130Y0051324D01*
X0151079Y0051425D01*
X0151031Y0051528D01*
X0150987Y0051633D01*
X0150946Y0051738D01*
X0150909Y0051846D01*
X0150876Y0051954D01*
X0150847Y0052064D01*
X0150821Y0052174D01*
X0150799Y0052286D01*
X0150782Y0052398D01*
X0150768Y0052510D01*
X0150758Y0052623D01*
X0150752Y0052737D01*
X0150750Y0052850D01*
X0150750Y0112850D02*
X0150752Y0112963D01*
X0150758Y0113077D01*
X0150768Y0113190D01*
X0150782Y0113302D01*
X0150799Y0113414D01*
X0150821Y0113526D01*
X0150847Y0113636D01*
X0150876Y0113746D01*
X0150909Y0113854D01*
X0150946Y0113962D01*
X0150987Y0114067D01*
X0151031Y0114172D01*
X0151079Y0114275D01*
X0151130Y0114376D01*
X0151185Y0114475D01*
X0151244Y0114572D01*
X0151306Y0114667D01*
X0151371Y0114760D01*
X0151439Y0114851D01*
X0151510Y0114939D01*
X0151585Y0115025D01*
X0151662Y0115108D01*
X0151742Y0115188D01*
X0151825Y0115265D01*
X0151911Y0115340D01*
X0151999Y0115411D01*
X0152090Y0115479D01*
X0152183Y0115544D01*
X0152278Y0115606D01*
X0152375Y0115665D01*
X0152474Y0115720D01*
X0152575Y0115771D01*
X0152678Y0115819D01*
X0152783Y0115863D01*
X0152888Y0115904D01*
X0152996Y0115941D01*
X0153104Y0115974D01*
X0153214Y0116003D01*
X0153324Y0116029D01*
X0153436Y0116051D01*
X0153548Y0116068D01*
X0153660Y0116082D01*
X0153773Y0116092D01*
X0153887Y0116098D01*
X0154000Y0116100D01*
X0154113Y0116098D01*
X0154227Y0116092D01*
X0154340Y0116082D01*
X0154452Y0116068D01*
X0154564Y0116051D01*
X0154676Y0116029D01*
X0154786Y0116003D01*
X0154896Y0115974D01*
X0155004Y0115941D01*
X0155112Y0115904D01*
X0155217Y0115863D01*
X0155322Y0115819D01*
X0155425Y0115771D01*
X0155526Y0115720D01*
X0155625Y0115665D01*
X0155722Y0115606D01*
X0155817Y0115544D01*
X0155910Y0115479D01*
X0156001Y0115411D01*
X0156089Y0115340D01*
X0156175Y0115265D01*
X0156258Y0115188D01*
X0156338Y0115108D01*
X0156415Y0115025D01*
X0156490Y0114939D01*
X0156561Y0114851D01*
X0156629Y0114760D01*
X0156694Y0114667D01*
X0156756Y0114572D01*
X0156815Y0114475D01*
X0156870Y0114376D01*
X0156921Y0114275D01*
X0156969Y0114172D01*
X0157013Y0114067D01*
X0157054Y0113962D01*
X0157091Y0113854D01*
X0157124Y0113746D01*
X0157153Y0113636D01*
X0157179Y0113526D01*
X0157201Y0113414D01*
X0157218Y0113302D01*
X0157232Y0113190D01*
X0157242Y0113077D01*
X0157248Y0112963D01*
X0157250Y0112850D01*
X0157248Y0112737D01*
X0157242Y0112623D01*
X0157232Y0112510D01*
X0157218Y0112398D01*
X0157201Y0112286D01*
X0157179Y0112174D01*
X0157153Y0112064D01*
X0157124Y0111954D01*
X0157091Y0111846D01*
X0157054Y0111738D01*
X0157013Y0111633D01*
X0156969Y0111528D01*
X0156921Y0111425D01*
X0156870Y0111324D01*
X0156815Y0111225D01*
X0156756Y0111128D01*
X0156694Y0111033D01*
X0156629Y0110940D01*
X0156561Y0110849D01*
X0156490Y0110761D01*
X0156415Y0110675D01*
X0156338Y0110592D01*
X0156258Y0110512D01*
X0156175Y0110435D01*
X0156089Y0110360D01*
X0156001Y0110289D01*
X0155910Y0110221D01*
X0155817Y0110156D01*
X0155722Y0110094D01*
X0155625Y0110035D01*
X0155526Y0109980D01*
X0155425Y0109929D01*
X0155322Y0109881D01*
X0155217Y0109837D01*
X0155112Y0109796D01*
X0155004Y0109759D01*
X0154896Y0109726D01*
X0154786Y0109697D01*
X0154676Y0109671D01*
X0154564Y0109649D01*
X0154452Y0109632D01*
X0154340Y0109618D01*
X0154227Y0109608D01*
X0154113Y0109602D01*
X0154000Y0109600D01*
X0153887Y0109602D01*
X0153773Y0109608D01*
X0153660Y0109618D01*
X0153548Y0109632D01*
X0153436Y0109649D01*
X0153324Y0109671D01*
X0153214Y0109697D01*
X0153104Y0109726D01*
X0152996Y0109759D01*
X0152888Y0109796D01*
X0152783Y0109837D01*
X0152678Y0109881D01*
X0152575Y0109929D01*
X0152474Y0109980D01*
X0152375Y0110035D01*
X0152278Y0110094D01*
X0152183Y0110156D01*
X0152090Y0110221D01*
X0151999Y0110289D01*
X0151911Y0110360D01*
X0151825Y0110435D01*
X0151742Y0110512D01*
X0151662Y0110592D01*
X0151585Y0110675D01*
X0151510Y0110761D01*
X0151439Y0110849D01*
X0151371Y0110940D01*
X0151306Y0111033D01*
X0151244Y0111128D01*
X0151185Y0111225D01*
X0151130Y0111324D01*
X0151079Y0111425D01*
X0151031Y0111528D01*
X0150987Y0111633D01*
X0150946Y0111738D01*
X0150909Y0111846D01*
X0150876Y0111954D01*
X0150847Y0112064D01*
X0150821Y0112174D01*
X0150799Y0112286D01*
X0150782Y0112398D01*
X0150768Y0112510D01*
X0150758Y0112623D01*
X0150752Y0112737D01*
X0150750Y0112850D01*
X0304701Y0129850D02*
X0304703Y0130008D01*
X0304709Y0130166D01*
X0304719Y0130324D01*
X0304733Y0130482D01*
X0304751Y0130639D01*
X0304772Y0130796D01*
X0304798Y0130952D01*
X0304828Y0131108D01*
X0304861Y0131263D01*
X0304899Y0131416D01*
X0304940Y0131569D01*
X0304985Y0131721D01*
X0305034Y0131872D01*
X0305087Y0132021D01*
X0305143Y0132169D01*
X0305203Y0132315D01*
X0305267Y0132460D01*
X0305335Y0132603D01*
X0305406Y0132745D01*
X0305480Y0132885D01*
X0305558Y0133022D01*
X0305640Y0133158D01*
X0305724Y0133292D01*
X0305813Y0133423D01*
X0305904Y0133552D01*
X0305999Y0133679D01*
X0306096Y0133804D01*
X0306197Y0133926D01*
X0306301Y0134045D01*
X0306408Y0134162D01*
X0306518Y0134276D01*
X0306631Y0134387D01*
X0306746Y0134496D01*
X0306864Y0134601D01*
X0306985Y0134703D01*
X0307108Y0134803D01*
X0307234Y0134899D01*
X0307362Y0134992D01*
X0307492Y0135082D01*
X0307625Y0135168D01*
X0307760Y0135252D01*
X0307896Y0135331D01*
X0308035Y0135408D01*
X0308176Y0135480D01*
X0308318Y0135550D01*
X0308462Y0135615D01*
X0308608Y0135677D01*
X0308755Y0135735D01*
X0308904Y0135790D01*
X0309054Y0135841D01*
X0309205Y0135888D01*
X0309357Y0135931D01*
X0309510Y0135970D01*
X0309665Y0136006D01*
X0309820Y0136037D01*
X0309976Y0136065D01*
X0310132Y0136089D01*
X0310289Y0136109D01*
X0310447Y0136125D01*
X0310604Y0136137D01*
X0310763Y0136145D01*
X0310921Y0136149D01*
X0311079Y0136149D01*
X0311237Y0136145D01*
X0311396Y0136137D01*
X0311553Y0136125D01*
X0311711Y0136109D01*
X0311868Y0136089D01*
X0312024Y0136065D01*
X0312180Y0136037D01*
X0312335Y0136006D01*
X0312490Y0135970D01*
X0312643Y0135931D01*
X0312795Y0135888D01*
X0312946Y0135841D01*
X0313096Y0135790D01*
X0313245Y0135735D01*
X0313392Y0135677D01*
X0313538Y0135615D01*
X0313682Y0135550D01*
X0313824Y0135480D01*
X0313965Y0135408D01*
X0314104Y0135331D01*
X0314240Y0135252D01*
X0314375Y0135168D01*
X0314508Y0135082D01*
X0314638Y0134992D01*
X0314766Y0134899D01*
X0314892Y0134803D01*
X0315015Y0134703D01*
X0315136Y0134601D01*
X0315254Y0134496D01*
X0315369Y0134387D01*
X0315482Y0134276D01*
X0315592Y0134162D01*
X0315699Y0134045D01*
X0315803Y0133926D01*
X0315904Y0133804D01*
X0316001Y0133679D01*
X0316096Y0133552D01*
X0316187Y0133423D01*
X0316276Y0133292D01*
X0316360Y0133158D01*
X0316442Y0133022D01*
X0316520Y0132885D01*
X0316594Y0132745D01*
X0316665Y0132603D01*
X0316733Y0132460D01*
X0316797Y0132315D01*
X0316857Y0132169D01*
X0316913Y0132021D01*
X0316966Y0131872D01*
X0317015Y0131721D01*
X0317060Y0131569D01*
X0317101Y0131416D01*
X0317139Y0131263D01*
X0317172Y0131108D01*
X0317202Y0130952D01*
X0317228Y0130796D01*
X0317249Y0130639D01*
X0317267Y0130482D01*
X0317281Y0130324D01*
X0317291Y0130166D01*
X0317297Y0130008D01*
X0317299Y0129850D01*
X0317297Y0129692D01*
X0317291Y0129534D01*
X0317281Y0129376D01*
X0317267Y0129218D01*
X0317249Y0129061D01*
X0317228Y0128904D01*
X0317202Y0128748D01*
X0317172Y0128592D01*
X0317139Y0128437D01*
X0317101Y0128284D01*
X0317060Y0128131D01*
X0317015Y0127979D01*
X0316966Y0127828D01*
X0316913Y0127679D01*
X0316857Y0127531D01*
X0316797Y0127385D01*
X0316733Y0127240D01*
X0316665Y0127097D01*
X0316594Y0126955D01*
X0316520Y0126815D01*
X0316442Y0126678D01*
X0316360Y0126542D01*
X0316276Y0126408D01*
X0316187Y0126277D01*
X0316096Y0126148D01*
X0316001Y0126021D01*
X0315904Y0125896D01*
X0315803Y0125774D01*
X0315699Y0125655D01*
X0315592Y0125538D01*
X0315482Y0125424D01*
X0315369Y0125313D01*
X0315254Y0125204D01*
X0315136Y0125099D01*
X0315015Y0124997D01*
X0314892Y0124897D01*
X0314766Y0124801D01*
X0314638Y0124708D01*
X0314508Y0124618D01*
X0314375Y0124532D01*
X0314240Y0124448D01*
X0314104Y0124369D01*
X0313965Y0124292D01*
X0313824Y0124220D01*
X0313682Y0124150D01*
X0313538Y0124085D01*
X0313392Y0124023D01*
X0313245Y0123965D01*
X0313096Y0123910D01*
X0312946Y0123859D01*
X0312795Y0123812D01*
X0312643Y0123769D01*
X0312490Y0123730D01*
X0312335Y0123694D01*
X0312180Y0123663D01*
X0312024Y0123635D01*
X0311868Y0123611D01*
X0311711Y0123591D01*
X0311553Y0123575D01*
X0311396Y0123563D01*
X0311237Y0123555D01*
X0311079Y0123551D01*
X0310921Y0123551D01*
X0310763Y0123555D01*
X0310604Y0123563D01*
X0310447Y0123575D01*
X0310289Y0123591D01*
X0310132Y0123611D01*
X0309976Y0123635D01*
X0309820Y0123663D01*
X0309665Y0123694D01*
X0309510Y0123730D01*
X0309357Y0123769D01*
X0309205Y0123812D01*
X0309054Y0123859D01*
X0308904Y0123910D01*
X0308755Y0123965D01*
X0308608Y0124023D01*
X0308462Y0124085D01*
X0308318Y0124150D01*
X0308176Y0124220D01*
X0308035Y0124292D01*
X0307896Y0124369D01*
X0307760Y0124448D01*
X0307625Y0124532D01*
X0307492Y0124618D01*
X0307362Y0124708D01*
X0307234Y0124801D01*
X0307108Y0124897D01*
X0306985Y0124997D01*
X0306864Y0125099D01*
X0306746Y0125204D01*
X0306631Y0125313D01*
X0306518Y0125424D01*
X0306408Y0125538D01*
X0306301Y0125655D01*
X0306197Y0125774D01*
X0306096Y0125896D01*
X0305999Y0126021D01*
X0305904Y0126148D01*
X0305813Y0126277D01*
X0305724Y0126408D01*
X0305640Y0126542D01*
X0305558Y0126678D01*
X0305480Y0126815D01*
X0305406Y0126955D01*
X0305335Y0127097D01*
X0305267Y0127240D01*
X0305203Y0127385D01*
X0305143Y0127531D01*
X0305087Y0127679D01*
X0305034Y0127828D01*
X0304985Y0127979D01*
X0304940Y0128131D01*
X0304899Y0128284D01*
X0304861Y0128437D01*
X0304828Y0128592D01*
X0304798Y0128748D01*
X0304772Y0128904D01*
X0304751Y0129061D01*
X0304733Y0129218D01*
X0304719Y0129376D01*
X0304709Y0129534D01*
X0304703Y0129692D01*
X0304701Y0129850D01*
X0310750Y0112850D02*
X0310752Y0112963D01*
X0310758Y0113077D01*
X0310768Y0113190D01*
X0310782Y0113302D01*
X0310799Y0113414D01*
X0310821Y0113526D01*
X0310847Y0113636D01*
X0310876Y0113746D01*
X0310909Y0113854D01*
X0310946Y0113962D01*
X0310987Y0114067D01*
X0311031Y0114172D01*
X0311079Y0114275D01*
X0311130Y0114376D01*
X0311185Y0114475D01*
X0311244Y0114572D01*
X0311306Y0114667D01*
X0311371Y0114760D01*
X0311439Y0114851D01*
X0311510Y0114939D01*
X0311585Y0115025D01*
X0311662Y0115108D01*
X0311742Y0115188D01*
X0311825Y0115265D01*
X0311911Y0115340D01*
X0311999Y0115411D01*
X0312090Y0115479D01*
X0312183Y0115544D01*
X0312278Y0115606D01*
X0312375Y0115665D01*
X0312474Y0115720D01*
X0312575Y0115771D01*
X0312678Y0115819D01*
X0312783Y0115863D01*
X0312888Y0115904D01*
X0312996Y0115941D01*
X0313104Y0115974D01*
X0313214Y0116003D01*
X0313324Y0116029D01*
X0313436Y0116051D01*
X0313548Y0116068D01*
X0313660Y0116082D01*
X0313773Y0116092D01*
X0313887Y0116098D01*
X0314000Y0116100D01*
X0314113Y0116098D01*
X0314227Y0116092D01*
X0314340Y0116082D01*
X0314452Y0116068D01*
X0314564Y0116051D01*
X0314676Y0116029D01*
X0314786Y0116003D01*
X0314896Y0115974D01*
X0315004Y0115941D01*
X0315112Y0115904D01*
X0315217Y0115863D01*
X0315322Y0115819D01*
X0315425Y0115771D01*
X0315526Y0115720D01*
X0315625Y0115665D01*
X0315722Y0115606D01*
X0315817Y0115544D01*
X0315910Y0115479D01*
X0316001Y0115411D01*
X0316089Y0115340D01*
X0316175Y0115265D01*
X0316258Y0115188D01*
X0316338Y0115108D01*
X0316415Y0115025D01*
X0316490Y0114939D01*
X0316561Y0114851D01*
X0316629Y0114760D01*
X0316694Y0114667D01*
X0316756Y0114572D01*
X0316815Y0114475D01*
X0316870Y0114376D01*
X0316921Y0114275D01*
X0316969Y0114172D01*
X0317013Y0114067D01*
X0317054Y0113962D01*
X0317091Y0113854D01*
X0317124Y0113746D01*
X0317153Y0113636D01*
X0317179Y0113526D01*
X0317201Y0113414D01*
X0317218Y0113302D01*
X0317232Y0113190D01*
X0317242Y0113077D01*
X0317248Y0112963D01*
X0317250Y0112850D01*
X0317248Y0112737D01*
X0317242Y0112623D01*
X0317232Y0112510D01*
X0317218Y0112398D01*
X0317201Y0112286D01*
X0317179Y0112174D01*
X0317153Y0112064D01*
X0317124Y0111954D01*
X0317091Y0111846D01*
X0317054Y0111738D01*
X0317013Y0111633D01*
X0316969Y0111528D01*
X0316921Y0111425D01*
X0316870Y0111324D01*
X0316815Y0111225D01*
X0316756Y0111128D01*
X0316694Y0111033D01*
X0316629Y0110940D01*
X0316561Y0110849D01*
X0316490Y0110761D01*
X0316415Y0110675D01*
X0316338Y0110592D01*
X0316258Y0110512D01*
X0316175Y0110435D01*
X0316089Y0110360D01*
X0316001Y0110289D01*
X0315910Y0110221D01*
X0315817Y0110156D01*
X0315722Y0110094D01*
X0315625Y0110035D01*
X0315526Y0109980D01*
X0315425Y0109929D01*
X0315322Y0109881D01*
X0315217Y0109837D01*
X0315112Y0109796D01*
X0315004Y0109759D01*
X0314896Y0109726D01*
X0314786Y0109697D01*
X0314676Y0109671D01*
X0314564Y0109649D01*
X0314452Y0109632D01*
X0314340Y0109618D01*
X0314227Y0109608D01*
X0314113Y0109602D01*
X0314000Y0109600D01*
X0313887Y0109602D01*
X0313773Y0109608D01*
X0313660Y0109618D01*
X0313548Y0109632D01*
X0313436Y0109649D01*
X0313324Y0109671D01*
X0313214Y0109697D01*
X0313104Y0109726D01*
X0312996Y0109759D01*
X0312888Y0109796D01*
X0312783Y0109837D01*
X0312678Y0109881D01*
X0312575Y0109929D01*
X0312474Y0109980D01*
X0312375Y0110035D01*
X0312278Y0110094D01*
X0312183Y0110156D01*
X0312090Y0110221D01*
X0311999Y0110289D01*
X0311911Y0110360D01*
X0311825Y0110435D01*
X0311742Y0110512D01*
X0311662Y0110592D01*
X0311585Y0110675D01*
X0311510Y0110761D01*
X0311439Y0110849D01*
X0311371Y0110940D01*
X0311306Y0111033D01*
X0311244Y0111128D01*
X0311185Y0111225D01*
X0311130Y0111324D01*
X0311079Y0111425D01*
X0311031Y0111528D01*
X0310987Y0111633D01*
X0310946Y0111738D01*
X0310909Y0111846D01*
X0310876Y0111954D01*
X0310847Y0112064D01*
X0310821Y0112174D01*
X0310799Y0112286D01*
X0310782Y0112398D01*
X0310768Y0112510D01*
X0310758Y0112623D01*
X0310752Y0112737D01*
X0310750Y0112850D01*
X0310750Y0052850D02*
X0310752Y0052963D01*
X0310758Y0053077D01*
X0310768Y0053190D01*
X0310782Y0053302D01*
X0310799Y0053414D01*
X0310821Y0053526D01*
X0310847Y0053636D01*
X0310876Y0053746D01*
X0310909Y0053854D01*
X0310946Y0053962D01*
X0310987Y0054067D01*
X0311031Y0054172D01*
X0311079Y0054275D01*
X0311130Y0054376D01*
X0311185Y0054475D01*
X0311244Y0054572D01*
X0311306Y0054667D01*
X0311371Y0054760D01*
X0311439Y0054851D01*
X0311510Y0054939D01*
X0311585Y0055025D01*
X0311662Y0055108D01*
X0311742Y0055188D01*
X0311825Y0055265D01*
X0311911Y0055340D01*
X0311999Y0055411D01*
X0312090Y0055479D01*
X0312183Y0055544D01*
X0312278Y0055606D01*
X0312375Y0055665D01*
X0312474Y0055720D01*
X0312575Y0055771D01*
X0312678Y0055819D01*
X0312783Y0055863D01*
X0312888Y0055904D01*
X0312996Y0055941D01*
X0313104Y0055974D01*
X0313214Y0056003D01*
X0313324Y0056029D01*
X0313436Y0056051D01*
X0313548Y0056068D01*
X0313660Y0056082D01*
X0313773Y0056092D01*
X0313887Y0056098D01*
X0314000Y0056100D01*
X0314113Y0056098D01*
X0314227Y0056092D01*
X0314340Y0056082D01*
X0314452Y0056068D01*
X0314564Y0056051D01*
X0314676Y0056029D01*
X0314786Y0056003D01*
X0314896Y0055974D01*
X0315004Y0055941D01*
X0315112Y0055904D01*
X0315217Y0055863D01*
X0315322Y0055819D01*
X0315425Y0055771D01*
X0315526Y0055720D01*
X0315625Y0055665D01*
X0315722Y0055606D01*
X0315817Y0055544D01*
X0315910Y0055479D01*
X0316001Y0055411D01*
X0316089Y0055340D01*
X0316175Y0055265D01*
X0316258Y0055188D01*
X0316338Y0055108D01*
X0316415Y0055025D01*
X0316490Y0054939D01*
X0316561Y0054851D01*
X0316629Y0054760D01*
X0316694Y0054667D01*
X0316756Y0054572D01*
X0316815Y0054475D01*
X0316870Y0054376D01*
X0316921Y0054275D01*
X0316969Y0054172D01*
X0317013Y0054067D01*
X0317054Y0053962D01*
X0317091Y0053854D01*
X0317124Y0053746D01*
X0317153Y0053636D01*
X0317179Y0053526D01*
X0317201Y0053414D01*
X0317218Y0053302D01*
X0317232Y0053190D01*
X0317242Y0053077D01*
X0317248Y0052963D01*
X0317250Y0052850D01*
X0317248Y0052737D01*
X0317242Y0052623D01*
X0317232Y0052510D01*
X0317218Y0052398D01*
X0317201Y0052286D01*
X0317179Y0052174D01*
X0317153Y0052064D01*
X0317124Y0051954D01*
X0317091Y0051846D01*
X0317054Y0051738D01*
X0317013Y0051633D01*
X0316969Y0051528D01*
X0316921Y0051425D01*
X0316870Y0051324D01*
X0316815Y0051225D01*
X0316756Y0051128D01*
X0316694Y0051033D01*
X0316629Y0050940D01*
X0316561Y0050849D01*
X0316490Y0050761D01*
X0316415Y0050675D01*
X0316338Y0050592D01*
X0316258Y0050512D01*
X0316175Y0050435D01*
X0316089Y0050360D01*
X0316001Y0050289D01*
X0315910Y0050221D01*
X0315817Y0050156D01*
X0315722Y0050094D01*
X0315625Y0050035D01*
X0315526Y0049980D01*
X0315425Y0049929D01*
X0315322Y0049881D01*
X0315217Y0049837D01*
X0315112Y0049796D01*
X0315004Y0049759D01*
X0314896Y0049726D01*
X0314786Y0049697D01*
X0314676Y0049671D01*
X0314564Y0049649D01*
X0314452Y0049632D01*
X0314340Y0049618D01*
X0314227Y0049608D01*
X0314113Y0049602D01*
X0314000Y0049600D01*
X0313887Y0049602D01*
X0313773Y0049608D01*
X0313660Y0049618D01*
X0313548Y0049632D01*
X0313436Y0049649D01*
X0313324Y0049671D01*
X0313214Y0049697D01*
X0313104Y0049726D01*
X0312996Y0049759D01*
X0312888Y0049796D01*
X0312783Y0049837D01*
X0312678Y0049881D01*
X0312575Y0049929D01*
X0312474Y0049980D01*
X0312375Y0050035D01*
X0312278Y0050094D01*
X0312183Y0050156D01*
X0312090Y0050221D01*
X0311999Y0050289D01*
X0311911Y0050360D01*
X0311825Y0050435D01*
X0311742Y0050512D01*
X0311662Y0050592D01*
X0311585Y0050675D01*
X0311510Y0050761D01*
X0311439Y0050849D01*
X0311371Y0050940D01*
X0311306Y0051033D01*
X0311244Y0051128D01*
X0311185Y0051225D01*
X0311130Y0051324D01*
X0311079Y0051425D01*
X0311031Y0051528D01*
X0310987Y0051633D01*
X0310946Y0051738D01*
X0310909Y0051846D01*
X0310876Y0051954D01*
X0310847Y0052064D01*
X0310821Y0052174D01*
X0310799Y0052286D01*
X0310782Y0052398D01*
X0310768Y0052510D01*
X0310758Y0052623D01*
X0310752Y0052737D01*
X0310750Y0052850D01*
X0304701Y0039850D02*
X0304703Y0040008D01*
X0304709Y0040166D01*
X0304719Y0040324D01*
X0304733Y0040482D01*
X0304751Y0040639D01*
X0304772Y0040796D01*
X0304798Y0040952D01*
X0304828Y0041108D01*
X0304861Y0041263D01*
X0304899Y0041416D01*
X0304940Y0041569D01*
X0304985Y0041721D01*
X0305034Y0041872D01*
X0305087Y0042021D01*
X0305143Y0042169D01*
X0305203Y0042315D01*
X0305267Y0042460D01*
X0305335Y0042603D01*
X0305406Y0042745D01*
X0305480Y0042885D01*
X0305558Y0043022D01*
X0305640Y0043158D01*
X0305724Y0043292D01*
X0305813Y0043423D01*
X0305904Y0043552D01*
X0305999Y0043679D01*
X0306096Y0043804D01*
X0306197Y0043926D01*
X0306301Y0044045D01*
X0306408Y0044162D01*
X0306518Y0044276D01*
X0306631Y0044387D01*
X0306746Y0044496D01*
X0306864Y0044601D01*
X0306985Y0044703D01*
X0307108Y0044803D01*
X0307234Y0044899D01*
X0307362Y0044992D01*
X0307492Y0045082D01*
X0307625Y0045168D01*
X0307760Y0045252D01*
X0307896Y0045331D01*
X0308035Y0045408D01*
X0308176Y0045480D01*
X0308318Y0045550D01*
X0308462Y0045615D01*
X0308608Y0045677D01*
X0308755Y0045735D01*
X0308904Y0045790D01*
X0309054Y0045841D01*
X0309205Y0045888D01*
X0309357Y0045931D01*
X0309510Y0045970D01*
X0309665Y0046006D01*
X0309820Y0046037D01*
X0309976Y0046065D01*
X0310132Y0046089D01*
X0310289Y0046109D01*
X0310447Y0046125D01*
X0310604Y0046137D01*
X0310763Y0046145D01*
X0310921Y0046149D01*
X0311079Y0046149D01*
X0311237Y0046145D01*
X0311396Y0046137D01*
X0311553Y0046125D01*
X0311711Y0046109D01*
X0311868Y0046089D01*
X0312024Y0046065D01*
X0312180Y0046037D01*
X0312335Y0046006D01*
X0312490Y0045970D01*
X0312643Y0045931D01*
X0312795Y0045888D01*
X0312946Y0045841D01*
X0313096Y0045790D01*
X0313245Y0045735D01*
X0313392Y0045677D01*
X0313538Y0045615D01*
X0313682Y0045550D01*
X0313824Y0045480D01*
X0313965Y0045408D01*
X0314104Y0045331D01*
X0314240Y0045252D01*
X0314375Y0045168D01*
X0314508Y0045082D01*
X0314638Y0044992D01*
X0314766Y0044899D01*
X0314892Y0044803D01*
X0315015Y0044703D01*
X0315136Y0044601D01*
X0315254Y0044496D01*
X0315369Y0044387D01*
X0315482Y0044276D01*
X0315592Y0044162D01*
X0315699Y0044045D01*
X0315803Y0043926D01*
X0315904Y0043804D01*
X0316001Y0043679D01*
X0316096Y0043552D01*
X0316187Y0043423D01*
X0316276Y0043292D01*
X0316360Y0043158D01*
X0316442Y0043022D01*
X0316520Y0042885D01*
X0316594Y0042745D01*
X0316665Y0042603D01*
X0316733Y0042460D01*
X0316797Y0042315D01*
X0316857Y0042169D01*
X0316913Y0042021D01*
X0316966Y0041872D01*
X0317015Y0041721D01*
X0317060Y0041569D01*
X0317101Y0041416D01*
X0317139Y0041263D01*
X0317172Y0041108D01*
X0317202Y0040952D01*
X0317228Y0040796D01*
X0317249Y0040639D01*
X0317267Y0040482D01*
X0317281Y0040324D01*
X0317291Y0040166D01*
X0317297Y0040008D01*
X0317299Y0039850D01*
X0317297Y0039692D01*
X0317291Y0039534D01*
X0317281Y0039376D01*
X0317267Y0039218D01*
X0317249Y0039061D01*
X0317228Y0038904D01*
X0317202Y0038748D01*
X0317172Y0038592D01*
X0317139Y0038437D01*
X0317101Y0038284D01*
X0317060Y0038131D01*
X0317015Y0037979D01*
X0316966Y0037828D01*
X0316913Y0037679D01*
X0316857Y0037531D01*
X0316797Y0037385D01*
X0316733Y0037240D01*
X0316665Y0037097D01*
X0316594Y0036955D01*
X0316520Y0036815D01*
X0316442Y0036678D01*
X0316360Y0036542D01*
X0316276Y0036408D01*
X0316187Y0036277D01*
X0316096Y0036148D01*
X0316001Y0036021D01*
X0315904Y0035896D01*
X0315803Y0035774D01*
X0315699Y0035655D01*
X0315592Y0035538D01*
X0315482Y0035424D01*
X0315369Y0035313D01*
X0315254Y0035204D01*
X0315136Y0035099D01*
X0315015Y0034997D01*
X0314892Y0034897D01*
X0314766Y0034801D01*
X0314638Y0034708D01*
X0314508Y0034618D01*
X0314375Y0034532D01*
X0314240Y0034448D01*
X0314104Y0034369D01*
X0313965Y0034292D01*
X0313824Y0034220D01*
X0313682Y0034150D01*
X0313538Y0034085D01*
X0313392Y0034023D01*
X0313245Y0033965D01*
X0313096Y0033910D01*
X0312946Y0033859D01*
X0312795Y0033812D01*
X0312643Y0033769D01*
X0312490Y0033730D01*
X0312335Y0033694D01*
X0312180Y0033663D01*
X0312024Y0033635D01*
X0311868Y0033611D01*
X0311711Y0033591D01*
X0311553Y0033575D01*
X0311396Y0033563D01*
X0311237Y0033555D01*
X0311079Y0033551D01*
X0310921Y0033551D01*
X0310763Y0033555D01*
X0310604Y0033563D01*
X0310447Y0033575D01*
X0310289Y0033591D01*
X0310132Y0033611D01*
X0309976Y0033635D01*
X0309820Y0033663D01*
X0309665Y0033694D01*
X0309510Y0033730D01*
X0309357Y0033769D01*
X0309205Y0033812D01*
X0309054Y0033859D01*
X0308904Y0033910D01*
X0308755Y0033965D01*
X0308608Y0034023D01*
X0308462Y0034085D01*
X0308318Y0034150D01*
X0308176Y0034220D01*
X0308035Y0034292D01*
X0307896Y0034369D01*
X0307760Y0034448D01*
X0307625Y0034532D01*
X0307492Y0034618D01*
X0307362Y0034708D01*
X0307234Y0034801D01*
X0307108Y0034897D01*
X0306985Y0034997D01*
X0306864Y0035099D01*
X0306746Y0035204D01*
X0306631Y0035313D01*
X0306518Y0035424D01*
X0306408Y0035538D01*
X0306301Y0035655D01*
X0306197Y0035774D01*
X0306096Y0035896D01*
X0305999Y0036021D01*
X0305904Y0036148D01*
X0305813Y0036277D01*
X0305724Y0036408D01*
X0305640Y0036542D01*
X0305558Y0036678D01*
X0305480Y0036815D01*
X0305406Y0036955D01*
X0305335Y0037097D01*
X0305267Y0037240D01*
X0305203Y0037385D01*
X0305143Y0037531D01*
X0305087Y0037679D01*
X0305034Y0037828D01*
X0304985Y0037979D01*
X0304940Y0038131D01*
X0304899Y0038284D01*
X0304861Y0038437D01*
X0304828Y0038592D01*
X0304798Y0038748D01*
X0304772Y0038904D01*
X0304751Y0039061D01*
X0304733Y0039218D01*
X0304719Y0039376D01*
X0304709Y0039534D01*
X0304703Y0039692D01*
X0304701Y0039850D01*
X0304701Y0259850D02*
X0304703Y0260008D01*
X0304709Y0260166D01*
X0304719Y0260324D01*
X0304733Y0260482D01*
X0304751Y0260639D01*
X0304772Y0260796D01*
X0304798Y0260952D01*
X0304828Y0261108D01*
X0304861Y0261263D01*
X0304899Y0261416D01*
X0304940Y0261569D01*
X0304985Y0261721D01*
X0305034Y0261872D01*
X0305087Y0262021D01*
X0305143Y0262169D01*
X0305203Y0262315D01*
X0305267Y0262460D01*
X0305335Y0262603D01*
X0305406Y0262745D01*
X0305480Y0262885D01*
X0305558Y0263022D01*
X0305640Y0263158D01*
X0305724Y0263292D01*
X0305813Y0263423D01*
X0305904Y0263552D01*
X0305999Y0263679D01*
X0306096Y0263804D01*
X0306197Y0263926D01*
X0306301Y0264045D01*
X0306408Y0264162D01*
X0306518Y0264276D01*
X0306631Y0264387D01*
X0306746Y0264496D01*
X0306864Y0264601D01*
X0306985Y0264703D01*
X0307108Y0264803D01*
X0307234Y0264899D01*
X0307362Y0264992D01*
X0307492Y0265082D01*
X0307625Y0265168D01*
X0307760Y0265252D01*
X0307896Y0265331D01*
X0308035Y0265408D01*
X0308176Y0265480D01*
X0308318Y0265550D01*
X0308462Y0265615D01*
X0308608Y0265677D01*
X0308755Y0265735D01*
X0308904Y0265790D01*
X0309054Y0265841D01*
X0309205Y0265888D01*
X0309357Y0265931D01*
X0309510Y0265970D01*
X0309665Y0266006D01*
X0309820Y0266037D01*
X0309976Y0266065D01*
X0310132Y0266089D01*
X0310289Y0266109D01*
X0310447Y0266125D01*
X0310604Y0266137D01*
X0310763Y0266145D01*
X0310921Y0266149D01*
X0311079Y0266149D01*
X0311237Y0266145D01*
X0311396Y0266137D01*
X0311553Y0266125D01*
X0311711Y0266109D01*
X0311868Y0266089D01*
X0312024Y0266065D01*
X0312180Y0266037D01*
X0312335Y0266006D01*
X0312490Y0265970D01*
X0312643Y0265931D01*
X0312795Y0265888D01*
X0312946Y0265841D01*
X0313096Y0265790D01*
X0313245Y0265735D01*
X0313392Y0265677D01*
X0313538Y0265615D01*
X0313682Y0265550D01*
X0313824Y0265480D01*
X0313965Y0265408D01*
X0314104Y0265331D01*
X0314240Y0265252D01*
X0314375Y0265168D01*
X0314508Y0265082D01*
X0314638Y0264992D01*
X0314766Y0264899D01*
X0314892Y0264803D01*
X0315015Y0264703D01*
X0315136Y0264601D01*
X0315254Y0264496D01*
X0315369Y0264387D01*
X0315482Y0264276D01*
X0315592Y0264162D01*
X0315699Y0264045D01*
X0315803Y0263926D01*
X0315904Y0263804D01*
X0316001Y0263679D01*
X0316096Y0263552D01*
X0316187Y0263423D01*
X0316276Y0263292D01*
X0316360Y0263158D01*
X0316442Y0263022D01*
X0316520Y0262885D01*
X0316594Y0262745D01*
X0316665Y0262603D01*
X0316733Y0262460D01*
X0316797Y0262315D01*
X0316857Y0262169D01*
X0316913Y0262021D01*
X0316966Y0261872D01*
X0317015Y0261721D01*
X0317060Y0261569D01*
X0317101Y0261416D01*
X0317139Y0261263D01*
X0317172Y0261108D01*
X0317202Y0260952D01*
X0317228Y0260796D01*
X0317249Y0260639D01*
X0317267Y0260482D01*
X0317281Y0260324D01*
X0317291Y0260166D01*
X0317297Y0260008D01*
X0317299Y0259850D01*
X0317297Y0259692D01*
X0317291Y0259534D01*
X0317281Y0259376D01*
X0317267Y0259218D01*
X0317249Y0259061D01*
X0317228Y0258904D01*
X0317202Y0258748D01*
X0317172Y0258592D01*
X0317139Y0258437D01*
X0317101Y0258284D01*
X0317060Y0258131D01*
X0317015Y0257979D01*
X0316966Y0257828D01*
X0316913Y0257679D01*
X0316857Y0257531D01*
X0316797Y0257385D01*
X0316733Y0257240D01*
X0316665Y0257097D01*
X0316594Y0256955D01*
X0316520Y0256815D01*
X0316442Y0256678D01*
X0316360Y0256542D01*
X0316276Y0256408D01*
X0316187Y0256277D01*
X0316096Y0256148D01*
X0316001Y0256021D01*
X0315904Y0255896D01*
X0315803Y0255774D01*
X0315699Y0255655D01*
X0315592Y0255538D01*
X0315482Y0255424D01*
X0315369Y0255313D01*
X0315254Y0255204D01*
X0315136Y0255099D01*
X0315015Y0254997D01*
X0314892Y0254897D01*
X0314766Y0254801D01*
X0314638Y0254708D01*
X0314508Y0254618D01*
X0314375Y0254532D01*
X0314240Y0254448D01*
X0314104Y0254369D01*
X0313965Y0254292D01*
X0313824Y0254220D01*
X0313682Y0254150D01*
X0313538Y0254085D01*
X0313392Y0254023D01*
X0313245Y0253965D01*
X0313096Y0253910D01*
X0312946Y0253859D01*
X0312795Y0253812D01*
X0312643Y0253769D01*
X0312490Y0253730D01*
X0312335Y0253694D01*
X0312180Y0253663D01*
X0312024Y0253635D01*
X0311868Y0253611D01*
X0311711Y0253591D01*
X0311553Y0253575D01*
X0311396Y0253563D01*
X0311237Y0253555D01*
X0311079Y0253551D01*
X0310921Y0253551D01*
X0310763Y0253555D01*
X0310604Y0253563D01*
X0310447Y0253575D01*
X0310289Y0253591D01*
X0310132Y0253611D01*
X0309976Y0253635D01*
X0309820Y0253663D01*
X0309665Y0253694D01*
X0309510Y0253730D01*
X0309357Y0253769D01*
X0309205Y0253812D01*
X0309054Y0253859D01*
X0308904Y0253910D01*
X0308755Y0253965D01*
X0308608Y0254023D01*
X0308462Y0254085D01*
X0308318Y0254150D01*
X0308176Y0254220D01*
X0308035Y0254292D01*
X0307896Y0254369D01*
X0307760Y0254448D01*
X0307625Y0254532D01*
X0307492Y0254618D01*
X0307362Y0254708D01*
X0307234Y0254801D01*
X0307108Y0254897D01*
X0306985Y0254997D01*
X0306864Y0255099D01*
X0306746Y0255204D01*
X0306631Y0255313D01*
X0306518Y0255424D01*
X0306408Y0255538D01*
X0306301Y0255655D01*
X0306197Y0255774D01*
X0306096Y0255896D01*
X0305999Y0256021D01*
X0305904Y0256148D01*
X0305813Y0256277D01*
X0305724Y0256408D01*
X0305640Y0256542D01*
X0305558Y0256678D01*
X0305480Y0256815D01*
X0305406Y0256955D01*
X0305335Y0257097D01*
X0305267Y0257240D01*
X0305203Y0257385D01*
X0305143Y0257531D01*
X0305087Y0257679D01*
X0305034Y0257828D01*
X0304985Y0257979D01*
X0304940Y0258131D01*
X0304899Y0258284D01*
X0304861Y0258437D01*
X0304828Y0258592D01*
X0304798Y0258748D01*
X0304772Y0258904D01*
X0304751Y0259061D01*
X0304733Y0259218D01*
X0304719Y0259376D01*
X0304709Y0259534D01*
X0304703Y0259692D01*
X0304701Y0259850D01*
X0128701Y0259850D02*
X0128703Y0260008D01*
X0128709Y0260166D01*
X0128719Y0260324D01*
X0128733Y0260482D01*
X0128751Y0260639D01*
X0128772Y0260796D01*
X0128798Y0260952D01*
X0128828Y0261108D01*
X0128861Y0261263D01*
X0128899Y0261416D01*
X0128940Y0261569D01*
X0128985Y0261721D01*
X0129034Y0261872D01*
X0129087Y0262021D01*
X0129143Y0262169D01*
X0129203Y0262315D01*
X0129267Y0262460D01*
X0129335Y0262603D01*
X0129406Y0262745D01*
X0129480Y0262885D01*
X0129558Y0263022D01*
X0129640Y0263158D01*
X0129724Y0263292D01*
X0129813Y0263423D01*
X0129904Y0263552D01*
X0129999Y0263679D01*
X0130096Y0263804D01*
X0130197Y0263926D01*
X0130301Y0264045D01*
X0130408Y0264162D01*
X0130518Y0264276D01*
X0130631Y0264387D01*
X0130746Y0264496D01*
X0130864Y0264601D01*
X0130985Y0264703D01*
X0131108Y0264803D01*
X0131234Y0264899D01*
X0131362Y0264992D01*
X0131492Y0265082D01*
X0131625Y0265168D01*
X0131760Y0265252D01*
X0131896Y0265331D01*
X0132035Y0265408D01*
X0132176Y0265480D01*
X0132318Y0265550D01*
X0132462Y0265615D01*
X0132608Y0265677D01*
X0132755Y0265735D01*
X0132904Y0265790D01*
X0133054Y0265841D01*
X0133205Y0265888D01*
X0133357Y0265931D01*
X0133510Y0265970D01*
X0133665Y0266006D01*
X0133820Y0266037D01*
X0133976Y0266065D01*
X0134132Y0266089D01*
X0134289Y0266109D01*
X0134447Y0266125D01*
X0134604Y0266137D01*
X0134763Y0266145D01*
X0134921Y0266149D01*
X0135079Y0266149D01*
X0135237Y0266145D01*
X0135396Y0266137D01*
X0135553Y0266125D01*
X0135711Y0266109D01*
X0135868Y0266089D01*
X0136024Y0266065D01*
X0136180Y0266037D01*
X0136335Y0266006D01*
X0136490Y0265970D01*
X0136643Y0265931D01*
X0136795Y0265888D01*
X0136946Y0265841D01*
X0137096Y0265790D01*
X0137245Y0265735D01*
X0137392Y0265677D01*
X0137538Y0265615D01*
X0137682Y0265550D01*
X0137824Y0265480D01*
X0137965Y0265408D01*
X0138104Y0265331D01*
X0138240Y0265252D01*
X0138375Y0265168D01*
X0138508Y0265082D01*
X0138638Y0264992D01*
X0138766Y0264899D01*
X0138892Y0264803D01*
X0139015Y0264703D01*
X0139136Y0264601D01*
X0139254Y0264496D01*
X0139369Y0264387D01*
X0139482Y0264276D01*
X0139592Y0264162D01*
X0139699Y0264045D01*
X0139803Y0263926D01*
X0139904Y0263804D01*
X0140001Y0263679D01*
X0140096Y0263552D01*
X0140187Y0263423D01*
X0140276Y0263292D01*
X0140360Y0263158D01*
X0140442Y0263022D01*
X0140520Y0262885D01*
X0140594Y0262745D01*
X0140665Y0262603D01*
X0140733Y0262460D01*
X0140797Y0262315D01*
X0140857Y0262169D01*
X0140913Y0262021D01*
X0140966Y0261872D01*
X0141015Y0261721D01*
X0141060Y0261569D01*
X0141101Y0261416D01*
X0141139Y0261263D01*
X0141172Y0261108D01*
X0141202Y0260952D01*
X0141228Y0260796D01*
X0141249Y0260639D01*
X0141267Y0260482D01*
X0141281Y0260324D01*
X0141291Y0260166D01*
X0141297Y0260008D01*
X0141299Y0259850D01*
X0141297Y0259692D01*
X0141291Y0259534D01*
X0141281Y0259376D01*
X0141267Y0259218D01*
X0141249Y0259061D01*
X0141228Y0258904D01*
X0141202Y0258748D01*
X0141172Y0258592D01*
X0141139Y0258437D01*
X0141101Y0258284D01*
X0141060Y0258131D01*
X0141015Y0257979D01*
X0140966Y0257828D01*
X0140913Y0257679D01*
X0140857Y0257531D01*
X0140797Y0257385D01*
X0140733Y0257240D01*
X0140665Y0257097D01*
X0140594Y0256955D01*
X0140520Y0256815D01*
X0140442Y0256678D01*
X0140360Y0256542D01*
X0140276Y0256408D01*
X0140187Y0256277D01*
X0140096Y0256148D01*
X0140001Y0256021D01*
X0139904Y0255896D01*
X0139803Y0255774D01*
X0139699Y0255655D01*
X0139592Y0255538D01*
X0139482Y0255424D01*
X0139369Y0255313D01*
X0139254Y0255204D01*
X0139136Y0255099D01*
X0139015Y0254997D01*
X0138892Y0254897D01*
X0138766Y0254801D01*
X0138638Y0254708D01*
X0138508Y0254618D01*
X0138375Y0254532D01*
X0138240Y0254448D01*
X0138104Y0254369D01*
X0137965Y0254292D01*
X0137824Y0254220D01*
X0137682Y0254150D01*
X0137538Y0254085D01*
X0137392Y0254023D01*
X0137245Y0253965D01*
X0137096Y0253910D01*
X0136946Y0253859D01*
X0136795Y0253812D01*
X0136643Y0253769D01*
X0136490Y0253730D01*
X0136335Y0253694D01*
X0136180Y0253663D01*
X0136024Y0253635D01*
X0135868Y0253611D01*
X0135711Y0253591D01*
X0135553Y0253575D01*
X0135396Y0253563D01*
X0135237Y0253555D01*
X0135079Y0253551D01*
X0134921Y0253551D01*
X0134763Y0253555D01*
X0134604Y0253563D01*
X0134447Y0253575D01*
X0134289Y0253591D01*
X0134132Y0253611D01*
X0133976Y0253635D01*
X0133820Y0253663D01*
X0133665Y0253694D01*
X0133510Y0253730D01*
X0133357Y0253769D01*
X0133205Y0253812D01*
X0133054Y0253859D01*
X0132904Y0253910D01*
X0132755Y0253965D01*
X0132608Y0254023D01*
X0132462Y0254085D01*
X0132318Y0254150D01*
X0132176Y0254220D01*
X0132035Y0254292D01*
X0131896Y0254369D01*
X0131760Y0254448D01*
X0131625Y0254532D01*
X0131492Y0254618D01*
X0131362Y0254708D01*
X0131234Y0254801D01*
X0131108Y0254897D01*
X0130985Y0254997D01*
X0130864Y0255099D01*
X0130746Y0255204D01*
X0130631Y0255313D01*
X0130518Y0255424D01*
X0130408Y0255538D01*
X0130301Y0255655D01*
X0130197Y0255774D01*
X0130096Y0255896D01*
X0129999Y0256021D01*
X0129904Y0256148D01*
X0129813Y0256277D01*
X0129724Y0256408D01*
X0129640Y0256542D01*
X0129558Y0256678D01*
X0129480Y0256815D01*
X0129406Y0256955D01*
X0129335Y0257097D01*
X0129267Y0257240D01*
X0129203Y0257385D01*
X0129143Y0257531D01*
X0129087Y0257679D01*
X0129034Y0257828D01*
X0128985Y0257979D01*
X0128940Y0258131D01*
X0128899Y0258284D01*
X0128861Y0258437D01*
X0128828Y0258592D01*
X0128798Y0258748D01*
X0128772Y0258904D01*
X0128751Y0259061D01*
X0128733Y0259218D01*
X0128719Y0259376D01*
X0128709Y0259534D01*
X0128703Y0259692D01*
X0128701Y0259850D01*
X0003701Y0259850D02*
X0003703Y0260008D01*
X0003709Y0260166D01*
X0003719Y0260324D01*
X0003733Y0260482D01*
X0003751Y0260639D01*
X0003772Y0260796D01*
X0003798Y0260952D01*
X0003828Y0261108D01*
X0003861Y0261263D01*
X0003899Y0261416D01*
X0003940Y0261569D01*
X0003985Y0261721D01*
X0004034Y0261872D01*
X0004087Y0262021D01*
X0004143Y0262169D01*
X0004203Y0262315D01*
X0004267Y0262460D01*
X0004335Y0262603D01*
X0004406Y0262745D01*
X0004480Y0262885D01*
X0004558Y0263022D01*
X0004640Y0263158D01*
X0004724Y0263292D01*
X0004813Y0263423D01*
X0004904Y0263552D01*
X0004999Y0263679D01*
X0005096Y0263804D01*
X0005197Y0263926D01*
X0005301Y0264045D01*
X0005408Y0264162D01*
X0005518Y0264276D01*
X0005631Y0264387D01*
X0005746Y0264496D01*
X0005864Y0264601D01*
X0005985Y0264703D01*
X0006108Y0264803D01*
X0006234Y0264899D01*
X0006362Y0264992D01*
X0006492Y0265082D01*
X0006625Y0265168D01*
X0006760Y0265252D01*
X0006896Y0265331D01*
X0007035Y0265408D01*
X0007176Y0265480D01*
X0007318Y0265550D01*
X0007462Y0265615D01*
X0007608Y0265677D01*
X0007755Y0265735D01*
X0007904Y0265790D01*
X0008054Y0265841D01*
X0008205Y0265888D01*
X0008357Y0265931D01*
X0008510Y0265970D01*
X0008665Y0266006D01*
X0008820Y0266037D01*
X0008976Y0266065D01*
X0009132Y0266089D01*
X0009289Y0266109D01*
X0009447Y0266125D01*
X0009604Y0266137D01*
X0009763Y0266145D01*
X0009921Y0266149D01*
X0010079Y0266149D01*
X0010237Y0266145D01*
X0010396Y0266137D01*
X0010553Y0266125D01*
X0010711Y0266109D01*
X0010868Y0266089D01*
X0011024Y0266065D01*
X0011180Y0266037D01*
X0011335Y0266006D01*
X0011490Y0265970D01*
X0011643Y0265931D01*
X0011795Y0265888D01*
X0011946Y0265841D01*
X0012096Y0265790D01*
X0012245Y0265735D01*
X0012392Y0265677D01*
X0012538Y0265615D01*
X0012682Y0265550D01*
X0012824Y0265480D01*
X0012965Y0265408D01*
X0013104Y0265331D01*
X0013240Y0265252D01*
X0013375Y0265168D01*
X0013508Y0265082D01*
X0013638Y0264992D01*
X0013766Y0264899D01*
X0013892Y0264803D01*
X0014015Y0264703D01*
X0014136Y0264601D01*
X0014254Y0264496D01*
X0014369Y0264387D01*
X0014482Y0264276D01*
X0014592Y0264162D01*
X0014699Y0264045D01*
X0014803Y0263926D01*
X0014904Y0263804D01*
X0015001Y0263679D01*
X0015096Y0263552D01*
X0015187Y0263423D01*
X0015276Y0263292D01*
X0015360Y0263158D01*
X0015442Y0263022D01*
X0015520Y0262885D01*
X0015594Y0262745D01*
X0015665Y0262603D01*
X0015733Y0262460D01*
X0015797Y0262315D01*
X0015857Y0262169D01*
X0015913Y0262021D01*
X0015966Y0261872D01*
X0016015Y0261721D01*
X0016060Y0261569D01*
X0016101Y0261416D01*
X0016139Y0261263D01*
X0016172Y0261108D01*
X0016202Y0260952D01*
X0016228Y0260796D01*
X0016249Y0260639D01*
X0016267Y0260482D01*
X0016281Y0260324D01*
X0016291Y0260166D01*
X0016297Y0260008D01*
X0016299Y0259850D01*
X0016297Y0259692D01*
X0016291Y0259534D01*
X0016281Y0259376D01*
X0016267Y0259218D01*
X0016249Y0259061D01*
X0016228Y0258904D01*
X0016202Y0258748D01*
X0016172Y0258592D01*
X0016139Y0258437D01*
X0016101Y0258284D01*
X0016060Y0258131D01*
X0016015Y0257979D01*
X0015966Y0257828D01*
X0015913Y0257679D01*
X0015857Y0257531D01*
X0015797Y0257385D01*
X0015733Y0257240D01*
X0015665Y0257097D01*
X0015594Y0256955D01*
X0015520Y0256815D01*
X0015442Y0256678D01*
X0015360Y0256542D01*
X0015276Y0256408D01*
X0015187Y0256277D01*
X0015096Y0256148D01*
X0015001Y0256021D01*
X0014904Y0255896D01*
X0014803Y0255774D01*
X0014699Y0255655D01*
X0014592Y0255538D01*
X0014482Y0255424D01*
X0014369Y0255313D01*
X0014254Y0255204D01*
X0014136Y0255099D01*
X0014015Y0254997D01*
X0013892Y0254897D01*
X0013766Y0254801D01*
X0013638Y0254708D01*
X0013508Y0254618D01*
X0013375Y0254532D01*
X0013240Y0254448D01*
X0013104Y0254369D01*
X0012965Y0254292D01*
X0012824Y0254220D01*
X0012682Y0254150D01*
X0012538Y0254085D01*
X0012392Y0254023D01*
X0012245Y0253965D01*
X0012096Y0253910D01*
X0011946Y0253859D01*
X0011795Y0253812D01*
X0011643Y0253769D01*
X0011490Y0253730D01*
X0011335Y0253694D01*
X0011180Y0253663D01*
X0011024Y0253635D01*
X0010868Y0253611D01*
X0010711Y0253591D01*
X0010553Y0253575D01*
X0010396Y0253563D01*
X0010237Y0253555D01*
X0010079Y0253551D01*
X0009921Y0253551D01*
X0009763Y0253555D01*
X0009604Y0253563D01*
X0009447Y0253575D01*
X0009289Y0253591D01*
X0009132Y0253611D01*
X0008976Y0253635D01*
X0008820Y0253663D01*
X0008665Y0253694D01*
X0008510Y0253730D01*
X0008357Y0253769D01*
X0008205Y0253812D01*
X0008054Y0253859D01*
X0007904Y0253910D01*
X0007755Y0253965D01*
X0007608Y0254023D01*
X0007462Y0254085D01*
X0007318Y0254150D01*
X0007176Y0254220D01*
X0007035Y0254292D01*
X0006896Y0254369D01*
X0006760Y0254448D01*
X0006625Y0254532D01*
X0006492Y0254618D01*
X0006362Y0254708D01*
X0006234Y0254801D01*
X0006108Y0254897D01*
X0005985Y0254997D01*
X0005864Y0255099D01*
X0005746Y0255204D01*
X0005631Y0255313D01*
X0005518Y0255424D01*
X0005408Y0255538D01*
X0005301Y0255655D01*
X0005197Y0255774D01*
X0005096Y0255896D01*
X0004999Y0256021D01*
X0004904Y0256148D01*
X0004813Y0256277D01*
X0004724Y0256408D01*
X0004640Y0256542D01*
X0004558Y0256678D01*
X0004480Y0256815D01*
X0004406Y0256955D01*
X0004335Y0257097D01*
X0004267Y0257240D01*
X0004203Y0257385D01*
X0004143Y0257531D01*
X0004087Y0257679D01*
X0004034Y0257828D01*
X0003985Y0257979D01*
X0003940Y0258131D01*
X0003899Y0258284D01*
X0003861Y0258437D01*
X0003828Y0258592D01*
X0003798Y0258748D01*
X0003772Y0258904D01*
X0003751Y0259061D01*
X0003733Y0259218D01*
X0003719Y0259376D01*
X0003709Y0259534D01*
X0003703Y0259692D01*
X0003701Y0259850D01*
D11*
X0138000Y0108850D03*
X0164000Y0052850D03*
D12*
X0174000Y0052850D03*
X0184000Y0052850D03*
X0194000Y0052850D03*
X0204000Y0052850D03*
X0214000Y0052850D03*
X0224000Y0052850D03*
X0234000Y0052850D03*
X0244000Y0052850D03*
X0254000Y0052850D03*
X0264000Y0052850D03*
X0274000Y0052850D03*
X0284000Y0052850D03*
X0294000Y0052850D03*
X0304000Y0052850D03*
X0304000Y0112850D03*
X0294000Y0112850D03*
X0284000Y0112850D03*
X0274000Y0112850D03*
X0264000Y0112850D03*
X0254000Y0112850D03*
X0244000Y0112850D03*
X0234000Y0112850D03*
X0224000Y0112850D03*
X0214000Y0112850D03*
X0204000Y0112850D03*
X0194000Y0112850D03*
X0184000Y0112850D03*
X0174000Y0112850D03*
X0164000Y0112850D03*
X0138000Y0098850D03*
X0128000Y0098850D03*
X0118000Y0098850D03*
X0108000Y0098850D03*
X0108000Y0108850D03*
X0118000Y0108850D03*
X0128000Y0108850D03*
D13*
X0160950Y0123425D02*
X0161580Y0122795D01*
X0159492Y0122795D01*
X0158017Y0124270D01*
X0158017Y0126358D01*
X0159492Y0127833D01*
X0161580Y0127833D01*
X0163055Y0126358D01*
X0163055Y0124270D01*
X0161580Y0122795D01*
X0161188Y0123740D01*
X0159884Y0123740D01*
X0158962Y0124662D01*
X0158962Y0125966D01*
X0159884Y0126888D01*
X0161188Y0126888D01*
X0162110Y0125966D01*
X0162110Y0124662D01*
X0161188Y0123740D01*
X0160797Y0124685D01*
X0160275Y0124685D01*
X0159907Y0125053D01*
X0159907Y0125575D01*
X0160275Y0125943D01*
X0160797Y0125943D01*
X0161165Y0125575D01*
X0161165Y0125053D01*
X0160797Y0124685D01*
D14*
X0153464Y0132386D03*
X0057000Y0054850D03*
X0010000Y0059850D03*
D15*
X0089441Y0048850D03*
X0097315Y0048850D03*
X0105189Y0048850D03*
X0113063Y0048850D03*
X0120937Y0048850D03*
X0128811Y0048850D03*
X0136685Y0048850D03*
X0144559Y0048850D03*
X0144559Y0124850D03*
X0136685Y0124850D03*
X0128811Y0124850D03*
X0120937Y0124850D03*
X0113063Y0124850D03*
X0105189Y0124850D03*
X0097315Y0124850D03*
X0089441Y0124850D03*
D16*
X0136500Y0084350D03*
X0136500Y0081350D03*
X0203000Y0064350D03*
X0203000Y0061350D03*
X0210000Y0061350D03*
X0210000Y0064350D03*
D17*
X0294000Y0132850D03*
X0105000Y0136350D03*
X0105000Y0144850D03*
X0057000Y0064850D03*
X0057000Y0043850D03*
X0065000Y0043850D03*
X0073000Y0043850D03*
X0020000Y0059850D03*
D18*
X0163047Y0176228D03*
X0218953Y0199850D03*
X0250047Y0176228D03*
X0250047Y0223472D03*
X0305953Y0199850D03*
X0163047Y0223472D03*
D19*
X0211079Y0223472D03*
X0211079Y0176228D03*
X0298079Y0176228D03*
X0298079Y0223472D03*
D20*
X0286000Y0200393D01*
X0286000Y0159850D01*
X0290000Y0159850D01*
X0294000Y0159850D01*
X0297000Y0156850D01*
X0301000Y0156850D01*
X0305500Y0156850D02*
X0308500Y0156850D01*
X0308500Y0152929D01*
X0309379Y0152050D01*
X0316621Y0152050D01*
X0317500Y0152929D01*
X0317500Y0156850D01*
X0317500Y0134380D01*
X0315418Y0136462D01*
X0312551Y0137649D01*
X0309449Y0137649D01*
X0306582Y0136462D01*
X0304388Y0134268D01*
X0303201Y0131401D01*
X0303201Y0128299D01*
X0303490Y0127600D01*
X0303055Y0127600D01*
X0301309Y0126877D01*
X0299973Y0125541D01*
X0299250Y0123795D01*
X0299250Y0121905D01*
X0299973Y0120159D01*
X0301309Y0118823D01*
X0303055Y0118100D01*
X0304945Y0118100D01*
X0305635Y0118386D01*
X0307000Y0117022D01*
X0307000Y0116169D01*
X0306531Y0116638D01*
X0304889Y0117318D01*
X0303111Y0117318D01*
X0301469Y0116638D01*
X0300212Y0115381D01*
X0299531Y0113739D01*
X0299531Y0111961D01*
X0300212Y0110319D01*
X0301469Y0109062D01*
X0303111Y0108381D01*
X0304889Y0108381D01*
X0306531Y0109062D01*
X0307000Y0109531D01*
X0307000Y0107678D01*
X0306172Y0106850D01*
X0280828Y0106850D01*
X0277574Y0110104D01*
X0277788Y0110319D01*
X0278468Y0111961D01*
X0278468Y0113739D01*
X0277788Y0115381D01*
X0276531Y0116638D01*
X0274889Y0117318D01*
X0273111Y0117318D01*
X0271469Y0116638D01*
X0270212Y0115381D01*
X0269531Y0113739D01*
X0269531Y0111961D01*
X0270212Y0110319D01*
X0271469Y0109062D01*
X0273111Y0108381D01*
X0273640Y0108381D01*
X0278000Y0104022D01*
X0279172Y0102850D01*
X0307828Y0102850D01*
X0309828Y0104850D01*
X0311000Y0106022D01*
X0311000Y0109133D01*
X0311309Y0108823D01*
X0313055Y0108100D01*
X0314945Y0108100D01*
X0316691Y0108823D01*
X0317500Y0109633D01*
X0317500Y0056067D01*
X0316691Y0056877D01*
X0314945Y0057600D01*
X0313055Y0057600D01*
X0311309Y0056877D01*
X0309973Y0055541D01*
X0309250Y0053795D01*
X0309250Y0051905D01*
X0309973Y0050159D01*
X0311309Y0048823D01*
X0313055Y0048100D01*
X0314945Y0048100D01*
X0316691Y0048823D01*
X0317500Y0049633D01*
X0317500Y0044380D01*
X0315418Y0046462D01*
X0312551Y0047649D01*
X0309449Y0047649D01*
X0306582Y0046462D01*
X0304388Y0044268D01*
X0303201Y0041401D01*
X0303201Y0038299D01*
X0304388Y0035432D01*
X0306470Y0033350D01*
X0286463Y0033350D01*
X0286889Y0033526D01*
X0288324Y0034961D01*
X0289100Y0036836D01*
X0289100Y0038864D01*
X0288324Y0040739D01*
X0287212Y0041850D01*
X0290916Y0041850D01*
X0290916Y0041236D01*
X0291385Y0040103D01*
X0292253Y0039235D01*
X0293386Y0038766D01*
X0294613Y0038766D01*
X0295747Y0039235D01*
X0296615Y0040103D01*
X0297084Y0041236D01*
X0297084Y0042463D01*
X0296615Y0043597D01*
X0296362Y0043850D01*
X0302828Y0043850D01*
X0304828Y0045850D01*
X0306000Y0047022D01*
X0306000Y0048842D01*
X0306531Y0049062D01*
X0307788Y0050319D01*
X0308468Y0051961D01*
X0308468Y0053739D01*
X0307788Y0055381D01*
X0306531Y0056638D01*
X0304889Y0057318D01*
X0303111Y0057318D01*
X0301469Y0056638D01*
X0300212Y0055381D01*
X0299531Y0053739D01*
X0299531Y0051961D01*
X0300212Y0050319D01*
X0301469Y0049062D01*
X0302000Y0048842D01*
X0302000Y0048678D01*
X0301172Y0047850D01*
X0263828Y0047850D01*
X0264360Y0048381D01*
X0264889Y0048381D01*
X0266531Y0049062D01*
X0267788Y0050319D01*
X0268468Y0051961D01*
X0268468Y0053739D01*
X0267788Y0055381D01*
X0266531Y0056638D01*
X0264889Y0057318D01*
X0263111Y0057318D01*
X0261469Y0056638D01*
X0260212Y0055381D01*
X0259531Y0053739D01*
X0259531Y0051961D01*
X0260212Y0050319D01*
X0260426Y0050105D01*
X0260172Y0049850D01*
X0257319Y0049850D01*
X0257788Y0050319D01*
X0258468Y0051961D01*
X0258468Y0053739D01*
X0257788Y0055381D01*
X0256531Y0056638D01*
X0254889Y0057318D01*
X0253111Y0057318D01*
X0251469Y0056638D01*
X0250212Y0055381D01*
X0249531Y0053739D01*
X0249531Y0051961D01*
X0250212Y0050319D01*
X0251426Y0049105D01*
X0248172Y0045850D01*
X0184828Y0045850D01*
X0181721Y0048957D01*
X0183111Y0048381D01*
X0184889Y0048381D01*
X0186531Y0049062D01*
X0187788Y0050319D01*
X0188468Y0051961D01*
X0188468Y0053739D01*
X0187788Y0055381D01*
X0186531Y0056638D01*
X0184889Y0057318D01*
X0183111Y0057318D01*
X0181469Y0056638D01*
X0181000Y0056169D01*
X0181000Y0056678D01*
X0178128Y0059550D01*
X0182953Y0059550D01*
X0184300Y0060897D01*
X0184300Y0060897D01*
X0189953Y0066550D01*
X0191300Y0067897D01*
X0191300Y0091788D01*
X0191500Y0091988D01*
X0192000Y0091488D01*
X0192000Y0063490D01*
X0191218Y0062709D01*
X0190719Y0061503D01*
X0190719Y0060197D01*
X0191218Y0058991D01*
X0192141Y0058068D01*
X0193347Y0057569D01*
X0194653Y0057569D01*
X0195859Y0058068D01*
X0196782Y0058991D01*
X0197281Y0060197D01*
X0197281Y0061503D01*
X0196782Y0062709D01*
X0196000Y0063490D01*
X0196000Y0068033D01*
X0196385Y0067103D01*
X0197253Y0066235D01*
X0198386Y0065766D01*
X0199613Y0065766D01*
X0199750Y0065822D01*
X0199750Y0059529D01*
X0200300Y0058979D01*
X0198172Y0056850D01*
X0197245Y0055924D01*
X0196911Y0056258D01*
X0196342Y0056672D01*
X0195715Y0056991D01*
X0195046Y0057208D01*
X0194484Y0057297D01*
X0194484Y0053334D01*
X0193516Y0053334D01*
X0193516Y0052366D01*
X0194484Y0052366D01*
X0194484Y0048402D01*
X0195046Y0048492D01*
X0195715Y0048709D01*
X0196342Y0049028D01*
X0196911Y0049442D01*
X0197000Y0049531D01*
X0197000Y0049022D01*
X0198172Y0047850D01*
X0200172Y0045850D01*
X0212828Y0045850D01*
X0214000Y0047022D01*
X0215693Y0048715D01*
X0216531Y0049062D01*
X0217788Y0050319D01*
X0218468Y0051961D01*
X0218468Y0053739D01*
X0217788Y0055381D01*
X0217319Y0055850D01*
X0220681Y0055850D01*
X0220212Y0055381D01*
X0219531Y0053739D01*
X0219531Y0051961D01*
X0220212Y0050319D01*
X0221469Y0049062D01*
X0223111Y0048381D01*
X0224889Y0048381D01*
X0226531Y0049062D01*
X0227788Y0050319D01*
X0228468Y0051961D01*
X0228468Y0053739D01*
X0227788Y0055381D01*
X0226531Y0056638D01*
X0226000Y0056858D01*
X0226000Y0057678D01*
X0225828Y0057850D01*
X0239172Y0057850D01*
X0240926Y0056095D01*
X0240212Y0055381D01*
X0239531Y0053739D01*
X0239531Y0051961D01*
X0240212Y0050319D01*
X0241469Y0049062D01*
X0243111Y0048381D01*
X0244889Y0048381D01*
X0246531Y0049062D01*
X0247788Y0050319D01*
X0248468Y0051961D01*
X0248468Y0053739D01*
X0247788Y0055381D01*
X0246531Y0056638D01*
X0245693Y0056985D01*
X0242828Y0059850D01*
X0266638Y0059850D01*
X0267253Y0059235D01*
X0268386Y0058766D01*
X0269256Y0058766D01*
X0271426Y0056595D01*
X0270212Y0055381D01*
X0269531Y0053739D01*
X0269531Y0051961D01*
X0270212Y0050319D01*
X0271469Y0049062D01*
X0273111Y0048381D01*
X0274889Y0048381D01*
X0276531Y0049062D01*
X0277788Y0050319D01*
X0278468Y0051961D01*
X0278468Y0053739D01*
X0277788Y0055381D01*
X0276531Y0056638D01*
X0276000Y0056858D01*
X0276000Y0057678D01*
X0272084Y0061594D01*
X0272084Y0062463D01*
X0271924Y0062850D01*
X0291638Y0062850D01*
X0292253Y0062235D01*
X0293386Y0061766D01*
X0294613Y0061766D01*
X0295747Y0062235D01*
X0296615Y0063103D01*
X0297084Y0064236D01*
X0297084Y0065463D01*
X0296615Y0066597D01*
X0295747Y0067465D01*
X0294613Y0067934D01*
X0293386Y0067934D01*
X0292253Y0067465D01*
X0291638Y0066850D01*
X0241362Y0066850D01*
X0240747Y0067465D01*
X0239825Y0067847D01*
X0240000Y0068022D01*
X0252744Y0080766D01*
X0253613Y0080766D01*
X0254747Y0081235D01*
X0255615Y0082103D01*
X0256084Y0083236D01*
X0256084Y0084463D01*
X0255615Y0085597D01*
X0254747Y0086465D01*
X0253825Y0086847D01*
X0258744Y0091766D01*
X0259613Y0091766D01*
X0260747Y0092235D01*
X0261615Y0093103D01*
X0262084Y0094236D01*
X0262084Y0095463D01*
X0261634Y0096550D01*
X0286938Y0096550D01*
X0287253Y0096235D01*
X0288386Y0095766D01*
X0289613Y0095766D01*
X0290747Y0096235D01*
X0291615Y0097103D01*
X0292084Y0098236D01*
X0292084Y0099463D01*
X0291615Y0100597D01*
X0290747Y0101465D01*
X0289613Y0101934D01*
X0288386Y0101934D01*
X0287253Y0101465D01*
X0286938Y0101150D01*
X0185541Y0101150D01*
X0185747Y0101235D01*
X0186615Y0102103D01*
X0187084Y0103236D01*
X0187084Y0104463D01*
X0186615Y0105597D01*
X0185747Y0106465D01*
X0184613Y0106934D01*
X0183386Y0106934D01*
X0182253Y0106465D01*
X0181638Y0105850D01*
X0153362Y0105850D01*
X0152747Y0106465D01*
X0151613Y0106934D01*
X0150386Y0106934D01*
X0149300Y0106484D01*
X0149300Y0111784D01*
X0149973Y0110159D01*
X0151309Y0108823D01*
X0153055Y0108100D01*
X0154945Y0108100D01*
X0156691Y0108823D01*
X0158027Y0110159D01*
X0158750Y0111905D01*
X0158750Y0113795D01*
X0158027Y0115541D01*
X0156691Y0116877D01*
X0154945Y0117600D01*
X0153055Y0117600D01*
X0151309Y0116877D01*
X0149973Y0115541D01*
X0149300Y0113915D01*
X0149300Y0114897D01*
X0150953Y0116550D01*
X0152300Y0117897D01*
X0152300Y0119288D01*
X0152615Y0119603D01*
X0153084Y0120736D01*
X0153084Y0121891D01*
X0153386Y0121766D01*
X0154256Y0121766D01*
X0160172Y0115850D01*
X0160681Y0115850D01*
X0160212Y0115381D01*
X0159531Y0113739D01*
X0159531Y0111961D01*
X0160212Y0110319D01*
X0161469Y0109062D01*
X0163111Y0108381D01*
X0164889Y0108381D01*
X0166531Y0109062D01*
X0167788Y0110319D01*
X0168468Y0111961D01*
X0168468Y0113739D01*
X0167788Y0115381D01*
X0167319Y0115850D01*
X0170681Y0115850D01*
X0170592Y0115761D01*
X0170178Y0115192D01*
X0169859Y0114565D01*
X0169642Y0113896D01*
X0169552Y0113334D01*
X0173516Y0113334D01*
X0173516Y0112366D01*
X0174484Y0112366D01*
X0174484Y0108402D01*
X0175046Y0108492D01*
X0175715Y0108709D01*
X0176342Y0109028D01*
X0176911Y0109442D01*
X0177408Y0109939D01*
X0177822Y0110508D01*
X0178141Y0111135D01*
X0178358Y0111804D01*
X0178447Y0112366D01*
X0174484Y0112366D01*
X0174484Y0113334D01*
X0178447Y0113334D01*
X0178358Y0113896D01*
X0178141Y0114565D01*
X0177822Y0115192D01*
X0177408Y0115761D01*
X0177319Y0115850D01*
X0180681Y0115850D01*
X0180212Y0115381D01*
X0179531Y0113739D01*
X0179531Y0111961D01*
X0180212Y0110319D01*
X0181469Y0109062D01*
X0183111Y0108381D01*
X0184889Y0108381D01*
X0186531Y0109062D01*
X0187788Y0110319D01*
X0188468Y0111961D01*
X0188468Y0113739D01*
X0187788Y0115381D01*
X0187319Y0115850D01*
X0190681Y0115850D01*
X0190212Y0115381D01*
X0189531Y0113739D01*
X0189531Y0111961D01*
X0190212Y0110319D01*
X0191469Y0109062D01*
X0193111Y0108381D01*
X0194889Y0108381D01*
X0196531Y0109062D01*
X0197788Y0110319D01*
X0198468Y0111961D01*
X0198468Y0113739D01*
X0197788Y0115381D01*
X0197319Y0115850D01*
X0200681Y0115850D01*
X0200212Y0115381D01*
X0199531Y0113739D01*
X0199531Y0111961D01*
X0200212Y0110319D01*
X0201469Y0109062D01*
X0203111Y0108381D01*
X0204889Y0108381D01*
X0206531Y0109062D01*
X0207788Y0110319D01*
X0208468Y0111961D01*
X0208468Y0113739D01*
X0207788Y0115381D01*
X0207319Y0115850D01*
X0210681Y0115850D01*
X0210212Y0115381D01*
X0209531Y0113739D01*
X0209531Y0111961D01*
X0210212Y0110319D01*
X0211469Y0109062D01*
X0213111Y0108381D01*
X0214889Y0108381D01*
X0216531Y0109062D01*
X0217788Y0110319D01*
X0218468Y0111961D01*
X0218468Y0113739D01*
X0217788Y0115381D01*
X0217319Y0115850D01*
X0218172Y0115850D01*
X0219752Y0114270D01*
X0219531Y0113739D01*
X0219531Y0111961D01*
X0220212Y0110319D01*
X0221469Y0109062D01*
X0223111Y0108381D01*
X0224889Y0108381D01*
X0226531Y0109062D01*
X0227788Y0110319D01*
X0228468Y0111961D01*
X0228468Y0113739D01*
X0227788Y0115381D01*
X0226531Y0116638D01*
X0224889Y0117318D01*
X0223111Y0117318D01*
X0222580Y0117098D01*
X0221828Y0117850D01*
X0228172Y0117850D01*
X0230426Y0115595D01*
X0230212Y0115381D01*
X0229531Y0113739D01*
X0229531Y0111961D01*
X0230212Y0110319D01*
X0231469Y0109062D01*
X0233111Y0108381D01*
X0234889Y0108381D01*
X0236531Y0109062D01*
X0237788Y0110319D01*
X0238468Y0111961D01*
X0238468Y0113739D01*
X0237788Y0115381D01*
X0236531Y0116638D01*
X0234889Y0117318D01*
X0234360Y0117318D01*
X0231000Y0120678D01*
X0231000Y0120678D01*
X0230828Y0120850D01*
X0239828Y0120850D01*
X0241000Y0122022D01*
X0242097Y0123118D01*
X0242986Y0122750D01*
X0245014Y0122750D01*
X0246889Y0123526D01*
X0248324Y0124961D01*
X0249000Y0126594D01*
X0249676Y0124961D01*
X0251111Y0123526D01*
X0252986Y0122750D01*
X0255014Y0122750D01*
X0256889Y0123526D01*
X0258324Y0124961D01*
X0259000Y0126594D01*
X0259676Y0124961D01*
X0261111Y0123526D01*
X0262986Y0122750D01*
X0265014Y0122750D01*
X0266889Y0123526D01*
X0268324Y0124961D01*
X0269026Y0126656D01*
X0269026Y0126656D01*
X0269274Y0125892D01*
X0269638Y0125177D01*
X0270110Y0124528D01*
X0270678Y0123960D01*
X0271327Y0123488D01*
X0272042Y0123124D01*
X0272806Y0122876D01*
X0273500Y0122766D01*
X0273500Y0127350D01*
X0274500Y0127350D01*
X0274500Y0122766D01*
X0275194Y0122876D01*
X0275958Y0123124D01*
X0276673Y0123488D01*
X0277322Y0123960D01*
X0277890Y0124528D01*
X0278362Y0125177D01*
X0278726Y0125892D01*
X0278974Y0126656D01*
X0279676Y0124961D01*
X0281111Y0123526D01*
X0282986Y0122750D01*
X0285014Y0122750D01*
X0286889Y0123526D01*
X0288324Y0124961D01*
X0289100Y0126836D01*
X0289100Y0128864D01*
X0288324Y0130739D01*
X0286889Y0132174D01*
X0285014Y0132950D01*
X0282986Y0132950D01*
X0281111Y0132174D01*
X0279676Y0130739D01*
X0278974Y0129044D01*
X0278974Y0129044D01*
X0278726Y0129808D01*
X0278362Y0130523D01*
X0277890Y0131172D01*
X0277322Y0131740D01*
X0276673Y0132212D01*
X0275958Y0132576D01*
X0275194Y0132824D01*
X0274856Y0132878D01*
X0277375Y0135397D01*
X0278172Y0134600D01*
X0282828Y0134600D01*
X0284000Y0135772D01*
X0285172Y0134600D01*
X0289350Y0134600D01*
X0289350Y0133250D01*
X0293600Y0133250D01*
X0293600Y0132450D01*
X0294400Y0132450D01*
X0294400Y0133250D01*
X0298650Y0133250D01*
X0298650Y0134776D01*
X0296202Y0137224D01*
X0297000Y0138022D01*
X0297828Y0138850D01*
X0299078Y0138850D01*
X0300250Y0140022D01*
X0300250Y0144678D01*
X0299078Y0145850D01*
X0292922Y0145850D01*
X0291750Y0144678D01*
X0291750Y0140850D01*
X0291000Y0140850D01*
X0291000Y0141928D01*
X0289828Y0143100D01*
X0289500Y0143100D01*
X0290121Y0143100D01*
X0291000Y0143979D01*
X0291000Y0149721D01*
X0290121Y0150600D01*
X0284879Y0150600D01*
X0284000Y0149721D01*
X0284000Y0143979D01*
X0284879Y0143100D01*
X0285500Y0143100D01*
X0285500Y0143100D01*
X0285172Y0143100D01*
X0284000Y0141928D01*
X0284000Y0135772D01*
X0284000Y0141928D01*
X0282828Y0143100D01*
X0278172Y0143100D01*
X0277000Y0141928D01*
X0277000Y0140678D01*
X0272172Y0135850D01*
X0261828Y0135850D01*
X0258464Y0139215D01*
X0258750Y0139905D01*
X0258750Y0141795D01*
X0258027Y0143541D01*
X0256691Y0144877D01*
X0254945Y0145600D01*
X0253055Y0145600D01*
X0251309Y0144877D01*
X0249973Y0143541D01*
X0249250Y0141795D01*
X0249250Y0139905D01*
X0249973Y0138159D01*
X0251309Y0136823D01*
X0253055Y0136100D01*
X0254945Y0136100D01*
X0255635Y0136386D01*
X0260172Y0131850D01*
X0260788Y0131850D01*
X0259676Y0130739D01*
X0259000Y0129106D01*
X0258324Y0130739D01*
X0256889Y0132174D01*
X0255014Y0132950D01*
X0252986Y0132950D01*
X0252097Y0132582D01*
X0247273Y0137405D01*
X0248027Y0138159D01*
X0248750Y0139905D01*
X0248750Y0141795D01*
X0248027Y0143541D01*
X0246691Y0144877D01*
X0244945Y0145600D01*
X0243055Y0145600D01*
X0241309Y0144877D01*
X0239973Y0143541D01*
X0239250Y0141795D01*
X0239250Y0139905D01*
X0239973Y0138159D01*
X0240727Y0137405D01*
X0239172Y0135850D01*
X0200000Y0135850D01*
X0200000Y0136850D01*
X0204828Y0136850D01*
X0205828Y0137850D01*
X0206828Y0138850D01*
X0208078Y0138850D01*
X0209250Y0140022D01*
X0209250Y0144678D01*
X0208078Y0145850D01*
X0201922Y0145850D01*
X0200750Y0144678D01*
X0200750Y0140850D01*
X0200000Y0140850D01*
X0200000Y0141928D01*
X0198828Y0143100D01*
X0198500Y0143100D01*
X0199121Y0143100D01*
X0200000Y0143979D01*
X0200000Y0149721D01*
X0199121Y0150600D01*
X0193879Y0150600D01*
X0193000Y0149721D01*
X0193000Y0143979D01*
X0193879Y0143100D01*
X0194500Y0143100D01*
X0194500Y0143100D01*
X0194172Y0143100D01*
X0193000Y0141928D01*
X0191828Y0143100D01*
X0187172Y0143100D01*
X0186000Y0141928D01*
X0186000Y0135772D01*
X0187172Y0134600D01*
X0187500Y0134600D01*
X0187500Y0134522D01*
X0189000Y0133022D01*
X0190172Y0131850D01*
X0210788Y0131850D01*
X0209676Y0130739D01*
X0208900Y0128864D01*
X0208900Y0126836D01*
X0209676Y0124961D01*
X0209788Y0124850D01*
X0184472Y0124850D01*
X0183185Y0125494D01*
X0182828Y0125850D01*
X0182472Y0125850D01*
X0182153Y0126009D01*
X0181675Y0125850D01*
X0172362Y0125850D01*
X0171747Y0126465D01*
X0170613Y0126934D01*
X0169386Y0126934D01*
X0168253Y0126465D01*
X0167385Y0125597D01*
X0166916Y0124463D01*
X0166916Y0123236D01*
X0167385Y0122103D01*
X0168253Y0121235D01*
X0169386Y0120766D01*
X0170613Y0120766D01*
X0171747Y0121235D01*
X0172362Y0121850D01*
X0176076Y0121850D01*
X0175916Y0121463D01*
X0175916Y0120236D01*
X0176076Y0119850D01*
X0161828Y0119850D01*
X0161014Y0120664D01*
X0162462Y0120664D01*
X0163611Y0121814D01*
X0160536Y0124890D01*
X0160960Y0125314D01*
X0164036Y0122239D01*
X0165186Y0123388D01*
X0165186Y0127241D01*
X0164036Y0128390D01*
X0160960Y0125314D01*
X0160536Y0125739D01*
X0163611Y0128815D01*
X0162462Y0129964D01*
X0158609Y0129964D01*
X0157460Y0128815D01*
X0160535Y0125739D01*
X0160111Y0125314D01*
X0157035Y0128390D01*
X0155928Y0127283D01*
X0155747Y0127465D01*
X0154741Y0127881D01*
X0156098Y0128443D01*
X0157407Y0129752D01*
X0158114Y0131461D01*
X0158114Y0133310D01*
X0157976Y0133644D01*
X0158300Y0133968D01*
X0158300Y0140788D01*
X0158615Y0141103D01*
X0159084Y0142236D01*
X0159084Y0143463D01*
X0158615Y0144597D01*
X0158000Y0145212D01*
X0158000Y0149022D01*
X0165172Y0141850D01*
X0166500Y0141850D01*
X0166500Y0136229D01*
X0167379Y0135350D01*
X0172000Y0135350D01*
X0172000Y0133667D01*
X0171916Y0133463D01*
X0171916Y0132236D01*
X0172385Y0131103D01*
X0173253Y0130235D01*
X0174386Y0129766D01*
X0175613Y0129766D01*
X0176747Y0130235D01*
X0177615Y0131103D01*
X0178084Y0132236D01*
X0178084Y0133463D01*
X0177615Y0134597D01*
X0176747Y0135465D01*
X0176000Y0135774D01*
X0176000Y0145022D01*
X0176172Y0144850D01*
X0177500Y0143522D01*
X0177500Y0136229D01*
X0178379Y0135350D01*
X0179000Y0135350D01*
X0179000Y0131022D01*
X0180916Y0129106D01*
X0180916Y0128236D01*
X0181385Y0127103D01*
X0182253Y0126235D01*
X0183386Y0125766D01*
X0184613Y0125766D01*
X0185747Y0126235D01*
X0186615Y0127103D01*
X0187084Y0128236D01*
X0187084Y0129463D01*
X0186615Y0130597D01*
X0185747Y0131465D01*
X0184613Y0131934D01*
X0183744Y0131934D01*
X0183000Y0132678D01*
X0183000Y0135350D01*
X0183621Y0135350D01*
X0184500Y0136229D01*
X0184500Y0151471D01*
X0183621Y0152350D01*
X0178379Y0152350D01*
X0178354Y0152325D01*
X0175828Y0154850D01*
X0161828Y0154850D01*
X0160828Y0155850D01*
X0189500Y0155850D01*
X0189500Y0151979D01*
X0190379Y0151100D01*
X0195621Y0151100D01*
X0196500Y0151979D01*
X0196500Y0156850D01*
X0198183Y0156850D01*
X0198386Y0156766D01*
X0199613Y0156766D01*
X0199817Y0156850D01*
X0204172Y0156850D01*
X0205500Y0155522D01*
X0205500Y0152929D01*
X0205579Y0152850D01*
X0205500Y0152850D01*
X0205500Y0149850D01*
X0209250Y0149850D01*
X0209250Y0151113D01*
X0209114Y0151622D01*
X0208867Y0152050D01*
X0213621Y0152050D01*
X0214500Y0152929D01*
X0214500Y0156850D01*
X0217500Y0156850D01*
X0217500Y0152929D01*
X0218379Y0152050D01*
X0225621Y0152050D01*
X0226458Y0152887D01*
X0231000Y0148850D01*
X0271000Y0148850D01*
X0279000Y0156850D01*
X0280500Y0156850D01*
X0280500Y0151979D01*
X0281379Y0151100D01*
X0286621Y0151100D01*
X0287500Y0151979D01*
X0287500Y0156850D01*
X0289183Y0156850D01*
X0289386Y0156766D01*
X0290613Y0156766D01*
X0290817Y0156850D01*
X0294172Y0156850D01*
X0296172Y0154850D01*
X0296500Y0154850D01*
X0296500Y0152929D01*
X0296579Y0152850D01*
X0296500Y0152850D01*
X0296500Y0149850D01*
X0300250Y0149850D01*
X0300250Y0151113D01*
X0300114Y0151622D01*
X0299867Y0152050D01*
X0304621Y0152050D01*
X0305500Y0152929D01*
X0305500Y0156850D01*
X0305500Y0156664D02*
X0308500Y0156664D01*
X0308500Y0155665D02*
X0305500Y0155665D01*
X0305500Y0154667D02*
X0308500Y0154667D01*
X0308500Y0153668D02*
X0305500Y0153668D01*
X0305241Y0152670D02*
X0308759Y0152670D01*
X0300085Y0151671D02*
X0317500Y0151671D01*
X0317500Y0150673D02*
X0300250Y0150673D01*
X0300250Y0148850D02*
X0296500Y0148850D01*
X0296500Y0149850D01*
X0295500Y0149850D01*
X0295500Y0152850D01*
X0293487Y0152850D01*
X0292978Y0152714D01*
X0292522Y0152450D01*
X0292150Y0152078D01*
X0291886Y0151622D01*
X0291750Y0151113D01*
X0291750Y0149850D01*
X0295500Y0149850D01*
X0295500Y0148850D01*
X0296500Y0148850D01*
X0296500Y0145850D01*
X0298513Y0145850D01*
X0299022Y0145986D01*
X0299478Y0146250D01*
X0299850Y0146622D01*
X0300114Y0147078D01*
X0300250Y0147587D01*
X0300250Y0148850D01*
X0300250Y0148676D02*
X0317500Y0148676D01*
X0317500Y0149674D02*
X0296500Y0149674D01*
X0293750Y0150850D02*
X0293750Y0147850D01*
X0293750Y0150850D02*
X0298250Y0150850D01*
X0298250Y0147850D01*
X0293750Y0147850D01*
X0293750Y0148849D02*
X0298250Y0148849D01*
X0298250Y0149848D02*
X0293750Y0149848D01*
X0293750Y0150847D02*
X0298250Y0150847D01*
X0296500Y0150673D02*
X0295500Y0150673D01*
X0295500Y0151671D02*
X0296500Y0151671D01*
X0296500Y0152670D02*
X0295500Y0152670D01*
X0296500Y0153668D02*
X0287500Y0153668D01*
X0287500Y0152670D02*
X0292902Y0152670D01*
X0291915Y0151671D02*
X0287193Y0151671D01*
X0287500Y0154667D02*
X0296500Y0154667D01*
X0295356Y0155665D02*
X0287500Y0155665D01*
X0287500Y0156664D02*
X0294358Y0156664D01*
X0291750Y0150673D02*
X0272823Y0150673D01*
X0273821Y0151671D02*
X0280807Y0151671D01*
X0280500Y0152670D02*
X0274820Y0152670D01*
X0275818Y0153668D02*
X0280500Y0153668D01*
X0280500Y0154667D02*
X0276817Y0154667D01*
X0277815Y0155665D02*
X0280500Y0155665D01*
X0280500Y0156664D02*
X0278814Y0156664D01*
X0284000Y0157850D02*
X0284000Y0154850D01*
X0284000Y0157850D02*
X0286000Y0159850D01*
X0283079Y0150498D02*
X0282697Y0150600D01*
X0281000Y0150600D01*
X0281000Y0147350D01*
X0280000Y0147350D01*
X0280000Y0150600D01*
X0278303Y0150600D01*
X0277921Y0150498D01*
X0277579Y0150300D01*
X0277300Y0150021D01*
X0277102Y0149679D01*
X0277000Y0149297D01*
X0277000Y0147350D01*
X0280000Y0147350D01*
X0280000Y0146350D01*
X0277000Y0146350D01*
X0277000Y0144403D01*
X0277102Y0144021D01*
X0277300Y0143679D01*
X0277579Y0143400D01*
X0277921Y0143202D01*
X0278303Y0143100D01*
X0280000Y0143100D01*
X0280000Y0146350D01*
X0281000Y0146350D01*
X0281000Y0147350D01*
X0284000Y0147350D01*
X0284000Y0149297D01*
X0283898Y0149679D01*
X0283700Y0150021D01*
X0283421Y0150300D01*
X0283079Y0150498D01*
X0283899Y0149674D02*
X0284000Y0149674D01*
X0284000Y0148676D02*
X0284000Y0148676D01*
X0284000Y0147677D02*
X0284000Y0147677D01*
X0284000Y0146679D02*
X0281000Y0146679D01*
X0281000Y0146350D02*
X0284000Y0146350D01*
X0284000Y0144403D01*
X0283898Y0144021D01*
X0283700Y0143679D01*
X0283421Y0143400D01*
X0283079Y0143202D01*
X0282697Y0143100D01*
X0281000Y0143100D01*
X0281000Y0146350D01*
X0281000Y0145680D02*
X0280000Y0145680D01*
X0280000Y0144682D02*
X0281000Y0144682D01*
X0281000Y0143683D02*
X0280000Y0143683D01*
X0277756Y0142685D02*
X0268381Y0142685D01*
X0268027Y0143541D02*
X0266691Y0144877D01*
X0264945Y0145600D01*
X0263055Y0145600D01*
X0261309Y0144877D01*
X0259973Y0143541D01*
X0259250Y0141795D01*
X0259250Y0139905D01*
X0259973Y0138159D01*
X0261309Y0136823D01*
X0263055Y0136100D01*
X0264945Y0136100D01*
X0266691Y0136823D01*
X0268027Y0138159D01*
X0268750Y0139905D01*
X0268750Y0141795D01*
X0268027Y0143541D01*
X0267884Y0143683D02*
X0277297Y0143683D01*
X0277000Y0144682D02*
X0266886Y0144682D01*
X0268750Y0141686D02*
X0277000Y0141686D01*
X0277000Y0140688D02*
X0268750Y0140688D01*
X0268661Y0139689D02*
X0276011Y0139689D01*
X0275012Y0138691D02*
X0268247Y0138691D01*
X0267560Y0137692D02*
X0274014Y0137692D01*
X0273015Y0136694D02*
X0266378Y0136694D01*
X0264000Y0133850D02*
X0261000Y0133850D01*
X0254000Y0140850D01*
X0258381Y0142685D02*
X0259619Y0142685D01*
X0259250Y0141686D02*
X0258750Y0141686D01*
X0258750Y0140688D02*
X0259250Y0140688D01*
X0259339Y0139689D02*
X0258661Y0139689D01*
X0258988Y0138691D02*
X0259753Y0138691D01*
X0259986Y0137692D02*
X0260440Y0137692D01*
X0260985Y0136694D02*
X0261622Y0136694D01*
X0264000Y0133850D02*
X0264000Y0127850D01*
X0268634Y0125710D02*
X0269366Y0125710D01*
X0269976Y0124712D02*
X0268074Y0124712D01*
X0267076Y0123713D02*
X0271017Y0123713D01*
X0273500Y0123713D02*
X0274500Y0123713D01*
X0274500Y0124712D02*
X0273500Y0124712D01*
X0273500Y0125710D02*
X0274500Y0125710D01*
X0274500Y0126709D02*
X0273500Y0126709D01*
X0276983Y0123713D02*
X0280924Y0123713D01*
X0279926Y0124712D02*
X0278024Y0124712D01*
X0278633Y0125710D02*
X0279366Y0125710D01*
X0278974Y0126656D02*
X0278974Y0126656D01*
X0278760Y0129704D02*
X0279248Y0129704D01*
X0279661Y0130703D02*
X0278231Y0130703D01*
X0277361Y0131701D02*
X0280639Y0131701D01*
X0282381Y0132700D02*
X0275578Y0132700D01*
X0275677Y0133698D02*
X0289350Y0133698D01*
X0289350Y0132450D02*
X0289350Y0130924D01*
X0292074Y0128200D01*
X0293600Y0128200D01*
X0293600Y0132450D01*
X0289350Y0132450D01*
X0289350Y0131701D02*
X0287361Y0131701D01*
X0288339Y0130703D02*
X0289571Y0130703D01*
X0288752Y0129704D02*
X0290570Y0129704D01*
X0291568Y0128706D02*
X0289100Y0128706D01*
X0289100Y0127707D02*
X0303446Y0127707D01*
X0303201Y0128706D02*
X0296432Y0128706D01*
X0295926Y0128200D02*
X0298650Y0130924D01*
X0298650Y0132450D01*
X0294400Y0132450D01*
X0294400Y0128200D01*
X0295926Y0128200D01*
X0294400Y0128706D02*
X0293600Y0128706D01*
X0293600Y0129704D02*
X0294400Y0129704D01*
X0294400Y0130703D02*
X0293600Y0130703D01*
X0293600Y0131701D02*
X0294400Y0131701D01*
X0294400Y0132700D02*
X0303739Y0132700D01*
X0304152Y0133698D02*
X0298650Y0133698D01*
X0298650Y0134697D02*
X0304817Y0134697D01*
X0305815Y0135695D02*
X0297731Y0135695D01*
X0296732Y0136694D02*
X0307142Y0136694D01*
X0303325Y0131701D02*
X0298650Y0131701D01*
X0298429Y0130703D02*
X0303201Y0130703D01*
X0303201Y0129704D02*
X0297430Y0129704D01*
X0297871Y0127600D02*
X0298750Y0126721D01*
X0298750Y0118979D01*
X0297871Y0118100D01*
X0290129Y0118100D01*
X0289250Y0118979D01*
X0289250Y0126721D01*
X0290129Y0127600D01*
X0297871Y0127600D01*
X0298750Y0126709D02*
X0301141Y0126709D01*
X0300143Y0125710D02*
X0298750Y0125710D01*
X0298750Y0124712D02*
X0299630Y0124712D01*
X0299250Y0123713D02*
X0298750Y0123713D01*
X0298750Y0122715D02*
X0299250Y0122715D01*
X0299328Y0121716D02*
X0298750Y0121716D01*
X0298750Y0120718D02*
X0299742Y0120718D01*
X0300413Y0119719D02*
X0298750Y0119719D01*
X0298492Y0118720D02*
X0301557Y0118720D01*
X0301675Y0116723D02*
X0296325Y0116723D01*
X0296531Y0116638D02*
X0294889Y0117318D01*
X0293111Y0117318D01*
X0291469Y0116638D01*
X0290212Y0115381D01*
X0289531Y0113739D01*
X0289531Y0111961D01*
X0290212Y0110319D01*
X0291469Y0109062D01*
X0293111Y0108381D01*
X0294889Y0108381D01*
X0296531Y0109062D01*
X0297788Y0110319D01*
X0298468Y0111961D01*
X0298468Y0113739D01*
X0297788Y0115381D01*
X0296531Y0116638D01*
X0297444Y0115725D02*
X0300556Y0115725D01*
X0299941Y0114726D02*
X0298059Y0114726D01*
X0298468Y0113728D02*
X0299531Y0113728D01*
X0299531Y0112729D02*
X0298468Y0112729D01*
X0298373Y0111731D02*
X0299627Y0111731D01*
X0300040Y0110732D02*
X0297960Y0110732D01*
X0297203Y0109734D02*
X0300797Y0109734D01*
X0302257Y0108735D02*
X0295743Y0108735D01*
X0292257Y0108735D02*
X0285743Y0108735D01*
X0286531Y0109062D02*
X0284889Y0108381D01*
X0283111Y0108381D01*
X0281469Y0109062D01*
X0280212Y0110319D01*
X0279531Y0111961D01*
X0279531Y0113739D01*
X0280212Y0115381D01*
X0281469Y0116638D01*
X0283111Y0117318D01*
X0284889Y0117318D01*
X0286531Y0116638D01*
X0287788Y0115381D01*
X0288468Y0113739D01*
X0288468Y0111961D01*
X0287788Y0110319D01*
X0286531Y0109062D01*
X0287203Y0109734D02*
X0290797Y0109734D01*
X0290040Y0110732D02*
X0287960Y0110732D01*
X0288373Y0111731D02*
X0289627Y0111731D01*
X0289531Y0112729D02*
X0288468Y0112729D01*
X0288468Y0113728D02*
X0289531Y0113728D01*
X0289941Y0114726D02*
X0288059Y0114726D01*
X0287444Y0115725D02*
X0290556Y0115725D01*
X0291675Y0116723D02*
X0286325Y0116723D01*
X0289508Y0118720D02*
X0232958Y0118720D01*
X0233956Y0117722D02*
X0306300Y0117722D01*
X0306325Y0116723D02*
X0307000Y0116723D01*
X0309000Y0117850D02*
X0304000Y0122850D01*
X0309000Y0117850D02*
X0309000Y0106850D01*
X0307000Y0104850D01*
X0280000Y0104850D01*
X0274000Y0110850D01*
X0274000Y0112850D01*
X0272257Y0108735D02*
X0265743Y0108735D01*
X0266531Y0109062D02*
X0267788Y0110319D01*
X0268468Y0111961D01*
X0268468Y0113739D01*
X0267788Y0115381D01*
X0266531Y0116638D01*
X0264889Y0117318D01*
X0263111Y0117318D01*
X0261469Y0116638D01*
X0260212Y0115381D01*
X0259531Y0113739D01*
X0259531Y0111961D01*
X0260212Y0110319D01*
X0261469Y0109062D01*
X0263111Y0108381D01*
X0264889Y0108381D01*
X0266531Y0109062D01*
X0267203Y0109734D02*
X0270797Y0109734D01*
X0270040Y0110732D02*
X0267960Y0110732D01*
X0268373Y0111731D02*
X0269627Y0111731D01*
X0269531Y0112729D02*
X0268468Y0112729D01*
X0268468Y0113728D02*
X0269531Y0113728D01*
X0269941Y0114726D02*
X0268059Y0114726D01*
X0267444Y0115725D02*
X0270556Y0115725D01*
X0271675Y0116723D02*
X0266325Y0116723D01*
X0261675Y0116723D02*
X0256325Y0116723D01*
X0256531Y0116638D02*
X0254889Y0117318D01*
X0253111Y0117318D01*
X0251469Y0116638D01*
X0250212Y0115381D01*
X0249531Y0113739D01*
X0249531Y0111961D01*
X0250212Y0110319D01*
X0251469Y0109062D01*
X0253111Y0108381D01*
X0254889Y0108381D01*
X0256531Y0109062D01*
X0257788Y0110319D01*
X0258468Y0111961D01*
X0258468Y0113739D01*
X0257788Y0115381D01*
X0256531Y0116638D01*
X0257444Y0115725D02*
X0260556Y0115725D01*
X0259941Y0114726D02*
X0258059Y0114726D01*
X0258468Y0113728D02*
X0259531Y0113728D01*
X0259531Y0112729D02*
X0258468Y0112729D01*
X0258373Y0111731D02*
X0259627Y0111731D01*
X0260040Y0110732D02*
X0257960Y0110732D01*
X0257203Y0109734D02*
X0260797Y0109734D01*
X0262257Y0108735D02*
X0255743Y0108735D01*
X0252257Y0108735D02*
X0245743Y0108735D01*
X0246531Y0109062D02*
X0247788Y0110319D01*
X0248468Y0111961D01*
X0248468Y0113739D01*
X0247788Y0115381D01*
X0246531Y0116638D01*
X0244889Y0117318D01*
X0243111Y0117318D01*
X0241469Y0116638D01*
X0240212Y0115381D01*
X0239531Y0113739D01*
X0239531Y0111961D01*
X0240212Y0110319D01*
X0241469Y0109062D01*
X0243111Y0108381D01*
X0244889Y0108381D01*
X0246531Y0109062D01*
X0247203Y0109734D02*
X0250797Y0109734D01*
X0250040Y0110732D02*
X0247960Y0110732D01*
X0248373Y0111731D02*
X0249627Y0111731D01*
X0249531Y0112729D02*
X0248468Y0112729D01*
X0248468Y0113728D02*
X0249531Y0113728D01*
X0249941Y0114726D02*
X0248059Y0114726D01*
X0247444Y0115725D02*
X0250556Y0115725D01*
X0251675Y0116723D02*
X0246325Y0116723D01*
X0241675Y0116723D02*
X0236325Y0116723D01*
X0237444Y0115725D02*
X0240556Y0115725D01*
X0239941Y0114726D02*
X0238059Y0114726D01*
X0238468Y0113728D02*
X0239531Y0113728D01*
X0239531Y0112729D02*
X0238468Y0112729D01*
X0238373Y0111731D02*
X0239627Y0111731D01*
X0240040Y0110732D02*
X0237960Y0110732D01*
X0237203Y0109734D02*
X0240797Y0109734D01*
X0242257Y0108735D02*
X0235743Y0108735D01*
X0232257Y0108735D02*
X0225743Y0108735D01*
X0227203Y0109734D02*
X0230797Y0109734D01*
X0230040Y0110732D02*
X0227960Y0110732D01*
X0228373Y0111731D02*
X0229627Y0111731D01*
X0229531Y0112729D02*
X0228468Y0112729D01*
X0228468Y0113728D02*
X0229531Y0113728D01*
X0229941Y0114726D02*
X0228059Y0114726D01*
X0227444Y0115725D02*
X0230297Y0115725D01*
X0229298Y0116723D02*
X0226325Y0116723D01*
X0228300Y0117722D02*
X0221956Y0117722D01*
X0219000Y0117850D02*
X0161000Y0117850D01*
X0154000Y0124850D01*
X0155162Y0127707D02*
X0156352Y0127707D01*
X0156361Y0128706D02*
X0157569Y0128706D01*
X0157719Y0127707D02*
X0158567Y0127707D01*
X0158717Y0126709D02*
X0159566Y0126709D01*
X0159716Y0125710D02*
X0160507Y0125710D01*
X0160564Y0125710D02*
X0161355Y0125710D01*
X0161505Y0126709D02*
X0162354Y0126709D01*
X0162504Y0127707D02*
X0163352Y0127707D01*
X0163502Y0128706D02*
X0180916Y0128706D01*
X0181135Y0127707D02*
X0164719Y0127707D01*
X0165186Y0126709D02*
X0168842Y0126709D01*
X0167498Y0125710D02*
X0165186Y0125710D01*
X0165186Y0124712D02*
X0167019Y0124712D01*
X0166916Y0123713D02*
X0165186Y0123713D01*
X0164512Y0122715D02*
X0167132Y0122715D01*
X0167772Y0121716D02*
X0163513Y0121716D01*
X0163560Y0122715D02*
X0162711Y0122715D01*
X0162561Y0123713D02*
X0161713Y0123713D01*
X0161563Y0124712D02*
X0160714Y0124712D01*
X0162515Y0120718D02*
X0175916Y0120718D01*
X0176020Y0121716D02*
X0172228Y0121716D01*
X0170000Y0123850D02*
X0182000Y0123850D01*
X0184000Y0122850D01*
X0239000Y0122850D01*
X0244000Y0127850D01*
X0248634Y0125710D02*
X0249366Y0125710D01*
X0249926Y0124712D02*
X0248074Y0124712D01*
X0247076Y0123713D02*
X0250924Y0123713D01*
X0254000Y0127850D02*
X0244000Y0137850D01*
X0244000Y0140850D01*
X0244000Y0137850D02*
X0240000Y0133850D01*
X0191000Y0133850D01*
X0189500Y0135350D01*
X0189500Y0138850D01*
X0191000Y0136600D02*
X0188000Y0136600D01*
X0188000Y0141100D01*
X0191000Y0141100D01*
X0191000Y0136600D01*
X0191000Y0137599D02*
X0188000Y0137599D01*
X0188000Y0138598D02*
X0191000Y0138598D01*
X0191000Y0139597D02*
X0188000Y0139597D01*
X0188000Y0140596D02*
X0191000Y0140596D01*
X0193000Y0140688D02*
X0193000Y0140688D01*
X0193000Y0141686D02*
X0193000Y0141686D01*
X0193000Y0141928D02*
X0193000Y0135850D01*
X0193000Y0135850D01*
X0193000Y0141928D01*
X0192244Y0142685D02*
X0193756Y0142685D01*
X0193295Y0143683D02*
X0192703Y0143683D01*
X0192700Y0143679D02*
X0192898Y0144021D01*
X0193000Y0144403D01*
X0193000Y0146350D01*
X0190000Y0146350D01*
X0190000Y0147350D01*
X0189000Y0147350D01*
X0189000Y0150600D01*
X0187303Y0150600D01*
X0186921Y0150498D01*
X0186579Y0150300D01*
X0186300Y0150021D01*
X0186102Y0149679D01*
X0186000Y0149297D01*
X0186000Y0147350D01*
X0189000Y0147350D01*
X0189000Y0146350D01*
X0186000Y0146350D01*
X0186000Y0144403D01*
X0186102Y0144021D01*
X0186300Y0143679D01*
X0186579Y0143400D01*
X0186921Y0143202D01*
X0187303Y0143100D01*
X0189000Y0143100D01*
X0189000Y0146350D01*
X0190000Y0146350D01*
X0190000Y0143100D01*
X0191697Y0143100D01*
X0192079Y0143202D01*
X0192421Y0143400D01*
X0192700Y0143679D01*
X0193000Y0144682D02*
X0193000Y0144682D01*
X0193000Y0145680D02*
X0193000Y0145680D01*
X0193000Y0146679D02*
X0190000Y0146679D01*
X0190000Y0147350D02*
X0193000Y0147350D01*
X0193000Y0149297D01*
X0192898Y0149679D01*
X0192700Y0150021D01*
X0192421Y0150300D01*
X0192079Y0150498D01*
X0191697Y0150600D01*
X0190000Y0150600D01*
X0190000Y0147350D01*
X0190000Y0147677D02*
X0189000Y0147677D01*
X0189000Y0146679D02*
X0184500Y0146679D01*
X0184500Y0147677D02*
X0186000Y0147677D01*
X0186000Y0148676D02*
X0184500Y0148676D01*
X0184500Y0149674D02*
X0186101Y0149674D01*
X0184500Y0150673D02*
X0200750Y0150673D01*
X0200750Y0151113D02*
X0200750Y0149850D01*
X0204500Y0149850D01*
X0204500Y0152850D01*
X0202487Y0152850D01*
X0201978Y0152714D01*
X0201522Y0152450D01*
X0201150Y0152078D01*
X0200886Y0151622D01*
X0200750Y0151113D01*
X0200915Y0151671D02*
X0196193Y0151671D01*
X0196500Y0152670D02*
X0201902Y0152670D01*
X0204500Y0152670D02*
X0205500Y0152670D01*
X0205500Y0153668D02*
X0196500Y0153668D01*
X0196500Y0154667D02*
X0205500Y0154667D01*
X0205356Y0155665D02*
X0196500Y0155665D01*
X0196500Y0156664D02*
X0204358Y0156664D01*
X0207000Y0156850D02*
X0204000Y0159850D01*
X0199000Y0159850D01*
X0199000Y0200393D01*
X0211079Y0223472D01*
X0145000Y0162850D02*
X0145000Y0160850D01*
X0148000Y0157850D01*
X0193000Y0157850D01*
X0195000Y0159850D01*
X0199000Y0159850D01*
X0193000Y0157850D02*
X0193000Y0154850D01*
X0189500Y0154667D02*
X0176012Y0154667D01*
X0177010Y0153668D02*
X0189500Y0153668D01*
X0189500Y0152670D02*
X0178009Y0152670D01*
X0177000Y0150850D02*
X0175000Y0152850D01*
X0174000Y0152850D01*
X0161000Y0152850D01*
X0158000Y0155850D01*
X0132000Y0155850D01*
X0126000Y0161850D01*
X0122000Y0161850D01*
X0115000Y0168850D01*
X0102000Y0168850D01*
X0099000Y0165850D01*
X0099000Y0160850D01*
X0099000Y0156090D01*
X0103453Y0155665D02*
X0110500Y0155665D01*
X0110500Y0155522D02*
X0115000Y0151022D01*
X0116172Y0149850D01*
X0154000Y0149850D01*
X0154000Y0145212D01*
X0153938Y0145150D01*
X0149750Y0145150D01*
X0149750Y0146721D01*
X0148871Y0147600D01*
X0141129Y0147600D01*
X0140250Y0146721D01*
X0140250Y0138979D01*
X0141129Y0138100D01*
X0148871Y0138100D01*
X0149750Y0138979D01*
X0149750Y0140550D01*
X0153700Y0140550D01*
X0153700Y0137036D01*
X0152540Y0137036D01*
X0150830Y0136328D01*
X0149522Y0135020D01*
X0148814Y0133310D01*
X0148814Y0131461D01*
X0148953Y0131127D01*
X0148428Y0130602D01*
X0147680Y0131350D01*
X0141438Y0131350D01*
X0140622Y0130534D01*
X0139806Y0131350D01*
X0136084Y0131350D01*
X0136084Y0132463D01*
X0135615Y0133597D01*
X0134747Y0134465D01*
X0133613Y0134934D01*
X0132744Y0134934D01*
X0128273Y0139405D01*
X0129027Y0140159D01*
X0129750Y0141905D01*
X0129750Y0143795D01*
X0129027Y0145541D01*
X0127691Y0146877D01*
X0125945Y0147600D01*
X0124055Y0147600D01*
X0122309Y0146877D01*
X0120973Y0145541D01*
X0120250Y0143795D01*
X0120250Y0141905D01*
X0120973Y0140159D01*
X0122309Y0138823D01*
X0123827Y0138194D01*
X0124172Y0137850D01*
X0129916Y0132106D01*
X0129916Y0131350D01*
X0125690Y0131350D01*
X0124874Y0130534D01*
X0124058Y0131350D01*
X0122937Y0131350D01*
X0122937Y0131741D01*
X0119828Y0134850D01*
X0111767Y0134850D01*
X0111722Y0134891D01*
X0110947Y0134850D01*
X0110172Y0134850D01*
X0110128Y0134807D01*
X0110068Y0134804D01*
X0109549Y0134227D01*
X0109000Y0133678D01*
X0109000Y0133617D01*
X0107749Y0132227D01*
X0107200Y0131678D01*
X0107200Y0131617D01*
X0107159Y0131572D01*
X0107171Y0131350D01*
X0105689Y0131350D01*
X0105689Y0125350D01*
X0104689Y0125350D01*
X0104689Y0131350D01*
X0102491Y0131350D01*
X0102110Y0131248D01*
X0101768Y0131050D01*
X0101489Y0130771D01*
X0101315Y0130470D01*
X0101315Y0130471D01*
X0100436Y0131350D01*
X0099000Y0131350D01*
X0099000Y0133022D01*
X0100328Y0134350D01*
X0100424Y0134350D01*
X0103074Y0131700D01*
X0106926Y0131700D01*
X0109650Y0134424D01*
X0109650Y0138276D01*
X0107326Y0140600D01*
X0109650Y0142924D01*
X0109650Y0144550D01*
X0105300Y0144550D01*
X0105300Y0145150D01*
X0104700Y0145150D01*
X0104700Y0149500D01*
X0103453Y0149500D01*
X0103453Y0151366D01*
X0103351Y0151748D01*
X0103153Y0152090D01*
X0102893Y0152350D01*
X0103453Y0152910D01*
X0103453Y0156600D01*
X0107828Y0156600D01*
X0109000Y0157772D01*
X0109000Y0163928D01*
X0107828Y0165100D01*
X0103172Y0165100D01*
X0102000Y0163928D01*
X0102000Y0162850D01*
X0101000Y0162850D01*
X0101000Y0165022D01*
X0102828Y0166850D01*
X0114172Y0166850D01*
X0117536Y0163485D01*
X0117250Y0162795D01*
X0117250Y0160905D01*
X0117973Y0159159D01*
X0119309Y0157823D01*
X0121055Y0157100D01*
X0122945Y0157100D01*
X0124555Y0157767D01*
X0124385Y0157597D01*
X0123916Y0156463D01*
X0123916Y0155236D01*
X0124385Y0154103D01*
X0124638Y0153850D01*
X0117828Y0153850D01*
X0114953Y0156725D01*
X0116000Y0157772D01*
X0116000Y0163928D01*
X0114828Y0165100D01*
X0110172Y0165100D01*
X0109000Y0163928D01*
X0109000Y0157772D01*
X0110172Y0156600D01*
X0110500Y0156600D01*
X0110500Y0155522D01*
X0110108Y0156664D02*
X0107892Y0156664D01*
X0108891Y0157662D02*
X0109109Y0157662D01*
X0109000Y0158661D02*
X0109000Y0158661D01*
X0109000Y0159659D02*
X0109000Y0159659D01*
X0109000Y0160658D02*
X0109000Y0160658D01*
X0109000Y0161656D02*
X0109000Y0161656D01*
X0109000Y0162655D02*
X0109000Y0162655D01*
X0109000Y0163653D02*
X0109000Y0163653D01*
X0108276Y0164652D02*
X0109724Y0164652D01*
X0111000Y0158600D02*
X0114000Y0158600D01*
X0111000Y0158600D02*
X0111000Y0163100D01*
X0114000Y0163100D01*
X0114000Y0158600D01*
X0114000Y0159599D02*
X0111000Y0159599D01*
X0111000Y0160598D02*
X0114000Y0160598D01*
X0114000Y0161597D02*
X0111000Y0161597D01*
X0111000Y0162596D02*
X0114000Y0162596D01*
X0116000Y0162655D02*
X0117250Y0162655D01*
X0117250Y0161656D02*
X0116000Y0161656D01*
X0116000Y0160658D02*
X0117352Y0160658D01*
X0117766Y0159659D02*
X0116000Y0159659D01*
X0116000Y0158661D02*
X0118472Y0158661D01*
X0119697Y0157662D02*
X0115891Y0157662D01*
X0115014Y0156664D02*
X0123999Y0156664D01*
X0123916Y0155665D02*
X0116013Y0155665D01*
X0117012Y0154667D02*
X0124152Y0154667D01*
X0124303Y0157662D02*
X0124451Y0157662D01*
X0127000Y0155850D02*
X0129000Y0153850D01*
X0156000Y0153850D01*
X0166000Y0143850D01*
X0170000Y0143850D01*
X0166500Y0141686D02*
X0158856Y0141686D01*
X0159084Y0142685D02*
X0164337Y0142685D01*
X0163338Y0143683D02*
X0158993Y0143683D01*
X0158530Y0144682D02*
X0162340Y0144682D01*
X0161341Y0145680D02*
X0158000Y0145680D01*
X0158000Y0146679D02*
X0160343Y0146679D01*
X0159344Y0147677D02*
X0158000Y0147677D01*
X0158000Y0148676D02*
X0158346Y0148676D01*
X0156000Y0150850D02*
X0156000Y0142850D01*
X0158300Y0140688D02*
X0166500Y0140688D01*
X0166500Y0139689D02*
X0158300Y0139689D01*
X0158300Y0138691D02*
X0166500Y0138691D01*
X0166500Y0137692D02*
X0158300Y0137692D01*
X0158300Y0136694D02*
X0166500Y0136694D01*
X0167033Y0135695D02*
X0158300Y0135695D01*
X0158300Y0134697D02*
X0172000Y0134697D01*
X0172000Y0133698D02*
X0158030Y0133698D01*
X0158114Y0132700D02*
X0171916Y0132700D01*
X0172138Y0131701D02*
X0158114Y0131701D01*
X0157800Y0130703D02*
X0172786Y0130703D01*
X0175000Y0132850D02*
X0174000Y0133850D01*
X0174000Y0146850D01*
X0172000Y0148850D01*
X0170000Y0148850D01*
X0177000Y0146850D02*
X0177000Y0150850D01*
X0177000Y0146850D02*
X0180000Y0143850D01*
X0181000Y0143850D01*
X0184500Y0143683D02*
X0186297Y0143683D01*
X0186000Y0144682D02*
X0184500Y0144682D01*
X0184500Y0145680D02*
X0186000Y0145680D01*
X0189000Y0145680D02*
X0190000Y0145680D01*
X0190000Y0144682D02*
X0189000Y0144682D01*
X0189000Y0143683D02*
X0190000Y0143683D01*
X0186756Y0142685D02*
X0184500Y0142685D01*
X0184500Y0141686D02*
X0186000Y0141686D01*
X0186000Y0140688D02*
X0184500Y0140688D01*
X0184500Y0139689D02*
X0186000Y0139689D01*
X0186000Y0138691D02*
X0184500Y0138691D01*
X0184500Y0137692D02*
X0186000Y0137692D01*
X0186000Y0136694D02*
X0184500Y0136694D01*
X0183966Y0135695D02*
X0186076Y0135695D01*
X0187075Y0134697D02*
X0183000Y0134697D01*
X0183000Y0133698D02*
X0188323Y0133698D01*
X0189322Y0132700D02*
X0183000Y0132700D01*
X0181000Y0131850D02*
X0184000Y0128850D01*
X0185176Y0131701D02*
X0210639Y0131701D01*
X0209661Y0130703D02*
X0186509Y0130703D01*
X0186985Y0129704D02*
X0209248Y0129704D01*
X0208900Y0128706D02*
X0187084Y0128706D01*
X0186865Y0127707D02*
X0208900Y0127707D01*
X0208953Y0126709D02*
X0186220Y0126709D01*
X0182968Y0125710D02*
X0209366Y0125710D01*
X0210556Y0115725D02*
X0207444Y0115725D01*
X0208059Y0114726D02*
X0209941Y0114726D01*
X0209531Y0113728D02*
X0208468Y0113728D01*
X0208468Y0112729D02*
X0209531Y0112729D01*
X0209627Y0111731D02*
X0208373Y0111731D01*
X0207960Y0110732D02*
X0210040Y0110732D01*
X0210797Y0109734D02*
X0207203Y0109734D01*
X0205743Y0108735D02*
X0212257Y0108735D01*
X0215743Y0108735D02*
X0222257Y0108735D01*
X0220797Y0109734D02*
X0217203Y0109734D01*
X0217960Y0110732D02*
X0220040Y0110732D01*
X0219627Y0111731D02*
X0218373Y0111731D01*
X0218468Y0112729D02*
X0219531Y0112729D01*
X0219531Y0113728D02*
X0218468Y0113728D01*
X0218059Y0114726D02*
X0219295Y0114726D01*
X0218297Y0115725D02*
X0217444Y0115725D01*
X0219000Y0117850D02*
X0224000Y0112850D01*
X0229000Y0119850D02*
X0180000Y0119850D01*
X0179000Y0120850D01*
X0180556Y0115725D02*
X0177435Y0115725D01*
X0178059Y0114726D02*
X0179941Y0114726D01*
X0179531Y0113728D02*
X0178385Y0113728D01*
X0179531Y0112729D02*
X0174484Y0112729D01*
X0173516Y0112729D02*
X0168468Y0112729D01*
X0168468Y0113728D02*
X0169615Y0113728D01*
X0169941Y0114726D02*
X0168059Y0114726D01*
X0167444Y0115725D02*
X0170565Y0115725D01*
X0169552Y0112366D02*
X0169642Y0111804D01*
X0169859Y0111135D01*
X0170178Y0110508D01*
X0170592Y0109939D01*
X0171089Y0109442D01*
X0171658Y0109028D01*
X0172285Y0108709D01*
X0172954Y0108492D01*
X0173516Y0108402D01*
X0173516Y0112366D01*
X0169552Y0112366D01*
X0169665Y0111731D02*
X0168373Y0111731D01*
X0167960Y0110732D02*
X0170064Y0110732D01*
X0170797Y0109734D02*
X0167203Y0109734D01*
X0165743Y0108735D02*
X0172233Y0108735D01*
X0173516Y0108735D02*
X0174484Y0108735D01*
X0174484Y0109734D02*
X0173516Y0109734D01*
X0173516Y0110732D02*
X0174484Y0110732D01*
X0174484Y0111731D02*
X0173516Y0111731D01*
X0175767Y0108735D02*
X0182257Y0108735D01*
X0180797Y0109734D02*
X0177203Y0109734D01*
X0177936Y0110732D02*
X0180040Y0110732D01*
X0179627Y0111731D02*
X0178335Y0111731D01*
X0182914Y0106738D02*
X0152086Y0106738D01*
X0151521Y0108735D02*
X0149300Y0108735D01*
X0149300Y0107737D02*
X0274285Y0107737D01*
X0275283Y0106738D02*
X0185086Y0106738D01*
X0186472Y0105740D02*
X0276282Y0105740D01*
X0277280Y0104741D02*
X0186969Y0104741D01*
X0187084Y0103743D02*
X0278279Y0103743D01*
X0279942Y0107737D02*
X0307000Y0107737D01*
X0307000Y0108735D02*
X0305743Y0108735D01*
X0311000Y0108735D02*
X0311521Y0108735D01*
X0311000Y0107737D02*
X0317500Y0107737D01*
X0317500Y0108735D02*
X0316479Y0108735D01*
X0317500Y0106738D02*
X0311000Y0106738D01*
X0310718Y0105740D02*
X0317500Y0105740D01*
X0317500Y0104741D02*
X0309720Y0104741D01*
X0308721Y0103743D02*
X0317500Y0103743D01*
X0317500Y0102744D02*
X0186880Y0102744D01*
X0186258Y0101746D02*
X0287932Y0101746D01*
X0290068Y0101746D02*
X0317500Y0101746D01*
X0317500Y0100747D02*
X0291464Y0100747D01*
X0291966Y0099749D02*
X0317500Y0099749D01*
X0317500Y0098750D02*
X0292084Y0098750D01*
X0291883Y0097752D02*
X0317500Y0097752D01*
X0317500Y0096753D02*
X0291265Y0096753D01*
X0282257Y0108735D02*
X0278943Y0108735D01*
X0277945Y0109734D02*
X0280797Y0109734D01*
X0280040Y0110732D02*
X0277960Y0110732D01*
X0278373Y0111731D02*
X0279627Y0111731D01*
X0279531Y0112729D02*
X0278468Y0112729D01*
X0278468Y0113728D02*
X0279531Y0113728D01*
X0279941Y0114726D02*
X0278059Y0114726D01*
X0277444Y0115725D02*
X0280556Y0115725D01*
X0281675Y0116723D02*
X0276325Y0116723D01*
X0287076Y0123713D02*
X0289250Y0123713D01*
X0289250Y0122715D02*
X0241693Y0122715D01*
X0241000Y0122022D02*
X0241000Y0122022D01*
X0240694Y0121716D02*
X0289250Y0121716D01*
X0289250Y0120718D02*
X0230961Y0120718D01*
X0231959Y0119719D02*
X0289250Y0119719D01*
X0289250Y0124712D02*
X0288074Y0124712D01*
X0288634Y0125710D02*
X0289250Y0125710D01*
X0289250Y0126709D02*
X0289047Y0126709D01*
X0285619Y0132700D02*
X0293600Y0132700D01*
X0296671Y0137692D02*
X0317500Y0137692D01*
X0317500Y0136694D02*
X0314858Y0136694D01*
X0316185Y0135695D02*
X0317500Y0135695D01*
X0317500Y0134697D02*
X0317183Y0134697D01*
X0317500Y0138691D02*
X0297669Y0138691D01*
X0296000Y0139850D02*
X0296000Y0142350D01*
X0293750Y0140850D02*
X0293750Y0143850D01*
X0298250Y0143850D01*
X0298250Y0140850D01*
X0293750Y0140850D01*
X0293750Y0141849D02*
X0298250Y0141849D01*
X0298250Y0142848D02*
X0293750Y0142848D01*
X0293750Y0143847D02*
X0298250Y0143847D01*
X0300250Y0143683D02*
X0317500Y0143683D01*
X0317500Y0142685D02*
X0300250Y0142685D01*
X0300250Y0141686D02*
X0317500Y0141686D01*
X0317500Y0140688D02*
X0300250Y0140688D01*
X0299918Y0139689D02*
X0317500Y0139689D01*
X0317500Y0144682D02*
X0300247Y0144682D01*
X0299248Y0145680D02*
X0317500Y0145680D01*
X0317500Y0146679D02*
X0299883Y0146679D01*
X0300250Y0147677D02*
X0317500Y0147677D01*
X0317500Y0152670D02*
X0317241Y0152670D01*
X0317500Y0153668D02*
X0317500Y0153668D01*
X0317500Y0154667D02*
X0317500Y0154667D01*
X0317500Y0155665D02*
X0317500Y0155665D01*
X0317500Y0156664D02*
X0317500Y0156664D01*
X0317500Y0156850D02*
X0317500Y0156850D01*
X0296500Y0148676D02*
X0295500Y0148676D01*
X0295500Y0148850D02*
X0295500Y0145850D01*
X0293487Y0145850D01*
X0292978Y0145986D01*
X0292522Y0146250D01*
X0292150Y0146622D01*
X0291886Y0147078D01*
X0291750Y0147587D01*
X0291750Y0148850D01*
X0295500Y0148850D01*
X0295500Y0149674D02*
X0291000Y0149674D01*
X0291000Y0148676D02*
X0291750Y0148676D01*
X0291750Y0147677D02*
X0291000Y0147677D01*
X0291000Y0146679D02*
X0292117Y0146679D01*
X0292752Y0145680D02*
X0291000Y0145680D01*
X0291000Y0144682D02*
X0291753Y0144682D01*
X0291750Y0143683D02*
X0290705Y0143683D01*
X0290244Y0142685D02*
X0291750Y0142685D01*
X0291750Y0141686D02*
X0291000Y0141686D01*
X0289500Y0143100D02*
X0289500Y0143100D01*
X0287500Y0146850D02*
X0287500Y0138850D01*
X0289000Y0136600D02*
X0286000Y0136600D01*
X0286000Y0141100D01*
X0289000Y0141100D01*
X0289000Y0136600D01*
X0289000Y0137599D02*
X0286000Y0137599D01*
X0286000Y0138598D02*
X0289000Y0138598D01*
X0289000Y0139597D02*
X0286000Y0139597D01*
X0286000Y0140596D02*
X0289000Y0140596D01*
X0287500Y0138850D02*
X0295000Y0138850D01*
X0296000Y0139850D01*
X0295500Y0146679D02*
X0296500Y0146679D01*
X0296500Y0147677D02*
X0295500Y0147677D01*
X0284000Y0145680D02*
X0284000Y0145680D01*
X0284000Y0144682D02*
X0284000Y0144682D01*
X0284295Y0143683D02*
X0283703Y0143683D01*
X0283244Y0142685D02*
X0284756Y0142685D01*
X0284000Y0141686D02*
X0284000Y0141686D01*
X0284000Y0140688D02*
X0284000Y0140688D01*
X0284000Y0139689D02*
X0284000Y0139689D01*
X0284000Y0138691D02*
X0284000Y0138691D01*
X0284000Y0137692D02*
X0284000Y0137692D01*
X0284000Y0136694D02*
X0284000Y0136694D01*
X0283924Y0135695D02*
X0284076Y0135695D01*
X0285075Y0134697D02*
X0282925Y0134697D01*
X0280500Y0138850D02*
X0278000Y0138850D01*
X0273000Y0133850D01*
X0264000Y0133850D01*
X0260639Y0131701D02*
X0257361Y0131701D01*
X0258339Y0130703D02*
X0259661Y0130703D01*
X0259248Y0129704D02*
X0258752Y0129704D01*
X0259322Y0132700D02*
X0255619Y0132700D01*
X0257325Y0134697D02*
X0249982Y0134697D01*
X0248983Y0135695D02*
X0256326Y0135695D01*
X0258323Y0133698D02*
X0250980Y0133698D01*
X0251979Y0132700D02*
X0252381Y0132700D01*
X0251622Y0136694D02*
X0247985Y0136694D01*
X0247560Y0137692D02*
X0250440Y0137692D01*
X0249753Y0138691D02*
X0248247Y0138691D01*
X0248661Y0139689D02*
X0249339Y0139689D01*
X0249250Y0140688D02*
X0248750Y0140688D01*
X0248750Y0141686D02*
X0249250Y0141686D01*
X0249619Y0142685D02*
X0248381Y0142685D01*
X0247884Y0143683D02*
X0250116Y0143683D01*
X0251114Y0144682D02*
X0246886Y0144682D01*
X0241114Y0144682D02*
X0238646Y0144682D01*
X0238648Y0144679D02*
X0238450Y0145021D01*
X0238171Y0145300D01*
X0237829Y0145498D01*
X0237447Y0145600D01*
X0234375Y0145600D01*
X0234375Y0141225D01*
X0233625Y0141225D01*
X0233625Y0145600D01*
X0230553Y0145600D01*
X0230171Y0145498D01*
X0229829Y0145300D01*
X0229550Y0145021D01*
X0229352Y0144679D01*
X0229250Y0144297D01*
X0229250Y0141225D01*
X0233625Y0141225D01*
X0233625Y0140475D01*
X0234375Y0140475D01*
X0234375Y0141225D01*
X0238750Y0141225D01*
X0238750Y0144297D01*
X0238648Y0144679D01*
X0238750Y0143683D02*
X0240116Y0143683D01*
X0239619Y0142685D02*
X0238750Y0142685D01*
X0238750Y0141686D02*
X0239250Y0141686D01*
X0239250Y0140688D02*
X0234375Y0140688D01*
X0234375Y0140475D02*
X0238750Y0140475D01*
X0238750Y0137403D01*
X0238648Y0137021D01*
X0238450Y0136679D01*
X0238171Y0136400D01*
X0237829Y0136202D01*
X0237447Y0136100D01*
X0234375Y0136100D01*
X0234375Y0140475D01*
X0233625Y0140475D02*
X0233625Y0136100D01*
X0230553Y0136100D01*
X0230171Y0136202D01*
X0229829Y0136400D01*
X0229550Y0136679D01*
X0229352Y0137021D01*
X0229250Y0137403D01*
X0229250Y0140475D01*
X0233625Y0140475D01*
X0233625Y0140688D02*
X0209250Y0140688D01*
X0209250Y0141686D02*
X0229250Y0141686D01*
X0229250Y0142685D02*
X0209250Y0142685D01*
X0209250Y0143683D02*
X0229250Y0143683D01*
X0229354Y0144682D02*
X0209247Y0144682D01*
X0208248Y0145680D02*
X0277000Y0145680D01*
X0277000Y0147677D02*
X0209250Y0147677D01*
X0209250Y0147587D02*
X0209250Y0148850D01*
X0205500Y0148850D01*
X0205500Y0149850D01*
X0204500Y0149850D01*
X0204500Y0148850D01*
X0205500Y0148850D01*
X0205500Y0145850D01*
X0207513Y0145850D01*
X0208022Y0145986D01*
X0208478Y0146250D01*
X0208850Y0146622D01*
X0209114Y0147078D01*
X0209250Y0147587D01*
X0208883Y0146679D02*
X0280000Y0146679D01*
X0280000Y0147677D02*
X0281000Y0147677D01*
X0281000Y0148676D02*
X0280000Y0148676D01*
X0280000Y0149674D02*
X0281000Y0149674D01*
X0277101Y0149674D02*
X0271824Y0149674D01*
X0277000Y0148676D02*
X0209250Y0148676D01*
X0209250Y0150673D02*
X0228949Y0150673D01*
X0227826Y0151671D02*
X0209085Y0151671D01*
X0205500Y0151671D02*
X0204500Y0151671D01*
X0204500Y0150673D02*
X0205500Y0150673D01*
X0205500Y0149674D02*
X0230073Y0149674D01*
X0226703Y0152670D02*
X0226241Y0152670D01*
X0217759Y0152670D02*
X0214241Y0152670D01*
X0214500Y0153668D02*
X0217500Y0153668D01*
X0217500Y0154667D02*
X0214500Y0154667D01*
X0214500Y0155665D02*
X0217500Y0155665D01*
X0217500Y0156664D02*
X0214500Y0156664D01*
X0210000Y0156850D02*
X0207000Y0156850D01*
X0204500Y0149674D02*
X0200000Y0149674D01*
X0200000Y0148676D02*
X0200750Y0148676D01*
X0200750Y0148850D02*
X0200750Y0147587D01*
X0200886Y0147078D01*
X0201150Y0146622D01*
X0201522Y0146250D01*
X0201978Y0145986D01*
X0202487Y0145850D01*
X0204500Y0145850D01*
X0204500Y0148850D01*
X0200750Y0148850D01*
X0200750Y0147677D02*
X0200000Y0147677D01*
X0200000Y0146679D02*
X0201117Y0146679D01*
X0201752Y0145680D02*
X0200000Y0145680D01*
X0200000Y0144682D02*
X0200753Y0144682D01*
X0200750Y0143683D02*
X0199705Y0143683D01*
X0199244Y0142685D02*
X0200750Y0142685D01*
X0200750Y0141686D02*
X0200000Y0141686D01*
X0198500Y0143100D02*
X0198500Y0143100D01*
X0196500Y0146850D02*
X0196500Y0138850D01*
X0198000Y0136600D02*
X0195000Y0136600D01*
X0195000Y0141100D01*
X0198000Y0141100D01*
X0198000Y0136600D01*
X0198000Y0137599D02*
X0195000Y0137599D01*
X0195000Y0138598D02*
X0198000Y0138598D01*
X0198000Y0139597D02*
X0195000Y0139597D01*
X0195000Y0140596D02*
X0198000Y0140596D01*
X0196500Y0138850D02*
X0204000Y0138850D01*
X0205000Y0139850D01*
X0205000Y0142350D01*
X0202750Y0140850D02*
X0202750Y0143850D01*
X0207250Y0143850D01*
X0207250Y0140850D01*
X0202750Y0140850D01*
X0202750Y0141849D02*
X0207250Y0141849D01*
X0207250Y0142848D02*
X0202750Y0142848D01*
X0202750Y0143847D02*
X0207250Y0143847D01*
X0205500Y0146679D02*
X0204500Y0146679D01*
X0204500Y0147677D02*
X0205500Y0147677D01*
X0205500Y0148676D02*
X0204500Y0148676D01*
X0202750Y0147850D02*
X0202750Y0150850D01*
X0207250Y0150850D01*
X0207250Y0147850D01*
X0202750Y0147850D01*
X0202750Y0148849D02*
X0207250Y0148849D01*
X0207250Y0149848D02*
X0202750Y0149848D01*
X0202750Y0150847D02*
X0207250Y0150847D01*
X0193000Y0149674D02*
X0192899Y0149674D01*
X0193000Y0148676D02*
X0193000Y0148676D01*
X0193000Y0147677D02*
X0193000Y0147677D01*
X0190000Y0148676D02*
X0189000Y0148676D01*
X0189000Y0149674D02*
X0190000Y0149674D01*
X0189807Y0151671D02*
X0184300Y0151671D01*
X0189500Y0155665D02*
X0161013Y0155665D01*
X0156000Y0150850D02*
X0155000Y0151850D01*
X0117000Y0151850D01*
X0112500Y0156350D01*
X0112500Y0160850D01*
X0116000Y0163653D02*
X0117368Y0163653D01*
X0116370Y0164652D02*
X0115276Y0164652D01*
X0115371Y0165651D02*
X0101629Y0165651D01*
X0101000Y0164652D02*
X0102724Y0164652D01*
X0102000Y0163653D02*
X0101000Y0163653D01*
X0102627Y0166649D02*
X0114373Y0166649D01*
X0118032Y0168646D02*
X0118486Y0168646D01*
X0117973Y0169159D02*
X0119309Y0167823D01*
X0121055Y0167100D01*
X0122945Y0167100D01*
X0124691Y0167823D01*
X0126027Y0169159D01*
X0126750Y0170905D01*
X0126750Y0172795D01*
X0126027Y0174541D01*
X0124691Y0175877D01*
X0122945Y0176600D01*
X0121055Y0176600D01*
X0120364Y0176314D01*
X0119578Y0177100D01*
X0121625Y0177100D01*
X0121625Y0181475D01*
X0117250Y0181475D01*
X0117250Y0178850D01*
X0116000Y0178850D01*
X0116000Y0184928D01*
X0114828Y0186100D01*
X0110172Y0186100D01*
X0109000Y0184928D01*
X0107828Y0186100D01*
X0103172Y0186100D01*
X0103147Y0186076D01*
X0102874Y0186349D01*
X0102532Y0186547D01*
X0102150Y0186649D01*
X0099500Y0186649D01*
X0099500Y0183090D01*
X0098500Y0183090D01*
X0098500Y0186649D01*
X0095850Y0186649D01*
X0095468Y0186547D01*
X0095126Y0186349D01*
X0094853Y0186076D01*
X0094828Y0186100D01*
X0090172Y0186100D01*
X0089000Y0184928D01*
X0089000Y0178772D01*
X0090172Y0177600D01*
X0090500Y0177600D01*
X0090500Y0176522D01*
X0093912Y0173110D01*
X0094547Y0173110D01*
X0094547Y0171929D01*
X0095426Y0171051D01*
X0102574Y0171051D01*
X0103453Y0171929D01*
X0103453Y0173110D01*
X0104088Y0173110D01*
X0105828Y0174850D01*
X0116172Y0174850D01*
X0117536Y0173485D01*
X0117250Y0172795D01*
X0117250Y0170905D01*
X0117973Y0169159D01*
X0117772Y0169645D02*
X0117034Y0169645D01*
X0117359Y0170643D02*
X0116035Y0170643D01*
X0115828Y0170850D02*
X0101172Y0170850D01*
X0100000Y0169678D01*
X0098172Y0167850D01*
X0097000Y0166678D01*
X0097000Y0162850D01*
X0096000Y0162850D01*
X0096000Y0163928D01*
X0094828Y0165100D01*
X0090172Y0165100D01*
X0089000Y0163928D01*
X0087828Y0165100D01*
X0083172Y0165100D01*
X0083000Y0164928D01*
X0083000Y0177772D01*
X0083172Y0177600D01*
X0083500Y0177600D01*
X0083500Y0176022D01*
X0084916Y0174606D01*
X0084916Y0173736D01*
X0085385Y0172603D01*
X0086253Y0171735D01*
X0087386Y0171266D01*
X0088613Y0171266D01*
X0089747Y0171735D01*
X0090615Y0172603D01*
X0091084Y0173736D01*
X0091084Y0174963D01*
X0090615Y0176097D01*
X0089747Y0176965D01*
X0088613Y0177434D01*
X0087744Y0177434D01*
X0087578Y0177600D01*
X0087828Y0177600D01*
X0089000Y0178772D01*
X0089000Y0184928D01*
X0087828Y0186100D01*
X0083172Y0186100D01*
X0083000Y0185928D01*
X0083000Y0189850D01*
X0128000Y0189850D01*
X0128000Y0162678D01*
X0128000Y0162678D01*
X0126828Y0163850D01*
X0126313Y0163850D01*
X0126027Y0164541D01*
X0124691Y0165877D01*
X0122945Y0166600D01*
X0121055Y0166600D01*
X0120364Y0166314D01*
X0115828Y0170850D01*
X0117250Y0171642D02*
X0103165Y0171642D01*
X0103453Y0172640D02*
X0117250Y0172640D01*
X0117383Y0173639D02*
X0104617Y0173639D01*
X0105616Y0174637D02*
X0116384Y0174637D01*
X0117000Y0176850D02*
X0122000Y0171850D01*
X0126400Y0173639D02*
X0128000Y0173639D01*
X0128000Y0174637D02*
X0125930Y0174637D01*
X0124932Y0175636D02*
X0128000Y0175636D01*
X0128000Y0176634D02*
X0120044Y0176634D01*
X0121625Y0177633D02*
X0122375Y0177633D01*
X0122375Y0177100D02*
X0125447Y0177100D01*
X0125829Y0177202D01*
X0126171Y0177400D01*
X0126450Y0177679D01*
X0126648Y0178021D01*
X0126750Y0178403D01*
X0126750Y0181475D01*
X0122375Y0181475D01*
X0122375Y0182225D01*
X0121625Y0182225D01*
X0121625Y0186600D01*
X0118553Y0186600D01*
X0118171Y0186498D01*
X0117829Y0186300D01*
X0117550Y0186021D01*
X0117352Y0185679D01*
X0117250Y0185297D01*
X0117250Y0182225D01*
X0121625Y0182225D01*
X0121625Y0181475D01*
X0122375Y0181475D01*
X0122375Y0177100D01*
X0122375Y0178631D02*
X0121625Y0178631D01*
X0121625Y0179630D02*
X0122375Y0179630D01*
X0122375Y0180628D02*
X0121625Y0180628D01*
X0121625Y0181627D02*
X0116000Y0181627D01*
X0116000Y0182625D02*
X0117250Y0182625D01*
X0117250Y0183624D02*
X0116000Y0183624D01*
X0116000Y0184622D02*
X0117250Y0184622D01*
X0117337Y0185621D02*
X0115308Y0185621D01*
X0114000Y0179600D02*
X0111000Y0179600D01*
X0111000Y0184100D01*
X0114000Y0184100D01*
X0114000Y0179600D01*
X0114000Y0180599D02*
X0111000Y0180599D01*
X0111000Y0181598D02*
X0114000Y0181598D01*
X0114000Y0182597D02*
X0111000Y0182597D01*
X0111000Y0183596D02*
X0114000Y0183596D01*
X0116000Y0180628D02*
X0117250Y0180628D01*
X0117250Y0179630D02*
X0116000Y0179630D01*
X0117000Y0176850D02*
X0105000Y0176850D01*
X0103260Y0175110D01*
X0099000Y0175110D01*
X0094740Y0175110D01*
X0092500Y0177350D01*
X0092500Y0181850D01*
X0094000Y0179600D02*
X0091000Y0179600D01*
X0091000Y0184100D01*
X0094000Y0184100D01*
X0094000Y0179600D01*
X0094000Y0180599D02*
X0091000Y0180599D01*
X0091000Y0181598D02*
X0094000Y0181598D01*
X0094000Y0182597D02*
X0091000Y0182597D01*
X0091000Y0183596D02*
X0094000Y0183596D01*
X0095738Y0186619D02*
X0083000Y0186619D01*
X0083000Y0187618D02*
X0128000Y0187618D01*
X0128000Y0188616D02*
X0083000Y0188616D01*
X0083000Y0189615D02*
X0128000Y0189615D01*
X0128000Y0186619D02*
X0102262Y0186619D01*
X0099500Y0186619D02*
X0098500Y0186619D01*
X0099000Y0185850D02*
X0096000Y0188850D01*
X0088500Y0188850D01*
X0088000Y0189350D01*
X0088308Y0185621D02*
X0089692Y0185621D01*
X0089000Y0184622D02*
X0089000Y0184622D01*
X0089000Y0183624D02*
X0089000Y0183624D01*
X0089000Y0182625D02*
X0089000Y0182625D01*
X0089000Y0181627D02*
X0089000Y0181627D01*
X0089000Y0180628D02*
X0089000Y0180628D01*
X0089000Y0179630D02*
X0089000Y0179630D01*
X0088860Y0178631D02*
X0089140Y0178631D01*
X0090139Y0177633D02*
X0087861Y0177633D01*
X0090078Y0176634D02*
X0090500Y0176634D01*
X0090806Y0175636D02*
X0091386Y0175636D01*
X0091084Y0174637D02*
X0092384Y0174637D01*
X0093383Y0173639D02*
X0091044Y0173639D01*
X0090630Y0172640D02*
X0094547Y0172640D01*
X0094835Y0171642D02*
X0089521Y0171642D01*
X0086479Y0171642D02*
X0083000Y0171642D01*
X0083000Y0172640D02*
X0085370Y0172640D01*
X0084956Y0173639D02*
X0083000Y0173639D01*
X0083000Y0174637D02*
X0084884Y0174637D01*
X0083886Y0175636D02*
X0083000Y0175636D01*
X0083000Y0176634D02*
X0083500Y0176634D01*
X0083139Y0177633D02*
X0083000Y0177633D01*
X0085500Y0176850D02*
X0088000Y0174350D01*
X0085500Y0176850D02*
X0085500Y0181850D01*
X0087000Y0179600D02*
X0084000Y0179600D01*
X0084000Y0184100D01*
X0087000Y0184100D01*
X0087000Y0179600D01*
X0087000Y0180599D02*
X0084000Y0180599D01*
X0084000Y0181598D02*
X0087000Y0181598D01*
X0087000Y0182597D02*
X0084000Y0182597D01*
X0084000Y0183596D02*
X0087000Y0183596D01*
X0098500Y0183624D02*
X0099500Y0183624D01*
X0099500Y0184622D02*
X0098500Y0184622D01*
X0098500Y0185621D02*
X0099500Y0185621D01*
X0099000Y0185850D02*
X0099000Y0182590D01*
X0105500Y0181850D02*
X0105500Y0177350D01*
X0105000Y0176850D01*
X0109000Y0178850D02*
X0109000Y0184928D01*
X0109000Y0178850D01*
X0109000Y0178850D01*
X0109000Y0179630D02*
X0109000Y0179630D01*
X0109000Y0180628D02*
X0109000Y0180628D01*
X0109000Y0181627D02*
X0109000Y0181627D01*
X0109000Y0182625D02*
X0109000Y0182625D01*
X0109000Y0183624D02*
X0109000Y0183624D01*
X0109000Y0184622D02*
X0109000Y0184622D01*
X0108308Y0185621D02*
X0109692Y0185621D01*
X0107000Y0179600D02*
X0104000Y0179600D01*
X0104000Y0184100D01*
X0107000Y0184100D01*
X0107000Y0179600D01*
X0107000Y0180599D02*
X0104000Y0180599D01*
X0104000Y0181598D02*
X0107000Y0181598D01*
X0107000Y0182597D02*
X0104000Y0182597D01*
X0104000Y0183596D02*
X0107000Y0183596D01*
X0100965Y0170643D02*
X0083000Y0170643D01*
X0083000Y0169645D02*
X0099966Y0169645D01*
X0098968Y0168646D02*
X0083000Y0168646D01*
X0083000Y0167648D02*
X0097969Y0167648D01*
X0097000Y0166649D02*
X0083000Y0166649D01*
X0083000Y0165651D02*
X0097000Y0165651D01*
X0097000Y0164652D02*
X0095276Y0164652D01*
X0096000Y0163653D02*
X0097000Y0163653D01*
X0099000Y0160850D02*
X0092500Y0160850D01*
X0094000Y0158600D02*
X0091000Y0158600D01*
X0091000Y0163100D01*
X0094000Y0163100D01*
X0094000Y0158600D01*
X0094000Y0159599D02*
X0091000Y0159599D01*
X0091000Y0160598D02*
X0094000Y0160598D01*
X0094000Y0161597D02*
X0091000Y0161597D01*
X0091000Y0162596D02*
X0094000Y0162596D01*
X0089724Y0164652D02*
X0088276Y0164652D01*
X0089000Y0163928D02*
X0089000Y0157772D01*
X0088453Y0157225D01*
X0089690Y0155988D01*
X0089747Y0155965D01*
X0090615Y0155097D01*
X0091084Y0153963D01*
X0091084Y0152736D01*
X0090615Y0151603D01*
X0089747Y0150735D01*
X0088613Y0150266D01*
X0087386Y0150266D01*
X0086253Y0150735D01*
X0085385Y0151603D01*
X0084916Y0152736D01*
X0084916Y0153963D01*
X0085250Y0154771D01*
X0083500Y0156522D01*
X0083500Y0156600D01*
X0083172Y0156600D01*
X0083000Y0156772D01*
X0083000Y0117212D01*
X0083253Y0117465D01*
X0084386Y0117934D01*
X0085613Y0117934D01*
X0086747Y0117465D01*
X0087362Y0116850D01*
X0101638Y0116850D01*
X0102253Y0117465D01*
X0103386Y0117934D01*
X0104613Y0117934D01*
X0105747Y0117465D01*
X0106615Y0116597D01*
X0107084Y0115463D01*
X0107084Y0114236D01*
X0106620Y0113115D01*
X0107111Y0113318D01*
X0107200Y0113318D01*
X0107200Y0118350D01*
X0105689Y0118350D01*
X0105689Y0124350D01*
X0104689Y0124350D01*
X0104689Y0118350D01*
X0102491Y0118350D01*
X0102110Y0118452D01*
X0101768Y0118650D01*
X0101489Y0118929D01*
X0101315Y0119230D01*
X0101315Y0119229D01*
X0100436Y0118350D01*
X0094194Y0118350D01*
X0093315Y0119229D01*
X0093315Y0119230D01*
X0093141Y0118929D01*
X0092862Y0118650D01*
X0092520Y0118452D01*
X0092138Y0118350D01*
X0089941Y0118350D01*
X0089941Y0124350D01*
X0088941Y0124350D01*
X0088941Y0118350D01*
X0086743Y0118350D01*
X0086362Y0118452D01*
X0086020Y0118650D01*
X0085741Y0118929D01*
X0085543Y0119271D01*
X0085441Y0119653D01*
X0085441Y0124350D01*
X0088941Y0124350D01*
X0088941Y0125350D01*
X0088941Y0131350D01*
X0086743Y0131350D01*
X0086362Y0131248D01*
X0086020Y0131050D01*
X0085741Y0130771D01*
X0085543Y0130429D01*
X0085441Y0130047D01*
X0085441Y0125350D01*
X0088941Y0125350D01*
X0089941Y0125350D01*
X0089941Y0131350D01*
X0092138Y0131350D01*
X0092520Y0131248D01*
X0092862Y0131050D01*
X0093141Y0130771D01*
X0093315Y0130470D01*
X0093315Y0130471D01*
X0094194Y0131350D01*
X0095000Y0131350D01*
X0095000Y0134678D01*
X0096172Y0135850D01*
X0098672Y0138350D01*
X0100424Y0138350D01*
X0102674Y0140600D01*
X0100350Y0142924D01*
X0100350Y0144550D01*
X0104700Y0144550D01*
X0104700Y0145150D01*
X0103165Y0145150D01*
X0103153Y0145130D01*
X0102874Y0144850D01*
X0102532Y0144653D01*
X0102150Y0144551D01*
X0099500Y0144551D01*
X0099500Y0148110D01*
X0098500Y0148110D01*
X0094547Y0148110D01*
X0094547Y0145853D01*
X0094649Y0145472D01*
X0094847Y0145130D01*
X0095126Y0144850D01*
X0095468Y0144653D01*
X0095850Y0144551D01*
X0098500Y0144551D01*
X0098500Y0148110D01*
X0098500Y0149110D01*
X0094547Y0149110D01*
X0094547Y0151366D01*
X0094649Y0151748D01*
X0094847Y0152090D01*
X0095107Y0152350D01*
X0094547Y0152910D01*
X0094547Y0156600D01*
X0090172Y0156600D01*
X0089000Y0157772D01*
X0089000Y0163928D01*
X0089000Y0163653D02*
X0089000Y0163653D01*
X0089000Y0162655D02*
X0089000Y0162655D01*
X0089000Y0161656D02*
X0089000Y0161656D01*
X0089000Y0160658D02*
X0089000Y0160658D01*
X0089000Y0159659D02*
X0089000Y0159659D01*
X0089000Y0158661D02*
X0089000Y0158661D01*
X0088891Y0157662D02*
X0089109Y0157662D01*
X0089014Y0156664D02*
X0090108Y0156664D01*
X0090046Y0155665D02*
X0094547Y0155665D01*
X0094547Y0154667D02*
X0090793Y0154667D01*
X0091084Y0153668D02*
X0094547Y0153668D01*
X0094787Y0152670D02*
X0091057Y0152670D01*
X0090643Y0151671D02*
X0094629Y0151671D01*
X0094547Y0150673D02*
X0089596Y0150673D01*
X0088000Y0153350D02*
X0088000Y0154850D01*
X0085500Y0157350D01*
X0085500Y0160850D01*
X0087000Y0158600D02*
X0084000Y0158600D01*
X0084000Y0163100D01*
X0087000Y0163100D01*
X0087000Y0158600D01*
X0087000Y0159599D02*
X0084000Y0159599D01*
X0084000Y0160598D02*
X0087000Y0160598D01*
X0087000Y0161597D02*
X0084000Y0161597D01*
X0084000Y0162596D02*
X0087000Y0162596D01*
X0083108Y0156664D02*
X0083000Y0156664D01*
X0083000Y0155665D02*
X0084356Y0155665D01*
X0085207Y0154667D02*
X0083000Y0154667D01*
X0083000Y0153668D02*
X0084916Y0153668D01*
X0084943Y0152670D02*
X0083000Y0152670D01*
X0083000Y0151671D02*
X0085357Y0151671D01*
X0086404Y0150673D02*
X0083000Y0150673D01*
X0083000Y0149674D02*
X0094547Y0149674D01*
X0094547Y0147677D02*
X0083000Y0147677D01*
X0083000Y0146679D02*
X0094547Y0146679D01*
X0094594Y0145680D02*
X0083000Y0145680D01*
X0083000Y0144682D02*
X0095418Y0144682D01*
X0098500Y0144682D02*
X0099500Y0144682D01*
X0099500Y0145680D02*
X0098500Y0145680D01*
X0098500Y0146679D02*
X0099500Y0146679D01*
X0099500Y0147677D02*
X0098500Y0147677D01*
X0098500Y0148676D02*
X0083000Y0148676D01*
X0083000Y0143683D02*
X0100350Y0143683D01*
X0100589Y0142685D02*
X0083000Y0142685D01*
X0083000Y0141686D02*
X0101588Y0141686D01*
X0102586Y0140688D02*
X0083000Y0140688D01*
X0083000Y0139689D02*
X0101763Y0139689D01*
X0100765Y0138691D02*
X0083000Y0138691D01*
X0083000Y0137692D02*
X0098014Y0137692D01*
X0097015Y0136694D02*
X0083000Y0136694D01*
X0083000Y0135695D02*
X0096017Y0135695D01*
X0095018Y0134697D02*
X0083000Y0134697D01*
X0083000Y0133698D02*
X0095000Y0133698D01*
X0095000Y0132700D02*
X0083000Y0132700D01*
X0083000Y0131701D02*
X0095000Y0131701D01*
X0093546Y0130703D02*
X0093181Y0130703D01*
X0089941Y0130703D02*
X0088941Y0130703D01*
X0088941Y0129704D02*
X0089941Y0129704D01*
X0089941Y0128706D02*
X0088941Y0128706D01*
X0088941Y0127707D02*
X0089941Y0127707D01*
X0089941Y0126709D02*
X0088941Y0126709D01*
X0088941Y0125710D02*
X0089941Y0125710D01*
X0088941Y0124712D02*
X0083000Y0124712D01*
X0083000Y0125710D02*
X0085441Y0125710D01*
X0085441Y0126709D02*
X0083000Y0126709D01*
X0083000Y0127707D02*
X0085441Y0127707D01*
X0085441Y0128706D02*
X0083000Y0128706D01*
X0083000Y0129704D02*
X0085441Y0129704D01*
X0085701Y0130703D02*
X0083000Y0130703D01*
X0083000Y0123713D02*
X0085441Y0123713D01*
X0085441Y0122715D02*
X0083000Y0122715D01*
X0083000Y0121716D02*
X0085441Y0121716D01*
X0085441Y0120718D02*
X0083000Y0120718D01*
X0083000Y0119719D02*
X0085441Y0119719D01*
X0085949Y0118720D02*
X0083000Y0118720D01*
X0083000Y0117722D02*
X0083874Y0117722D01*
X0086126Y0117722D02*
X0102874Y0117722D01*
X0101697Y0118720D02*
X0100807Y0118720D01*
X0104689Y0118720D02*
X0105689Y0118720D01*
X0105689Y0119719D02*
X0104689Y0119719D01*
X0104689Y0120718D02*
X0105689Y0120718D01*
X0105689Y0121716D02*
X0104689Y0121716D01*
X0104689Y0122715D02*
X0105689Y0122715D01*
X0105689Y0123713D02*
X0104689Y0123713D01*
X0104689Y0125710D02*
X0105689Y0125710D01*
X0105689Y0126709D02*
X0104689Y0126709D01*
X0104689Y0127707D02*
X0105689Y0127707D01*
X0105689Y0128706D02*
X0104689Y0128706D01*
X0104689Y0129704D02*
X0105689Y0129704D01*
X0105689Y0130703D02*
X0104689Y0130703D01*
X0103073Y0131701D02*
X0099000Y0131701D01*
X0099000Y0132700D02*
X0102074Y0132700D01*
X0101076Y0133698D02*
X0099677Y0133698D01*
X0099500Y0136350D02*
X0097000Y0133850D01*
X0097000Y0129280D01*
X0097315Y0128965D01*
X0097315Y0124850D01*
X0101084Y0130703D02*
X0101449Y0130703D01*
X0106927Y0131701D02*
X0107223Y0131701D01*
X0107926Y0132700D02*
X0108174Y0132700D01*
X0108924Y0133698D02*
X0109020Y0133698D01*
X0109650Y0134697D02*
X0109971Y0134697D01*
X0109650Y0135695D02*
X0126326Y0135695D01*
X0125328Y0136694D02*
X0109650Y0136694D01*
X0109650Y0137692D02*
X0124329Y0137692D01*
X0122629Y0138691D02*
X0117371Y0138691D01*
X0117691Y0138823D02*
X0119027Y0140159D01*
X0119750Y0141905D01*
X0119750Y0143795D01*
X0119027Y0145541D01*
X0117691Y0146877D01*
X0115945Y0147600D01*
X0114055Y0147600D01*
X0112309Y0146877D01*
X0110973Y0145541D01*
X0110250Y0143795D01*
X0110250Y0141905D01*
X0110973Y0140159D01*
X0112309Y0138823D01*
X0114055Y0138100D01*
X0115945Y0138100D01*
X0117691Y0138823D01*
X0118557Y0139689D02*
X0121443Y0139689D01*
X0120754Y0140688D02*
X0119246Y0140688D01*
X0119659Y0141686D02*
X0120341Y0141686D01*
X0120250Y0142685D02*
X0119750Y0142685D01*
X0119750Y0143683D02*
X0120250Y0143683D01*
X0120617Y0144682D02*
X0119383Y0144682D01*
X0118887Y0145680D02*
X0121113Y0145680D01*
X0122111Y0146679D02*
X0117889Y0146679D01*
X0115349Y0150673D02*
X0103453Y0150673D01*
X0103453Y0149674D02*
X0154000Y0149674D01*
X0154000Y0148676D02*
X0107750Y0148676D01*
X0106926Y0149500D02*
X0109650Y0146776D01*
X0109650Y0145150D01*
X0105300Y0145150D01*
X0105300Y0149500D01*
X0106926Y0149500D01*
X0105300Y0148676D02*
X0104700Y0148676D01*
X0104700Y0147677D02*
X0105300Y0147677D01*
X0105300Y0146679D02*
X0104700Y0146679D01*
X0104700Y0145680D02*
X0105300Y0145680D01*
X0105300Y0144682D02*
X0110617Y0144682D01*
X0110250Y0143683D02*
X0109650Y0143683D01*
X0109411Y0142685D02*
X0110250Y0142685D01*
X0110341Y0141686D02*
X0108412Y0141686D01*
X0107414Y0140688D02*
X0110754Y0140688D01*
X0111443Y0139689D02*
X0108237Y0139689D01*
X0109235Y0138691D02*
X0112629Y0138691D01*
X0111000Y0132850D02*
X0109200Y0130850D01*
X0109200Y0109850D01*
X0108000Y0108850D01*
X0107200Y0113728D02*
X0106874Y0113728D01*
X0107084Y0114726D02*
X0107200Y0114726D01*
X0107200Y0115725D02*
X0106976Y0115725D01*
X0107200Y0116723D02*
X0106488Y0116723D01*
X0107200Y0117722D02*
X0105126Y0117722D01*
X0104000Y0114850D02*
X0085000Y0114850D01*
X0087241Y0112729D02*
X0090026Y0112729D01*
X0090076Y0112850D02*
X0089916Y0112463D01*
X0089916Y0111236D01*
X0090385Y0110103D01*
X0091000Y0109488D01*
X0091000Y0105022D01*
X0092172Y0103850D01*
X0093000Y0103022D01*
X0094172Y0101850D01*
X0104681Y0101850D01*
X0104212Y0101381D01*
X0103531Y0099739D01*
X0103531Y0097961D01*
X0104212Y0096319D01*
X0105469Y0095062D01*
X0106000Y0094842D01*
X0106000Y0094022D01*
X0110000Y0090022D01*
X0111172Y0088850D01*
X0122638Y0088850D01*
X0120172Y0088850D01*
X0119000Y0087678D01*
X0101161Y0069840D01*
X0101161Y0066612D01*
X0100547Y0065997D01*
X0100077Y0064863D01*
X0100077Y0063636D01*
X0100547Y0062503D01*
X0101414Y0061635D01*
X0102548Y0061166D01*
X0103775Y0061166D01*
X0104909Y0061635D01*
X0105776Y0062503D01*
X0106246Y0063636D01*
X0106246Y0064863D01*
X0105776Y0065997D01*
X0105161Y0066612D01*
X0105161Y0068183D01*
X0121828Y0084850D01*
X0122638Y0084850D01*
X0123253Y0084235D01*
X0124386Y0083766D01*
X0125613Y0083766D01*
X0126747Y0084235D01*
X0127615Y0085103D01*
X0128084Y0086236D01*
X0128084Y0087463D01*
X0127615Y0088597D01*
X0127362Y0088850D01*
X0133172Y0088850D01*
X0134500Y0087522D01*
X0134500Y0087050D01*
X0134129Y0087050D01*
X0133250Y0086171D01*
X0133250Y0079529D01*
X0134129Y0078650D01*
X0134500Y0078650D01*
X0134500Y0063178D01*
X0129172Y0057850D01*
X0125172Y0057850D01*
X0124172Y0056850D01*
X0123000Y0055678D01*
X0123000Y0055350D01*
X0117816Y0055350D01*
X0117000Y0054534D01*
X0116184Y0055350D01*
X0109942Y0055350D01*
X0109126Y0054534D01*
X0108310Y0055350D01*
X0102068Y0055350D01*
X0101252Y0054534D01*
X0100436Y0055350D01*
X0094194Y0055350D01*
X0093378Y0054534D01*
X0092562Y0055350D01*
X0091260Y0055350D01*
X0091260Y0056488D01*
X0091875Y0057103D01*
X0092344Y0058236D01*
X0092344Y0059463D01*
X0091875Y0060597D01*
X0091007Y0061465D01*
X0089873Y0061934D01*
X0088646Y0061934D01*
X0087513Y0061465D01*
X0086645Y0060597D01*
X0086176Y0059463D01*
X0086176Y0058236D01*
X0086645Y0057103D01*
X0087260Y0056488D01*
X0087260Y0055350D01*
X0086320Y0055350D01*
X0085441Y0054471D01*
X0085441Y0051150D01*
X0063953Y0051150D01*
X0061512Y0053591D01*
X0061650Y0053925D01*
X0061650Y0055775D01*
X0060942Y0057484D01*
X0059634Y0058792D01*
X0057925Y0059500D01*
X0056075Y0059500D01*
X0055741Y0059362D01*
X0055453Y0059650D01*
X0045500Y0059650D01*
X0045500Y0062221D01*
X0044621Y0063100D01*
X0039300Y0063100D01*
X0039300Y0076350D01*
X0040121Y0076350D01*
X0041000Y0077229D01*
X0041000Y0087471D01*
X0040121Y0088350D01*
X0033879Y0088350D01*
X0033000Y0087471D01*
X0033000Y0077229D01*
X0033879Y0076350D01*
X0034700Y0076350D01*
X0034700Y0063100D01*
X0029379Y0063100D01*
X0028500Y0062221D01*
X0028500Y0052479D01*
X0028829Y0052150D01*
X0025345Y0052150D01*
X0023764Y0051495D01*
X0022555Y0050286D01*
X0022498Y0050150D01*
X0016953Y0050150D01*
X0015000Y0052103D01*
X0015000Y0065957D01*
X0015260Y0065697D01*
X0015602Y0065499D01*
X0015984Y0065397D01*
X0018240Y0065397D01*
X0018240Y0069350D01*
X0019240Y0069350D01*
X0019240Y0065397D01*
X0021497Y0065397D01*
X0021878Y0065499D01*
X0022220Y0065697D01*
X0022499Y0065976D01*
X0022697Y0066318D01*
X0022799Y0066700D01*
X0022799Y0069350D01*
X0019240Y0069350D01*
X0019240Y0070350D01*
X0018240Y0070350D01*
X0018240Y0074303D01*
X0015984Y0074303D01*
X0015602Y0074201D01*
X0015260Y0074003D01*
X0015000Y0073743D01*
X0015000Y0074130D01*
X0015216Y0074219D01*
X0016473Y0075476D01*
X0017154Y0077119D01*
X0017154Y0080004D01*
X0024000Y0086850D01*
X0024000Y0082850D01*
X0027500Y0082850D01*
X0027500Y0088350D01*
X0025500Y0088350D01*
X0027000Y0089850D01*
X0043700Y0089850D01*
X0043700Y0088350D01*
X0042879Y0088350D01*
X0042000Y0087471D01*
X0042000Y0077229D01*
X0042879Y0076350D01*
X0049121Y0076350D01*
X0050000Y0077229D01*
X0050000Y0087471D01*
X0049121Y0088350D01*
X0048300Y0088350D01*
X0048300Y0089850D01*
X0079000Y0089850D01*
X0083000Y0093850D01*
X0083000Y0095597D01*
X0083300Y0095897D01*
X0083300Y0109897D01*
X0085168Y0111766D01*
X0085613Y0111766D01*
X0086747Y0112235D01*
X0087362Y0112850D01*
X0090076Y0112850D01*
X0089916Y0111731D02*
X0085134Y0111731D01*
X0084135Y0110732D02*
X0090125Y0110732D01*
X0090754Y0109734D02*
X0083300Y0109734D01*
X0083300Y0108735D02*
X0091000Y0108735D01*
X0091000Y0107737D02*
X0083300Y0107737D01*
X0083300Y0106738D02*
X0091000Y0106738D01*
X0091000Y0105740D02*
X0083300Y0105740D01*
X0083300Y0104741D02*
X0091280Y0104741D01*
X0092279Y0103743D02*
X0083300Y0103743D01*
X0083300Y0102744D02*
X0093277Y0102744D01*
X0095000Y0103850D02*
X0093000Y0105850D01*
X0093000Y0111850D01*
X0092933Y0118720D02*
X0093823Y0118720D01*
X0089941Y0118720D02*
X0088941Y0118720D01*
X0088941Y0119719D02*
X0089941Y0119719D01*
X0089941Y0120718D02*
X0088941Y0120718D01*
X0088941Y0121716D02*
X0089941Y0121716D01*
X0089941Y0122715D02*
X0088941Y0122715D01*
X0088941Y0123713D02*
X0089941Y0123713D01*
X0099500Y0136350D02*
X0105000Y0136350D01*
X0111000Y0132850D02*
X0119000Y0132850D01*
X0120937Y0130913D01*
X0120937Y0124850D01*
X0120900Y0124813D01*
X0121000Y0116850D01*
X0123000Y0111850D02*
X0123000Y0103850D01*
X0118000Y0098850D01*
X0113000Y0096850D02*
X0113000Y0102850D01*
X0112000Y0103850D01*
X0095000Y0103850D01*
X0103536Y0099749D02*
X0083300Y0099749D01*
X0083300Y0100747D02*
X0103949Y0100747D01*
X0104576Y0101746D02*
X0083300Y0101746D01*
X0083300Y0098750D02*
X0103531Y0098750D01*
X0103618Y0097752D02*
X0083300Y0097752D01*
X0083300Y0096753D02*
X0104032Y0096753D01*
X0104776Y0095755D02*
X0083157Y0095755D01*
X0083000Y0094756D02*
X0106000Y0094756D01*
X0106264Y0093758D02*
X0082908Y0093758D01*
X0081909Y0092759D02*
X0107262Y0092759D01*
X0108261Y0091761D02*
X0080911Y0091761D01*
X0079912Y0090762D02*
X0109259Y0090762D01*
X0110258Y0089764D02*
X0048300Y0089764D01*
X0048300Y0088765D02*
X0120087Y0088765D01*
X0119088Y0087767D02*
X0075656Y0087767D01*
X0075657Y0087766D02*
X0075030Y0088086D01*
X0074361Y0088303D01*
X0073799Y0088392D01*
X0073799Y0081460D01*
X0072831Y0081460D01*
X0072831Y0080492D01*
X0073799Y0080492D01*
X0073799Y0073560D01*
X0074361Y0073649D01*
X0075030Y0073866D01*
X0075657Y0074186D01*
X0076226Y0074599D01*
X0076723Y0075096D01*
X0077137Y0075665D01*
X0077456Y0076292D01*
X0077673Y0076961D01*
X0077746Y0077420D01*
X0078598Y0076569D01*
X0078700Y0076569D01*
X0078700Y0061131D01*
X0078598Y0061131D01*
X0077719Y0060252D01*
X0077719Y0055448D01*
X0078598Y0054569D01*
X0083402Y0054569D01*
X0084281Y0055448D01*
X0084281Y0060252D01*
X0083402Y0061131D01*
X0083300Y0061131D01*
X0083300Y0076569D01*
X0083402Y0076569D01*
X0084281Y0077448D01*
X0084281Y0082252D01*
X0083402Y0083131D01*
X0078598Y0083131D01*
X0077783Y0082317D01*
X0077783Y0084296D01*
X0077673Y0084991D01*
X0077456Y0085660D01*
X0077137Y0086286D01*
X0076723Y0086856D01*
X0076226Y0087353D01*
X0075657Y0087766D01*
X0076787Y0086768D02*
X0118090Y0086768D01*
X0117091Y0085770D02*
X0077400Y0085770D01*
X0077708Y0084771D02*
X0116093Y0084771D01*
X0115094Y0083773D02*
X0077783Y0083773D01*
X0077783Y0082774D02*
X0078241Y0082774D01*
X0083759Y0082774D02*
X0114096Y0082774D01*
X0113097Y0081776D02*
X0084281Y0081776D01*
X0084281Y0080777D02*
X0112099Y0080777D01*
X0111100Y0079779D02*
X0084281Y0079779D01*
X0084281Y0078780D02*
X0110102Y0078780D01*
X0109103Y0077782D02*
X0084281Y0077782D01*
X0083617Y0076783D02*
X0108105Y0076783D01*
X0107106Y0075784D02*
X0083300Y0075784D01*
X0083300Y0074786D02*
X0106108Y0074786D01*
X0105109Y0073787D02*
X0083300Y0073787D01*
X0083300Y0072789D02*
X0104111Y0072789D01*
X0103112Y0071790D02*
X0083300Y0071790D01*
X0083300Y0070792D02*
X0102114Y0070792D01*
X0101161Y0069793D02*
X0083300Y0069793D01*
X0083300Y0068795D02*
X0101161Y0068795D01*
X0101161Y0067796D02*
X0083300Y0067796D01*
X0083300Y0066798D02*
X0101161Y0066798D01*
X0100465Y0065799D02*
X0083300Y0065799D01*
X0083300Y0064801D02*
X0100077Y0064801D01*
X0100077Y0063802D02*
X0083300Y0063802D01*
X0083300Y0062804D02*
X0100422Y0062804D01*
X0101244Y0061805D02*
X0090185Y0061805D01*
X0091665Y0060807D02*
X0113787Y0060807D01*
X0113886Y0060766D02*
X0112753Y0061235D01*
X0111885Y0062103D01*
X0111416Y0063236D01*
X0111416Y0064463D01*
X0111885Y0065597D01*
X0112500Y0066212D01*
X0112500Y0068988D01*
X0111885Y0069603D01*
X0111416Y0070736D01*
X0111416Y0071963D01*
X0111885Y0073097D01*
X0112753Y0073965D01*
X0113886Y0074434D01*
X0115113Y0074434D01*
X0116247Y0073965D01*
X0117115Y0073097D01*
X0117584Y0071963D01*
X0117584Y0070736D01*
X0117115Y0069603D01*
X0116500Y0068988D01*
X0116500Y0066212D01*
X0117115Y0065597D01*
X0117584Y0064463D01*
X0117584Y0063236D01*
X0117115Y0062103D01*
X0116247Y0061235D01*
X0115113Y0060766D01*
X0113886Y0060766D01*
X0115213Y0060807D02*
X0132128Y0060807D01*
X0131130Y0059808D02*
X0092201Y0059808D01*
X0092344Y0058810D02*
X0130131Y0058810D01*
X0130000Y0055850D02*
X0136500Y0062350D01*
X0136500Y0081350D01*
X0136500Y0084350D02*
X0136500Y0088350D01*
X0134000Y0090850D01*
X0112000Y0090850D01*
X0108000Y0094850D01*
X0108000Y0098850D01*
X0113000Y0096850D02*
X0116000Y0093850D01*
X0136000Y0093850D01*
X0137000Y0092850D01*
X0134681Y0095850D02*
X0131319Y0095850D01*
X0131788Y0096319D01*
X0132468Y0097961D01*
X0132468Y0099739D01*
X0132248Y0100270D01*
X0135000Y0103022D01*
X0135000Y0104381D01*
X0137516Y0104381D01*
X0137516Y0108366D01*
X0138484Y0108366D01*
X0138484Y0104381D01*
X0141166Y0104381D01*
X0141547Y0104484D01*
X0141890Y0104681D01*
X0142169Y0104960D01*
X0142366Y0105303D01*
X0142468Y0105684D01*
X0142468Y0108366D01*
X0138484Y0108366D01*
X0138484Y0109334D01*
X0137516Y0109334D01*
X0137516Y0113318D01*
X0136297Y0113318D01*
X0138685Y0115707D01*
X0138685Y0118350D01*
X0139806Y0118350D01*
X0140622Y0119166D01*
X0141438Y0118350D01*
X0146247Y0118350D01*
X0144700Y0116803D01*
X0144700Y0101150D01*
X0141884Y0101150D01*
X0141788Y0101381D01*
X0140531Y0102638D01*
X0138889Y0103318D01*
X0137111Y0103318D01*
X0135469Y0102638D01*
X0134212Y0101381D01*
X0133531Y0099739D01*
X0133531Y0097961D01*
X0134212Y0096319D01*
X0134681Y0095850D01*
X0134032Y0096753D02*
X0131968Y0096753D01*
X0132382Y0097752D02*
X0133618Y0097752D01*
X0133531Y0098750D02*
X0132468Y0098750D01*
X0132464Y0099749D02*
X0133536Y0099749D01*
X0133949Y0100747D02*
X0132726Y0100747D01*
X0133724Y0101746D02*
X0134576Y0101746D01*
X0134723Y0102744D02*
X0135725Y0102744D01*
X0135000Y0103743D02*
X0144700Y0103743D01*
X0144700Y0104741D02*
X0141950Y0104741D01*
X0142468Y0105740D02*
X0144700Y0105740D01*
X0144700Y0106738D02*
X0142468Y0106738D01*
X0142468Y0107737D02*
X0144700Y0107737D01*
X0144700Y0108735D02*
X0138484Y0108735D01*
X0138484Y0109334D02*
X0142468Y0109334D01*
X0142468Y0112016D01*
X0142366Y0112397D01*
X0142169Y0112740D01*
X0141890Y0113019D01*
X0141547Y0113216D01*
X0141166Y0113318D01*
X0138484Y0113318D01*
X0138484Y0109334D01*
X0138484Y0109734D02*
X0137516Y0109734D01*
X0137516Y0110732D02*
X0138484Y0110732D01*
X0138484Y0111731D02*
X0137516Y0111731D01*
X0137516Y0112729D02*
X0138484Y0112729D01*
X0136706Y0113728D02*
X0144700Y0113728D01*
X0144700Y0114726D02*
X0137705Y0114726D01*
X0138685Y0115725D02*
X0144700Y0115725D01*
X0144700Y0116723D02*
X0138685Y0116723D01*
X0138685Y0117722D02*
X0145619Y0117722D01*
X0141067Y0118720D02*
X0140177Y0118720D01*
X0136685Y0116535D02*
X0133000Y0112850D01*
X0133000Y0103850D01*
X0128000Y0098850D01*
X0127447Y0088765D02*
X0133256Y0088765D01*
X0134255Y0087767D02*
X0127959Y0087767D01*
X0128084Y0086768D02*
X0133847Y0086768D01*
X0133250Y0085770D02*
X0127891Y0085770D01*
X0127283Y0084771D02*
X0133250Y0084771D01*
X0133250Y0083773D02*
X0125630Y0083773D01*
X0124370Y0083773D02*
X0120751Y0083773D01*
X0121750Y0084771D02*
X0122717Y0084771D01*
X0121000Y0086850D02*
X0125000Y0086850D01*
X0122638Y0088850D02*
X0122638Y0088850D01*
X0121000Y0086850D02*
X0103161Y0069011D01*
X0103161Y0064250D01*
X0105901Y0062804D02*
X0111595Y0062804D01*
X0111416Y0063802D02*
X0106246Y0063802D01*
X0106246Y0064801D02*
X0111555Y0064801D01*
X0112088Y0065799D02*
X0105858Y0065799D01*
X0105161Y0066798D02*
X0112500Y0066798D01*
X0112500Y0067796D02*
X0105161Y0067796D01*
X0105773Y0068795D02*
X0112500Y0068795D01*
X0111806Y0069793D02*
X0106772Y0069793D01*
X0107770Y0070792D02*
X0111416Y0070792D01*
X0111416Y0071790D02*
X0108769Y0071790D01*
X0109767Y0072789D02*
X0111758Y0072789D01*
X0112576Y0073787D02*
X0110766Y0073787D01*
X0111764Y0074786D02*
X0134500Y0074786D01*
X0134500Y0075784D02*
X0112763Y0075784D01*
X0113761Y0076783D02*
X0134500Y0076783D01*
X0134500Y0077782D02*
X0114760Y0077782D01*
X0115758Y0078780D02*
X0133999Y0078780D01*
X0133250Y0079779D02*
X0116757Y0079779D01*
X0117755Y0080777D02*
X0133250Y0080777D01*
X0133250Y0081776D02*
X0118754Y0081776D01*
X0119752Y0082774D02*
X0133250Y0082774D01*
X0134500Y0073787D02*
X0116424Y0073787D01*
X0117242Y0072789D02*
X0134500Y0072789D01*
X0134500Y0071790D02*
X0117584Y0071790D01*
X0117584Y0070792D02*
X0134500Y0070792D01*
X0134500Y0069793D02*
X0117194Y0069793D01*
X0116500Y0068795D02*
X0134500Y0068795D01*
X0134500Y0067796D02*
X0116500Y0067796D01*
X0116500Y0066798D02*
X0134500Y0066798D01*
X0134500Y0065799D02*
X0116912Y0065799D01*
X0117445Y0064801D02*
X0134500Y0064801D01*
X0134500Y0063802D02*
X0117584Y0063802D01*
X0117405Y0062804D02*
X0134125Y0062804D01*
X0133127Y0061805D02*
X0116817Y0061805D01*
X0114500Y0063850D02*
X0114500Y0071350D01*
X0112183Y0061805D02*
X0105079Y0061805D01*
X0101533Y0054816D02*
X0100971Y0054816D01*
X0108845Y0054816D02*
X0109407Y0054816D01*
X0116719Y0054816D02*
X0117281Y0054816D01*
X0123136Y0055814D02*
X0091260Y0055814D01*
X0091584Y0056813D02*
X0124134Y0056813D01*
X0125133Y0057811D02*
X0092168Y0057811D01*
X0089260Y0058850D02*
X0089260Y0048850D01*
X0089441Y0048850D01*
X0085441Y0051820D02*
X0063282Y0051820D01*
X0062284Y0052819D02*
X0085441Y0052819D01*
X0085441Y0053817D02*
X0061605Y0053817D01*
X0061650Y0054816D02*
X0078351Y0054816D01*
X0077719Y0055814D02*
X0061634Y0055814D01*
X0061220Y0056813D02*
X0077719Y0056813D01*
X0077719Y0057811D02*
X0060615Y0057811D01*
X0059591Y0058810D02*
X0077719Y0058810D01*
X0077719Y0059808D02*
X0045500Y0059808D01*
X0045500Y0060807D02*
X0054467Y0060807D01*
X0055074Y0060200D02*
X0052350Y0062924D01*
X0052350Y0064550D01*
X0056700Y0064550D01*
X0056700Y0065150D01*
X0056700Y0069500D01*
X0055074Y0069500D01*
X0052350Y0066776D01*
X0052350Y0065150D01*
X0056700Y0065150D01*
X0057300Y0065150D01*
X0057300Y0069500D01*
X0058926Y0069500D01*
X0061650Y0066776D01*
X0061650Y0065150D01*
X0057300Y0065150D01*
X0057300Y0064550D01*
X0061650Y0064550D01*
X0061650Y0062924D01*
X0058926Y0060200D01*
X0057300Y0060200D01*
X0057300Y0064550D01*
X0056700Y0064550D01*
X0056700Y0060200D01*
X0055074Y0060200D01*
X0056700Y0060807D02*
X0057300Y0060807D01*
X0057300Y0061805D02*
X0056700Y0061805D01*
X0056700Y0062804D02*
X0057300Y0062804D01*
X0057300Y0063802D02*
X0056700Y0063802D01*
X0056700Y0064801D02*
X0039300Y0064801D01*
X0039300Y0065799D02*
X0052350Y0065799D01*
X0052372Y0066798D02*
X0039300Y0066798D01*
X0039300Y0067796D02*
X0053370Y0067796D01*
X0054369Y0068795D02*
X0039300Y0068795D01*
X0039300Y0069793D02*
X0078700Y0069793D01*
X0078700Y0068795D02*
X0059631Y0068795D01*
X0060630Y0067796D02*
X0078700Y0067796D01*
X0078700Y0066798D02*
X0061628Y0066798D01*
X0061650Y0065799D02*
X0078700Y0065799D01*
X0078700Y0064801D02*
X0057300Y0064801D01*
X0057300Y0065799D02*
X0056700Y0065799D01*
X0056700Y0066798D02*
X0057300Y0066798D01*
X0057300Y0067796D02*
X0056700Y0067796D01*
X0056700Y0068795D02*
X0057300Y0068795D01*
X0061650Y0063802D02*
X0078700Y0063802D01*
X0078700Y0062804D02*
X0061530Y0062804D01*
X0060531Y0061805D02*
X0078700Y0061805D01*
X0078273Y0060807D02*
X0059533Y0060807D01*
X0053469Y0061805D02*
X0045500Y0061805D01*
X0044917Y0062804D02*
X0052470Y0062804D01*
X0052350Y0063802D02*
X0039300Y0063802D01*
X0034700Y0063802D02*
X0022624Y0063802D01*
X0021926Y0064500D02*
X0020300Y0064500D01*
X0020300Y0060150D01*
X0024650Y0060150D01*
X0024650Y0061776D01*
X0021926Y0064500D01*
X0022323Y0065799D02*
X0034700Y0065799D01*
X0034700Y0064801D02*
X0015000Y0064801D01*
X0015000Y0065799D02*
X0015158Y0065799D01*
X0015000Y0063802D02*
X0017376Y0063802D01*
X0018074Y0064500D02*
X0015350Y0061776D01*
X0015350Y0060150D01*
X0019700Y0060150D01*
X0019700Y0064500D01*
X0018074Y0064500D01*
X0018240Y0065799D02*
X0019240Y0065799D01*
X0019240Y0066798D02*
X0018240Y0066798D01*
X0018240Y0067796D02*
X0019240Y0067796D01*
X0019240Y0068795D02*
X0018240Y0068795D01*
X0019240Y0069793D02*
X0034700Y0069793D01*
X0034700Y0068795D02*
X0022799Y0068795D01*
X0022799Y0067796D02*
X0034700Y0067796D01*
X0034700Y0066798D02*
X0022799Y0066798D01*
X0020300Y0063802D02*
X0019700Y0063802D01*
X0019700Y0062804D02*
X0020300Y0062804D01*
X0020300Y0061805D02*
X0019700Y0061805D01*
X0019700Y0060807D02*
X0020300Y0060807D01*
X0020300Y0060150D02*
X0019700Y0060150D01*
X0019700Y0059550D01*
X0020300Y0059550D01*
X0020300Y0060150D01*
X0020300Y0059808D02*
X0028500Y0059808D01*
X0028500Y0058810D02*
X0024650Y0058810D01*
X0024650Y0059550D02*
X0024650Y0057924D01*
X0021926Y0055200D01*
X0020300Y0055200D01*
X0020300Y0059550D01*
X0024650Y0059550D01*
X0024650Y0060807D02*
X0028500Y0060807D01*
X0028500Y0061805D02*
X0024621Y0061805D01*
X0023622Y0062804D02*
X0029083Y0062804D01*
X0028500Y0057811D02*
X0024537Y0057811D01*
X0023539Y0056813D02*
X0028500Y0056813D01*
X0028500Y0055814D02*
X0022540Y0055814D01*
X0020300Y0055814D02*
X0019700Y0055814D01*
X0019700Y0055200D02*
X0019700Y0059550D01*
X0015350Y0059550D01*
X0015350Y0057924D01*
X0018074Y0055200D01*
X0019700Y0055200D01*
X0019700Y0056813D02*
X0020300Y0056813D01*
X0020300Y0057811D02*
X0019700Y0057811D01*
X0019700Y0058810D02*
X0020300Y0058810D01*
X0019700Y0059808D02*
X0015000Y0059808D01*
X0015000Y0058810D02*
X0015350Y0058810D01*
X0015463Y0057811D02*
X0015000Y0057811D01*
X0015000Y0056813D02*
X0016461Y0056813D01*
X0017460Y0055814D02*
X0015000Y0055814D01*
X0015000Y0054816D02*
X0028500Y0054816D01*
X0028500Y0053817D02*
X0015000Y0053817D01*
X0015000Y0052819D02*
X0028500Y0052819D01*
X0024549Y0051820D02*
X0015282Y0051820D01*
X0016281Y0050822D02*
X0023091Y0050822D01*
X0022498Y0045550D02*
X0022555Y0045414D01*
X0023764Y0044205D01*
X0025345Y0043550D01*
X0032655Y0043550D01*
X0034236Y0044205D01*
X0035445Y0045414D01*
X0036000Y0046753D01*
X0036555Y0045414D01*
X0037764Y0044205D01*
X0039345Y0043550D01*
X0046655Y0043550D01*
X0048236Y0044205D01*
X0049445Y0045414D01*
X0050100Y0046995D01*
X0050100Y0048705D01*
X0049445Y0050286D01*
X0048236Y0051495D01*
X0046655Y0052150D01*
X0045171Y0052150D01*
X0045500Y0052479D01*
X0045500Y0055050D01*
X0052350Y0055050D01*
X0052350Y0053925D01*
X0053058Y0052216D01*
X0054366Y0050908D01*
X0056075Y0050200D01*
X0057925Y0050200D01*
X0058259Y0050338D01*
X0060700Y0047897D01*
X0061586Y0047012D01*
X0061000Y0046426D01*
X0058926Y0048500D01*
X0057400Y0048500D01*
X0057400Y0044250D01*
X0056600Y0044250D01*
X0056600Y0048500D01*
X0055074Y0048500D01*
X0052350Y0045776D01*
X0052350Y0044250D01*
X0056600Y0044250D01*
X0056600Y0043450D01*
X0052350Y0043450D01*
X0052350Y0041924D01*
X0054124Y0040150D01*
X0049502Y0040150D01*
X0049445Y0040286D01*
X0048236Y0041495D01*
X0046655Y0042150D01*
X0039345Y0042150D01*
X0037764Y0041495D01*
X0036819Y0040550D01*
X0035181Y0040550D01*
X0034236Y0041495D01*
X0032655Y0042150D01*
X0025345Y0042150D01*
X0023764Y0041495D01*
X0022555Y0040286D01*
X0021900Y0038705D01*
X0021900Y0036995D01*
X0022408Y0035769D01*
X0017799Y0040796D01*
X0017799Y0041401D01*
X0016612Y0044268D01*
X0015330Y0045550D01*
X0022498Y0045550D01*
X0023138Y0044831D02*
X0016049Y0044831D01*
X0016792Y0043832D02*
X0024664Y0043832D01*
X0024584Y0041835D02*
X0017620Y0041835D01*
X0017799Y0040837D02*
X0023105Y0040837D01*
X0022369Y0039838D02*
X0018678Y0039838D01*
X0019593Y0038840D02*
X0021956Y0038840D01*
X0021900Y0037841D02*
X0020508Y0037841D01*
X0021423Y0036843D02*
X0021963Y0036843D01*
X0022339Y0035844D02*
X0022377Y0035844D01*
X0017206Y0042834D02*
X0052350Y0042834D01*
X0052439Y0041835D02*
X0047416Y0041835D01*
X0048895Y0040837D02*
X0053437Y0040837D01*
X0052350Y0044831D02*
X0048862Y0044831D01*
X0049617Y0045829D02*
X0052403Y0045829D01*
X0053402Y0046828D02*
X0050031Y0046828D01*
X0050100Y0047826D02*
X0054400Y0047826D01*
X0056600Y0047826D02*
X0057400Y0047826D01*
X0057400Y0046828D02*
X0056600Y0046828D01*
X0056600Y0045829D02*
X0057400Y0045829D01*
X0057400Y0044831D02*
X0056600Y0044831D01*
X0056600Y0043832D02*
X0047336Y0043832D01*
X0050051Y0048825D02*
X0059773Y0048825D01*
X0059600Y0047826D02*
X0060771Y0047826D01*
X0060598Y0046828D02*
X0061402Y0046828D01*
X0058774Y0049823D02*
X0049637Y0049823D01*
X0048909Y0050822D02*
X0054574Y0050822D01*
X0053454Y0051820D02*
X0047451Y0051820D01*
X0045500Y0052819D02*
X0052808Y0052819D01*
X0052395Y0053817D02*
X0045500Y0053817D01*
X0045500Y0054816D02*
X0052350Y0054816D01*
X0038664Y0043832D02*
X0033336Y0043832D01*
X0034862Y0044831D02*
X0037138Y0044831D01*
X0036383Y0045829D02*
X0035617Y0045829D01*
X0033416Y0041835D02*
X0038584Y0041835D01*
X0037105Y0040837D02*
X0034895Y0040837D01*
X0015350Y0060807D02*
X0015000Y0060807D01*
X0015000Y0061805D02*
X0015379Y0061805D01*
X0015000Y0062804D02*
X0016378Y0062804D01*
X0010000Y0067850D02*
X0011260Y0069850D01*
X0015000Y0073787D02*
X0015045Y0073787D01*
X0015783Y0074786D02*
X0034700Y0074786D01*
X0034700Y0075784D02*
X0016601Y0075784D01*
X0017015Y0076783D02*
X0024446Y0076783D01*
X0024579Y0076650D02*
X0024921Y0076452D01*
X0025303Y0076350D01*
X0027500Y0076350D01*
X0027500Y0081850D01*
X0028500Y0081850D01*
X0028500Y0082850D01*
X0027500Y0082850D01*
X0027500Y0081850D01*
X0024000Y0081850D01*
X0024000Y0077653D01*
X0024102Y0077271D01*
X0024300Y0076929D01*
X0024579Y0076650D01*
X0024000Y0077782D02*
X0017154Y0077782D01*
X0017154Y0078780D02*
X0024000Y0078780D01*
X0024000Y0079779D02*
X0017154Y0079779D01*
X0017927Y0080777D02*
X0024000Y0080777D01*
X0024000Y0081776D02*
X0018926Y0081776D01*
X0019924Y0082774D02*
X0027500Y0082774D01*
X0027500Y0081776D02*
X0028500Y0081776D01*
X0028500Y0081850D02*
X0028500Y0076350D01*
X0030697Y0076350D01*
X0031079Y0076452D01*
X0031421Y0076650D01*
X0031700Y0076929D01*
X0031898Y0077271D01*
X0032000Y0077653D01*
X0032000Y0081850D01*
X0028500Y0081850D01*
X0028500Y0082774D02*
X0033000Y0082774D01*
X0033000Y0081776D02*
X0032000Y0081776D01*
X0032000Y0080777D02*
X0033000Y0080777D01*
X0033000Y0079779D02*
X0032000Y0079779D01*
X0032000Y0078780D02*
X0033000Y0078780D01*
X0033000Y0077782D02*
X0032000Y0077782D01*
X0031554Y0076783D02*
X0033446Y0076783D01*
X0034700Y0073787D02*
X0022436Y0073787D01*
X0022499Y0073724D02*
X0022220Y0074003D01*
X0021878Y0074201D01*
X0021497Y0074303D01*
X0019240Y0074303D01*
X0019240Y0070350D01*
X0022799Y0070350D01*
X0022799Y0073000D01*
X0022697Y0073382D01*
X0022499Y0073724D01*
X0022799Y0072789D02*
X0034700Y0072789D01*
X0034700Y0071790D02*
X0022799Y0071790D01*
X0022799Y0070792D02*
X0034700Y0070792D01*
X0039300Y0070792D02*
X0078700Y0070792D01*
X0078700Y0071790D02*
X0039300Y0071790D01*
X0039300Y0072789D02*
X0078700Y0072789D01*
X0078700Y0073787D02*
X0074788Y0073787D01*
X0073799Y0073787D02*
X0072831Y0073787D01*
X0072831Y0073560D02*
X0072831Y0080492D01*
X0068846Y0080492D01*
X0068846Y0077656D01*
X0068956Y0076961D01*
X0069174Y0076292D01*
X0069493Y0075665D01*
X0069907Y0075096D01*
X0070404Y0074599D01*
X0070973Y0074186D01*
X0071600Y0073866D01*
X0072269Y0073649D01*
X0072831Y0073560D01*
X0071842Y0073787D02*
X0039300Y0073787D01*
X0039300Y0074786D02*
X0070217Y0074786D01*
X0069432Y0075784D02*
X0039300Y0075784D01*
X0040554Y0076783D02*
X0042446Y0076783D01*
X0042000Y0077782D02*
X0041000Y0077782D01*
X0041000Y0078780D02*
X0042000Y0078780D01*
X0042000Y0079779D02*
X0041000Y0079779D01*
X0041000Y0080777D02*
X0042000Y0080777D01*
X0042000Y0081776D02*
X0041000Y0081776D01*
X0041000Y0082774D02*
X0042000Y0082774D01*
X0042000Y0083773D02*
X0041000Y0083773D01*
X0041000Y0084771D02*
X0042000Y0084771D01*
X0042000Y0085770D02*
X0041000Y0085770D01*
X0041000Y0086768D02*
X0042000Y0086768D01*
X0042295Y0087767D02*
X0040705Y0087767D01*
X0043700Y0088765D02*
X0025915Y0088765D01*
X0026914Y0089764D02*
X0043700Y0089764D01*
X0049705Y0087767D02*
X0070974Y0087767D01*
X0070973Y0087766D02*
X0070404Y0087353D01*
X0069907Y0086856D01*
X0069493Y0086286D01*
X0069174Y0085660D01*
X0068956Y0084991D01*
X0068846Y0084296D01*
X0068846Y0081460D01*
X0072831Y0081460D01*
X0072831Y0088392D01*
X0072269Y0088303D01*
X0071600Y0088086D01*
X0070973Y0087766D01*
X0069843Y0086768D02*
X0050000Y0086768D01*
X0050000Y0085770D02*
X0069230Y0085770D01*
X0068922Y0084771D02*
X0050000Y0084771D01*
X0050000Y0083773D02*
X0068846Y0083773D01*
X0068846Y0082774D02*
X0050000Y0082774D01*
X0050000Y0081776D02*
X0068846Y0081776D01*
X0068846Y0079779D02*
X0050000Y0079779D01*
X0050000Y0080777D02*
X0072831Y0080777D01*
X0072831Y0079779D02*
X0073799Y0079779D01*
X0073799Y0078780D02*
X0072831Y0078780D01*
X0072831Y0077782D02*
X0073799Y0077782D01*
X0073799Y0076783D02*
X0072831Y0076783D01*
X0072831Y0075784D02*
X0073799Y0075784D01*
X0073799Y0074786D02*
X0072831Y0074786D01*
X0076413Y0074786D02*
X0078700Y0074786D01*
X0078700Y0075784D02*
X0077197Y0075784D01*
X0077616Y0076783D02*
X0078383Y0076783D01*
X0073799Y0081776D02*
X0072831Y0081776D01*
X0072831Y0082774D02*
X0073799Y0082774D01*
X0073799Y0083773D02*
X0072831Y0083773D01*
X0072831Y0084771D02*
X0073799Y0084771D01*
X0073799Y0085770D02*
X0072831Y0085770D01*
X0072831Y0086768D02*
X0073799Y0086768D01*
X0073799Y0087767D02*
X0072831Y0087767D01*
X0068846Y0078780D02*
X0050000Y0078780D01*
X0050000Y0077782D02*
X0068846Y0077782D01*
X0069014Y0076783D02*
X0049554Y0076783D01*
X0033000Y0083773D02*
X0032000Y0083773D01*
X0032000Y0082850D02*
X0028500Y0082850D01*
X0028500Y0088350D01*
X0030697Y0088350D01*
X0031079Y0088248D01*
X0031421Y0088050D01*
X0031700Y0087771D01*
X0031898Y0087429D01*
X0032000Y0087047D01*
X0032000Y0082850D01*
X0032000Y0084771D02*
X0033000Y0084771D01*
X0033000Y0085770D02*
X0032000Y0085770D01*
X0032000Y0086768D02*
X0033000Y0086768D01*
X0033295Y0087767D02*
X0031703Y0087767D01*
X0028500Y0087767D02*
X0027500Y0087767D01*
X0027500Y0086768D02*
X0028500Y0086768D01*
X0028500Y0085770D02*
X0027500Y0085770D01*
X0027500Y0084771D02*
X0028500Y0084771D01*
X0028500Y0083773D02*
X0027500Y0083773D01*
X0027500Y0080777D02*
X0028500Y0080777D01*
X0028500Y0079779D02*
X0027500Y0079779D01*
X0027500Y0078780D02*
X0028500Y0078780D01*
X0028500Y0077782D02*
X0027500Y0077782D01*
X0027500Y0076783D02*
X0028500Y0076783D01*
X0024000Y0083773D02*
X0020923Y0083773D01*
X0021921Y0084771D02*
X0024000Y0084771D01*
X0024000Y0085770D02*
X0022920Y0085770D01*
X0023918Y0086768D02*
X0024000Y0086768D01*
X0019240Y0073787D02*
X0018240Y0073787D01*
X0018240Y0072789D02*
X0019240Y0072789D01*
X0019240Y0071790D02*
X0018240Y0071790D01*
X0018240Y0070792D02*
X0019240Y0070792D01*
X0083300Y0061805D02*
X0088335Y0061805D01*
X0086855Y0060807D02*
X0083727Y0060807D01*
X0084281Y0059808D02*
X0086318Y0059808D01*
X0086176Y0058810D02*
X0084281Y0058810D01*
X0084281Y0057811D02*
X0086352Y0057811D01*
X0086935Y0056813D02*
X0084281Y0056813D01*
X0084281Y0055814D02*
X0087260Y0055814D01*
X0085785Y0054816D02*
X0083649Y0054816D01*
X0093096Y0054816D02*
X0093659Y0054816D01*
X0111000Y0040850D02*
X0111000Y0038850D01*
X0112000Y0037850D01*
X0123000Y0037850D01*
X0125000Y0039850D01*
X0125000Y0054850D01*
X0126000Y0055850D01*
X0130000Y0055850D01*
X0138000Y0056850D02*
X0138000Y0059850D01*
X0149000Y0070850D01*
X0149000Y0073850D01*
X0149000Y0083850D01*
X0149000Y0089850D02*
X0158000Y0089850D01*
X0164000Y0083850D01*
X0174000Y0083850D01*
X0179000Y0088850D01*
X0175916Y0088765D02*
X0169375Y0088765D01*
X0169375Y0088475D02*
X0169375Y0089225D01*
X0173750Y0089225D01*
X0173633Y0089962D01*
X0173402Y0090673D01*
X0173063Y0091340D01*
X0172692Y0091850D01*
X0176638Y0091850D01*
X0177138Y0091350D01*
X0176385Y0090597D01*
X0175916Y0089463D01*
X0175916Y0088594D01*
X0173172Y0085850D01*
X0172692Y0085850D01*
X0173063Y0086360D01*
X0173402Y0087027D01*
X0173633Y0087738D01*
X0173750Y0088475D01*
X0169375Y0088475D01*
X0168625Y0088475D02*
X0168625Y0089225D01*
X0164250Y0089225D01*
X0164367Y0089962D01*
X0164598Y0090673D01*
X0164937Y0091340D01*
X0165308Y0091850D01*
X0151362Y0091850D01*
X0151362Y0091850D01*
X0158828Y0091850D01*
X0164828Y0085850D01*
X0165308Y0085850D01*
X0164937Y0086360D01*
X0164598Y0087027D01*
X0164367Y0087738D01*
X0164250Y0088475D01*
X0168625Y0088475D01*
X0168625Y0088765D02*
X0161913Y0088765D01*
X0160915Y0089764D02*
X0164336Y0089764D01*
X0164643Y0090762D02*
X0159916Y0090762D01*
X0158918Y0091761D02*
X0165243Y0091761D01*
X0164362Y0087767D02*
X0162912Y0087767D01*
X0163910Y0086768D02*
X0164730Y0086768D01*
X0173270Y0086768D02*
X0174090Y0086768D01*
X0173638Y0087767D02*
X0175088Y0087767D01*
X0176040Y0089764D02*
X0173664Y0089764D01*
X0173357Y0090762D02*
X0176550Y0090762D01*
X0176728Y0091761D02*
X0172757Y0091761D01*
X0179000Y0093850D02*
X0149000Y0093850D01*
X0144700Y0101746D02*
X0141424Y0101746D01*
X0140275Y0102744D02*
X0144700Y0102744D01*
X0149300Y0106738D02*
X0149914Y0106738D01*
X0150399Y0109734D02*
X0149300Y0109734D01*
X0149300Y0110732D02*
X0149736Y0110732D01*
X0149322Y0111731D02*
X0149300Y0111731D01*
X0149300Y0114726D02*
X0149636Y0114726D01*
X0150128Y0115725D02*
X0150157Y0115725D01*
X0151126Y0116723D02*
X0151156Y0116723D01*
X0152125Y0117722D02*
X0158300Y0117722D01*
X0159298Y0116723D02*
X0156844Y0116723D01*
X0157843Y0115725D02*
X0160556Y0115725D01*
X0159941Y0114726D02*
X0158364Y0114726D01*
X0158750Y0113728D02*
X0159531Y0113728D01*
X0159531Y0112729D02*
X0158750Y0112729D01*
X0158678Y0111731D02*
X0159627Y0111731D01*
X0160040Y0110732D02*
X0158264Y0110732D01*
X0157601Y0109734D02*
X0160797Y0109734D01*
X0162257Y0108735D02*
X0156479Y0108735D01*
X0151000Y0103850D02*
X0184000Y0103850D01*
X0185743Y0108735D02*
X0192257Y0108735D01*
X0190797Y0109734D02*
X0187203Y0109734D01*
X0187960Y0110732D02*
X0190040Y0110732D01*
X0189627Y0111731D02*
X0188373Y0111731D01*
X0188468Y0112729D02*
X0189531Y0112729D01*
X0189531Y0113728D02*
X0188468Y0113728D01*
X0188059Y0114726D02*
X0189941Y0114726D01*
X0190556Y0115725D02*
X0187444Y0115725D01*
X0197444Y0115725D02*
X0200556Y0115725D01*
X0199941Y0114726D02*
X0198059Y0114726D01*
X0198468Y0113728D02*
X0199531Y0113728D01*
X0199531Y0112729D02*
X0198468Y0112729D01*
X0198373Y0111731D02*
X0199627Y0111731D01*
X0200040Y0110732D02*
X0197960Y0110732D01*
X0197203Y0109734D02*
X0200797Y0109734D01*
X0202257Y0108735D02*
X0195743Y0108735D01*
X0194000Y0093850D02*
X0194000Y0060850D01*
X0192762Y0057811D02*
X0179867Y0057811D01*
X0180866Y0056813D02*
X0181890Y0056813D01*
X0179000Y0055850D02*
X0176000Y0058850D01*
X0147000Y0058850D01*
X0144000Y0061850D01*
X0141680Y0059808D02*
X0140787Y0059808D01*
X0141385Y0060103D02*
X0142253Y0059235D01*
X0143386Y0058766D01*
X0144256Y0058766D01*
X0146172Y0056850D01*
X0151283Y0056850D01*
X0149973Y0055541D01*
X0149250Y0053795D01*
X0149250Y0051905D01*
X0149973Y0050159D01*
X0151309Y0048823D01*
X0153055Y0048100D01*
X0154945Y0048100D01*
X0156691Y0048823D01*
X0158027Y0050159D01*
X0158750Y0051905D01*
X0158750Y0053795D01*
X0158027Y0055541D01*
X0156717Y0056850D01*
X0159942Y0056850D01*
X0159531Y0056440D01*
X0159531Y0049260D01*
X0160410Y0048381D01*
X0167590Y0048381D01*
X0168468Y0049260D01*
X0168468Y0056440D01*
X0168058Y0056850D01*
X0171980Y0056850D01*
X0171469Y0056638D01*
X0170212Y0055381D01*
X0169531Y0053739D01*
X0169531Y0051961D01*
X0170212Y0050319D01*
X0171469Y0049062D01*
X0173111Y0048381D01*
X0174889Y0048381D01*
X0176531Y0049062D01*
X0177000Y0049531D01*
X0177000Y0048022D01*
X0183172Y0041850D01*
X0210788Y0041850D01*
X0209676Y0040739D01*
X0208900Y0038864D01*
X0208900Y0036836D01*
X0209676Y0034961D01*
X0211111Y0033526D01*
X0211537Y0033350D01*
X0173835Y0033350D01*
X0174459Y0034856D01*
X0175702Y0035850D01*
X0186638Y0035850D01*
X0187253Y0035235D01*
X0188386Y0034766D01*
X0189613Y0034766D01*
X0190747Y0035235D01*
X0191615Y0036103D01*
X0192084Y0037236D01*
X0192084Y0038463D01*
X0191615Y0039597D01*
X0190747Y0040465D01*
X0189613Y0040934D01*
X0188386Y0040934D01*
X0187253Y0040465D01*
X0186638Y0039850D01*
X0177838Y0039850D01*
X0177932Y0039918D01*
X0178432Y0040418D01*
X0178849Y0040991D01*
X0179170Y0041623D01*
X0179389Y0042296D01*
X0179500Y0042996D01*
X0179500Y0043050D01*
X0175300Y0043050D01*
X0175300Y0043650D01*
X0174700Y0043650D01*
X0174700Y0047850D01*
X0174646Y0047850D01*
X0173946Y0047739D01*
X0173273Y0047520D01*
X0172641Y0047199D01*
X0172068Y0046782D01*
X0171568Y0046282D01*
X0171151Y0045709D01*
X0170830Y0045077D01*
X0170611Y0044404D01*
X0170500Y0043704D01*
X0170500Y0043650D01*
X0174700Y0043650D01*
X0174700Y0043050D01*
X0170500Y0043050D01*
X0170500Y0042996D01*
X0170611Y0042296D01*
X0170830Y0041623D01*
X0171151Y0040991D01*
X0171568Y0040418D01*
X0172068Y0039918D01*
X0172240Y0039793D01*
X0170895Y0040350D01*
X0169105Y0040350D01*
X0167840Y0039826D01*
X0168815Y0040801D01*
X0169500Y0042455D01*
X0169500Y0044245D01*
X0168815Y0045899D01*
X0167549Y0047165D01*
X0165895Y0047850D01*
X0164105Y0047850D01*
X0162451Y0047165D01*
X0161185Y0045899D01*
X0160500Y0044245D01*
X0160500Y0042850D01*
X0148180Y0042850D01*
X0148559Y0043229D01*
X0148559Y0054471D01*
X0147680Y0055350D01*
X0141438Y0055350D01*
X0140622Y0054534D01*
X0140334Y0054822D01*
X0140615Y0055103D01*
X0141084Y0056236D01*
X0141084Y0057463D01*
X0140615Y0058597D01*
X0140095Y0059117D01*
X0141296Y0060318D01*
X0141385Y0060103D01*
X0140402Y0058810D02*
X0143280Y0058810D01*
X0145210Y0057811D02*
X0140940Y0057811D01*
X0141084Y0056813D02*
X0151245Y0056813D01*
X0150247Y0055814D02*
X0140909Y0055814D01*
X0140904Y0054816D02*
X0140341Y0054816D01*
X0136685Y0051165D02*
X0136000Y0045850D01*
X0136685Y0048850D02*
X0136685Y0051165D01*
X0148559Y0050822D02*
X0149699Y0050822D01*
X0149285Y0051820D02*
X0148559Y0051820D01*
X0148559Y0052819D02*
X0149250Y0052819D01*
X0149259Y0053817D02*
X0148559Y0053817D01*
X0148215Y0054816D02*
X0149673Y0054816D01*
X0150309Y0049823D02*
X0148559Y0049823D01*
X0148559Y0048825D02*
X0151308Y0048825D01*
X0148559Y0047826D02*
X0164047Y0047826D01*
X0165953Y0047826D02*
X0174496Y0047826D01*
X0174700Y0047826D02*
X0175300Y0047826D01*
X0175300Y0047850D02*
X0175300Y0043650D01*
X0179500Y0043650D01*
X0179500Y0043704D01*
X0179389Y0044404D01*
X0179170Y0045077D01*
X0178849Y0045709D01*
X0178432Y0046282D01*
X0177932Y0046782D01*
X0177359Y0047199D01*
X0176727Y0047520D01*
X0176054Y0047739D01*
X0175354Y0047850D01*
X0175300Y0047850D01*
X0175504Y0047826D02*
X0177195Y0047826D01*
X0177000Y0048825D02*
X0175959Y0048825D01*
X0175300Y0046828D02*
X0174700Y0046828D01*
X0174700Y0045829D02*
X0175300Y0045829D01*
X0175300Y0044831D02*
X0174700Y0044831D01*
X0174700Y0043832D02*
X0175300Y0043832D01*
X0177869Y0046828D02*
X0178194Y0046828D01*
X0178761Y0045829D02*
X0179192Y0045829D01*
X0179250Y0044831D02*
X0180191Y0044831D01*
X0179480Y0043832D02*
X0181189Y0043832D01*
X0182188Y0042834D02*
X0179474Y0042834D01*
X0179239Y0041835D02*
X0210773Y0041835D01*
X0209774Y0040837D02*
X0189849Y0040837D01*
X0188151Y0040837D02*
X0178736Y0040837D01*
X0175000Y0037850D02*
X0172500Y0035850D01*
X0170000Y0035850D01*
X0174041Y0033847D02*
X0210790Y0033847D01*
X0209792Y0034846D02*
X0189806Y0034846D01*
X0188194Y0034846D02*
X0174455Y0034846D01*
X0175694Y0035844D02*
X0186644Y0035844D01*
X0189000Y0037850D02*
X0175000Y0037850D01*
X0172178Y0039838D02*
X0172131Y0039838D01*
X0171264Y0040837D02*
X0168830Y0040837D01*
X0169243Y0041835D02*
X0170761Y0041835D01*
X0170526Y0042834D02*
X0169500Y0042834D01*
X0169500Y0043832D02*
X0170520Y0043832D01*
X0170750Y0044831D02*
X0169257Y0044831D01*
X0168844Y0045829D02*
X0171239Y0045829D01*
X0172131Y0046828D02*
X0167886Y0046828D01*
X0168033Y0048825D02*
X0172041Y0048825D01*
X0170707Y0049823D02*
X0168468Y0049823D01*
X0168468Y0050822D02*
X0170003Y0050822D01*
X0169590Y0051820D02*
X0168468Y0051820D01*
X0168468Y0052819D02*
X0169531Y0052819D01*
X0169564Y0053817D02*
X0168468Y0053817D01*
X0168468Y0054816D02*
X0169978Y0054816D01*
X0170645Y0055814D02*
X0168468Y0055814D01*
X0168096Y0056813D02*
X0171890Y0056813D01*
X0178869Y0058810D02*
X0191400Y0058810D01*
X0190880Y0059808D02*
X0183211Y0059808D01*
X0184210Y0060807D02*
X0190719Y0060807D01*
X0190844Y0061805D02*
X0185208Y0061805D01*
X0186207Y0062804D02*
X0191314Y0062804D01*
X0192000Y0063802D02*
X0187205Y0063802D01*
X0188204Y0064801D02*
X0192000Y0064801D01*
X0192000Y0065799D02*
X0189202Y0065799D01*
X0189953Y0066550D02*
X0189953Y0066550D01*
X0190201Y0066798D02*
X0192000Y0066798D01*
X0192000Y0067796D02*
X0191199Y0067796D01*
X0191300Y0068795D02*
X0192000Y0068795D01*
X0192000Y0069793D02*
X0191300Y0069793D01*
X0191300Y0070792D02*
X0192000Y0070792D01*
X0192000Y0071790D02*
X0191300Y0071790D01*
X0191300Y0072789D02*
X0192000Y0072789D01*
X0192000Y0073787D02*
X0191300Y0073787D01*
X0191300Y0074786D02*
X0192000Y0074786D01*
X0192000Y0075784D02*
X0191300Y0075784D01*
X0191300Y0076783D02*
X0192000Y0076783D01*
X0192000Y0077782D02*
X0191300Y0077782D01*
X0191300Y0078780D02*
X0192000Y0078780D01*
X0192000Y0079779D02*
X0191300Y0079779D01*
X0191300Y0080777D02*
X0192000Y0080777D01*
X0192000Y0081776D02*
X0191300Y0081776D01*
X0191300Y0082774D02*
X0192000Y0082774D01*
X0192000Y0083773D02*
X0191300Y0083773D01*
X0191300Y0084771D02*
X0192000Y0084771D01*
X0192000Y0085770D02*
X0191300Y0085770D01*
X0191300Y0086768D02*
X0192000Y0086768D01*
X0192000Y0087767D02*
X0191300Y0087767D01*
X0191300Y0088765D02*
X0192000Y0088765D01*
X0192000Y0089764D02*
X0191300Y0089764D01*
X0191300Y0090762D02*
X0192000Y0090762D01*
X0191728Y0091761D02*
X0191300Y0091761D01*
X0184000Y0093850D02*
X0184000Y0082850D01*
X0179000Y0076850D02*
X0176000Y0073850D01*
X0149000Y0073850D01*
X0156755Y0056813D02*
X0159904Y0056813D01*
X0159531Y0055814D02*
X0157753Y0055814D01*
X0158327Y0054816D02*
X0159531Y0054816D01*
X0159531Y0053817D02*
X0158741Y0053817D01*
X0158750Y0052819D02*
X0159531Y0052819D01*
X0159531Y0051820D02*
X0158715Y0051820D01*
X0158301Y0050822D02*
X0159531Y0050822D01*
X0159531Y0049823D02*
X0157691Y0049823D01*
X0156692Y0048825D02*
X0159967Y0048825D01*
X0162114Y0046828D02*
X0148559Y0046828D01*
X0148559Y0045829D02*
X0161156Y0045829D01*
X0160743Y0044831D02*
X0148559Y0044831D01*
X0148559Y0043832D02*
X0160500Y0043832D01*
X0162500Y0040850D02*
X0165000Y0043350D01*
X0162500Y0040850D02*
X0140000Y0040850D01*
X0167852Y0039838D02*
X0167869Y0039838D01*
X0179000Y0048850D02*
X0184000Y0043850D01*
X0249000Y0043850D01*
X0253000Y0047850D01*
X0261000Y0047850D01*
X0264000Y0050850D01*
X0264000Y0052850D01*
X0268468Y0052819D02*
X0269531Y0052819D01*
X0269564Y0053817D02*
X0268436Y0053817D01*
X0268022Y0054816D02*
X0269978Y0054816D01*
X0270645Y0055814D02*
X0267355Y0055814D01*
X0266110Y0056813D02*
X0271209Y0056813D01*
X0270210Y0057811D02*
X0244867Y0057811D01*
X0243869Y0058810D02*
X0268280Y0058810D01*
X0266680Y0059808D02*
X0242870Y0059808D01*
X0240000Y0059850D02*
X0244000Y0055850D01*
X0244000Y0052850D01*
X0248468Y0052819D02*
X0249531Y0052819D01*
X0249564Y0053817D02*
X0248436Y0053817D01*
X0248022Y0054816D02*
X0249978Y0054816D01*
X0250645Y0055814D02*
X0247355Y0055814D01*
X0246110Y0056813D02*
X0251890Y0056813D01*
X0256110Y0056813D02*
X0261890Y0056813D01*
X0260645Y0055814D02*
X0257355Y0055814D01*
X0258022Y0054816D02*
X0259978Y0054816D01*
X0259564Y0053817D02*
X0258436Y0053817D01*
X0258468Y0052819D02*
X0259531Y0052819D01*
X0259590Y0051820D02*
X0258410Y0051820D01*
X0257997Y0050822D02*
X0260003Y0050822D01*
X0257000Y0045850D02*
X0302000Y0045850D01*
X0304000Y0047850D01*
X0304000Y0052850D01*
X0308468Y0052819D02*
X0309250Y0052819D01*
X0309259Y0053817D02*
X0308436Y0053817D01*
X0308022Y0054816D02*
X0309673Y0054816D01*
X0310247Y0055814D02*
X0307355Y0055814D01*
X0306110Y0056813D02*
X0311245Y0056813D01*
X0309285Y0051820D02*
X0308410Y0051820D01*
X0307997Y0050822D02*
X0309699Y0050822D01*
X0310309Y0049823D02*
X0307293Y0049823D01*
X0306000Y0048825D02*
X0311308Y0048825D01*
X0314535Y0046828D02*
X0317500Y0046828D01*
X0317500Y0047826D02*
X0306000Y0047826D01*
X0305806Y0046828D02*
X0307465Y0046828D01*
X0305949Y0045829D02*
X0304808Y0045829D01*
X0304951Y0044831D02*
X0303809Y0044831D01*
X0304208Y0043832D02*
X0296380Y0043832D01*
X0296931Y0042834D02*
X0303794Y0042834D01*
X0303380Y0041835D02*
X0297084Y0041835D01*
X0296919Y0040837D02*
X0303201Y0040837D01*
X0303201Y0039838D02*
X0296350Y0039838D01*
X0294792Y0038840D02*
X0303201Y0038840D01*
X0303390Y0037841D02*
X0289100Y0037841D01*
X0289100Y0036843D02*
X0303804Y0036843D01*
X0304217Y0035844D02*
X0288689Y0035844D01*
X0288208Y0034846D02*
X0304975Y0034846D01*
X0305973Y0033847D02*
X0287210Y0033847D01*
X0289100Y0038840D02*
X0293208Y0038840D01*
X0291650Y0039838D02*
X0288697Y0039838D01*
X0288226Y0040837D02*
X0291081Y0040837D01*
X0290916Y0041835D02*
X0287227Y0041835D01*
X0292000Y0043850D02*
X0294000Y0041850D01*
X0292000Y0043850D02*
X0266000Y0043850D01*
X0264000Y0041850D01*
X0264000Y0037850D01*
X0254000Y0037850D02*
X0254000Y0042850D01*
X0257000Y0045850D01*
X0251146Y0048825D02*
X0245959Y0048825D01*
X0247293Y0049823D02*
X0250707Y0049823D01*
X0250003Y0050822D02*
X0247997Y0050822D01*
X0248410Y0051820D02*
X0249590Y0051820D01*
X0250148Y0047826D02*
X0214805Y0047826D01*
X0213806Y0046828D02*
X0249149Y0046828D01*
X0242041Y0048825D02*
X0235959Y0048825D01*
X0236531Y0049062D02*
X0237788Y0050319D01*
X0238468Y0051961D01*
X0238468Y0053739D01*
X0237788Y0055381D01*
X0236531Y0056638D01*
X0234889Y0057318D01*
X0233111Y0057318D01*
X0231469Y0056638D01*
X0230212Y0055381D01*
X0229531Y0053739D01*
X0229531Y0051961D01*
X0230212Y0050319D01*
X0231469Y0049062D01*
X0233111Y0048381D01*
X0234889Y0048381D01*
X0236531Y0049062D01*
X0237293Y0049823D02*
X0240707Y0049823D01*
X0240003Y0050822D02*
X0237997Y0050822D01*
X0238410Y0051820D02*
X0239590Y0051820D01*
X0239531Y0052819D02*
X0238468Y0052819D01*
X0238436Y0053817D02*
X0239564Y0053817D01*
X0239978Y0054816D02*
X0238022Y0054816D01*
X0237355Y0055814D02*
X0240645Y0055814D01*
X0240209Y0056813D02*
X0236110Y0056813D01*
X0239210Y0057811D02*
X0225867Y0057811D01*
X0226110Y0056813D02*
X0231890Y0056813D01*
X0230645Y0055814D02*
X0227355Y0055814D01*
X0228022Y0054816D02*
X0229978Y0054816D01*
X0229564Y0053817D02*
X0228436Y0053817D01*
X0228468Y0052819D02*
X0229531Y0052819D01*
X0229590Y0051820D02*
X0228410Y0051820D01*
X0227997Y0050822D02*
X0230003Y0050822D01*
X0230707Y0049823D02*
X0227293Y0049823D01*
X0225959Y0048825D02*
X0232041Y0048825D01*
X0224000Y0052850D02*
X0224000Y0056850D01*
X0223000Y0057850D01*
X0212000Y0057850D01*
X0210000Y0059850D01*
X0210000Y0061350D01*
X0210000Y0064350D02*
X0210000Y0068850D01*
X0213000Y0071850D01*
X0236000Y0071850D01*
X0259000Y0094850D01*
X0262084Y0094756D02*
X0317500Y0094756D01*
X0317500Y0093758D02*
X0261886Y0093758D01*
X0261271Y0092759D02*
X0317500Y0092759D01*
X0317500Y0091761D02*
X0258739Y0091761D01*
X0257741Y0090762D02*
X0317500Y0090762D01*
X0317500Y0089764D02*
X0256742Y0089764D01*
X0255744Y0088765D02*
X0317500Y0088765D01*
X0317500Y0087767D02*
X0254745Y0087767D01*
X0254015Y0086768D02*
X0317500Y0086768D01*
X0317500Y0085770D02*
X0255442Y0085770D01*
X0255957Y0084771D02*
X0317500Y0084771D01*
X0317500Y0083773D02*
X0256084Y0083773D01*
X0255893Y0082774D02*
X0317500Y0082774D01*
X0317500Y0081776D02*
X0255287Y0081776D01*
X0253641Y0080777D02*
X0317500Y0080777D01*
X0317500Y0079779D02*
X0251757Y0079779D01*
X0250758Y0078780D02*
X0317500Y0078780D01*
X0317500Y0077782D02*
X0249760Y0077782D01*
X0248761Y0076783D02*
X0317500Y0076783D01*
X0317500Y0075784D02*
X0247763Y0075784D01*
X0246764Y0074786D02*
X0317500Y0074786D01*
X0317500Y0073787D02*
X0282968Y0073787D01*
X0282613Y0073934D02*
X0283747Y0073465D01*
X0284615Y0072597D01*
X0285084Y0071463D01*
X0285084Y0070236D01*
X0284615Y0069103D01*
X0283747Y0068235D01*
X0282613Y0067766D01*
X0281386Y0067766D01*
X0280253Y0068235D01*
X0279638Y0068850D01*
X0257362Y0068850D01*
X0256747Y0068235D01*
X0255613Y0067766D01*
X0254386Y0067766D01*
X0253253Y0068235D01*
X0252385Y0069103D01*
X0251916Y0070236D01*
X0251916Y0071463D01*
X0252385Y0072597D01*
X0253253Y0073465D01*
X0254386Y0073934D01*
X0255613Y0073934D01*
X0256747Y0073465D01*
X0257362Y0072850D01*
X0279638Y0072850D01*
X0280253Y0073465D01*
X0281386Y0073934D01*
X0282613Y0073934D01*
X0281032Y0073787D02*
X0255968Y0073787D01*
X0254032Y0073787D02*
X0245766Y0073787D01*
X0244767Y0072789D02*
X0252577Y0072789D01*
X0252051Y0071790D02*
X0243769Y0071790D01*
X0242770Y0070792D02*
X0251916Y0070792D01*
X0252099Y0069793D02*
X0241772Y0069793D01*
X0240773Y0068795D02*
X0252693Y0068795D01*
X0254312Y0067796D02*
X0239946Y0067796D01*
X0238000Y0068850D02*
X0229000Y0068850D01*
X0229000Y0074850D02*
X0249000Y0094850D01*
X0253000Y0083850D02*
X0238000Y0068850D01*
X0239000Y0064850D02*
X0294000Y0064850D01*
X0297084Y0064801D02*
X0317500Y0064801D01*
X0317500Y0065799D02*
X0296945Y0065799D01*
X0296414Y0066798D02*
X0317500Y0066798D01*
X0317500Y0067796D02*
X0294946Y0067796D01*
X0293054Y0067796D02*
X0282688Y0067796D01*
X0281312Y0067796D02*
X0255688Y0067796D01*
X0257307Y0068795D02*
X0279693Y0068795D01*
X0282000Y0070850D02*
X0255000Y0070850D01*
X0269000Y0061850D02*
X0221000Y0061850D01*
X0214000Y0068850D01*
X0214000Y0061850D02*
X0216000Y0059850D01*
X0240000Y0059850D01*
X0235000Y0064850D02*
X0223000Y0064850D01*
X0229000Y0074850D02*
X0208000Y0074850D01*
X0203000Y0070850D01*
X0203000Y0064350D01*
X0203000Y0061350D02*
X0203000Y0058850D01*
X0199000Y0054850D01*
X0199000Y0049850D01*
X0201000Y0047850D01*
X0212000Y0047850D01*
X0214000Y0049850D01*
X0214000Y0052850D01*
X0217293Y0049823D02*
X0220707Y0049823D01*
X0220003Y0050822D02*
X0217997Y0050822D01*
X0218410Y0051820D02*
X0219590Y0051820D01*
X0219531Y0052819D02*
X0218468Y0052819D01*
X0218436Y0053817D02*
X0219564Y0053817D01*
X0219978Y0054816D02*
X0218022Y0054816D01*
X0217355Y0055814D02*
X0220645Y0055814D01*
X0222041Y0048825D02*
X0215959Y0048825D01*
X0209303Y0039838D02*
X0191374Y0039838D01*
X0191928Y0038840D02*
X0208900Y0038840D01*
X0208900Y0037841D02*
X0192084Y0037841D01*
X0191921Y0036843D02*
X0208900Y0036843D01*
X0209311Y0035844D02*
X0191356Y0035844D01*
X0183851Y0046828D02*
X0199194Y0046828D01*
X0198195Y0047826D02*
X0182852Y0047826D01*
X0182041Y0048825D02*
X0181854Y0048825D01*
X0179000Y0048850D02*
X0179000Y0055850D01*
X0186110Y0056813D02*
X0191935Y0056813D01*
X0191658Y0056672D02*
X0192285Y0056991D01*
X0192954Y0057208D01*
X0193516Y0057297D01*
X0193516Y0053334D01*
X0189552Y0053334D01*
X0189642Y0053896D01*
X0189859Y0054565D01*
X0190178Y0055192D01*
X0190592Y0055761D01*
X0191089Y0056258D01*
X0191658Y0056672D01*
X0190645Y0055814D02*
X0187355Y0055814D01*
X0188022Y0054816D02*
X0189986Y0054816D01*
X0189629Y0053817D02*
X0188436Y0053817D01*
X0188468Y0052819D02*
X0193516Y0052819D01*
X0193516Y0052366D02*
X0189552Y0052366D01*
X0189642Y0051804D01*
X0189859Y0051135D01*
X0190178Y0050508D01*
X0190592Y0049939D01*
X0191089Y0049442D01*
X0191658Y0049028D01*
X0192285Y0048709D01*
X0192954Y0048492D01*
X0193516Y0048402D01*
X0193516Y0052366D01*
X0193516Y0051820D02*
X0194484Y0051820D01*
X0194484Y0050822D02*
X0193516Y0050822D01*
X0193516Y0049823D02*
X0194484Y0049823D01*
X0194484Y0048825D02*
X0193516Y0048825D01*
X0192057Y0048825D02*
X0185959Y0048825D01*
X0187293Y0049823D02*
X0190707Y0049823D01*
X0190018Y0050822D02*
X0187997Y0050822D01*
X0188410Y0051820D02*
X0189639Y0051820D01*
X0193516Y0053817D02*
X0194484Y0053817D01*
X0194484Y0054816D02*
X0193516Y0054816D01*
X0193516Y0055814D02*
X0194484Y0055814D01*
X0194484Y0056813D02*
X0193516Y0056813D01*
X0195238Y0057811D02*
X0199133Y0057811D01*
X0198134Y0056813D02*
X0196065Y0056813D01*
X0196600Y0058810D02*
X0200131Y0058810D01*
X0199750Y0059808D02*
X0197120Y0059808D01*
X0197281Y0060807D02*
X0199750Y0060807D01*
X0199750Y0061805D02*
X0197156Y0061805D01*
X0196686Y0062804D02*
X0199750Y0062804D01*
X0199750Y0063802D02*
X0196000Y0063802D01*
X0196000Y0064801D02*
X0199750Y0064801D01*
X0199750Y0065799D02*
X0199695Y0065799D01*
X0198305Y0065799D02*
X0196000Y0065799D01*
X0196000Y0066798D02*
X0196690Y0066798D01*
X0196098Y0067796D02*
X0196000Y0067796D01*
X0199000Y0068850D02*
X0199000Y0093850D01*
X0204000Y0079850D02*
X0214000Y0079850D01*
X0229000Y0094850D01*
X0234000Y0112850D02*
X0234000Y0114850D01*
X0229000Y0119850D01*
X0229541Y0136694D02*
X0200000Y0136694D01*
X0205671Y0137692D02*
X0229250Y0137692D01*
X0229250Y0138691D02*
X0206669Y0138691D01*
X0208918Y0139689D02*
X0229250Y0139689D01*
X0233625Y0139689D02*
X0234375Y0139689D01*
X0234375Y0138691D02*
X0233625Y0138691D01*
X0233625Y0137692D02*
X0234375Y0137692D01*
X0234375Y0136694D02*
X0233625Y0136694D01*
X0238459Y0136694D02*
X0240015Y0136694D01*
X0240440Y0137692D02*
X0238750Y0137692D01*
X0238750Y0138691D02*
X0239753Y0138691D01*
X0239339Y0139689D02*
X0238750Y0139689D01*
X0234375Y0141686D02*
X0233625Y0141686D01*
X0233625Y0142685D02*
X0234375Y0142685D01*
X0234375Y0143683D02*
X0233625Y0143683D01*
X0233625Y0144682D02*
X0234375Y0144682D01*
X0256886Y0144682D02*
X0261114Y0144682D01*
X0260116Y0143683D02*
X0257884Y0143683D01*
X0276675Y0134697D02*
X0278075Y0134697D01*
X0279000Y0136600D02*
X0282000Y0136600D01*
X0279000Y0136600D02*
X0279000Y0141100D01*
X0282000Y0141100D01*
X0282000Y0136600D01*
X0282000Y0137599D02*
X0279000Y0137599D01*
X0279000Y0138598D02*
X0282000Y0138598D01*
X0282000Y0139597D02*
X0279000Y0139597D01*
X0279000Y0140596D02*
X0282000Y0140596D01*
X0260924Y0123713D02*
X0257076Y0123713D01*
X0258074Y0124712D02*
X0259926Y0124712D01*
X0259366Y0125710D02*
X0258634Y0125710D01*
X0261964Y0095755D02*
X0317500Y0095755D01*
X0317500Y0072789D02*
X0284423Y0072789D01*
X0284949Y0071790D02*
X0317500Y0071790D01*
X0317500Y0070792D02*
X0285084Y0070792D01*
X0284901Y0069793D02*
X0317500Y0069793D01*
X0317500Y0068795D02*
X0284307Y0068795D01*
X0291684Y0062804D02*
X0271943Y0062804D01*
X0272084Y0061805D02*
X0293291Y0061805D01*
X0294709Y0061805D02*
X0317500Y0061805D01*
X0317500Y0060807D02*
X0272872Y0060807D01*
X0273870Y0059808D02*
X0317500Y0059808D01*
X0317500Y0058810D02*
X0274869Y0058810D01*
X0275867Y0057811D02*
X0317500Y0057811D01*
X0317500Y0056813D02*
X0316755Y0056813D01*
X0317500Y0062804D02*
X0296316Y0062804D01*
X0296904Y0063802D02*
X0317500Y0063802D01*
X0317500Y0048825D02*
X0316692Y0048825D01*
X0316051Y0045829D02*
X0317500Y0045829D01*
X0317500Y0044831D02*
X0317049Y0044831D01*
X0302000Y0048825D02*
X0295959Y0048825D01*
X0296531Y0049062D02*
X0294889Y0048381D01*
X0293111Y0048381D01*
X0291469Y0049062D01*
X0290212Y0050319D01*
X0289531Y0051961D01*
X0289531Y0053739D01*
X0290212Y0055381D01*
X0291469Y0056638D01*
X0293111Y0057318D01*
X0294889Y0057318D01*
X0296531Y0056638D01*
X0297788Y0055381D01*
X0298468Y0053739D01*
X0298468Y0051961D01*
X0297788Y0050319D01*
X0296531Y0049062D01*
X0297293Y0049823D02*
X0300707Y0049823D01*
X0300003Y0050822D02*
X0297997Y0050822D01*
X0298410Y0051820D02*
X0299590Y0051820D01*
X0299531Y0052819D02*
X0298468Y0052819D01*
X0298436Y0053817D02*
X0299564Y0053817D01*
X0299978Y0054816D02*
X0298022Y0054816D01*
X0297355Y0055814D02*
X0300645Y0055814D01*
X0301890Y0056813D02*
X0296110Y0056813D01*
X0291890Y0056813D02*
X0286110Y0056813D01*
X0286531Y0056638D02*
X0284889Y0057318D01*
X0283111Y0057318D01*
X0281469Y0056638D01*
X0280212Y0055381D01*
X0279531Y0053739D01*
X0279531Y0051961D01*
X0280212Y0050319D01*
X0281469Y0049062D01*
X0283111Y0048381D01*
X0284889Y0048381D01*
X0286531Y0049062D01*
X0287788Y0050319D01*
X0288468Y0051961D01*
X0288468Y0053739D01*
X0287788Y0055381D01*
X0286531Y0056638D01*
X0287355Y0055814D02*
X0290645Y0055814D01*
X0289978Y0054816D02*
X0288022Y0054816D01*
X0288436Y0053817D02*
X0289564Y0053817D01*
X0289531Y0052819D02*
X0288468Y0052819D01*
X0288410Y0051820D02*
X0289590Y0051820D01*
X0290003Y0050822D02*
X0287997Y0050822D01*
X0287293Y0049823D02*
X0290707Y0049823D01*
X0292041Y0048825D02*
X0285959Y0048825D01*
X0282041Y0048825D02*
X0275959Y0048825D01*
X0277293Y0049823D02*
X0280707Y0049823D01*
X0280003Y0050822D02*
X0277997Y0050822D01*
X0278410Y0051820D02*
X0279590Y0051820D01*
X0279531Y0052819D02*
X0278468Y0052819D01*
X0278436Y0053817D02*
X0279564Y0053817D01*
X0279978Y0054816D02*
X0278022Y0054816D01*
X0277355Y0055814D02*
X0280645Y0055814D01*
X0281890Y0056813D02*
X0276110Y0056813D01*
X0274000Y0056850D02*
X0269000Y0061850D01*
X0274000Y0056850D02*
X0274000Y0052850D01*
X0270707Y0049823D02*
X0267293Y0049823D01*
X0267997Y0050822D02*
X0270003Y0050822D01*
X0269590Y0051820D02*
X0268410Y0051820D01*
X0265959Y0048825D02*
X0272041Y0048825D01*
X0198172Y0047850D02*
X0198172Y0047850D01*
X0197197Y0048825D02*
X0195943Y0048825D01*
X0138484Y0104741D02*
X0137516Y0104741D01*
X0137516Y0105740D02*
X0138484Y0105740D01*
X0138484Y0106738D02*
X0137516Y0106738D01*
X0137516Y0107737D02*
X0138484Y0107737D01*
X0142468Y0109734D02*
X0144700Y0109734D01*
X0144700Y0110732D02*
X0142468Y0110732D01*
X0142468Y0111731D02*
X0144700Y0111731D01*
X0144700Y0112729D02*
X0142175Y0112729D01*
X0136685Y0116535D02*
X0136685Y0124850D01*
X0136084Y0131701D02*
X0148814Y0131701D01*
X0148814Y0132700D02*
X0135986Y0132700D01*
X0135514Y0133698D02*
X0148975Y0133698D01*
X0149389Y0134697D02*
X0134187Y0134697D01*
X0131983Y0135695D02*
X0150198Y0135695D01*
X0151714Y0136694D02*
X0130985Y0136694D01*
X0129986Y0137692D02*
X0153700Y0137692D01*
X0153700Y0138691D02*
X0149462Y0138691D01*
X0149750Y0139689D02*
X0153700Y0139689D01*
X0154000Y0145680D02*
X0149750Y0145680D01*
X0149750Y0146679D02*
X0154000Y0146679D01*
X0154000Y0147677D02*
X0108749Y0147677D01*
X0109650Y0146679D02*
X0112111Y0146679D01*
X0111113Y0145680D02*
X0109650Y0145680D01*
X0104700Y0144682D02*
X0102582Y0144682D01*
X0099000Y0148610D02*
X0099740Y0149850D01*
X0103371Y0151671D02*
X0114350Y0151671D01*
X0113352Y0152670D02*
X0103213Y0152670D01*
X0103453Y0153668D02*
X0112353Y0153668D01*
X0111355Y0154667D02*
X0103453Y0154667D01*
X0105500Y0160850D02*
X0099000Y0160850D01*
X0104000Y0158600D02*
X0107000Y0158600D01*
X0104000Y0158600D02*
X0104000Y0163100D01*
X0107000Y0163100D01*
X0107000Y0158600D01*
X0107000Y0159599D02*
X0104000Y0159599D01*
X0104000Y0160598D02*
X0107000Y0160598D01*
X0107000Y0161597D02*
X0104000Y0161597D01*
X0104000Y0162596D02*
X0107000Y0162596D01*
X0119031Y0167648D02*
X0119733Y0167648D01*
X0120029Y0166649D02*
X0128000Y0166649D01*
X0128000Y0165651D02*
X0124917Y0165651D01*
X0125915Y0164652D02*
X0128000Y0164652D01*
X0128000Y0163653D02*
X0127025Y0163653D01*
X0128000Y0167648D02*
X0124267Y0167648D01*
X0125514Y0168646D02*
X0128000Y0168646D01*
X0128000Y0169645D02*
X0126228Y0169645D01*
X0126641Y0170643D02*
X0128000Y0170643D01*
X0128000Y0171642D02*
X0126750Y0171642D01*
X0126750Y0172640D02*
X0128000Y0172640D01*
X0128000Y0177633D02*
X0126404Y0177633D01*
X0126750Y0178631D02*
X0128000Y0178631D01*
X0128000Y0179630D02*
X0126750Y0179630D01*
X0126750Y0180628D02*
X0128000Y0180628D01*
X0128000Y0181627D02*
X0122375Y0181627D01*
X0122375Y0182225D02*
X0126750Y0182225D01*
X0126750Y0185297D01*
X0126648Y0185679D01*
X0126450Y0186021D01*
X0126171Y0186300D01*
X0125829Y0186498D01*
X0125447Y0186600D01*
X0122375Y0186600D01*
X0122375Y0182225D01*
X0122375Y0182625D02*
X0121625Y0182625D01*
X0121625Y0183624D02*
X0122375Y0183624D01*
X0122375Y0184622D02*
X0121625Y0184622D01*
X0121625Y0185621D02*
X0122375Y0185621D01*
X0126663Y0185621D02*
X0128000Y0185621D01*
X0128000Y0184622D02*
X0126750Y0184622D01*
X0126750Y0183624D02*
X0128000Y0183624D01*
X0128000Y0182625D02*
X0126750Y0182625D01*
X0133888Y0147483D02*
X0133177Y0147252D01*
X0132510Y0146913D01*
X0131906Y0146473D01*
X0131377Y0145944D01*
X0130937Y0145340D01*
X0130598Y0144673D01*
X0130367Y0143962D01*
X0130250Y0143225D01*
X0134625Y0143225D01*
X0134625Y0147600D01*
X0133888Y0147483D01*
X0134625Y0146679D02*
X0135375Y0146679D01*
X0135375Y0147600D02*
X0135375Y0143225D01*
X0134625Y0143225D01*
X0134625Y0142475D01*
X0130250Y0142475D01*
X0130367Y0141738D01*
X0130598Y0141027D01*
X0130937Y0140360D01*
X0131377Y0139756D01*
X0131906Y0139227D01*
X0132510Y0138787D01*
X0133177Y0138448D01*
X0133888Y0138217D01*
X0134625Y0138100D01*
X0134625Y0142475D01*
X0135375Y0142475D01*
X0135375Y0143225D01*
X0139750Y0143225D01*
X0139633Y0143962D01*
X0139402Y0144673D01*
X0139063Y0145340D01*
X0138623Y0145944D01*
X0138094Y0146473D01*
X0137490Y0146913D01*
X0136823Y0147252D01*
X0136112Y0147483D01*
X0135375Y0147600D01*
X0135375Y0145680D02*
X0134625Y0145680D01*
X0134625Y0144682D02*
X0135375Y0144682D01*
X0135375Y0143683D02*
X0134625Y0143683D01*
X0134625Y0142685D02*
X0129750Y0142685D01*
X0129750Y0143683D02*
X0130323Y0143683D01*
X0130602Y0144682D02*
X0129383Y0144682D01*
X0128887Y0145680D02*
X0131185Y0145680D01*
X0132189Y0146679D02*
X0127889Y0146679D01*
X0125000Y0142850D02*
X0125000Y0139850D01*
X0133000Y0131850D01*
X0129916Y0131701D02*
X0122937Y0131701D01*
X0121979Y0132700D02*
X0129322Y0132700D01*
X0128323Y0133698D02*
X0120980Y0133698D01*
X0119982Y0134697D02*
X0127325Y0134697D01*
X0128988Y0138691D02*
X0132700Y0138691D01*
X0131443Y0139689D02*
X0128557Y0139689D01*
X0129246Y0140688D02*
X0130771Y0140688D01*
X0130384Y0141686D02*
X0129659Y0141686D01*
X0134625Y0141686D02*
X0135375Y0141686D01*
X0135375Y0142475D02*
X0135375Y0138100D01*
X0136112Y0138217D01*
X0136823Y0138448D01*
X0137490Y0138787D01*
X0138094Y0139227D01*
X0138623Y0139756D01*
X0139063Y0140360D01*
X0139402Y0141027D01*
X0139633Y0141738D01*
X0139750Y0142475D01*
X0135375Y0142475D01*
X0135375Y0142685D02*
X0140250Y0142685D01*
X0140250Y0143683D02*
X0139677Y0143683D01*
X0139398Y0144682D02*
X0140250Y0144682D01*
X0140250Y0145680D02*
X0138815Y0145680D01*
X0137811Y0146679D02*
X0140250Y0146679D01*
X0140250Y0141686D02*
X0139616Y0141686D01*
X0139229Y0140688D02*
X0140250Y0140688D01*
X0140250Y0139689D02*
X0138557Y0139689D01*
X0137300Y0138691D02*
X0140538Y0138691D01*
X0135375Y0138691D02*
X0134625Y0138691D01*
X0134625Y0139689D02*
X0135375Y0139689D01*
X0135375Y0140688D02*
X0134625Y0140688D01*
X0140454Y0130703D02*
X0140790Y0130703D01*
X0148328Y0130703D02*
X0148529Y0130703D01*
X0157359Y0129704D02*
X0158349Y0129704D01*
X0162722Y0129704D02*
X0180317Y0129704D01*
X0179319Y0130703D02*
X0177214Y0130703D01*
X0177862Y0131701D02*
X0179000Y0131701D01*
X0179000Y0132700D02*
X0178084Y0132700D01*
X0177987Y0133698D02*
X0179000Y0133698D01*
X0179000Y0134697D02*
X0177515Y0134697D01*
X0178033Y0135695D02*
X0176191Y0135695D01*
X0176000Y0136694D02*
X0177500Y0136694D01*
X0177500Y0137692D02*
X0176000Y0137692D01*
X0176000Y0138691D02*
X0177500Y0138691D01*
X0177500Y0139689D02*
X0176000Y0139689D01*
X0176000Y0140688D02*
X0177500Y0140688D01*
X0177500Y0141686D02*
X0176000Y0141686D01*
X0176000Y0142685D02*
X0177500Y0142685D01*
X0177338Y0143683D02*
X0176000Y0143683D01*
X0176000Y0144682D02*
X0176340Y0144682D01*
X0181000Y0138850D02*
X0181000Y0131850D01*
X0181780Y0126709D02*
X0171158Y0126709D01*
X0157301Y0118720D02*
X0152300Y0118720D01*
X0152663Y0119719D02*
X0156303Y0119719D01*
X0155304Y0120718D02*
X0153076Y0120718D01*
X0153084Y0121716D02*
X0154306Y0121716D01*
X0131800Y0116650D02*
X0128000Y0112850D01*
X0128000Y0108850D01*
X0123000Y0111850D02*
X0128811Y0117661D01*
X0128811Y0124850D01*
X0125042Y0130703D02*
X0124706Y0130703D01*
X0113063Y0124850D02*
X0113063Y0113787D01*
X0118000Y0108850D01*
X0193000Y0136694D02*
X0193000Y0136694D01*
X0193000Y0137692D02*
X0193000Y0137692D01*
X0193000Y0138691D02*
X0193000Y0138691D01*
X0193000Y0139689D02*
X0193000Y0139689D01*
D21*
X0189500Y0146850D03*
X0196500Y0146850D03*
X0193000Y0154850D03*
X0280500Y0146850D03*
X0287500Y0146850D03*
X0284000Y0154850D03*
D22*
X0289700Y0244950D02*
X0289700Y0252750D01*
X0270000Y0252750D02*
X0270000Y0244950D01*
X0250300Y0244950D02*
X0250300Y0252750D01*
X0202700Y0252750D02*
X0202700Y0244950D01*
X0183000Y0244950D02*
X0183000Y0252750D01*
X0163300Y0252750D02*
X0163300Y0244950D01*
X0047900Y0247950D02*
X0047900Y0255750D01*
X0028100Y0255750D02*
X0028100Y0247950D01*
D23*
X0210000Y0156850D03*
X0222000Y0156850D03*
X0301000Y0156850D03*
X0313000Y0156850D03*
D24*
X0284000Y0127850D03*
X0274000Y0127850D03*
X0264000Y0127850D03*
X0254000Y0127850D03*
X0244000Y0127850D03*
X0234000Y0127850D03*
X0224000Y0127850D03*
X0214000Y0127850D03*
X0214000Y0037850D03*
X0224000Y0037850D03*
X0234000Y0037850D03*
X0244000Y0037850D03*
X0254000Y0037850D03*
X0264000Y0037850D03*
X0274000Y0037850D03*
X0284000Y0037850D03*
D25*
X0073315Y0078007D02*
X0073315Y0083944D01*
X0012685Y0083944D02*
X0012685Y0078007D01*
X0033157Y0193756D02*
X0033157Y0199693D01*
X0052843Y0199693D02*
X0052843Y0193756D01*
D26*
X0030000Y0222050D02*
X0030000Y0227650D01*
X0010000Y0228050D02*
X0010000Y0233650D01*
X0026200Y0047850D02*
X0031800Y0047850D01*
X0040200Y0047850D02*
X0045800Y0047850D01*
X0045800Y0037850D02*
X0040200Y0037850D01*
X0031800Y0037850D02*
X0026200Y0037850D01*
D27*
X0067000Y0236850D02*
X0073000Y0236850D01*
X0073000Y0256850D02*
X0067000Y0256850D01*
D28*
X0018740Y0069850D03*
X0011260Y0069850D03*
D29*
X0028000Y0082350D03*
X0037000Y0082350D03*
X0046000Y0082350D03*
D30*
X0037000Y0057350D03*
D31*
X0037000Y0219850D03*
X0077000Y0219850D03*
D32*
X0165000Y0043350D03*
X0170000Y0035850D03*
X0175000Y0043350D03*
D33*
X0099000Y0148610D03*
X0099000Y0156090D03*
X0099000Y0175110D03*
X0099000Y0182590D03*
D34*
X0170000Y0148850D03*
X0170000Y0143850D03*
X0170000Y0138850D03*
X0181000Y0138850D03*
X0181000Y0143850D03*
X0181000Y0148850D03*
D35*
X0145000Y0142850D03*
X0122000Y0181850D03*
X0169000Y0098850D03*
X0234000Y0140850D03*
X0294000Y0122850D03*
D36*
X0304000Y0122850D03*
X0264000Y0140850D03*
X0254000Y0140850D03*
X0244000Y0140850D03*
X0169000Y0088850D03*
X0169000Y0078850D03*
X0169000Y0068850D03*
X0135000Y0142850D03*
X0125000Y0142850D03*
X0115000Y0142850D03*
X0122000Y0161850D03*
X0122000Y0171850D03*
D37*
X0145000Y0172850D03*
X0145000Y0162850D03*
X0145000Y0212850D03*
X0145000Y0242850D03*
D38*
X0088000Y0189350D03*
X0088000Y0174350D03*
X0088000Y0153350D03*
X0112500Y0160850D03*
X0127000Y0155850D03*
X0133000Y0131850D03*
X0131800Y0116650D03*
X0121000Y0116850D03*
X0113063Y0124850D03*
X0104000Y0114850D03*
X0093000Y0111850D03*
X0085000Y0114850D03*
X0125000Y0086850D03*
X0137000Y0092850D03*
X0149000Y0093850D03*
X0149000Y0089850D03*
X0149000Y0083850D03*
X0144000Y0070850D03*
X0144000Y0061850D03*
X0138000Y0056850D03*
X0136000Y0045850D03*
X0140000Y0040850D03*
X0154000Y0061850D03*
X0179000Y0076850D03*
X0184000Y0082850D03*
X0179000Y0088850D03*
X0179000Y0093850D03*
X0184000Y0093850D03*
X0189000Y0093850D03*
X0194000Y0093850D03*
X0199000Y0093850D03*
X0204000Y0079850D03*
X0199000Y0068850D03*
X0214000Y0068850D03*
X0214000Y0061850D03*
X0223000Y0064850D03*
X0235000Y0064850D03*
X0239000Y0064850D03*
X0255000Y0070850D03*
X0269000Y0061850D03*
X0282000Y0070850D03*
X0294000Y0064850D03*
X0294000Y0041850D03*
X0253000Y0083850D03*
X0249000Y0094850D03*
X0259000Y0094850D03*
X0289000Y0098850D03*
X0290000Y0159850D03*
X0199000Y0159850D03*
X0175000Y0132850D03*
X0184000Y0128850D03*
X0179000Y0120850D03*
X0170000Y0123850D03*
X0154000Y0124850D03*
X0150000Y0121350D03*
X0151000Y0103850D03*
X0155000Y0098850D03*
X0184000Y0103850D03*
X0156000Y0142850D03*
X0112500Y0181850D03*
X0114500Y0071350D03*
X0114500Y0063850D03*
X0103161Y0064250D03*
X0089260Y0058850D03*
X0109000Y0034850D03*
X0189000Y0037850D03*
D39*
X0229000Y0068850D03*
X0181000Y0138850D03*
X0170000Y0138850D03*
X0181000Y0148850D03*
X0222000Y0156850D03*
X0313000Y0156850D03*
X0111000Y0040850D03*
X0081000Y0041850D03*
X0081000Y0057850D03*
X0081000Y0079850D03*
D40*
X0081000Y0057850D01*
X0089441Y0048850D02*
X0065000Y0048850D01*
X0065000Y0043850D01*
X0065000Y0048850D02*
X0063000Y0048850D01*
X0057000Y0054850D01*
X0054500Y0057350D01*
X0037000Y0057350D01*
X0037000Y0082350D01*
X0046000Y0082350D02*
X0046000Y0093850D01*
X0078000Y0093850D01*
X0081000Y0096850D01*
X0081000Y0110850D01*
X0085000Y0114850D01*
X0046000Y0093850D02*
X0025559Y0093850D01*
X0012685Y0080976D01*
X0010000Y0078291D01*
X0010000Y0067850D01*
X0010000Y0059850D01*
X0010000Y0053850D01*
X0016000Y0047850D01*
X0029000Y0047850D01*
X0043000Y0037850D02*
X0077000Y0037850D01*
X0081000Y0041850D01*
X0109000Y0034850D02*
X0134000Y0034850D01*
X0140000Y0040850D01*
X0154000Y0061850D02*
X0182000Y0061850D01*
X0189000Y0068850D01*
X0189000Y0093850D01*
X0169000Y0098850D02*
X0155000Y0098850D01*
X0147000Y0098850D01*
X0147000Y0115850D01*
X0150000Y0118850D01*
X0150000Y0121350D01*
X0150000Y0128921D01*
X0153464Y0132386D01*
X0156000Y0134921D01*
X0156000Y0142850D01*
X0145000Y0142850D01*
X0144000Y0098850D02*
X0138000Y0098850D01*
X0144000Y0098850D02*
X0144000Y0070850D01*
X0144000Y0098850D02*
X0147000Y0098850D01*
X0169000Y0098850D02*
X0289000Y0098850D01*
X0313000Y0156850D02*
X0313000Y0161307D01*
X0298079Y0176228D01*
X0222000Y0165307D02*
X0222000Y0156850D01*
X0222000Y0165307D02*
X0211079Y0176228D01*
D41*
X0043000Y0047850D02*
X0040000Y0047850D01*
X0037000Y0050850D01*
X0037000Y0057350D01*
X0040500Y0056350D01*
X0043000Y0037850D02*
X0029000Y0037850D01*
D42*
X0145000Y0242850D02*
X0145000Y0259850D01*
X0150000Y0264850D01*
X0200000Y0264850D01*
X0202700Y0262150D01*
X0202700Y0248850D01*
D43*
X0183000Y0248850D02*
X0183000Y0214850D01*
X0163000Y0194850D01*
X0163000Y0176275D01*
X0163047Y0176228D01*
X0250047Y0176228D02*
X0250000Y0179275D01*
X0250000Y0194850D01*
X0270000Y0214850D01*
X0270000Y0248850D01*
X0070000Y0256850D02*
X0052900Y0256850D01*
X0047900Y0251850D01*
X0030000Y0224850D02*
X0035000Y0219850D01*
X0045000Y0219850D01*
X0053000Y0211850D01*
X0053000Y0196881D01*
X0052843Y0196724D01*
D44*
X0194000Y0060850D03*
X0229000Y0094850D03*
M02*
