G75*
%MOIN*%
%OFA0B0*%
%FSLAX25Y25*%
%IPPOS*%
%LPD*%
%AMOC8*
5,1,8,0,0,1.08239X$1,22.5*
%
%ADD10C,0.00000*%
%ADD11C,0.02400*%
%ADD12C,0.00500*%
%ADD13C,0.00400*%
%ADD14C,0.00300*%
%ADD15C,0.00200*%
%ADD16C,0.00800*%
%ADD17C,0.00700*%
%ADD18C,0.01100*%
D10*
X0002000Y0031850D02*
X0319000Y0031850D01*
X0319000Y0267850D01*
X0002000Y0267850D01*
X0002000Y0031850D01*
X0003701Y0039850D02*
X0003703Y0040008D01*
X0003709Y0040166D01*
X0003719Y0040324D01*
X0003733Y0040482D01*
X0003751Y0040639D01*
X0003772Y0040796D01*
X0003798Y0040952D01*
X0003828Y0041108D01*
X0003861Y0041263D01*
X0003899Y0041416D01*
X0003940Y0041569D01*
X0003985Y0041721D01*
X0004034Y0041872D01*
X0004087Y0042021D01*
X0004143Y0042169D01*
X0004203Y0042315D01*
X0004267Y0042460D01*
X0004335Y0042603D01*
X0004406Y0042745D01*
X0004480Y0042885D01*
X0004558Y0043022D01*
X0004640Y0043158D01*
X0004724Y0043292D01*
X0004813Y0043423D01*
X0004904Y0043552D01*
X0004999Y0043679D01*
X0005096Y0043804D01*
X0005197Y0043926D01*
X0005301Y0044045D01*
X0005408Y0044162D01*
X0005518Y0044276D01*
X0005631Y0044387D01*
X0005746Y0044496D01*
X0005864Y0044601D01*
X0005985Y0044703D01*
X0006108Y0044803D01*
X0006234Y0044899D01*
X0006362Y0044992D01*
X0006492Y0045082D01*
X0006625Y0045168D01*
X0006760Y0045252D01*
X0006896Y0045331D01*
X0007035Y0045408D01*
X0007176Y0045480D01*
X0007318Y0045550D01*
X0007462Y0045615D01*
X0007608Y0045677D01*
X0007755Y0045735D01*
X0007904Y0045790D01*
X0008054Y0045841D01*
X0008205Y0045888D01*
X0008357Y0045931D01*
X0008510Y0045970D01*
X0008665Y0046006D01*
X0008820Y0046037D01*
X0008976Y0046065D01*
X0009132Y0046089D01*
X0009289Y0046109D01*
X0009447Y0046125D01*
X0009604Y0046137D01*
X0009763Y0046145D01*
X0009921Y0046149D01*
X0010079Y0046149D01*
X0010237Y0046145D01*
X0010396Y0046137D01*
X0010553Y0046125D01*
X0010711Y0046109D01*
X0010868Y0046089D01*
X0011024Y0046065D01*
X0011180Y0046037D01*
X0011335Y0046006D01*
X0011490Y0045970D01*
X0011643Y0045931D01*
X0011795Y0045888D01*
X0011946Y0045841D01*
X0012096Y0045790D01*
X0012245Y0045735D01*
X0012392Y0045677D01*
X0012538Y0045615D01*
X0012682Y0045550D01*
X0012824Y0045480D01*
X0012965Y0045408D01*
X0013104Y0045331D01*
X0013240Y0045252D01*
X0013375Y0045168D01*
X0013508Y0045082D01*
X0013638Y0044992D01*
X0013766Y0044899D01*
X0013892Y0044803D01*
X0014015Y0044703D01*
X0014136Y0044601D01*
X0014254Y0044496D01*
X0014369Y0044387D01*
X0014482Y0044276D01*
X0014592Y0044162D01*
X0014699Y0044045D01*
X0014803Y0043926D01*
X0014904Y0043804D01*
X0015001Y0043679D01*
X0015096Y0043552D01*
X0015187Y0043423D01*
X0015276Y0043292D01*
X0015360Y0043158D01*
X0015442Y0043022D01*
X0015520Y0042885D01*
X0015594Y0042745D01*
X0015665Y0042603D01*
X0015733Y0042460D01*
X0015797Y0042315D01*
X0015857Y0042169D01*
X0015913Y0042021D01*
X0015966Y0041872D01*
X0016015Y0041721D01*
X0016060Y0041569D01*
X0016101Y0041416D01*
X0016139Y0041263D01*
X0016172Y0041108D01*
X0016202Y0040952D01*
X0016228Y0040796D01*
X0016249Y0040639D01*
X0016267Y0040482D01*
X0016281Y0040324D01*
X0016291Y0040166D01*
X0016297Y0040008D01*
X0016299Y0039850D01*
X0016297Y0039692D01*
X0016291Y0039534D01*
X0016281Y0039376D01*
X0016267Y0039218D01*
X0016249Y0039061D01*
X0016228Y0038904D01*
X0016202Y0038748D01*
X0016172Y0038592D01*
X0016139Y0038437D01*
X0016101Y0038284D01*
X0016060Y0038131D01*
X0016015Y0037979D01*
X0015966Y0037828D01*
X0015913Y0037679D01*
X0015857Y0037531D01*
X0015797Y0037385D01*
X0015733Y0037240D01*
X0015665Y0037097D01*
X0015594Y0036955D01*
X0015520Y0036815D01*
X0015442Y0036678D01*
X0015360Y0036542D01*
X0015276Y0036408D01*
X0015187Y0036277D01*
X0015096Y0036148D01*
X0015001Y0036021D01*
X0014904Y0035896D01*
X0014803Y0035774D01*
X0014699Y0035655D01*
X0014592Y0035538D01*
X0014482Y0035424D01*
X0014369Y0035313D01*
X0014254Y0035204D01*
X0014136Y0035099D01*
X0014015Y0034997D01*
X0013892Y0034897D01*
X0013766Y0034801D01*
X0013638Y0034708D01*
X0013508Y0034618D01*
X0013375Y0034532D01*
X0013240Y0034448D01*
X0013104Y0034369D01*
X0012965Y0034292D01*
X0012824Y0034220D01*
X0012682Y0034150D01*
X0012538Y0034085D01*
X0012392Y0034023D01*
X0012245Y0033965D01*
X0012096Y0033910D01*
X0011946Y0033859D01*
X0011795Y0033812D01*
X0011643Y0033769D01*
X0011490Y0033730D01*
X0011335Y0033694D01*
X0011180Y0033663D01*
X0011024Y0033635D01*
X0010868Y0033611D01*
X0010711Y0033591D01*
X0010553Y0033575D01*
X0010396Y0033563D01*
X0010237Y0033555D01*
X0010079Y0033551D01*
X0009921Y0033551D01*
X0009763Y0033555D01*
X0009604Y0033563D01*
X0009447Y0033575D01*
X0009289Y0033591D01*
X0009132Y0033611D01*
X0008976Y0033635D01*
X0008820Y0033663D01*
X0008665Y0033694D01*
X0008510Y0033730D01*
X0008357Y0033769D01*
X0008205Y0033812D01*
X0008054Y0033859D01*
X0007904Y0033910D01*
X0007755Y0033965D01*
X0007608Y0034023D01*
X0007462Y0034085D01*
X0007318Y0034150D01*
X0007176Y0034220D01*
X0007035Y0034292D01*
X0006896Y0034369D01*
X0006760Y0034448D01*
X0006625Y0034532D01*
X0006492Y0034618D01*
X0006362Y0034708D01*
X0006234Y0034801D01*
X0006108Y0034897D01*
X0005985Y0034997D01*
X0005864Y0035099D01*
X0005746Y0035204D01*
X0005631Y0035313D01*
X0005518Y0035424D01*
X0005408Y0035538D01*
X0005301Y0035655D01*
X0005197Y0035774D01*
X0005096Y0035896D01*
X0004999Y0036021D01*
X0004904Y0036148D01*
X0004813Y0036277D01*
X0004724Y0036408D01*
X0004640Y0036542D01*
X0004558Y0036678D01*
X0004480Y0036815D01*
X0004406Y0036955D01*
X0004335Y0037097D01*
X0004267Y0037240D01*
X0004203Y0037385D01*
X0004143Y0037531D01*
X0004087Y0037679D01*
X0004034Y0037828D01*
X0003985Y0037979D01*
X0003940Y0038131D01*
X0003899Y0038284D01*
X0003861Y0038437D01*
X0003828Y0038592D01*
X0003798Y0038748D01*
X0003772Y0038904D01*
X0003751Y0039061D01*
X0003733Y0039218D01*
X0003719Y0039376D01*
X0003709Y0039534D01*
X0003703Y0039692D01*
X0003701Y0039850D01*
X0150750Y0052850D02*
X0150752Y0052963D01*
X0150758Y0053077D01*
X0150768Y0053190D01*
X0150782Y0053302D01*
X0150799Y0053414D01*
X0150821Y0053526D01*
X0150847Y0053636D01*
X0150876Y0053746D01*
X0150909Y0053854D01*
X0150946Y0053962D01*
X0150987Y0054067D01*
X0151031Y0054172D01*
X0151079Y0054275D01*
X0151130Y0054376D01*
X0151185Y0054475D01*
X0151244Y0054572D01*
X0151306Y0054667D01*
X0151371Y0054760D01*
X0151439Y0054851D01*
X0151510Y0054939D01*
X0151585Y0055025D01*
X0151662Y0055108D01*
X0151742Y0055188D01*
X0151825Y0055265D01*
X0151911Y0055340D01*
X0151999Y0055411D01*
X0152090Y0055479D01*
X0152183Y0055544D01*
X0152278Y0055606D01*
X0152375Y0055665D01*
X0152474Y0055720D01*
X0152575Y0055771D01*
X0152678Y0055819D01*
X0152783Y0055863D01*
X0152888Y0055904D01*
X0152996Y0055941D01*
X0153104Y0055974D01*
X0153214Y0056003D01*
X0153324Y0056029D01*
X0153436Y0056051D01*
X0153548Y0056068D01*
X0153660Y0056082D01*
X0153773Y0056092D01*
X0153887Y0056098D01*
X0154000Y0056100D01*
X0154113Y0056098D01*
X0154227Y0056092D01*
X0154340Y0056082D01*
X0154452Y0056068D01*
X0154564Y0056051D01*
X0154676Y0056029D01*
X0154786Y0056003D01*
X0154896Y0055974D01*
X0155004Y0055941D01*
X0155112Y0055904D01*
X0155217Y0055863D01*
X0155322Y0055819D01*
X0155425Y0055771D01*
X0155526Y0055720D01*
X0155625Y0055665D01*
X0155722Y0055606D01*
X0155817Y0055544D01*
X0155910Y0055479D01*
X0156001Y0055411D01*
X0156089Y0055340D01*
X0156175Y0055265D01*
X0156258Y0055188D01*
X0156338Y0055108D01*
X0156415Y0055025D01*
X0156490Y0054939D01*
X0156561Y0054851D01*
X0156629Y0054760D01*
X0156694Y0054667D01*
X0156756Y0054572D01*
X0156815Y0054475D01*
X0156870Y0054376D01*
X0156921Y0054275D01*
X0156969Y0054172D01*
X0157013Y0054067D01*
X0157054Y0053962D01*
X0157091Y0053854D01*
X0157124Y0053746D01*
X0157153Y0053636D01*
X0157179Y0053526D01*
X0157201Y0053414D01*
X0157218Y0053302D01*
X0157232Y0053190D01*
X0157242Y0053077D01*
X0157248Y0052963D01*
X0157250Y0052850D01*
X0157248Y0052737D01*
X0157242Y0052623D01*
X0157232Y0052510D01*
X0157218Y0052398D01*
X0157201Y0052286D01*
X0157179Y0052174D01*
X0157153Y0052064D01*
X0157124Y0051954D01*
X0157091Y0051846D01*
X0157054Y0051738D01*
X0157013Y0051633D01*
X0156969Y0051528D01*
X0156921Y0051425D01*
X0156870Y0051324D01*
X0156815Y0051225D01*
X0156756Y0051128D01*
X0156694Y0051033D01*
X0156629Y0050940D01*
X0156561Y0050849D01*
X0156490Y0050761D01*
X0156415Y0050675D01*
X0156338Y0050592D01*
X0156258Y0050512D01*
X0156175Y0050435D01*
X0156089Y0050360D01*
X0156001Y0050289D01*
X0155910Y0050221D01*
X0155817Y0050156D01*
X0155722Y0050094D01*
X0155625Y0050035D01*
X0155526Y0049980D01*
X0155425Y0049929D01*
X0155322Y0049881D01*
X0155217Y0049837D01*
X0155112Y0049796D01*
X0155004Y0049759D01*
X0154896Y0049726D01*
X0154786Y0049697D01*
X0154676Y0049671D01*
X0154564Y0049649D01*
X0154452Y0049632D01*
X0154340Y0049618D01*
X0154227Y0049608D01*
X0154113Y0049602D01*
X0154000Y0049600D01*
X0153887Y0049602D01*
X0153773Y0049608D01*
X0153660Y0049618D01*
X0153548Y0049632D01*
X0153436Y0049649D01*
X0153324Y0049671D01*
X0153214Y0049697D01*
X0153104Y0049726D01*
X0152996Y0049759D01*
X0152888Y0049796D01*
X0152783Y0049837D01*
X0152678Y0049881D01*
X0152575Y0049929D01*
X0152474Y0049980D01*
X0152375Y0050035D01*
X0152278Y0050094D01*
X0152183Y0050156D01*
X0152090Y0050221D01*
X0151999Y0050289D01*
X0151911Y0050360D01*
X0151825Y0050435D01*
X0151742Y0050512D01*
X0151662Y0050592D01*
X0151585Y0050675D01*
X0151510Y0050761D01*
X0151439Y0050849D01*
X0151371Y0050940D01*
X0151306Y0051033D01*
X0151244Y0051128D01*
X0151185Y0051225D01*
X0151130Y0051324D01*
X0151079Y0051425D01*
X0151031Y0051528D01*
X0150987Y0051633D01*
X0150946Y0051738D01*
X0150909Y0051846D01*
X0150876Y0051954D01*
X0150847Y0052064D01*
X0150821Y0052174D01*
X0150799Y0052286D01*
X0150782Y0052398D01*
X0150768Y0052510D01*
X0150758Y0052623D01*
X0150752Y0052737D01*
X0150750Y0052850D01*
X0150750Y0112850D02*
X0150752Y0112963D01*
X0150758Y0113077D01*
X0150768Y0113190D01*
X0150782Y0113302D01*
X0150799Y0113414D01*
X0150821Y0113526D01*
X0150847Y0113636D01*
X0150876Y0113746D01*
X0150909Y0113854D01*
X0150946Y0113962D01*
X0150987Y0114067D01*
X0151031Y0114172D01*
X0151079Y0114275D01*
X0151130Y0114376D01*
X0151185Y0114475D01*
X0151244Y0114572D01*
X0151306Y0114667D01*
X0151371Y0114760D01*
X0151439Y0114851D01*
X0151510Y0114939D01*
X0151585Y0115025D01*
X0151662Y0115108D01*
X0151742Y0115188D01*
X0151825Y0115265D01*
X0151911Y0115340D01*
X0151999Y0115411D01*
X0152090Y0115479D01*
X0152183Y0115544D01*
X0152278Y0115606D01*
X0152375Y0115665D01*
X0152474Y0115720D01*
X0152575Y0115771D01*
X0152678Y0115819D01*
X0152783Y0115863D01*
X0152888Y0115904D01*
X0152996Y0115941D01*
X0153104Y0115974D01*
X0153214Y0116003D01*
X0153324Y0116029D01*
X0153436Y0116051D01*
X0153548Y0116068D01*
X0153660Y0116082D01*
X0153773Y0116092D01*
X0153887Y0116098D01*
X0154000Y0116100D01*
X0154113Y0116098D01*
X0154227Y0116092D01*
X0154340Y0116082D01*
X0154452Y0116068D01*
X0154564Y0116051D01*
X0154676Y0116029D01*
X0154786Y0116003D01*
X0154896Y0115974D01*
X0155004Y0115941D01*
X0155112Y0115904D01*
X0155217Y0115863D01*
X0155322Y0115819D01*
X0155425Y0115771D01*
X0155526Y0115720D01*
X0155625Y0115665D01*
X0155722Y0115606D01*
X0155817Y0115544D01*
X0155910Y0115479D01*
X0156001Y0115411D01*
X0156089Y0115340D01*
X0156175Y0115265D01*
X0156258Y0115188D01*
X0156338Y0115108D01*
X0156415Y0115025D01*
X0156490Y0114939D01*
X0156561Y0114851D01*
X0156629Y0114760D01*
X0156694Y0114667D01*
X0156756Y0114572D01*
X0156815Y0114475D01*
X0156870Y0114376D01*
X0156921Y0114275D01*
X0156969Y0114172D01*
X0157013Y0114067D01*
X0157054Y0113962D01*
X0157091Y0113854D01*
X0157124Y0113746D01*
X0157153Y0113636D01*
X0157179Y0113526D01*
X0157201Y0113414D01*
X0157218Y0113302D01*
X0157232Y0113190D01*
X0157242Y0113077D01*
X0157248Y0112963D01*
X0157250Y0112850D01*
X0157248Y0112737D01*
X0157242Y0112623D01*
X0157232Y0112510D01*
X0157218Y0112398D01*
X0157201Y0112286D01*
X0157179Y0112174D01*
X0157153Y0112064D01*
X0157124Y0111954D01*
X0157091Y0111846D01*
X0157054Y0111738D01*
X0157013Y0111633D01*
X0156969Y0111528D01*
X0156921Y0111425D01*
X0156870Y0111324D01*
X0156815Y0111225D01*
X0156756Y0111128D01*
X0156694Y0111033D01*
X0156629Y0110940D01*
X0156561Y0110849D01*
X0156490Y0110761D01*
X0156415Y0110675D01*
X0156338Y0110592D01*
X0156258Y0110512D01*
X0156175Y0110435D01*
X0156089Y0110360D01*
X0156001Y0110289D01*
X0155910Y0110221D01*
X0155817Y0110156D01*
X0155722Y0110094D01*
X0155625Y0110035D01*
X0155526Y0109980D01*
X0155425Y0109929D01*
X0155322Y0109881D01*
X0155217Y0109837D01*
X0155112Y0109796D01*
X0155004Y0109759D01*
X0154896Y0109726D01*
X0154786Y0109697D01*
X0154676Y0109671D01*
X0154564Y0109649D01*
X0154452Y0109632D01*
X0154340Y0109618D01*
X0154227Y0109608D01*
X0154113Y0109602D01*
X0154000Y0109600D01*
X0153887Y0109602D01*
X0153773Y0109608D01*
X0153660Y0109618D01*
X0153548Y0109632D01*
X0153436Y0109649D01*
X0153324Y0109671D01*
X0153214Y0109697D01*
X0153104Y0109726D01*
X0152996Y0109759D01*
X0152888Y0109796D01*
X0152783Y0109837D01*
X0152678Y0109881D01*
X0152575Y0109929D01*
X0152474Y0109980D01*
X0152375Y0110035D01*
X0152278Y0110094D01*
X0152183Y0110156D01*
X0152090Y0110221D01*
X0151999Y0110289D01*
X0151911Y0110360D01*
X0151825Y0110435D01*
X0151742Y0110512D01*
X0151662Y0110592D01*
X0151585Y0110675D01*
X0151510Y0110761D01*
X0151439Y0110849D01*
X0151371Y0110940D01*
X0151306Y0111033D01*
X0151244Y0111128D01*
X0151185Y0111225D01*
X0151130Y0111324D01*
X0151079Y0111425D01*
X0151031Y0111528D01*
X0150987Y0111633D01*
X0150946Y0111738D01*
X0150909Y0111846D01*
X0150876Y0111954D01*
X0150847Y0112064D01*
X0150821Y0112174D01*
X0150799Y0112286D01*
X0150782Y0112398D01*
X0150768Y0112510D01*
X0150758Y0112623D01*
X0150752Y0112737D01*
X0150750Y0112850D01*
X0304701Y0129850D02*
X0304703Y0130008D01*
X0304709Y0130166D01*
X0304719Y0130324D01*
X0304733Y0130482D01*
X0304751Y0130639D01*
X0304772Y0130796D01*
X0304798Y0130952D01*
X0304828Y0131108D01*
X0304861Y0131263D01*
X0304899Y0131416D01*
X0304940Y0131569D01*
X0304985Y0131721D01*
X0305034Y0131872D01*
X0305087Y0132021D01*
X0305143Y0132169D01*
X0305203Y0132315D01*
X0305267Y0132460D01*
X0305335Y0132603D01*
X0305406Y0132745D01*
X0305480Y0132885D01*
X0305558Y0133022D01*
X0305640Y0133158D01*
X0305724Y0133292D01*
X0305813Y0133423D01*
X0305904Y0133552D01*
X0305999Y0133679D01*
X0306096Y0133804D01*
X0306197Y0133926D01*
X0306301Y0134045D01*
X0306408Y0134162D01*
X0306518Y0134276D01*
X0306631Y0134387D01*
X0306746Y0134496D01*
X0306864Y0134601D01*
X0306985Y0134703D01*
X0307108Y0134803D01*
X0307234Y0134899D01*
X0307362Y0134992D01*
X0307492Y0135082D01*
X0307625Y0135168D01*
X0307760Y0135252D01*
X0307896Y0135331D01*
X0308035Y0135408D01*
X0308176Y0135480D01*
X0308318Y0135550D01*
X0308462Y0135615D01*
X0308608Y0135677D01*
X0308755Y0135735D01*
X0308904Y0135790D01*
X0309054Y0135841D01*
X0309205Y0135888D01*
X0309357Y0135931D01*
X0309510Y0135970D01*
X0309665Y0136006D01*
X0309820Y0136037D01*
X0309976Y0136065D01*
X0310132Y0136089D01*
X0310289Y0136109D01*
X0310447Y0136125D01*
X0310604Y0136137D01*
X0310763Y0136145D01*
X0310921Y0136149D01*
X0311079Y0136149D01*
X0311237Y0136145D01*
X0311396Y0136137D01*
X0311553Y0136125D01*
X0311711Y0136109D01*
X0311868Y0136089D01*
X0312024Y0136065D01*
X0312180Y0136037D01*
X0312335Y0136006D01*
X0312490Y0135970D01*
X0312643Y0135931D01*
X0312795Y0135888D01*
X0312946Y0135841D01*
X0313096Y0135790D01*
X0313245Y0135735D01*
X0313392Y0135677D01*
X0313538Y0135615D01*
X0313682Y0135550D01*
X0313824Y0135480D01*
X0313965Y0135408D01*
X0314104Y0135331D01*
X0314240Y0135252D01*
X0314375Y0135168D01*
X0314508Y0135082D01*
X0314638Y0134992D01*
X0314766Y0134899D01*
X0314892Y0134803D01*
X0315015Y0134703D01*
X0315136Y0134601D01*
X0315254Y0134496D01*
X0315369Y0134387D01*
X0315482Y0134276D01*
X0315592Y0134162D01*
X0315699Y0134045D01*
X0315803Y0133926D01*
X0315904Y0133804D01*
X0316001Y0133679D01*
X0316096Y0133552D01*
X0316187Y0133423D01*
X0316276Y0133292D01*
X0316360Y0133158D01*
X0316442Y0133022D01*
X0316520Y0132885D01*
X0316594Y0132745D01*
X0316665Y0132603D01*
X0316733Y0132460D01*
X0316797Y0132315D01*
X0316857Y0132169D01*
X0316913Y0132021D01*
X0316966Y0131872D01*
X0317015Y0131721D01*
X0317060Y0131569D01*
X0317101Y0131416D01*
X0317139Y0131263D01*
X0317172Y0131108D01*
X0317202Y0130952D01*
X0317228Y0130796D01*
X0317249Y0130639D01*
X0317267Y0130482D01*
X0317281Y0130324D01*
X0317291Y0130166D01*
X0317297Y0130008D01*
X0317299Y0129850D01*
X0317297Y0129692D01*
X0317291Y0129534D01*
X0317281Y0129376D01*
X0317267Y0129218D01*
X0317249Y0129061D01*
X0317228Y0128904D01*
X0317202Y0128748D01*
X0317172Y0128592D01*
X0317139Y0128437D01*
X0317101Y0128284D01*
X0317060Y0128131D01*
X0317015Y0127979D01*
X0316966Y0127828D01*
X0316913Y0127679D01*
X0316857Y0127531D01*
X0316797Y0127385D01*
X0316733Y0127240D01*
X0316665Y0127097D01*
X0316594Y0126955D01*
X0316520Y0126815D01*
X0316442Y0126678D01*
X0316360Y0126542D01*
X0316276Y0126408D01*
X0316187Y0126277D01*
X0316096Y0126148D01*
X0316001Y0126021D01*
X0315904Y0125896D01*
X0315803Y0125774D01*
X0315699Y0125655D01*
X0315592Y0125538D01*
X0315482Y0125424D01*
X0315369Y0125313D01*
X0315254Y0125204D01*
X0315136Y0125099D01*
X0315015Y0124997D01*
X0314892Y0124897D01*
X0314766Y0124801D01*
X0314638Y0124708D01*
X0314508Y0124618D01*
X0314375Y0124532D01*
X0314240Y0124448D01*
X0314104Y0124369D01*
X0313965Y0124292D01*
X0313824Y0124220D01*
X0313682Y0124150D01*
X0313538Y0124085D01*
X0313392Y0124023D01*
X0313245Y0123965D01*
X0313096Y0123910D01*
X0312946Y0123859D01*
X0312795Y0123812D01*
X0312643Y0123769D01*
X0312490Y0123730D01*
X0312335Y0123694D01*
X0312180Y0123663D01*
X0312024Y0123635D01*
X0311868Y0123611D01*
X0311711Y0123591D01*
X0311553Y0123575D01*
X0311396Y0123563D01*
X0311237Y0123555D01*
X0311079Y0123551D01*
X0310921Y0123551D01*
X0310763Y0123555D01*
X0310604Y0123563D01*
X0310447Y0123575D01*
X0310289Y0123591D01*
X0310132Y0123611D01*
X0309976Y0123635D01*
X0309820Y0123663D01*
X0309665Y0123694D01*
X0309510Y0123730D01*
X0309357Y0123769D01*
X0309205Y0123812D01*
X0309054Y0123859D01*
X0308904Y0123910D01*
X0308755Y0123965D01*
X0308608Y0124023D01*
X0308462Y0124085D01*
X0308318Y0124150D01*
X0308176Y0124220D01*
X0308035Y0124292D01*
X0307896Y0124369D01*
X0307760Y0124448D01*
X0307625Y0124532D01*
X0307492Y0124618D01*
X0307362Y0124708D01*
X0307234Y0124801D01*
X0307108Y0124897D01*
X0306985Y0124997D01*
X0306864Y0125099D01*
X0306746Y0125204D01*
X0306631Y0125313D01*
X0306518Y0125424D01*
X0306408Y0125538D01*
X0306301Y0125655D01*
X0306197Y0125774D01*
X0306096Y0125896D01*
X0305999Y0126021D01*
X0305904Y0126148D01*
X0305813Y0126277D01*
X0305724Y0126408D01*
X0305640Y0126542D01*
X0305558Y0126678D01*
X0305480Y0126815D01*
X0305406Y0126955D01*
X0305335Y0127097D01*
X0305267Y0127240D01*
X0305203Y0127385D01*
X0305143Y0127531D01*
X0305087Y0127679D01*
X0305034Y0127828D01*
X0304985Y0127979D01*
X0304940Y0128131D01*
X0304899Y0128284D01*
X0304861Y0128437D01*
X0304828Y0128592D01*
X0304798Y0128748D01*
X0304772Y0128904D01*
X0304751Y0129061D01*
X0304733Y0129218D01*
X0304719Y0129376D01*
X0304709Y0129534D01*
X0304703Y0129692D01*
X0304701Y0129850D01*
X0310750Y0112850D02*
X0310752Y0112963D01*
X0310758Y0113077D01*
X0310768Y0113190D01*
X0310782Y0113302D01*
X0310799Y0113414D01*
X0310821Y0113526D01*
X0310847Y0113636D01*
X0310876Y0113746D01*
X0310909Y0113854D01*
X0310946Y0113962D01*
X0310987Y0114067D01*
X0311031Y0114172D01*
X0311079Y0114275D01*
X0311130Y0114376D01*
X0311185Y0114475D01*
X0311244Y0114572D01*
X0311306Y0114667D01*
X0311371Y0114760D01*
X0311439Y0114851D01*
X0311510Y0114939D01*
X0311585Y0115025D01*
X0311662Y0115108D01*
X0311742Y0115188D01*
X0311825Y0115265D01*
X0311911Y0115340D01*
X0311999Y0115411D01*
X0312090Y0115479D01*
X0312183Y0115544D01*
X0312278Y0115606D01*
X0312375Y0115665D01*
X0312474Y0115720D01*
X0312575Y0115771D01*
X0312678Y0115819D01*
X0312783Y0115863D01*
X0312888Y0115904D01*
X0312996Y0115941D01*
X0313104Y0115974D01*
X0313214Y0116003D01*
X0313324Y0116029D01*
X0313436Y0116051D01*
X0313548Y0116068D01*
X0313660Y0116082D01*
X0313773Y0116092D01*
X0313887Y0116098D01*
X0314000Y0116100D01*
X0314113Y0116098D01*
X0314227Y0116092D01*
X0314340Y0116082D01*
X0314452Y0116068D01*
X0314564Y0116051D01*
X0314676Y0116029D01*
X0314786Y0116003D01*
X0314896Y0115974D01*
X0315004Y0115941D01*
X0315112Y0115904D01*
X0315217Y0115863D01*
X0315322Y0115819D01*
X0315425Y0115771D01*
X0315526Y0115720D01*
X0315625Y0115665D01*
X0315722Y0115606D01*
X0315817Y0115544D01*
X0315910Y0115479D01*
X0316001Y0115411D01*
X0316089Y0115340D01*
X0316175Y0115265D01*
X0316258Y0115188D01*
X0316338Y0115108D01*
X0316415Y0115025D01*
X0316490Y0114939D01*
X0316561Y0114851D01*
X0316629Y0114760D01*
X0316694Y0114667D01*
X0316756Y0114572D01*
X0316815Y0114475D01*
X0316870Y0114376D01*
X0316921Y0114275D01*
X0316969Y0114172D01*
X0317013Y0114067D01*
X0317054Y0113962D01*
X0317091Y0113854D01*
X0317124Y0113746D01*
X0317153Y0113636D01*
X0317179Y0113526D01*
X0317201Y0113414D01*
X0317218Y0113302D01*
X0317232Y0113190D01*
X0317242Y0113077D01*
X0317248Y0112963D01*
X0317250Y0112850D01*
X0317248Y0112737D01*
X0317242Y0112623D01*
X0317232Y0112510D01*
X0317218Y0112398D01*
X0317201Y0112286D01*
X0317179Y0112174D01*
X0317153Y0112064D01*
X0317124Y0111954D01*
X0317091Y0111846D01*
X0317054Y0111738D01*
X0317013Y0111633D01*
X0316969Y0111528D01*
X0316921Y0111425D01*
X0316870Y0111324D01*
X0316815Y0111225D01*
X0316756Y0111128D01*
X0316694Y0111033D01*
X0316629Y0110940D01*
X0316561Y0110849D01*
X0316490Y0110761D01*
X0316415Y0110675D01*
X0316338Y0110592D01*
X0316258Y0110512D01*
X0316175Y0110435D01*
X0316089Y0110360D01*
X0316001Y0110289D01*
X0315910Y0110221D01*
X0315817Y0110156D01*
X0315722Y0110094D01*
X0315625Y0110035D01*
X0315526Y0109980D01*
X0315425Y0109929D01*
X0315322Y0109881D01*
X0315217Y0109837D01*
X0315112Y0109796D01*
X0315004Y0109759D01*
X0314896Y0109726D01*
X0314786Y0109697D01*
X0314676Y0109671D01*
X0314564Y0109649D01*
X0314452Y0109632D01*
X0314340Y0109618D01*
X0314227Y0109608D01*
X0314113Y0109602D01*
X0314000Y0109600D01*
X0313887Y0109602D01*
X0313773Y0109608D01*
X0313660Y0109618D01*
X0313548Y0109632D01*
X0313436Y0109649D01*
X0313324Y0109671D01*
X0313214Y0109697D01*
X0313104Y0109726D01*
X0312996Y0109759D01*
X0312888Y0109796D01*
X0312783Y0109837D01*
X0312678Y0109881D01*
X0312575Y0109929D01*
X0312474Y0109980D01*
X0312375Y0110035D01*
X0312278Y0110094D01*
X0312183Y0110156D01*
X0312090Y0110221D01*
X0311999Y0110289D01*
X0311911Y0110360D01*
X0311825Y0110435D01*
X0311742Y0110512D01*
X0311662Y0110592D01*
X0311585Y0110675D01*
X0311510Y0110761D01*
X0311439Y0110849D01*
X0311371Y0110940D01*
X0311306Y0111033D01*
X0311244Y0111128D01*
X0311185Y0111225D01*
X0311130Y0111324D01*
X0311079Y0111425D01*
X0311031Y0111528D01*
X0310987Y0111633D01*
X0310946Y0111738D01*
X0310909Y0111846D01*
X0310876Y0111954D01*
X0310847Y0112064D01*
X0310821Y0112174D01*
X0310799Y0112286D01*
X0310782Y0112398D01*
X0310768Y0112510D01*
X0310758Y0112623D01*
X0310752Y0112737D01*
X0310750Y0112850D01*
X0310750Y0052850D02*
X0310752Y0052963D01*
X0310758Y0053077D01*
X0310768Y0053190D01*
X0310782Y0053302D01*
X0310799Y0053414D01*
X0310821Y0053526D01*
X0310847Y0053636D01*
X0310876Y0053746D01*
X0310909Y0053854D01*
X0310946Y0053962D01*
X0310987Y0054067D01*
X0311031Y0054172D01*
X0311079Y0054275D01*
X0311130Y0054376D01*
X0311185Y0054475D01*
X0311244Y0054572D01*
X0311306Y0054667D01*
X0311371Y0054760D01*
X0311439Y0054851D01*
X0311510Y0054939D01*
X0311585Y0055025D01*
X0311662Y0055108D01*
X0311742Y0055188D01*
X0311825Y0055265D01*
X0311911Y0055340D01*
X0311999Y0055411D01*
X0312090Y0055479D01*
X0312183Y0055544D01*
X0312278Y0055606D01*
X0312375Y0055665D01*
X0312474Y0055720D01*
X0312575Y0055771D01*
X0312678Y0055819D01*
X0312783Y0055863D01*
X0312888Y0055904D01*
X0312996Y0055941D01*
X0313104Y0055974D01*
X0313214Y0056003D01*
X0313324Y0056029D01*
X0313436Y0056051D01*
X0313548Y0056068D01*
X0313660Y0056082D01*
X0313773Y0056092D01*
X0313887Y0056098D01*
X0314000Y0056100D01*
X0314113Y0056098D01*
X0314227Y0056092D01*
X0314340Y0056082D01*
X0314452Y0056068D01*
X0314564Y0056051D01*
X0314676Y0056029D01*
X0314786Y0056003D01*
X0314896Y0055974D01*
X0315004Y0055941D01*
X0315112Y0055904D01*
X0315217Y0055863D01*
X0315322Y0055819D01*
X0315425Y0055771D01*
X0315526Y0055720D01*
X0315625Y0055665D01*
X0315722Y0055606D01*
X0315817Y0055544D01*
X0315910Y0055479D01*
X0316001Y0055411D01*
X0316089Y0055340D01*
X0316175Y0055265D01*
X0316258Y0055188D01*
X0316338Y0055108D01*
X0316415Y0055025D01*
X0316490Y0054939D01*
X0316561Y0054851D01*
X0316629Y0054760D01*
X0316694Y0054667D01*
X0316756Y0054572D01*
X0316815Y0054475D01*
X0316870Y0054376D01*
X0316921Y0054275D01*
X0316969Y0054172D01*
X0317013Y0054067D01*
X0317054Y0053962D01*
X0317091Y0053854D01*
X0317124Y0053746D01*
X0317153Y0053636D01*
X0317179Y0053526D01*
X0317201Y0053414D01*
X0317218Y0053302D01*
X0317232Y0053190D01*
X0317242Y0053077D01*
X0317248Y0052963D01*
X0317250Y0052850D01*
X0317248Y0052737D01*
X0317242Y0052623D01*
X0317232Y0052510D01*
X0317218Y0052398D01*
X0317201Y0052286D01*
X0317179Y0052174D01*
X0317153Y0052064D01*
X0317124Y0051954D01*
X0317091Y0051846D01*
X0317054Y0051738D01*
X0317013Y0051633D01*
X0316969Y0051528D01*
X0316921Y0051425D01*
X0316870Y0051324D01*
X0316815Y0051225D01*
X0316756Y0051128D01*
X0316694Y0051033D01*
X0316629Y0050940D01*
X0316561Y0050849D01*
X0316490Y0050761D01*
X0316415Y0050675D01*
X0316338Y0050592D01*
X0316258Y0050512D01*
X0316175Y0050435D01*
X0316089Y0050360D01*
X0316001Y0050289D01*
X0315910Y0050221D01*
X0315817Y0050156D01*
X0315722Y0050094D01*
X0315625Y0050035D01*
X0315526Y0049980D01*
X0315425Y0049929D01*
X0315322Y0049881D01*
X0315217Y0049837D01*
X0315112Y0049796D01*
X0315004Y0049759D01*
X0314896Y0049726D01*
X0314786Y0049697D01*
X0314676Y0049671D01*
X0314564Y0049649D01*
X0314452Y0049632D01*
X0314340Y0049618D01*
X0314227Y0049608D01*
X0314113Y0049602D01*
X0314000Y0049600D01*
X0313887Y0049602D01*
X0313773Y0049608D01*
X0313660Y0049618D01*
X0313548Y0049632D01*
X0313436Y0049649D01*
X0313324Y0049671D01*
X0313214Y0049697D01*
X0313104Y0049726D01*
X0312996Y0049759D01*
X0312888Y0049796D01*
X0312783Y0049837D01*
X0312678Y0049881D01*
X0312575Y0049929D01*
X0312474Y0049980D01*
X0312375Y0050035D01*
X0312278Y0050094D01*
X0312183Y0050156D01*
X0312090Y0050221D01*
X0311999Y0050289D01*
X0311911Y0050360D01*
X0311825Y0050435D01*
X0311742Y0050512D01*
X0311662Y0050592D01*
X0311585Y0050675D01*
X0311510Y0050761D01*
X0311439Y0050849D01*
X0311371Y0050940D01*
X0311306Y0051033D01*
X0311244Y0051128D01*
X0311185Y0051225D01*
X0311130Y0051324D01*
X0311079Y0051425D01*
X0311031Y0051528D01*
X0310987Y0051633D01*
X0310946Y0051738D01*
X0310909Y0051846D01*
X0310876Y0051954D01*
X0310847Y0052064D01*
X0310821Y0052174D01*
X0310799Y0052286D01*
X0310782Y0052398D01*
X0310768Y0052510D01*
X0310758Y0052623D01*
X0310752Y0052737D01*
X0310750Y0052850D01*
X0304701Y0039850D02*
X0304703Y0040008D01*
X0304709Y0040166D01*
X0304719Y0040324D01*
X0304733Y0040482D01*
X0304751Y0040639D01*
X0304772Y0040796D01*
X0304798Y0040952D01*
X0304828Y0041108D01*
X0304861Y0041263D01*
X0304899Y0041416D01*
X0304940Y0041569D01*
X0304985Y0041721D01*
X0305034Y0041872D01*
X0305087Y0042021D01*
X0305143Y0042169D01*
X0305203Y0042315D01*
X0305267Y0042460D01*
X0305335Y0042603D01*
X0305406Y0042745D01*
X0305480Y0042885D01*
X0305558Y0043022D01*
X0305640Y0043158D01*
X0305724Y0043292D01*
X0305813Y0043423D01*
X0305904Y0043552D01*
X0305999Y0043679D01*
X0306096Y0043804D01*
X0306197Y0043926D01*
X0306301Y0044045D01*
X0306408Y0044162D01*
X0306518Y0044276D01*
X0306631Y0044387D01*
X0306746Y0044496D01*
X0306864Y0044601D01*
X0306985Y0044703D01*
X0307108Y0044803D01*
X0307234Y0044899D01*
X0307362Y0044992D01*
X0307492Y0045082D01*
X0307625Y0045168D01*
X0307760Y0045252D01*
X0307896Y0045331D01*
X0308035Y0045408D01*
X0308176Y0045480D01*
X0308318Y0045550D01*
X0308462Y0045615D01*
X0308608Y0045677D01*
X0308755Y0045735D01*
X0308904Y0045790D01*
X0309054Y0045841D01*
X0309205Y0045888D01*
X0309357Y0045931D01*
X0309510Y0045970D01*
X0309665Y0046006D01*
X0309820Y0046037D01*
X0309976Y0046065D01*
X0310132Y0046089D01*
X0310289Y0046109D01*
X0310447Y0046125D01*
X0310604Y0046137D01*
X0310763Y0046145D01*
X0310921Y0046149D01*
X0311079Y0046149D01*
X0311237Y0046145D01*
X0311396Y0046137D01*
X0311553Y0046125D01*
X0311711Y0046109D01*
X0311868Y0046089D01*
X0312024Y0046065D01*
X0312180Y0046037D01*
X0312335Y0046006D01*
X0312490Y0045970D01*
X0312643Y0045931D01*
X0312795Y0045888D01*
X0312946Y0045841D01*
X0313096Y0045790D01*
X0313245Y0045735D01*
X0313392Y0045677D01*
X0313538Y0045615D01*
X0313682Y0045550D01*
X0313824Y0045480D01*
X0313965Y0045408D01*
X0314104Y0045331D01*
X0314240Y0045252D01*
X0314375Y0045168D01*
X0314508Y0045082D01*
X0314638Y0044992D01*
X0314766Y0044899D01*
X0314892Y0044803D01*
X0315015Y0044703D01*
X0315136Y0044601D01*
X0315254Y0044496D01*
X0315369Y0044387D01*
X0315482Y0044276D01*
X0315592Y0044162D01*
X0315699Y0044045D01*
X0315803Y0043926D01*
X0315904Y0043804D01*
X0316001Y0043679D01*
X0316096Y0043552D01*
X0316187Y0043423D01*
X0316276Y0043292D01*
X0316360Y0043158D01*
X0316442Y0043022D01*
X0316520Y0042885D01*
X0316594Y0042745D01*
X0316665Y0042603D01*
X0316733Y0042460D01*
X0316797Y0042315D01*
X0316857Y0042169D01*
X0316913Y0042021D01*
X0316966Y0041872D01*
X0317015Y0041721D01*
X0317060Y0041569D01*
X0317101Y0041416D01*
X0317139Y0041263D01*
X0317172Y0041108D01*
X0317202Y0040952D01*
X0317228Y0040796D01*
X0317249Y0040639D01*
X0317267Y0040482D01*
X0317281Y0040324D01*
X0317291Y0040166D01*
X0317297Y0040008D01*
X0317299Y0039850D01*
X0317297Y0039692D01*
X0317291Y0039534D01*
X0317281Y0039376D01*
X0317267Y0039218D01*
X0317249Y0039061D01*
X0317228Y0038904D01*
X0317202Y0038748D01*
X0317172Y0038592D01*
X0317139Y0038437D01*
X0317101Y0038284D01*
X0317060Y0038131D01*
X0317015Y0037979D01*
X0316966Y0037828D01*
X0316913Y0037679D01*
X0316857Y0037531D01*
X0316797Y0037385D01*
X0316733Y0037240D01*
X0316665Y0037097D01*
X0316594Y0036955D01*
X0316520Y0036815D01*
X0316442Y0036678D01*
X0316360Y0036542D01*
X0316276Y0036408D01*
X0316187Y0036277D01*
X0316096Y0036148D01*
X0316001Y0036021D01*
X0315904Y0035896D01*
X0315803Y0035774D01*
X0315699Y0035655D01*
X0315592Y0035538D01*
X0315482Y0035424D01*
X0315369Y0035313D01*
X0315254Y0035204D01*
X0315136Y0035099D01*
X0315015Y0034997D01*
X0314892Y0034897D01*
X0314766Y0034801D01*
X0314638Y0034708D01*
X0314508Y0034618D01*
X0314375Y0034532D01*
X0314240Y0034448D01*
X0314104Y0034369D01*
X0313965Y0034292D01*
X0313824Y0034220D01*
X0313682Y0034150D01*
X0313538Y0034085D01*
X0313392Y0034023D01*
X0313245Y0033965D01*
X0313096Y0033910D01*
X0312946Y0033859D01*
X0312795Y0033812D01*
X0312643Y0033769D01*
X0312490Y0033730D01*
X0312335Y0033694D01*
X0312180Y0033663D01*
X0312024Y0033635D01*
X0311868Y0033611D01*
X0311711Y0033591D01*
X0311553Y0033575D01*
X0311396Y0033563D01*
X0311237Y0033555D01*
X0311079Y0033551D01*
X0310921Y0033551D01*
X0310763Y0033555D01*
X0310604Y0033563D01*
X0310447Y0033575D01*
X0310289Y0033591D01*
X0310132Y0033611D01*
X0309976Y0033635D01*
X0309820Y0033663D01*
X0309665Y0033694D01*
X0309510Y0033730D01*
X0309357Y0033769D01*
X0309205Y0033812D01*
X0309054Y0033859D01*
X0308904Y0033910D01*
X0308755Y0033965D01*
X0308608Y0034023D01*
X0308462Y0034085D01*
X0308318Y0034150D01*
X0308176Y0034220D01*
X0308035Y0034292D01*
X0307896Y0034369D01*
X0307760Y0034448D01*
X0307625Y0034532D01*
X0307492Y0034618D01*
X0307362Y0034708D01*
X0307234Y0034801D01*
X0307108Y0034897D01*
X0306985Y0034997D01*
X0306864Y0035099D01*
X0306746Y0035204D01*
X0306631Y0035313D01*
X0306518Y0035424D01*
X0306408Y0035538D01*
X0306301Y0035655D01*
X0306197Y0035774D01*
X0306096Y0035896D01*
X0305999Y0036021D01*
X0305904Y0036148D01*
X0305813Y0036277D01*
X0305724Y0036408D01*
X0305640Y0036542D01*
X0305558Y0036678D01*
X0305480Y0036815D01*
X0305406Y0036955D01*
X0305335Y0037097D01*
X0305267Y0037240D01*
X0305203Y0037385D01*
X0305143Y0037531D01*
X0305087Y0037679D01*
X0305034Y0037828D01*
X0304985Y0037979D01*
X0304940Y0038131D01*
X0304899Y0038284D01*
X0304861Y0038437D01*
X0304828Y0038592D01*
X0304798Y0038748D01*
X0304772Y0038904D01*
X0304751Y0039061D01*
X0304733Y0039218D01*
X0304719Y0039376D01*
X0304709Y0039534D01*
X0304703Y0039692D01*
X0304701Y0039850D01*
X0304701Y0259850D02*
X0304703Y0260008D01*
X0304709Y0260166D01*
X0304719Y0260324D01*
X0304733Y0260482D01*
X0304751Y0260639D01*
X0304772Y0260796D01*
X0304798Y0260952D01*
X0304828Y0261108D01*
X0304861Y0261263D01*
X0304899Y0261416D01*
X0304940Y0261569D01*
X0304985Y0261721D01*
X0305034Y0261872D01*
X0305087Y0262021D01*
X0305143Y0262169D01*
X0305203Y0262315D01*
X0305267Y0262460D01*
X0305335Y0262603D01*
X0305406Y0262745D01*
X0305480Y0262885D01*
X0305558Y0263022D01*
X0305640Y0263158D01*
X0305724Y0263292D01*
X0305813Y0263423D01*
X0305904Y0263552D01*
X0305999Y0263679D01*
X0306096Y0263804D01*
X0306197Y0263926D01*
X0306301Y0264045D01*
X0306408Y0264162D01*
X0306518Y0264276D01*
X0306631Y0264387D01*
X0306746Y0264496D01*
X0306864Y0264601D01*
X0306985Y0264703D01*
X0307108Y0264803D01*
X0307234Y0264899D01*
X0307362Y0264992D01*
X0307492Y0265082D01*
X0307625Y0265168D01*
X0307760Y0265252D01*
X0307896Y0265331D01*
X0308035Y0265408D01*
X0308176Y0265480D01*
X0308318Y0265550D01*
X0308462Y0265615D01*
X0308608Y0265677D01*
X0308755Y0265735D01*
X0308904Y0265790D01*
X0309054Y0265841D01*
X0309205Y0265888D01*
X0309357Y0265931D01*
X0309510Y0265970D01*
X0309665Y0266006D01*
X0309820Y0266037D01*
X0309976Y0266065D01*
X0310132Y0266089D01*
X0310289Y0266109D01*
X0310447Y0266125D01*
X0310604Y0266137D01*
X0310763Y0266145D01*
X0310921Y0266149D01*
X0311079Y0266149D01*
X0311237Y0266145D01*
X0311396Y0266137D01*
X0311553Y0266125D01*
X0311711Y0266109D01*
X0311868Y0266089D01*
X0312024Y0266065D01*
X0312180Y0266037D01*
X0312335Y0266006D01*
X0312490Y0265970D01*
X0312643Y0265931D01*
X0312795Y0265888D01*
X0312946Y0265841D01*
X0313096Y0265790D01*
X0313245Y0265735D01*
X0313392Y0265677D01*
X0313538Y0265615D01*
X0313682Y0265550D01*
X0313824Y0265480D01*
X0313965Y0265408D01*
X0314104Y0265331D01*
X0314240Y0265252D01*
X0314375Y0265168D01*
X0314508Y0265082D01*
X0314638Y0264992D01*
X0314766Y0264899D01*
X0314892Y0264803D01*
X0315015Y0264703D01*
X0315136Y0264601D01*
X0315254Y0264496D01*
X0315369Y0264387D01*
X0315482Y0264276D01*
X0315592Y0264162D01*
X0315699Y0264045D01*
X0315803Y0263926D01*
X0315904Y0263804D01*
X0316001Y0263679D01*
X0316096Y0263552D01*
X0316187Y0263423D01*
X0316276Y0263292D01*
X0316360Y0263158D01*
X0316442Y0263022D01*
X0316520Y0262885D01*
X0316594Y0262745D01*
X0316665Y0262603D01*
X0316733Y0262460D01*
X0316797Y0262315D01*
X0316857Y0262169D01*
X0316913Y0262021D01*
X0316966Y0261872D01*
X0317015Y0261721D01*
X0317060Y0261569D01*
X0317101Y0261416D01*
X0317139Y0261263D01*
X0317172Y0261108D01*
X0317202Y0260952D01*
X0317228Y0260796D01*
X0317249Y0260639D01*
X0317267Y0260482D01*
X0317281Y0260324D01*
X0317291Y0260166D01*
X0317297Y0260008D01*
X0317299Y0259850D01*
X0317297Y0259692D01*
X0317291Y0259534D01*
X0317281Y0259376D01*
X0317267Y0259218D01*
X0317249Y0259061D01*
X0317228Y0258904D01*
X0317202Y0258748D01*
X0317172Y0258592D01*
X0317139Y0258437D01*
X0317101Y0258284D01*
X0317060Y0258131D01*
X0317015Y0257979D01*
X0316966Y0257828D01*
X0316913Y0257679D01*
X0316857Y0257531D01*
X0316797Y0257385D01*
X0316733Y0257240D01*
X0316665Y0257097D01*
X0316594Y0256955D01*
X0316520Y0256815D01*
X0316442Y0256678D01*
X0316360Y0256542D01*
X0316276Y0256408D01*
X0316187Y0256277D01*
X0316096Y0256148D01*
X0316001Y0256021D01*
X0315904Y0255896D01*
X0315803Y0255774D01*
X0315699Y0255655D01*
X0315592Y0255538D01*
X0315482Y0255424D01*
X0315369Y0255313D01*
X0315254Y0255204D01*
X0315136Y0255099D01*
X0315015Y0254997D01*
X0314892Y0254897D01*
X0314766Y0254801D01*
X0314638Y0254708D01*
X0314508Y0254618D01*
X0314375Y0254532D01*
X0314240Y0254448D01*
X0314104Y0254369D01*
X0313965Y0254292D01*
X0313824Y0254220D01*
X0313682Y0254150D01*
X0313538Y0254085D01*
X0313392Y0254023D01*
X0313245Y0253965D01*
X0313096Y0253910D01*
X0312946Y0253859D01*
X0312795Y0253812D01*
X0312643Y0253769D01*
X0312490Y0253730D01*
X0312335Y0253694D01*
X0312180Y0253663D01*
X0312024Y0253635D01*
X0311868Y0253611D01*
X0311711Y0253591D01*
X0311553Y0253575D01*
X0311396Y0253563D01*
X0311237Y0253555D01*
X0311079Y0253551D01*
X0310921Y0253551D01*
X0310763Y0253555D01*
X0310604Y0253563D01*
X0310447Y0253575D01*
X0310289Y0253591D01*
X0310132Y0253611D01*
X0309976Y0253635D01*
X0309820Y0253663D01*
X0309665Y0253694D01*
X0309510Y0253730D01*
X0309357Y0253769D01*
X0309205Y0253812D01*
X0309054Y0253859D01*
X0308904Y0253910D01*
X0308755Y0253965D01*
X0308608Y0254023D01*
X0308462Y0254085D01*
X0308318Y0254150D01*
X0308176Y0254220D01*
X0308035Y0254292D01*
X0307896Y0254369D01*
X0307760Y0254448D01*
X0307625Y0254532D01*
X0307492Y0254618D01*
X0307362Y0254708D01*
X0307234Y0254801D01*
X0307108Y0254897D01*
X0306985Y0254997D01*
X0306864Y0255099D01*
X0306746Y0255204D01*
X0306631Y0255313D01*
X0306518Y0255424D01*
X0306408Y0255538D01*
X0306301Y0255655D01*
X0306197Y0255774D01*
X0306096Y0255896D01*
X0305999Y0256021D01*
X0305904Y0256148D01*
X0305813Y0256277D01*
X0305724Y0256408D01*
X0305640Y0256542D01*
X0305558Y0256678D01*
X0305480Y0256815D01*
X0305406Y0256955D01*
X0305335Y0257097D01*
X0305267Y0257240D01*
X0305203Y0257385D01*
X0305143Y0257531D01*
X0305087Y0257679D01*
X0305034Y0257828D01*
X0304985Y0257979D01*
X0304940Y0258131D01*
X0304899Y0258284D01*
X0304861Y0258437D01*
X0304828Y0258592D01*
X0304798Y0258748D01*
X0304772Y0258904D01*
X0304751Y0259061D01*
X0304733Y0259218D01*
X0304719Y0259376D01*
X0304709Y0259534D01*
X0304703Y0259692D01*
X0304701Y0259850D01*
X0128701Y0259850D02*
X0128703Y0260008D01*
X0128709Y0260166D01*
X0128719Y0260324D01*
X0128733Y0260482D01*
X0128751Y0260639D01*
X0128772Y0260796D01*
X0128798Y0260952D01*
X0128828Y0261108D01*
X0128861Y0261263D01*
X0128899Y0261416D01*
X0128940Y0261569D01*
X0128985Y0261721D01*
X0129034Y0261872D01*
X0129087Y0262021D01*
X0129143Y0262169D01*
X0129203Y0262315D01*
X0129267Y0262460D01*
X0129335Y0262603D01*
X0129406Y0262745D01*
X0129480Y0262885D01*
X0129558Y0263022D01*
X0129640Y0263158D01*
X0129724Y0263292D01*
X0129813Y0263423D01*
X0129904Y0263552D01*
X0129999Y0263679D01*
X0130096Y0263804D01*
X0130197Y0263926D01*
X0130301Y0264045D01*
X0130408Y0264162D01*
X0130518Y0264276D01*
X0130631Y0264387D01*
X0130746Y0264496D01*
X0130864Y0264601D01*
X0130985Y0264703D01*
X0131108Y0264803D01*
X0131234Y0264899D01*
X0131362Y0264992D01*
X0131492Y0265082D01*
X0131625Y0265168D01*
X0131760Y0265252D01*
X0131896Y0265331D01*
X0132035Y0265408D01*
X0132176Y0265480D01*
X0132318Y0265550D01*
X0132462Y0265615D01*
X0132608Y0265677D01*
X0132755Y0265735D01*
X0132904Y0265790D01*
X0133054Y0265841D01*
X0133205Y0265888D01*
X0133357Y0265931D01*
X0133510Y0265970D01*
X0133665Y0266006D01*
X0133820Y0266037D01*
X0133976Y0266065D01*
X0134132Y0266089D01*
X0134289Y0266109D01*
X0134447Y0266125D01*
X0134604Y0266137D01*
X0134763Y0266145D01*
X0134921Y0266149D01*
X0135079Y0266149D01*
X0135237Y0266145D01*
X0135396Y0266137D01*
X0135553Y0266125D01*
X0135711Y0266109D01*
X0135868Y0266089D01*
X0136024Y0266065D01*
X0136180Y0266037D01*
X0136335Y0266006D01*
X0136490Y0265970D01*
X0136643Y0265931D01*
X0136795Y0265888D01*
X0136946Y0265841D01*
X0137096Y0265790D01*
X0137245Y0265735D01*
X0137392Y0265677D01*
X0137538Y0265615D01*
X0137682Y0265550D01*
X0137824Y0265480D01*
X0137965Y0265408D01*
X0138104Y0265331D01*
X0138240Y0265252D01*
X0138375Y0265168D01*
X0138508Y0265082D01*
X0138638Y0264992D01*
X0138766Y0264899D01*
X0138892Y0264803D01*
X0139015Y0264703D01*
X0139136Y0264601D01*
X0139254Y0264496D01*
X0139369Y0264387D01*
X0139482Y0264276D01*
X0139592Y0264162D01*
X0139699Y0264045D01*
X0139803Y0263926D01*
X0139904Y0263804D01*
X0140001Y0263679D01*
X0140096Y0263552D01*
X0140187Y0263423D01*
X0140276Y0263292D01*
X0140360Y0263158D01*
X0140442Y0263022D01*
X0140520Y0262885D01*
X0140594Y0262745D01*
X0140665Y0262603D01*
X0140733Y0262460D01*
X0140797Y0262315D01*
X0140857Y0262169D01*
X0140913Y0262021D01*
X0140966Y0261872D01*
X0141015Y0261721D01*
X0141060Y0261569D01*
X0141101Y0261416D01*
X0141139Y0261263D01*
X0141172Y0261108D01*
X0141202Y0260952D01*
X0141228Y0260796D01*
X0141249Y0260639D01*
X0141267Y0260482D01*
X0141281Y0260324D01*
X0141291Y0260166D01*
X0141297Y0260008D01*
X0141299Y0259850D01*
X0141297Y0259692D01*
X0141291Y0259534D01*
X0141281Y0259376D01*
X0141267Y0259218D01*
X0141249Y0259061D01*
X0141228Y0258904D01*
X0141202Y0258748D01*
X0141172Y0258592D01*
X0141139Y0258437D01*
X0141101Y0258284D01*
X0141060Y0258131D01*
X0141015Y0257979D01*
X0140966Y0257828D01*
X0140913Y0257679D01*
X0140857Y0257531D01*
X0140797Y0257385D01*
X0140733Y0257240D01*
X0140665Y0257097D01*
X0140594Y0256955D01*
X0140520Y0256815D01*
X0140442Y0256678D01*
X0140360Y0256542D01*
X0140276Y0256408D01*
X0140187Y0256277D01*
X0140096Y0256148D01*
X0140001Y0256021D01*
X0139904Y0255896D01*
X0139803Y0255774D01*
X0139699Y0255655D01*
X0139592Y0255538D01*
X0139482Y0255424D01*
X0139369Y0255313D01*
X0139254Y0255204D01*
X0139136Y0255099D01*
X0139015Y0254997D01*
X0138892Y0254897D01*
X0138766Y0254801D01*
X0138638Y0254708D01*
X0138508Y0254618D01*
X0138375Y0254532D01*
X0138240Y0254448D01*
X0138104Y0254369D01*
X0137965Y0254292D01*
X0137824Y0254220D01*
X0137682Y0254150D01*
X0137538Y0254085D01*
X0137392Y0254023D01*
X0137245Y0253965D01*
X0137096Y0253910D01*
X0136946Y0253859D01*
X0136795Y0253812D01*
X0136643Y0253769D01*
X0136490Y0253730D01*
X0136335Y0253694D01*
X0136180Y0253663D01*
X0136024Y0253635D01*
X0135868Y0253611D01*
X0135711Y0253591D01*
X0135553Y0253575D01*
X0135396Y0253563D01*
X0135237Y0253555D01*
X0135079Y0253551D01*
X0134921Y0253551D01*
X0134763Y0253555D01*
X0134604Y0253563D01*
X0134447Y0253575D01*
X0134289Y0253591D01*
X0134132Y0253611D01*
X0133976Y0253635D01*
X0133820Y0253663D01*
X0133665Y0253694D01*
X0133510Y0253730D01*
X0133357Y0253769D01*
X0133205Y0253812D01*
X0133054Y0253859D01*
X0132904Y0253910D01*
X0132755Y0253965D01*
X0132608Y0254023D01*
X0132462Y0254085D01*
X0132318Y0254150D01*
X0132176Y0254220D01*
X0132035Y0254292D01*
X0131896Y0254369D01*
X0131760Y0254448D01*
X0131625Y0254532D01*
X0131492Y0254618D01*
X0131362Y0254708D01*
X0131234Y0254801D01*
X0131108Y0254897D01*
X0130985Y0254997D01*
X0130864Y0255099D01*
X0130746Y0255204D01*
X0130631Y0255313D01*
X0130518Y0255424D01*
X0130408Y0255538D01*
X0130301Y0255655D01*
X0130197Y0255774D01*
X0130096Y0255896D01*
X0129999Y0256021D01*
X0129904Y0256148D01*
X0129813Y0256277D01*
X0129724Y0256408D01*
X0129640Y0256542D01*
X0129558Y0256678D01*
X0129480Y0256815D01*
X0129406Y0256955D01*
X0129335Y0257097D01*
X0129267Y0257240D01*
X0129203Y0257385D01*
X0129143Y0257531D01*
X0129087Y0257679D01*
X0129034Y0257828D01*
X0128985Y0257979D01*
X0128940Y0258131D01*
X0128899Y0258284D01*
X0128861Y0258437D01*
X0128828Y0258592D01*
X0128798Y0258748D01*
X0128772Y0258904D01*
X0128751Y0259061D01*
X0128733Y0259218D01*
X0128719Y0259376D01*
X0128709Y0259534D01*
X0128703Y0259692D01*
X0128701Y0259850D01*
X0003701Y0259850D02*
X0003703Y0260008D01*
X0003709Y0260166D01*
X0003719Y0260324D01*
X0003733Y0260482D01*
X0003751Y0260639D01*
X0003772Y0260796D01*
X0003798Y0260952D01*
X0003828Y0261108D01*
X0003861Y0261263D01*
X0003899Y0261416D01*
X0003940Y0261569D01*
X0003985Y0261721D01*
X0004034Y0261872D01*
X0004087Y0262021D01*
X0004143Y0262169D01*
X0004203Y0262315D01*
X0004267Y0262460D01*
X0004335Y0262603D01*
X0004406Y0262745D01*
X0004480Y0262885D01*
X0004558Y0263022D01*
X0004640Y0263158D01*
X0004724Y0263292D01*
X0004813Y0263423D01*
X0004904Y0263552D01*
X0004999Y0263679D01*
X0005096Y0263804D01*
X0005197Y0263926D01*
X0005301Y0264045D01*
X0005408Y0264162D01*
X0005518Y0264276D01*
X0005631Y0264387D01*
X0005746Y0264496D01*
X0005864Y0264601D01*
X0005985Y0264703D01*
X0006108Y0264803D01*
X0006234Y0264899D01*
X0006362Y0264992D01*
X0006492Y0265082D01*
X0006625Y0265168D01*
X0006760Y0265252D01*
X0006896Y0265331D01*
X0007035Y0265408D01*
X0007176Y0265480D01*
X0007318Y0265550D01*
X0007462Y0265615D01*
X0007608Y0265677D01*
X0007755Y0265735D01*
X0007904Y0265790D01*
X0008054Y0265841D01*
X0008205Y0265888D01*
X0008357Y0265931D01*
X0008510Y0265970D01*
X0008665Y0266006D01*
X0008820Y0266037D01*
X0008976Y0266065D01*
X0009132Y0266089D01*
X0009289Y0266109D01*
X0009447Y0266125D01*
X0009604Y0266137D01*
X0009763Y0266145D01*
X0009921Y0266149D01*
X0010079Y0266149D01*
X0010237Y0266145D01*
X0010396Y0266137D01*
X0010553Y0266125D01*
X0010711Y0266109D01*
X0010868Y0266089D01*
X0011024Y0266065D01*
X0011180Y0266037D01*
X0011335Y0266006D01*
X0011490Y0265970D01*
X0011643Y0265931D01*
X0011795Y0265888D01*
X0011946Y0265841D01*
X0012096Y0265790D01*
X0012245Y0265735D01*
X0012392Y0265677D01*
X0012538Y0265615D01*
X0012682Y0265550D01*
X0012824Y0265480D01*
X0012965Y0265408D01*
X0013104Y0265331D01*
X0013240Y0265252D01*
X0013375Y0265168D01*
X0013508Y0265082D01*
X0013638Y0264992D01*
X0013766Y0264899D01*
X0013892Y0264803D01*
X0014015Y0264703D01*
X0014136Y0264601D01*
X0014254Y0264496D01*
X0014369Y0264387D01*
X0014482Y0264276D01*
X0014592Y0264162D01*
X0014699Y0264045D01*
X0014803Y0263926D01*
X0014904Y0263804D01*
X0015001Y0263679D01*
X0015096Y0263552D01*
X0015187Y0263423D01*
X0015276Y0263292D01*
X0015360Y0263158D01*
X0015442Y0263022D01*
X0015520Y0262885D01*
X0015594Y0262745D01*
X0015665Y0262603D01*
X0015733Y0262460D01*
X0015797Y0262315D01*
X0015857Y0262169D01*
X0015913Y0262021D01*
X0015966Y0261872D01*
X0016015Y0261721D01*
X0016060Y0261569D01*
X0016101Y0261416D01*
X0016139Y0261263D01*
X0016172Y0261108D01*
X0016202Y0260952D01*
X0016228Y0260796D01*
X0016249Y0260639D01*
X0016267Y0260482D01*
X0016281Y0260324D01*
X0016291Y0260166D01*
X0016297Y0260008D01*
X0016299Y0259850D01*
X0016297Y0259692D01*
X0016291Y0259534D01*
X0016281Y0259376D01*
X0016267Y0259218D01*
X0016249Y0259061D01*
X0016228Y0258904D01*
X0016202Y0258748D01*
X0016172Y0258592D01*
X0016139Y0258437D01*
X0016101Y0258284D01*
X0016060Y0258131D01*
X0016015Y0257979D01*
X0015966Y0257828D01*
X0015913Y0257679D01*
X0015857Y0257531D01*
X0015797Y0257385D01*
X0015733Y0257240D01*
X0015665Y0257097D01*
X0015594Y0256955D01*
X0015520Y0256815D01*
X0015442Y0256678D01*
X0015360Y0256542D01*
X0015276Y0256408D01*
X0015187Y0256277D01*
X0015096Y0256148D01*
X0015001Y0256021D01*
X0014904Y0255896D01*
X0014803Y0255774D01*
X0014699Y0255655D01*
X0014592Y0255538D01*
X0014482Y0255424D01*
X0014369Y0255313D01*
X0014254Y0255204D01*
X0014136Y0255099D01*
X0014015Y0254997D01*
X0013892Y0254897D01*
X0013766Y0254801D01*
X0013638Y0254708D01*
X0013508Y0254618D01*
X0013375Y0254532D01*
X0013240Y0254448D01*
X0013104Y0254369D01*
X0012965Y0254292D01*
X0012824Y0254220D01*
X0012682Y0254150D01*
X0012538Y0254085D01*
X0012392Y0254023D01*
X0012245Y0253965D01*
X0012096Y0253910D01*
X0011946Y0253859D01*
X0011795Y0253812D01*
X0011643Y0253769D01*
X0011490Y0253730D01*
X0011335Y0253694D01*
X0011180Y0253663D01*
X0011024Y0253635D01*
X0010868Y0253611D01*
X0010711Y0253591D01*
X0010553Y0253575D01*
X0010396Y0253563D01*
X0010237Y0253555D01*
X0010079Y0253551D01*
X0009921Y0253551D01*
X0009763Y0253555D01*
X0009604Y0253563D01*
X0009447Y0253575D01*
X0009289Y0253591D01*
X0009132Y0253611D01*
X0008976Y0253635D01*
X0008820Y0253663D01*
X0008665Y0253694D01*
X0008510Y0253730D01*
X0008357Y0253769D01*
X0008205Y0253812D01*
X0008054Y0253859D01*
X0007904Y0253910D01*
X0007755Y0253965D01*
X0007608Y0254023D01*
X0007462Y0254085D01*
X0007318Y0254150D01*
X0007176Y0254220D01*
X0007035Y0254292D01*
X0006896Y0254369D01*
X0006760Y0254448D01*
X0006625Y0254532D01*
X0006492Y0254618D01*
X0006362Y0254708D01*
X0006234Y0254801D01*
X0006108Y0254897D01*
X0005985Y0254997D01*
X0005864Y0255099D01*
X0005746Y0255204D01*
X0005631Y0255313D01*
X0005518Y0255424D01*
X0005408Y0255538D01*
X0005301Y0255655D01*
X0005197Y0255774D01*
X0005096Y0255896D01*
X0004999Y0256021D01*
X0004904Y0256148D01*
X0004813Y0256277D01*
X0004724Y0256408D01*
X0004640Y0256542D01*
X0004558Y0256678D01*
X0004480Y0256815D01*
X0004406Y0256955D01*
X0004335Y0257097D01*
X0004267Y0257240D01*
X0004203Y0257385D01*
X0004143Y0257531D01*
X0004087Y0257679D01*
X0004034Y0257828D01*
X0003985Y0257979D01*
X0003940Y0258131D01*
X0003899Y0258284D01*
X0003861Y0258437D01*
X0003828Y0258592D01*
X0003798Y0258748D01*
X0003772Y0258904D01*
X0003751Y0259061D01*
X0003733Y0259218D01*
X0003719Y0259376D01*
X0003709Y0259534D01*
X0003703Y0259692D01*
X0003701Y0259850D01*
D11*
X0004000Y0265850D02*
X0004000Y0192850D01*
X0151000Y0192850D01*
X0151000Y0167850D01*
X0174000Y0167850D01*
X0174000Y0184850D01*
X0239000Y0184850D01*
X0239000Y0167850D01*
X0261000Y0167850D01*
X0261000Y0184850D01*
X0317000Y0184850D01*
X0317000Y0265850D01*
X0004000Y0265850D01*
D12*
X0091164Y0233067D02*
X0104479Y0259697D01*
X0104536Y0259807D01*
X0104597Y0259916D01*
X0104661Y0260022D01*
X0104729Y0260127D01*
X0104800Y0260229D01*
X0104874Y0260329D01*
X0104951Y0260427D01*
X0105032Y0260522D01*
X0105115Y0260615D01*
X0105201Y0260705D01*
X0105290Y0260792D01*
X0105382Y0260876D01*
X0105476Y0260958D01*
X0105573Y0261036D01*
X0105672Y0261111D01*
X0105774Y0261183D01*
X0105877Y0261252D01*
X0105983Y0261317D01*
X0106091Y0261379D01*
X0106201Y0261438D01*
X0106313Y0261493D01*
X0106426Y0261545D01*
X0106541Y0261593D01*
X0106658Y0261637D01*
X0106775Y0261678D01*
X0106894Y0261715D01*
X0107014Y0261748D01*
X0107135Y0261777D01*
X0107257Y0261802D01*
X0107380Y0261824D01*
X0107503Y0261842D01*
X0107627Y0261855D01*
X0107751Y0261865D01*
X0107875Y0261871D01*
X0108000Y0261873D01*
X0108125Y0261871D01*
X0108249Y0261865D01*
X0108373Y0261855D01*
X0108497Y0261842D01*
X0108620Y0261824D01*
X0108743Y0261802D01*
X0108865Y0261777D01*
X0108986Y0261748D01*
X0109106Y0261715D01*
X0109225Y0261678D01*
X0109342Y0261637D01*
X0109459Y0261593D01*
X0109574Y0261545D01*
X0109687Y0261493D01*
X0109799Y0261438D01*
X0109909Y0261379D01*
X0110017Y0261317D01*
X0110123Y0261252D01*
X0110226Y0261183D01*
X0110328Y0261111D01*
X0110427Y0261036D01*
X0110524Y0260958D01*
X0110618Y0260876D01*
X0110710Y0260792D01*
X0110799Y0260705D01*
X0110885Y0260615D01*
X0110968Y0260522D01*
X0111049Y0260427D01*
X0111126Y0260329D01*
X0111200Y0260229D01*
X0111271Y0260127D01*
X0111339Y0260022D01*
X0111403Y0259916D01*
X0111464Y0259807D01*
X0111521Y0259697D01*
X0124836Y0233067D01*
X0124836Y0233068D02*
X0124890Y0232957D01*
X0124940Y0232844D01*
X0124986Y0232730D01*
X0125029Y0232614D01*
X0125068Y0232497D01*
X0125103Y0232379D01*
X0125135Y0232260D01*
X0125163Y0232140D01*
X0125187Y0232019D01*
X0125207Y0231898D01*
X0125224Y0231776D01*
X0125237Y0231653D01*
X0125246Y0231530D01*
X0125251Y0231407D01*
X0125252Y0231284D01*
X0125249Y0231161D01*
X0125243Y0231038D01*
X0125232Y0230915D01*
X0125218Y0230793D01*
X0125200Y0230671D01*
X0125178Y0230549D01*
X0125153Y0230429D01*
X0125123Y0230309D01*
X0125090Y0230191D01*
X0125054Y0230073D01*
X0125013Y0229957D01*
X0124969Y0229841D01*
X0124921Y0229728D01*
X0124870Y0229616D01*
X0124816Y0229505D01*
X0124757Y0229397D01*
X0124696Y0229290D01*
X0124631Y0229185D01*
X0124563Y0229082D01*
X0124492Y0228982D01*
X0124418Y0228883D01*
X0124340Y0228788D01*
X0124260Y0228694D01*
X0124177Y0228603D01*
X0124091Y0228515D01*
X0124002Y0228430D01*
X0123911Y0228347D01*
X0123817Y0228267D01*
X0123720Y0228190D01*
X0123622Y0228117D01*
X0123521Y0228046D01*
X0123418Y0227978D01*
X0123312Y0227914D01*
X0123205Y0227853D01*
X0123096Y0227796D01*
X0122985Y0227742D01*
X0122873Y0227691D01*
X0122759Y0227644D01*
X0122644Y0227601D01*
X0122527Y0227561D01*
X0122409Y0227525D01*
X0122291Y0227493D01*
X0122171Y0227464D01*
X0122050Y0227439D01*
X0121929Y0227418D01*
X0121807Y0227401D01*
X0121684Y0227387D01*
X0121561Y0227378D01*
X0121438Y0227372D01*
X0121315Y0227370D01*
X0094685Y0227370D01*
X0094220Y0227370D02*
X0121780Y0227370D01*
X0127686Y0221464D02*
X0127684Y0221312D01*
X0127678Y0221160D01*
X0127668Y0221008D01*
X0127655Y0220857D01*
X0127637Y0220706D01*
X0127616Y0220555D01*
X0127590Y0220405D01*
X0127561Y0220256D01*
X0127528Y0220107D01*
X0127491Y0219960D01*
X0127451Y0219813D01*
X0127406Y0219668D01*
X0127358Y0219524D01*
X0127306Y0219381D01*
X0127251Y0219239D01*
X0127192Y0219099D01*
X0127129Y0218960D01*
X0127063Y0218823D01*
X0126993Y0218688D01*
X0126920Y0218555D01*
X0126843Y0218424D01*
X0126763Y0218294D01*
X0126680Y0218167D01*
X0126594Y0218042D01*
X0126504Y0217919D01*
X0126411Y0217799D01*
X0126315Y0217681D01*
X0126216Y0217565D01*
X0126114Y0217452D01*
X0126010Y0217342D01*
X0125902Y0217234D01*
X0125792Y0217130D01*
X0125679Y0217028D01*
X0125563Y0216929D01*
X0125445Y0216833D01*
X0125325Y0216740D01*
X0125202Y0216650D01*
X0125077Y0216564D01*
X0124950Y0216481D01*
X0124820Y0216401D01*
X0124689Y0216324D01*
X0124556Y0216251D01*
X0124421Y0216181D01*
X0124284Y0216115D01*
X0124145Y0216052D01*
X0124005Y0215993D01*
X0123863Y0215938D01*
X0123720Y0215886D01*
X0123576Y0215838D01*
X0123431Y0215793D01*
X0123284Y0215753D01*
X0123137Y0215716D01*
X0122988Y0215683D01*
X0122839Y0215654D01*
X0122689Y0215628D01*
X0122538Y0215607D01*
X0122387Y0215589D01*
X0122236Y0215576D01*
X0122084Y0215566D01*
X0121932Y0215560D01*
X0121780Y0215558D01*
X0121780Y0215559D02*
X0094220Y0215559D01*
X0094220Y0215558D02*
X0094068Y0215560D01*
X0093916Y0215566D01*
X0093764Y0215576D01*
X0093613Y0215589D01*
X0093462Y0215607D01*
X0093311Y0215628D01*
X0093161Y0215654D01*
X0093012Y0215683D01*
X0092863Y0215716D01*
X0092716Y0215753D01*
X0092569Y0215793D01*
X0092424Y0215838D01*
X0092280Y0215886D01*
X0092137Y0215938D01*
X0091995Y0215993D01*
X0091855Y0216052D01*
X0091716Y0216115D01*
X0091579Y0216181D01*
X0091444Y0216251D01*
X0091311Y0216324D01*
X0091180Y0216401D01*
X0091050Y0216481D01*
X0090923Y0216564D01*
X0090798Y0216650D01*
X0090675Y0216740D01*
X0090555Y0216833D01*
X0090437Y0216929D01*
X0090321Y0217028D01*
X0090208Y0217130D01*
X0090098Y0217234D01*
X0089990Y0217342D01*
X0089886Y0217452D01*
X0089784Y0217565D01*
X0089685Y0217681D01*
X0089589Y0217799D01*
X0089496Y0217919D01*
X0089406Y0218042D01*
X0089320Y0218167D01*
X0089237Y0218294D01*
X0089157Y0218424D01*
X0089080Y0218555D01*
X0089007Y0218688D01*
X0088937Y0218823D01*
X0088871Y0218960D01*
X0088808Y0219099D01*
X0088749Y0219239D01*
X0088694Y0219381D01*
X0088642Y0219524D01*
X0088594Y0219668D01*
X0088549Y0219813D01*
X0088509Y0219960D01*
X0088472Y0220107D01*
X0088439Y0220256D01*
X0088410Y0220405D01*
X0088384Y0220555D01*
X0088363Y0220706D01*
X0088345Y0220857D01*
X0088332Y0221008D01*
X0088322Y0221160D01*
X0088316Y0221312D01*
X0088314Y0221464D01*
X0088316Y0221616D01*
X0088322Y0221768D01*
X0088332Y0221920D01*
X0088345Y0222071D01*
X0088363Y0222222D01*
X0088384Y0222373D01*
X0088410Y0222523D01*
X0088439Y0222672D01*
X0088472Y0222821D01*
X0088509Y0222968D01*
X0088549Y0223115D01*
X0088594Y0223260D01*
X0088642Y0223404D01*
X0088694Y0223547D01*
X0088749Y0223689D01*
X0088808Y0223829D01*
X0088871Y0223968D01*
X0088937Y0224105D01*
X0089007Y0224240D01*
X0089080Y0224373D01*
X0089157Y0224504D01*
X0089237Y0224634D01*
X0089320Y0224761D01*
X0089406Y0224886D01*
X0089496Y0225009D01*
X0089589Y0225129D01*
X0089685Y0225247D01*
X0089784Y0225363D01*
X0089886Y0225476D01*
X0089990Y0225586D01*
X0090098Y0225694D01*
X0090208Y0225798D01*
X0090321Y0225900D01*
X0090437Y0225999D01*
X0090555Y0226095D01*
X0090675Y0226188D01*
X0090798Y0226278D01*
X0090923Y0226364D01*
X0091050Y0226447D01*
X0091180Y0226527D01*
X0091311Y0226604D01*
X0091444Y0226677D01*
X0091579Y0226747D01*
X0091716Y0226813D01*
X0091855Y0226876D01*
X0091995Y0226935D01*
X0092137Y0226990D01*
X0092280Y0227042D01*
X0092424Y0227090D01*
X0092569Y0227135D01*
X0092716Y0227175D01*
X0092863Y0227212D01*
X0093012Y0227245D01*
X0093161Y0227274D01*
X0093311Y0227300D01*
X0093462Y0227321D01*
X0093613Y0227339D01*
X0093764Y0227352D01*
X0093916Y0227362D01*
X0094068Y0227368D01*
X0094220Y0227370D01*
X0094685Y0227370D02*
X0094562Y0227372D01*
X0094439Y0227378D01*
X0094316Y0227387D01*
X0094193Y0227401D01*
X0094071Y0227418D01*
X0093950Y0227439D01*
X0093829Y0227464D01*
X0093709Y0227493D01*
X0093591Y0227525D01*
X0093473Y0227561D01*
X0093356Y0227601D01*
X0093241Y0227644D01*
X0093127Y0227691D01*
X0093015Y0227742D01*
X0092904Y0227796D01*
X0092795Y0227853D01*
X0092688Y0227914D01*
X0092582Y0227978D01*
X0092479Y0228046D01*
X0092378Y0228117D01*
X0092280Y0228190D01*
X0092183Y0228267D01*
X0092089Y0228347D01*
X0091998Y0228430D01*
X0091909Y0228515D01*
X0091823Y0228603D01*
X0091740Y0228694D01*
X0091660Y0228788D01*
X0091582Y0228883D01*
X0091508Y0228982D01*
X0091437Y0229082D01*
X0091369Y0229185D01*
X0091304Y0229290D01*
X0091243Y0229397D01*
X0091184Y0229505D01*
X0091130Y0229616D01*
X0091079Y0229728D01*
X0091031Y0229841D01*
X0090987Y0229957D01*
X0090946Y0230073D01*
X0090910Y0230191D01*
X0090877Y0230309D01*
X0090847Y0230429D01*
X0090822Y0230549D01*
X0090800Y0230671D01*
X0090782Y0230793D01*
X0090768Y0230915D01*
X0090757Y0231038D01*
X0090751Y0231161D01*
X0090748Y0231284D01*
X0090749Y0231407D01*
X0090754Y0231530D01*
X0090763Y0231653D01*
X0090776Y0231776D01*
X0090793Y0231898D01*
X0090813Y0232019D01*
X0090837Y0232140D01*
X0090865Y0232260D01*
X0090897Y0232379D01*
X0090932Y0232497D01*
X0090971Y0232614D01*
X0091014Y0232730D01*
X0091060Y0232844D01*
X0091110Y0232957D01*
X0091164Y0233068D01*
X0105244Y0232488D02*
X0108787Y0230126D01*
X0109575Y0234456D01*
X0108000Y0233669D01*
X0106031Y0242330D01*
X0113118Y0238393D01*
X0109969Y0255716D01*
X0105638Y0255716D01*
X0109575Y0243118D01*
X0102488Y0246661D01*
X0106819Y0233275D01*
X0105244Y0232488D01*
X0121780Y0227370D02*
X0121932Y0227368D01*
X0122084Y0227362D01*
X0122236Y0227352D01*
X0122387Y0227339D01*
X0122538Y0227321D01*
X0122689Y0227300D01*
X0122839Y0227274D01*
X0122988Y0227245D01*
X0123137Y0227212D01*
X0123284Y0227175D01*
X0123431Y0227135D01*
X0123576Y0227090D01*
X0123720Y0227042D01*
X0123863Y0226990D01*
X0124005Y0226935D01*
X0124145Y0226876D01*
X0124284Y0226813D01*
X0124421Y0226747D01*
X0124556Y0226677D01*
X0124689Y0226604D01*
X0124820Y0226527D01*
X0124950Y0226447D01*
X0125077Y0226364D01*
X0125202Y0226278D01*
X0125325Y0226188D01*
X0125445Y0226095D01*
X0125563Y0225999D01*
X0125679Y0225900D01*
X0125792Y0225798D01*
X0125902Y0225694D01*
X0126010Y0225586D01*
X0126114Y0225476D01*
X0126216Y0225363D01*
X0126315Y0225247D01*
X0126411Y0225129D01*
X0126504Y0225009D01*
X0126594Y0224886D01*
X0126680Y0224761D01*
X0126763Y0224634D01*
X0126843Y0224504D01*
X0126920Y0224373D01*
X0126993Y0224240D01*
X0127063Y0224105D01*
X0127129Y0223968D01*
X0127192Y0223829D01*
X0127251Y0223689D01*
X0127306Y0223547D01*
X0127358Y0223404D01*
X0127406Y0223260D01*
X0127451Y0223115D01*
X0127491Y0222968D01*
X0127528Y0222821D01*
X0127561Y0222672D01*
X0127590Y0222523D01*
X0127616Y0222373D01*
X0127637Y0222222D01*
X0127655Y0222071D01*
X0127668Y0221920D01*
X0127678Y0221768D01*
X0127684Y0221616D01*
X0127686Y0221464D01*
X0115500Y0185350D02*
X0102500Y0185350D01*
X0102500Y0178350D01*
X0115500Y0178350D01*
X0115500Y0185350D01*
X0095500Y0185350D02*
X0095500Y0178350D01*
X0082500Y0178350D01*
X0082500Y0185350D01*
X0095500Y0185350D01*
X0095500Y0164350D02*
X0082500Y0164350D01*
X0082500Y0157350D01*
X0095500Y0157350D01*
X0095500Y0164350D01*
X0102500Y0164350D02*
X0102500Y0157350D01*
X0115500Y0157350D01*
X0115500Y0164350D01*
X0102500Y0164350D01*
X0085504Y0125252D02*
X0148496Y0125252D01*
X0148496Y0048480D01*
X0085504Y0048480D01*
X0085504Y0125252D01*
X0134000Y0086350D02*
X0134000Y0079350D01*
X0139000Y0079350D01*
X0139000Y0086350D01*
X0134000Y0086350D01*
X0167000Y0135850D02*
X0173000Y0135850D01*
X0173000Y0151850D01*
X0167000Y0151850D01*
X0167000Y0135850D01*
X0178000Y0135850D02*
X0184000Y0135850D01*
X0184000Y0151850D01*
X0178000Y0151850D01*
X0178000Y0135850D01*
X0186500Y0135350D02*
X0199500Y0135350D01*
X0199500Y0142350D01*
X0186500Y0142350D01*
X0186500Y0135350D01*
X0201500Y0139350D02*
X0201500Y0152350D01*
X0208500Y0152350D01*
X0208500Y0139350D01*
X0201500Y0139350D01*
X0198750Y0149850D02*
X0198750Y0153350D01*
X0195750Y0153350D01*
X0193750Y0148350D02*
X0192250Y0148350D01*
X0187250Y0149850D02*
X0187250Y0153350D01*
X0190250Y0153350D01*
X0209400Y0154250D02*
X0222600Y0154250D01*
X0222600Y0159450D01*
X0209400Y0159450D01*
X0209400Y0154250D01*
X0215000Y0154850D02*
X0215000Y0158850D01*
X0217500Y0156850D01*
X0215000Y0154850D01*
X0215000Y0154982D02*
X0215165Y0154982D01*
X0215000Y0155481D02*
X0215789Y0155481D01*
X0216412Y0155979D02*
X0215000Y0155979D01*
X0215000Y0156478D02*
X0217035Y0156478D01*
X0217342Y0156976D02*
X0215000Y0156976D01*
X0215000Y0157475D02*
X0216719Y0157475D01*
X0216096Y0157973D02*
X0215000Y0157973D01*
X0215000Y0158472D02*
X0215473Y0158472D01*
X0278250Y0153350D02*
X0278250Y0149850D01*
X0278250Y0153350D02*
X0281250Y0153350D01*
X0283250Y0148350D02*
X0284750Y0148350D01*
X0289750Y0149850D02*
X0289750Y0153350D01*
X0286750Y0153350D01*
X0292500Y0152350D02*
X0292500Y0139350D01*
X0299500Y0139350D01*
X0299500Y0152350D01*
X0292500Y0152350D01*
X0300400Y0154250D02*
X0300400Y0159450D01*
X0313600Y0159450D01*
X0313600Y0154250D01*
X0300400Y0154250D01*
X0306000Y0154850D02*
X0306000Y0158850D01*
X0308500Y0156850D01*
X0306000Y0154850D01*
X0306000Y0154982D02*
X0306165Y0154982D01*
X0306000Y0155481D02*
X0306789Y0155481D01*
X0307412Y0155979D02*
X0306000Y0155979D01*
X0306000Y0156478D02*
X0308035Y0156478D01*
X0308342Y0156976D02*
X0306000Y0156976D01*
X0306000Y0157475D02*
X0307719Y0157475D01*
X0307096Y0157973D02*
X0306000Y0157973D01*
X0306000Y0158472D02*
X0306473Y0158472D01*
X0290500Y0142350D02*
X0277500Y0142350D01*
X0277500Y0135350D01*
X0290500Y0135350D01*
X0290500Y0142350D01*
X0212500Y0066350D02*
X0207500Y0066350D01*
X0207500Y0059350D01*
X0212500Y0059350D01*
X0212500Y0066350D01*
X0205500Y0066350D02*
X0205500Y0059350D01*
X0200500Y0059350D01*
X0200500Y0066350D01*
X0205500Y0066350D01*
D13*
X0146803Y0084367D02*
X0143801Y0084367D01*
X0143200Y0084967D01*
X0143200Y0086168D01*
X0143801Y0086769D01*
X0146803Y0086769D01*
X0146803Y0088050D02*
X0146803Y0090452D01*
X0146203Y0090452D01*
X0143801Y0088050D01*
X0143200Y0088050D01*
D14*
X0141350Y0088367D02*
X0140983Y0088000D01*
X0140616Y0088000D01*
X0140249Y0088367D01*
X0140249Y0090202D01*
X0140616Y0090202D02*
X0139882Y0090202D01*
X0139048Y0089468D02*
X0138314Y0090202D01*
X0138314Y0088000D01*
X0139048Y0088000D02*
X0137580Y0088000D01*
X0166969Y0152500D02*
X0168903Y0152500D01*
X0167936Y0152500D02*
X0167936Y0155402D01*
X0168903Y0154435D01*
X0169915Y0154919D02*
X0169915Y0153951D01*
X0170399Y0153467D01*
X0171850Y0153467D01*
X0171850Y0152500D02*
X0171850Y0155402D01*
X0170399Y0155402D01*
X0169915Y0154919D01*
X0177969Y0154919D02*
X0178452Y0155402D01*
X0179420Y0155402D01*
X0179903Y0154919D01*
X0180915Y0154919D02*
X0180915Y0153951D01*
X0181399Y0153467D01*
X0182850Y0153467D01*
X0182850Y0152500D02*
X0182850Y0155402D01*
X0181399Y0155402D01*
X0180915Y0154919D01*
X0179903Y0152500D02*
X0177969Y0152500D01*
X0179903Y0152500D02*
X0177969Y0154435D01*
X0177969Y0154919D01*
X0226362Y0153800D02*
X0228297Y0153800D01*
X0227329Y0153800D02*
X0227329Y0156702D01*
X0228297Y0155735D01*
X0229308Y0156219D02*
X0229308Y0154284D01*
X0229792Y0153800D01*
X0231243Y0153800D01*
X0231243Y0156702D01*
X0229792Y0156702D01*
X0229308Y0156219D01*
X0107743Y0156702D02*
X0107743Y0153800D01*
X0107743Y0154767D02*
X0106292Y0154767D01*
X0105808Y0155251D01*
X0105808Y0156219D01*
X0106292Y0156702D01*
X0107743Y0156702D01*
X0106776Y0154767D02*
X0105808Y0153800D01*
X0104797Y0153800D02*
X0104797Y0154284D01*
X0102862Y0156219D01*
X0102862Y0156702D01*
X0104797Y0156702D01*
X0087743Y0156702D02*
X0087743Y0153800D01*
X0087743Y0154767D02*
X0086292Y0154767D01*
X0085808Y0155251D01*
X0085808Y0156219D01*
X0086292Y0156702D01*
X0087743Y0156702D01*
X0086776Y0154767D02*
X0085808Y0153800D01*
X0084797Y0154284D02*
X0084313Y0153800D01*
X0083345Y0153800D01*
X0082862Y0154284D01*
X0082862Y0155251D01*
X0083345Y0155735D01*
X0083829Y0155735D01*
X0084797Y0155251D01*
X0084797Y0156702D01*
X0082862Y0156702D01*
X0083345Y0174800D02*
X0083345Y0177702D01*
X0084797Y0176251D01*
X0082862Y0176251D01*
X0085808Y0176251D02*
X0086292Y0175767D01*
X0087743Y0175767D01*
X0087743Y0174800D02*
X0087743Y0177702D01*
X0086292Y0177702D01*
X0085808Y0177219D01*
X0085808Y0176251D01*
X0086776Y0175767D02*
X0085808Y0174800D01*
X0102862Y0175284D02*
X0102862Y0175767D01*
X0103345Y0176251D01*
X0104797Y0176251D01*
X0104797Y0175284D01*
X0104313Y0174800D01*
X0103345Y0174800D01*
X0102862Y0175284D01*
X0103829Y0177219D02*
X0104797Y0176251D01*
X0105808Y0176251D02*
X0106292Y0175767D01*
X0107743Y0175767D01*
X0107743Y0174800D02*
X0107743Y0177702D01*
X0106292Y0177702D01*
X0105808Y0177219D01*
X0105808Y0176251D01*
X0106776Y0175767D02*
X0105808Y0174800D01*
X0103829Y0177219D02*
X0102862Y0177702D01*
X0025369Y0070988D02*
X0025852Y0070505D01*
X0025852Y0069537D01*
X0025369Y0069053D01*
X0025369Y0068042D02*
X0025852Y0067558D01*
X0025852Y0066591D01*
X0025369Y0066107D01*
X0023434Y0066107D01*
X0022950Y0066591D01*
X0022950Y0067558D01*
X0023434Y0068042D01*
X0022950Y0069053D02*
X0024885Y0070988D01*
X0025369Y0070988D01*
X0022950Y0070988D02*
X0022950Y0069053D01*
X0024936Y0060902D02*
X0024936Y0058000D01*
X0025903Y0058000D02*
X0023969Y0058000D01*
X0025903Y0059935D02*
X0024936Y0060902D01*
X0026915Y0060902D02*
X0026915Y0058484D01*
X0027399Y0058000D01*
X0028366Y0058000D01*
X0028850Y0058484D01*
X0028850Y0060902D01*
D15*
X0093534Y0150450D02*
X0093100Y0150884D01*
X0093100Y0151751D01*
X0093534Y0152185D01*
X0093534Y0153028D02*
X0093100Y0153028D01*
X0093534Y0153028D02*
X0095269Y0154763D01*
X0095702Y0154763D01*
X0095702Y0153028D01*
X0095269Y0152185D02*
X0095702Y0151751D01*
X0095702Y0150884D01*
X0095269Y0150450D01*
X0093534Y0150450D01*
X0093734Y0179794D02*
X0093300Y0180227D01*
X0093300Y0181095D01*
X0093734Y0181528D01*
X0093734Y0182372D02*
X0093300Y0182805D01*
X0093300Y0183673D01*
X0093734Y0184107D01*
X0094167Y0184107D01*
X0094601Y0183673D01*
X0094601Y0182372D01*
X0093734Y0182372D01*
X0094601Y0182372D02*
X0095469Y0183239D01*
X0095902Y0184107D01*
X0095469Y0181528D02*
X0095902Y0181095D01*
X0095902Y0180227D01*
X0095469Y0179794D01*
X0093734Y0179794D01*
X0190743Y0134319D02*
X0190743Y0133885D01*
X0191177Y0133451D01*
X0190743Y0133017D01*
X0190743Y0132584D01*
X0191177Y0132150D01*
X0192045Y0132150D01*
X0192478Y0132584D01*
X0193322Y0132150D02*
X0195056Y0132150D01*
X0195900Y0132150D02*
X0196767Y0133017D01*
X0196334Y0133017D02*
X0197635Y0133017D01*
X0197635Y0132150D02*
X0197635Y0134752D01*
X0196334Y0134752D01*
X0195900Y0134319D01*
X0195900Y0133451D01*
X0196334Y0133017D01*
X0195056Y0133885D02*
X0194189Y0134752D01*
X0194189Y0132150D01*
X0192478Y0134319D02*
X0192045Y0134752D01*
X0191177Y0134752D01*
X0190743Y0134319D01*
X0191177Y0133451D02*
X0191611Y0133451D01*
X0201743Y0136451D02*
X0203478Y0136451D01*
X0202177Y0137752D01*
X0202177Y0135150D01*
X0204322Y0135150D02*
X0206056Y0135150D01*
X0206900Y0135150D02*
X0207767Y0136017D01*
X0207334Y0136017D02*
X0208635Y0136017D01*
X0208635Y0135150D02*
X0208635Y0137752D01*
X0207334Y0137752D01*
X0206900Y0137319D01*
X0206900Y0136451D01*
X0207334Y0136017D01*
X0206056Y0136885D02*
X0205189Y0137752D01*
X0205189Y0135150D01*
X0199466Y0154450D02*
X0199900Y0154884D01*
X0199900Y0156619D01*
X0199466Y0157052D01*
X0198599Y0157052D01*
X0198165Y0156619D01*
X0198165Y0154884D01*
X0198599Y0154450D01*
X0199466Y0154450D01*
X0199033Y0155317D02*
X0198165Y0154450D01*
X0197322Y0154450D02*
X0195587Y0154450D01*
X0196454Y0154450D02*
X0196454Y0157052D01*
X0197322Y0156185D01*
X0275587Y0156185D02*
X0275587Y0156619D01*
X0276021Y0157052D01*
X0276888Y0157052D01*
X0277322Y0156619D01*
X0278165Y0156619D02*
X0278165Y0154884D01*
X0278599Y0154450D01*
X0279466Y0154450D01*
X0279900Y0154884D01*
X0279900Y0156619D01*
X0279466Y0157052D01*
X0278599Y0157052D01*
X0278165Y0156619D01*
X0279033Y0155317D02*
X0278165Y0154450D01*
X0277322Y0154450D02*
X0275587Y0156185D01*
X0275587Y0154450D02*
X0277322Y0154450D01*
X0295177Y0138752D02*
X0296478Y0137451D01*
X0294743Y0137451D01*
X0295177Y0136150D02*
X0295177Y0138752D01*
X0297322Y0138319D02*
X0297755Y0138752D01*
X0298623Y0138752D01*
X0299056Y0138319D01*
X0299900Y0138319D02*
X0299900Y0137451D01*
X0300334Y0137017D01*
X0301635Y0137017D01*
X0301635Y0136150D02*
X0301635Y0138752D01*
X0300334Y0138752D01*
X0299900Y0138319D01*
X0300767Y0137017D02*
X0299900Y0136150D01*
X0299056Y0136150D02*
X0297322Y0137885D01*
X0297322Y0138319D01*
X0297322Y0136150D02*
X0299056Y0136150D01*
X0284635Y0134752D02*
X0284635Y0132150D01*
X0284635Y0133017D02*
X0283334Y0133017D01*
X0282900Y0133451D01*
X0282900Y0134319D01*
X0283334Y0134752D01*
X0284635Y0134752D01*
X0283767Y0133017D02*
X0282900Y0132150D01*
X0282056Y0132150D02*
X0280322Y0133885D01*
X0280322Y0134319D01*
X0280755Y0134752D01*
X0281623Y0134752D01*
X0282056Y0134319D01*
X0282056Y0132150D02*
X0280322Y0132150D01*
X0279478Y0132584D02*
X0279045Y0132150D01*
X0278177Y0132150D01*
X0277743Y0132584D01*
X0277743Y0133017D01*
X0278177Y0133451D01*
X0278611Y0133451D01*
X0278177Y0133451D02*
X0277743Y0133885D01*
X0277743Y0134319D01*
X0278177Y0134752D01*
X0279045Y0134752D01*
X0279478Y0134319D01*
X0305243Y0160150D02*
X0306978Y0160150D01*
X0305243Y0161885D01*
X0305243Y0162319D01*
X0305677Y0162752D01*
X0306545Y0162752D01*
X0306978Y0162319D01*
X0307822Y0162319D02*
X0308255Y0162752D01*
X0309556Y0162752D01*
X0309556Y0160150D01*
X0308255Y0160150D01*
X0307822Y0160584D01*
X0307822Y0162319D01*
X0211033Y0070552D02*
X0210165Y0070552D01*
X0210599Y0070552D02*
X0210599Y0068384D01*
X0211033Y0067950D01*
X0211466Y0067950D01*
X0211900Y0068384D01*
X0209322Y0069251D02*
X0207587Y0069251D01*
X0208021Y0067950D02*
X0208021Y0070552D01*
X0209322Y0069251D01*
X0205900Y0068417D02*
X0205433Y0067950D01*
X0204966Y0067950D01*
X0204499Y0068417D01*
X0204499Y0070752D01*
X0204966Y0070752D02*
X0204032Y0070752D01*
X0203138Y0070285D02*
X0202671Y0070752D01*
X0201736Y0070752D01*
X0201269Y0070285D01*
X0201269Y0069818D01*
X0203138Y0067950D01*
X0201269Y0067950D01*
D16*
X0049902Y0062850D02*
X0024098Y0062850D01*
X0024098Y0076850D01*
X0049902Y0076850D01*
X0049902Y0062850D01*
D17*
X0090107Y0208267D02*
X0089435Y0208938D01*
X0089435Y0212295D01*
X0091449Y0212295D01*
X0092121Y0211623D01*
X0092121Y0210281D01*
X0091449Y0209609D01*
X0089435Y0209609D01*
X0090107Y0208267D02*
X0090778Y0208267D01*
X0093785Y0209609D02*
X0093785Y0211623D01*
X0094457Y0212295D01*
X0095799Y0212295D01*
X0095799Y0210952D02*
X0093785Y0210952D01*
X0093785Y0209609D02*
X0095799Y0209609D01*
X0096471Y0210281D01*
X0095799Y0210952D01*
X0098028Y0209609D02*
X0098699Y0210281D01*
X0098699Y0212966D01*
X0098028Y0212295D02*
X0099371Y0212295D01*
X0101600Y0213637D02*
X0101600Y0209609D01*
X0102271Y0209609D02*
X0100928Y0209609D01*
X0103936Y0210281D02*
X0103936Y0211623D01*
X0104607Y0212295D01*
X0105950Y0212295D01*
X0106621Y0211623D01*
X0106621Y0210281D01*
X0105950Y0209609D01*
X0104607Y0209609D01*
X0103936Y0210281D01*
X0102271Y0213637D02*
X0101600Y0213637D01*
X0102060Y0219846D02*
X0099375Y0219846D01*
X0097710Y0219846D02*
X0097710Y0223874D01*
X0095696Y0223874D01*
X0095025Y0223202D01*
X0095025Y0221860D01*
X0095696Y0221188D01*
X0097710Y0221188D01*
X0096368Y0221188D02*
X0095025Y0219846D01*
X0100718Y0221860D02*
X0102060Y0221860D01*
X0103725Y0221860D02*
X0105068Y0221860D01*
X0103725Y0221860D02*
X0103725Y0220517D01*
X0104397Y0219846D01*
X0105739Y0219846D01*
X0106411Y0220517D01*
X0106411Y0223202D01*
X0105739Y0223874D01*
X0104397Y0223874D01*
X0103725Y0223202D01*
X0102060Y0223874D02*
X0102060Y0219846D01*
X0102060Y0223874D02*
X0099375Y0223874D01*
X0108075Y0223874D02*
X0108075Y0219846D01*
X0110761Y0223874D01*
X0110761Y0219846D01*
X0112426Y0219846D02*
X0112426Y0222531D01*
X0113768Y0223874D01*
X0115111Y0222531D01*
X0115111Y0219846D01*
X0116776Y0220517D02*
X0116776Y0223202D01*
X0117447Y0223874D01*
X0119461Y0223874D01*
X0119461Y0219846D01*
X0117447Y0219846D01*
X0116776Y0220517D01*
X0115111Y0221860D02*
X0112426Y0221860D01*
X0110971Y0213637D02*
X0110971Y0210952D01*
X0109629Y0209609D01*
X0108286Y0210952D01*
X0108286Y0213637D01*
X0116986Y0211623D02*
X0116986Y0209609D01*
X0116986Y0211623D02*
X0117658Y0212295D01*
X0119000Y0212295D01*
X0119672Y0211623D01*
X0121337Y0212295D02*
X0121337Y0208938D01*
X0122008Y0208267D01*
X0122679Y0208267D01*
X0123350Y0209609D02*
X0121337Y0209609D01*
X0119672Y0209609D02*
X0119672Y0213637D01*
X0121337Y0212295D02*
X0123350Y0212295D01*
X0124022Y0211623D01*
X0124022Y0210281D01*
X0123350Y0209609D01*
X0125579Y0209609D02*
X0126922Y0209609D01*
X0126251Y0209609D02*
X0126251Y0212295D01*
X0126922Y0212295D01*
X0126251Y0213637D02*
X0126251Y0214309D01*
X0128587Y0213637D02*
X0128587Y0209609D01*
X0128587Y0211623D02*
X0131272Y0211623D01*
X0131272Y0209609D02*
X0131272Y0213637D01*
X0087770Y0211623D02*
X0087099Y0212295D01*
X0085756Y0212295D01*
X0085085Y0211623D01*
X0085085Y0210952D01*
X0087770Y0210952D01*
X0087770Y0210281D02*
X0087770Y0211623D01*
X0087770Y0210281D02*
X0087099Y0209609D01*
X0085756Y0209609D01*
D18*
X0091702Y0219258D02*
X0091702Y0220009D01*
X0091702Y0221510D02*
X0091702Y0224513D01*
X0122804Y0224513D02*
X0122804Y0221510D01*
X0122804Y0220009D02*
X0122804Y0219258D01*
M02*
