%
M48
M72
T01C0.0197
T02C0.0236
T03C0.0315
T04C0.0320
T05C0.0350
T06C0.0360
T07C0.0394
T08C0.0400
T09C0.0433
T10C0.0512
T11C0.0520
T12C0.0650
T13C0.1260
%
T01
X8926Y5885
X10316Y6425
X11450Y6385
X11450Y7135
X12500Y8685
X13700Y9285
X14900Y9385
X14900Y8985
X14900Y8385
X14400Y7085
X14400Y6185
X13800Y5685
X13600Y4585
X14000Y4085
X15400Y6185
X17900Y7685
X18400Y8285
X17900Y8885
X17900Y9385
X18400Y9385
X18900Y9385
X19400Y9385
X19900Y9385
X20400Y7985
X19900Y6885
X21400Y6885
X21400Y6185
X22300Y6485
X23500Y6485
X23900Y6485
X25500Y7085
X26900Y6185
X28200Y7085
X29400Y6485
X29400Y4185
X25300Y8385
X24900Y9485
X25900Y9485
X28900Y9885
X29000Y15985
X19900Y15985
X17500Y13285
X18400Y12885
X17900Y12085
X17000Y12385
X15400Y12485
X15000Y12135
X13180Y11665
X12100Y11685
X11306Y12485
X10400Y11485
X9300Y11185
X8500Y11485
X13300Y13185
X15600Y14285
X12700Y15585
X11250Y16085
X8800Y15335
X8800Y17435
X8800Y18935
X11250Y18185
X15100Y10385
X15500Y9885
X18400Y10385
X18900Y3785
X10900Y3485
T02
X11100Y4085
X8100Y4185
X8100Y5785
X8100Y7985
X17000Y13885
X18100Y13885
X18100Y14885
X22200Y15685
X22900Y9485
X22900Y6885
X19400Y6085
X31300Y15685
T03
X29808Y17623
X29808Y22347
X21108Y22347
X21108Y17623
T04
X15346Y13239
X16054Y12531
X10500Y13635
X10500Y14485
X5700Y6485
X5700Y5485
X2000Y5985
X1000Y5985
X16500Y4335
X17000Y3585
X17500Y4335
T05
X16900Y6885
X16900Y7885
X16900Y8885
X16900Y9885
X14500Y14285
X13500Y14285
X12500Y14285
X11500Y14285
X12200Y16185
X12200Y17185
X12200Y18185
X23400Y14085
X24400Y14085
X25400Y14085
X26400Y14085
X29400Y12285
X30400Y12285
T06
X29400Y13285
X7300Y4385
X6500Y4385
X5700Y4385
X4300Y4785
X4300Y3785
X2900Y3785
X2900Y4785
X3000Y22485
X1000Y23085
T07
X3316Y19672
X5284Y19672
X14500Y21285
X14500Y24285
X14500Y17285
X14500Y16285
X16400Y11285
X17400Y11285
X18400Y11285
X19400Y11285
X20400Y11285
X21400Y11285
X22400Y11285
X23400Y11285
X24400Y11285
X25400Y11285
X26400Y11285
X27400Y11285
X28400Y11285
X29400Y11285
X30400Y11285
X30400Y5285
X29400Y5285
X28400Y5285
X27400Y5285
X26400Y5285
X25400Y5285
X24400Y5285
X23400Y5285
X22400Y5285
X21400Y5285
X20400Y5285
X19400Y5285
X18400Y5285
X17400Y5285
X16400Y5285
X13800Y9885
X12800Y9885
X11800Y9885
X10800Y9885
X10800Y10885
X11800Y10885
X12800Y10885
X13800Y10885
X7331Y8098
X1269Y8098
T08
X7000Y23685
X7000Y25685
X21400Y12785
X22400Y12785
X23400Y12785
X24400Y12785
X25400Y12785
X26400Y12785
X27400Y12785
X28400Y12785
X28400Y3785
X27400Y3785
X26400Y3785
X25400Y3785
X24400Y3785
X23400Y3785
X22400Y3785
X21400Y3785
T09
X7700Y21985
X3700Y21985
T10
X16305Y22347
X21895Y19985
X25005Y17623
X25005Y22347
X30595Y19985
X16305Y17623
T11
X16330Y24885
X18300Y24885
X20270Y24885
X25030Y24885
X27000Y24885
X28970Y24885
X4790Y25185
X2810Y25185
T12
X15400Y11285
X15400Y5285
X31400Y5285
X31400Y11285
T13
X1000Y3985
X1000Y25985
X13500Y25985
X31100Y25985
X31100Y12985
X31100Y3985
M30
